<?xml version="1.0" encoding="UTF-8" standalone="no"?>
<!DOCTYPE svg PUBLIC "-//W3C//DTD SVG 1.1//EN"
 "http://www.w3.org/Graphics/SVG/1.1/DTD/svg11.dtd">
<!-- Generated by graphviz version 2.40.1 (20161225.0304)
 -->
<!-- Title: Sha256Class Pages: 1 -->
<svg width="118pt" height="95pt"
 viewBox="0.00 0.00 117.50 95.00" xmlns="http://www.w3.org/2000/svg" xmlns:xlink="http://www.w3.org/1999/xlink">
<g id="graph0" class="graph" transform="scale(1 1) rotate(0) translate(4 91)">
<title>Sha256Class</title>
<polygon fill="#ffffff" stroke="transparent" points="-4,4 -4,-91 113.5,-91 113.5,4 -4,4"/>
<!-- Node1 -->
<g id="node1" class="node">
<title>Node1</title>
<polygon fill="#bfbfbf" stroke="#000000" points="16.5,-.5 16.5,-19.5 91.5,-19.5 91.5,-.5 16.5,-.5"/>
<text text-anchor="middle" x="54" y="-7.5" font-family="Helvetica,sans-Serif" font-size="10.00" fill="#000000">Sha256Class</text>
</g>
<!-- Node2 -->
<g id="node2" class="node">
<title>Node2</title>
<g id="a_node2"><a xlink:href="union__state.html" target="_top" xlink:title="_state">
<polygon fill="#ffffff" stroke="#000000" points="0,-67.5 0,-86.5 44,-86.5 44,-67.5 0,-67.5"/>
<text text-anchor="middle" x="22" y="-74.5" font-family="Helvetica,sans-Serif" font-size="10.00" fill="#000000">_state</text>
</a>
</g>
</g>
<!-- Node2&#45;&gt;Node1 -->
<g id="edge1" class="edge">
<title>Node2&#45;&gt;Node1</title>
<path fill="none" stroke="#9a32cd" stroke-dasharray="5,2" d="M29.8997,-58.04C32.6685,-51.6258 35.8704,-44.4551 39,-38 41.9832,-31.8468 45.5958,-25.0852 48.528,-19.7482"/>
<polygon fill="#9a32cd" stroke="#9a32cd" points="26.661,-56.7123 25.9777,-67.2851 33.1052,-59.4461 26.661,-56.7123"/>
<text text-anchor="middle" x="51.5" y="-41" font-family="Helvetica,sans-Serif" font-size="10.00" fill="#000000"> state</text>
</g>
<!-- Node3 -->
<g id="node3" class="node">
<title>Node3</title>
<g id="a_node3"><a xlink:href="union__buffer.html" target="_top" xlink:title="_buffer">
<polygon fill="#ffffff" stroke="#000000" points="62.5,-67.5 62.5,-86.5 109.5,-86.5 109.5,-67.5 62.5,-67.5"/>
<text text-anchor="middle" x="86" y="-74.5" font-family="Helvetica,sans-Serif" font-size="10.00" fill="#000000">_buffer</text>
</a>
</g>
</g>
<!-- Node3&#45;&gt;Node1 -->
<g id="edge2" class="edge">
<title>Node3&#45;&gt;Node1</title>
<path fill="none" stroke="#9a32cd" stroke-dasharray="5,2" d="M77.0388,-58.2374C71.0323,-45.6614 63.373,-29.6246 58.5763,-19.5817"/>
<polygon fill="#9a32cd" stroke="#9a32cd" points="73.9471,-59.8853 81.4152,-67.4005 80.2636,-56.8685 73.9471,-59.8853"/>
<text text-anchor="middle" x="85" y="-41" font-family="Helvetica,sans-Serif" font-size="10.00" fill="#000000"> buffer</text>
</g>
</g>
</svg>
