<?xml version="1.0" encoding="UTF-8" standalone="no"?>
<!DOCTYPE svg PUBLIC "-//W3C//DTD SVG 1.1//EN"
 "http://www.w3.org/Graphics/SVG/1.1/DTD/svg11.dtd">
<!-- Generated by graphviz version 2.40.1 (20161225.0304)
 -->
<!-- Title: ATSHA204Class::swi_receive_bytes Pages: 1 -->
<!--zoomable 121 -->
<svg id="main" version="1.1" xmlns="http://www.w3.org/2000/svg" xmlns:xlink="http://www.w3.org/1999/xlink" xml:space="preserve" onload="init(evt)">
<style type="text/css"><![CDATA[
.edge:hover path { stroke: red; }
.edge:hover polygon { stroke: red; fill: red; }
]]></style>
<script type="text/javascript"><![CDATA[
var edges = document.getElementsByTagName('g');
if (edges && edges.length) {
  for (var i=0;i<edges.length;i++) {
    if (edges[i].id.substr(0,4)=='edge') {
      edges[i].setAttribute('class','edge');
    }
  }
}
]]></script>
        <defs>
                <circle id="rim" cx="0" cy="0" r="7"/>
                <circle id="rim2" cx="0" cy="0" r="3.5"/>
                <g id="zoomPlus">
                        <use xlink:href="#rim" fill="#404040">
                                <set attributeName="fill" to="#808080" begin="zoomplus.mouseover" end="zoomplus.mouseout"/>
                        </use>
                        <path d="M-4,0h8M0,-4v8" fill="none" stroke="white" stroke-width="1.5" pointer-events="none"/>
                </g>
                <g id="zoomMin">
                        <use xlink:href="#rim" fill="#404040">
                                <set attributeName="fill" to="#808080" begin="zoomminus.mouseover" end="zoomminus.mouseout"/>
                        </use>
                        <path d="M-4,0h8" fill="none" stroke="white" stroke-width="1.5" pointer-events="none"/>
                </g>
                <g id="dirArrow">
                        <path fill="none" stroke="white" stroke-width="1.5" d="M0,-3.0v7 M-2.5,-0.5L0,-3.0L2.5,-0.5"/>
                </g>
               <g id="resetDef">
                       <use xlink:href="#rim2" fill="#404040">
                               <set attributeName="fill" to="#808080" begin="reset.mouseover" end="reset.mouseout"/>
                       </use>
               </g>
        </defs>

<script type="text/javascript">
var viewWidth = 1170;
var viewHeight = 121;
var sectionId = 'dynsection-17';
</script>
<script xlink:href="svgpan.js"/>
<svg id="graph" class="graph">
<g id="viewport">
<title>ATSHA204Class::swi_receive_bytes</title>
<polygon fill="#ffffff" stroke="transparent" points="-4,4 -4,-117 1166,-117 1166,4 -4,4"/>
<!-- Node118 -->
<g id="node1" class="node">
<title>Node118</title>
<polygon fill="#bfbfbf" stroke="#000000" points="0,-38.5 0,-68.5 113,-68.5 113,-38.5 0,-38.5"/>
<text text-anchor="start" x="8" y="-56.5" font-family="Helvetica,sans-Serif" font-size="10.00" fill="#000000">ATSHA204Class::swi</text>
<text text-anchor="middle" x="56.5" y="-45.5" font-family="Helvetica,sans-Serif" font-size="10.00" fill="#000000">_receive_bytes</text>
</g>
<!-- Node119 -->
<g id="node2" class="node">
<title>Node119</title>
<g id="a_node2"><a xlink:href="classATSHA204Class.html#ae5c777e2388de999d13afef7008a36a7" target="_top" xlink:title="ATSHA204Class::sha204p\l_receive_response">
<polygon fill="#ffffff" stroke="#000000" points="149,-38.5 149,-68.5 283,-68.5 283,-38.5 149,-38.5"/>
<text text-anchor="start" x="157" y="-56.5" font-family="Helvetica,sans-Serif" font-size="10.00" fill="#000000">ATSHA204Class::sha204p</text>
<text text-anchor="middle" x="216" y="-45.5" font-family="Helvetica,sans-Serif" font-size="10.00" fill="#000000">_receive_response</text>
</a>
</g>
</g>
<!-- Node118&#45;&gt;Node119 -->
<g id="edge1" class="edge">
<title>Node118&#45;&gt;Node119</title>
<path fill="none" stroke="#191970" d="M123.3503,-53.5C131.7878,-53.5 140.4231,-53.5 148.865,-53.5"/>
<polygon fill="#191970" stroke="#191970" points="123.1829,-50.0001 113.1828,-53.5 123.1828,-57.0001 123.1829,-50.0001"/>
</g>
<!-- Node120 -->
<g id="node3" class="node">
<title>Node120</title>
<g id="a_node3"><a xlink:href="classATSHA204Class.html#a2772385d612dee11f65c310334d7952b" target="_top" xlink:title="ATSHA204Class::sha204c\l_wakeup">
<polygon fill="#ffffff" stroke="#000000" points="319,-82.5 319,-112.5 453,-112.5 453,-82.5 319,-82.5"/>
<text text-anchor="start" x="327" y="-100.5" font-family="Helvetica,sans-Serif" font-size="10.00" fill="#000000">ATSHA204Class::sha204c</text>
<text text-anchor="middle" x="386" y="-89.5" font-family="Helvetica,sans-Serif" font-size="10.00" fill="#000000">_wakeup</text>
</a>
</g>
</g>
<!-- Node119&#45;&gt;Node120 -->
<g id="edge2" class="edge">
<title>Node119&#45;&gt;Node120</title>
<path fill="none" stroke="#191970" d="M283.9773,-71.0941C298.5398,-74.8632 313.7973,-78.8122 327.9442,-82.4738"/>
<polygon fill="#191970" stroke="#191970" points="284.5869,-67.6366 274.0289,-68.5192 282.8329,-74.4133 284.5869,-67.6366"/>
</g>
<!-- Node121 -->
<g id="node4" class="node">
<title>Node121</title>
<g id="a_node4"><a xlink:href="classATSHA204Class.html#a0d8eab6a8af231835dd5b6734df0d670" target="_top" xlink:title="ATSHA204Class::sha204c\l_resync">
<polygon fill="#ffffff" stroke="#000000" points="489,-44.5 489,-74.5 623,-74.5 623,-44.5 489,-44.5"/>
<text text-anchor="start" x="497" y="-62.5" font-family="Helvetica,sans-Serif" font-size="10.00" fill="#000000">ATSHA204Class::sha204c</text>
<text text-anchor="middle" x="556" y="-51.5" font-family="Helvetica,sans-Serif" font-size="10.00" fill="#000000">_resync</text>
</a>
</g>
</g>
<!-- Node119&#45;&gt;Node121 -->
<g id="edge8" class="edge">
<title>Node119&#45;&gt;Node121</title>
<path fill="none" stroke="#191970" d="M293.1858,-54.8621C352.1731,-55.9031 432.6595,-57.3234 488.9665,-58.3171"/>
<polygon fill="#191970" stroke="#191970" points="293.2333,-51.3625 283.1731,-54.6854 293.1097,-58.3614 293.2333,-51.3625"/>
</g>
<!-- Node122 -->
<g id="node5" class="node">
<title>Node122</title>
<g id="a_node5"><a xlink:href="classATSHA204Class.html#a3689222ad46022e5c50ba484053d9b2c" target="_top" xlink:title="ATSHA204Class::sha204c\l_send_and_receive">
<polygon fill="#ffffff" stroke="#000000" points="659,-22.5 659,-52.5 793,-52.5 793,-22.5 659,-22.5"/>
<text text-anchor="start" x="667" y="-40.5" font-family="Helvetica,sans-Serif" font-size="10.00" fill="#000000">ATSHA204Class::sha204c</text>
<text text-anchor="middle" x="726" y="-29.5" font-family="Helvetica,sans-Serif" font-size="10.00" fill="#000000">_send_and_receive</text>
</a>
</g>
</g>
<!-- Node119&#45;&gt;Node122 -->
<g id="edge9" class="edge">
<title>Node119&#45;&gt;Node122</title>
<path fill="none" stroke="#191970" d="M293.5517,-47.0226C348.1568,-42.7959 422.994,-37.6737 489,-35.5 548.5233,-33.5398 563.4473,-34.9219 623,-35.5 634.6249,-35.6129 646.9868,-35.7973 658.962,-36.0098"/>
<polygon fill="#191970" stroke="#191970" points="292.9506,-43.5588 283.2538,-47.8276 293.4962,-50.5375 292.9506,-43.5588"/>
</g>
<!-- Node120&#45;&gt;Node121 -->
<g id="edge3" class="edge">
<title>Node120&#45;&gt;Node121</title>
<path fill="none" stroke="#191970" d="M463.146,-80.2556C471.6879,-78.3462 480.3366,-76.413 488.7428,-74.534"/>
<polygon fill="#191970" stroke="#191970" points="462.1841,-76.8842 453.1885,-82.4814 463.7112,-83.7156 462.1841,-76.8842"/>
</g>
<!-- Node121&#45;&gt;Node122 -->
<g id="edge4" class="edge">
<title>Node121&#45;&gt;Node122</title>
<path fill="none" stroke="#191970" d="M633.146,-49.5164C641.6879,-48.411 650.3366,-47.2917 658.7428,-46.2039"/>
<polygon fill="#191970" stroke="#191970" points="632.6566,-46.0505 623.1885,-50.805 633.555,-52.9926 632.6566,-46.0505"/>
</g>
<!-- Node123 -->
<g id="node6" class="node">
<title>Node123</title>
<g id="a_node6"><a xlink:href="classATSHA204Class.html#a6bcaa1359ac7392ed066641323fe8d5d" target="_top" xlink:title="ATSHA204Class::sha204m_read">
<polygon fill="#ffffff" stroke="#000000" points="829,-50 829,-69 990,-69 990,-50 829,-50"/>
<text text-anchor="middle" x="909.5" y="-57" font-family="Helvetica,sans-Serif" font-size="10.00" fill="#000000">ATSHA204Class::sha204m_read</text>
</a>
</g>
</g>
<!-- Node122&#45;&gt;Node123 -->
<g id="edge5" class="edge">
<title>Node122&#45;&gt;Node123</title>
<path fill="none" stroke="#191970" d="M803.0565,-46.7384C812.0293,-47.8141 821.1946,-48.913 830.1971,-49.9923"/>
<polygon fill="#191970" stroke="#191970" points="803.3722,-43.2512 793.0266,-45.5359 802.5389,-50.2015 803.3722,-43.2512"/>
</g>
<!-- Node125 -->
<g id="node8" class="node">
<title>Node125</title>
<g id="a_node8"><a xlink:href="classATSHA204Class.html#a8600d67f5c574e1584ef5555429f305b" target="_top" xlink:title="ATSHA204Class::sha204m\l_execute">
<polygon fill="#ffffff" stroke="#000000" points="841,-.5 841,-30.5 978,-30.5 978,-.5 841,-.5"/>
<text text-anchor="start" x="849" y="-18.5" font-family="Helvetica,sans-Serif" font-size="10.00" fill="#000000">ATSHA204Class::sha204m</text>
<text text-anchor="middle" x="909.5" y="-7.5" font-family="Helvetica,sans-Serif" font-size="10.00" fill="#000000">_execute</text>
</a>
</g>
</g>
<!-- Node122&#45;&gt;Node125 -->
<g id="edge7" class="edge">
<title>Node122&#45;&gt;Node125</title>
<path fill="none" stroke="#191970" d="M802.9927,-28.2693C815.5439,-26.7645 828.4735,-25.2144 840.8084,-23.7355"/>
<polygon fill="#191970" stroke="#191970" points="802.5389,-24.7985 793.0266,-29.4641 803.3722,-31.7488 802.5389,-24.7985"/>
</g>
<!-- Node124 -->
<g id="node7" class="node">
<title>Node124</title>
<g id="a_node7"><a xlink:href="classATSHA204Class.html#ade50092ec236d13cde64e7684b59ab7b" target="_top" xlink:title="ATSHA204Class::getSerial\lNumber">
<polygon fill="#ffffff" stroke="#000000" points="1026,-44.5 1026,-74.5 1162,-74.5 1162,-44.5 1026,-44.5"/>
<text text-anchor="start" x="1034" y="-62.5" font-family="Helvetica,sans-Serif" font-size="10.00" fill="#000000">ATSHA204Class::getSerial</text>
<text text-anchor="middle" x="1094" y="-51.5" font-family="Helvetica,sans-Serif" font-size="10.00" fill="#000000">Number</text>
</a>
</g>
</g>
<!-- Node123&#45;&gt;Node124 -->
<g id="edge6" class="edge">
<title>Node123&#45;&gt;Node124</title>
<path fill="none" stroke="#191970" d="M1000.2634,-59.5C1008.8956,-59.5 1017.5452,-59.5 1025.9096,-59.5"/>
<polygon fill="#191970" stroke="#191970" points="1000.156,-56.0001 990.156,-59.5 1000.156,-63.0001 1000.156,-56.0001"/>
</g>
</g>
</svg>
        <g id="navigator" transform="translate(0 0)" fill="#404254">
                <rect fill="#f2f5e9" fill-opacity="0.5" stroke="#606060" stroke-width=".5" x="0" y="0" width="60" height="60"/>
                <use id="zoomplus" xlink:href="#zoomPlus" x="17" y="9" onmousedown="handleZoom(evt,'in')"/>
                <use id="zoomminus" xlink:href="#zoomMin" x="42" y="9" onmousedown="handleZoom(evt,'out')"/>
                <use id="reset" xlink:href="#resetDef" x="30" y="36" onmousedown="handleReset()"/>
                <g id="arrowUp" xlink:href="#dirArrow" transform="translate(30 24)" onmousedown="handlePan(0,-1)">
                  <use xlink:href="#rim" fill="#404040">
                        <set attributeName="fill" to="#808080" begin="arrowUp.mouseover" end="arrowUp.mouseout"/>
                  </use>
                  <path fill="none" stroke="white" stroke-width="1.5" d="M0,-3.0v7 M-2.5,-0.5L0,-3.0L2.5,-0.5"/>
                </g>
                <g id="arrowRight" xlink:href="#dirArrow" transform="rotate(90) translate(36 -43)" onmousedown="handlePan(1,0)">
                  <use xlink:href="#rim" fill="#404040">
                        <set attributeName="fill" to="#808080" begin="arrowRight.mouseover" end="arrowRight.mouseout"/>
                  </use>
                  <path fill="none" stroke="white" stroke-width="1.5" d="M0,-3.0v7 M-2.5,-0.5L0,-3.0L2.5,-0.5"/>
                </g>
                <g id="arrowDown" xlink:href="#dirArrow" transform="rotate(180) translate(-30 -48)" onmousedown="handlePan(0,1)">
                  <use xlink:href="#rim" fill="#404040">
                        <set attributeName="fill" to="#808080" begin="arrowDown.mouseover" end="arrowDown.mouseout"/>
                  </use>
                  <path fill="none" stroke="white" stroke-width="1.5" d="M0,-3.0v7 M-2.5,-0.5L0,-3.0L2.5,-0.5"/>
                </g>
                <g id="arrowLeft" xlink:href="#dirArrow" transform="rotate(270) translate(-36 17)" onmousedown="handlePan(-1,0)">
                  <use xlink:href="#rim" fill="#404040">
                        <set attributeName="fill" to="#808080" begin="arrowLeft.mouseover" end="arrowLeft.mouseout"/>
                  </use>
                  <path fill="none" stroke="white" stroke-width="1.5" d="M0,-3.0v7 M-2.5,-0.5L0,-3.0L2.5,-0.5"/>
                </g>
        </g>
        <svg viewBox="0 0 15 15" width="100%" height="30px" preserveAspectRatio="xMaxYMin meet">
         <g id="arrow_out" transform="scale(0.3 0.3)">
          <a xlink:href="classATSHA204Class_ae81c8e3063da186b698d31bad70e543b_icgraph_org.svg" target="_base">
           <rect id="button" ry="5" rx="5" y="6" x="6" height="38" width="38"
                fill="#f2f5e9" fill-opacity="0.5" stroke="#606060" stroke-width="1.0"/>
           <path id="arrow"
             d="M 11.500037,31.436501 C 11.940474,20.09759 22.043105,11.32322 32.158766,21.979434 L 37.068811,17.246167 C 37.068811,17.246167 37.088388,32 37.088388,32 L 22.160133,31.978069 C 22.160133,31.978069 26.997745,27.140456 26.997745,27.140456 C 18.528582,18.264221 13.291696,25.230495 11.500037,31.436501 z"
             style="fill:#404040;"/>
          </a>
         </g>
        </svg>
</svg>
