<?xml version="1.0" encoding="UTF-8" standalone="no"?>
<!DOCTYPE svg PUBLIC "-//W3C//DTD SVG 1.1//EN"
 "http://www.w3.org/Graphics/SVG/1.1/DTD/svg11.dtd">
<!-- Generated by graphviz version 2.40.1 (20161225.0304)
 -->
<!-- Title: Sha256Class::pad Pages: 1 -->
<svg width="962pt" height="154pt"
 viewBox="0.00 0.00 962.00 154.00" xmlns="http://www.w3.org/2000/svg" xmlns:xlink="http://www.w3.org/1999/xlink">
<g id="graph0" class="graph" transform="scale(1 1) rotate(0) translate(4 150)">
<title>Sha256Class::pad</title>
<polygon fill="#ffffff" stroke="transparent" points="-4,4 -4,-150 958,-150 958,4 -4,4"/>
<!-- Node65 -->
<g id="node1" class="node">
<title>Node65</title>
<polygon fill="#bfbfbf" stroke="#000000" points="0,-30 0,-49 97,-49 97,-30 0,-30"/>
<text text-anchor="middle" x="48.5" y="-37" font-family="Helvetica,sans-Serif" font-size="10.00" fill="#000000">Sha256Class::pad</text>
</g>
<!-- Node66 -->
<g id="node2" class="node">
<title>Node66</title>
<g id="a_node2"><a xlink:href="classSha256Class.html#a0ca245a22f8b056a3d1902da3c64b705" target="_top" xlink:title="Sha256Class::result">
<polygon fill="#ffffff" stroke="#000000" points="133,-30 133,-49 238,-49 238,-30 133,-30"/>
<text text-anchor="middle" x="185.5" y="-37" font-family="Helvetica,sans-Serif" font-size="10.00" fill="#000000">Sha256Class::result</text>
</a>
</g>
</g>
<!-- Node65&#45;&gt;Node66 -->
<g id="edge1" class="edge">
<title>Node65&#45;&gt;Node66</title>
<path fill="none" stroke="#191970" d="M107.3612,-39.5C115.8127,-39.5 124.4639,-39.5 132.7863,-39.5"/>
<polygon fill="#191970" stroke="#191970" points="107.1869,-36.0001 97.1868,-39.5 107.1868,-43.0001 107.1869,-36.0001"/>
</g>
<!-- Node67 -->
<g id="node3" class="node">
<title>Node67</title>
<g id="a_node3"><a xlink:href="classSha256Class.html#a73d3dcea6eb667fd146d12aa5d106939" target="_top" xlink:title="Sha256Class::initHmac">
<polygon fill="#ffffff" stroke="#000000" points="279.5,-49 279.5,-68 399.5,-68 399.5,-49 279.5,-49"/>
<text text-anchor="middle" x="339.5" y="-56" font-family="Helvetica,sans-Serif" font-size="10.00" fill="#000000">Sha256Class::initHmac</text>
</a>
</g>
</g>
<!-- Node66&#45;&gt;Node67 -->
<g id="edge2" class="edge">
<title>Node66&#45;&gt;Node67</title>
<path fill="none" stroke="#191970" d="M248.2416,-47.2408C258.5627,-48.5142 269.2379,-49.8313 279.4902,-51.0962"/>
<polygon fill="#191970" stroke="#191970" points="248.4207,-43.7365 238.0673,-45.9856 247.5635,-50.6838 248.4207,-43.7365"/>
</g>
<!-- Node75 -->
<g id="node11" class="node">
<title>Node75</title>
<g id="a_node11"><a xlink:href="classSha256Class.html#a7556f29cadf7eaca21a537df41318af3" target="_top" xlink:title="Sha256Class::resultHmac">
<polygon fill="#ffffff" stroke="#000000" points="274,-11 274,-30 405,-30 405,-11 274,-11"/>
<text text-anchor="middle" x="339.5" y="-18" font-family="Helvetica,sans-Serif" font-size="10.00" fill="#000000">Sha256Class::resultHmac</text>
</a>
</g>
</g>
<!-- Node66&#45;&gt;Node75 -->
<g id="edge12" class="edge">
<title>Node66&#45;&gt;Node75</title>
<path fill="none" stroke="#191970" d="M248.2163,-31.7623C256.6565,-30.721 265.334,-29.6504 273.8237,-28.6029"/>
<polygon fill="#191970" stroke="#191970" points="247.5635,-28.3162 238.0673,-33.0144 248.4207,-35.2635 247.5635,-28.3162"/>
</g>
<!-- Node68 -->
<g id="node4" class="node">
<title>Node68</title>
<g id="a_node4"><a xlink:href="TooNetworking_8h.html#a9f893c3218491ee86282fdcd9f376500" target="_top" xlink:title="TooNetworking_send\l_signed_">
<polygon fill="#ffffff" stroke="#000000" points="441.5,-49.5 441.5,-79.5 550.5,-79.5 550.5,-49.5 441.5,-49.5"/>
<text text-anchor="start" x="449.5" y="-67.5" font-family="Helvetica,sans-Serif" font-size="10.00" fill="#000000">TooNetworking_send</text>
<text text-anchor="middle" x="496" y="-56.5" font-family="Helvetica,sans-Serif" font-size="10.00" fill="#000000">_signed_</text>
</a>
</g>
</g>
<!-- Node67&#45;&gt;Node68 -->
<g id="edge3" class="edge">
<title>Node67&#45;&gt;Node68</title>
<path fill="none" stroke="#191970" d="M409.6943,-61.1912C420.3568,-61.5999 431.221,-62.0165 441.4836,-62.4099"/>
<polygon fill="#191970" stroke="#191970" points="409.6862,-57.6884 399.5594,-60.8026 409.4179,-64.6832 409.6862,-57.6884"/>
</g>
<!-- Node74 -->
<g id="node10" class="node">
<title>Node74</title>
<g id="a_node10"><a xlink:href="TooSigning_8cpp.html#a03df9fd005c518d1114f912ae7da9f06" target="_top" xlink:title="TooSigning_unsigned\l_network_available">
<polygon fill="#ffffff" stroke="#000000" points="441,-.5 441,-30.5 551,-30.5 551,-.5 441,-.5"/>
<text text-anchor="start" x="449" y="-18.5" font-family="Helvetica,sans-Serif" font-size="10.00" fill="#000000">TooSigning_unsigned</text>
<text text-anchor="middle" x="496" y="-7.5" font-family="Helvetica,sans-Serif" font-size="10.00" fill="#000000">_network_available</text>
</a>
</g>
</g>
<!-- Node67&#45;&gt;Node74 -->
<g id="edge10" class="edge">
<title>Node67&#45;&gt;Node74</title>
<path fill="none" stroke="#191970" d="M384.3392,-46.18C402.1228,-41.2937 422.741,-35.6287 441.3841,-30.5063"/>
<polygon fill="#191970" stroke="#191970" points="382.9477,-42.9325 374.2324,-48.9569 384.8024,-49.6823 382.9477,-42.9325"/>
</g>
<!-- Node69 -->
<g id="node5" class="node">
<title>Node69</title>
<g id="a_node5"><a xlink:href="TooNetworking_8h.html#a9209f3e1a2fdf0b3b88d49105b8fc359" target="_top" xlink:title="TooNetworking_send\l_signed">
<polygon fill="#ffffff" stroke="#000000" points="595,-22.5 595,-52.5 704,-52.5 704,-22.5 595,-22.5"/>
<text text-anchor="start" x="603" y="-40.5" font-family="Helvetica,sans-Serif" font-size="10.00" fill="#000000">TooNetworking_send</text>
<text text-anchor="middle" x="649.5" y="-29.5" font-family="Helvetica,sans-Serif" font-size="10.00" fill="#000000">_signed</text>
</a>
</g>
</g>
<!-- Node68&#45;&gt;Node69 -->
<g id="edge4" class="edge">
<title>Node68&#45;&gt;Node69</title>
<path fill="none" stroke="#191970" d="M560.4808,-53.1581C571.9202,-51.146 583.7329,-49.0682 594.8666,-47.1098"/>
<polygon fill="#191970" stroke="#191970" points="559.793,-49.7253 550.5506,-54.9048 561.0057,-56.6194 559.793,-49.7253"/>
</g>
<!-- Node70 -->
<g id="node6" class="node">
<title>Node70</title>
<g id="a_node6"><a xlink:href="TooNetworking_8h.html#a085ff748b00f6be4ebafcae2bb0dded1" target="_top" xlink:title="TooNetworking_bufferlist\l_send_signed">
<polygon fill="#ffffff" stroke="#000000" points="753,-115.5 753,-145.5 878,-145.5 878,-115.5 753,-115.5"/>
<text text-anchor="start" x="761" y="-133.5" font-family="Helvetica,sans-Serif" font-size="10.00" fill="#000000">TooNetworking_bufferlist</text>
<text text-anchor="middle" x="815.5" y="-122.5" font-family="Helvetica,sans-Serif" font-size="10.00" fill="#000000">_send_signed</text>
</a>
</g>
</g>
<!-- Node68&#45;&gt;Node70 -->
<g id="edge5" class="edge">
<title>Node68&#45;&gt;Node70</title>
<path fill="none" stroke="#191970" d="M527.7682,-84.8468C544.6836,-94.6426 566.2361,-105.5325 587,-111.5 641.5182,-127.1683 706.1428,-131.2805 752.7301,-131.847"/>
<polygon fill="#191970" stroke="#191970" points="529.265,-81.6646 518.8822,-79.5555 525.6836,-87.6791 529.265,-81.6646"/>
</g>
<!-- Node72 -->
<g id="node8" class="node">
<title>Node72</title>
<g id="a_node8"><a xlink:href="TooNetworking_8h.html#ab58e06e0eb6f2f8ecbebeaf3c173fb22" target="_top" xlink:title="TooNetworking_bufferlist\l_send_all">
<polygon fill="#ffffff" stroke="#000000" points="587,-71.5 587,-101.5 712,-101.5 712,-71.5 587,-71.5"/>
<text text-anchor="start" x="595" y="-89.5" font-family="Helvetica,sans-Serif" font-size="10.00" fill="#000000">TooNetworking_bufferlist</text>
<text text-anchor="middle" x="649.5" y="-78.5" font-family="Helvetica,sans-Serif" font-size="10.00" fill="#000000">_send_all</text>
</a>
</g>
</g>
<!-- Node68&#45;&gt;Node72 -->
<g id="edge7" class="edge">
<title>Node68&#45;&gt;Node72</title>
<path fill="none" stroke="#191970" d="M560.5908,-73.7573C569.2498,-74.9983 578.1207,-76.2697 586.7474,-77.5061"/>
<polygon fill="#191970" stroke="#191970" points="560.946,-70.2725 550.5506,-72.3183 559.9528,-77.2017 560.946,-70.2725"/>
</g>
<!-- Node71 -->
<g id="node7" class="node">
<title>Node71</title>
<g id="a_node7"><a xlink:href="NODE__SKETCH__TooAutomation__Node_8ino_8cpp.html#a0b33edabd7f1c4e4a0bf32c67269be2f" target="_top" xlink:title="loop">
<polygon fill="#ffffff" stroke="#000000" points="919,-96 919,-115 954,-115 954,-96 919,-96"/>
<text text-anchor="middle" x="936.5" y="-103" font-family="Helvetica,sans-Serif" font-size="10.00" fill="#000000">loop</text>
</a>
</g>
</g>
<!-- Node70&#45;&gt;Node71 -->
<g id="edge6" class="edge">
<title>Node70&#45;&gt;Node71</title>
<path fill="none" stroke="#191970" d="M888.2474,-115.4695C899.636,-113.1165 910.4203,-110.8884 918.8934,-109.1377"/>
<polygon fill="#191970" stroke="#191970" points="887.2115,-112.1096 878.1266,-117.5606 888.6279,-118.9648 887.2115,-112.1096"/>
</g>
<!-- Node73 -->
<g id="node9" class="node">
<title>Node73</title>
<g id="a_node9"><a xlink:href="TooNetworking_8h.html#a7382ba1aed5405c3adc02011ea6c45dd" target="_top" xlink:title="TooNetworking_connection\l_maintenance">
<polygon fill="#ffffff" stroke="#000000" points="748,-66.5 748,-96.5 883,-96.5 883,-66.5 748,-66.5"/>
<text text-anchor="start" x="756" y="-84.5" font-family="Helvetica,sans-Serif" font-size="10.00" fill="#000000">TooNetworking_connection</text>
<text text-anchor="middle" x="815.5" y="-73.5" font-family="Helvetica,sans-Serif" font-size="10.00" fill="#000000">_maintenance</text>
</a>
</g>
</g>
<!-- Node72&#45;&gt;Node73 -->
<g id="edge8" class="edge">
<title>Node72&#45;&gt;Node73</title>
<path fill="none" stroke="#191970" d="M722.4873,-84.3016C730.951,-84.0467 739.5556,-83.7875 747.9422,-83.5349"/>
<polygon fill="#191970" stroke="#191970" points="722.1475,-80.8101 712.2575,-84.6097 722.3584,-87.807 722.1475,-80.8101"/>
</g>
<!-- Node73&#45;&gt;Node71 -->
<g id="edge9" class="edge">
<title>Node73&#45;&gt;Node71</title>
<path fill="none" stroke="#191970" d="M893.1566,-96.903C902.6588,-98.7877 911.5454,-100.5503 918.7679,-101.9829"/>
<polygon fill="#191970" stroke="#191970" points="893.5653,-93.4159 883.0754,-94.9034 892.2034,-100.2822 893.5653,-93.4159"/>
</g>
<!-- Node74&#45;&gt;Node73 -->
<g id="edge11" class="edge">
<title>Node74&#45;&gt;Node73</title>
<path fill="none" stroke="#191970" d="M561.6231,-4.4072C605.1972,.5076 663.1514,2.2902 712,-12.5 746.7241,-23.0136 780.4466,-49.4439 799.5276,-66.3724"/>
<polygon fill="#191970" stroke="#191970" points="560.9386,-.9645 551.4326,-5.6427 561.7812,-7.9136 560.9386,-.9645"/>
</g>
<!-- Node75&#45;&gt;Node68 -->
<g id="edge13" class="edge">
<title>Node75&#45;&gt;Node68</title>
<path fill="none" stroke="#191970" d="M383.2907,-32.8118C401.6355,-37.9694 423.1377,-44.0148 442.4152,-49.4346"/>
<polygon fill="#191970" stroke="#191970" points="384.0323,-29.3846 373.4582,-30.0473 382.1376,-36.1233 384.0323,-29.3846"/>
</g>
<!-- Node75&#45;&gt;Node74 -->
<g id="edge14" class="edge">
<title>Node75&#45;&gt;Node74</title>
<path fill="none" stroke="#191970" d="M415.6267,-18.0678C424.0319,-17.7993 432.4698,-17.5297 440.5521,-17.2715"/>
<polygon fill="#191970" stroke="#191970" points="415.2996,-14.5764 405.4165,-18.394 415.5232,-21.5728 415.2996,-14.5764"/>
</g>
</g>
</svg>
