<?xml version="1.0" encoding="UTF-8" standalone="no"?>
<!DOCTYPE svg PUBLIC "-//W3C//DTD SVG 1.1//EN"
 "http://www.w3.org/Graphics/SVG/1.1/DTD/svg11.dtd">
<!-- Generated by graphviz version 2.40.1 (20161225.0304)
 -->
<!-- Title: Sha256Class::addUncounted Pages: 1 -->
<!--zoomable 162 -->
<svg id="main" version="1.1" xmlns="http://www.w3.org/2000/svg" xmlns:xlink="http://www.w3.org/1999/xlink" xml:space="preserve" onload="init(evt)">
<style type="text/css"><![CDATA[
.edge:hover path { stroke: red; }
.edge:hover polygon { stroke: red; fill: red; }
]]></style>
<script type="text/javascript"><![CDATA[
var edges = document.getElementsByTagName('g');
if (edges && edges.length) {
  for (var i=0;i<edges.length;i++) {
    if (edges[i].id.substr(0,4)=='edge') {
      edges[i].setAttribute('class','edge');
    }
  }
}
]]></script>
        <defs>
                <circle id="rim" cx="0" cy="0" r="7"/>
                <circle id="rim2" cx="0" cy="0" r="3.5"/>
                <g id="zoomPlus">
                        <use xlink:href="#rim" fill="#404040">
                                <set attributeName="fill" to="#808080" begin="zoomplus.mouseover" end="zoomplus.mouseout"/>
                        </use>
                        <path d="M-4,0h8M0,-4v8" fill="none" stroke="white" stroke-width="1.5" pointer-events="none"/>
                </g>
                <g id="zoomMin">
                        <use xlink:href="#rim" fill="#404040">
                                <set attributeName="fill" to="#808080" begin="zoomminus.mouseover" end="zoomminus.mouseout"/>
                        </use>
                        <path d="M-4,0h8" fill="none" stroke="white" stroke-width="1.5" pointer-events="none"/>
                </g>
                <g id="dirArrow">
                        <path fill="none" stroke="white" stroke-width="1.5" d="M0,-3.0v7 M-2.5,-0.5L0,-3.0L2.5,-0.5"/>
                </g>
               <g id="resetDef">
                       <use xlink:href="#rim2" fill="#404040">
                               <set attributeName="fill" to="#808080" begin="reset.mouseover" end="reset.mouseout"/>
                       </use>
               </g>
        </defs>

<script type="text/javascript">
var viewWidth = 1142;
var viewHeight = 162;
var sectionId = 'dynsection-2';
</script>
<script xlink:href="svgpan.js"/>
<svg id="graph" class="graph">
<g id="viewport">
<title>Sha256Class::addUncounted</title>
<polygon fill="#ffffff" stroke="transparent" points="-4,4 -4,-157.5 1138,-157.5 1138,4 -4,4"/>
<!-- Node3 -->
<g id="node1" class="node">
<title>Node3</title>
<polygon fill="#bfbfbf" stroke="#000000" points="0,-57.5 0,-76.5 144,-76.5 144,-57.5 0,-57.5"/>
<text text-anchor="middle" x="72" y="-64.5" font-family="Helvetica,sans-Serif" font-size="10.00" fill="#000000">Sha256Class::addUncounted</text>
</g>
<!-- Node4 -->
<g id="node2" class="node">
<title>Node4</title>
<g id="a_node2"><a xlink:href="classSha256Class.html#a0f0fc4bd4d8c53d232df0d41d7ea25e0" target="_top" xlink:title="Sha256Class::write">
<polygon fill="#ffffff" stroke="#000000" points="314.5,-38.5 314.5,-57.5 416.5,-57.5 416.5,-38.5 314.5,-38.5"/>
<text text-anchor="middle" x="365.5" y="-45.5" font-family="Helvetica,sans-Serif" font-size="10.00" fill="#000000">Sha256Class::write</text>
</a>
</g>
</g>
<!-- Node3&#45;&gt;Node4 -->
<g id="edge1" class="edge">
<title>Node3&#45;&gt;Node4</title>
<path fill="none" stroke="#191970" d="M154.2671,-61.6744C205.6598,-58.3474 270.2228,-54.1679 314.3572,-51.3108"/>
<polygon fill="#191970" stroke="#191970" points="153.9271,-58.189 144.1741,-62.3277 154.3793,-65.1743 153.9271,-58.189"/>
</g>
<!-- Node15 -->
<g id="node13" class="node">
<title>Node15</title>
<g id="a_node13"><a xlink:href="classSha256Class.html#a82049dae520ccf0bd8478f2aef639149" target="_top" xlink:title="Sha256Class::pad">
<polygon fill="#ffffff" stroke="#000000" points="180,-76.5 180,-95.5 277,-95.5 277,-76.5 180,-76.5"/>
<text text-anchor="middle" x="228.5" y="-83.5" font-family="Helvetica,sans-Serif" font-size="10.00" fill="#000000">Sha256Class::pad</text>
</a>
</g>
</g>
<!-- Node3&#45;&gt;Node15 -->
<g id="edge18" class="edge">
<title>Node3&#45;&gt;Node15</title>
<path fill="none" stroke="#191970" d="M154.4503,-77.0099C163.0962,-78.0596 171.6735,-79.1009 179.7583,-80.0825"/>
<polygon fill="#191970" stroke="#191970" points="154.6436,-73.5078 144.2947,-75.777 153.7999,-80.4568 154.6436,-73.5078"/>
</g>
<!-- Node5 -->
<g id="node3" class="node">
<title>Node5</title>
<g id="a_node3"><a xlink:href="classSha256Class.html#a73d3dcea6eb667fd146d12aa5d106939" target="_top" xlink:title="Sha256Class::initHmac">
<polygon fill="#ffffff" stroke="#000000" points="459.5,-76.5 459.5,-95.5 579.5,-95.5 579.5,-76.5 459.5,-76.5"/>
<text text-anchor="middle" x="519.5" y="-83.5" font-family="Helvetica,sans-Serif" font-size="10.00" fill="#000000">Sha256Class::initHmac</text>
</a>
</g>
</g>
<!-- Node4&#45;&gt;Node5 -->
<g id="edge2" class="edge">
<title>Node4&#45;&gt;Node5</title>
<path fill="none" stroke="#191970" d="M414.2937,-60.04C435.8082,-65.3488 460.7318,-71.4988 480.9187,-76.4799"/>
<polygon fill="#191970" stroke="#191970" points="414.908,-56.5867 404.3607,-57.589 413.231,-63.3828 414.908,-56.5867"/>
</g>
<!-- Node13 -->
<g id="node11" class="node">
<title>Node13</title>
<g id="a_node11"><a xlink:href="classSha256Class.html#a7556f29cadf7eaca21a537df41318af3" target="_top" xlink:title="Sha256Class::resultHmac">
<polygon fill="#ffffff" stroke="#000000" points="454,-38.5 454,-57.5 585,-57.5 585,-38.5 454,-38.5"/>
<text text-anchor="middle" x="519.5" y="-45.5" font-family="Helvetica,sans-Serif" font-size="10.00" fill="#000000">Sha256Class::resultHmac</text>
</a>
</g>
</g>
<!-- Node4&#45;&gt;Node13 -->
<g id="edge12" class="edge">
<title>Node4&#45;&gt;Node13</title>
<path fill="none" stroke="#191970" d="M427.0102,-48C435.8617,-48 444.9981,-48 453.925,-48"/>
<polygon fill="#191970" stroke="#191970" points="426.7798,-44.5001 416.7798,-48 426.7797,-51.5001 426.7798,-44.5001"/>
</g>
<!-- Node14 -->
<g id="node12" class="node">
<title>Node14</title>
<g id="a_node12"><a xlink:href="group__TOOSIGNING__HASHING.html#gafb2935303b05255e80a7a6fa4be7cf57" target="_top" xlink:title="TooSigning_hash_data">
<polygon fill="#ffffff" stroke="#000000" points="461.5,-.5 461.5,-19.5 577.5,-19.5 577.5,-.5 461.5,-.5"/>
<text text-anchor="middle" x="519.5" y="-7.5" font-family="Helvetica,sans-Serif" font-size="10.00" fill="#000000">TooSigning_hash_data</text>
</a>
</g>
</g>
<!-- Node4&#45;&gt;Node14 -->
<g id="edge15" class="edge">
<title>Node4&#45;&gt;Node14</title>
<path fill="none" stroke="#191970" d="M414.2937,-35.96C435.8082,-30.6512 460.7318,-24.5012 480.9187,-19.5201"/>
<polygon fill="#191970" stroke="#191970" points="413.231,-32.6172 404.3607,-38.411 414.908,-39.4133 413.231,-32.6172"/>
</g>
<!-- Node6 -->
<g id="node4" class="node">
<title>Node6</title>
<g id="a_node4"><a xlink:href="TooNetworking_8h.html#a9f893c3218491ee86282fdcd9f376500" target="_top" xlink:title="TooNetworking_send\l_signed_">
<polygon fill="#ffffff" stroke="#000000" points="621.5,-64 621.5,-94 730.5,-94 730.5,-64 621.5,-64"/>
<text text-anchor="start" x="629.5" y="-82" font-family="Helvetica,sans-Serif" font-size="10.00" fill="#000000">TooNetworking_send</text>
<text text-anchor="middle" x="676" y="-71" font-family="Helvetica,sans-Serif" font-size="10.00" fill="#000000">_signed_</text>
</a>
</g>
</g>
<!-- Node5&#45;&gt;Node6 -->
<g id="edge3" class="edge">
<title>Node5&#45;&gt;Node6</title>
<path fill="none" stroke="#191970" d="M589.6943,-82.8603C600.3568,-82.3834 611.221,-81.8975 621.4836,-81.4384"/>
<polygon fill="#191970" stroke="#191970" points="589.393,-79.3702 579.5594,-83.3136 589.7058,-86.3632 589.393,-79.3702"/>
</g>
<!-- Node12 -->
<g id="node10" class="node">
<title>Node12</title>
<g id="a_node10"><a xlink:href="TooSigning_8cpp.html#a03df9fd005c518d1114f912ae7da9f06" target="_top" xlink:title="TooSigning_unsigned\l_network_available">
<polygon fill="#ffffff" stroke="#000000" points="621,-8 621,-38 731,-38 731,-8 621,-8"/>
<text text-anchor="start" x="629" y="-26" font-family="Helvetica,sans-Serif" font-size="10.00" fill="#000000">TooSigning_unsigned</text>
<text text-anchor="middle" x="676" y="-15" font-family="Helvetica,sans-Serif" font-size="10.00" fill="#000000">_network_available</text>
</a>
</g>
</g>
<!-- Node5&#45;&gt;Node12 -->
<g id="edge10" class="edge">
<title>Node5&#45;&gt;Node12</title>
<path fill="none" stroke="#191970" d="M566.4021,-73.4367C572.7092,-71.4447 579.0513,-69.2824 585,-67 606.6268,-58.7024 630.1451,-47.2635 647.8543,-38.1288"/>
<polygon fill="#191970" stroke="#191970" points="565.1325,-70.1644 556.5812,-76.4195 567.1668,-76.8623 565.1325,-70.1644"/>
</g>
<!-- Node7 -->
<g id="node5" class="node">
<title>Node7</title>
<g id="a_node5"><a xlink:href="TooNetworking_8h.html#a9209f3e1a2fdf0b3b88d49105b8fc359" target="_top" xlink:title="TooNetworking_send\l_signed">
<polygon fill="#ffffff" stroke="#000000" points="775,-30 775,-60 884,-60 884,-30 775,-30"/>
<text text-anchor="start" x="783" y="-48" font-family="Helvetica,sans-Serif" font-size="10.00" fill="#000000">TooNetworking_send</text>
<text text-anchor="middle" x="829.5" y="-37" font-family="Helvetica,sans-Serif" font-size="10.00" fill="#000000">_signed</text>
</a>
</g>
</g>
<!-- Node6&#45;&gt;Node7 -->
<g id="edge4" class="edge">
<title>Node6&#45;&gt;Node7</title>
<path fill="none" stroke="#191970" d="M740.4808,-64.7176C751.9202,-62.1838 763.7329,-59.5673 774.8666,-57.1012"/>
<polygon fill="#191970" stroke="#191970" points="739.557,-61.3373 730.5506,-66.9171 741.0709,-68.1717 739.557,-61.3373"/>
</g>
<!-- Node8 -->
<g id="node6" class="node">
<title>Node8</title>
<g id="a_node6"><a xlink:href="TooNetworking_8h.html#a085ff748b00f6be4ebafcae2bb0dded1" target="_top" xlink:title="TooNetworking_bufferlist\l_send_signed">
<polygon fill="#ffffff" stroke="#000000" points="933,-123 933,-153 1058,-153 1058,-123 933,-123"/>
<text text-anchor="start" x="941" y="-141" font-family="Helvetica,sans-Serif" font-size="10.00" fill="#000000">TooNetworking_bufferlist</text>
<text text-anchor="middle" x="995.5" y="-130" font-family="Helvetica,sans-Serif" font-size="10.00" fill="#000000">_send_signed</text>
</a>
</g>
</g>
<!-- Node6&#45;&gt;Node8 -->
<g id="edge5" class="edge">
<title>Node6&#45;&gt;Node8</title>
<path fill="none" stroke="#191970" d="M712.9292,-98.5625C729.09,-106.2379 748.5426,-114.3156 767,-119 821.789,-132.9053 886.1009,-137.2303 932.5139,-138.3248"/>
<polygon fill="#191970" stroke="#191970" points="714.3486,-95.3607 703.8268,-94.1185 711.2775,-101.651 714.3486,-95.3607"/>
</g>
<!-- Node10 -->
<g id="node8" class="node">
<title>Node10</title>
<g id="a_node8"><a xlink:href="TooNetworking_8h.html#ab58e06e0eb6f2f8ecbebeaf3c173fb22" target="_top" xlink:title="TooNetworking_bufferlist\l_send_all">
<polygon fill="#ffffff" stroke="#000000" points="767,-79 767,-109 892,-109 892,-79 767,-79"/>
<text text-anchor="start" x="775" y="-97" font-family="Helvetica,sans-Serif" font-size="10.00" fill="#000000">TooNetworking_bufferlist</text>
<text text-anchor="middle" x="829.5" y="-86" font-family="Helvetica,sans-Serif" font-size="10.00" fill="#000000">_send_all</text>
</a>
</g>
</g>
<!-- Node6&#45;&gt;Node10 -->
<g id="edge7" class="edge">
<title>Node6&#45;&gt;Node10</title>
<path fill="none" stroke="#191970" d="M740.5908,-85.3118C749.2498,-86.158 758.1207,-87.0248 766.7474,-87.8678"/>
<polygon fill="#191970" stroke="#191970" points="740.8436,-81.8199 730.5506,-84.3307 740.1627,-88.7867 740.8436,-81.8199"/>
</g>
<!-- Node9 -->
<g id="node7" class="node">
<title>Node9</title>
<g id="a_node7"><a xlink:href="NODE__SKETCH__TooAutomation__Node_8ino_8cpp.html#a0b33edabd7f1c4e4a0bf32c67269be2f" target="_top" xlink:title="loop">
<polygon fill="#ffffff" stroke="#000000" points="1099,-103.5 1099,-122.5 1134,-122.5 1134,-103.5 1099,-103.5"/>
<text text-anchor="middle" x="1116.5" y="-110.5" font-family="Helvetica,sans-Serif" font-size="10.00" fill="#000000">loop</text>
</a>
</g>
</g>
<!-- Node8&#45;&gt;Node9 -->
<g id="edge6" class="edge">
<title>Node8&#45;&gt;Node9</title>
<path fill="none" stroke="#191970" d="M1068.2474,-122.9695C1079.636,-120.6165 1090.4203,-118.3884 1098.8934,-116.6377"/>
<polygon fill="#191970" stroke="#191970" points="1067.2115,-119.6096 1058.1266,-125.0606 1068.6279,-126.4648 1067.2115,-119.6096"/>
</g>
<!-- Node11 -->
<g id="node9" class="node">
<title>Node11</title>
<g id="a_node9"><a xlink:href="TooNetworking_8h.html#a7382ba1aed5405c3adc02011ea6c45dd" target="_top" xlink:title="TooNetworking_connection\l_maintenance">
<polygon fill="#ffffff" stroke="#000000" points="928,-74 928,-104 1063,-104 1063,-74 928,-74"/>
<text text-anchor="start" x="936" y="-92" font-family="Helvetica,sans-Serif" font-size="10.00" fill="#000000">TooNetworking_connection</text>
<text text-anchor="middle" x="995.5" y="-81" font-family="Helvetica,sans-Serif" font-size="10.00" fill="#000000">_maintenance</text>
</a>
</g>
</g>
<!-- Node10&#45;&gt;Node11 -->
<g id="edge8" class="edge">
<title>Node10&#45;&gt;Node11</title>
<path fill="none" stroke="#191970" d="M902.4873,-91.8016C910.951,-91.5467 919.5556,-91.2875 927.9422,-91.0349"/>
<polygon fill="#191970" stroke="#191970" points="902.1475,-88.3101 892.2575,-92.1097 902.3584,-95.307 902.1475,-88.3101"/>
</g>
<!-- Node11&#45;&gt;Node9 -->
<g id="edge9" class="edge">
<title>Node11&#45;&gt;Node9</title>
<path fill="none" stroke="#191970" d="M1073.1566,-104.403C1082.6588,-106.2877 1091.5454,-108.0503 1098.7679,-109.4829"/>
<polygon fill="#191970" stroke="#191970" points="1073.5653,-100.9159 1063.0754,-102.4034 1072.2034,-107.7822 1073.5653,-100.9159"/>
</g>
<!-- Node12&#45;&gt;Node11 -->
<g id="edge11" class="edge">
<title>Node12&#45;&gt;Node11</title>
<path fill="none" stroke="#191970" d="M741.6231,-11.9072C785.1972,-6.9924 843.1514,-5.2098 892,-20 926.7241,-30.5136 960.4466,-56.9439 979.5276,-73.8724"/>
<polygon fill="#191970" stroke="#191970" points="740.9386,-8.4645 731.4326,-13.1427 741.7812,-15.4136 740.9386,-8.4645"/>
</g>
<!-- Node13&#45;&gt;Node6 -->
<g id="edge13" class="edge">
<title>Node13&#45;&gt;Node6</title>
<path fill="none" stroke="#191970" d="M577.9028,-59.5686C592.1387,-62.3885 607.313,-65.3943 621.366,-68.1779"/>
<polygon fill="#191970" stroke="#191970" points="578.2217,-56.0638 567.7322,-57.554 576.8615,-62.9304 578.2217,-56.0638"/>
</g>
<!-- Node13&#45;&gt;Node12 -->
<g id="edge14" class="edge">
<title>Node13&#45;&gt;Node12</title>
<path fill="none" stroke="#191970" d="M589.2085,-36.8645C599.8339,-35.1671 610.6719,-33.4358 620.9263,-31.7977"/>
<polygon fill="#191970" stroke="#191970" points="588.4351,-33.4435 579.1124,-38.4773 589.5393,-40.3559 588.4351,-33.4435"/>
</g>
<!-- Node14&#45;&gt;Node6 -->
<g id="edge16" class="edge">
<title>Node14&#45;&gt;Node6</title>
<path fill="none" stroke="#191970" d="M567.6402,-22.6411C573.5555,-24.5807 579.4631,-26.7086 585,-29 597.7421,-34.2731 627.758,-51.1029 649.8487,-63.7919"/>
<polygon fill="#191970" stroke="#191970" points="568.3303,-19.1903 557.7419,-19.5591 566.2493,-25.8738 568.3303,-19.1903"/>
</g>
<!-- Node14&#45;&gt;Node12 -->
<g id="edge17" class="edge">
<title>Node14&#45;&gt;Node12</title>
<path fill="none" stroke="#191970" d="M587.8005,-15.6735C598.8273,-16.5895 610.122,-17.5277 620.7896,-18.4138"/>
<polygon fill="#191970" stroke="#191970" points="588.0303,-12.1806 577.7748,-14.8407 587.4507,-19.1566 588.0303,-12.1806"/>
</g>
<!-- Node16 -->
<g id="node14" class="node">
<title>Node16</title>
<g id="a_node14"><a xlink:href="classSha256Class.html#a0ca245a22f8b056a3d1902da3c64b705" target="_top" xlink:title="Sha256Class::result">
<polygon fill="#ffffff" stroke="#000000" points="313,-76.5 313,-95.5 418,-95.5 418,-76.5 313,-76.5"/>
<text text-anchor="middle" x="365.5" y="-83.5" font-family="Helvetica,sans-Serif" font-size="10.00" fill="#000000">Sha256Class::result</text>
</a>
</g>
</g>
<!-- Node15&#45;&gt;Node16 -->
<g id="edge19" class="edge">
<title>Node15&#45;&gt;Node16</title>
<path fill="none" stroke="#191970" d="M287.3612,-86C295.8127,-86 304.4639,-86 312.7863,-86"/>
<polygon fill="#191970" stroke="#191970" points="287.1869,-82.5001 277.1868,-86 287.1868,-89.5001 287.1869,-82.5001"/>
</g>
<!-- Node16&#45;&gt;Node5 -->
<g id="edge20" class="edge">
<title>Node16&#45;&gt;Node5</title>
<path fill="none" stroke="#191970" d="M428.2416,-86C438.5627,-86 449.2379,-86 459.4902,-86"/>
<polygon fill="#191970" stroke="#191970" points="428.0674,-82.5001 418.0673,-86 428.0673,-89.5001 428.0674,-82.5001"/>
</g>
<!-- Node16&#45;&gt;Node13 -->
<g id="edge21" class="edge">
<title>Node16&#45;&gt;Node13</title>
<path fill="none" stroke="#191970" d="M414.2937,-73.96C435.8082,-68.6512 460.7318,-62.5012 480.9187,-57.5201"/>
<polygon fill="#191970" stroke="#191970" points="413.231,-70.6172 404.3607,-76.411 414.908,-77.4133 413.231,-70.6172"/>
</g>
</g>
</svg>
        <g id="navigator" transform="translate(0 0)" fill="#404254">
                <rect fill="#f2f5e9" fill-opacity="0.5" stroke="#606060" stroke-width=".5" x="0" y="0" width="60" height="60"/>
                <use id="zoomplus" xlink:href="#zoomPlus" x="17" y="9" onmousedown="handleZoom(evt,'in')"/>
                <use id="zoomminus" xlink:href="#zoomMin" x="42" y="9" onmousedown="handleZoom(evt,'out')"/>
                <use id="reset" xlink:href="#resetDef" x="30" y="36" onmousedown="handleReset()"/>
                <g id="arrowUp" xlink:href="#dirArrow" transform="translate(30 24)" onmousedown="handlePan(0,-1)">
                  <use xlink:href="#rim" fill="#404040">
                        <set attributeName="fill" to="#808080" begin="arrowUp.mouseover" end="arrowUp.mouseout"/>
                  </use>
                  <path fill="none" stroke="white" stroke-width="1.5" d="M0,-3.0v7 M-2.5,-0.5L0,-3.0L2.5,-0.5"/>
                </g>
                <g id="arrowRight" xlink:href="#dirArrow" transform="rotate(90) translate(36 -43)" onmousedown="handlePan(1,0)">
                  <use xlink:href="#rim" fill="#404040">
                        <set attributeName="fill" to="#808080" begin="arrowRight.mouseover" end="arrowRight.mouseout"/>
                  </use>
                  <path fill="none" stroke="white" stroke-width="1.5" d="M0,-3.0v7 M-2.5,-0.5L0,-3.0L2.5,-0.5"/>
                </g>
                <g id="arrowDown" xlink:href="#dirArrow" transform="rotate(180) translate(-30 -48)" onmousedown="handlePan(0,1)">
                  <use xlink:href="#rim" fill="#404040">
                        <set attributeName="fill" to="#808080" begin="arrowDown.mouseover" end="arrowDown.mouseout"/>
                  </use>
                  <path fill="none" stroke="white" stroke-width="1.5" d="M0,-3.0v7 M-2.5,-0.5L0,-3.0L2.5,-0.5"/>
                </g>
                <g id="arrowLeft" xlink:href="#dirArrow" transform="rotate(270) translate(-36 17)" onmousedown="handlePan(-1,0)">
                  <use xlink:href="#rim" fill="#404040">
                        <set attributeName="fill" to="#808080" begin="arrowLeft.mouseover" end="arrowLeft.mouseout"/>
                  </use>
                  <path fill="none" stroke="white" stroke-width="1.5" d="M0,-3.0v7 M-2.5,-0.5L0,-3.0L2.5,-0.5"/>
                </g>
        </g>
        <svg viewBox="0 0 15 15" width="100%" height="30px" preserveAspectRatio="xMaxYMin meet">
         <g id="arrow_out" transform="scale(0.3 0.3)">
          <a xlink:href="classSha256Class_ab0b46743e3d59b1c68f52ed89dfaff50_icgraph_org.svg" target="_base">
           <rect id="button" ry="5" rx="5" y="6" x="6" height="38" width="38"
                fill="#f2f5e9" fill-opacity="0.5" stroke="#606060" stroke-width="1.0"/>
           <path id="arrow"
             d="M 11.500037,31.436501 C 11.940474,20.09759 22.043105,11.32322 32.158766,21.979434 L 37.068811,17.246167 C 37.068811,17.246167 37.088388,32 37.088388,32 L 22.160133,31.978069 C 22.160133,31.978069 26.997745,27.140456 26.997745,27.140456 C 18.528582,18.264221 13.291696,25.230495 11.500037,31.436501 z"
             style="fill:#404040;"/>
          </a>
         </g>
        </svg>
</svg>
