<?xml version="1.0" encoding="UTF-8" standalone="no"?>
<!DOCTYPE svg PUBLIC "-//W3C//DTD SVG 1.1//EN"
 "http://www.w3.org/Graphics/SVG/1.1/DTD/svg11.dtd">
<!-- Generated by graphviz version 2.40.1 (20161225.0304)
 -->
<!-- Title: Sha256Class::ror32 Pages: 1 -->
<!--zoomable 129 -->
<svg id="main" version="1.1" xmlns="http://www.w3.org/2000/svg" xmlns:xlink="http://www.w3.org/1999/xlink" xml:space="preserve" onload="init(evt)">
<style type="text/css"><![CDATA[
.edge:hover path { stroke: red; }
.edge:hover polygon { stroke: red; fill: red; }
]]></style>
<script type="text/javascript"><![CDATA[
var edges = document.getElementsByTagName('g');
if (edges && edges.length) {
  for (var i=0;i<edges.length;i++) {
    if (edges[i].id.substr(0,4)=='edge') {
      edges[i].setAttribute('class','edge');
    }
  }
}
]]></script>
        <defs>
                <circle id="rim" cx="0" cy="0" r="7"/>
                <circle id="rim2" cx="0" cy="0" r="3.5"/>
                <g id="zoomPlus">
                        <use xlink:href="#rim" fill="#404040">
                                <set attributeName="fill" to="#808080" begin="zoomplus.mouseover" end="zoomplus.mouseout"/>
                        </use>
                        <path d="M-4,0h8M0,-4v8" fill="none" stroke="white" stroke-width="1.5" pointer-events="none"/>
                </g>
                <g id="zoomMin">
                        <use xlink:href="#rim" fill="#404040">
                                <set attributeName="fill" to="#808080" begin="zoomminus.mouseover" end="zoomminus.mouseout"/>
                        </use>
                        <path d="M-4,0h8" fill="none" stroke="white" stroke-width="1.5" pointer-events="none"/>
                </g>
                <g id="dirArrow">
                        <path fill="none" stroke="white" stroke-width="1.5" d="M0,-3.0v7 M-2.5,-0.5L0,-3.0L2.5,-0.5"/>
                </g>
               <g id="resetDef">
                       <use xlink:href="#rim2" fill="#404040">
                               <set attributeName="fill" to="#808080" begin="reset.mouseover" end="reset.mouseout"/>
                       </use>
               </g>
        </defs>

<script type="text/javascript">
var viewWidth = 1286;
var viewHeight = 129;
var sectionId = 'dynsection-14';
</script>
<script xlink:href="svgpan.js"/>
<svg id="graph" class="graph">
<g id="viewport">
<title>Sha256Class::ror32</title>
<polygon fill="#ffffff" stroke="transparent" points="-4,4 -4,-125 1282,-125 1282,4 -4,4"/>
<!-- Node99 -->
<g id="node1" class="node">
<title>Node99</title>
<polygon fill="#bfbfbf" stroke="#000000" points="0,-57.5 0,-76.5 103,-76.5 103,-57.5 0,-57.5"/>
<text text-anchor="middle" x="51.5" y="-64.5" font-family="Helvetica,sans-Serif" font-size="10.00" fill="#000000">Sha256Class::ror32</text>
</g>
<!-- Node100 -->
<g id="node2" class="node">
<title>Node100</title>
<g id="a_node2"><a xlink:href="classSha256Class.html#a399d2a23951e2130f54af8ac7712068f" target="_top" xlink:title="Sha256Class::hashBlock">
<polygon fill="#ffffff" stroke="#000000" points="139,-57.5 139,-76.5 266,-76.5 266,-57.5 139,-57.5"/>
<text text-anchor="middle" x="202.5" y="-64.5" font-family="Helvetica,sans-Serif" font-size="10.00" fill="#000000">Sha256Class::hashBlock</text>
</a>
</g>
</g>
<!-- Node99&#45;&gt;Node100 -->
<g id="edge1" class="edge">
<title>Node99&#45;&gt;Node100</title>
<path fill="none" stroke="#191970" d="M113.224,-67C121.6923,-67 130.3998,-67 138.9009,-67"/>
<polygon fill="#191970" stroke="#191970" points="113.0433,-63.5001 103.0433,-67 113.0433,-70.5001 113.0433,-63.5001"/>
</g>
<!-- Node101 -->
<g id="node3" class="node">
<title>Node101</title>
<g id="a_node3"><a xlink:href="classSha256Class.html#ab0b46743e3d59b1c68f52ed89dfaff50" target="_top" xlink:title="Sha256Class::addUncounted">
<polygon fill="#ffffff" stroke="#000000" points="302,-57.5 302,-76.5 446,-76.5 446,-57.5 302,-57.5"/>
<text text-anchor="middle" x="374" y="-64.5" font-family="Helvetica,sans-Serif" font-size="10.00" fill="#000000">Sha256Class::addUncounted</text>
</a>
</g>
</g>
<!-- Node100&#45;&gt;Node101 -->
<g id="edge2" class="edge">
<title>Node100&#45;&gt;Node101</title>
<path fill="none" stroke="#191970" d="M276.4728,-67C284.8434,-67 293.3666,-67 301.7152,-67"/>
<polygon fill="#191970" stroke="#191970" points="276.3603,-63.5001 266.3603,-67 276.3602,-70.5001 276.3603,-63.5001"/>
</g>
<!-- Node102 -->
<g id="node4" class="node">
<title>Node102</title>
<g id="a_node4"><a xlink:href="classSha256Class.html#a0f0fc4bd4d8c53d232df0d41d7ea25e0" target="_top" xlink:title="Sha256Class::write">
<polygon fill="#ffffff" stroke="#000000" points="616.5,-38.5 616.5,-57.5 718.5,-57.5 718.5,-38.5 616.5,-38.5"/>
<text text-anchor="middle" x="667.5" y="-45.5" font-family="Helvetica,sans-Serif" font-size="10.00" fill="#000000">Sha256Class::write</text>
</a>
</g>
</g>
<!-- Node101&#45;&gt;Node102 -->
<g id="edge3" class="edge">
<title>Node101&#45;&gt;Node102</title>
<path fill="none" stroke="#191970" d="M456.2671,-61.6744C507.6598,-58.3474 572.2228,-54.1679 616.3572,-51.3108"/>
<polygon fill="#191970" stroke="#191970" points="455.9271,-58.189 446.1741,-62.3277 456.3793,-65.1743 455.9271,-58.189"/>
</g>
<!-- Node112 -->
<g id="node14" class="node">
<title>Node112</title>
<g id="a_node14"><a xlink:href="classSha256Class.html#a82049dae520ccf0bd8478f2aef639149" target="_top" xlink:title="Sha256Class::pad">
<polygon fill="#ffffff" stroke="#000000" points="482,-76.5 482,-95.5 579,-95.5 579,-76.5 482,-76.5"/>
<text text-anchor="middle" x="530.5" y="-83.5" font-family="Helvetica,sans-Serif" font-size="10.00" fill="#000000">Sha256Class::pad</text>
</a>
</g>
</g>
<!-- Node101&#45;&gt;Node112 -->
<g id="edge17" class="edge">
<title>Node101&#45;&gt;Node112</title>
<path fill="none" stroke="#191970" d="M456.4503,-77.0099C465.0962,-78.0596 473.6735,-79.1009 481.7583,-80.0825"/>
<polygon fill="#191970" stroke="#191970" points="456.6436,-73.5078 446.2947,-75.777 455.7999,-80.4568 456.6436,-73.5078"/>
</g>
<!-- Node103 -->
<g id="node5" class="node">
<title>Node103</title>
<g id="a_node5"><a xlink:href="classSha256Class.html#a73d3dcea6eb667fd146d12aa5d106939" target="_top" xlink:title="Sha256Class::initHmac">
<polygon fill="#ffffff" stroke="#000000" points="761.5,-38.5 761.5,-57.5 881.5,-57.5 881.5,-38.5 761.5,-38.5"/>
<text text-anchor="middle" x="821.5" y="-45.5" font-family="Helvetica,sans-Serif" font-size="10.00" fill="#000000">Sha256Class::initHmac</text>
</a>
</g>
</g>
<!-- Node102&#45;&gt;Node103 -->
<g id="edge4" class="edge">
<title>Node102&#45;&gt;Node103</title>
<path fill="none" stroke="#191970" d="M728.8829,-48C739.5846,-48 750.7064,-48 761.3738,-48"/>
<polygon fill="#191970" stroke="#191970" points="728.7798,-44.5001 718.7798,-48 728.7797,-51.5001 728.7798,-44.5001"/>
</g>
<!-- Node109 -->
<g id="node11" class="node">
<title>Node109</title>
<g id="a_node11"><a xlink:href="classSha256Class.html#a7556f29cadf7eaca21a537df41318af3" target="_top" xlink:title="Sha256Class::resultHmac">
<polygon fill="#ffffff" stroke="#000000" points="756,-76.5 756,-95.5 887,-95.5 887,-76.5 756,-76.5"/>
<text text-anchor="middle" x="821.5" y="-83.5" font-family="Helvetica,sans-Serif" font-size="10.00" fill="#000000">Sha256Class::resultHmac</text>
</a>
</g>
</g>
<!-- Node102&#45;&gt;Node109 -->
<g id="edge10" class="edge">
<title>Node102&#45;&gt;Node109</title>
<path fill="none" stroke="#191970" d="M716.2937,-60.04C737.8082,-65.3488 762.7318,-71.4988 782.9187,-76.4799"/>
<polygon fill="#191970" stroke="#191970" points="716.908,-56.5867 706.3607,-57.589 715.231,-63.3828 716.908,-56.5867"/>
</g>
<!-- Node111 -->
<g id="node13" class="node">
<title>Node111</title>
<g id="a_node13"><a xlink:href="group__TOOSIGNING__HASHING.html#gafb2935303b05255e80a7a6fa4be7cf57" target="_top" xlink:title="TooSigning_hash_data">
<polygon fill="#ffffff" stroke="#000000" points="763.5,-.5 763.5,-19.5 879.5,-19.5 879.5,-.5 763.5,-.5"/>
<text text-anchor="middle" x="821.5" y="-7.5" font-family="Helvetica,sans-Serif" font-size="10.00" fill="#000000">TooSigning_hash_data</text>
</a>
</g>
</g>
<!-- Node102&#45;&gt;Node111 -->
<g id="edge14" class="edge">
<title>Node102&#45;&gt;Node111</title>
<path fill="none" stroke="#191970" d="M716.2937,-35.96C737.8082,-30.6512 762.7318,-24.5012 782.9187,-19.5201"/>
<polygon fill="#191970" stroke="#191970" points="715.231,-32.6172 706.3607,-38.411 716.908,-39.4133 715.231,-32.6172"/>
</g>
<!-- Node104 -->
<g id="node6" class="node">
<title>Node104</title>
<g id="a_node6"><a xlink:href="TooSigning_8h.html#a1e2cd2b37702263e1fe166395350bf08" target="_top" xlink:title="TooSigning_init_hmac">
<polygon fill="#ffffff" stroke="#000000" points="923,-13.5 923,-32.5 1036,-32.5 1036,-13.5 923,-13.5"/>
<text text-anchor="middle" x="979.5" y="-20.5" font-family="Helvetica,sans-Serif" font-size="10.00" fill="#000000">TooSigning_init_hmac</text>
</a>
</g>
</g>
<!-- Node103&#45;&gt;Node104 -->
<g id="edge5" class="edge">
<title>Node103&#45;&gt;Node104</title>
<path fill="none" stroke="#191970" d="M891.6179,-36.9054C902.0719,-35.2513 912.736,-33.5639 922.8655,-31.9612"/>
<polygon fill="#191970" stroke="#191970" points="891.0139,-33.4573 881.6838,-38.4773 892.1079,-40.3713 891.0139,-33.4573"/>
</g>
<!-- Node106 -->
<g id="node8" class="node">
<title>Node106</title>
<g id="a_node8"><a xlink:href="TooSigning_8cpp.html#a03df9fd005c518d1114f912ae7da9f06" target="_top" xlink:title="TooSigning_unsigned\l_network_available">
<polygon fill="#ffffff" stroke="#000000" points="924.5,-52 924.5,-82 1034.5,-82 1034.5,-52 924.5,-52"/>
<text text-anchor="start" x="932.5" y="-70" font-family="Helvetica,sans-Serif" font-size="10.00" fill="#000000">TooSigning_unsigned</text>
<text text-anchor="middle" x="979.5" y="-59" font-family="Helvetica,sans-Serif" font-size="10.00" fill="#000000">_network_available</text>
</a>
</g>
</g>
<!-- Node103&#45;&gt;Node106 -->
<g id="edge7" class="edge">
<title>Node103&#45;&gt;Node106</title>
<path fill="none" stroke="#191970" d="M891.6701,-56.4382C902.6414,-57.7575 913.8427,-59.1045 924.4134,-60.3757"/>
<polygon fill="#191970" stroke="#191970" points="892.0301,-52.9563 881.6838,-55.2373 891.1943,-59.9063 892.0301,-52.9563"/>
</g>
<!-- Node105 -->
<g id="node7" class="node">
<title>Node105</title>
<g id="a_node7"><a xlink:href="TooNetworking_8h.html#ab5dfe46515ee5ca8f9893675df673d96" target="_top" xlink:title="TooNetworking_send\l_signed">
<polygon fill="#ffffff" stroke="#000000" points="1085,-5 1085,-35 1194,-35 1194,-5 1085,-5"/>
<text text-anchor="start" x="1093" y="-23" font-family="Helvetica,sans-Serif" font-size="10.00" fill="#000000">TooNetworking_send</text>
<text text-anchor="middle" x="1139.5" y="-12" font-family="Helvetica,sans-Serif" font-size="10.00" fill="#000000">_signed</text>
</a>
</g>
</g>
<!-- Node104&#45;&gt;Node105 -->
<g id="edge6" class="edge">
<title>Node104&#45;&gt;Node105</title>
<path fill="none" stroke="#191970" d="M1046.5144,-21.7435C1059.33,-21.5032 1072.6024,-21.2543 1084.9684,-21.0225"/>
<polygon fill="#191970" stroke="#191970" points="1046.2931,-18.2469 1036.3605,-21.9339 1046.4244,-25.2457 1046.2931,-18.2469"/>
</g>
<!-- Node107 -->
<g id="node9" class="node">
<title>Node107</title>
<g id="a_node9"><a xlink:href="TooNetworking_8h.html#a7382ba1aed5405c3adc02011ea6c45dd" target="_top" xlink:title="TooNetworking_connection\l_maintenance">
<polygon fill="#ffffff" stroke="#000000" points="1072,-54 1072,-84 1207,-84 1207,-54 1072,-54"/>
<text text-anchor="start" x="1080" y="-72" font-family="Helvetica,sans-Serif" font-size="10.00" fill="#000000">TooNetworking_connection</text>
<text text-anchor="middle" x="1139.5" y="-61" font-family="Helvetica,sans-Serif" font-size="10.00" fill="#000000">_maintenance</text>
</a>
</g>
</g>
<!-- Node106&#45;&gt;Node107 -->
<g id="edge8" class="edge">
<title>Node106&#45;&gt;Node107</title>
<path fill="none" stroke="#191970" d="M1044.587,-67.8136C1053.5862,-67.9261 1062.8465,-68.0418 1071.8902,-68.1549"/>
<polygon fill="#191970" stroke="#191970" points="1044.6059,-64.3136 1034.5629,-67.6883 1044.5184,-71.3131 1044.6059,-64.3136"/>
</g>
<!-- Node108 -->
<g id="node10" class="node">
<title>Node108</title>
<g id="a_node10"><a xlink:href="NODE__SKETCH__TooAutomation__Node_8ino_8cpp.html#a0b33edabd7f1c4e4a0bf32c67269be2f" target="_top" xlink:title="loop">
<polygon fill="#ffffff" stroke="#000000" points="1243,-59.5 1243,-78.5 1278,-78.5 1278,-59.5 1243,-59.5"/>
<text text-anchor="middle" x="1260.5" y="-66.5" font-family="Helvetica,sans-Serif" font-size="10.00" fill="#000000">loop</text>
</a>
</g>
</g>
<!-- Node107&#45;&gt;Node108 -->
<g id="edge9" class="edge">
<title>Node107&#45;&gt;Node108</title>
<path fill="none" stroke="#191970" d="M1217.1566,-69C1226.6588,-69 1235.5454,-69 1242.7679,-69"/>
<polygon fill="#191970" stroke="#191970" points="1217.0755,-65.5001 1207.0754,-69 1217.0754,-72.5001 1217.0755,-65.5001"/>
</g>
<!-- Node109&#45;&gt;Node106 -->
<g id="edge13" class="edge">
<title>Node109&#45;&gt;Node106</title>
<path fill="none" stroke="#191970" d="M897.0697,-76.9125C906.2707,-75.8061 915.534,-74.6921 924.3589,-73.6309"/>
<polygon fill="#191970" stroke="#191970" points="896.6442,-73.4384 887.1336,-78.1074 897.48,-80.3883 896.6442,-73.4384"/>
</g>
<!-- Node110 -->
<g id="node12" class="node">
<title>Node110</title>
<g id="a_node12"><a xlink:href="TooSigning_8h.html#ab8a2415b95a77c91ffbc6ebbde622f64" target="_top" xlink:title="TooSigning_get_hmac">
<polygon fill="#ffffff" stroke="#000000" points="923,-101.5 923,-120.5 1036,-120.5 1036,-101.5 923,-101.5"/>
<text text-anchor="middle" x="979.5" y="-108.5" font-family="Helvetica,sans-Serif" font-size="10.00" fill="#000000">TooSigning_get_hmac</text>
</a>
</g>
</g>
<!-- Node109&#45;&gt;Node110 -->
<g id="edge11" class="edge">
<title>Node109&#45;&gt;Node110</title>
<path fill="none" stroke="#191970" d="M891.6179,-97.0946C902.0719,-98.7487 912.736,-100.4361 922.8655,-102.0388"/>
<polygon fill="#191970" stroke="#191970" points="892.1079,-93.6287 881.6838,-95.5227 891.0139,-100.5427 892.1079,-93.6287"/>
</g>
<!-- Node110&#45;&gt;Node105 -->
<g id="edge12" class="edge">
<title>Node110&#45;&gt;Node105</title>
<path fill="none" stroke="#191970" d="M1025.597,-97.2909C1029.2567,-95.4317 1032.7783,-93.3425 1036,-91 1057.2815,-75.526 1050.7293,-59.4888 1072,-44 1076.625,-40.6322 1081.7673,-37.6998 1087.0916,-35.1551"/>
<polygon fill="#191970" stroke="#191970" points="1024.0028,-94.1698 1016.3074,-101.452 1026.8644,-100.5582 1024.0028,-94.1698"/>
</g>
<!-- Node111&#45;&gt;Node105 -->
<g id="edge15" class="edge">
<title>Node111&#45;&gt;Node105</title>
<path fill="none" stroke="#191970" d="M889.9991,-4.4417C932.1586,-1.9245 987.2723,-.2558 1036,-4 1051.9533,-5.2258 1069.1687,-7.4995 1084.8934,-9.9558"/>
<polygon fill="#191970" stroke="#191970" points="889.6067,-.9594 879.8457,-5.0791 890.0454,-7.9456 889.6067,-.9594"/>
</g>
<!-- Node111&#45;&gt;Node106 -->
<g id="edge16" class="edge">
<title>Node111&#45;&gt;Node106</title>
<path fill="none" stroke="#191970" d="M866.8792,-22.4753C873.6612,-24.5383 880.5412,-26.7439 887,-29 906.5043,-35.813 927.8631,-44.5031 945.1377,-51.853"/>
<polygon fill="#191970" stroke="#191970" points="867.6557,-19.055 857.0732,-19.5656 865.6644,-25.7658 867.6557,-19.055"/>
</g>
<!-- Node113 -->
<g id="node15" class="node">
<title>Node113</title>
<g id="a_node15"><a xlink:href="classSha256Class.html#a0ca245a22f8b056a3d1902da3c64b705" target="_top" xlink:title="Sha256Class::result">
<polygon fill="#ffffff" stroke="#000000" points="615,-76.5 615,-95.5 720,-95.5 720,-76.5 615,-76.5"/>
<text text-anchor="middle" x="667.5" y="-83.5" font-family="Helvetica,sans-Serif" font-size="10.00" fill="#000000">Sha256Class::result</text>
</a>
</g>
</g>
<!-- Node112&#45;&gt;Node113 -->
<g id="edge18" class="edge">
<title>Node112&#45;&gt;Node113</title>
<path fill="none" stroke="#191970" d="M589.3612,-86C597.8127,-86 606.4639,-86 614.7863,-86"/>
<polygon fill="#191970" stroke="#191970" points="589.1869,-82.5001 579.1868,-86 589.1868,-89.5001 589.1869,-82.5001"/>
</g>
<!-- Node113&#45;&gt;Node103 -->
<g id="edge19" class="edge">
<title>Node113&#45;&gt;Node103</title>
<path fill="none" stroke="#191970" d="M716.2937,-73.96C737.8082,-68.6512 762.7318,-62.5012 782.9187,-57.5201"/>
<polygon fill="#191970" stroke="#191970" points="715.231,-70.6172 706.3607,-76.411 716.908,-77.4133 715.231,-70.6172"/>
</g>
<!-- Node113&#45;&gt;Node109 -->
<g id="edge20" class="edge">
<title>Node113&#45;&gt;Node109</title>
<path fill="none" stroke="#191970" d="M730.2163,-86C738.6565,-86 747.334,-86 755.8237,-86"/>
<polygon fill="#191970" stroke="#191970" points="730.0674,-82.5001 720.0673,-86 730.0673,-89.5001 730.0674,-82.5001"/>
</g>
</g>
</svg>
        <g id="navigator" transform="translate(0 0)" fill="#404254">
                <rect fill="#f2f5e9" fill-opacity="0.5" stroke="#606060" stroke-width=".5" x="0" y="0" width="60" height="60"/>
                <use id="zoomplus" xlink:href="#zoomPlus" x="17" y="9" onmousedown="handleZoom(evt,'in')"/>
                <use id="zoomminus" xlink:href="#zoomMin" x="42" y="9" onmousedown="handleZoom(evt,'out')"/>
                <use id="reset" xlink:href="#resetDef" x="30" y="36" onmousedown="handleReset()"/>
                <g id="arrowUp" xlink:href="#dirArrow" transform="translate(30 24)" onmousedown="handlePan(0,-1)">
                  <use xlink:href="#rim" fill="#404040">
                        <set attributeName="fill" to="#808080" begin="arrowUp.mouseover" end="arrowUp.mouseout"/>
                  </use>
                  <path fill="none" stroke="white" stroke-width="1.5" d="M0,-3.0v7 M-2.5,-0.5L0,-3.0L2.5,-0.5"/>
                </g>
                <g id="arrowRight" xlink:href="#dirArrow" transform="rotate(90) translate(36 -43)" onmousedown="handlePan(1,0)">
                  <use xlink:href="#rim" fill="#404040">
                        <set attributeName="fill" to="#808080" begin="arrowRight.mouseover" end="arrowRight.mouseout"/>
                  </use>
                  <path fill="none" stroke="white" stroke-width="1.5" d="M0,-3.0v7 M-2.5,-0.5L0,-3.0L2.5,-0.5"/>
                </g>
                <g id="arrowDown" xlink:href="#dirArrow" transform="rotate(180) translate(-30 -48)" onmousedown="handlePan(0,1)">
                  <use xlink:href="#rim" fill="#404040">
                        <set attributeName="fill" to="#808080" begin="arrowDown.mouseover" end="arrowDown.mouseout"/>
                  </use>
                  <path fill="none" stroke="white" stroke-width="1.5" d="M0,-3.0v7 M-2.5,-0.5L0,-3.0L2.5,-0.5"/>
                </g>
                <g id="arrowLeft" xlink:href="#dirArrow" transform="rotate(270) translate(-36 17)" onmousedown="handlePan(-1,0)">
                  <use xlink:href="#rim" fill="#404040">
                        <set attributeName="fill" to="#808080" begin="arrowLeft.mouseover" end="arrowLeft.mouseout"/>
                  </use>
                  <path fill="none" stroke="white" stroke-width="1.5" d="M0,-3.0v7 M-2.5,-0.5L0,-3.0L2.5,-0.5"/>
                </g>
        </g>
        <svg viewBox="0 0 15 15" width="100%" height="30px" preserveAspectRatio="xMaxYMin meet">
         <g id="arrow_out" transform="scale(0.3 0.3)">
          <a xlink:href="classSha256Class_ae275718ce9813bb33b2d8d8fbf018bd6_icgraph_org.svg" target="_base">
           <rect id="button" ry="5" rx="5" y="6" x="6" height="38" width="38"
                fill="#f2f5e9" fill-opacity="0.5" stroke="#606060" stroke-width="1.0"/>
           <path id="arrow"
             d="M 11.500037,31.436501 C 11.940474,20.09759 22.043105,11.32322 32.158766,21.979434 L 37.068811,17.246167 C 37.068811,17.246167 37.088388,32 37.088388,32 L 22.160133,31.978069 C 22.160133,31.978069 26.997745,27.140456 26.997745,27.140456 C 18.528582,18.264221 13.291696,25.230495 11.500037,31.436501 z"
             style="fill:#404040;"/>
          </a>
         </g>
        </svg>
</svg>
