<?xml version="1.0" encoding="UTF-8" standalone="no"?>
<!DOCTYPE svg PUBLIC "-//W3C//DTD SVG 1.1//EN"
 "http://www.w3.org/Graphics/SVG/1.1/DTD/svg11.dtd">
<!-- Generated by graphviz version 2.40.1 (20161225.0304)
 -->
<!-- Title: ATSHA204Class::sha204m_read Pages: 1 -->
<!--zoomable 288 -->
<svg id="main" version="1.1" xmlns="http://www.w3.org/2000/svg" xmlns:xlink="http://www.w3.org/1999/xlink" xml:space="preserve" onload="init(evt)">
<style type="text/css"><![CDATA[
.edge:hover path { stroke: red; }
.edge:hover polygon { stroke: red; fill: red; }
]]></style>
<script type="text/javascript"><![CDATA[
var edges = document.getElementsByTagName('g');
if (edges && edges.length) {
  for (var i=0;i<edges.length;i++) {
    if (edges[i].id.substr(0,4)=='edge') {
      edges[i].setAttribute('class','edge');
    }
  }
}
]]></script>
        <defs>
                <circle id="rim" cx="0" cy="0" r="7"/>
                <circle id="rim2" cx="0" cy="0" r="3.5"/>
                <g id="zoomPlus">
                        <use xlink:href="#rim" fill="#404040">
                                <set attributeName="fill" to="#808080" begin="zoomplus.mouseover" end="zoomplus.mouseout"/>
                        </use>
                        <path d="M-4,0h8M0,-4v8" fill="none" stroke="white" stroke-width="1.5" pointer-events="none"/>
                </g>
                <g id="zoomMin">
                        <use xlink:href="#rim" fill="#404040">
                                <set attributeName="fill" to="#808080" begin="zoomminus.mouseover" end="zoomminus.mouseout"/>
                        </use>
                        <path d="M-4,0h8" fill="none" stroke="white" stroke-width="1.5" pointer-events="none"/>
                </g>
                <g id="dirArrow">
                        <path fill="none" stroke="white" stroke-width="1.5" d="M0,-3.0v7 M-2.5,-0.5L0,-3.0L2.5,-0.5"/>
                </g>
               <g id="resetDef">
                       <use xlink:href="#rim2" fill="#404040">
                               <set attributeName="fill" to="#808080" begin="reset.mouseover" end="reset.mouseout"/>
                       </use>
               </g>
        </defs>

<script type="text/javascript">
var viewWidth = 1147;
var viewHeight = 288;
var sectionId = 'dynsection-13';
</script>
<script xlink:href="svgpan.js"/>
<svg id="graph" class="graph">
<g id="viewport">
<title>ATSHA204Class::sha204m_read</title>
<polygon fill="#ffffff" stroke="transparent" points="-4,4 -4,-284.1855 1143,-284.1855 1143,4 -4,4"/>
<!-- Node92 -->
<g id="node1" class="node">
<title>Node92</title>
<polygon fill="#bfbfbf" stroke="#000000" points="0,-167 0,-186 161,-186 161,-167 0,-167"/>
<text text-anchor="middle" x="80.5" y="-174" font-family="Helvetica,sans-Serif" font-size="10.00" fill="#000000">ATSHA204Class::sha204m_read</text>
</g>
<!-- Node93 -->
<g id="node2" class="node">
<title>Node93</title>
<g id="a_node2"><a xlink:href="classATSHA204Class.html#a3689222ad46022e5c50ba484053d9b2c" target="_top" xlink:title="ATSHA204Class::sha204c\l_send_and_receive">
<polygon fill="#ffffff" stroke="#000000" points="197,-161.5 197,-191.5 331,-191.5 331,-161.5 197,-161.5"/>
<text text-anchor="start" x="205" y="-179.5" font-family="Helvetica,sans-Serif" font-size="10.00" fill="#000000">ATSHA204Class::sha204c</text>
<text text-anchor="middle" x="264" y="-168.5" font-family="Helvetica,sans-Serif" font-size="10.00" fill="#000000">_send_and_receive</text>
</a>
</g>
</g>
<!-- Node92&#45;&gt;Node93 -->
<g id="edge1" class="edge">
<title>Node92&#45;&gt;Node93</title>
<path fill="none" stroke="#191970" d="M161.2528,-176.5C169.7294,-176.5 178.333,-176.5 186.7686,-176.5"/>
<polygon fill="#191970" stroke="#191970" points="186.9551,-180.0001 196.9551,-176.5 186.9551,-173.0001 186.9551,-180.0001"/>
</g>
<!-- Node94 -->
<g id="node3" class="node">
<title>Node94</title>
<g id="a_node3"><a xlink:href="classATSHA204Class.html#a42b8beceec64c89148a9bb49b26f0fb1" target="_top" xlink:title="ATSHA204Class::sha204c\l_calculate_crc">
<polygon fill="#ffffff" stroke="#000000" points="537,-246.5 537,-276.5 671,-276.5 671,-246.5 537,-246.5"/>
<text text-anchor="start" x="545" y="-264.5" font-family="Helvetica,sans-Serif" font-size="10.00" fill="#000000">ATSHA204Class::sha204c</text>
<text text-anchor="middle" x="604" y="-253.5" font-family="Helvetica,sans-Serif" font-size="10.00" fill="#000000">_calculate_crc</text>
</a>
</g>
</g>
<!-- Node93&#45;&gt;Node94 -->
<g id="edge2" class="edge">
<title>Node93&#45;&gt;Node94</title>
<path fill="none" stroke="#191970" d="M275.6297,-191.6389C292.8828,-212.7085 327.5032,-249.9251 367,-264.5 417.998,-283.319 479.4729,-281.9168 527.0319,-276.1517"/>
<polygon fill="#191970" stroke="#191970" points="527.4952,-279.621 536.9605,-274.8609 526.5927,-272.6794 527.4952,-279.621"/>
</g>
<!-- Node95 -->
<g id="node4" class="node">
<title>Node95</title>
<g id="a_node4"><a xlink:href="classATSHA204Class.html#abe55ac783f1a37777bd09b7fc369ebc9" target="_top" xlink:title="ATSHA204Class::swi\l_send_byte">
<polygon fill="#ffffff" stroke="#000000" points="877,-117.5 877,-147.5 990,-147.5 990,-117.5 877,-117.5"/>
<text text-anchor="start" x="885" y="-135.5" font-family="Helvetica,sans-Serif" font-size="10.00" fill="#000000">ATSHA204Class::swi</text>
<text text-anchor="middle" x="933.5" y="-124.5" font-family="Helvetica,sans-Serif" font-size="10.00" fill="#000000">_send_byte</text>
</a>
</g>
</g>
<!-- Node93&#45;&gt;Node95 -->
<g id="edge3" class="edge">
<title>Node93&#45;&gt;Node95</title>
<path fill="none" stroke="#191970" d="M331.2596,-172.0797C459.7541,-163.6349 738.7213,-145.301 866.7875,-136.8844"/>
<polygon fill="#191970" stroke="#191970" points="867.1051,-140.3712 876.854,-136.2228 866.646,-133.3862 867.1051,-140.3712"/>
</g>
<!-- Node96 -->
<g id="node5" class="node">
<title>Node96</title>
<g id="a_node5"><a xlink:href="classATSHA204Class.html#a0f8c2167d152bbe670d1b1187d7b2897" target="_top" xlink:title="ATSHA204Class::swi\l_send_bytes">
<polygon fill="#ffffff" stroke="#000000" points="1026,-158.5 1026,-188.5 1139,-188.5 1139,-158.5 1026,-158.5"/>
<text text-anchor="start" x="1034" y="-176.5" font-family="Helvetica,sans-Serif" font-size="10.00" fill="#000000">ATSHA204Class::swi</text>
<text text-anchor="middle" x="1082.5" y="-165.5" font-family="Helvetica,sans-Serif" font-size="10.00" fill="#000000">_send_bytes</text>
</a>
</g>
</g>
<!-- Node93&#45;&gt;Node96 -->
<g id="edge5" class="edge">
<title>Node93&#45;&gt;Node96</title>
<path fill="none" stroke="#191970" d="M331.0305,-182.4596C399.5612,-188.0317 509.1126,-195.5 604,-195.5 604,-195.5 604,-195.5 774,-195.5 857.4161,-195.5 953.1988,-187.3983 1015.6203,-181.0279"/>
<polygon fill="#191970" stroke="#191970" points="1016.1408,-184.4928 1025.7273,-179.9817 1015.4201,-177.53 1016.1408,-184.4928"/>
</g>
<!-- Node97 -->
<g id="node6" class="node">
<title>Node97</title>
<g id="a_node6"><a xlink:href="classATSHA204Class.html#a0d8eab6a8af231835dd5b6734df0d670" target="_top" xlink:title="ATSHA204Class::sha204c\l_resync">
<polygon fill="#ffffff" stroke="#000000" points="367,-76.5 367,-106.5 501,-106.5 501,-76.5 367,-76.5"/>
<text text-anchor="start" x="375" y="-94.5" font-family="Helvetica,sans-Serif" font-size="10.00" fill="#000000">ATSHA204Class::sha204c</text>
<text text-anchor="middle" x="434" y="-83.5" font-family="Helvetica,sans-Serif" font-size="10.00" fill="#000000">_resync</text>
</a>
</g>
</g>
<!-- Node93&#45;&gt;Node97 -->
<g id="edge6" class="edge">
<title>Node93&#45;&gt;Node97</title>
<path fill="none" stroke="#191970" d="M294.0013,-161.4994C321.9895,-147.5053 363.9197,-126.5402 394.5958,-111.2021"/>
<polygon fill="#191970" stroke="#191970" points="396.3478,-114.2393 403.7268,-106.6366 393.2173,-107.9783 396.3478,-114.2393"/>
</g>
<!-- Node98 -->
<g id="node7" class="node">
<title>Node98</title>
<g id="a_node7"><a xlink:href="classATSHA204Class.html#ae5c777e2388de999d13afef7008a36a7" target="_top" xlink:title="ATSHA204Class::sha204p\l_receive_response">
<polygon fill="#ffffff" stroke="#000000" points="707,-.5 707,-30.5 841,-30.5 841,-.5 707,-.5"/>
<text text-anchor="start" x="715" y="-18.5" font-family="Helvetica,sans-Serif" font-size="10.00" fill="#000000">ATSHA204Class::sha204p</text>
<text text-anchor="middle" x="774" y="-7.5" font-family="Helvetica,sans-Serif" font-size="10.00" fill="#000000">_receive_response</text>
</a>
</g>
</g>
<!-- Node93&#45;&gt;Node98 -->
<g id="edge15" class="edge">
<title>Node93&#45;&gt;Node98</title>
<path fill="none" stroke="#191970" d="M274.1669,-161.4245C290.8151,-137.8916 326.1557,-92.5346 367,-67.5 468.2135,-5.4633 610.1284,-2.1598 696.8608,-7.4107"/>
<polygon fill="#191970" stroke="#191970" points="696.6891,-10.9068 706.8975,-8.0715 697.1491,-3.922 696.6891,-10.9068"/>
</g>
<!-- Node103 -->
<g id="node12" class="node">
<title>Node103</title>
<g id="a_node12"><a xlink:href="classATSHA204Class.html#a30b1fad66d47a88848ebc6d74b66ec97" target="_top" xlink:title="ATSHA204Class::sha204c\l_check_crc">
<polygon fill="#ffffff" stroke="#000000" points="367,-224.5 367,-254.5 501,-254.5 501,-224.5 367,-224.5"/>
<text text-anchor="start" x="375" y="-242.5" font-family="Helvetica,sans-Serif" font-size="10.00" fill="#000000">ATSHA204Class::sha204c</text>
<text text-anchor="middle" x="434" y="-231.5" font-family="Helvetica,sans-Serif" font-size="10.00" fill="#000000">_check_crc</text>
</a>
</g>
</g>
<!-- Node93&#45;&gt;Node103 -->
<g id="edge16" class="edge">
<title>Node93&#45;&gt;Node103</title>
<path fill="none" stroke="#191970" d="M304.7192,-191.5901C328.4978,-200.4021 358.6909,-211.5913 383.9174,-220.94"/>
<polygon fill="#191970" stroke="#191970" points="382.7257,-224.2309 393.3188,-224.424 385.1582,-217.6671 382.7257,-224.2309"/>
</g>
<!-- Node95&#45;&gt;Node96 -->
<g id="edge4" class="edge">
<title>Node95&#45;&gt;Node96</title>
<path fill="none" stroke="#191970" d="M988.136,-147.5341C997.8536,-150.208 1008.0575,-153.0158 1018.0181,-155.7567"/>
<polygon fill="#191970" stroke="#191970" points="1017.3003,-159.1892 1027.8706,-158.4677 1019.1575,-152.44 1017.3003,-159.1892"/>
</g>
<!-- Node97&#45;&gt;Node98 -->
<g id="edge7" class="edge">
<title>Node97&#45;&gt;Node98</title>
<path fill="none" stroke="#191970" d="M461.5831,-76.4987C481.8633,-66.1429 510.4086,-52.9444 537,-45.5 589.1848,-30.8905 649.8399,-23.3792 696.7242,-19.526"/>
<polygon fill="#191970" stroke="#191970" points="697.1174,-23.006 706.8134,-18.7356 696.5706,-16.0274 697.1174,-23.006"/>
</g>
<!-- Node100 -->
<g id="node9" class="node">
<title>Node100</title>
<g id="a_node9"><a xlink:href="classATSHA204Class.html#ac51be7c43d75dcc439d89ecb0493149b" target="_top" xlink:title="ATSHA204Class::sha204c\l_sleep">
<polygon fill="#ffffff" stroke="#000000" points="707,-98.5 707,-128.5 841,-128.5 841,-98.5 707,-98.5"/>
<text text-anchor="start" x="715" y="-116.5" font-family="Helvetica,sans-Serif" font-size="10.00" fill="#000000">ATSHA204Class::sha204c</text>
<text text-anchor="middle" x="774" y="-105.5" font-family="Helvetica,sans-Serif" font-size="10.00" fill="#000000">_sleep</text>
</a>
</g>
</g>
<!-- Node97&#45;&gt;Node100 -->
<g id="edge10" class="edge">
<title>Node97&#45;&gt;Node100</title>
<path fill="none" stroke="#191970" d="M501.1731,-95.8465C557.52,-99.4925 638.0085,-104.7006 696.9603,-108.5151"/>
<polygon fill="#191970" stroke="#191970" points="696.7613,-112.0094 706.9665,-109.1625 697.2134,-105.024 696.7613,-112.0094"/>
</g>
<!-- Node101 -->
<g id="node10" class="node">
<title>Node101</title>
<g id="a_node10"><a xlink:href="classATSHA204Class.html#a2772385d612dee11f65c310334d7952b" target="_top" xlink:title="ATSHA204Class::sha204c\l_wakeup">
<polygon fill="#ffffff" stroke="#000000" points="537,-54.5 537,-84.5 671,-84.5 671,-54.5 537,-54.5"/>
<text text-anchor="start" x="545" y="-72.5" font-family="Helvetica,sans-Serif" font-size="10.00" fill="#000000">ATSHA204Class::sha204c</text>
<text text-anchor="middle" x="604" y="-61.5" font-family="Helvetica,sans-Serif" font-size="10.00" fill="#000000">_wakeup</text>
</a>
</g>
</g>
<!-- Node97&#45;&gt;Node101 -->
<g id="edge12" class="edge">
<title>Node97&#45;&gt;Node101</title>
<path fill="none" stroke="#191970" d="M501.1885,-82.805C509.5935,-81.7173 518.2417,-80.5981 526.7842,-79.4926"/>
<polygon fill="#191970" stroke="#191970" points="527.2748,-82.9584 536.7428,-78.2039 526.3763,-76.0163 527.2748,-82.9584"/>
</g>
<!-- Node98&#45;&gt;Node95 -->
<g id="edge8" class="edge">
<title>Node98&#45;&gt;Node95</title>
<path fill="none" stroke="#191970" d="M822.066,-30.5656C828.6475,-33.4423 835.1463,-36.7487 841,-40.5 870.4986,-59.404 898.1215,-89.0532 915.365,-109.56"/>
<polygon fill="#191970" stroke="#191970" points="912.818,-111.9727 921.879,-117.4634 918.2197,-107.5206 912.818,-111.9727"/>
</g>
<!-- Node99 -->
<g id="node8" class="node">
<title>Node99</title>
<g id="a_node8"><a xlink:href="classATSHA204Class.html#ae81c8e3063da186b698d31bad70e543b" target="_top" xlink:title="ATSHA204Class::swi\l_receive_bytes">
<polygon fill="#ffffff" stroke="#000000" points="877,-.5 877,-30.5 990,-30.5 990,-.5 877,-.5"/>
<text text-anchor="start" x="885" y="-18.5" font-family="Helvetica,sans-Serif" font-size="10.00" fill="#000000">ATSHA204Class::swi</text>
<text text-anchor="middle" x="933.5" y="-7.5" font-family="Helvetica,sans-Serif" font-size="10.00" fill="#000000">_receive_bytes</text>
</a>
</g>
</g>
<!-- Node98&#45;&gt;Node99 -->
<g id="edge9" class="edge">
<title>Node98&#45;&gt;Node99</title>
<path fill="none" stroke="#191970" d="M841.1801,-15.5C849.6539,-15.5 858.3219,-15.5 866.7884,-15.5"/>
<polygon fill="#191970" stroke="#191970" points="866.9892,-19.0001 876.9892,-15.5 866.9891,-12.0001 866.9892,-19.0001"/>
</g>
<!-- Node100&#45;&gt;Node95 -->
<g id="edge11" class="edge">
<title>Node100&#45;&gt;Node95</title>
<path fill="none" stroke="#191970" d="M841.1801,-121.5026C849.6539,-122.5121 858.3219,-123.5446 866.7884,-124.5532"/>
<polygon fill="#191970" stroke="#191970" points="866.6453,-128.0608 876.9892,-125.7683 867.4734,-121.1099 866.6453,-128.0608"/>
</g>
<!-- Node101&#45;&gt;Node98 -->
<g id="edge14" class="edge">
<title>Node101&#45;&gt;Node98</title>
<path fill="none" stroke="#191970" d="M651.3545,-54.458C671.7166,-47.99 695.6906,-40.3747 717.0158,-33.6009"/>
<polygon fill="#191970" stroke="#191970" points="718.1338,-36.9181 726.6049,-30.5549 716.0146,-30.2466 718.1338,-36.9181"/>
</g>
<!-- Node102 -->
<g id="node11" class="node">
<title>Node102</title>
<g id="a_node11"><a xlink:href="classATSHA204Class.html#a2d69316e4670b7fd17a1e2b6231191ff" target="_top" xlink:title="ATSHA204Class::swi\l_set_signal_pin">
<polygon fill="#ffffff" stroke="#000000" points="717.5,-49.5 717.5,-79.5 830.5,-79.5 830.5,-49.5 717.5,-49.5"/>
<text text-anchor="start" x="725.5" y="-67.5" font-family="Helvetica,sans-Serif" font-size="10.00" fill="#000000">ATSHA204Class::swi</text>
<text text-anchor="middle" x="774" y="-56.5" font-family="Helvetica,sans-Serif" font-size="10.00" fill="#000000">_set_signal_pin</text>
</a>
</g>
</g>
<!-- Node101&#45;&gt;Node102 -->
<g id="edge13" class="edge">
<title>Node101&#45;&gt;Node102</title>
<path fill="none" stroke="#191970" d="M671.1885,-67.5239C683.0325,-67.1755 695.3595,-66.813 707.1929,-66.4649"/>
<polygon fill="#191970" stroke="#191970" points="707.5477,-69.9561 717.4404,-66.1635 707.3418,-62.9591 707.5477,-69.9561"/>
</g>
<!-- Node103&#45;&gt;Node94 -->
<g id="edge17" class="edge">
<title>Node103&#45;&gt;Node94</title>
<path fill="none" stroke="#191970" d="M501.1885,-248.195C509.5935,-249.2827 518.2417,-250.4019 526.7842,-251.5074"/>
<polygon fill="#191970" stroke="#191970" points="526.3763,-254.9837 536.7428,-252.7961 527.2748,-248.0416 526.3763,-254.9837"/>
</g>
</g>
</svg>
        <g id="navigator" transform="translate(0 0)" fill="#404254">
                <rect fill="#f2f5e9" fill-opacity="0.5" stroke="#606060" stroke-width=".5" x="0" y="0" width="60" height="60"/>
                <use id="zoomplus" xlink:href="#zoomPlus" x="17" y="9" onmousedown="handleZoom(evt,'in')"/>
                <use id="zoomminus" xlink:href="#zoomMin" x="42" y="9" onmousedown="handleZoom(evt,'out')"/>
                <use id="reset" xlink:href="#resetDef" x="30" y="36" onmousedown="handleReset()"/>
                <g id="arrowUp" xlink:href="#dirArrow" transform="translate(30 24)" onmousedown="handlePan(0,-1)">
                  <use xlink:href="#rim" fill="#404040">
                        <set attributeName="fill" to="#808080" begin="arrowUp.mouseover" end="arrowUp.mouseout"/>
                  </use>
                  <path fill="none" stroke="white" stroke-width="1.5" d="M0,-3.0v7 M-2.5,-0.5L0,-3.0L2.5,-0.5"/>
                </g>
                <g id="arrowRight" xlink:href="#dirArrow" transform="rotate(90) translate(36 -43)" onmousedown="handlePan(1,0)">
                  <use xlink:href="#rim" fill="#404040">
                        <set attributeName="fill" to="#808080" begin="arrowRight.mouseover" end="arrowRight.mouseout"/>
                  </use>
                  <path fill="none" stroke="white" stroke-width="1.5" d="M0,-3.0v7 M-2.5,-0.5L0,-3.0L2.5,-0.5"/>
                </g>
                <g id="arrowDown" xlink:href="#dirArrow" transform="rotate(180) translate(-30 -48)" onmousedown="handlePan(0,1)">
                  <use xlink:href="#rim" fill="#404040">
                        <set attributeName="fill" to="#808080" begin="arrowDown.mouseover" end="arrowDown.mouseout"/>
                  </use>
                  <path fill="none" stroke="white" stroke-width="1.5" d="M0,-3.0v7 M-2.5,-0.5L0,-3.0L2.5,-0.5"/>
                </g>
                <g id="arrowLeft" xlink:href="#dirArrow" transform="rotate(270) translate(-36 17)" onmousedown="handlePan(-1,0)">
                  <use xlink:href="#rim" fill="#404040">
                        <set attributeName="fill" to="#808080" begin="arrowLeft.mouseover" end="arrowLeft.mouseout"/>
                  </use>
                  <path fill="none" stroke="white" stroke-width="1.5" d="M0,-3.0v7 M-2.5,-0.5L0,-3.0L2.5,-0.5"/>
                </g>
        </g>
        <svg viewBox="0 0 15 15" width="100%" height="30px" preserveAspectRatio="xMaxYMin meet">
         <g id="arrow_out" transform="scale(0.3 0.3)">
          <a xlink:href="classATSHA204Class_a6bcaa1359ac7392ed066641323fe8d5d_cgraph_org.svg" target="_base">
           <rect id="button" ry="5" rx="5" y="6" x="6" height="38" width="38"
                fill="#f2f5e9" fill-opacity="0.5" stroke="#606060" stroke-width="1.0"/>
           <path id="arrow"
             d="M 11.500037,31.436501 C 11.940474,20.09759 22.043105,11.32322 32.158766,21.979434 L 37.068811,17.246167 C 37.068811,17.246167 37.088388,32 37.088388,32 L 22.160133,31.978069 C 22.160133,31.978069 26.997745,27.140456 26.997745,27.140456 C 18.528582,18.264221 13.291696,25.230495 11.500037,31.436501 z"
             style="fill:#404040;"/>
          </a>
         </g>
        </svg>
</svg>
