<?xml version="1.0" encoding="UTF-8" standalone="no"?>
<!DOCTYPE svg PUBLIC "-//W3C//DTD SVG 1.1//EN"
 "http://www.w3.org/Graphics/SVG/1.1/DTD/svg11.dtd">
<!-- Generated by graphviz version 2.40.1 (20161225.0304)
 -->
<!-- Title: ATSHA204Class::swi_send_bytes Pages: 1 -->
<!--zoomable 212 -->
<svg id="main" version="1.1" xmlns="http://www.w3.org/2000/svg" xmlns:xlink="http://www.w3.org/1999/xlink" xml:space="preserve" onload="init(evt)">
<style type="text/css"><![CDATA[
.edge:hover path { stroke: red; }
.edge:hover polygon { stroke: red; fill: red; }
]]></style>
<script type="text/javascript"><![CDATA[
var edges = document.getElementsByTagName('g');
if (edges && edges.length) {
  for (var i=0;i<edges.length;i++) {
    if (edges[i].id.substr(0,4)=='edge') {
      edges[i].setAttribute('class','edge');
    }
  }
}
]]></script>
        <defs>
                <circle id="rim" cx="0" cy="0" r="7"/>
                <circle id="rim2" cx="0" cy="0" r="3.5"/>
                <g id="zoomPlus">
                        <use xlink:href="#rim" fill="#404040">
                                <set attributeName="fill" to="#808080" begin="zoomplus.mouseover" end="zoomplus.mouseout"/>
                        </use>
                        <path d="M-4,0h8M0,-4v8" fill="none" stroke="white" stroke-width="1.5" pointer-events="none"/>
                </g>
                <g id="zoomMin">
                        <use xlink:href="#rim" fill="#404040">
                                <set attributeName="fill" to="#808080" begin="zoomminus.mouseover" end="zoomminus.mouseout"/>
                        </use>
                        <path d="M-4,0h8" fill="none" stroke="white" stroke-width="1.5" pointer-events="none"/>
                </g>
                <g id="dirArrow">
                        <path fill="none" stroke="white" stroke-width="1.5" d="M0,-3.0v7 M-2.5,-0.5L0,-3.0L2.5,-0.5"/>
                </g>
               <g id="resetDef">
                       <use xlink:href="#rim2" fill="#404040">
                               <set attributeName="fill" to="#808080" begin="reset.mouseover" end="reset.mouseout"/>
                       </use>
               </g>
        </defs>

<script type="text/javascript">
var viewWidth = 1319;
var viewHeight = 212;
var sectionId = 'dynsection-20';
</script>
<script xlink:href="svgpan.js"/>
<svg id="graph" class="graph">
<g id="viewport">
<title>ATSHA204Class::swi_send_bytes</title>
<polygon fill="#ffffff" stroke="transparent" points="-4,4 -4,-208.0076 1315,-208.0076 1315,4 -4,4"/>
<!-- Node138 -->
<g id="node1" class="node">
<title>Node138</title>
<polygon fill="#bfbfbf" stroke="#000000" points="0,-151.0076 0,-181.0076 113,-181.0076 113,-151.0076 0,-151.0076"/>
<text text-anchor="start" x="8" y="-169.0076" font-family="Helvetica,sans-Serif" font-size="10.00" fill="#000000">ATSHA204Class::swi</text>
<text text-anchor="middle" x="56.5" y="-158.0076" font-family="Helvetica,sans-Serif" font-size="10.00" fill="#000000">_send_bytes</text>
</g>
<!-- Node139 -->
<g id="node2" class="node">
<title>Node139</title>
<g id="a_node2"><a xlink:href="classATSHA204Class.html#abe55ac783f1a37777bd09b7fc369ebc9" target="_top" xlink:title="ATSHA204Class::swi\l_send_byte">
<polygon fill="#ffffff" stroke="#000000" points="149,-129.0076 149,-159.0076 262,-159.0076 262,-129.0076 149,-129.0076"/>
<text text-anchor="start" x="157" y="-147.0076" font-family="Helvetica,sans-Serif" font-size="10.00" fill="#000000">ATSHA204Class::swi</text>
<text text-anchor="middle" x="205.5" y="-136.0076" font-family="Helvetica,sans-Serif" font-size="10.00" fill="#000000">_send_byte</text>
</a>
</g>
</g>
<!-- Node138&#45;&gt;Node139 -->
<g id="edge1" class="edge">
<title>Node138&#45;&gt;Node139</title>
<path fill="none" stroke="#191970" d="M123.228,-156.1552C131.8009,-154.8894 140.5125,-153.6031 148.9022,-152.3643"/>
<polygon fill="#191970" stroke="#191970" points="122.637,-152.7044 113.2556,-157.6276 123.6596,-159.6293 122.637,-152.7044"/>
</g>
<!-- Node142 -->
<g id="node5" class="node">
<title>Node142</title>
<g id="a_node5"><a xlink:href="classATSHA204Class.html#a3689222ad46022e5c50ba484053d9b2c" target="_top" xlink:title="ATSHA204Class::sha204c\l_send_and_receive">
<polygon fill="#ffffff" stroke="#000000" points="808,-129.0076 808,-159.0076 942,-159.0076 942,-129.0076 808,-129.0076"/>
<text text-anchor="start" x="816" y="-147.0076" font-family="Helvetica,sans-Serif" font-size="10.00" fill="#000000">ATSHA204Class::sha204c</text>
<text text-anchor="middle" x="875" y="-136.0076" font-family="Helvetica,sans-Serif" font-size="10.00" fill="#000000">_send_and_receive</text>
</a>
</g>
</g>
<!-- Node138&#45;&gt;Node142 -->
<g id="edge14" class="edge">
<title>Node138&#45;&gt;Node142</title>
<path fill="none" stroke="#191970" d="M123.1861,-179.0103C185.4729,-190.0138 281.1664,-204.0076 365,-204.0076 365,-204.0076 365,-204.0076 535,-204.0076 638.2464,-204.0076 756.4817,-176.8439 822.7927,-159.0707"/>
<polygon fill="#191970" stroke="#191970" points="123.5625,-175.5221 113.1019,-177.2033 122.3278,-182.4124 123.5625,-175.5221"/>
</g>
<!-- Node140 -->
<g id="node3" class="node">
<title>Node140</title>
<g id="a_node3"><a xlink:href="classATSHA204Class.html#ac51be7c43d75dcc439d89ecb0493149b" target="_top" xlink:title="ATSHA204Class::sha204c\l_sleep">
<polygon fill="#ffffff" stroke="#000000" points="468,-107.0076 468,-137.0076 602,-137.0076 602,-107.0076 468,-107.0076"/>
<text text-anchor="start" x="476" y="-125.0076" font-family="Helvetica,sans-Serif" font-size="10.00" fill="#000000">ATSHA204Class::sha204c</text>
<text text-anchor="middle" x="535" y="-114.0076" font-family="Helvetica,sans-Serif" font-size="10.00" fill="#000000">_sleep</text>
</a>
</g>
</g>
<!-- Node139&#45;&gt;Node140 -->
<g id="edge2" class="edge">
<title>Node139&#45;&gt;Node140</title>
<path fill="none" stroke="#191970" d="M272.1228,-139.5594C329.0638,-135.7575 410.6088,-130.313 467.734,-126.4988"/>
<polygon fill="#191970" stroke="#191970" points="271.8877,-136.0672 262.1431,-140.2257 272.3541,-143.0516 271.8877,-136.0672"/>
</g>
<!-- Node139&#45;&gt;Node142 -->
<g id="edge13" class="edge">
<title>Node139&#45;&gt;Node142</title>
<path fill="none" stroke="#191970" d="M272.3115,-146.432C280.9537,-146.67 289.6862,-146.8728 298,-147.0076 482.5481,-149.9995 700.3375,-147.1307 807.9218,-145.2876"/>
<polygon fill="#191970" stroke="#191970" points="272.3361,-142.9313 262.2384,-146.1386 272.1322,-149.9284 272.3361,-142.9313"/>
</g>
<!-- Node146 -->
<g id="node9" class="node">
<title>Node146</title>
<g id="a_node9"><a xlink:href="classATSHA204Class.html#ae5c777e2388de999d13afef7008a36a7" target="_top" xlink:title="ATSHA204Class::sha204p\l_receive_response">
<polygon fill="#ffffff" stroke="#000000" points="298,-41.0076 298,-71.0076 432,-71.0076 432,-41.0076 298,-41.0076"/>
<text text-anchor="start" x="306" y="-59.0076" font-family="Helvetica,sans-Serif" font-size="10.00" fill="#000000">ATSHA204Class::sha204p</text>
<text text-anchor="middle" x="365" y="-48.0076" font-family="Helvetica,sans-Serif" font-size="10.00" fill="#000000">_receive_response</text>
</a>
</g>
</g>
<!-- Node139&#45;&gt;Node146 -->
<g id="edge8" class="edge">
<title>Node139&#45;&gt;Node146</title>
<path fill="none" stroke="#191970" d="M241.9555,-123.8942C271.0812,-107.8249 311.262,-85.6562 337.6723,-71.0849"/>
<polygon fill="#191970" stroke="#191970" points="239.984,-120.9845 232.919,-128.8799 243.3656,-127.1136 239.984,-120.9845"/>
</g>
<!-- Node141 -->
<g id="node4" class="node">
<title>Node141</title>
<g id="a_node4"><a xlink:href="classATSHA204Class.html#a0d8eab6a8af231835dd5b6734df0d670" target="_top" xlink:title="ATSHA204Class::sha204c\l_resync">
<polygon fill="#ffffff" stroke="#000000" points="638,-85.0076 638,-115.0076 772,-115.0076 772,-85.0076 638,-85.0076"/>
<text text-anchor="start" x="646" y="-103.0076" font-family="Helvetica,sans-Serif" font-size="10.00" fill="#000000">ATSHA204Class::sha204c</text>
<text text-anchor="middle" x="705" y="-92.0076" font-family="Helvetica,sans-Serif" font-size="10.00" fill="#000000">_resync</text>
</a>
</g>
</g>
<!-- Node140&#45;&gt;Node141 -->
<g id="edge3" class="edge">
<title>Node140&#45;&gt;Node141</title>
<path fill="none" stroke="#191970" d="M612.146,-112.024C620.6879,-110.9186 629.3366,-109.7994 637.7428,-108.7115"/>
<polygon fill="#191970" stroke="#191970" points="611.6566,-108.5581 602.1885,-113.3126 612.555,-115.5002 611.6566,-108.5581"/>
</g>
<!-- Node141&#45;&gt;Node142 -->
<g id="edge4" class="edge">
<title>Node141&#45;&gt;Node142</title>
<path fill="none" stroke="#191970" d="M772.9773,-117.6018C787.5398,-121.3709 802.7973,-125.3199 816.9442,-128.9814"/>
<polygon fill="#191970" stroke="#191970" points="773.5869,-114.1443 763.0289,-115.0269 771.8329,-120.921 773.5869,-114.1443"/>
</g>
<!-- Node143 -->
<g id="node6" class="node">
<title>Node143</title>
<g id="a_node6"><a xlink:href="classATSHA204Class.html#a6bcaa1359ac7392ed066641323fe8d5d" target="_top" xlink:title="ATSHA204Class::sha204m_read">
<polygon fill="#ffffff" stroke="#000000" points="978,-156.5076 978,-175.5076 1139,-175.5076 1139,-156.5076 978,-156.5076"/>
<text text-anchor="middle" x="1058.5" y="-163.5076" font-family="Helvetica,sans-Serif" font-size="10.00" fill="#000000">ATSHA204Class::sha204m_read</text>
</a>
</g>
</g>
<!-- Node142&#45;&gt;Node143 -->
<g id="edge5" class="edge">
<title>Node142&#45;&gt;Node143</title>
<path fill="none" stroke="#191970" d="M952.0565,-153.246C961.0293,-154.3218 970.1946,-155.4206 979.1971,-156.4999"/>
<polygon fill="#191970" stroke="#191970" points="952.3722,-149.7589 942.0266,-152.0435 951.5389,-156.7091 952.3722,-149.7589"/>
</g>
<!-- Node145 -->
<g id="node8" class="node">
<title>Node145</title>
<g id="a_node8"><a xlink:href="classATSHA204Class.html#a8600d67f5c574e1584ef5555429f305b" target="_top" xlink:title="ATSHA204Class::sha204m\l_execute">
<polygon fill="#ffffff" stroke="#000000" points="990,-107.0076 990,-137.0076 1127,-137.0076 1127,-107.0076 990,-107.0076"/>
<text text-anchor="start" x="998" y="-125.0076" font-family="Helvetica,sans-Serif" font-size="10.00" fill="#000000">ATSHA204Class::sha204m</text>
<text text-anchor="middle" x="1058.5" y="-114.0076" font-family="Helvetica,sans-Serif" font-size="10.00" fill="#000000">_execute</text>
</a>
</g>
</g>
<!-- Node142&#45;&gt;Node145 -->
<g id="edge7" class="edge">
<title>Node142&#45;&gt;Node145</title>
<path fill="none" stroke="#191970" d="M951.9927,-134.7769C964.5439,-133.2721 977.4735,-131.722 989.8084,-130.2431"/>
<polygon fill="#191970" stroke="#191970" points="951.5389,-131.3061 942.0266,-135.9717 952.3722,-138.2564 951.5389,-131.3061"/>
</g>
<!-- Node144 -->
<g id="node7" class="node">
<title>Node144</title>
<g id="a_node7"><a xlink:href="classATSHA204Class.html#ade50092ec236d13cde64e7684b59ab7b" target="_top" xlink:title="ATSHA204Class::getSerial\lNumber">
<polygon fill="#ffffff" stroke="#000000" points="1175,-151.0076 1175,-181.0076 1311,-181.0076 1311,-151.0076 1175,-151.0076"/>
<text text-anchor="start" x="1183" y="-169.0076" font-family="Helvetica,sans-Serif" font-size="10.00" fill="#000000">ATSHA204Class::getSerial</text>
<text text-anchor="middle" x="1243" y="-158.0076" font-family="Helvetica,sans-Serif" font-size="10.00" fill="#000000">Number</text>
</a>
</g>
</g>
<!-- Node143&#45;&gt;Node144 -->
<g id="edge6" class="edge">
<title>Node143&#45;&gt;Node144</title>
<path fill="none" stroke="#191970" d="M1149.2634,-166.0076C1157.8956,-166.0076 1166.5452,-166.0076 1174.9096,-166.0076"/>
<polygon fill="#191970" stroke="#191970" points="1149.156,-162.5077 1139.156,-166.0076 1149.156,-169.5077 1149.156,-162.5077"/>
</g>
<!-- Node146&#45;&gt;Node141 -->
<g id="edge11" class="edge">
<title>Node146&#45;&gt;Node141</title>
<path fill="none" stroke="#191970" d="M442.1858,-65.9964C501.1731,-73.63 581.6595,-84.0459 637.9665,-91.3327"/>
<polygon fill="#191970" stroke="#191970" points="442.5396,-62.5131 432.1731,-64.7006 441.6411,-69.4552 442.5396,-62.5131"/>
</g>
<!-- Node146&#45;&gt;Node142 -->
<g id="edge12" class="edge">
<title>Node146&#45;&gt;Node142</title>
<path fill="none" stroke="#191970" d="M398.9664,-36.0362C418.4536,-25.7433 443.7915,-14.2699 468,-9.0076 526.1965,3.6428 543.4906,2.1062 602,-9.0076 681.7852,-24.1627 699.9455,-38.5441 772,-76.0076 802.228,-91.7242 834.6402,-114.1493 854.8627,-128.887"/>
<polygon fill="#191970" stroke="#191970" points="397.2945,-32.9613 390.1758,-40.8084 400.6342,-39.1133 397.2945,-32.9613"/>
</g>
<!-- Node147 -->
<g id="node10" class="node">
<title>Node147</title>
<g id="a_node10"><a xlink:href="classATSHA204Class.html#a2772385d612dee11f65c310334d7952b" target="_top" xlink:title="ATSHA204Class::sha204c\l_wakeup">
<polygon fill="#ffffff" stroke="#000000" points="468,-19.0076 468,-49.0076 602,-49.0076 602,-19.0076 468,-19.0076"/>
<text text-anchor="start" x="476" y="-37.0076" font-family="Helvetica,sans-Serif" font-size="10.00" fill="#000000">ATSHA204Class::sha204c</text>
<text text-anchor="middle" x="535" y="-26.0076" font-family="Helvetica,sans-Serif" font-size="10.00" fill="#000000">_wakeup</text>
</a>
</g>
</g>
<!-- Node146&#45;&gt;Node147 -->
<g id="edge9" class="edge">
<title>Node146&#45;&gt;Node147</title>
<path fill="none" stroke="#191970" d="M442.146,-46.024C450.6879,-44.9186 459.3366,-43.7994 467.7428,-42.7115"/>
<polygon fill="#191970" stroke="#191970" points="441.6566,-42.5581 432.1885,-47.3126 442.555,-49.5002 441.6566,-42.5581"/>
</g>
<!-- Node147&#45;&gt;Node141 -->
<g id="edge10" class="edge">
<title>Node147&#45;&gt;Node141</title>
<path fill="none" stroke="#191970" d="M583.381,-52.7908C609.6123,-62.9748 641.5963,-75.3921 666.18,-84.9363"/>
<polygon fill="#191970" stroke="#191970" points="584.5903,-49.5059 574.0014,-49.1494 582.0568,-56.0313 584.5903,-49.5059"/>
</g>
</g>
</svg>
        <g id="navigator" transform="translate(0 0)" fill="#404254">
                <rect fill="#f2f5e9" fill-opacity="0.5" stroke="#606060" stroke-width=".5" x="0" y="0" width="60" height="60"/>
                <use id="zoomplus" xlink:href="#zoomPlus" x="17" y="9" onmousedown="handleZoom(evt,'in')"/>
                <use id="zoomminus" xlink:href="#zoomMin" x="42" y="9" onmousedown="handleZoom(evt,'out')"/>
                <use id="reset" xlink:href="#resetDef" x="30" y="36" onmousedown="handleReset()"/>
                <g id="arrowUp" xlink:href="#dirArrow" transform="translate(30 24)" onmousedown="handlePan(0,-1)">
                  <use xlink:href="#rim" fill="#404040">
                        <set attributeName="fill" to="#808080" begin="arrowUp.mouseover" end="arrowUp.mouseout"/>
                  </use>
                  <path fill="none" stroke="white" stroke-width="1.5" d="M0,-3.0v7 M-2.5,-0.5L0,-3.0L2.5,-0.5"/>
                </g>
                <g id="arrowRight" xlink:href="#dirArrow" transform="rotate(90) translate(36 -43)" onmousedown="handlePan(1,0)">
                  <use xlink:href="#rim" fill="#404040">
                        <set attributeName="fill" to="#808080" begin="arrowRight.mouseover" end="arrowRight.mouseout"/>
                  </use>
                  <path fill="none" stroke="white" stroke-width="1.5" d="M0,-3.0v7 M-2.5,-0.5L0,-3.0L2.5,-0.5"/>
                </g>
                <g id="arrowDown" xlink:href="#dirArrow" transform="rotate(180) translate(-30 -48)" onmousedown="handlePan(0,1)">
                  <use xlink:href="#rim" fill="#404040">
                        <set attributeName="fill" to="#808080" begin="arrowDown.mouseover" end="arrowDown.mouseout"/>
                  </use>
                  <path fill="none" stroke="white" stroke-width="1.5" d="M0,-3.0v7 M-2.5,-0.5L0,-3.0L2.5,-0.5"/>
                </g>
                <g id="arrowLeft" xlink:href="#dirArrow" transform="rotate(270) translate(-36 17)" onmousedown="handlePan(-1,0)">
                  <use xlink:href="#rim" fill="#404040">
                        <set attributeName="fill" to="#808080" begin="arrowLeft.mouseover" end="arrowLeft.mouseout"/>
                  </use>
                  <path fill="none" stroke="white" stroke-width="1.5" d="M0,-3.0v7 M-2.5,-0.5L0,-3.0L2.5,-0.5"/>
                </g>
        </g>
        <svg viewBox="0 0 15 15" width="100%" height="30px" preserveAspectRatio="xMaxYMin meet">
         <g id="arrow_out" transform="scale(0.3 0.3)">
          <a xlink:href="classATSHA204Class_a0f8c2167d152bbe670d1b1187d7b2897_icgraph_org.svg" target="_base">
           <rect id="button" ry="5" rx="5" y="6" x="6" height="38" width="38"
                fill="#f2f5e9" fill-opacity="0.5" stroke="#606060" stroke-width="1.0"/>
           <path id="arrow"
             d="M 11.500037,31.436501 C 11.940474,20.09759 22.043105,11.32322 32.158766,21.979434 L 37.068811,17.246167 C 37.068811,17.246167 37.088388,32 37.088388,32 L 22.160133,31.978069 C 22.160133,31.978069 26.997745,27.140456 26.997745,27.140456 C 18.528582,18.264221 13.291696,25.230495 11.500037,31.436501 z"
             style="fill:#404040;"/>
          </a>
         </g>
        </svg>
</svg>
