<?xml version="1.0" encoding="UTF-8" standalone="no"?>
<!DOCTYPE svg PUBLIC "-//W3C//DTD SVG 1.1//EN"
 "http://www.w3.org/Graphics/SVG/1.1/DTD/svg11.dtd">
<!-- Generated by graphviz version 2.40.1 (20161225.0304)
 -->
<!-- Title: ATSHA204Class::sha204c_sleep Pages: 1 -->
<svg width="440pt" height="39pt"
 viewBox="0.00 0.00 440.00 39.00" xmlns="http://www.w3.org/2000/svg" xmlns:xlink="http://www.w3.org/1999/xlink">
<g id="graph0" class="graph" transform="scale(1 1) rotate(0) translate(4 35)">
<title>ATSHA204Class::sha204c_sleep</title>
<polygon fill="#ffffff" stroke="transparent" points="-4,4 -4,-35 436,-35 436,4 -4,4"/>
<!-- Node58 -->
<g id="node1" class="node">
<title>Node58</title>
<polygon fill="#bfbfbf" stroke="#000000" points="0,-.5 0,-30.5 134,-30.5 134,-.5 0,-.5"/>
<text text-anchor="start" x="8" y="-18.5" font-family="Helvetica,sans-Serif" font-size="10.00" fill="#000000">ATSHA204Class::sha204c</text>
<text text-anchor="middle" x="67" y="-7.5" font-family="Helvetica,sans-Serif" font-size="10.00" fill="#000000">_sleep</text>
</g>
<!-- Node59 -->
<g id="node2" class="node">
<title>Node59</title>
<g id="a_node2"><a xlink:href="classATSHA204Class.html#abe55ac783f1a37777bd09b7fc369ebc9" target="_top" xlink:title="ATSHA204Class::swi\l_send_byte">
<polygon fill="#ffffff" stroke="#000000" points="170,-.5 170,-30.5 283,-30.5 283,-.5 170,-.5"/>
<text text-anchor="start" x="178" y="-18.5" font-family="Helvetica,sans-Serif" font-size="10.00" fill="#000000">ATSHA204Class::swi</text>
<text text-anchor="middle" x="226.5" y="-7.5" font-family="Helvetica,sans-Serif" font-size="10.00" fill="#000000">_send_byte</text>
</a>
</g>
</g>
<!-- Node58&#45;&gt;Node59 -->
<g id="edge1" class="edge">
<title>Node58&#45;&gt;Node59</title>
<path fill="none" stroke="#191970" d="M134.1801,-15.5C142.6539,-15.5 151.3219,-15.5 159.7884,-15.5"/>
<polygon fill="#191970" stroke="#191970" points="159.9892,-19.0001 169.9892,-15.5 159.9891,-12.0001 159.9892,-19.0001"/>
</g>
<!-- Node60 -->
<g id="node3" class="node">
<title>Node60</title>
<g id="a_node3"><a xlink:href="classATSHA204Class.html#a0f8c2167d152bbe670d1b1187d7b2897" target="_top" xlink:title="ATSHA204Class::swi\l_send_bytes">
<polygon fill="#ffffff" stroke="#000000" points="319,-.5 319,-30.5 432,-30.5 432,-.5 319,-.5"/>
<text text-anchor="start" x="327" y="-18.5" font-family="Helvetica,sans-Serif" font-size="10.00" fill="#000000">ATSHA204Class::swi</text>
<text text-anchor="middle" x="375.5" y="-7.5" font-family="Helvetica,sans-Serif" font-size="10.00" fill="#000000">_send_bytes</text>
</a>
</g>
</g>
<!-- Node59&#45;&gt;Node60 -->
<g id="edge2" class="edge">
<title>Node59&#45;&gt;Node60</title>
<path fill="none" stroke="#191970" d="M283.2556,-15.5C291.558,-15.5 300.1727,-15.5 308.6536,-15.5"/>
<polygon fill="#191970" stroke="#191970" points="308.9023,-19.0001 318.9022,-15.5 308.9022,-12.0001 308.9023,-19.0001"/>
</g>
</g>
</svg>
