<?xml version="1.0" encoding="UTF-8" standalone="no"?>
<!DOCTYPE svg PUBLIC "-//W3C//DTD SVG 1.1//EN"
 "http://www.w3.org/Graphics/SVG/1.1/DTD/svg11.dtd">
<!-- Generated by graphviz version 2.40.1 (20161225.0304)
 -->
<!-- Title: Sha256Class::resultHmac Pages: 1 -->
<svg width="433pt" height="83pt"
 viewBox="0.00 0.00 433.00 83.00" xmlns="http://www.w3.org/2000/svg" xmlns:xlink="http://www.w3.org/1999/xlink">
<g id="graph0" class="graph" transform="scale(1 1) rotate(0) translate(4 79)">
<title>Sha256Class::resultHmac</title>
<polygon fill="#ffffff" stroke="transparent" points="-4,4 -4,-79 429,-79 429,4 -4,4"/>
<!-- Node80 -->
<g id="node1" class="node">
<title>Node80</title>
<polygon fill="#bfbfbf" stroke="#000000" points="0,-28 0,-47 131,-47 131,-28 0,-28"/>
<text text-anchor="middle" x="65.5" y="-35" font-family="Helvetica,sans-Serif" font-size="10.00" fill="#000000">Sha256Class::resultHmac</text>
</g>
<!-- Node81 -->
<g id="node2" class="node">
<title>Node81</title>
<g id="a_node2"><a xlink:href="TooSigning_8h.html#ab8a2415b95a77c91ffbc6ebbde622f64" target="_top" xlink:title="TooSigning_get_hmac">
<polygon fill="#ffffff" stroke="#000000" points="167,-50 167,-69 280,-69 280,-50 167,-50"/>
<text text-anchor="middle" x="223.5" y="-57" font-family="Helvetica,sans-Serif" font-size="10.00" fill="#000000">TooSigning_get_hmac</text>
</a>
</g>
</g>
<!-- Node80&#45;&gt;Node81 -->
<g id="edge1" class="edge">
<title>Node80&#45;&gt;Node81</title>
<path fill="none" stroke="#191970" d="M141.2225,-48.0436C149.8584,-49.2461 158.5465,-50.4558 166.8733,-51.6153"/>
<polygon fill="#191970" stroke="#191970" points="141.5208,-44.5515 131.1336,-46.6389 140.5553,-51.4846 141.5208,-44.5515"/>
</g>
<!-- Node83 -->
<g id="node4" class="node">
<title>Node83</title>
<g id="a_node4"><a xlink:href="TooSigning_8cpp.html#a03df9fd005c518d1114f912ae7da9f06" target="_top" xlink:title="TooSigning_unsigned\l_network_available">
<polygon fill="#ffffff" stroke="#000000" points="168.5,-.5 168.5,-30.5 278.5,-30.5 278.5,-.5 168.5,-.5"/>
<text text-anchor="start" x="176.5" y="-18.5" font-family="Helvetica,sans-Serif" font-size="10.00" fill="#000000">TooSigning_unsigned</text>
<text text-anchor="middle" x="223.5" y="-7.5" font-family="Helvetica,sans-Serif" font-size="10.00" fill="#000000">_network_available</text>
</a>
</g>
</g>
<!-- Node80&#45;&gt;Node83 -->
<g id="edge3" class="edge">
<title>Node80&#45;&gt;Node83</title>
<path fill="none" stroke="#191970" d="M141.0697,-26.9776C150.2707,-25.6965 159.534,-24.4067 168.3589,-23.1779"/>
<polygon fill="#191970" stroke="#191970" points="140.5553,-23.5154 131.1336,-28.3611 141.5208,-30.4485 140.5553,-23.5154"/>
</g>
<!-- Node82 -->
<g id="node3" class="node">
<title>Node82</title>
<g id="a_node3"><a xlink:href="TooNetworking_8h.html#ab5dfe46515ee5ca8f9893675df673d96" target="_top" xlink:title="TooNetworking_send\l_signed">
<polygon fill="#ffffff" stroke="#000000" points="316,-44.5 316,-74.5 425,-74.5 425,-44.5 316,-44.5"/>
<text text-anchor="start" x="324" y="-62.5" font-family="Helvetica,sans-Serif" font-size="10.00" fill="#000000">TooNetworking_send</text>
<text text-anchor="middle" x="370.5" y="-51.5" font-family="Helvetica,sans-Serif" font-size="10.00" fill="#000000">_signed</text>
</a>
</g>
</g>
<!-- Node81&#45;&gt;Node82 -->
<g id="edge2" class="edge">
<title>Node81&#45;&gt;Node82</title>
<path fill="none" stroke="#191970" d="M290.5402,-59.5C298.9787,-59.5 307.5317,-59.5 315.7496,-59.5"/>
<polygon fill="#191970" stroke="#191970" points="290.3341,-56.0001 280.334,-59.5 290.334,-63.0001 290.3341,-56.0001"/>
</g>
</g>
</svg>
