<?xml version="1.0" encoding="UTF-8" standalone="no"?>
<!DOCTYPE svg PUBLIC "-//W3C//DTD SVG 1.1//EN"
 "http://www.w3.org/Graphics/SVG/1.1/DTD/svg11.dtd">
<!-- Generated by graphviz version 2.40.1 (20161225.0304)
 -->
<!-- Title: Sha256Class::ror32 Pages: 1 -->
<!--zoomable 182 -->
<svg id="main" version="1.1" xmlns="http://www.w3.org/2000/svg" xmlns:xlink="http://www.w3.org/1999/xlink" xml:space="preserve" onload="init(evt)">
<style type="text/css"><![CDATA[
.edge:hover path { stroke: red; }
.edge:hover polygon { stroke: red; fill: red; }
]]></style>
<script type="text/javascript"><![CDATA[
var edges = document.getElementsByTagName('g');
if (edges && edges.length) {
  for (var i=0;i<edges.length;i++) {
    if (edges[i].id.substr(0,4)=='edge') {
      edges[i].setAttribute('class','edge');
    }
  }
}
]]></script>
        <defs>
                <circle id="rim" cx="0" cy="0" r="7"/>
                <circle id="rim2" cx="0" cy="0" r="3.5"/>
                <g id="zoomPlus">
                        <use xlink:href="#rim" fill="#404040">
                                <set attributeName="fill" to="#808080" begin="zoomplus.mouseover" end="zoomplus.mouseout"/>
                        </use>
                        <path d="M-4,0h8M0,-4v8" fill="none" stroke="white" stroke-width="1.5" pointer-events="none"/>
                </g>
                <g id="zoomMin">
                        <use xlink:href="#rim" fill="#404040">
                                <set attributeName="fill" to="#808080" begin="zoomminus.mouseover" end="zoomminus.mouseout"/>
                        </use>
                        <path d="M-4,0h8" fill="none" stroke="white" stroke-width="1.5" pointer-events="none"/>
                </g>
                <g id="dirArrow">
                        <path fill="none" stroke="white" stroke-width="1.5" d="M0,-3.0v7 M-2.5,-0.5L0,-3.0L2.5,-0.5"/>
                </g>
               <g id="resetDef">
                       <use xlink:href="#rim2" fill="#404040">
                               <set attributeName="fill" to="#808080" begin="reset.mouseover" end="reset.mouseout"/>
                       </use>
               </g>
        </defs>

<script type="text/javascript">
var viewWidth = 1629;
var viewHeight = 182;
var sectionId = 'dynsection-14';
</script>
<script xlink:href="svgpan.js"/>
<svg id="graph" class="graph">
<g id="viewport">
<title>Sha256Class::ror32</title>
<polygon fill="#ffffff" stroke="transparent" points="-4,4 -4,-178.2243 1625,-178.2243 1625,4 -4,4"/>
<!-- Node127 -->
<g id="node1" class="node">
<title>Node127</title>
<polygon fill="#bfbfbf" stroke="#000000" points="0,-86 0,-105 103,-105 103,-86 0,-86"/>
<text text-anchor="middle" x="51.5" y="-93" font-family="Helvetica,sans-Serif" font-size="10.00" fill="#000000">Sha256Class::ror32</text>
</g>
<!-- Node128 -->
<g id="node2" class="node">
<title>Node128</title>
<g id="a_node2"><a xlink:href="classSha256Class.html#a399d2a23951e2130f54af8ac7712068f" target="_top" xlink:title="Sha256Class::hashBlock">
<polygon fill="#ffffff" stroke="#000000" points="139,-86 139,-105 266,-105 266,-86 139,-86"/>
<text text-anchor="middle" x="202.5" y="-93" font-family="Helvetica,sans-Serif" font-size="10.00" fill="#000000">Sha256Class::hashBlock</text>
</a>
</g>
</g>
<!-- Node127&#45;&gt;Node128 -->
<g id="edge1" class="edge">
<title>Node127&#45;&gt;Node128</title>
<path fill="none" stroke="#191970" d="M113.224,-95.5C121.6923,-95.5 130.3998,-95.5 138.9009,-95.5"/>
<polygon fill="#191970" stroke="#191970" points="113.0433,-92.0001 103.0433,-95.5 113.0433,-99.0001 113.0433,-92.0001"/>
</g>
<!-- Node129 -->
<g id="node3" class="node">
<title>Node129</title>
<g id="a_node3"><a xlink:href="classSha256Class.html#ab0b46743e3d59b1c68f52ed89dfaff50" target="_top" xlink:title="Sha256Class::addUncounted">
<polygon fill="#ffffff" stroke="#000000" points="302,-86 302,-105 446,-105 446,-86 302,-86"/>
<text text-anchor="middle" x="374" y="-93" font-family="Helvetica,sans-Serif" font-size="10.00" fill="#000000">Sha256Class::addUncounted</text>
</a>
</g>
</g>
<!-- Node128&#45;&gt;Node129 -->
<g id="edge2" class="edge">
<title>Node128&#45;&gt;Node129</title>
<path fill="none" stroke="#191970" d="M276.4728,-95.5C284.8434,-95.5 293.3666,-95.5 301.7152,-95.5"/>
<polygon fill="#191970" stroke="#191970" points="276.3603,-92.0001 266.3603,-95.5 276.3602,-99.0001 276.3603,-92.0001"/>
</g>
<!-- Node130 -->
<g id="node4" class="node">
<title>Node130</title>
<g id="a_node4"><a xlink:href="classSha256Class.html#a0f0fc4bd4d8c53d232df0d41d7ea25e0" target="_top" xlink:title="Sha256Class::write">
<polygon fill="#ffffff" stroke="#000000" points="616.5,-105 616.5,-124 718.5,-124 718.5,-105 616.5,-105"/>
<text text-anchor="middle" x="667.5" y="-112" font-family="Helvetica,sans-Serif" font-size="10.00" fill="#000000">Sha256Class::write</text>
</a>
</g>
</g>
<!-- Node129&#45;&gt;Node130 -->
<g id="edge3" class="edge">
<title>Node129&#45;&gt;Node130</title>
<path fill="none" stroke="#191970" d="M456.2671,-100.8256C507.6598,-104.1526 572.2228,-108.3321 616.3572,-111.1892"/>
<polygon fill="#191970" stroke="#191970" points="456.3793,-97.3257 446.1741,-100.1723 455.9271,-104.311 456.3793,-97.3257"/>
</g>
<!-- Node144 -->
<g id="node18" class="node">
<title>Node144</title>
<g id="a_node18"><a xlink:href="classSha256Class.html#a82049dae520ccf0bd8478f2aef639149" target="_top" xlink:title="Sha256Class::pad">
<polygon fill="#ffffff" stroke="#000000" points="482,-67 482,-86 579,-86 579,-67 482,-67"/>
<text text-anchor="middle" x="530.5" y="-74" font-family="Helvetica,sans-Serif" font-size="10.00" fill="#000000">Sha256Class::pad</text>
</a>
</g>
</g>
<!-- Node129&#45;&gt;Node144 -->
<g id="edge24" class="edge">
<title>Node129&#45;&gt;Node144</title>
<path fill="none" stroke="#191970" d="M456.4503,-85.4901C465.0962,-84.4404 473.6735,-83.3991 481.7583,-82.4175"/>
<polygon fill="#191970" stroke="#191970" points="455.7999,-82.0432 446.2947,-86.723 456.6436,-88.9922 455.7999,-82.0432"/>
</g>
<!-- Node131 -->
<g id="node5" class="node">
<title>Node131</title>
<g id="a_node5"><a xlink:href="classSha256Class.html#a73d3dcea6eb667fd146d12aa5d106939" target="_top" xlink:title="Sha256Class::initHmac">
<polygon fill="#ffffff" stroke="#000000" points="761.5,-67 761.5,-86 881.5,-86 881.5,-67 761.5,-67"/>
<text text-anchor="middle" x="821.5" y="-74" font-family="Helvetica,sans-Serif" font-size="10.00" fill="#000000">Sha256Class::initHmac</text>
</a>
</g>
</g>
<!-- Node130&#45;&gt;Node131 -->
<g id="edge4" class="edge">
<title>Node130&#45;&gt;Node131</title>
<path fill="none" stroke="#191970" d="M716.2937,-102.46C737.8082,-97.1512 762.7318,-91.0012 782.9187,-86.0201"/>
<polygon fill="#191970" stroke="#191970" points="715.231,-99.1172 706.3607,-104.911 716.908,-105.9133 715.231,-99.1172"/>
</g>
<!-- Node141 -->
<g id="node15" class="node">
<title>Node141</title>
<g id="a_node15"><a xlink:href="classSha256Class.html#a7556f29cadf7eaca21a537df41318af3" target="_top" xlink:title="Sha256Class::resultHmac">
<polygon fill="#ffffff" stroke="#000000" points="756,-105 756,-124 887,-124 887,-105 756,-105"/>
<text text-anchor="middle" x="821.5" y="-112" font-family="Helvetica,sans-Serif" font-size="10.00" fill="#000000">Sha256Class::resultHmac</text>
</a>
</g>
</g>
<!-- Node130&#45;&gt;Node141 -->
<g id="edge17" class="edge">
<title>Node130&#45;&gt;Node141</title>
<path fill="none" stroke="#191970" d="M729.0102,-114.5C737.8617,-114.5 746.9981,-114.5 755.925,-114.5"/>
<polygon fill="#191970" stroke="#191970" points="728.7798,-111.0001 718.7798,-114.5 728.7797,-118.0001 728.7798,-111.0001"/>
</g>
<!-- Node143 -->
<g id="node17" class="node">
<title>Node143</title>
<g id="a_node17"><a xlink:href="group__TOOSIGNING__HASHING.html#gafb2935303b05255e80a7a6fa4be7cf57" target="_top" xlink:title="TooSigning_hash_data">
<polygon fill="#ffffff" stroke="#000000" points="763.5,-143 763.5,-162 879.5,-162 879.5,-143 763.5,-143"/>
<text text-anchor="middle" x="821.5" y="-150" font-family="Helvetica,sans-Serif" font-size="10.00" fill="#000000">TooSigning_hash_data</text>
</a>
</g>
</g>
<!-- Node130&#45;&gt;Node143 -->
<g id="edge21" class="edge">
<title>Node130&#45;&gt;Node143</title>
<path fill="none" stroke="#191970" d="M716.2937,-126.54C737.8082,-131.8488 762.7318,-137.9988 782.9187,-142.9799"/>
<polygon fill="#191970" stroke="#191970" points="716.908,-123.0867 706.3607,-124.089 715.231,-129.8828 716.908,-123.0867"/>
</g>
<!-- Node132 -->
<g id="node6" class="node">
<title>Node132</title>
<g id="a_node6"><a xlink:href="TooSigning_8h.html#a1e2cd2b37702263e1fe166395350bf08" target="_top" xlink:title="TooSigning_init_hmac">
<polygon fill="#ffffff" stroke="#000000" points="923,-42 923,-61 1036,-61 1036,-42 923,-42"/>
<text text-anchor="middle" x="979.5" y="-49" font-family="Helvetica,sans-Serif" font-size="10.00" fill="#000000">TooSigning_init_hmac</text>
</a>
</g>
</g>
<!-- Node131&#45;&gt;Node132 -->
<g id="edge5" class="edge">
<title>Node131&#45;&gt;Node132</title>
<path fill="none" stroke="#191970" d="M891.6179,-65.4054C902.0719,-63.7513 912.736,-62.0639 922.8655,-60.4612"/>
<polygon fill="#191970" stroke="#191970" points="891.0139,-61.9573 881.6838,-66.9773 892.1079,-68.8713 891.0139,-61.9573"/>
</g>
<!-- Node139 -->
<g id="node13" class="node">
<title>Node139</title>
<g id="a_node13"><a xlink:href="TooSigning_8cpp.html#a03df9fd005c518d1114f912ae7da9f06" target="_top" xlink:title="TooSigning_unsigned\l_network_available">
<polygon fill="#ffffff" stroke="#000000" points="924.5,-118.5 924.5,-148.5 1034.5,-148.5 1034.5,-118.5 924.5,-118.5"/>
<text text-anchor="start" x="932.5" y="-136.5" font-family="Helvetica,sans-Serif" font-size="10.00" fill="#000000">TooSigning_unsigned</text>
<text text-anchor="middle" x="979.5" y="-125.5" font-family="Helvetica,sans-Serif" font-size="10.00" fill="#000000">_network_available</text>
</a>
</g>
</g>
<!-- Node131&#45;&gt;Node139 -->
<g id="edge14" class="edge">
<title>Node131&#45;&gt;Node139</title>
<path fill="none" stroke="#191970" d="M866.8792,-88.9753C873.6612,-91.0383 880.5412,-93.2439 887,-95.5 906.5043,-102.313 927.8631,-111.0031 945.1377,-118.353"/>
<polygon fill="#191970" stroke="#191970" points="867.6557,-85.555 857.0732,-86.0656 865.6644,-92.2658 867.6557,-85.555"/>
</g>
<!-- Node133 -->
<g id="node7" class="node">
<title>Node133</title>
<g id="a_node7"><a xlink:href="TooNetworking_8h.html#a9f893c3218491ee86282fdcd9f376500" target="_top" xlink:title="TooNetworking_send\l_signed_">
<polygon fill="#ffffff" stroke="#000000" points="1085,-63.5 1085,-93.5 1194,-93.5 1194,-63.5 1085,-63.5"/>
<text text-anchor="start" x="1093" y="-81.5" font-family="Helvetica,sans-Serif" font-size="10.00" fill="#000000">TooNetworking_send</text>
<text text-anchor="middle" x="1139.5" y="-70.5" font-family="Helvetica,sans-Serif" font-size="10.00" fill="#000000">_signed_</text>
</a>
</g>
</g>
<!-- Node132&#45;&gt;Node133 -->
<g id="edge6" class="edge">
<title>Node132&#45;&gt;Node133</title>
<path fill="none" stroke="#191970" d="M1046.1435,-62.7461C1059.065,-64.9266 1072.465,-67.1878 1084.9431,-69.2935"/>
<polygon fill="#191970" stroke="#191970" points="1046.353,-59.232 1035.91,-61.0192 1045.1882,-66.1345 1046.353,-59.232"/>
</g>
<!-- Node134 -->
<g id="node8" class="node">
<title>Node134</title>
<g id="a_node8"><a xlink:href="TooNetworking_8h.html#a59be7e774988f57ab43c4c078c570c67" target="_top" xlink:title="TooNetworking_bufferlist_add">
<polygon fill="#ffffff" stroke="#000000" points="1243,-25 1243,-44 1389,-44 1389,-25 1243,-25"/>
<text text-anchor="middle" x="1316" y="-32" font-family="Helvetica,sans-Serif" font-size="10.00" fill="#000000">TooNetworking_bufferlist_add</text>
</a>
</g>
</g>
<!-- Node133&#45;&gt;Node134 -->
<g id="edge7" class="edge">
<title>Node133&#45;&gt;Node134</title>
<path fill="none" stroke="#191970" d="M1204.3869,-62.3242C1229.0156,-56.1845 1256.2602,-49.3926 1277.6664,-44.0562"/>
<polygon fill="#191970" stroke="#191970" points="1203.2346,-59.0043 1194.3782,-64.8193 1204.9279,-65.7964 1203.2346,-59.0043"/>
</g>
<!-- Node135 -->
<g id="node9" class="node">
<title>Node135</title>
<g id="a_node9"><a xlink:href="TooNetworking_8h.html#a9209f3e1a2fdf0b3b88d49105b8fc359" target="_top" xlink:title="TooNetworking_send\l_signed">
<polygon fill="#ffffff" stroke="#000000" points="1433,-.5 1433,-30.5 1542,-30.5 1542,-.5 1433,-.5"/>
<text text-anchor="start" x="1441" y="-18.5" font-family="Helvetica,sans-Serif" font-size="10.00" fill="#000000">TooNetworking_send</text>
<text text-anchor="middle" x="1487.5" y="-7.5" font-family="Helvetica,sans-Serif" font-size="10.00" fill="#000000">_signed</text>
</a>
</g>
</g>
<!-- Node133&#45;&gt;Node135 -->
<g id="edge11" class="edge">
<title>Node133&#45;&gt;Node135</title>
<path fill="none" stroke="#191970" d="M1165.4215,-57.1417C1185.287,-42.2298 1214.112,-23.6007 1243,-15.5 1306.3507,2.2645 1382.6195,-1.4827 1432.9395,-7.2046"/>
<polygon fill="#191970" stroke="#191970" points="1163.2643,-54.3853 1157.4822,-63.2633 1167.5386,-59.9288 1163.2643,-54.3853"/>
</g>
<!-- Node136 -->
<g id="node10" class="node">
<title>Node136</title>
<g id="a_node10"><a xlink:href="TooNetworking_8h.html#a085ff748b00f6be4ebafcae2bb0dded1" target="_top" xlink:title="TooNetworking_bufferlist\l_send_signed">
<polygon fill="#ffffff" stroke="#000000" points="1425,-101.5 1425,-131.5 1550,-131.5 1550,-101.5 1425,-101.5"/>
<text text-anchor="start" x="1433" y="-119.5" font-family="Helvetica,sans-Serif" font-size="10.00" fill="#000000">TooNetworking_bufferlist</text>
<text text-anchor="middle" x="1487.5" y="-108.5" font-family="Helvetica,sans-Serif" font-size="10.00" fill="#000000">_send_signed</text>
</a>
</g>
</g>
<!-- Node133&#45;&gt;Node136 -->
<g id="edge12" class="edge">
<title>Node133&#45;&gt;Node136</title>
<path fill="none" stroke="#191970" d="M1203.4495,-95.8859C1216.4532,-98.872 1230.1003,-101.6155 1243,-103.5 1304.4097,-112.4713 1375.2991,-115.438 1424.8816,-116.3312"/>
<polygon fill="#191970" stroke="#191970" points="1204.1915,-92.4648 1193.6539,-93.5652 1202.5777,-99.2763 1204.1915,-92.4648"/>
</g>
<!-- Node138 -->
<g id="node12" class="node">
<title>Node138</title>
<g id="a_node12"><a xlink:href="TooNetworking_8h.html#ab58e06e0eb6f2f8ecbebeaf3c173fb22" target="_top" xlink:title="TooNetworking_bufferlist\l_send_all">
<polygon fill="#ffffff" stroke="#000000" points="1253.5,-63.5 1253.5,-93.5 1378.5,-93.5 1378.5,-63.5 1253.5,-63.5"/>
<text text-anchor="start" x="1261.5" y="-81.5" font-family="Helvetica,sans-Serif" font-size="10.00" fill="#000000">TooNetworking_bufferlist</text>
<text text-anchor="middle" x="1316" y="-70.5" font-family="Helvetica,sans-Serif" font-size="10.00" fill="#000000">_send_all</text>
</a>
</g>
</g>
<!-- Node133&#45;&gt;Node138 -->
<g id="edge13" class="edge">
<title>Node133&#45;&gt;Node138</title>
<path fill="none" stroke="#191970" d="M1204.6736,-78.5C1220.6138,-78.5 1237.6343,-78.5 1253.4486,-78.5"/>
<polygon fill="#191970" stroke="#191970" points="1204.3782,-75.0001 1194.3782,-78.5 1204.3782,-82.0001 1204.3782,-75.0001"/>
</g>
<!-- Node134&#45;&gt;Node135 -->
<g id="edge8" class="edge">
<title>Node134&#45;&gt;Node135</title>
<path fill="none" stroke="#191970" d="M1399.2478,-25.2772C1410.6894,-24.0096 1422.1905,-22.7355 1432.9353,-21.5451"/>
<polygon fill="#191970" stroke="#191970" points="1398.7827,-21.8072 1389.2289,-26.3872 1399.5535,-28.7647 1398.7827,-21.8072"/>
</g>
<!-- Node134&#45;&gt;Node136 -->
<g id="edge9" class="edge">
<title>Node134&#45;&gt;Node136</title>
<path fill="none" stroke="#191970" d="M1369.1151,-47.0651C1375.9153,-49.2495 1382.6969,-51.726 1389,-54.5 1417.8513,-67.1977 1448.1168,-87.443 1467.3594,-101.3222"/>
<polygon fill="#191970" stroke="#191970" points="1369.7771,-43.6091 1359.1925,-44.073 1367.7562,-50.3111 1369.7771,-43.6091"/>
</g>
<!-- Node137 -->
<g id="node11" class="node">
<title>Node137</title>
<g id="a_node11"><a xlink:href="NODE__SKETCH__TooAutomation__Node_8ino_8cpp.html#a0b33edabd7f1c4e4a0bf32c67269be2f" target="_top" xlink:title="loop">
<polygon fill="#ffffff" stroke="#000000" points="1586,-129 1586,-148 1621,-148 1621,-129 1586,-129"/>
<text text-anchor="middle" x="1603.5" y="-136" font-family="Helvetica,sans-Serif" font-size="10.00" fill="#000000">loop</text>
</a>
</g>
</g>
<!-- Node136&#45;&gt;Node137 -->
<g id="edge10" class="edge">
<title>Node136&#45;&gt;Node137</title>
<path fill="none" stroke="#191970" d="M1560.2178,-130.2913C1569.6312,-132.0766 1578.4907,-133.7569 1585.7123,-135.1265"/>
<polygon fill="#191970" stroke="#191970" points="1560.7301,-126.8262 1550.2531,-128.4014 1559.4257,-133.7036 1560.7301,-126.8262"/>
</g>
<!-- Node140 -->
<g id="node14" class="node">
<title>Node140</title>
<g id="a_node14"><a xlink:href="TooNetworking_8h.html#a7382ba1aed5405c3adc02011ea6c45dd" target="_top" xlink:title="TooNetworking_connection\l_maintenance">
<polygon fill="#ffffff" stroke="#000000" points="1072,-128.5 1072,-158.5 1207,-158.5 1207,-128.5 1072,-128.5"/>
<text text-anchor="start" x="1080" y="-146.5" font-family="Helvetica,sans-Serif" font-size="10.00" fill="#000000">TooNetworking_connection</text>
<text text-anchor="middle" x="1139.5" y="-135.5" font-family="Helvetica,sans-Serif" font-size="10.00" fill="#000000">_maintenance</text>
</a>
</g>
</g>
<!-- Node139&#45;&gt;Node140 -->
<g id="edge15" class="edge">
<title>Node139&#45;&gt;Node140</title>
<path fill="none" stroke="#191970" d="M1044.587,-137.5679C1053.5862,-138.1304 1062.8465,-138.7092 1071.8902,-139.2744"/>
<polygon fill="#191970" stroke="#191970" points="1044.7618,-134.0721 1034.5629,-136.9414 1044.3251,-141.0585 1044.7618,-134.0721"/>
</g>
<!-- Node140&#45;&gt;Node137 -->
<g id="edge16" class="edge">
<title>Node140&#45;&gt;Node137</title>
<path fill="none" stroke="#191970" d="M1217.1278,-144.303C1299.6888,-144.8805 1434.0908,-145.0298 1550,-141.5 1561.902,-141.1375 1575.277,-140.3875 1585.6765,-139.7282"/>
<polygon fill="#191970" stroke="#191970" points="1217.0984,-140.8028 1207.0728,-144.2287 1217.0466,-147.8026 1217.0984,-140.8028"/>
</g>
<!-- Node141&#45;&gt;Node139 -->
<g id="edge20" class="edge">
<title>Node141&#45;&gt;Node139</title>
<path fill="none" stroke="#191970" d="M897.0697,-123.5875C906.2707,-124.6939 915.534,-125.8079 924.3589,-126.8691"/>
<polygon fill="#191970" stroke="#191970" points="897.48,-120.1117 887.1336,-122.3926 896.6442,-127.0616 897.48,-120.1117"/>
</g>
<!-- Node142 -->
<g id="node16" class="node">
<title>Node142</title>
<g id="a_node16"><a xlink:href="TooSigning_8h.html#ab8a2415b95a77c91ffbc6ebbde622f64" target="_top" xlink:title="TooSigning_get_hmac">
<polygon fill="#ffffff" stroke="#000000" points="923,-80 923,-99 1036,-99 1036,-80 923,-80"/>
<text text-anchor="middle" x="979.5" y="-87" font-family="Helvetica,sans-Serif" font-size="10.00" fill="#000000">TooSigning_get_hmac</text>
</a>
</g>
</g>
<!-- Node141&#45;&gt;Node142 -->
<g id="edge18" class="edge">
<title>Node141&#45;&gt;Node142</title>
<path fill="none" stroke="#191970" d="M891.6179,-103.4054C902.0719,-101.7513 912.736,-100.0639 922.8655,-98.4612"/>
<polygon fill="#191970" stroke="#191970" points="891.0139,-99.9573 881.6838,-104.9773 892.1079,-106.8713 891.0139,-99.9573"/>
</g>
<!-- Node142&#45;&gt;Node133 -->
<g id="edge19" class="edge">
<title>Node142&#45;&gt;Node133</title>
<path fill="none" stroke="#191970" d="M1046.5144,-84.8928C1059.33,-84.0117 1072.6024,-83.0992 1084.9684,-82.249"/>
<polygon fill="#191970" stroke="#191970" points="1046.0969,-81.4131 1036.3605,-85.5908 1046.5771,-88.3966 1046.0969,-81.4131"/>
</g>
<!-- Node143&#45;&gt;Node133 -->
<g id="edge22" class="edge">
<title>Node143&#45;&gt;Node133</title>
<path fill="none" stroke="#191970" d="M865.5262,-164.3107C910.4152,-173.985 981.0693,-182.5504 1036,-158.5 1057.6087,-149.039 1053.7413,-134.4354 1072,-119.5 1083.8864,-109.7771 1098.2921,-100.7141 1110.7376,-93.5945"/>
<polygon fill="#191970" stroke="#191970" points="866.0512,-160.841 855.525,-162.0447 864.5043,-167.668 866.0512,-160.841"/>
</g>
<!-- Node143&#45;&gt;Node139 -->
<g id="edge23" class="edge">
<title>Node143&#45;&gt;Node139</title>
<path fill="none" stroke="#191970" d="M889.8716,-144.2781C901.3541,-142.8973 913.1417,-141.4798 924.2401,-140.1452"/>
<polygon fill="#191970" stroke="#191970" points="889.395,-140.8101 879.8845,-145.4791 890.2308,-147.76 889.395,-140.8101"/>
</g>
<!-- Node145 -->
<g id="node19" class="node">
<title>Node145</title>
<g id="a_node19"><a xlink:href="classSha256Class.html#a0ca245a22f8b056a3d1902da3c64b705" target="_top" xlink:title="Sha256Class::result">
<polygon fill="#ffffff" stroke="#000000" points="615,-67 615,-86 720,-86 720,-67 615,-67"/>
<text text-anchor="middle" x="667.5" y="-74" font-family="Helvetica,sans-Serif" font-size="10.00" fill="#000000">Sha256Class::result</text>
</a>
</g>
</g>
<!-- Node144&#45;&gt;Node145 -->
<g id="edge25" class="edge">
<title>Node144&#45;&gt;Node145</title>
<path fill="none" stroke="#191970" d="M589.3612,-76.5C597.8127,-76.5 606.4639,-76.5 614.7863,-76.5"/>
<polygon fill="#191970" stroke="#191970" points="589.1869,-73.0001 579.1868,-76.5 589.1868,-80.0001 589.1869,-73.0001"/>
</g>
<!-- Node145&#45;&gt;Node131 -->
<g id="edge26" class="edge">
<title>Node145&#45;&gt;Node131</title>
<path fill="none" stroke="#191970" d="M730.2416,-76.5C740.5627,-76.5 751.2379,-76.5 761.4902,-76.5"/>
<polygon fill="#191970" stroke="#191970" points="730.0674,-73.0001 720.0673,-76.5 730.0673,-80.0001 730.0674,-73.0001"/>
</g>
<!-- Node145&#45;&gt;Node141 -->
<g id="edge27" class="edge">
<title>Node145&#45;&gt;Node141</title>
<path fill="none" stroke="#191970" d="M716.2937,-88.54C737.8082,-93.8488 762.7318,-99.9988 782.9187,-104.9799"/>
<polygon fill="#191970" stroke="#191970" points="716.908,-85.0867 706.3607,-86.089 715.231,-91.8828 716.908,-85.0867"/>
</g>
</g>
</svg>
        <g id="navigator" transform="translate(0 0)" fill="#404254">
                <rect fill="#f2f5e9" fill-opacity="0.5" stroke="#606060" stroke-width=".5" x="0" y="0" width="60" height="60"/>
                <use id="zoomplus" xlink:href="#zoomPlus" x="17" y="9" onmousedown="handleZoom(evt,'in')"/>
                <use id="zoomminus" xlink:href="#zoomMin" x="42" y="9" onmousedown="handleZoom(evt,'out')"/>
                <use id="reset" xlink:href="#resetDef" x="30" y="36" onmousedown="handleReset()"/>
                <g id="arrowUp" xlink:href="#dirArrow" transform="translate(30 24)" onmousedown="handlePan(0,-1)">
                  <use xlink:href="#rim" fill="#404040">
                        <set attributeName="fill" to="#808080" begin="arrowUp.mouseover" end="arrowUp.mouseout"/>
                  </use>
                  <path fill="none" stroke="white" stroke-width="1.5" d="M0,-3.0v7 M-2.5,-0.5L0,-3.0L2.5,-0.5"/>
                </g>
                <g id="arrowRight" xlink:href="#dirArrow" transform="rotate(90) translate(36 -43)" onmousedown="handlePan(1,0)">
                  <use xlink:href="#rim" fill="#404040">
                        <set attributeName="fill" to="#808080" begin="arrowRight.mouseover" end="arrowRight.mouseout"/>
                  </use>
                  <path fill="none" stroke="white" stroke-width="1.5" d="M0,-3.0v7 M-2.5,-0.5L0,-3.0L2.5,-0.5"/>
                </g>
                <g id="arrowDown" xlink:href="#dirArrow" transform="rotate(180) translate(-30 -48)" onmousedown="handlePan(0,1)">
                  <use xlink:href="#rim" fill="#404040">
                        <set attributeName="fill" to="#808080" begin="arrowDown.mouseover" end="arrowDown.mouseout"/>
                  </use>
                  <path fill="none" stroke="white" stroke-width="1.5" d="M0,-3.0v7 M-2.5,-0.5L0,-3.0L2.5,-0.5"/>
                </g>
                <g id="arrowLeft" xlink:href="#dirArrow" transform="rotate(270) translate(-36 17)" onmousedown="handlePan(-1,0)">
                  <use xlink:href="#rim" fill="#404040">
                        <set attributeName="fill" to="#808080" begin="arrowLeft.mouseover" end="arrowLeft.mouseout"/>
                  </use>
                  <path fill="none" stroke="white" stroke-width="1.5" d="M0,-3.0v7 M-2.5,-0.5L0,-3.0L2.5,-0.5"/>
                </g>
        </g>
        <svg viewBox="0 0 15 15" width="100%" height="30px" preserveAspectRatio="xMaxYMin meet">
         <g id="arrow_out" transform="scale(0.3 0.3)">
          <a xlink:href="classSha256Class_ae275718ce9813bb33b2d8d8fbf018bd6_icgraph_org.svg" target="_base">
           <rect id="button" ry="5" rx="5" y="6" x="6" height="38" width="38"
                fill="#f2f5e9" fill-opacity="0.5" stroke="#606060" stroke-width="1.0"/>
           <path id="arrow"
             d="M 11.500037,31.436501 C 11.940474,20.09759 22.043105,11.32322 32.158766,21.979434 L 37.068811,17.246167 C 37.068811,17.246167 37.088388,32 37.088388,32 L 22.160133,31.978069 C 22.160133,31.978069 26.997745,27.140456 26.997745,27.140456 C 18.528582,18.264221 13.291696,25.230495 11.500037,31.436501 z"
             style="fill:#404040;"/>
          </a>
         </g>
        </svg>
</svg>
