<?xml version="1.0" encoding="UTF-8" standalone="no"?>
<!DOCTYPE svg PUBLIC "-//W3C//DTD SVG 1.1//EN"
 "http://www.w3.org/Graphics/SVG/1.1/DTD/svg11.dtd">
<!-- Generated by graphviz version 2.40.1 (20161225.0304)
 -->
<!-- Title: ATSHA204Class::sha204c_wakeup Pages: 1 -->
<!--zoomable 112 -->
<svg id="main" version="1.1" xmlns="http://www.w3.org/2000/svg" xmlns:xlink="http://www.w3.org/1999/xlink" xml:space="preserve" onload="init(evt)">
<style type="text/css"><![CDATA[
.edge:hover path { stroke: red; }
.edge:hover polygon { stroke: red; fill: red; }
]]></style>
<script type="text/javascript"><![CDATA[
var edges = document.getElementsByTagName('g');
if (edges && edges.length) {
  for (var i=0;i<edges.length;i++) {
    if (edges[i].id.substr(0,4)=='edge') {
      edges[i].setAttribute('class','edge');
    }
  }
}
]]></script>
        <defs>
                <circle id="rim" cx="0" cy="0" r="7"/>
                <circle id="rim2" cx="0" cy="0" r="3.5"/>
                <g id="zoomPlus">
                        <use xlink:href="#rim" fill="#404040">
                                <set attributeName="fill" to="#808080" begin="zoomplus.mouseover" end="zoomplus.mouseout"/>
                        </use>
                        <path d="M-4,0h8M0,-4v8" fill="none" stroke="white" stroke-width="1.5" pointer-events="none"/>
                </g>
                <g id="zoomMin">
                        <use xlink:href="#rim" fill="#404040">
                                <set attributeName="fill" to="#808080" begin="zoomminus.mouseover" end="zoomminus.mouseout"/>
                        </use>
                        <path d="M-4,0h8" fill="none" stroke="white" stroke-width="1.5" pointer-events="none"/>
                </g>
                <g id="dirArrow">
                        <path fill="none" stroke="white" stroke-width="1.5" d="M0,-3.0v7 M-2.5,-0.5L0,-3.0L2.5,-0.5"/>
                </g>
               <g id="resetDef">
                       <use xlink:href="#rim2" fill="#404040">
                               <set attributeName="fill" to="#808080" begin="reset.mouseover" end="reset.mouseout"/>
                       </use>
               </g>
        </defs>

<script type="text/javascript">
var viewWidth = 610;
var viewHeight = 112;
var sectionId = 'dynsection-10';
</script>
<script xlink:href="svgpan.js"/>
<svg id="graph" class="graph">
<g id="viewport">
<title>ATSHA204Class::sha204c_wakeup</title>
<polygon fill="#ffffff" stroke="transparent" points="-4,4 -4,-108 606,-108 606,4 -4,4"/>
<!-- Node67 -->
<g id="node1" class="node">
<title>Node67</title>
<polygon fill="#bfbfbf" stroke="#000000" points="0,-48.5 0,-78.5 134,-78.5 134,-48.5 0,-48.5"/>
<text text-anchor="start" x="8" y="-66.5" font-family="Helvetica,sans-Serif" font-size="10.00" fill="#000000">ATSHA204Class::sha204c</text>
<text text-anchor="middle" x="67" y="-55.5" font-family="Helvetica,sans-Serif" font-size="10.00" fill="#000000">_wakeup</text>
</g>
<!-- Node68 -->
<g id="node2" class="node">
<title>Node68</title>
<g id="a_node2"><a xlink:href="classATSHA204Class.html#a2d69316e4670b7fd17a1e2b6231191ff" target="_top" xlink:title="ATSHA204Class::swi\l_set_signal_pin">
<polygon fill="#ffffff" stroke="#000000" points="180.5,-73.5 180.5,-103.5 293.5,-103.5 293.5,-73.5 180.5,-73.5"/>
<text text-anchor="start" x="188.5" y="-91.5" font-family="Helvetica,sans-Serif" font-size="10.00" fill="#000000">ATSHA204Class::swi</text>
<text text-anchor="middle" x="237" y="-80.5" font-family="Helvetica,sans-Serif" font-size="10.00" fill="#000000">_set_signal_pin</text>
</a>
</g>
</g>
<!-- Node67&#45;&gt;Node68 -->
<g id="edge1" class="edge">
<title>Node67&#45;&gt;Node68</title>
<path fill="none" stroke="#191970" d="M134.1885,-73.3807C146.0325,-75.1224 158.3595,-76.9352 170.1929,-78.6754"/>
<polygon fill="#191970" stroke="#191970" points="170.0376,-82.1902 180.4404,-80.1824 171.0561,-75.2646 170.0376,-82.1902"/>
</g>
<!-- Node69 -->
<g id="node3" class="node">
<title>Node69</title>
<g id="a_node3"><a xlink:href="classATSHA204Class.html#ae5c777e2388de999d13afef7008a36a7" target="_top" xlink:title="ATSHA204Class::sha204p\l_receive_response">
<polygon fill="#ffffff" stroke="#000000" points="170,-24.5 170,-54.5 304,-54.5 304,-24.5 170,-24.5"/>
<text text-anchor="start" x="178" y="-42.5" font-family="Helvetica,sans-Serif" font-size="10.00" fill="#000000">ATSHA204Class::sha204p</text>
<text text-anchor="middle" x="237" y="-31.5" font-family="Helvetica,sans-Serif" font-size="10.00" fill="#000000">_receive_response</text>
</a>
</g>
</g>
<!-- Node67&#45;&gt;Node69 -->
<g id="edge2" class="edge">
<title>Node67&#45;&gt;Node69</title>
<path fill="none" stroke="#191970" d="M134.1885,-54.0146C142.5935,-52.828 151.2417,-51.6071 159.7842,-50.4011"/>
<polygon fill="#191970" stroke="#191970" points="160.3303,-53.8588 169.7428,-48.9951 159.3517,-46.9275 160.3303,-53.8588"/>
</g>
<!-- Node70 -->
<g id="node4" class="node">
<title>Node70</title>
<g id="a_node4"><a xlink:href="classATSHA204Class.html#abe55ac783f1a37777bd09b7fc369ebc9" target="_top" xlink:title="ATSHA204Class::swi\l_send_byte">
<polygon fill="#ffffff" stroke="#000000" points="340,-49.5 340,-79.5 453,-79.5 453,-49.5 340,-49.5"/>
<text text-anchor="start" x="348" y="-67.5" font-family="Helvetica,sans-Serif" font-size="10.00" fill="#000000">ATSHA204Class::swi</text>
<text text-anchor="middle" x="396.5" y="-56.5" font-family="Helvetica,sans-Serif" font-size="10.00" fill="#000000">_send_byte</text>
</a>
</g>
</g>
<!-- Node69&#45;&gt;Node70 -->
<g id="edge3" class="edge">
<title>Node69&#45;&gt;Node70</title>
<path fill="none" stroke="#191970" d="M304.1801,-50.0298C312.747,-51.3726 321.5124,-52.7465 330.0675,-54.0874"/>
<polygon fill="#191970" stroke="#191970" points="329.5678,-57.5517 339.9892,-55.6425 330.6518,-50.6361 329.5678,-57.5517"/>
</g>
<!-- Node72 -->
<g id="node6" class="node">
<title>Node72</title>
<g id="a_node6"><a xlink:href="classATSHA204Class.html#ae81c8e3063da186b698d31bad70e543b" target="_top" xlink:title="ATSHA204Class::swi\l_receive_bytes">
<polygon fill="#ffffff" stroke="#000000" points="340,-.5 340,-30.5 453,-30.5 453,-.5 340,-.5"/>
<text text-anchor="start" x="348" y="-18.5" font-family="Helvetica,sans-Serif" font-size="10.00" fill="#000000">ATSHA204Class::swi</text>
<text text-anchor="middle" x="396.5" y="-7.5" font-family="Helvetica,sans-Serif" font-size="10.00" fill="#000000">_receive_bytes</text>
</a>
</g>
</g>
<!-- Node69&#45;&gt;Node72 -->
<g id="edge5" class="edge">
<title>Node69&#45;&gt;Node72</title>
<path fill="none" stroke="#191970" d="M304.1801,-29.3914C312.747,-28.1023 321.5124,-26.7834 330.0675,-25.4961"/>
<polygon fill="#191970" stroke="#191970" points="330.6213,-28.9523 339.9892,-24.0032 329.5797,-22.0302 330.6213,-28.9523"/>
</g>
<!-- Node71 -->
<g id="node5" class="node">
<title>Node71</title>
<g id="a_node5"><a xlink:href="classATSHA204Class.html#a0f8c2167d152bbe670d1b1187d7b2897" target="_top" xlink:title="ATSHA204Class::swi\l_send_bytes">
<polygon fill="#ffffff" stroke="#000000" points="489,-49.5 489,-79.5 602,-79.5 602,-49.5 489,-49.5"/>
<text text-anchor="start" x="497" y="-67.5" font-family="Helvetica,sans-Serif" font-size="10.00" fill="#000000">ATSHA204Class::swi</text>
<text text-anchor="middle" x="545.5" y="-56.5" font-family="Helvetica,sans-Serif" font-size="10.00" fill="#000000">_send_bytes</text>
</a>
</g>
</g>
<!-- Node70&#45;&gt;Node71 -->
<g id="edge4" class="edge">
<title>Node70&#45;&gt;Node71</title>
<path fill="none" stroke="#191970" d="M453.2556,-64.5C461.558,-64.5 470.1727,-64.5 478.6536,-64.5"/>
<polygon fill="#191970" stroke="#191970" points="478.9023,-68.0001 488.9022,-64.5 478.9022,-61.0001 478.9023,-68.0001"/>
</g>
</g>
</svg>
        <g id="navigator" transform="translate(0 0)" fill="#404254">
                <rect fill="#f2f5e9" fill-opacity="0.5" stroke="#606060" stroke-width=".5" x="0" y="0" width="60" height="60"/>
                <use id="zoomplus" xlink:href="#zoomPlus" x="17" y="9" onmousedown="handleZoom(evt,'in')"/>
                <use id="zoomminus" xlink:href="#zoomMin" x="42" y="9" onmousedown="handleZoom(evt,'out')"/>
                <use id="reset" xlink:href="#resetDef" x="30" y="36" onmousedown="handleReset()"/>
                <g id="arrowUp" xlink:href="#dirArrow" transform="translate(30 24)" onmousedown="handlePan(0,-1)">
                  <use xlink:href="#rim" fill="#404040">
                        <set attributeName="fill" to="#808080" begin="arrowUp.mouseover" end="arrowUp.mouseout"/>
                  </use>
                  <path fill="none" stroke="white" stroke-width="1.5" d="M0,-3.0v7 M-2.5,-0.5L0,-3.0L2.5,-0.5"/>
                </g>
                <g id="arrowRight" xlink:href="#dirArrow" transform="rotate(90) translate(36 -43)" onmousedown="handlePan(1,0)">
                  <use xlink:href="#rim" fill="#404040">
                        <set attributeName="fill" to="#808080" begin="arrowRight.mouseover" end="arrowRight.mouseout"/>
                  </use>
                  <path fill="none" stroke="white" stroke-width="1.5" d="M0,-3.0v7 M-2.5,-0.5L0,-3.0L2.5,-0.5"/>
                </g>
                <g id="arrowDown" xlink:href="#dirArrow" transform="rotate(180) translate(-30 -48)" onmousedown="handlePan(0,1)">
                  <use xlink:href="#rim" fill="#404040">
                        <set attributeName="fill" to="#808080" begin="arrowDown.mouseover" end="arrowDown.mouseout"/>
                  </use>
                  <path fill="none" stroke="white" stroke-width="1.5" d="M0,-3.0v7 M-2.5,-0.5L0,-3.0L2.5,-0.5"/>
                </g>
                <g id="arrowLeft" xlink:href="#dirArrow" transform="rotate(270) translate(-36 17)" onmousedown="handlePan(-1,0)">
                  <use xlink:href="#rim" fill="#404040">
                        <set attributeName="fill" to="#808080" begin="arrowLeft.mouseover" end="arrowLeft.mouseout"/>
                  </use>
                  <path fill="none" stroke="white" stroke-width="1.5" d="M0,-3.0v7 M-2.5,-0.5L0,-3.0L2.5,-0.5"/>
                </g>
        </g>
        <svg viewBox="0 0 15 15" width="100%" height="30px" preserveAspectRatio="xMaxYMin meet">
         <g id="arrow_out" transform="scale(0.3 0.3)">
          <a xlink:href="classATSHA204Class_a2772385d612dee11f65c310334d7952b_cgraph_org.svg" target="_base">
           <rect id="button" ry="5" rx="5" y="6" x="6" height="38" width="38"
                fill="#f2f5e9" fill-opacity="0.5" stroke="#606060" stroke-width="1.0"/>
           <path id="arrow"
             d="M 11.500037,31.436501 C 11.940474,20.09759 22.043105,11.32322 32.158766,21.979434 L 37.068811,17.246167 C 37.068811,17.246167 37.088388,32 37.088388,32 L 22.160133,31.978069 C 22.160133,31.978069 26.997745,27.140456 26.997745,27.140456 C 18.528582,18.264221 13.291696,25.230495 11.500037,31.436501 z"
             style="fill:#404040;"/>
          </a>
         </g>
        </svg>
</svg>
