<?xml version="1.0" encoding="UTF-8" standalone="no"?>
<!DOCTYPE svg PUBLIC "-//W3C//DTD SVG 1.1//EN"
 "http://www.w3.org/Graphics/SVG/1.1/DTD/svg11.dtd">
<!-- Generated by graphviz version 2.40.1 (20161225.0304)
 -->
<!-- Title: Sha256Class::init Pages: 1 -->
<svg width="818pt" height="154pt"
 viewBox="0.00 0.00 818.00 154.00" xmlns="http://www.w3.org/2000/svg" xmlns:xlink="http://www.w3.org/1999/xlink">
<g id="graph0" class="graph" transform="scale(1 1) rotate(0) translate(4 150)">
<title>Sha256Class::init</title>
<polygon fill="#ffffff" stroke="transparent" points="-4,4 -4,-150 814,-150 814,4 -4,4"/>
<!-- Node35 -->
<g id="node1" class="node">
<title>Node35</title>
<polygon fill="#bfbfbf" stroke="#000000" points="0,-30 0,-49 94,-49 94,-30 0,-30"/>
<text text-anchor="middle" x="47" y="-37" font-family="Helvetica,sans-Serif" font-size="10.00" fill="#000000">Sha256Class::init</text>
</g>
<!-- Node36 -->
<g id="node2" class="node">
<title>Node36</title>
<g id="a_node2"><a xlink:href="classSha256Class.html#a73d3dcea6eb667fd146d12aa5d106939" target="_top" xlink:title="Sha256Class::initHmac">
<polygon fill="#ffffff" stroke="#000000" points="135.5,-49 135.5,-68 255.5,-68 255.5,-49 135.5,-49"/>
<text text-anchor="middle" x="195.5" y="-56" font-family="Helvetica,sans-Serif" font-size="10.00" fill="#000000">Sha256Class::initHmac</text>
</a>
</g>
</g>
<!-- Node35&#45;&gt;Node36 -->
<g id="edge1" class="edge">
<title>Node35&#45;&gt;Node36</title>
<path fill="none" stroke="#191970" d="M104.3424,-46.8367C114.4678,-48.1322 125.0362,-49.4844 135.239,-50.7898"/>
<polygon fill="#191970" stroke="#191970" points="104.758,-43.3615 94.3946,-45.564 103.8695,-50.3049 104.758,-43.3615"/>
</g>
<!-- Node44 -->
<g id="node10" class="node">
<title>Node44</title>
<g id="a_node10"><a xlink:href="classSha256Class.html#a7556f29cadf7eaca21a537df41318af3" target="_top" xlink:title="Sha256Class::resultHmac">
<polygon fill="#ffffff" stroke="#000000" points="130,-11 130,-30 261,-30 261,-11 130,-11"/>
<text text-anchor="middle" x="195.5" y="-18" font-family="Helvetica,sans-Serif" font-size="10.00" fill="#000000">Sha256Class::resultHmac</text>
</a>
</g>
</g>
<!-- Node35&#45;&gt;Node44 -->
<g id="edge11" class="edge">
<title>Node35&#45;&gt;Node44</title>
<path fill="none" stroke="#191970" d="M104.3941,-32.1566C112.7387,-31.089 121.3832,-29.983 129.8752,-28.8964"/>
<polygon fill="#191970" stroke="#191970" points="103.8695,-28.6951 94.3946,-33.436 104.758,-35.6385 103.8695,-28.6951"/>
</g>
<!-- Node37 -->
<g id="node3" class="node">
<title>Node37</title>
<g id="a_node3"><a xlink:href="TooNetworking_8h.html#a9f893c3218491ee86282fdcd9f376500" target="_top" xlink:title="TooNetworking_send\l_signed_">
<polygon fill="#ffffff" stroke="#000000" points="297.5,-49.5 297.5,-79.5 406.5,-79.5 406.5,-49.5 297.5,-49.5"/>
<text text-anchor="start" x="305.5" y="-67.5" font-family="Helvetica,sans-Serif" font-size="10.00" fill="#000000">TooNetworking_send</text>
<text text-anchor="middle" x="352" y="-56.5" font-family="Helvetica,sans-Serif" font-size="10.00" fill="#000000">_signed_</text>
</a>
</g>
</g>
<!-- Node36&#45;&gt;Node37 -->
<g id="edge2" class="edge">
<title>Node36&#45;&gt;Node37</title>
<path fill="none" stroke="#191970" d="M265.6943,-61.1912C276.3568,-61.5999 287.221,-62.0165 297.4836,-62.4099"/>
<polygon fill="#191970" stroke="#191970" points="265.6862,-57.6884 255.5594,-60.8026 265.4179,-64.6832 265.6862,-57.6884"/>
</g>
<!-- Node43 -->
<g id="node9" class="node">
<title>Node43</title>
<g id="a_node9"><a xlink:href="TooSigning_8cpp.html#a03df9fd005c518d1114f912ae7da9f06" target="_top" xlink:title="TooSigning_unsigned\l_network_available">
<polygon fill="#ffffff" stroke="#000000" points="297,-.5 297,-30.5 407,-30.5 407,-.5 297,-.5"/>
<text text-anchor="start" x="305" y="-18.5" font-family="Helvetica,sans-Serif" font-size="10.00" fill="#000000">TooSigning_unsigned</text>
<text text-anchor="middle" x="352" y="-7.5" font-family="Helvetica,sans-Serif" font-size="10.00" fill="#000000">_network_available</text>
</a>
</g>
</g>
<!-- Node36&#45;&gt;Node43 -->
<g id="edge9" class="edge">
<title>Node36&#45;&gt;Node43</title>
<path fill="none" stroke="#191970" d="M240.3392,-46.18C258.1228,-41.2937 278.741,-35.6287 297.3841,-30.5063"/>
<polygon fill="#191970" stroke="#191970" points="238.9477,-42.9325 230.2324,-48.9569 240.8024,-49.6823 238.9477,-42.9325"/>
</g>
<!-- Node38 -->
<g id="node4" class="node">
<title>Node38</title>
<g id="a_node4"><a xlink:href="TooNetworking_8h.html#a9209f3e1a2fdf0b3b88d49105b8fc359" target="_top" xlink:title="TooNetworking_send\l_signed">
<polygon fill="#ffffff" stroke="#000000" points="451,-22.5 451,-52.5 560,-52.5 560,-22.5 451,-22.5"/>
<text text-anchor="start" x="459" y="-40.5" font-family="Helvetica,sans-Serif" font-size="10.00" fill="#000000">TooNetworking_send</text>
<text text-anchor="middle" x="505.5" y="-29.5" font-family="Helvetica,sans-Serif" font-size="10.00" fill="#000000">_signed</text>
</a>
</g>
</g>
<!-- Node37&#45;&gt;Node38 -->
<g id="edge3" class="edge">
<title>Node37&#45;&gt;Node38</title>
<path fill="none" stroke="#191970" d="M416.4808,-53.1581C427.9202,-51.146 439.7329,-49.0682 450.8666,-47.1098"/>
<polygon fill="#191970" stroke="#191970" points="415.793,-49.7253 406.5506,-54.9048 417.0057,-56.6194 415.793,-49.7253"/>
</g>
<!-- Node39 -->
<g id="node5" class="node">
<title>Node39</title>
<g id="a_node5"><a xlink:href="TooNetworking_8h.html#a085ff748b00f6be4ebafcae2bb0dded1" target="_top" xlink:title="TooNetworking_bufferlist\l_send_signed">
<polygon fill="#ffffff" stroke="#000000" points="609,-115.5 609,-145.5 734,-145.5 734,-115.5 609,-115.5"/>
<text text-anchor="start" x="617" y="-133.5" font-family="Helvetica,sans-Serif" font-size="10.00" fill="#000000">TooNetworking_bufferlist</text>
<text text-anchor="middle" x="671.5" y="-122.5" font-family="Helvetica,sans-Serif" font-size="10.00" fill="#000000">_send_signed</text>
</a>
</g>
</g>
<!-- Node37&#45;&gt;Node39 -->
<g id="edge4" class="edge">
<title>Node37&#45;&gt;Node39</title>
<path fill="none" stroke="#191970" d="M383.7682,-84.8468C400.6836,-94.6426 422.2361,-105.5325 443,-111.5 497.5182,-127.1683 562.1428,-131.2805 608.7301,-131.847"/>
<polygon fill="#191970" stroke="#191970" points="385.265,-81.6646 374.8822,-79.5555 381.6836,-87.6791 385.265,-81.6646"/>
</g>
<!-- Node41 -->
<g id="node7" class="node">
<title>Node41</title>
<g id="a_node7"><a xlink:href="TooNetworking_8h.html#ab58e06e0eb6f2f8ecbebeaf3c173fb22" target="_top" xlink:title="TooNetworking_bufferlist\l_send_all">
<polygon fill="#ffffff" stroke="#000000" points="443,-71.5 443,-101.5 568,-101.5 568,-71.5 443,-71.5"/>
<text text-anchor="start" x="451" y="-89.5" font-family="Helvetica,sans-Serif" font-size="10.00" fill="#000000">TooNetworking_bufferlist</text>
<text text-anchor="middle" x="505.5" y="-78.5" font-family="Helvetica,sans-Serif" font-size="10.00" fill="#000000">_send_all</text>
</a>
</g>
</g>
<!-- Node37&#45;&gt;Node41 -->
<g id="edge6" class="edge">
<title>Node37&#45;&gt;Node41</title>
<path fill="none" stroke="#191970" d="M416.5908,-73.7573C425.2498,-74.9983 434.1207,-76.2697 442.7474,-77.5061"/>
<polygon fill="#191970" stroke="#191970" points="416.946,-70.2725 406.5506,-72.3183 415.9528,-77.2017 416.946,-70.2725"/>
</g>
<!-- Node40 -->
<g id="node6" class="node">
<title>Node40</title>
<g id="a_node6"><a xlink:href="NODE__SKETCH__TooAutomation__Node_8ino_8cpp.html#a0b33edabd7f1c4e4a0bf32c67269be2f" target="_top" xlink:title="loop">
<polygon fill="#ffffff" stroke="#000000" points="775,-96 775,-115 810,-115 810,-96 775,-96"/>
<text text-anchor="middle" x="792.5" y="-103" font-family="Helvetica,sans-Serif" font-size="10.00" fill="#000000">loop</text>
</a>
</g>
</g>
<!-- Node39&#45;&gt;Node40 -->
<g id="edge5" class="edge">
<title>Node39&#45;&gt;Node40</title>
<path fill="none" stroke="#191970" d="M744.2474,-115.4695C755.636,-113.1165 766.4203,-110.8884 774.8934,-109.1377"/>
<polygon fill="#191970" stroke="#191970" points="743.2115,-112.1096 734.1266,-117.5606 744.6279,-118.9648 743.2115,-112.1096"/>
</g>
<!-- Node42 -->
<g id="node8" class="node">
<title>Node42</title>
<g id="a_node8"><a xlink:href="TooNetworking_8h.html#a7382ba1aed5405c3adc02011ea6c45dd" target="_top" xlink:title="TooNetworking_connection\l_maintenance">
<polygon fill="#ffffff" stroke="#000000" points="604,-66.5 604,-96.5 739,-96.5 739,-66.5 604,-66.5"/>
<text text-anchor="start" x="612" y="-84.5" font-family="Helvetica,sans-Serif" font-size="10.00" fill="#000000">TooNetworking_connection</text>
<text text-anchor="middle" x="671.5" y="-73.5" font-family="Helvetica,sans-Serif" font-size="10.00" fill="#000000">_maintenance</text>
</a>
</g>
</g>
<!-- Node41&#45;&gt;Node42 -->
<g id="edge7" class="edge">
<title>Node41&#45;&gt;Node42</title>
<path fill="none" stroke="#191970" d="M578.4873,-84.3016C586.951,-84.0467 595.5556,-83.7875 603.9422,-83.5349"/>
<polygon fill="#191970" stroke="#191970" points="578.1475,-80.8101 568.2575,-84.6097 578.3584,-87.807 578.1475,-80.8101"/>
</g>
<!-- Node42&#45;&gt;Node40 -->
<g id="edge8" class="edge">
<title>Node42&#45;&gt;Node40</title>
<path fill="none" stroke="#191970" d="M749.1566,-96.903C758.6588,-98.7877 767.5454,-100.5503 774.7679,-101.9829"/>
<polygon fill="#191970" stroke="#191970" points="749.5653,-93.4159 739.0754,-94.9034 748.2034,-100.2822 749.5653,-93.4159"/>
</g>
<!-- Node43&#45;&gt;Node42 -->
<g id="edge10" class="edge">
<title>Node43&#45;&gt;Node42</title>
<path fill="none" stroke="#191970" d="M417.6231,-4.4072C461.1972,.5076 519.1514,2.2902 568,-12.5 602.7241,-23.0136 636.4466,-49.4439 655.5276,-66.3724"/>
<polygon fill="#191970" stroke="#191970" points="416.9386,-.9645 407.4326,-5.6427 417.7812,-7.9136 416.9386,-.9645"/>
</g>
<!-- Node44&#45;&gt;Node37 -->
<g id="edge12" class="edge">
<title>Node44&#45;&gt;Node37</title>
<path fill="none" stroke="#191970" d="M239.2907,-32.8118C257.6355,-37.9694 279.1377,-44.0148 298.4152,-49.4346"/>
<polygon fill="#191970" stroke="#191970" points="240.0323,-29.3846 229.4582,-30.0473 238.1376,-36.1233 240.0323,-29.3846"/>
</g>
<!-- Node44&#45;&gt;Node43 -->
<g id="edge13" class="edge">
<title>Node44&#45;&gt;Node43</title>
<path fill="none" stroke="#191970" d="M271.6267,-18.0678C280.0319,-17.7993 288.4698,-17.5297 296.5521,-17.2715"/>
<polygon fill="#191970" stroke="#191970" points="271.2996,-14.5764 261.4165,-18.394 271.5232,-21.5728 271.2996,-14.5764"/>
</g>
</g>
</svg>
