<?xml version="1.0" encoding="UTF-8" standalone="no"?>
<!DOCTYPE svg PUBLIC "-//W3C//DTD SVG 1.1//EN"
 "http://www.w3.org/Graphics/SVG/1.1/DTD/svg11.dtd">
<!-- Generated by graphviz version 2.40.1 (20161225.0304)
 -->
<!-- Title: Sha256Class::pad Pages: 1 -->
<svg width="804pt" height="122pt"
 viewBox="0.00 0.00 804.00 121.50" xmlns="http://www.w3.org/2000/svg" xmlns:xlink="http://www.w3.org/1999/xlink">
<g id="graph0" class="graph" transform="scale(1 1) rotate(0) translate(4 117.5)">
<title>Sha256Class::pad</title>
<polygon fill="#ffffff" stroke="transparent" points="-4,4 -4,-117.5 800,-117.5 800,4 -4,4"/>
<!-- Node60 -->
<g id="node1" class="node">
<title>Node60</title>
<polygon fill="#bfbfbf" stroke="#000000" points="0,-50 0,-69 97,-69 97,-50 0,-50"/>
<text text-anchor="middle" x="48.5" y="-57" font-family="Helvetica,sans-Serif" font-size="10.00" fill="#000000">Sha256Class::pad</text>
</g>
<!-- Node61 -->
<g id="node2" class="node">
<title>Node61</title>
<g id="a_node2"><a xlink:href="classSha256Class.html#a0ca245a22f8b056a3d1902da3c64b705" target="_top" xlink:title="Sha256Class::result">
<polygon fill="#ffffff" stroke="#000000" points="133,-50 133,-69 238,-69 238,-50 133,-50"/>
<text text-anchor="middle" x="185.5" y="-57" font-family="Helvetica,sans-Serif" font-size="10.00" fill="#000000">Sha256Class::result</text>
</a>
</g>
</g>
<!-- Node60&#45;&gt;Node61 -->
<g id="edge1" class="edge">
<title>Node60&#45;&gt;Node61</title>
<path fill="none" stroke="#191970" d="M107.3612,-59.5C115.8127,-59.5 124.4639,-59.5 132.7863,-59.5"/>
<polygon fill="#191970" stroke="#191970" points="107.1869,-56.0001 97.1868,-59.5 107.1868,-63.0001 107.1869,-56.0001"/>
</g>
<!-- Node62 -->
<g id="node3" class="node">
<title>Node62</title>
<g id="a_node3"><a xlink:href="classSha256Class.html#a73d3dcea6eb667fd146d12aa5d106939" target="_top" xlink:title="Sha256Class::initHmac">
<polygon fill="#ffffff" stroke="#000000" points="279.5,-69 279.5,-88 399.5,-88 399.5,-69 279.5,-69"/>
<text text-anchor="middle" x="339.5" y="-76" font-family="Helvetica,sans-Serif" font-size="10.00" fill="#000000">Sha256Class::initHmac</text>
</a>
</g>
</g>
<!-- Node61&#45;&gt;Node62 -->
<g id="edge2" class="edge">
<title>Node61&#45;&gt;Node62</title>
<path fill="none" stroke="#191970" d="M248.2416,-67.2408C258.5627,-68.5142 269.2379,-69.8313 279.4902,-71.0962"/>
<polygon fill="#191970" stroke="#191970" points="248.4207,-63.7365 238.0673,-65.9856 247.5635,-70.6838 248.4207,-63.7365"/>
</g>
<!-- Node68 -->
<g id="node9" class="node">
<title>Node68</title>
<g id="a_node9"><a xlink:href="classSha256Class.html#a7556f29cadf7eaca21a537df41318af3" target="_top" xlink:title="Sha256Class::resultHmac">
<polygon fill="#ffffff" stroke="#000000" points="274,-31 274,-50 405,-50 405,-31 274,-31"/>
<text text-anchor="middle" x="339.5" y="-38" font-family="Helvetica,sans-Serif" font-size="10.00" fill="#000000">Sha256Class::resultHmac</text>
</a>
</g>
</g>
<!-- Node61&#45;&gt;Node68 -->
<g id="edge8" class="edge">
<title>Node61&#45;&gt;Node68</title>
<path fill="none" stroke="#191970" d="M248.2163,-51.7623C256.6565,-50.721 265.334,-49.6504 273.8237,-48.6029"/>
<polygon fill="#191970" stroke="#191970" points="247.5635,-48.3162 238.0673,-53.0144 248.4207,-55.2635 247.5635,-48.3162"/>
</g>
<!-- Node63 -->
<g id="node4" class="node">
<title>Node63</title>
<g id="a_node4"><a xlink:href="TooSigning_8h.html#a1e2cd2b37702263e1fe166395350bf08" target="_top" xlink:title="TooSigning_init_hmac">
<polygon fill="#ffffff" stroke="#000000" points="441,-94 441,-113 554,-113 554,-94 441,-94"/>
<text text-anchor="middle" x="497.5" y="-101" font-family="Helvetica,sans-Serif" font-size="10.00" fill="#000000">TooSigning_init_hmac</text>
</a>
</g>
</g>
<!-- Node62&#45;&gt;Node63 -->
<g id="edge3" class="edge">
<title>Node62&#45;&gt;Node63</title>
<path fill="none" stroke="#191970" d="M409.6179,-89.5946C420.0719,-91.2487 430.736,-92.9361 440.8655,-94.5388"/>
<polygon fill="#191970" stroke="#191970" points="410.1079,-86.1287 399.6838,-88.0227 409.0139,-93.0427 410.1079,-86.1287"/>
</g>
<!-- Node65 -->
<g id="node6" class="node">
<title>Node65</title>
<g id="a_node6"><a xlink:href="TooSigning_8cpp.html#a03df9fd005c518d1114f912ae7da9f06" target="_top" xlink:title="TooSigning_unsigned\l_network_available">
<polygon fill="#ffffff" stroke="#000000" points="442.5,-44.5 442.5,-74.5 552.5,-74.5 552.5,-44.5 442.5,-44.5"/>
<text text-anchor="start" x="450.5" y="-62.5" font-family="Helvetica,sans-Serif" font-size="10.00" fill="#000000">TooSigning_unsigned</text>
<text text-anchor="middle" x="497.5" y="-51.5" font-family="Helvetica,sans-Serif" font-size="10.00" fill="#000000">_network_available</text>
</a>
</g>
</g>
<!-- Node62&#45;&gt;Node65 -->
<g id="edge5" class="edge">
<title>Node62&#45;&gt;Node65</title>
<path fill="none" stroke="#191970" d="M409.6701,-70.0618C420.6414,-68.7425 431.8427,-67.3955 442.4134,-66.1243"/>
<polygon fill="#191970" stroke="#191970" points="409.1943,-66.5937 399.6838,-71.2627 410.0301,-73.5437 409.1943,-66.5937"/>
</g>
<!-- Node64 -->
<g id="node5" class="node">
<title>Node64</title>
<g id="a_node5"><a xlink:href="TooNetworking_8h.html#ab5dfe46515ee5ca8f9893675df673d96" target="_top" xlink:title="TooNetworking_send\l_signed">
<polygon fill="#ffffff" stroke="#000000" points="603,-.5 603,-30.5 712,-30.5 712,-.5 603,-.5"/>
<text text-anchor="start" x="611" y="-18.5" font-family="Helvetica,sans-Serif" font-size="10.00" fill="#000000">TooNetworking_send</text>
<text text-anchor="middle" x="657.5" y="-7.5" font-family="Helvetica,sans-Serif" font-size="10.00" fill="#000000">_signed</text>
</a>
</g>
</g>
<!-- Node63&#45;&gt;Node64 -->
<g id="edge4" class="edge">
<title>Node63&#45;&gt;Node64</title>
<path fill="none" stroke="#191970" d="M544.9076,-89.8955C548.0909,-88.2805 551.1575,-86.4876 554,-84.5 574.9899,-69.8226 569.1372,-54.3575 590,-39.5 594.7616,-36.109 600.0499,-33.1542 605.5112,-30.5897"/>
<polygon fill="#191970" stroke="#191970" points="543.4266,-86.7236 535.7163,-93.99 546.2752,-93.1178 543.4266,-86.7236"/>
</g>
<!-- Node66 -->
<g id="node7" class="node">
<title>Node66</title>
<g id="a_node7"><a xlink:href="TooNetworking_8h.html#a7382ba1aed5405c3adc02011ea6c45dd" target="_top" xlink:title="TooNetworking_connection\l_maintenance">
<polygon fill="#ffffff" stroke="#000000" points="590,-49.5 590,-79.5 725,-79.5 725,-49.5 590,-49.5"/>
<text text-anchor="start" x="598" y="-67.5" font-family="Helvetica,sans-Serif" font-size="10.00" fill="#000000">TooNetworking_connection</text>
<text text-anchor="middle" x="657.5" y="-56.5" font-family="Helvetica,sans-Serif" font-size="10.00" fill="#000000">_maintenance</text>
</a>
</g>
</g>
<!-- Node65&#45;&gt;Node66 -->
<g id="edge6" class="edge">
<title>Node65&#45;&gt;Node66</title>
<path fill="none" stroke="#191970" d="M562.587,-61.534C571.5862,-61.8152 580.8465,-62.1046 589.8902,-62.3872"/>
<polygon fill="#191970" stroke="#191970" points="562.6674,-58.0349 552.5629,-61.2207 562.4487,-65.0315 562.6674,-58.0349"/>
</g>
<!-- Node67 -->
<g id="node8" class="node">
<title>Node67</title>
<g id="a_node8"><a xlink:href="NODE__SKETCH__TooAutomation__Node_8ino_8cpp.html#a0b33edabd7f1c4e4a0bf32c67269be2f" target="_top" xlink:title="loop">
<polygon fill="#ffffff" stroke="#000000" points="761,-55 761,-74 796,-74 796,-55 761,-55"/>
<text text-anchor="middle" x="778.5" y="-62" font-family="Helvetica,sans-Serif" font-size="10.00" fill="#000000">loop</text>
</a>
</g>
</g>
<!-- Node66&#45;&gt;Node67 -->
<g id="edge7" class="edge">
<title>Node66&#45;&gt;Node67</title>
<path fill="none" stroke="#191970" d="M735.1566,-64.5C744.6588,-64.5 753.5454,-64.5 760.7679,-64.5"/>
<polygon fill="#191970" stroke="#191970" points="735.0755,-61.0001 725.0754,-64.5 735.0754,-68.0001 735.0755,-61.0001"/>
</g>
<!-- Node68&#45;&gt;Node65 -->
<g id="edge11" class="edge">
<title>Node68&#45;&gt;Node65</title>
<path fill="none" stroke="#191970" d="M415.0697,-49.5875C424.2707,-50.6939 433.534,-51.8079 442.3589,-52.8691"/>
<polygon fill="#191970" stroke="#191970" points="415.48,-46.1117 405.1336,-48.3926 414.6442,-53.0616 415.48,-46.1117"/>
</g>
<!-- Node69 -->
<g id="node10" class="node">
<title>Node69</title>
<g id="a_node10"><a xlink:href="TooSigning_8h.html#ab8a2415b95a77c91ffbc6ebbde622f64" target="_top" xlink:title="TooSigning_get_hmac">
<polygon fill="#ffffff" stroke="#000000" points="441,-6 441,-25 554,-25 554,-6 441,-6"/>
<text text-anchor="middle" x="497.5" y="-13" font-family="Helvetica,sans-Serif" font-size="10.00" fill="#000000">TooSigning_get_hmac</text>
</a>
</g>
</g>
<!-- Node68&#45;&gt;Node69 -->
<g id="edge9" class="edge">
<title>Node68&#45;&gt;Node69</title>
<path fill="none" stroke="#191970" d="M409.6179,-29.4054C420.0719,-27.7513 430.736,-26.0639 440.8655,-24.4612"/>
<polygon fill="#191970" stroke="#191970" points="409.0139,-25.9573 399.6838,-30.9773 410.1079,-32.8713 409.0139,-25.9573"/>
</g>
<!-- Node69&#45;&gt;Node64 -->
<g id="edge10" class="edge">
<title>Node69&#45;&gt;Node64</title>
<path fill="none" stroke="#191970" d="M564.5144,-15.5C577.33,-15.5 590.6024,-15.5 602.9684,-15.5"/>
<polygon fill="#191970" stroke="#191970" points="564.3606,-12.0001 554.3605,-15.5 564.3605,-19.0001 564.3606,-12.0001"/>
</g>
</g>
</svg>
