<?xml version="1.0" encoding="UTF-8" standalone="no"?>
<!DOCTYPE svg PUBLIC "-//W3C//DTD SVG 1.1//EN"
 "http://www.w3.org/Graphics/SVG/1.1/DTD/svg11.dtd">
<!-- Generated by graphviz version 2.40.1 (20161225.0304)
 -->
<!-- Title: ATSHA204Class::sha204c_resync Pages: 1 -->
<!--zoomable 132 -->
<svg id="main" version="1.1" xmlns="http://www.w3.org/2000/svg" xmlns:xlink="http://www.w3.org/1999/xlink" xml:space="preserve" onload="init(evt)">
<style type="text/css"><![CDATA[
.edge:hover path { stroke: red; }
.edge:hover polygon { stroke: red; fill: red; }
]]></style>
<script type="text/javascript"><![CDATA[
var edges = document.getElementsByTagName('g');
if (edges && edges.length) {
  for (var i=0;i<edges.length;i++) {
    if (edges[i].id.substr(0,4)=='edge') {
      edges[i].setAttribute('class','edge');
    }
  }
}
]]></script>
        <defs>
                <circle id="rim" cx="0" cy="0" r="7"/>
                <circle id="rim2" cx="0" cy="0" r="3.5"/>
                <g id="zoomPlus">
                        <use xlink:href="#rim" fill="#404040">
                                <set attributeName="fill" to="#808080" begin="zoomplus.mouseover" end="zoomplus.mouseout"/>
                        </use>
                        <path d="M-4,0h8M0,-4v8" fill="none" stroke="white" stroke-width="1.5" pointer-events="none"/>
                </g>
                <g id="zoomMin">
                        <use xlink:href="#rim" fill="#404040">
                                <set attributeName="fill" to="#808080" begin="zoomminus.mouseover" end="zoomminus.mouseout"/>
                        </use>
                        <path d="M-4,0h8" fill="none" stroke="white" stroke-width="1.5" pointer-events="none"/>
                </g>
                <g id="dirArrow">
                        <path fill="none" stroke="white" stroke-width="1.5" d="M0,-3.0v7 M-2.5,-0.5L0,-3.0L2.5,-0.5"/>
                </g>
               <g id="resetDef">
                       <use xlink:href="#rim2" fill="#404040">
                               <set attributeName="fill" to="#808080" begin="reset.mouseover" end="reset.mouseout"/>
                       </use>
               </g>
        </defs>

<script type="text/javascript">
var viewWidth = 780;
var viewHeight = 132;
var sectionId = 'dynsection-4';
</script>
<script xlink:href="svgpan.js"/>
<svg id="graph" class="graph">
<g id="viewport">
<title>ATSHA204Class::sha204c_resync</title>
<polygon fill="#ffffff" stroke="transparent" points="-4,4 -4,-128 776,-128 776,4 -4,4"/>
<!-- Node30 -->
<g id="node1" class="node">
<title>Node30</title>
<polygon fill="#bfbfbf" stroke="#000000" points="0,-49.5 0,-79.5 134,-79.5 134,-49.5 0,-49.5"/>
<text text-anchor="start" x="8" y="-67.5" font-family="Helvetica,sans-Serif" font-size="10.00" fill="#000000">ATSHA204Class::sha204c</text>
<text text-anchor="middle" x="67" y="-56.5" font-family="Helvetica,sans-Serif" font-size="10.00" fill="#000000">_resync</text>
</g>
<!-- Node31 -->
<g id="node2" class="node">
<title>Node31</title>
<g id="a_node2"><a xlink:href="classATSHA204Class.html#ae5c777e2388de999d13afef7008a36a7" target="_top" xlink:title="ATSHA204Class::sha204p\l_receive_response">
<polygon fill="#ffffff" stroke="#000000" points="340,-49.5 340,-79.5 474,-79.5 474,-49.5 340,-49.5"/>
<text text-anchor="start" x="348" y="-67.5" font-family="Helvetica,sans-Serif" font-size="10.00" fill="#000000">ATSHA204Class::sha204p</text>
<text text-anchor="middle" x="407" y="-56.5" font-family="Helvetica,sans-Serif" font-size="10.00" fill="#000000">_receive_response</text>
</a>
</g>
</g>
<!-- Node30&#45;&gt;Node31 -->
<g id="edge1" class="edge">
<title>Node30&#45;&gt;Node31</title>
<path fill="none" stroke="#191970" d="M134.1731,-64.5C190.52,-64.5 271.0085,-64.5 329.9603,-64.5"/>
<polygon fill="#191970" stroke="#191970" points="329.9665,-68.0001 339.9665,-64.5 329.9665,-61.0001 329.9665,-68.0001"/>
</g>
<!-- Node35 -->
<g id="node6" class="node">
<title>Node35</title>
<g id="a_node6"><a xlink:href="classATSHA204Class.html#ac51be7c43d75dcc439d89ecb0493149b" target="_top" xlink:title="ATSHA204Class::sha204c\l_sleep">
<polygon fill="#ffffff" stroke="#000000" points="170,-93.5 170,-123.5 304,-123.5 304,-93.5 170,-93.5"/>
<text text-anchor="start" x="178" y="-111.5" font-family="Helvetica,sans-Serif" font-size="10.00" fill="#000000">ATSHA204Class::sha204c</text>
<text text-anchor="middle" x="237" y="-100.5" font-family="Helvetica,sans-Serif" font-size="10.00" fill="#000000">_sleep</text>
</a>
</g>
</g>
<!-- Node30&#45;&gt;Node35 -->
<g id="edge5" class="edge">
<title>Node30&#45;&gt;Node35</title>
<path fill="none" stroke="#191970" d="M125.0289,-79.5192C139.1744,-83.1804 154.4316,-87.1294 168.995,-90.8987"/>
<polygon fill="#191970" stroke="#191970" points="168.3862,-94.3564 178.9442,-93.4738 170.1402,-87.5797 168.3862,-94.3564"/>
</g>
<!-- Node36 -->
<g id="node7" class="node">
<title>Node36</title>
<g id="a_node7"><a xlink:href="classATSHA204Class.html#a2772385d612dee11f65c310334d7952b" target="_top" xlink:title="ATSHA204Class::sha204c\l_wakeup">
<polygon fill="#ffffff" stroke="#000000" points="170,-5.5 170,-35.5 304,-35.5 304,-5.5 170,-5.5"/>
<text text-anchor="start" x="178" y="-23.5" font-family="Helvetica,sans-Serif" font-size="10.00" fill="#000000">ATSHA204Class::sha204c</text>
<text text-anchor="middle" x="237" y="-12.5" font-family="Helvetica,sans-Serif" font-size="10.00" fill="#000000">_wakeup</text>
</a>
</g>
</g>
<!-- Node30&#45;&gt;Node36 -->
<g id="edge7" class="edge">
<title>Node30&#45;&gt;Node36</title>
<path fill="none" stroke="#191970" d="M125.0289,-49.4808C139.1744,-45.8196 154.4316,-41.8706 168.995,-38.1013"/>
<polygon fill="#191970" stroke="#191970" points="170.1402,-41.4203 178.9442,-35.5262 168.3862,-34.6436 170.1402,-41.4203"/>
</g>
<!-- Node32 -->
<g id="node3" class="node">
<title>Node32</title>
<g id="a_node3"><a xlink:href="classATSHA204Class.html#abe55ac783f1a37777bd09b7fc369ebc9" target="_top" xlink:title="ATSHA204Class::swi\l_send_byte">
<polygon fill="#ffffff" stroke="#000000" points="510,-93.5 510,-123.5 623,-123.5 623,-93.5 510,-93.5"/>
<text text-anchor="start" x="518" y="-111.5" font-family="Helvetica,sans-Serif" font-size="10.00" fill="#000000">ATSHA204Class::swi</text>
<text text-anchor="middle" x="566.5" y="-100.5" font-family="Helvetica,sans-Serif" font-size="10.00" fill="#000000">_send_byte</text>
</a>
</g>
</g>
<!-- Node31&#45;&gt;Node32 -->
<g id="edge2" class="edge">
<title>Node31&#45;&gt;Node32</title>
<path fill="none" stroke="#191970" d="M461.4447,-79.5192C474.5889,-83.1452 488.7562,-87.0534 502.3009,-90.7899"/>
<polygon fill="#191970" stroke="#191970" points="501.4593,-94.1884 512.03,-93.4738 503.3209,-87.4405 501.4593,-94.1884"/>
</g>
<!-- Node34 -->
<g id="node5" class="node">
<title>Node34</title>
<g id="a_node5"><a xlink:href="classATSHA204Class.html#ae81c8e3063da186b698d31bad70e543b" target="_top" xlink:title="ATSHA204Class::swi\l_receive_bytes">
<polygon fill="#ffffff" stroke="#000000" points="510,-44.5 510,-74.5 623,-74.5 623,-44.5 510,-44.5"/>
<text text-anchor="start" x="518" y="-62.5" font-family="Helvetica,sans-Serif" font-size="10.00" fill="#000000">ATSHA204Class::swi</text>
<text text-anchor="middle" x="566.5" y="-51.5" font-family="Helvetica,sans-Serif" font-size="10.00" fill="#000000">_receive_bytes</text>
</a>
</g>
</g>
<!-- Node31&#45;&gt;Node34 -->
<g id="edge4" class="edge">
<title>Node31&#45;&gt;Node34</title>
<path fill="none" stroke="#191970" d="M474.1801,-62.394C482.6539,-62.1284 491.3219,-61.8567 499.7884,-61.5913"/>
<polygon fill="#191970" stroke="#191970" points="500.1038,-65.0832 509.9892,-61.2715 499.8844,-58.0866 500.1038,-65.0832"/>
</g>
<!-- Node33 -->
<g id="node4" class="node">
<title>Node33</title>
<g id="a_node4"><a xlink:href="classATSHA204Class.html#a0f8c2167d152bbe670d1b1187d7b2897" target="_top" xlink:title="ATSHA204Class::swi\l_send_bytes">
<polygon fill="#ffffff" stroke="#000000" points="659,-93.5 659,-123.5 772,-123.5 772,-93.5 659,-93.5"/>
<text text-anchor="start" x="667" y="-111.5" font-family="Helvetica,sans-Serif" font-size="10.00" fill="#000000">ATSHA204Class::swi</text>
<text text-anchor="middle" x="715.5" y="-100.5" font-family="Helvetica,sans-Serif" font-size="10.00" fill="#000000">_send_bytes</text>
</a>
</g>
</g>
<!-- Node32&#45;&gt;Node33 -->
<g id="edge3" class="edge">
<title>Node32&#45;&gt;Node33</title>
<path fill="none" stroke="#191970" d="M623.2556,-108.5C631.558,-108.5 640.1727,-108.5 648.6536,-108.5"/>
<polygon fill="#191970" stroke="#191970" points="648.9023,-112.0001 658.9022,-108.5 648.9022,-105.0001 648.9023,-112.0001"/>
</g>
<!-- Node35&#45;&gt;Node32 -->
<g id="edge6" class="edge">
<title>Node35&#45;&gt;Node32</title>
<path fill="none" stroke="#191970" d="M304.0764,-108.5C361.1157,-108.5 442.6015,-108.5 499.5925,-108.5"/>
<polygon fill="#191970" stroke="#191970" points="499.9375,-112.0001 509.9374,-108.5 499.9374,-105.0001 499.9375,-112.0001"/>
</g>
<!-- Node36&#45;&gt;Node31 -->
<g id="edge9" class="edge">
<title>Node36&#45;&gt;Node31</title>
<path fill="none" stroke="#191970" d="M295.0289,-35.5192C309.1744,-39.1804 324.4316,-43.1294 338.995,-46.8987"/>
<polygon fill="#191970" stroke="#191970" points="338.3862,-50.3564 348.9442,-49.4738 340.1402,-43.5797 338.3862,-50.3564"/>
</g>
<!-- Node37 -->
<g id="node8" class="node">
<title>Node37</title>
<g id="a_node8"><a xlink:href="classATSHA204Class.html#a2d69316e4670b7fd17a1e2b6231191ff" target="_top" xlink:title="ATSHA204Class::swi\l_set_signal_pin">
<polygon fill="#ffffff" stroke="#000000" points="350.5,-.5 350.5,-30.5 463.5,-30.5 463.5,-.5 350.5,-.5"/>
<text text-anchor="start" x="358.5" y="-18.5" font-family="Helvetica,sans-Serif" font-size="10.00" fill="#000000">ATSHA204Class::swi</text>
<text text-anchor="middle" x="407" y="-7.5" font-family="Helvetica,sans-Serif" font-size="10.00" fill="#000000">_set_signal_pin</text>
</a>
</g>
</g>
<!-- Node36&#45;&gt;Node37 -->
<g id="edge8" class="edge">
<title>Node36&#45;&gt;Node37</title>
<path fill="none" stroke="#191970" d="M304.1885,-18.5239C316.0325,-18.1755 328.3595,-17.813 340.1929,-17.4649"/>
<polygon fill="#191970" stroke="#191970" points="340.5477,-20.9561 350.4404,-17.1635 340.3418,-13.9591 340.5477,-20.9561"/>
</g>
</g>
</svg>
        <g id="navigator" transform="translate(0 0)" fill="#404254">
                <rect fill="#f2f5e9" fill-opacity="0.5" stroke="#606060" stroke-width=".5" x="0" y="0" width="60" height="60"/>
                <use id="zoomplus" xlink:href="#zoomPlus" x="17" y="9" onmousedown="handleZoom(evt,'in')"/>
                <use id="zoomminus" xlink:href="#zoomMin" x="42" y="9" onmousedown="handleZoom(evt,'out')"/>
                <use id="reset" xlink:href="#resetDef" x="30" y="36" onmousedown="handleReset()"/>
                <g id="arrowUp" xlink:href="#dirArrow" transform="translate(30 24)" onmousedown="handlePan(0,-1)">
                  <use xlink:href="#rim" fill="#404040">
                        <set attributeName="fill" to="#808080" begin="arrowUp.mouseover" end="arrowUp.mouseout"/>
                  </use>
                  <path fill="none" stroke="white" stroke-width="1.5" d="M0,-3.0v7 M-2.5,-0.5L0,-3.0L2.5,-0.5"/>
                </g>
                <g id="arrowRight" xlink:href="#dirArrow" transform="rotate(90) translate(36 -43)" onmousedown="handlePan(1,0)">
                  <use xlink:href="#rim" fill="#404040">
                        <set attributeName="fill" to="#808080" begin="arrowRight.mouseover" end="arrowRight.mouseout"/>
                  </use>
                  <path fill="none" stroke="white" stroke-width="1.5" d="M0,-3.0v7 M-2.5,-0.5L0,-3.0L2.5,-0.5"/>
                </g>
                <g id="arrowDown" xlink:href="#dirArrow" transform="rotate(180) translate(-30 -48)" onmousedown="handlePan(0,1)">
                  <use xlink:href="#rim" fill="#404040">
                        <set attributeName="fill" to="#808080" begin="arrowDown.mouseover" end="arrowDown.mouseout"/>
                  </use>
                  <path fill="none" stroke="white" stroke-width="1.5" d="M0,-3.0v7 M-2.5,-0.5L0,-3.0L2.5,-0.5"/>
                </g>
                <g id="arrowLeft" xlink:href="#dirArrow" transform="rotate(270) translate(-36 17)" onmousedown="handlePan(-1,0)">
                  <use xlink:href="#rim" fill="#404040">
                        <set attributeName="fill" to="#808080" begin="arrowLeft.mouseover" end="arrowLeft.mouseout"/>
                  </use>
                  <path fill="none" stroke="white" stroke-width="1.5" d="M0,-3.0v7 M-2.5,-0.5L0,-3.0L2.5,-0.5"/>
                </g>
        </g>
        <svg viewBox="0 0 15 15" width="100%" height="30px" preserveAspectRatio="xMaxYMin meet">
         <g id="arrow_out" transform="scale(0.3 0.3)">
          <a xlink:href="classATSHA204Class_a0d8eab6a8af231835dd5b6734df0d670_cgraph_org.svg" target="_base">
           <rect id="button" ry="5" rx="5" y="6" x="6" height="38" width="38"
                fill="#f2f5e9" fill-opacity="0.5" stroke="#606060" stroke-width="1.0"/>
           <path id="arrow"
             d="M 11.500037,31.436501 C 11.940474,20.09759 22.043105,11.32322 32.158766,21.979434 L 37.068811,17.246167 C 37.068811,17.246167 37.088388,32 37.088388,32 L 22.160133,31.978069 C 22.160133,31.978069 26.997745,27.140456 26.997745,27.140456 C 18.528582,18.264221 13.291696,25.230495 11.500037,31.436501 z"
             style="fill:#404040;"/>
          </a>
         </g>
        </svg>
</svg>
