<?xml version="1.0" encoding="UTF-8" standalone="no"?>
<!DOCTYPE svg PUBLIC "-//W3C//DTD SVG 1.1//EN"
 "http://www.w3.org/Graphics/SVG/1.1/DTD/svg11.dtd">
<!-- Generated by graphviz version 2.40.1 (20161225.0304)
 -->
<!-- Title: Sha256Class::result Pages: 1 -->
<svg width="671pt" height="122pt"
 viewBox="0.00 0.00 671.00 121.50" xmlns="http://www.w3.org/2000/svg" xmlns:xlink="http://www.w3.org/1999/xlink">
<g id="graph0" class="graph" transform="scale(1 1) rotate(0) translate(4 117.5)">
<title>Sha256Class::result</title>
<polygon fill="#ffffff" stroke="transparent" points="-4,4 -4,-117.5 667,-117.5 667,4 -4,4"/>
<!-- Node75 -->
<g id="node1" class="node">
<title>Node75</title>
<polygon fill="#bfbfbf" stroke="#000000" points="0,-50 0,-69 105,-69 105,-50 0,-50"/>
<text text-anchor="middle" x="52.5" y="-57" font-family="Helvetica,sans-Serif" font-size="10.00" fill="#000000">Sha256Class::result</text>
</g>
<!-- Node76 -->
<g id="node2" class="node">
<title>Node76</title>
<g id="a_node2"><a xlink:href="classSha256Class.html#a73d3dcea6eb667fd146d12aa5d106939" target="_top" xlink:title="Sha256Class::initHmac">
<polygon fill="#ffffff" stroke="#000000" points="146.5,-69 146.5,-88 266.5,-88 266.5,-69 146.5,-69"/>
<text text-anchor="middle" x="206.5" y="-76" font-family="Helvetica,sans-Serif" font-size="10.00" fill="#000000">Sha256Class::initHmac</text>
</a>
</g>
</g>
<!-- Node75&#45;&gt;Node76 -->
<g id="edge1" class="edge">
<title>Node75&#45;&gt;Node76</title>
<path fill="none" stroke="#191970" d="M115.2416,-67.2408C125.5627,-68.5142 136.2379,-69.8313 146.4902,-71.0962"/>
<polygon fill="#191970" stroke="#191970" points="115.4207,-63.7365 105.0673,-65.9856 114.5635,-70.6838 115.4207,-63.7365"/>
</g>
<!-- Node82 -->
<g id="node8" class="node">
<title>Node82</title>
<g id="a_node8"><a xlink:href="classSha256Class.html#a7556f29cadf7eaca21a537df41318af3" target="_top" xlink:title="Sha256Class::resultHmac">
<polygon fill="#ffffff" stroke="#000000" points="141,-31 141,-50 272,-50 272,-31 141,-31"/>
<text text-anchor="middle" x="206.5" y="-38" font-family="Helvetica,sans-Serif" font-size="10.00" fill="#000000">Sha256Class::resultHmac</text>
</a>
</g>
</g>
<!-- Node75&#45;&gt;Node82 -->
<g id="edge7" class="edge">
<title>Node75&#45;&gt;Node82</title>
<path fill="none" stroke="#191970" d="M115.2163,-51.7623C123.6565,-50.721 132.334,-49.6504 140.8237,-48.6029"/>
<polygon fill="#191970" stroke="#191970" points="114.5635,-48.3162 105.0673,-53.0144 115.4207,-55.2635 114.5635,-48.3162"/>
</g>
<!-- Node77 -->
<g id="node3" class="node">
<title>Node77</title>
<g id="a_node3"><a xlink:href="TooSigning_8h.html#a1e2cd2b37702263e1fe166395350bf08" target="_top" xlink:title="TooSigning_init_hmac">
<polygon fill="#ffffff" stroke="#000000" points="308,-94 308,-113 421,-113 421,-94 308,-94"/>
<text text-anchor="middle" x="364.5" y="-101" font-family="Helvetica,sans-Serif" font-size="10.00" fill="#000000">TooSigning_init_hmac</text>
</a>
</g>
</g>
<!-- Node76&#45;&gt;Node77 -->
<g id="edge2" class="edge">
<title>Node76&#45;&gt;Node77</title>
<path fill="none" stroke="#191970" d="M276.6179,-89.5946C287.0719,-91.2487 297.736,-92.9361 307.8655,-94.5388"/>
<polygon fill="#191970" stroke="#191970" points="277.1079,-86.1287 266.6838,-88.0227 276.0139,-93.0427 277.1079,-86.1287"/>
</g>
<!-- Node79 -->
<g id="node5" class="node">
<title>Node79</title>
<g id="a_node5"><a xlink:href="TooSigning_8cpp.html#a03df9fd005c518d1114f912ae7da9f06" target="_top" xlink:title="TooSigning_unsigned\l_network_available">
<polygon fill="#ffffff" stroke="#000000" points="309.5,-44.5 309.5,-74.5 419.5,-74.5 419.5,-44.5 309.5,-44.5"/>
<text text-anchor="start" x="317.5" y="-62.5" font-family="Helvetica,sans-Serif" font-size="10.00" fill="#000000">TooSigning_unsigned</text>
<text text-anchor="middle" x="364.5" y="-51.5" font-family="Helvetica,sans-Serif" font-size="10.00" fill="#000000">_network_available</text>
</a>
</g>
</g>
<!-- Node76&#45;&gt;Node79 -->
<g id="edge4" class="edge">
<title>Node76&#45;&gt;Node79</title>
<path fill="none" stroke="#191970" d="M276.6701,-70.0618C287.6414,-68.7425 298.8427,-67.3955 309.4134,-66.1243"/>
<polygon fill="#191970" stroke="#191970" points="276.1943,-66.5937 266.6838,-71.2627 277.0301,-73.5437 276.1943,-66.5937"/>
</g>
<!-- Node78 -->
<g id="node4" class="node">
<title>Node78</title>
<g id="a_node4"><a xlink:href="TooNetworking_8h.html#ab5dfe46515ee5ca8f9893675df673d96" target="_top" xlink:title="TooNetworking_send\l_signed">
<polygon fill="#ffffff" stroke="#000000" points="470,-.5 470,-30.5 579,-30.5 579,-.5 470,-.5"/>
<text text-anchor="start" x="478" y="-18.5" font-family="Helvetica,sans-Serif" font-size="10.00" fill="#000000">TooNetworking_send</text>
<text text-anchor="middle" x="524.5" y="-7.5" font-family="Helvetica,sans-Serif" font-size="10.00" fill="#000000">_signed</text>
</a>
</g>
</g>
<!-- Node77&#45;&gt;Node78 -->
<g id="edge3" class="edge">
<title>Node77&#45;&gt;Node78</title>
<path fill="none" stroke="#191970" d="M411.9076,-89.8955C415.0909,-88.2805 418.1575,-86.4876 421,-84.5 441.9899,-69.8226 436.1372,-54.3575 457,-39.5 461.7616,-36.109 467.0499,-33.1542 472.5112,-30.5897"/>
<polygon fill="#191970" stroke="#191970" points="410.4266,-86.7236 402.7163,-93.99 413.2752,-93.1178 410.4266,-86.7236"/>
</g>
<!-- Node80 -->
<g id="node6" class="node">
<title>Node80</title>
<g id="a_node6"><a xlink:href="TooNetworking_8h.html#a7382ba1aed5405c3adc02011ea6c45dd" target="_top" xlink:title="TooNetworking_connection\l_maintenance">
<polygon fill="#ffffff" stroke="#000000" points="457,-49.5 457,-79.5 592,-79.5 592,-49.5 457,-49.5"/>
<text text-anchor="start" x="465" y="-67.5" font-family="Helvetica,sans-Serif" font-size="10.00" fill="#000000">TooNetworking_connection</text>
<text text-anchor="middle" x="524.5" y="-56.5" font-family="Helvetica,sans-Serif" font-size="10.00" fill="#000000">_maintenance</text>
</a>
</g>
</g>
<!-- Node79&#45;&gt;Node80 -->
<g id="edge5" class="edge">
<title>Node79&#45;&gt;Node80</title>
<path fill="none" stroke="#191970" d="M429.587,-61.534C438.5862,-61.8152 447.8465,-62.1046 456.8902,-62.3872"/>
<polygon fill="#191970" stroke="#191970" points="429.6674,-58.0349 419.5629,-61.2207 429.4487,-65.0315 429.6674,-58.0349"/>
</g>
<!-- Node81 -->
<g id="node7" class="node">
<title>Node81</title>
<g id="a_node7"><a xlink:href="NODE__SKETCH__TooAutomation__Node_8ino_8cpp.html#a0b33edabd7f1c4e4a0bf32c67269be2f" target="_top" xlink:title="loop">
<polygon fill="#ffffff" stroke="#000000" points="628,-55 628,-74 663,-74 663,-55 628,-55"/>
<text text-anchor="middle" x="645.5" y="-62" font-family="Helvetica,sans-Serif" font-size="10.00" fill="#000000">loop</text>
</a>
</g>
</g>
<!-- Node80&#45;&gt;Node81 -->
<g id="edge6" class="edge">
<title>Node80&#45;&gt;Node81</title>
<path fill="none" stroke="#191970" d="M602.1566,-64.5C611.6588,-64.5 620.5454,-64.5 627.7679,-64.5"/>
<polygon fill="#191970" stroke="#191970" points="602.0755,-61.0001 592.0754,-64.5 602.0754,-68.0001 602.0755,-61.0001"/>
</g>
<!-- Node82&#45;&gt;Node79 -->
<g id="edge10" class="edge">
<title>Node82&#45;&gt;Node79</title>
<path fill="none" stroke="#191970" d="M282.0697,-49.5875C291.2707,-50.6939 300.534,-51.8079 309.3589,-52.8691"/>
<polygon fill="#191970" stroke="#191970" points="282.48,-46.1117 272.1336,-48.3926 281.6442,-53.0616 282.48,-46.1117"/>
</g>
<!-- Node83 -->
<g id="node9" class="node">
<title>Node83</title>
<g id="a_node9"><a xlink:href="TooSigning_8h.html#ab8a2415b95a77c91ffbc6ebbde622f64" target="_top" xlink:title="TooSigning_get_hmac">
<polygon fill="#ffffff" stroke="#000000" points="308,-6 308,-25 421,-25 421,-6 308,-6"/>
<text text-anchor="middle" x="364.5" y="-13" font-family="Helvetica,sans-Serif" font-size="10.00" fill="#000000">TooSigning_get_hmac</text>
</a>
</g>
</g>
<!-- Node82&#45;&gt;Node83 -->
<g id="edge8" class="edge">
<title>Node82&#45;&gt;Node83</title>
<path fill="none" stroke="#191970" d="M276.6179,-29.4054C287.0719,-27.7513 297.736,-26.0639 307.8655,-24.4612"/>
<polygon fill="#191970" stroke="#191970" points="276.0139,-25.9573 266.6838,-30.9773 277.1079,-32.8713 276.0139,-25.9573"/>
</g>
<!-- Node83&#45;&gt;Node78 -->
<g id="edge9" class="edge">
<title>Node83&#45;&gt;Node78</title>
<path fill="none" stroke="#191970" d="M431.5144,-15.5C444.33,-15.5 457.6024,-15.5 469.9684,-15.5"/>
<polygon fill="#191970" stroke="#191970" points="431.3606,-12.0001 421.3605,-15.5 431.3605,-19.0001 431.3606,-12.0001"/>
</g>
</g>
</svg>
