<?xml version="1.0" encoding="UTF-8" standalone="no"?>
<!DOCTYPE svg PUBLIC "-//W3C//DTD SVG 1.1//EN"
 "http://www.w3.org/Graphics/SVG/1.1/DTD/svg11.dtd">
<!-- Generated by graphviz version 2.40.1 (20161225.0304)
 -->
<!-- Title: Sha256Class::addUncounted Pages: 1 -->
<svg width="984pt" height="129pt"
 viewBox="0.00 0.00 984.00 129.00" xmlns="http://www.w3.org/2000/svg" xmlns:xlink="http://www.w3.org/1999/xlink">
<g id="graph0" class="graph" transform="scale(1 1) rotate(0) translate(4 125)">
<title>Sha256Class::addUncounted</title>
<polygon fill="#ffffff" stroke="transparent" points="-4,4 -4,-125 980,-125 980,4 -4,4"/>
<!-- Node3 -->
<g id="node1" class="node">
<title>Node3</title>
<polygon fill="#bfbfbf" stroke="#000000" points="0,-57.5 0,-76.5 144,-76.5 144,-57.5 0,-57.5"/>
<text text-anchor="middle" x="72" y="-64.5" font-family="Helvetica,sans-Serif" font-size="10.00" fill="#000000">Sha256Class::addUncounted</text>
</g>
<!-- Node4 -->
<g id="node2" class="node">
<title>Node4</title>
<g id="a_node2"><a xlink:href="classSha256Class.html#a0f0fc4bd4d8c53d232df0d41d7ea25e0" target="_top" xlink:title="Sha256Class::write">
<polygon fill="#ffffff" stroke="#000000" points="314.5,-38.5 314.5,-57.5 416.5,-57.5 416.5,-38.5 314.5,-38.5"/>
<text text-anchor="middle" x="365.5" y="-45.5" font-family="Helvetica,sans-Serif" font-size="10.00" fill="#000000">Sha256Class::write</text>
</a>
</g>
</g>
<!-- Node3&#45;&gt;Node4 -->
<g id="edge1" class="edge">
<title>Node3&#45;&gt;Node4</title>
<path fill="none" stroke="#191970" d="M154.2671,-61.6744C205.6598,-58.3474 270.2228,-54.1679 314.3572,-51.3108"/>
<polygon fill="#191970" stroke="#191970" points="153.9271,-58.189 144.1741,-62.3277 154.3793,-65.1743 153.9271,-58.189"/>
</g>
<!-- Node14 -->
<g id="node12" class="node">
<title>Node14</title>
<g id="a_node12"><a xlink:href="classSha256Class.html#a82049dae520ccf0bd8478f2aef639149" target="_top" xlink:title="Sha256Class::pad">
<polygon fill="#ffffff" stroke="#000000" points="180,-76.5 180,-95.5 277,-95.5 277,-76.5 180,-76.5"/>
<text text-anchor="middle" x="228.5" y="-83.5" font-family="Helvetica,sans-Serif" font-size="10.00" fill="#000000">Sha256Class::pad</text>
</a>
</g>
</g>
<!-- Node3&#45;&gt;Node14 -->
<g id="edge15" class="edge">
<title>Node3&#45;&gt;Node14</title>
<path fill="none" stroke="#191970" d="M154.4503,-77.0099C163.0962,-78.0596 171.6735,-79.1009 179.7583,-80.0825"/>
<polygon fill="#191970" stroke="#191970" points="154.6436,-73.5078 144.2947,-75.777 153.7999,-80.4568 154.6436,-73.5078"/>
</g>
<!-- Node5 -->
<g id="node3" class="node">
<title>Node5</title>
<g id="a_node3"><a xlink:href="classSha256Class.html#a73d3dcea6eb667fd146d12aa5d106939" target="_top" xlink:title="Sha256Class::initHmac">
<polygon fill="#ffffff" stroke="#000000" points="459.5,-38.5 459.5,-57.5 579.5,-57.5 579.5,-38.5 459.5,-38.5"/>
<text text-anchor="middle" x="519.5" y="-45.5" font-family="Helvetica,sans-Serif" font-size="10.00" fill="#000000">Sha256Class::initHmac</text>
</a>
</g>
</g>
<!-- Node4&#45;&gt;Node5 -->
<g id="edge2" class="edge">
<title>Node4&#45;&gt;Node5</title>
<path fill="none" stroke="#191970" d="M426.8829,-48C437.5846,-48 448.7064,-48 459.3738,-48"/>
<polygon fill="#191970" stroke="#191970" points="426.7798,-44.5001 416.7798,-48 426.7797,-51.5001 426.7798,-44.5001"/>
</g>
<!-- Node11 -->
<g id="node9" class="node">
<title>Node11</title>
<g id="a_node9"><a xlink:href="classSha256Class.html#a7556f29cadf7eaca21a537df41318af3" target="_top" xlink:title="Sha256Class::resultHmac">
<polygon fill="#ffffff" stroke="#000000" points="454,-76.5 454,-95.5 585,-95.5 585,-76.5 454,-76.5"/>
<text text-anchor="middle" x="519.5" y="-83.5" font-family="Helvetica,sans-Serif" font-size="10.00" fill="#000000">Sha256Class::resultHmac</text>
</a>
</g>
</g>
<!-- Node4&#45;&gt;Node11 -->
<g id="edge8" class="edge">
<title>Node4&#45;&gt;Node11</title>
<path fill="none" stroke="#191970" d="M414.2937,-60.04C435.8082,-65.3488 460.7318,-71.4988 480.9187,-76.4799"/>
<polygon fill="#191970" stroke="#191970" points="414.908,-56.5867 404.3607,-57.589 413.231,-63.3828 414.908,-56.5867"/>
</g>
<!-- Node13 -->
<g id="node11" class="node">
<title>Node13</title>
<g id="a_node11"><a xlink:href="group__TOOSIGNING__HASHING.html#gafb2935303b05255e80a7a6fa4be7cf57" target="_top" xlink:title="TooSigning_hash_data">
<polygon fill="#ffffff" stroke="#000000" points="461.5,-.5 461.5,-19.5 577.5,-19.5 577.5,-.5 461.5,-.5"/>
<text text-anchor="middle" x="519.5" y="-7.5" font-family="Helvetica,sans-Serif" font-size="10.00" fill="#000000">TooSigning_hash_data</text>
</a>
</g>
</g>
<!-- Node4&#45;&gt;Node13 -->
<g id="edge12" class="edge">
<title>Node4&#45;&gt;Node13</title>
<path fill="none" stroke="#191970" d="M414.2937,-35.96C435.8082,-30.6512 460.7318,-24.5012 480.9187,-19.5201"/>
<polygon fill="#191970" stroke="#191970" points="413.231,-32.6172 404.3607,-38.411 414.908,-39.4133 413.231,-32.6172"/>
</g>
<!-- Node6 -->
<g id="node4" class="node">
<title>Node6</title>
<g id="a_node4"><a xlink:href="TooSigning_8h.html#a1e2cd2b37702263e1fe166395350bf08" target="_top" xlink:title="TooSigning_init_hmac">
<polygon fill="#ffffff" stroke="#000000" points="621,-13.5 621,-32.5 734,-32.5 734,-13.5 621,-13.5"/>
<text text-anchor="middle" x="677.5" y="-20.5" font-family="Helvetica,sans-Serif" font-size="10.00" fill="#000000">TooSigning_init_hmac</text>
</a>
</g>
</g>
<!-- Node5&#45;&gt;Node6 -->
<g id="edge3" class="edge">
<title>Node5&#45;&gt;Node6</title>
<path fill="none" stroke="#191970" d="M589.6179,-36.9054C600.0719,-35.2513 610.736,-33.5639 620.8655,-31.9612"/>
<polygon fill="#191970" stroke="#191970" points="589.0139,-33.4573 579.6838,-38.4773 590.1079,-40.3713 589.0139,-33.4573"/>
</g>
<!-- Node8 -->
<g id="node6" class="node">
<title>Node8</title>
<g id="a_node6"><a xlink:href="TooSigning_8cpp.html#a03df9fd005c518d1114f912ae7da9f06" target="_top" xlink:title="TooSigning_unsigned\l_network_available">
<polygon fill="#ffffff" stroke="#000000" points="622.5,-52 622.5,-82 732.5,-82 732.5,-52 622.5,-52"/>
<text text-anchor="start" x="630.5" y="-70" font-family="Helvetica,sans-Serif" font-size="10.00" fill="#000000">TooSigning_unsigned</text>
<text text-anchor="middle" x="677.5" y="-59" font-family="Helvetica,sans-Serif" font-size="10.00" fill="#000000">_network_available</text>
</a>
</g>
</g>
<!-- Node5&#45;&gt;Node8 -->
<g id="edge5" class="edge">
<title>Node5&#45;&gt;Node8</title>
<path fill="none" stroke="#191970" d="M589.6701,-56.4382C600.6414,-57.7575 611.8427,-59.1045 622.4134,-60.3757"/>
<polygon fill="#191970" stroke="#191970" points="590.0301,-52.9563 579.6838,-55.2373 589.1943,-59.9063 590.0301,-52.9563"/>
</g>
<!-- Node7 -->
<g id="node5" class="node">
<title>Node7</title>
<g id="a_node5"><a xlink:href="TooNetworking_8h.html#ab5dfe46515ee5ca8f9893675df673d96" target="_top" xlink:title="TooNetworking_send\l_signed">
<polygon fill="#ffffff" stroke="#000000" points="783,-5 783,-35 892,-35 892,-5 783,-5"/>
<text text-anchor="start" x="791" y="-23" font-family="Helvetica,sans-Serif" font-size="10.00" fill="#000000">TooNetworking_send</text>
<text text-anchor="middle" x="837.5" y="-12" font-family="Helvetica,sans-Serif" font-size="10.00" fill="#000000">_signed</text>
</a>
</g>
</g>
<!-- Node6&#45;&gt;Node7 -->
<g id="edge4" class="edge">
<title>Node6&#45;&gt;Node7</title>
<path fill="none" stroke="#191970" d="M744.5144,-21.7435C757.33,-21.5032 770.6024,-21.2543 782.9684,-21.0225"/>
<polygon fill="#191970" stroke="#191970" points="744.2931,-18.2469 734.3605,-21.9339 744.4244,-25.2457 744.2931,-18.2469"/>
</g>
<!-- Node9 -->
<g id="node7" class="node">
<title>Node9</title>
<g id="a_node7"><a xlink:href="TooNetworking_8h.html#a7382ba1aed5405c3adc02011ea6c45dd" target="_top" xlink:title="TooNetworking_connection\l_maintenance">
<polygon fill="#ffffff" stroke="#000000" points="770,-54 770,-84 905,-84 905,-54 770,-54"/>
<text text-anchor="start" x="778" y="-72" font-family="Helvetica,sans-Serif" font-size="10.00" fill="#000000">TooNetworking_connection</text>
<text text-anchor="middle" x="837.5" y="-61" font-family="Helvetica,sans-Serif" font-size="10.00" fill="#000000">_maintenance</text>
</a>
</g>
</g>
<!-- Node8&#45;&gt;Node9 -->
<g id="edge6" class="edge">
<title>Node8&#45;&gt;Node9</title>
<path fill="none" stroke="#191970" d="M742.587,-67.8136C751.5862,-67.9261 760.8465,-68.0418 769.8902,-68.1549"/>
<polygon fill="#191970" stroke="#191970" points="742.6059,-64.3136 732.5629,-67.6883 742.5184,-71.3131 742.6059,-64.3136"/>
</g>
<!-- Node10 -->
<g id="node8" class="node">
<title>Node10</title>
<g id="a_node8"><a xlink:href="NODE__SKETCH__TooAutomation__Node_8ino_8cpp.html#a0b33edabd7f1c4e4a0bf32c67269be2f" target="_top" xlink:title="loop">
<polygon fill="#ffffff" stroke="#000000" points="941,-59.5 941,-78.5 976,-78.5 976,-59.5 941,-59.5"/>
<text text-anchor="middle" x="958.5" y="-66.5" font-family="Helvetica,sans-Serif" font-size="10.00" fill="#000000">loop</text>
</a>
</g>
</g>
<!-- Node9&#45;&gt;Node10 -->
<g id="edge7" class="edge">
<title>Node9&#45;&gt;Node10</title>
<path fill="none" stroke="#191970" d="M915.1566,-69C924.6588,-69 933.5454,-69 940.7679,-69"/>
<polygon fill="#191970" stroke="#191970" points="915.0755,-65.5001 905.0754,-69 915.0754,-72.5001 915.0755,-65.5001"/>
</g>
<!-- Node11&#45;&gt;Node8 -->
<g id="edge11" class="edge">
<title>Node11&#45;&gt;Node8</title>
<path fill="none" stroke="#191970" d="M595.0697,-76.9125C604.2707,-75.8061 613.534,-74.6921 622.3589,-73.6309"/>
<polygon fill="#191970" stroke="#191970" points="594.6442,-73.4384 585.1336,-78.1074 595.48,-80.3883 594.6442,-73.4384"/>
</g>
<!-- Node12 -->
<g id="node10" class="node">
<title>Node12</title>
<g id="a_node10"><a xlink:href="TooSigning_8h.html#ab8a2415b95a77c91ffbc6ebbde622f64" target="_top" xlink:title="TooSigning_get_hmac">
<polygon fill="#ffffff" stroke="#000000" points="621,-101.5 621,-120.5 734,-120.5 734,-101.5 621,-101.5"/>
<text text-anchor="middle" x="677.5" y="-108.5" font-family="Helvetica,sans-Serif" font-size="10.00" fill="#000000">TooSigning_get_hmac</text>
</a>
</g>
</g>
<!-- Node11&#45;&gt;Node12 -->
<g id="edge9" class="edge">
<title>Node11&#45;&gt;Node12</title>
<path fill="none" stroke="#191970" d="M589.6179,-97.0946C600.0719,-98.7487 610.736,-100.4361 620.8655,-102.0388"/>
<polygon fill="#191970" stroke="#191970" points="590.1079,-93.6287 579.6838,-95.5227 589.0139,-100.5427 590.1079,-93.6287"/>
</g>
<!-- Node12&#45;&gt;Node7 -->
<g id="edge10" class="edge">
<title>Node12&#45;&gt;Node7</title>
<path fill="none" stroke="#191970" d="M723.597,-97.2909C727.2567,-95.4317 730.7783,-93.3425 734,-91 755.2815,-75.526 748.7293,-59.4888 770,-44 774.625,-40.6322 779.7673,-37.6998 785.0916,-35.1551"/>
<polygon fill="#191970" stroke="#191970" points="722.0028,-94.1698 714.3074,-101.452 724.8644,-100.5582 722.0028,-94.1698"/>
</g>
<!-- Node13&#45;&gt;Node7 -->
<g id="edge13" class="edge">
<title>Node13&#45;&gt;Node7</title>
<path fill="none" stroke="#191970" d="M587.9991,-4.4417C630.1586,-1.9245 685.2723,-.2558 734,-4 749.9533,-5.2258 767.1687,-7.4995 782.8934,-9.9558"/>
<polygon fill="#191970" stroke="#191970" points="587.6067,-.9594 577.8457,-5.0791 588.0454,-7.9456 587.6067,-.9594"/>
</g>
<!-- Node13&#45;&gt;Node8 -->
<g id="edge14" class="edge">
<title>Node13&#45;&gt;Node8</title>
<path fill="none" stroke="#191970" d="M564.8792,-22.4753C571.6612,-24.5383 578.5412,-26.7439 585,-29 604.5043,-35.813 625.8631,-44.5031 643.1377,-51.853"/>
<polygon fill="#191970" stroke="#191970" points="565.6557,-19.055 555.0732,-19.5656 563.6644,-25.7658 565.6557,-19.055"/>
</g>
<!-- Node15 -->
<g id="node13" class="node">
<title>Node15</title>
<g id="a_node13"><a xlink:href="classSha256Class.html#a0ca245a22f8b056a3d1902da3c64b705" target="_top" xlink:title="Sha256Class::result">
<polygon fill="#ffffff" stroke="#000000" points="313,-76.5 313,-95.5 418,-95.5 418,-76.5 313,-76.5"/>
<text text-anchor="middle" x="365.5" y="-83.5" font-family="Helvetica,sans-Serif" font-size="10.00" fill="#000000">Sha256Class::result</text>
</a>
</g>
</g>
<!-- Node14&#45;&gt;Node15 -->
<g id="edge16" class="edge">
<title>Node14&#45;&gt;Node15</title>
<path fill="none" stroke="#191970" d="M287.3612,-86C295.8127,-86 304.4639,-86 312.7863,-86"/>
<polygon fill="#191970" stroke="#191970" points="287.1869,-82.5001 277.1868,-86 287.1868,-89.5001 287.1869,-82.5001"/>
</g>
<!-- Node15&#45;&gt;Node5 -->
<g id="edge17" class="edge">
<title>Node15&#45;&gt;Node5</title>
<path fill="none" stroke="#191970" d="M414.2937,-73.96C435.8082,-68.6512 460.7318,-62.5012 480.9187,-57.5201"/>
<polygon fill="#191970" stroke="#191970" points="413.231,-70.6172 404.3607,-76.411 414.908,-77.4133 413.231,-70.6172"/>
</g>
<!-- Node15&#45;&gt;Node11 -->
<g id="edge18" class="edge">
<title>Node15&#45;&gt;Node11</title>
<path fill="none" stroke="#191970" d="M428.2163,-86C436.6565,-86 445.334,-86 453.8237,-86"/>
<polygon fill="#191970" stroke="#191970" points="428.0674,-82.5001 418.0673,-86 428.0673,-89.5001 428.0674,-82.5001"/>
</g>
</g>
</svg>
