<?xml version="1.0" encoding="UTF-8" standalone="no"?>
<!DOCTYPE svg PUBLIC "-//W3C//DTD SVG 1.1//EN"
 "http://www.w3.org/Graphics/SVG/1.1/DTD/svg11.dtd">
<!-- Generated by graphviz version 2.40.1 (20161225.0304)
 -->
<!-- Title: Sha256Class::write Pages: 1 -->
<svg width="1011pt" height="182pt"
 viewBox="0.00 0.00 1011.00 182.22" xmlns="http://www.w3.org/2000/svg" xmlns:xlink="http://www.w3.org/1999/xlink">
<g id="graph0" class="graph" transform="scale(1 1) rotate(0) translate(4 178.2243)">
<title>Sha256Class::write</title>
<polygon fill="#ffffff" stroke="transparent" points="-4,4 -4,-178.2243 1007,-178.2243 1007,4 -4,4"/>
<!-- Node150 -->
<g id="node1" class="node">
<title>Node150</title>
<polygon fill="#bfbfbf" stroke="#000000" points="0,-105 0,-124 102,-124 102,-105 0,-105"/>
<text text-anchor="middle" x="51" y="-112" font-family="Helvetica,sans-Serif" font-size="10.00" fill="#000000">Sha256Class::write</text>
</g>
<!-- Node151 -->
<g id="node2" class="node">
<title>Node151</title>
<g id="a_node2"><a xlink:href="classSha256Class.html#a73d3dcea6eb667fd146d12aa5d106939" target="_top" xlink:title="Sha256Class::initHmac">
<polygon fill="#ffffff" stroke="#000000" points="143.5,-67 143.5,-86 263.5,-86 263.5,-67 143.5,-67"/>
<text text-anchor="middle" x="203.5" y="-74" font-family="Helvetica,sans-Serif" font-size="10.00" fill="#000000">Sha256Class::initHmac</text>
</a>
</g>
</g>
<!-- Node150&#45;&gt;Node151 -->
<g id="edge1" class="edge">
<title>Node150&#45;&gt;Node151</title>
<path fill="none" stroke="#191970" d="M99.3184,-102.46C120.6234,-97.1512 145.3042,-91.0012 165.2945,-86.0201"/>
<polygon fill="#191970" stroke="#191970" points="98.3392,-99.0969 89.4822,-104.911 100.0318,-105.8892 98.3392,-99.0969"/>
</g>
<!-- Node161 -->
<g id="node12" class="node">
<title>Node161</title>
<g id="a_node12"><a xlink:href="classSha256Class.html#a7556f29cadf7eaca21a537df41318af3" target="_top" xlink:title="Sha256Class::resultHmac">
<polygon fill="#ffffff" stroke="#000000" points="138,-105 138,-124 269,-124 269,-105 138,-105"/>
<text text-anchor="middle" x="203.5" y="-112" font-family="Helvetica,sans-Serif" font-size="10.00" fill="#000000">Sha256Class::resultHmac</text>
</a>
</g>
</g>
<!-- Node150&#45;&gt;Node161 -->
<g id="edge14" class="edge">
<title>Node150&#45;&gt;Node161</title>
<path fill="none" stroke="#191970" d="M112.292,-114.5C120.6879,-114.5 129.3357,-114.5 137.8063,-114.5"/>
<polygon fill="#191970" stroke="#191970" points="112.2046,-111.0001 102.2045,-114.5 112.2045,-118.0001 112.2046,-111.0001"/>
</g>
<!-- Node163 -->
<g id="node14" class="node">
<title>Node163</title>
<g id="a_node14"><a xlink:href="group__TOOSIGNING__HASHING.html#gafb2935303b05255e80a7a6fa4be7cf57" target="_top" xlink:title="TooSigning_hash_data">
<polygon fill="#ffffff" stroke="#000000" points="145.5,-143 145.5,-162 261.5,-162 261.5,-143 145.5,-143"/>
<text text-anchor="middle" x="203.5" y="-150" font-family="Helvetica,sans-Serif" font-size="10.00" fill="#000000">TooSigning_hash_data</text>
</a>
</g>
</g>
<!-- Node150&#45;&gt;Node163 -->
<g id="edge18" class="edge">
<title>Node150&#45;&gt;Node163</title>
<path fill="none" stroke="#191970" d="M99.3184,-126.54C120.6234,-131.8488 145.3042,-137.9988 165.2945,-142.9799"/>
<polygon fill="#191970" stroke="#191970" points="100.0318,-123.1108 89.4822,-124.089 98.3392,-129.9031 100.0318,-123.1108"/>
</g>
<!-- Node152 -->
<g id="node3" class="node">
<title>Node152</title>
<g id="a_node3"><a xlink:href="TooSigning_8h.html#a1e2cd2b37702263e1fe166395350bf08" target="_top" xlink:title="TooSigning_init_hmac">
<polygon fill="#ffffff" stroke="#000000" points="305,-42 305,-61 418,-61 418,-42 305,-42"/>
<text text-anchor="middle" x="361.5" y="-49" font-family="Helvetica,sans-Serif" font-size="10.00" fill="#000000">TooSigning_init_hmac</text>
</a>
</g>
</g>
<!-- Node151&#45;&gt;Node152 -->
<g id="edge2" class="edge">
<title>Node151&#45;&gt;Node152</title>
<path fill="none" stroke="#191970" d="M273.6179,-65.4054C284.0719,-63.7513 294.736,-62.0639 304.8655,-60.4612"/>
<polygon fill="#191970" stroke="#191970" points="273.0139,-61.9573 263.6838,-66.9773 274.1079,-68.8713 273.0139,-61.9573"/>
</g>
<!-- Node159 -->
<g id="node10" class="node">
<title>Node159</title>
<g id="a_node10"><a xlink:href="TooSigning_8cpp.html#a03df9fd005c518d1114f912ae7da9f06" target="_top" xlink:title="TooSigning_unsigned\l_network_available">
<polygon fill="#ffffff" stroke="#000000" points="306.5,-118.5 306.5,-148.5 416.5,-148.5 416.5,-118.5 306.5,-118.5"/>
<text text-anchor="start" x="314.5" y="-136.5" font-family="Helvetica,sans-Serif" font-size="10.00" fill="#000000">TooSigning_unsigned</text>
<text text-anchor="middle" x="361.5" y="-125.5" font-family="Helvetica,sans-Serif" font-size="10.00" fill="#000000">_network_available</text>
</a>
</g>
</g>
<!-- Node151&#45;&gt;Node159 -->
<g id="edge11" class="edge">
<title>Node151&#45;&gt;Node159</title>
<path fill="none" stroke="#191970" d="M248.8792,-88.9753C255.6612,-91.0383 262.5412,-93.2439 269,-95.5 288.5043,-102.313 309.8631,-111.0031 327.1377,-118.353"/>
<polygon fill="#191970" stroke="#191970" points="249.6557,-85.555 239.0732,-86.0656 247.6644,-92.2658 249.6557,-85.555"/>
</g>
<!-- Node153 -->
<g id="node4" class="node">
<title>Node153</title>
<g id="a_node4"><a xlink:href="TooNetworking_8h.html#a9f893c3218491ee86282fdcd9f376500" target="_top" xlink:title="TooNetworking_send\l_signed_">
<polygon fill="#ffffff" stroke="#000000" points="467,-63.5 467,-93.5 576,-93.5 576,-63.5 467,-63.5"/>
<text text-anchor="start" x="475" y="-81.5" font-family="Helvetica,sans-Serif" font-size="10.00" fill="#000000">TooNetworking_send</text>
<text text-anchor="middle" x="521.5" y="-70.5" font-family="Helvetica,sans-Serif" font-size="10.00" fill="#000000">_signed_</text>
</a>
</g>
</g>
<!-- Node152&#45;&gt;Node153 -->
<g id="edge3" class="edge">
<title>Node152&#45;&gt;Node153</title>
<path fill="none" stroke="#191970" d="M428.1435,-62.7461C441.065,-64.9266 454.465,-67.1878 466.9431,-69.2935"/>
<polygon fill="#191970" stroke="#191970" points="428.353,-59.232 417.91,-61.0192 427.1882,-66.1345 428.353,-59.232"/>
</g>
<!-- Node154 -->
<g id="node5" class="node">
<title>Node154</title>
<g id="a_node5"><a xlink:href="TooNetworking_8h.html#a59be7e774988f57ab43c4c078c570c67" target="_top" xlink:title="TooNetworking_bufferlist_add">
<polygon fill="#ffffff" stroke="#000000" points="625,-25 625,-44 771,-44 771,-25 625,-25"/>
<text text-anchor="middle" x="698" y="-32" font-family="Helvetica,sans-Serif" font-size="10.00" fill="#000000">TooNetworking_bufferlist_add</text>
</a>
</g>
</g>
<!-- Node153&#45;&gt;Node154 -->
<g id="edge4" class="edge">
<title>Node153&#45;&gt;Node154</title>
<path fill="none" stroke="#191970" d="M586.3869,-62.3242C611.0156,-56.1845 638.2602,-49.3926 659.6664,-44.0562"/>
<polygon fill="#191970" stroke="#191970" points="585.2346,-59.0043 576.3782,-64.8193 586.9279,-65.7964 585.2346,-59.0043"/>
</g>
<!-- Node155 -->
<g id="node6" class="node">
<title>Node155</title>
<g id="a_node6"><a xlink:href="TooNetworking_8h.html#a9209f3e1a2fdf0b3b88d49105b8fc359" target="_top" xlink:title="TooNetworking_send\l_signed">
<polygon fill="#ffffff" stroke="#000000" points="815,-.5 815,-30.5 924,-30.5 924,-.5 815,-.5"/>
<text text-anchor="start" x="823" y="-18.5" font-family="Helvetica,sans-Serif" font-size="10.00" fill="#000000">TooNetworking_send</text>
<text text-anchor="middle" x="869.5" y="-7.5" font-family="Helvetica,sans-Serif" font-size="10.00" fill="#000000">_signed</text>
</a>
</g>
</g>
<!-- Node153&#45;&gt;Node155 -->
<g id="edge8" class="edge">
<title>Node153&#45;&gt;Node155</title>
<path fill="none" stroke="#191970" d="M547.4215,-57.1417C567.287,-42.2298 596.112,-23.6007 625,-15.5 688.3507,2.2645 764.6195,-1.4827 814.9395,-7.2046"/>
<polygon fill="#191970" stroke="#191970" points="545.2643,-54.3853 539.4822,-63.2633 549.5386,-59.9288 545.2643,-54.3853"/>
</g>
<!-- Node156 -->
<g id="node7" class="node">
<title>Node156</title>
<g id="a_node7"><a xlink:href="TooNetworking_8h.html#a085ff748b00f6be4ebafcae2bb0dded1" target="_top" xlink:title="TooNetworking_bufferlist\l_send_signed">
<polygon fill="#ffffff" stroke="#000000" points="807,-101.5 807,-131.5 932,-131.5 932,-101.5 807,-101.5"/>
<text text-anchor="start" x="815" y="-119.5" font-family="Helvetica,sans-Serif" font-size="10.00" fill="#000000">TooNetworking_bufferlist</text>
<text text-anchor="middle" x="869.5" y="-108.5" font-family="Helvetica,sans-Serif" font-size="10.00" fill="#000000">_send_signed</text>
</a>
</g>
</g>
<!-- Node153&#45;&gt;Node156 -->
<g id="edge9" class="edge">
<title>Node153&#45;&gt;Node156</title>
<path fill="none" stroke="#191970" d="M585.4495,-95.8859C598.4532,-98.872 612.1003,-101.6155 625,-103.5 686.4097,-112.4713 757.2991,-115.438 806.8816,-116.3312"/>
<polygon fill="#191970" stroke="#191970" points="586.1915,-92.4648 575.6539,-93.5652 584.5777,-99.2763 586.1915,-92.4648"/>
</g>
<!-- Node158 -->
<g id="node9" class="node">
<title>Node158</title>
<g id="a_node9"><a xlink:href="TooNetworking_8h.html#ab58e06e0eb6f2f8ecbebeaf3c173fb22" target="_top" xlink:title="TooNetworking_bufferlist\l_send_all">
<polygon fill="#ffffff" stroke="#000000" points="635.5,-63.5 635.5,-93.5 760.5,-93.5 760.5,-63.5 635.5,-63.5"/>
<text text-anchor="start" x="643.5" y="-81.5" font-family="Helvetica,sans-Serif" font-size="10.00" fill="#000000">TooNetworking_bufferlist</text>
<text text-anchor="middle" x="698" y="-70.5" font-family="Helvetica,sans-Serif" font-size="10.00" fill="#000000">_send_all</text>
</a>
</g>
</g>
<!-- Node153&#45;&gt;Node158 -->
<g id="edge10" class="edge">
<title>Node153&#45;&gt;Node158</title>
<path fill="none" stroke="#191970" d="M586.6736,-78.5C602.6138,-78.5 619.6343,-78.5 635.4486,-78.5"/>
<polygon fill="#191970" stroke="#191970" points="586.3782,-75.0001 576.3782,-78.5 586.3782,-82.0001 586.3782,-75.0001"/>
</g>
<!-- Node154&#45;&gt;Node155 -->
<g id="edge5" class="edge">
<title>Node154&#45;&gt;Node155</title>
<path fill="none" stroke="#191970" d="M781.2478,-25.2772C792.6894,-24.0096 804.1905,-22.7355 814.9353,-21.5451"/>
<polygon fill="#191970" stroke="#191970" points="780.7827,-21.8072 771.2289,-26.3872 781.5535,-28.7647 780.7827,-21.8072"/>
</g>
<!-- Node154&#45;&gt;Node156 -->
<g id="edge6" class="edge">
<title>Node154&#45;&gt;Node156</title>
<path fill="none" stroke="#191970" d="M751.1151,-47.0651C757.9153,-49.2495 764.6969,-51.726 771,-54.5 799.8513,-67.1977 830.1168,-87.443 849.3594,-101.3222"/>
<polygon fill="#191970" stroke="#191970" points="751.7771,-43.6091 741.1925,-44.073 749.7562,-50.3111 751.7771,-43.6091"/>
</g>
<!-- Node157 -->
<g id="node8" class="node">
<title>Node157</title>
<g id="a_node8"><a xlink:href="NODE__SKETCH__TooAutomation__Node_8ino_8cpp.html#a0b33edabd7f1c4e4a0bf32c67269be2f" target="_top" xlink:title="loop">
<polygon fill="#ffffff" stroke="#000000" points="968,-129 968,-148 1003,-148 1003,-129 968,-129"/>
<text text-anchor="middle" x="985.5" y="-136" font-family="Helvetica,sans-Serif" font-size="10.00" fill="#000000">loop</text>
</a>
</g>
</g>
<!-- Node156&#45;&gt;Node157 -->
<g id="edge7" class="edge">
<title>Node156&#45;&gt;Node157</title>
<path fill="none" stroke="#191970" d="M942.2178,-130.2913C951.6312,-132.0766 960.4907,-133.7569 967.7123,-135.1265"/>
<polygon fill="#191970" stroke="#191970" points="942.7301,-126.8262 932.2531,-128.4014 941.4257,-133.7036 942.7301,-126.8262"/>
</g>
<!-- Node160 -->
<g id="node11" class="node">
<title>Node160</title>
<g id="a_node11"><a xlink:href="TooNetworking_8h.html#a7382ba1aed5405c3adc02011ea6c45dd" target="_top" xlink:title="TooNetworking_connection\l_maintenance">
<polygon fill="#ffffff" stroke="#000000" points="454,-128.5 454,-158.5 589,-158.5 589,-128.5 454,-128.5"/>
<text text-anchor="start" x="462" y="-146.5" font-family="Helvetica,sans-Serif" font-size="10.00" fill="#000000">TooNetworking_connection</text>
<text text-anchor="middle" x="521.5" y="-135.5" font-family="Helvetica,sans-Serif" font-size="10.00" fill="#000000">_maintenance</text>
</a>
</g>
</g>
<!-- Node159&#45;&gt;Node160 -->
<g id="edge12" class="edge">
<title>Node159&#45;&gt;Node160</title>
<path fill="none" stroke="#191970" d="M426.587,-137.5679C435.5862,-138.1304 444.8465,-138.7092 453.8902,-139.2744"/>
<polygon fill="#191970" stroke="#191970" points="426.7618,-134.0721 416.5629,-136.9414 426.3251,-141.0585 426.7618,-134.0721"/>
</g>
<!-- Node160&#45;&gt;Node157 -->
<g id="edge13" class="edge">
<title>Node160&#45;&gt;Node157</title>
<path fill="none" stroke="#191970" d="M599.1278,-144.303C681.6888,-144.8805 816.0908,-145.0298 932,-141.5 943.902,-141.1375 957.277,-140.3875 967.6765,-139.7282"/>
<polygon fill="#191970" stroke="#191970" points="599.0984,-140.8028 589.0728,-144.2287 599.0466,-147.8026 599.0984,-140.8028"/>
</g>
<!-- Node161&#45;&gt;Node159 -->
<g id="edge17" class="edge">
<title>Node161&#45;&gt;Node159</title>
<path fill="none" stroke="#191970" d="M279.0697,-123.5875C288.2707,-124.6939 297.534,-125.8079 306.3589,-126.8691"/>
<polygon fill="#191970" stroke="#191970" points="279.48,-120.1117 269.1336,-122.3926 278.6442,-127.0616 279.48,-120.1117"/>
</g>
<!-- Node162 -->
<g id="node13" class="node">
<title>Node162</title>
<g id="a_node13"><a xlink:href="TooSigning_8h.html#ab8a2415b95a77c91ffbc6ebbde622f64" target="_top" xlink:title="TooSigning_get_hmac">
<polygon fill="#ffffff" stroke="#000000" points="305,-80 305,-99 418,-99 418,-80 305,-80"/>
<text text-anchor="middle" x="361.5" y="-87" font-family="Helvetica,sans-Serif" font-size="10.00" fill="#000000">TooSigning_get_hmac</text>
</a>
</g>
</g>
<!-- Node161&#45;&gt;Node162 -->
<g id="edge15" class="edge">
<title>Node161&#45;&gt;Node162</title>
<path fill="none" stroke="#191970" d="M273.6179,-103.4054C284.0719,-101.7513 294.736,-100.0639 304.8655,-98.4612"/>
<polygon fill="#191970" stroke="#191970" points="273.0139,-99.9573 263.6838,-104.9773 274.1079,-106.8713 273.0139,-99.9573"/>
</g>
<!-- Node162&#45;&gt;Node153 -->
<g id="edge16" class="edge">
<title>Node162&#45;&gt;Node153</title>
<path fill="none" stroke="#191970" d="M428.5144,-84.8928C441.33,-84.0117 454.6024,-83.0992 466.9684,-82.249"/>
<polygon fill="#191970" stroke="#191970" points="428.0969,-81.4131 418.3605,-85.5908 428.5771,-88.3966 428.0969,-81.4131"/>
</g>
<!-- Node163&#45;&gt;Node153 -->
<g id="edge19" class="edge">
<title>Node163&#45;&gt;Node153</title>
<path fill="none" stroke="#191970" d="M247.5262,-164.3107C292.4152,-173.985 363.0693,-182.5504 418,-158.5 439.6087,-149.039 435.7413,-134.4354 454,-119.5 465.8864,-109.7771 480.2921,-100.7141 492.7376,-93.5945"/>
<polygon fill="#191970" stroke="#191970" points="248.0512,-160.841 237.525,-162.0447 246.5043,-167.668 248.0512,-160.841"/>
</g>
<!-- Node163&#45;&gt;Node159 -->
<g id="edge20" class="edge">
<title>Node163&#45;&gt;Node159</title>
<path fill="none" stroke="#191970" d="M271.8716,-144.2781C283.3541,-142.8973 295.1417,-141.4798 306.2401,-140.1452"/>
<polygon fill="#191970" stroke="#191970" points="271.395,-140.8101 261.8845,-145.4791 272.2308,-147.76 271.395,-140.8101"/>
</g>
</g>
</svg>
