<?xml version="1.0" encoding="UTF-8" standalone="no"?>
<!DOCTYPE svg PUBLIC "-//W3C//DTD SVG 1.1//EN"
 "http://www.w3.org/Graphics/SVG/1.1/DTD/svg11.dtd">
<!-- Generated by graphviz version 2.40.1 (20161225.0304)
 -->
<!-- Title: Sha256Class::hashBlock Pages: 1 -->
<!--zoomable 129 -->
<svg id="main" version="1.1" xmlns="http://www.w3.org/2000/svg" xmlns:xlink="http://www.w3.org/1999/xlink" xml:space="preserve" onload="init(evt)">
<style type="text/css"><![CDATA[
.edge:hover path { stroke: red; }
.edge:hover polygon { stroke: red; fill: red; }
]]></style>
<script type="text/javascript"><![CDATA[
var edges = document.getElementsByTagName('g');
if (edges && edges.length) {
  for (var i=0;i<edges.length;i++) {
    if (edges[i].id.substr(0,4)=='edge') {
      edges[i].setAttribute('class','edge');
    }
  }
}
]]></script>
        <defs>
                <circle id="rim" cx="0" cy="0" r="7"/>
                <circle id="rim2" cx="0" cy="0" r="3.5"/>
                <g id="zoomPlus">
                        <use xlink:href="#rim" fill="#404040">
                                <set attributeName="fill" to="#808080" begin="zoomplus.mouseover" end="zoomplus.mouseout"/>
                        </use>
                        <path d="M-4,0h8M0,-4v8" fill="none" stroke="white" stroke-width="1.5" pointer-events="none"/>
                </g>
                <g id="zoomMin">
                        <use xlink:href="#rim" fill="#404040">
                                <set attributeName="fill" to="#808080" begin="zoomminus.mouseover" end="zoomminus.mouseout"/>
                        </use>
                        <path d="M-4,0h8" fill="none" stroke="white" stroke-width="1.5" pointer-events="none"/>
                </g>
                <g id="dirArrow">
                        <path fill="none" stroke="white" stroke-width="1.5" d="M0,-3.0v7 M-2.5,-0.5L0,-3.0L2.5,-0.5"/>
                </g>
               <g id="resetDef">
                       <use xlink:href="#rim2" fill="#404040">
                               <set attributeName="fill" to="#808080" begin="reset.mouseover" end="reset.mouseout"/>
                       </use>
               </g>
        </defs>

<script type="text/javascript">
var viewWidth = 1050;
var viewHeight = 129;
var sectionId = 'dynsection-4';
</script>
<script xlink:href="svgpan.js"/>
<svg id="graph" class="graph">
<g id="viewport">
<title>Sha256Class::hashBlock</title>
<polygon fill="#ffffff" stroke="transparent" points="-4,4 -4,-125 1046,-125 1046,4 -4,4"/>
<!-- Node16 -->
<g id="node1" class="node">
<title>Node16</title>
<polygon fill="#bfbfbf" stroke="#000000" points="0,-44.5 0,-63.5 127,-63.5 127,-44.5 0,-44.5"/>
<text text-anchor="middle" x="63.5" y="-51.5" font-family="Helvetica,sans-Serif" font-size="10.00" fill="#000000">Sha256Class::hashBlock</text>
</g>
<!-- Node17 -->
<g id="node2" class="node">
<title>Node17</title>
<g id="a_node2"><a xlink:href="classSha256Class.html#ab0b46743e3d59b1c68f52ed89dfaff50" target="_top" xlink:title="Sha256Class::addUncounted">
<polygon fill="#ffffff" stroke="#000000" points="163,-44.5 163,-63.5 307,-63.5 307,-44.5 163,-44.5"/>
<text text-anchor="middle" x="235" y="-51.5" font-family="Helvetica,sans-Serif" font-size="10.00" fill="#000000">Sha256Class::addUncounted</text>
</a>
</g>
</g>
<!-- Node16&#45;&gt;Node17 -->
<g id="edge1" class="edge">
<title>Node16&#45;&gt;Node17</title>
<path fill="none" stroke="#191970" d="M137.4728,-54C145.8434,-54 154.3666,-54 162.7152,-54"/>
<polygon fill="#191970" stroke="#191970" points="137.3603,-50.5001 127.3603,-54 137.3602,-57.5001 137.3603,-50.5001"/>
</g>
<!-- Node18 -->
<g id="node3" class="node">
<title>Node18</title>
<g id="a_node3"><a xlink:href="classSha256Class.html#a0f0fc4bd4d8c53d232df0d41d7ea25e0" target="_top" xlink:title="Sha256Class::write">
<polygon fill="#ffffff" stroke="#000000" points="477.5,-63.5 477.5,-82.5 579.5,-82.5 579.5,-63.5 477.5,-63.5"/>
<text text-anchor="middle" x="528.5" y="-70.5" font-family="Helvetica,sans-Serif" font-size="10.00" fill="#000000">Sha256Class::write</text>
</a>
</g>
</g>
<!-- Node17&#45;&gt;Node18 -->
<g id="edge2" class="edge">
<title>Node17&#45;&gt;Node18</title>
<path fill="none" stroke="#191970" d="M317.2671,-59.3256C368.6598,-62.6526 433.2228,-66.8321 477.3572,-69.6892"/>
<polygon fill="#191970" stroke="#191970" points="317.3793,-55.8257 307.1741,-58.6723 316.9271,-62.811 317.3793,-55.8257"/>
</g>
<!-- Node26 -->
<g id="node11" class="node">
<title>Node26</title>
<g id="a_node11"><a xlink:href="classSha256Class.html#a82049dae520ccf0bd8478f2aef639149" target="_top" xlink:title="Sha256Class::pad">
<polygon fill="#ffffff" stroke="#000000" points="343,-25.5 343,-44.5 440,-44.5 440,-25.5 343,-25.5"/>
<text text-anchor="middle" x="391.5" y="-32.5" font-family="Helvetica,sans-Serif" font-size="10.00" fill="#000000">Sha256Class::pad</text>
</a>
</g>
</g>
<!-- Node17&#45;&gt;Node26 -->
<g id="edge14" class="edge">
<title>Node17&#45;&gt;Node26</title>
<path fill="none" stroke="#191970" d="M317.4503,-43.9901C326.0962,-42.9404 334.6735,-41.8991 342.7583,-40.9175"/>
<polygon fill="#191970" stroke="#191970" points="316.7999,-40.5432 307.2947,-45.223 317.6436,-47.4922 316.7999,-40.5432"/>
</g>
<!-- Node19 -->
<g id="node4" class="node">
<title>Node19</title>
<g id="a_node4"><a xlink:href="classSha256Class.html#a73d3dcea6eb667fd146d12aa5d106939" target="_top" xlink:title="Sha256Class::initHmac">
<polygon fill="#ffffff" stroke="#000000" points="622.5,-25.5 622.5,-44.5 742.5,-44.5 742.5,-25.5 622.5,-25.5"/>
<text text-anchor="middle" x="682.5" y="-32.5" font-family="Helvetica,sans-Serif" font-size="10.00" fill="#000000">Sha256Class::initHmac</text>
</a>
</g>
</g>
<!-- Node18&#45;&gt;Node19 -->
<g id="edge3" class="edge">
<title>Node18&#45;&gt;Node19</title>
<path fill="none" stroke="#191970" d="M577.2937,-60.96C598.8082,-55.6512 623.7318,-49.5012 643.9187,-44.5201"/>
<polygon fill="#191970" stroke="#191970" points="576.231,-57.6172 567.3607,-63.411 577.908,-64.4133 576.231,-57.6172"/>
</g>
<!-- Node23 -->
<g id="node8" class="node">
<title>Node23</title>
<g id="a_node8"><a xlink:href="classSha256Class.html#a7556f29cadf7eaca21a537df41318af3" target="_top" xlink:title="Sha256Class::resultHmac">
<polygon fill="#ffffff" stroke="#000000" points="617,-63.5 617,-82.5 748,-82.5 748,-63.5 617,-63.5"/>
<text text-anchor="middle" x="682.5" y="-70.5" font-family="Helvetica,sans-Serif" font-size="10.00" fill="#000000">Sha256Class::resultHmac</text>
</a>
</g>
</g>
<!-- Node18&#45;&gt;Node23 -->
<g id="edge7" class="edge">
<title>Node18&#45;&gt;Node23</title>
<path fill="none" stroke="#191970" d="M590.0102,-73C598.8617,-73 607.9981,-73 616.925,-73"/>
<polygon fill="#191970" stroke="#191970" points="589.7798,-69.5001 579.7798,-73 589.7797,-76.5001 589.7798,-69.5001"/>
</g>
<!-- Node25 -->
<g id="node10" class="node">
<title>Node25</title>
<g id="a_node10"><a xlink:href="group__TOOSIGNING__HASHING.html#gafb2935303b05255e80a7a6fa4be7cf57" target="_top" xlink:title="TooSigning_hash_data">
<polygon fill="#ffffff" stroke="#000000" points="624.5,-101.5 624.5,-120.5 740.5,-120.5 740.5,-101.5 624.5,-101.5"/>
<text text-anchor="middle" x="682.5" y="-108.5" font-family="Helvetica,sans-Serif" font-size="10.00" fill="#000000">TooSigning_hash_data</text>
</a>
</g>
</g>
<!-- Node18&#45;&gt;Node25 -->
<g id="edge11" class="edge">
<title>Node18&#45;&gt;Node25</title>
<path fill="none" stroke="#191970" d="M577.2937,-85.04C598.8082,-90.3488 623.7318,-96.4988 643.9187,-101.4799"/>
<polygon fill="#191970" stroke="#191970" points="577.908,-81.5867 567.3607,-82.589 576.231,-88.3828 577.908,-81.5867"/>
</g>
<!-- Node20 -->
<g id="node5" class="node">
<title>Node20</title>
<g id="a_node5"><a xlink:href="TooSigning_8h.html#a1e2cd2b37702263e1fe166395350bf08" target="_top" xlink:title="TooSigning_init_hmac">
<polygon fill="#ffffff" stroke="#000000" points="784,-.5 784,-19.5 897,-19.5 897,-.5 784,-.5"/>
<text text-anchor="middle" x="840.5" y="-7.5" font-family="Helvetica,sans-Serif" font-size="10.00" fill="#000000">TooSigning_init_hmac</text>
</a>
</g>
</g>
<!-- Node19&#45;&gt;Node20 -->
<g id="edge4" class="edge">
<title>Node19&#45;&gt;Node20</title>
<path fill="none" stroke="#191970" d="M752.6179,-23.9054C763.0719,-22.2513 773.736,-20.5639 783.8655,-18.9612"/>
<polygon fill="#191970" stroke="#191970" points="752.0139,-20.4573 742.6838,-25.4773 753.1079,-27.3713 752.0139,-20.4573"/>
</g>
<!-- Node22 -->
<g id="node7" class="node">
<title>Node22</title>
<g id="a_node7"><a xlink:href="TooSigning_8cpp.html#a03df9fd005c518d1114f912ae7da9f06" target="_top" xlink:title="TooSigning_unsigned\l_network_available">
<polygon fill="#ffffff" stroke="#000000" points="785.5,-39 785.5,-69 895.5,-69 895.5,-39 785.5,-39"/>
<text text-anchor="start" x="793.5" y="-57" font-family="Helvetica,sans-Serif" font-size="10.00" fill="#000000">TooSigning_unsigned</text>
<text text-anchor="middle" x="840.5" y="-46" font-family="Helvetica,sans-Serif" font-size="10.00" fill="#000000">_network_available</text>
</a>
</g>
</g>
<!-- Node19&#45;&gt;Node22 -->
<g id="edge6" class="edge">
<title>Node19&#45;&gt;Node22</title>
<path fill="none" stroke="#191970" d="M752.6701,-43.4382C763.6414,-44.7575 774.8427,-46.1045 785.4134,-47.3757"/>
<polygon fill="#191970" stroke="#191970" points="753.0301,-39.9563 742.6838,-42.2373 752.1943,-46.9063 753.0301,-39.9563"/>
</g>
<!-- Node21 -->
<g id="node6" class="node">
<title>Node21</title>
<g id="a_node6"><a xlink:href="TooNetworking_8h.html#ab5dfe46515ee5ca8f9893675df673d96" target="_top" xlink:title="TooNetworking_send\l_signed">
<polygon fill="#ffffff" stroke="#000000" points="933,-83 933,-113 1042,-113 1042,-83 933,-83"/>
<text text-anchor="start" x="941" y="-101" font-family="Helvetica,sans-Serif" font-size="10.00" fill="#000000">TooNetworking_send</text>
<text text-anchor="middle" x="987.5" y="-90" font-family="Helvetica,sans-Serif" font-size="10.00" fill="#000000">_signed</text>
</a>
</g>
</g>
<!-- Node20&#45;&gt;Node21 -->
<g id="edge5" class="edge">
<title>Node20&#45;&gt;Node21</title>
<path fill="none" stroke="#191970" d="M884.3101,-23.1251C888.6815,-24.9089 892.9836,-26.8685 897,-29 925.2725,-44.0043 954.0035,-67.6499 971.2909,-82.9917"/>
<polygon fill="#191970" stroke="#191970" points="885.3055,-19.7598 874.7138,-19.5022 882.8331,-26.3087 885.3055,-19.7598"/>
</g>
<!-- Node23&#45;&gt;Node22 -->
<g id="edge10" class="edge">
<title>Node23&#45;&gt;Node22</title>
<path fill="none" stroke="#191970" d="M758.0697,-63.9125C767.2707,-62.8061 776.534,-61.6921 785.3589,-60.6309"/>
<polygon fill="#191970" stroke="#191970" points="757.6442,-60.4384 748.1336,-65.1074 758.48,-67.3883 757.6442,-60.4384"/>
</g>
<!-- Node24 -->
<g id="node9" class="node">
<title>Node24</title>
<g id="a_node9"><a xlink:href="TooSigning_8h.html#ab8a2415b95a77c91ffbc6ebbde622f64" target="_top" xlink:title="TooSigning_get_hmac">
<polygon fill="#ffffff" stroke="#000000" points="784,-88.5 784,-107.5 897,-107.5 897,-88.5 784,-88.5"/>
<text text-anchor="middle" x="840.5" y="-95.5" font-family="Helvetica,sans-Serif" font-size="10.00" fill="#000000">TooSigning_get_hmac</text>
</a>
</g>
</g>
<!-- Node23&#45;&gt;Node24 -->
<g id="edge8" class="edge">
<title>Node23&#45;&gt;Node24</title>
<path fill="none" stroke="#191970" d="M752.6179,-84.0946C763.0719,-85.7487 773.736,-87.4361 783.8655,-89.0388"/>
<polygon fill="#191970" stroke="#191970" points="753.1079,-80.6287 742.6838,-82.5227 752.0139,-87.5427 753.1079,-80.6287"/>
</g>
<!-- Node24&#45;&gt;Node21 -->
<g id="edge9" class="edge">
<title>Node24&#45;&gt;Node21</title>
<path fill="none" stroke="#191970" d="M907.5402,-98C915.9787,-98 924.5317,-98 932.7496,-98"/>
<polygon fill="#191970" stroke="#191970" points="907.3341,-94.5001 897.334,-98 907.334,-101.5001 907.3341,-94.5001"/>
</g>
<!-- Node25&#45;&gt;Node21 -->
<g id="edge12" class="edge">
<title>Node25&#45;&gt;Node21</title>
<path fill="none" stroke="#191970" d="M751.0831,-117.4879C793.2734,-120.3466 848.39,-122.0477 897,-117 908.657,-115.7895 921.0248,-113.7244 932.7501,-111.3906"/>
<polygon fill="#191970" stroke="#191970" points="751.146,-113.9835 740.9215,-116.7603 750.646,-120.9656 751.146,-113.9835"/>
</g>
<!-- Node25&#45;&gt;Node22 -->
<g id="edge13" class="edge">
<title>Node25&#45;&gt;Node22</title>
<path fill="none" stroke="#191970" d="M727.8792,-98.5247C734.6612,-96.4617 741.5412,-94.2561 748,-92 767.5043,-85.187 788.8631,-76.4969 806.1377,-69.147"/>
<polygon fill="#191970" stroke="#191970" points="726.6644,-95.2342 718.0732,-101.4344 728.6557,-101.945 726.6644,-95.2342"/>
</g>
<!-- Node27 -->
<g id="node12" class="node">
<title>Node27</title>
<g id="a_node12"><a xlink:href="classSha256Class.html#a0ca245a22f8b056a3d1902da3c64b705" target="_top" xlink:title="Sha256Class::result">
<polygon fill="#ffffff" stroke="#000000" points="476,-25.5 476,-44.5 581,-44.5 581,-25.5 476,-25.5"/>
<text text-anchor="middle" x="528.5" y="-32.5" font-family="Helvetica,sans-Serif" font-size="10.00" fill="#000000">Sha256Class::result</text>
</a>
</g>
</g>
<!-- Node26&#45;&gt;Node27 -->
<g id="edge15" class="edge">
<title>Node26&#45;&gt;Node27</title>
<path fill="none" stroke="#191970" d="M450.3612,-35C458.8127,-35 467.4639,-35 475.7863,-35"/>
<polygon fill="#191970" stroke="#191970" points="450.1869,-31.5001 440.1868,-35 450.1868,-38.5001 450.1869,-31.5001"/>
</g>
<!-- Node27&#45;&gt;Node19 -->
<g id="edge16" class="edge">
<title>Node27&#45;&gt;Node19</title>
<path fill="none" stroke="#191970" d="M591.2416,-35C601.5627,-35 612.2379,-35 622.4902,-35"/>
<polygon fill="#191970" stroke="#191970" points="591.0674,-31.5001 581.0673,-35 591.0673,-38.5001 591.0674,-31.5001"/>
</g>
<!-- Node27&#45;&gt;Node23 -->
<g id="edge17" class="edge">
<title>Node27&#45;&gt;Node23</title>
<path fill="none" stroke="#191970" d="M577.2937,-47.04C598.8082,-52.3488 623.7318,-58.4988 643.9187,-63.4799"/>
<polygon fill="#191970" stroke="#191970" points="577.908,-43.5867 567.3607,-44.589 576.231,-50.3828 577.908,-43.5867"/>
</g>
</g>
</svg>
        <g id="navigator" transform="translate(0 0)" fill="#404254">
                <rect fill="#f2f5e9" fill-opacity="0.5" stroke="#606060" stroke-width=".5" x="0" y="0" width="60" height="60"/>
                <use id="zoomplus" xlink:href="#zoomPlus" x="17" y="9" onmousedown="handleZoom(evt,'in')"/>
                <use id="zoomminus" xlink:href="#zoomMin" x="42" y="9" onmousedown="handleZoom(evt,'out')"/>
                <use id="reset" xlink:href="#resetDef" x="30" y="36" onmousedown="handleReset()"/>
                <g id="arrowUp" xlink:href="#dirArrow" transform="translate(30 24)" onmousedown="handlePan(0,-1)">
                  <use xlink:href="#rim" fill="#404040">
                        <set attributeName="fill" to="#808080" begin="arrowUp.mouseover" end="arrowUp.mouseout"/>
                  </use>
                  <path fill="none" stroke="white" stroke-width="1.5" d="M0,-3.0v7 M-2.5,-0.5L0,-3.0L2.5,-0.5"/>
                </g>
                <g id="arrowRight" xlink:href="#dirArrow" transform="rotate(90) translate(36 -43)" onmousedown="handlePan(1,0)">
                  <use xlink:href="#rim" fill="#404040">
                        <set attributeName="fill" to="#808080" begin="arrowRight.mouseover" end="arrowRight.mouseout"/>
                  </use>
                  <path fill="none" stroke="white" stroke-width="1.5" d="M0,-3.0v7 M-2.5,-0.5L0,-3.0L2.5,-0.5"/>
                </g>
                <g id="arrowDown" xlink:href="#dirArrow" transform="rotate(180) translate(-30 -48)" onmousedown="handlePan(0,1)">
                  <use xlink:href="#rim" fill="#404040">
                        <set attributeName="fill" to="#808080" begin="arrowDown.mouseover" end="arrowDown.mouseout"/>
                  </use>
                  <path fill="none" stroke="white" stroke-width="1.5" d="M0,-3.0v7 M-2.5,-0.5L0,-3.0L2.5,-0.5"/>
                </g>
                <g id="arrowLeft" xlink:href="#dirArrow" transform="rotate(270) translate(-36 17)" onmousedown="handlePan(-1,0)">
                  <use xlink:href="#rim" fill="#404040">
                        <set attributeName="fill" to="#808080" begin="arrowLeft.mouseover" end="arrowLeft.mouseout"/>
                  </use>
                  <path fill="none" stroke="white" stroke-width="1.5" d="M0,-3.0v7 M-2.5,-0.5L0,-3.0L2.5,-0.5"/>
                </g>
        </g>
        <svg viewBox="0 0 15 15" width="100%" height="30px" preserveAspectRatio="xMaxYMin meet">
         <g id="arrow_out" transform="scale(0.3 0.3)">
          <a xlink:href="classSha256Class_a399d2a23951e2130f54af8ac7712068f_icgraph_org.svg" target="_base">
           <rect id="button" ry="5" rx="5" y="6" x="6" height="38" width="38"
                fill="#f2f5e9" fill-opacity="0.5" stroke="#606060" stroke-width="1.0"/>
           <path id="arrow"
             d="M 11.500037,31.436501 C 11.940474,20.09759 22.043105,11.32322 32.158766,21.979434 L 37.068811,17.246167 C 37.068811,17.246167 37.088388,32 37.088388,32 L 22.160133,31.978069 C 22.160133,31.978069 26.997745,27.140456 26.997745,27.140456 C 18.528582,18.264221 13.291696,25.230495 11.500037,31.436501 z"
             style="fill:#404040;"/>
          </a>
         </g>
        </svg>
</svg>
