<?xml version="1.0" encoding="UTF-8" standalone="no"?>
<!DOCTYPE svg PUBLIC "-//W3C//DTD SVG 1.1//EN"
 "http://www.w3.org/Graphics/SVG/1.1/DTD/svg11.dtd">
<!-- Generated by graphviz version 2.40.1 (20161225.0304)
 -->
<!-- Title: Sha256Class::init Pages: 1 -->
<svg width="1003pt" height="185pt"
 viewBox="0.00 0.00 1003.00 184.50" xmlns="http://www.w3.org/2000/svg" xmlns:xlink="http://www.w3.org/1999/xlink">
<g id="graph0" class="graph" transform="scale(1 1) rotate(0) translate(4 180.5)">
<title>Sha256Class::init</title>
<polygon fill="#ffffff" stroke="transparent" points="-4,4 -4,-180.5 999,-180.5 999,4 -4,4"/>
<!-- Node41 -->
<g id="node1" class="node">
<title>Node41</title>
<polygon fill="#bfbfbf" stroke="#000000" points="0,-113 0,-132 94,-132 94,-113 0,-113"/>
<text text-anchor="middle" x="47" y="-120" font-family="Helvetica,sans-Serif" font-size="10.00" fill="#000000">Sha256Class::init</text>
</g>
<!-- Node42 -->
<g id="node2" class="node">
<title>Node42</title>
<g id="a_node2"><a xlink:href="classSha256Class.html#a73d3dcea6eb667fd146d12aa5d106939" target="_top" xlink:title="Sha256Class::initHmac">
<polygon fill="#ffffff" stroke="#000000" points="135.5,-94 135.5,-113 255.5,-113 255.5,-94 135.5,-94"/>
<text text-anchor="middle" x="195.5" y="-101" font-family="Helvetica,sans-Serif" font-size="10.00" fill="#000000">Sha256Class::initHmac</text>
</a>
</g>
</g>
<!-- Node41&#45;&gt;Node42 -->
<g id="edge1" class="edge">
<title>Node41&#45;&gt;Node42</title>
<path fill="none" stroke="#191970" d="M104.3424,-115.1633C114.4678,-113.8678 125.0362,-112.5156 135.239,-111.2102"/>
<polygon fill="#191970" stroke="#191970" points="103.8695,-111.6951 94.3946,-116.436 104.758,-118.6385 103.8695,-111.6951"/>
</g>
<!-- Node52 -->
<g id="node12" class="node">
<title>Node52</title>
<g id="a_node12"><a xlink:href="classSha256Class.html#a7556f29cadf7eaca21a537df41318af3" target="_top" xlink:title="Sha256Class::resultHmac">
<polygon fill="#ffffff" stroke="#000000" points="130,-132 130,-151 261,-151 261,-132 130,-132"/>
<text text-anchor="middle" x="195.5" y="-139" font-family="Helvetica,sans-Serif" font-size="10.00" fill="#000000">Sha256Class::resultHmac</text>
</a>
</g>
</g>
<!-- Node41&#45;&gt;Node52 -->
<g id="edge14" class="edge">
<title>Node41&#45;&gt;Node52</title>
<path fill="none" stroke="#191970" d="M104.3941,-129.8434C112.7387,-130.911 121.3832,-132.017 129.8752,-133.1036"/>
<polygon fill="#191970" stroke="#191970" points="104.758,-126.3615 94.3946,-128.564 103.8695,-133.3049 104.758,-126.3615"/>
</g>
<!-- Node43 -->
<g id="node3" class="node">
<title>Node43</title>
<g id="a_node3"><a xlink:href="TooSigning_8h.html#a1e2cd2b37702263e1fe166395350bf08" target="_top" xlink:title="TooSigning_init_hmac">
<polygon fill="#ffffff" stroke="#000000" points="297,-69 297,-88 410,-88 410,-69 297,-69"/>
<text text-anchor="middle" x="353.5" y="-76" font-family="Helvetica,sans-Serif" font-size="10.00" fill="#000000">TooSigning_init_hmac</text>
</a>
</g>
</g>
<!-- Node42&#45;&gt;Node43 -->
<g id="edge2" class="edge">
<title>Node42&#45;&gt;Node43</title>
<path fill="none" stroke="#191970" d="M265.6179,-92.4054C276.0719,-90.7513 286.736,-89.0639 296.8655,-87.4612"/>
<polygon fill="#191970" stroke="#191970" points="265.0139,-88.9573 255.6838,-93.9773 266.1079,-95.8713 265.0139,-88.9573"/>
</g>
<!-- Node50 -->
<g id="node10" class="node">
<title>Node50</title>
<g id="a_node10"><a xlink:href="TooSigning_8cpp.html#a03df9fd005c518d1114f912ae7da9f06" target="_top" xlink:title="TooSigning_unsigned\l_network_available">
<polygon fill="#ffffff" stroke="#000000" points="298.5,-107.5 298.5,-137.5 408.5,-137.5 408.5,-107.5 298.5,-107.5"/>
<text text-anchor="start" x="306.5" y="-125.5" font-family="Helvetica,sans-Serif" font-size="10.00" fill="#000000">TooSigning_unsigned</text>
<text text-anchor="middle" x="353.5" y="-114.5" font-family="Helvetica,sans-Serif" font-size="10.00" fill="#000000">_network_available</text>
</a>
</g>
</g>
<!-- Node42&#45;&gt;Node50 -->
<g id="edge11" class="edge">
<title>Node42&#45;&gt;Node50</title>
<path fill="none" stroke="#191970" d="M265.6701,-111.9382C276.6414,-113.2575 287.8427,-114.6045 298.4134,-115.8757"/>
<polygon fill="#191970" stroke="#191970" points="266.0301,-108.4563 255.6838,-110.7373 265.1943,-115.4063 266.0301,-108.4563"/>
</g>
<!-- Node44 -->
<g id="node4" class="node">
<title>Node44</title>
<g id="a_node4"><a xlink:href="TooNetworking_8h.html#a9f893c3218491ee86282fdcd9f376500" target="_top" xlink:title="TooNetworking_send\l_signed_">
<polygon fill="#ffffff" stroke="#000000" points="459,-63.5 459,-93.5 568,-93.5 568,-63.5 459,-63.5"/>
<text text-anchor="start" x="467" y="-81.5" font-family="Helvetica,sans-Serif" font-size="10.00" fill="#000000">TooNetworking_send</text>
<text text-anchor="middle" x="513.5" y="-70.5" font-family="Helvetica,sans-Serif" font-size="10.00" fill="#000000">_signed_</text>
</a>
</g>
</g>
<!-- Node43&#45;&gt;Node44 -->
<g id="edge3" class="edge">
<title>Node43&#45;&gt;Node44</title>
<path fill="none" stroke="#191970" d="M420.5144,-78.5C433.33,-78.5 446.6024,-78.5 458.9684,-78.5"/>
<polygon fill="#191970" stroke="#191970" points="420.3606,-75.0001 410.3605,-78.5 420.3605,-82.0001 420.3606,-75.0001"/>
</g>
<!-- Node45 -->
<g id="node5" class="node">
<title>Node45</title>
<g id="a_node5"><a xlink:href="TooNetworking_8h.html#a59be7e774988f57ab43c4c078c570c67" target="_top" xlink:title="TooNetworking_bufferlist_add">
<polygon fill="#ffffff" stroke="#000000" points="617,-25 617,-44 763,-44 763,-25 617,-25"/>
<text text-anchor="middle" x="690" y="-32" font-family="Helvetica,sans-Serif" font-size="10.00" fill="#000000">TooNetworking_bufferlist_add</text>
</a>
</g>
</g>
<!-- Node44&#45;&gt;Node45 -->
<g id="edge4" class="edge">
<title>Node44&#45;&gt;Node45</title>
<path fill="none" stroke="#191970" d="M578.3869,-62.3242C603.0156,-56.1845 630.2602,-49.3926 651.6664,-44.0562"/>
<polygon fill="#191970" stroke="#191970" points="577.2346,-59.0043 568.3782,-64.8193 578.9279,-65.7964 577.2346,-59.0043"/>
</g>
<!-- Node46 -->
<g id="node6" class="node">
<title>Node46</title>
<g id="a_node6"><a xlink:href="TooNetworking_8h.html#a9209f3e1a2fdf0b3b88d49105b8fc359" target="_top" xlink:title="TooNetworking_send\l_signed">
<polygon fill="#ffffff" stroke="#000000" points="807,-.5 807,-30.5 916,-30.5 916,-.5 807,-.5"/>
<text text-anchor="start" x="815" y="-18.5" font-family="Helvetica,sans-Serif" font-size="10.00" fill="#000000">TooNetworking_send</text>
<text text-anchor="middle" x="861.5" y="-7.5" font-family="Helvetica,sans-Serif" font-size="10.00" fill="#000000">_signed</text>
</a>
</g>
</g>
<!-- Node44&#45;&gt;Node46 -->
<g id="edge8" class="edge">
<title>Node44&#45;&gt;Node46</title>
<path fill="none" stroke="#191970" d="M539.4215,-57.1417C559.287,-42.2298 588.112,-23.6007 617,-15.5 680.3507,2.2645 756.6195,-1.4827 806.9395,-7.2046"/>
<polygon fill="#191970" stroke="#191970" points="537.2643,-54.3853 531.4822,-63.2633 541.5386,-59.9288 537.2643,-54.3853"/>
</g>
<!-- Node47 -->
<g id="node7" class="node">
<title>Node47</title>
<g id="a_node7"><a xlink:href="TooNetworking_8h.html#a085ff748b00f6be4ebafcae2bb0dded1" target="_top" xlink:title="TooNetworking_bufferlist\l_send_signed">
<polygon fill="#ffffff" stroke="#000000" points="799,-101.5 799,-131.5 924,-131.5 924,-101.5 799,-101.5"/>
<text text-anchor="start" x="807" y="-119.5" font-family="Helvetica,sans-Serif" font-size="10.00" fill="#000000">TooNetworking_bufferlist</text>
<text text-anchor="middle" x="861.5" y="-108.5" font-family="Helvetica,sans-Serif" font-size="10.00" fill="#000000">_send_signed</text>
</a>
</g>
</g>
<!-- Node44&#45;&gt;Node47 -->
<g id="edge9" class="edge">
<title>Node44&#45;&gt;Node47</title>
<path fill="none" stroke="#191970" d="M577.4495,-95.8859C590.4532,-98.872 604.1003,-101.6155 617,-103.5 678.4097,-112.4713 749.2991,-115.438 798.8816,-116.3312"/>
<polygon fill="#191970" stroke="#191970" points="578.1915,-92.4648 567.6539,-93.5652 576.5777,-99.2763 578.1915,-92.4648"/>
</g>
<!-- Node49 -->
<g id="node9" class="node">
<title>Node49</title>
<g id="a_node9"><a xlink:href="TooNetworking_8h.html#ab58e06e0eb6f2f8ecbebeaf3c173fb22" target="_top" xlink:title="TooNetworking_bufferlist\l_send_all">
<polygon fill="#ffffff" stroke="#000000" points="627.5,-63.5 627.5,-93.5 752.5,-93.5 752.5,-63.5 627.5,-63.5"/>
<text text-anchor="start" x="635.5" y="-81.5" font-family="Helvetica,sans-Serif" font-size="10.00" fill="#000000">TooNetworking_bufferlist</text>
<text text-anchor="middle" x="690" y="-70.5" font-family="Helvetica,sans-Serif" font-size="10.00" fill="#000000">_send_all</text>
</a>
</g>
</g>
<!-- Node44&#45;&gt;Node49 -->
<g id="edge10" class="edge">
<title>Node44&#45;&gt;Node49</title>
<path fill="none" stroke="#191970" d="M578.6736,-78.5C594.6138,-78.5 611.6343,-78.5 627.4486,-78.5"/>
<polygon fill="#191970" stroke="#191970" points="578.3782,-75.0001 568.3782,-78.5 578.3782,-82.0001 578.3782,-75.0001"/>
</g>
<!-- Node45&#45;&gt;Node46 -->
<g id="edge5" class="edge">
<title>Node45&#45;&gt;Node46</title>
<path fill="none" stroke="#191970" d="M773.2478,-25.2772C784.6894,-24.0096 796.1905,-22.7355 806.9353,-21.5451"/>
<polygon fill="#191970" stroke="#191970" points="772.7827,-21.8072 763.2289,-26.3872 773.5535,-28.7647 772.7827,-21.8072"/>
</g>
<!-- Node45&#45;&gt;Node47 -->
<g id="edge6" class="edge">
<title>Node45&#45;&gt;Node47</title>
<path fill="none" stroke="#191970" d="M743.1151,-47.0651C749.9153,-49.2495 756.6969,-51.726 763,-54.5 791.8513,-67.1977 822.1168,-87.443 841.3594,-101.3222"/>
<polygon fill="#191970" stroke="#191970" points="743.7771,-43.6091 733.1925,-44.073 741.7562,-50.3111 743.7771,-43.6091"/>
</g>
<!-- Node48 -->
<g id="node8" class="node">
<title>Node48</title>
<g id="a_node8"><a xlink:href="NODE__SKETCH__TooAutomation__Node_8ino_8cpp.html#a0b33edabd7f1c4e4a0bf32c67269be2f" target="_top" xlink:title="loop">
<polygon fill="#ffffff" stroke="#000000" points="960,-129 960,-148 995,-148 995,-129 960,-129"/>
<text text-anchor="middle" x="977.5" y="-136" font-family="Helvetica,sans-Serif" font-size="10.00" fill="#000000">loop</text>
</a>
</g>
</g>
<!-- Node47&#45;&gt;Node48 -->
<g id="edge7" class="edge">
<title>Node47&#45;&gt;Node48</title>
<path fill="none" stroke="#191970" d="M934.2178,-130.2913C943.6312,-132.0766 952.4907,-133.7569 959.7123,-135.1265"/>
<polygon fill="#191970" stroke="#191970" points="934.7301,-126.8262 924.2531,-128.4014 933.4257,-133.7036 934.7301,-126.8262"/>
</g>
<!-- Node51 -->
<g id="node11" class="node">
<title>Node51</title>
<g id="a_node11"><a xlink:href="TooNetworking_8h.html#a7382ba1aed5405c3adc02011ea6c45dd" target="_top" xlink:title="TooNetworking_connection\l_maintenance">
<polygon fill="#ffffff" stroke="#000000" points="446,-128.5 446,-158.5 581,-158.5 581,-128.5 446,-128.5"/>
<text text-anchor="start" x="454" y="-146.5" font-family="Helvetica,sans-Serif" font-size="10.00" fill="#000000">TooNetworking_connection</text>
<text text-anchor="middle" x="513.5" y="-135.5" font-family="Helvetica,sans-Serif" font-size="10.00" fill="#000000">_maintenance</text>
</a>
</g>
</g>
<!-- Node50&#45;&gt;Node51 -->
<g id="edge12" class="edge">
<title>Node50&#45;&gt;Node51</title>
<path fill="none" stroke="#191970" d="M418.587,-131.0427C427.5862,-132.2238 436.8465,-133.4392 445.8902,-134.6262"/>
<polygon fill="#191970" stroke="#191970" points="418.9334,-127.5582 408.5629,-129.727 418.0224,-134.4987 418.9334,-127.5582"/>
</g>
<!-- Node51&#45;&gt;Node48 -->
<g id="edge13" class="edge">
<title>Node51&#45;&gt;Node48</title>
<path fill="none" stroke="#191970" d="M591.1278,-144.303C673.6888,-144.8805 808.0908,-145.0298 924,-141.5 935.902,-141.1375 949.277,-140.3875 959.6765,-139.7282"/>
<polygon fill="#191970" stroke="#191970" points="591.0984,-140.8028 581.0728,-144.2287 591.0466,-147.8026 591.0984,-140.8028"/>
</g>
<!-- Node52&#45;&gt;Node50 -->
<g id="edge17" class="edge">
<title>Node52&#45;&gt;Node50</title>
<path fill="none" stroke="#191970" d="M271.0697,-132.4125C280.2707,-131.3061 289.534,-130.1921 298.3589,-129.1309"/>
<polygon fill="#191970" stroke="#191970" points="270.6442,-128.9384 261.1336,-133.6074 271.48,-135.8883 270.6442,-128.9384"/>
</g>
<!-- Node53 -->
<g id="node13" class="node">
<title>Node53</title>
<g id="a_node13"><a xlink:href="TooSigning_8h.html#ab8a2415b95a77c91ffbc6ebbde622f64" target="_top" xlink:title="TooSigning_get_hmac">
<polygon fill="#ffffff" stroke="#000000" points="297,-157 297,-176 410,-176 410,-157 297,-157"/>
<text text-anchor="middle" x="353.5" y="-164" font-family="Helvetica,sans-Serif" font-size="10.00" fill="#000000">TooSigning_get_hmac</text>
</a>
</g>
</g>
<!-- Node52&#45;&gt;Node53 -->
<g id="edge15" class="edge">
<title>Node52&#45;&gt;Node53</title>
<path fill="none" stroke="#191970" d="M265.6179,-152.5946C276.0719,-154.2487 286.736,-155.9361 296.8655,-157.5388"/>
<polygon fill="#191970" stroke="#191970" points="266.1079,-149.1287 255.6838,-151.0227 265.0139,-156.0427 266.1079,-149.1287"/>
</g>
<!-- Node53&#45;&gt;Node44 -->
<g id="edge16" class="edge">
<title>Node53&#45;&gt;Node44</title>
<path fill="none" stroke="#191970" d="M397.5037,-153.3438C401.8115,-151.5712 406.0466,-149.6226 410,-147.5 427.8587,-137.9118 429.3102,-131.0028 446,-119.5 459.2088,-110.3964 474.4432,-101.0501 487.0926,-93.5844"/>
<polygon fill="#191970" stroke="#191970" points="396.1412,-150.1174 388.0378,-156.9428 398.6289,-156.6604 396.1412,-150.1174"/>
</g>
</g>
</svg>
