<?xml version="1.0" encoding="UTF-8" standalone="no"?>
<!DOCTYPE svg PUBLIC "-//W3C//DTD SVG 1.1//EN"
 "http://www.w3.org/Graphics/SVG/1.1/DTD/svg11.dtd">
<!-- Generated by graphviz version 2.40.1 (20161225.0304)
 -->
<!-- Title: Sha256Class::result Pages: 1 -->
<!--zoomable 185 -->
<svg id="main" version="1.1" xmlns="http://www.w3.org/2000/svg" xmlns:xlink="http://www.w3.org/1999/xlink" xml:space="preserve" onload="init(evt)">
<style type="text/css"><![CDATA[
.edge:hover path { stroke: red; }
.edge:hover polygon { stroke: red; fill: red; }
]]></style>
<script type="text/javascript"><![CDATA[
var edges = document.getElementsByTagName('g');
if (edges && edges.length) {
  for (var i=0;i<edges.length;i++) {
    if (edges[i].id.substr(0,4)=='edge') {
      edges[i].setAttribute('class','edge');
    }
  }
}
]]></script>
        <defs>
                <circle id="rim" cx="0" cy="0" r="7"/>
                <circle id="rim2" cx="0" cy="0" r="3.5"/>
                <g id="zoomPlus">
                        <use xlink:href="#rim" fill="#404040">
                                <set attributeName="fill" to="#808080" begin="zoomplus.mouseover" end="zoomplus.mouseout"/>
                        </use>
                        <path d="M-4,0h8M0,-4v8" fill="none" stroke="white" stroke-width="1.5" pointer-events="none"/>
                </g>
                <g id="zoomMin">
                        <use xlink:href="#rim" fill="#404040">
                                <set attributeName="fill" to="#808080" begin="zoomminus.mouseover" end="zoomminus.mouseout"/>
                        </use>
                        <path d="M-4,0h8" fill="none" stroke="white" stroke-width="1.5" pointer-events="none"/>
                </g>
                <g id="dirArrow">
                        <path fill="none" stroke="white" stroke-width="1.5" d="M0,-3.0v7 M-2.5,-0.5L0,-3.0L2.5,-0.5"/>
                </g>
               <g id="resetDef">
                       <use xlink:href="#rim2" fill="#404040">
                               <set attributeName="fill" to="#808080" begin="reset.mouseover" end="reset.mouseout"/>
                       </use>
               </g>
        </defs>

<script type="text/javascript">
var viewWidth = 1014;
var viewHeight = 185;
var sectionId = 'dynsection-11';
</script>
<script xlink:href="svgpan.js"/>
<svg id="graph" class="graph">
<g id="viewport">
<title>Sha256Class::result</title>
<polygon fill="#ffffff" stroke="transparent" points="-4,4 -4,-180.5 1010,-180.5 1010,4 -4,4"/>
<!-- Node95 -->
<g id="node1" class="node">
<title>Node95</title>
<polygon fill="#bfbfbf" stroke="#000000" points="0,-113 0,-132 105,-132 105,-113 0,-113"/>
<text text-anchor="middle" x="52.5" y="-120" font-family="Helvetica,sans-Serif" font-size="10.00" fill="#000000">Sha256Class::result</text>
</g>
<!-- Node96 -->
<g id="node2" class="node">
<title>Node96</title>
<g id="a_node2"><a xlink:href="classSha256Class.html#a73d3dcea6eb667fd146d12aa5d106939" target="_top" xlink:title="Sha256Class::initHmac">
<polygon fill="#ffffff" stroke="#000000" points="146.5,-94 146.5,-113 266.5,-113 266.5,-94 146.5,-94"/>
<text text-anchor="middle" x="206.5" y="-101" font-family="Helvetica,sans-Serif" font-size="10.00" fill="#000000">Sha256Class::initHmac</text>
</a>
</g>
</g>
<!-- Node95&#45;&gt;Node96 -->
<g id="edge1" class="edge">
<title>Node95&#45;&gt;Node96</title>
<path fill="none" stroke="#191970" d="M115.2416,-114.7592C125.5627,-113.4858 136.2379,-112.1687 146.4902,-110.9038"/>
<polygon fill="#191970" stroke="#191970" points="114.5635,-111.3162 105.0673,-116.0144 115.4207,-118.2635 114.5635,-111.3162"/>
</g>
<!-- Node106 -->
<g id="node12" class="node">
<title>Node106</title>
<g id="a_node12"><a xlink:href="classSha256Class.html#a7556f29cadf7eaca21a537df41318af3" target="_top" xlink:title="Sha256Class::resultHmac">
<polygon fill="#ffffff" stroke="#000000" points="141,-132 141,-151 272,-151 272,-132 141,-132"/>
<text text-anchor="middle" x="206.5" y="-139" font-family="Helvetica,sans-Serif" font-size="10.00" fill="#000000">Sha256Class::resultHmac</text>
</a>
</g>
</g>
<!-- Node95&#45;&gt;Node106 -->
<g id="edge14" class="edge">
<title>Node95&#45;&gt;Node106</title>
<path fill="none" stroke="#191970" d="M115.2163,-130.2377C123.6565,-131.279 132.334,-132.3496 140.8237,-133.3971"/>
<polygon fill="#191970" stroke="#191970" points="115.4207,-126.7365 105.0673,-128.9856 114.5635,-133.6838 115.4207,-126.7365"/>
</g>
<!-- Node97 -->
<g id="node3" class="node">
<title>Node97</title>
<g id="a_node3"><a xlink:href="TooSigning_8h.html#a1e2cd2b37702263e1fe166395350bf08" target="_top" xlink:title="TooSigning_init_hmac">
<polygon fill="#ffffff" stroke="#000000" points="308,-69 308,-88 421,-88 421,-69 308,-69"/>
<text text-anchor="middle" x="364.5" y="-76" font-family="Helvetica,sans-Serif" font-size="10.00" fill="#000000">TooSigning_init_hmac</text>
</a>
</g>
</g>
<!-- Node96&#45;&gt;Node97 -->
<g id="edge2" class="edge">
<title>Node96&#45;&gt;Node97</title>
<path fill="none" stroke="#191970" d="M276.6179,-92.4054C287.0719,-90.7513 297.736,-89.0639 307.8655,-87.4612"/>
<polygon fill="#191970" stroke="#191970" points="276.0139,-88.9573 266.6838,-93.9773 277.1079,-95.8713 276.0139,-88.9573"/>
</g>
<!-- Node104 -->
<g id="node10" class="node">
<title>Node104</title>
<g id="a_node10"><a xlink:href="TooSigning_8cpp.html#a03df9fd005c518d1114f912ae7da9f06" target="_top" xlink:title="TooSigning_unsigned\l_network_available">
<polygon fill="#ffffff" stroke="#000000" points="309.5,-107.5 309.5,-137.5 419.5,-137.5 419.5,-107.5 309.5,-107.5"/>
<text text-anchor="start" x="317.5" y="-125.5" font-family="Helvetica,sans-Serif" font-size="10.00" fill="#000000">TooSigning_unsigned</text>
<text text-anchor="middle" x="364.5" y="-114.5" font-family="Helvetica,sans-Serif" font-size="10.00" fill="#000000">_network_available</text>
</a>
</g>
</g>
<!-- Node96&#45;&gt;Node104 -->
<g id="edge11" class="edge">
<title>Node96&#45;&gt;Node104</title>
<path fill="none" stroke="#191970" d="M276.6701,-111.9382C287.6414,-113.2575 298.8427,-114.6045 309.4134,-115.8757"/>
<polygon fill="#191970" stroke="#191970" points="277.0301,-108.4563 266.6838,-110.7373 276.1943,-115.4063 277.0301,-108.4563"/>
</g>
<!-- Node98 -->
<g id="node4" class="node">
<title>Node98</title>
<g id="a_node4"><a xlink:href="TooNetworking_8h.html#a9f893c3218491ee86282fdcd9f376500" target="_top" xlink:title="TooNetworking_send\l_signed_">
<polygon fill="#ffffff" stroke="#000000" points="470,-63.5 470,-93.5 579,-93.5 579,-63.5 470,-63.5"/>
<text text-anchor="start" x="478" y="-81.5" font-family="Helvetica,sans-Serif" font-size="10.00" fill="#000000">TooNetworking_send</text>
<text text-anchor="middle" x="524.5" y="-70.5" font-family="Helvetica,sans-Serif" font-size="10.00" fill="#000000">_signed_</text>
</a>
</g>
</g>
<!-- Node97&#45;&gt;Node98 -->
<g id="edge3" class="edge">
<title>Node97&#45;&gt;Node98</title>
<path fill="none" stroke="#191970" d="M431.5144,-78.5C444.33,-78.5 457.6024,-78.5 469.9684,-78.5"/>
<polygon fill="#191970" stroke="#191970" points="431.3606,-75.0001 421.3605,-78.5 431.3605,-82.0001 431.3606,-75.0001"/>
</g>
<!-- Node99 -->
<g id="node5" class="node">
<title>Node99</title>
<g id="a_node5"><a xlink:href="TooNetworking_8h.html#a59be7e774988f57ab43c4c078c570c67" target="_top" xlink:title="TooNetworking_bufferlist_add">
<polygon fill="#ffffff" stroke="#000000" points="628,-25 628,-44 774,-44 774,-25 628,-25"/>
<text text-anchor="middle" x="701" y="-32" font-family="Helvetica,sans-Serif" font-size="10.00" fill="#000000">TooNetworking_bufferlist_add</text>
</a>
</g>
</g>
<!-- Node98&#45;&gt;Node99 -->
<g id="edge4" class="edge">
<title>Node98&#45;&gt;Node99</title>
<path fill="none" stroke="#191970" d="M589.3869,-62.3242C614.0156,-56.1845 641.2602,-49.3926 662.6664,-44.0562"/>
<polygon fill="#191970" stroke="#191970" points="588.2346,-59.0043 579.3782,-64.8193 589.9279,-65.7964 588.2346,-59.0043"/>
</g>
<!-- Node100 -->
<g id="node6" class="node">
<title>Node100</title>
<g id="a_node6"><a xlink:href="TooNetworking_8h.html#a9209f3e1a2fdf0b3b88d49105b8fc359" target="_top" xlink:title="TooNetworking_send\l_signed">
<polygon fill="#ffffff" stroke="#000000" points="818,-.5 818,-30.5 927,-30.5 927,-.5 818,-.5"/>
<text text-anchor="start" x="826" y="-18.5" font-family="Helvetica,sans-Serif" font-size="10.00" fill="#000000">TooNetworking_send</text>
<text text-anchor="middle" x="872.5" y="-7.5" font-family="Helvetica,sans-Serif" font-size="10.00" fill="#000000">_signed</text>
</a>
</g>
</g>
<!-- Node98&#45;&gt;Node100 -->
<g id="edge8" class="edge">
<title>Node98&#45;&gt;Node100</title>
<path fill="none" stroke="#191970" d="M550.4215,-57.1417C570.287,-42.2298 599.112,-23.6007 628,-15.5 691.3507,2.2645 767.6195,-1.4827 817.9395,-7.2046"/>
<polygon fill="#191970" stroke="#191970" points="548.2643,-54.3853 542.4822,-63.2633 552.5386,-59.9288 548.2643,-54.3853"/>
</g>
<!-- Node101 -->
<g id="node7" class="node">
<title>Node101</title>
<g id="a_node7"><a xlink:href="TooNetworking_8h.html#a085ff748b00f6be4ebafcae2bb0dded1" target="_top" xlink:title="TooNetworking_bufferlist\l_send_signed">
<polygon fill="#ffffff" stroke="#000000" points="810,-101.5 810,-131.5 935,-131.5 935,-101.5 810,-101.5"/>
<text text-anchor="start" x="818" y="-119.5" font-family="Helvetica,sans-Serif" font-size="10.00" fill="#000000">TooNetworking_bufferlist</text>
<text text-anchor="middle" x="872.5" y="-108.5" font-family="Helvetica,sans-Serif" font-size="10.00" fill="#000000">_send_signed</text>
</a>
</g>
</g>
<!-- Node98&#45;&gt;Node101 -->
<g id="edge9" class="edge">
<title>Node98&#45;&gt;Node101</title>
<path fill="none" stroke="#191970" d="M588.4495,-95.8859C601.4532,-98.872 615.1003,-101.6155 628,-103.5 689.4097,-112.4713 760.2991,-115.438 809.8816,-116.3312"/>
<polygon fill="#191970" stroke="#191970" points="589.1915,-92.4648 578.6539,-93.5652 587.5777,-99.2763 589.1915,-92.4648"/>
</g>
<!-- Node103 -->
<g id="node9" class="node">
<title>Node103</title>
<g id="a_node9"><a xlink:href="TooNetworking_8h.html#ab58e06e0eb6f2f8ecbebeaf3c173fb22" target="_top" xlink:title="TooNetworking_bufferlist\l_send_all">
<polygon fill="#ffffff" stroke="#000000" points="638.5,-63.5 638.5,-93.5 763.5,-93.5 763.5,-63.5 638.5,-63.5"/>
<text text-anchor="start" x="646.5" y="-81.5" font-family="Helvetica,sans-Serif" font-size="10.00" fill="#000000">TooNetworking_bufferlist</text>
<text text-anchor="middle" x="701" y="-70.5" font-family="Helvetica,sans-Serif" font-size="10.00" fill="#000000">_send_all</text>
</a>
</g>
</g>
<!-- Node98&#45;&gt;Node103 -->
<g id="edge10" class="edge">
<title>Node98&#45;&gt;Node103</title>
<path fill="none" stroke="#191970" d="M589.6736,-78.5C605.6138,-78.5 622.6343,-78.5 638.4486,-78.5"/>
<polygon fill="#191970" stroke="#191970" points="589.3782,-75.0001 579.3782,-78.5 589.3782,-82.0001 589.3782,-75.0001"/>
</g>
<!-- Node99&#45;&gt;Node100 -->
<g id="edge5" class="edge">
<title>Node99&#45;&gt;Node100</title>
<path fill="none" stroke="#191970" d="M784.2478,-25.2772C795.6894,-24.0096 807.1905,-22.7355 817.9353,-21.5451"/>
<polygon fill="#191970" stroke="#191970" points="783.7827,-21.8072 774.2289,-26.3872 784.5535,-28.7647 783.7827,-21.8072"/>
</g>
<!-- Node99&#45;&gt;Node101 -->
<g id="edge6" class="edge">
<title>Node99&#45;&gt;Node101</title>
<path fill="none" stroke="#191970" d="M754.1151,-47.0651C760.9153,-49.2495 767.6969,-51.726 774,-54.5 802.8513,-67.1977 833.1168,-87.443 852.3594,-101.3222"/>
<polygon fill="#191970" stroke="#191970" points="754.7771,-43.6091 744.1925,-44.073 752.7562,-50.3111 754.7771,-43.6091"/>
</g>
<!-- Node102 -->
<g id="node8" class="node">
<title>Node102</title>
<g id="a_node8"><a xlink:href="NODE__SKETCH__TooAutomation__Node_8ino_8cpp.html#a0b33edabd7f1c4e4a0bf32c67269be2f" target="_top" xlink:title="loop">
<polygon fill="#ffffff" stroke="#000000" points="971,-129 971,-148 1006,-148 1006,-129 971,-129"/>
<text text-anchor="middle" x="988.5" y="-136" font-family="Helvetica,sans-Serif" font-size="10.00" fill="#000000">loop</text>
</a>
</g>
</g>
<!-- Node101&#45;&gt;Node102 -->
<g id="edge7" class="edge">
<title>Node101&#45;&gt;Node102</title>
<path fill="none" stroke="#191970" d="M945.2178,-130.2913C954.6312,-132.0766 963.4907,-133.7569 970.7123,-135.1265"/>
<polygon fill="#191970" stroke="#191970" points="945.7301,-126.8262 935.2531,-128.4014 944.4257,-133.7036 945.7301,-126.8262"/>
</g>
<!-- Node105 -->
<g id="node11" class="node">
<title>Node105</title>
<g id="a_node11"><a xlink:href="TooNetworking_8h.html#a7382ba1aed5405c3adc02011ea6c45dd" target="_top" xlink:title="TooNetworking_connection\l_maintenance">
<polygon fill="#ffffff" stroke="#000000" points="457,-128.5 457,-158.5 592,-158.5 592,-128.5 457,-128.5"/>
<text text-anchor="start" x="465" y="-146.5" font-family="Helvetica,sans-Serif" font-size="10.00" fill="#000000">TooNetworking_connection</text>
<text text-anchor="middle" x="524.5" y="-135.5" font-family="Helvetica,sans-Serif" font-size="10.00" fill="#000000">_maintenance</text>
</a>
</g>
</g>
<!-- Node104&#45;&gt;Node105 -->
<g id="edge12" class="edge">
<title>Node104&#45;&gt;Node105</title>
<path fill="none" stroke="#191970" d="M429.587,-131.0427C438.5862,-132.2238 447.8465,-133.4392 456.8902,-134.6262"/>
<polygon fill="#191970" stroke="#191970" points="429.9334,-127.5582 419.5629,-129.727 429.0224,-134.4987 429.9334,-127.5582"/>
</g>
<!-- Node105&#45;&gt;Node102 -->
<g id="edge13" class="edge">
<title>Node105&#45;&gt;Node102</title>
<path fill="none" stroke="#191970" d="M602.1278,-144.303C684.6888,-144.8805 819.0908,-145.0298 935,-141.5 946.902,-141.1375 960.277,-140.3875 970.6765,-139.7282"/>
<polygon fill="#191970" stroke="#191970" points="602.0984,-140.8028 592.0728,-144.2287 602.0466,-147.8026 602.0984,-140.8028"/>
</g>
<!-- Node106&#45;&gt;Node104 -->
<g id="edge17" class="edge">
<title>Node106&#45;&gt;Node104</title>
<path fill="none" stroke="#191970" d="M282.0697,-132.4125C291.2707,-131.3061 300.534,-130.1921 309.3589,-129.1309"/>
<polygon fill="#191970" stroke="#191970" points="281.6442,-128.9384 272.1336,-133.6074 282.48,-135.8883 281.6442,-128.9384"/>
</g>
<!-- Node107 -->
<g id="node13" class="node">
<title>Node107</title>
<g id="a_node13"><a xlink:href="TooSigning_8h.html#ab8a2415b95a77c91ffbc6ebbde622f64" target="_top" xlink:title="TooSigning_get_hmac">
<polygon fill="#ffffff" stroke="#000000" points="308,-157 308,-176 421,-176 421,-157 308,-157"/>
<text text-anchor="middle" x="364.5" y="-164" font-family="Helvetica,sans-Serif" font-size="10.00" fill="#000000">TooSigning_get_hmac</text>
</a>
</g>
</g>
<!-- Node106&#45;&gt;Node107 -->
<g id="edge15" class="edge">
<title>Node106&#45;&gt;Node107</title>
<path fill="none" stroke="#191970" d="M276.6179,-152.5946C287.0719,-154.2487 297.736,-155.9361 307.8655,-157.5388"/>
<polygon fill="#191970" stroke="#191970" points="277.1079,-149.1287 266.6838,-151.0227 276.0139,-156.0427 277.1079,-149.1287"/>
</g>
<!-- Node107&#45;&gt;Node98 -->
<g id="edge16" class="edge">
<title>Node107&#45;&gt;Node98</title>
<path fill="none" stroke="#191970" d="M408.5037,-153.3438C412.8115,-151.5712 417.0466,-149.6226 421,-147.5 438.8587,-137.9118 440.3102,-131.0028 457,-119.5 470.2088,-110.3964 485.4432,-101.0501 498.0926,-93.5844"/>
<polygon fill="#191970" stroke="#191970" points="407.1412,-150.1174 399.0378,-156.9428 409.6289,-156.6604 407.1412,-150.1174"/>
</g>
</g>
</svg>
        <g id="navigator" transform="translate(0 0)" fill="#404254">
                <rect fill="#f2f5e9" fill-opacity="0.5" stroke="#606060" stroke-width=".5" x="0" y="0" width="60" height="60"/>
                <use id="zoomplus" xlink:href="#zoomPlus" x="17" y="9" onmousedown="handleZoom(evt,'in')"/>
                <use id="zoomminus" xlink:href="#zoomMin" x="42" y="9" onmousedown="handleZoom(evt,'out')"/>
                <use id="reset" xlink:href="#resetDef" x="30" y="36" onmousedown="handleReset()"/>
                <g id="arrowUp" xlink:href="#dirArrow" transform="translate(30 24)" onmousedown="handlePan(0,-1)">
                  <use xlink:href="#rim" fill="#404040">
                        <set attributeName="fill" to="#808080" begin="arrowUp.mouseover" end="arrowUp.mouseout"/>
                  </use>
                  <path fill="none" stroke="white" stroke-width="1.5" d="M0,-3.0v7 M-2.5,-0.5L0,-3.0L2.5,-0.5"/>
                </g>
                <g id="arrowRight" xlink:href="#dirArrow" transform="rotate(90) translate(36 -43)" onmousedown="handlePan(1,0)">
                  <use xlink:href="#rim" fill="#404040">
                        <set attributeName="fill" to="#808080" begin="arrowRight.mouseover" end="arrowRight.mouseout"/>
                  </use>
                  <path fill="none" stroke="white" stroke-width="1.5" d="M0,-3.0v7 M-2.5,-0.5L0,-3.0L2.5,-0.5"/>
                </g>
                <g id="arrowDown" xlink:href="#dirArrow" transform="rotate(180) translate(-30 -48)" onmousedown="handlePan(0,1)">
                  <use xlink:href="#rim" fill="#404040">
                        <set attributeName="fill" to="#808080" begin="arrowDown.mouseover" end="arrowDown.mouseout"/>
                  </use>
                  <path fill="none" stroke="white" stroke-width="1.5" d="M0,-3.0v7 M-2.5,-0.5L0,-3.0L2.5,-0.5"/>
                </g>
                <g id="arrowLeft" xlink:href="#dirArrow" transform="rotate(270) translate(-36 17)" onmousedown="handlePan(-1,0)">
                  <use xlink:href="#rim" fill="#404040">
                        <set attributeName="fill" to="#808080" begin="arrowLeft.mouseover" end="arrowLeft.mouseout"/>
                  </use>
                  <path fill="none" stroke="white" stroke-width="1.5" d="M0,-3.0v7 M-2.5,-0.5L0,-3.0L2.5,-0.5"/>
                </g>
        </g>
        <svg viewBox="0 0 15 15" width="100%" height="30px" preserveAspectRatio="xMaxYMin meet">
         <g id="arrow_out" transform="scale(0.3 0.3)">
          <a xlink:href="classSha256Class_a0ca245a22f8b056a3d1902da3c64b705_icgraph_org.svg" target="_base">
           <rect id="button" ry="5" rx="5" y="6" x="6" height="38" width="38"
                fill="#f2f5e9" fill-opacity="0.5" stroke="#606060" stroke-width="1.0"/>
           <path id="arrow"
             d="M 11.500037,31.436501 C 11.940474,20.09759 22.043105,11.32322 32.158766,21.979434 L 37.068811,17.246167 C 37.068811,17.246167 37.088388,32 37.088388,32 L 22.160133,31.978069 C 22.160133,31.978069 26.997745,27.140456 26.997745,27.140456 C 18.528582,18.264221 13.291696,25.230495 11.500037,31.436501 z"
             style="fill:#404040;"/>
          </a>
         </g>
        </svg>
</svg>
