<?xml version="1.0" encoding="UTF-8" standalone="no"?>
<!DOCTYPE svg PUBLIC "-//W3C//DTD SVG 1.1//EN"
 "http://www.w3.org/Graphics/SVG/1.1/DTD/svg11.dtd">
<!-- Generated by graphviz version 2.40.1 (20161225.0304)
 -->
<!-- Title: ATSHA204Class::sha204c_calculate_crc Pages: 1 -->
<!--zoomable 98 -->
<svg id="main" version="1.1" xmlns="http://www.w3.org/2000/svg" xmlns:xlink="http://www.w3.org/1999/xlink" xml:space="preserve" onload="init(evt)">
<style type="text/css"><![CDATA[
.edge:hover path { stroke: red; }
.edge:hover polygon { stroke: red; fill: red; }
]]></style>
<script type="text/javascript"><![CDATA[
var edges = document.getElementsByTagName('g');
if (edges && edges.length) {
  for (var i=0;i<edges.length;i++) {
    if (edges[i].id.substr(0,4)=='edge') {
      edges[i].setAttribute('class','edge');
    }
  }
}
]]></script>
        <defs>
                <circle id="rim" cx="0" cy="0" r="7"/>
                <circle id="rim2" cx="0" cy="0" r="3.5"/>
                <g id="zoomPlus">
                        <use xlink:href="#rim" fill="#404040">
                                <set attributeName="fill" to="#808080" begin="zoomplus.mouseover" end="zoomplus.mouseout"/>
                        </use>
                        <path d="M-4,0h8M0,-4v8" fill="none" stroke="white" stroke-width="1.5" pointer-events="none"/>
                </g>
                <g id="zoomMin">
                        <use xlink:href="#rim" fill="#404040">
                                <set attributeName="fill" to="#808080" begin="zoomminus.mouseover" end="zoomminus.mouseout"/>
                        </use>
                        <path d="M-4,0h8" fill="none" stroke="white" stroke-width="1.5" pointer-events="none"/>
                </g>
                <g id="dirArrow">
                        <path fill="none" stroke="white" stroke-width="1.5" d="M0,-3.0v7 M-2.5,-0.5L0,-3.0L2.5,-0.5"/>
                </g>
               <g id="resetDef">
                       <use xlink:href="#rim2" fill="#404040">
                               <set attributeName="fill" to="#808080" begin="reset.mouseover" end="reset.mouseout"/>
                       </use>
               </g>
        </defs>

<script type="text/javascript">
var viewWidth = 851;
var viewHeight = 98;
var sectionId = 'dynsection-1';
</script>
<script xlink:href="svgpan.js"/>
<svg id="graph" class="graph">
<g id="viewport">
<title>ATSHA204Class::sha204c_calculate_crc</title>
<polygon fill="#ffffff" stroke="transparent" points="-4,4 -4,-93.8053 847,-93.8053 847,4 -4,4"/>
<!-- Node17 -->
<g id="node1" class="node">
<title>Node17</title>
<polygon fill="#bfbfbf" stroke="#000000" points="0,-44.5 0,-74.5 134,-74.5 134,-44.5 0,-44.5"/>
<text text-anchor="start" x="8" y="-62.5" font-family="Helvetica,sans-Serif" font-size="10.00" fill="#000000">ATSHA204Class::sha204c</text>
<text text-anchor="middle" x="67" y="-51.5" font-family="Helvetica,sans-Serif" font-size="10.00" fill="#000000">_calculate_crc</text>
</g>
<!-- Node18 -->
<g id="node2" class="node">
<title>Node18</title>
<g id="a_node2"><a xlink:href="classATSHA204Class.html#a3689222ad46022e5c50ba484053d9b2c" target="_top" xlink:title="ATSHA204Class::sha204c\l_send_and_receive">
<polygon fill="#ffffff" stroke="#000000" points="340,-44.5 340,-74.5 474,-74.5 474,-44.5 340,-44.5"/>
<text text-anchor="start" x="348" y="-62.5" font-family="Helvetica,sans-Serif" font-size="10.00" fill="#000000">ATSHA204Class::sha204c</text>
<text text-anchor="middle" x="407" y="-51.5" font-family="Helvetica,sans-Serif" font-size="10.00" fill="#000000">_send_and_receive</text>
</a>
</g>
</g>
<!-- Node17&#45;&gt;Node18 -->
<g id="edge1" class="edge">
<title>Node17&#45;&gt;Node18</title>
<path fill="none" stroke="#191970" d="M128.1977,-76.8825C141.8458,-80.0486 156.3268,-82.8644 170,-84.5 229.134,-91.5738 244.866,-91.5738 304,-84.5 320.9919,-82.4674 339.2314,-78.6123 355.5695,-74.527"/>
<polygon fill="#191970" stroke="#191970" points="128.9724,-73.4691 118.4305,-74.527 127.3312,-80.274 128.9724,-73.4691"/>
</g>
<!-- Node21 -->
<g id="node5" class="node">
<title>Node21</title>
<g id="a_node5"><a xlink:href="classATSHA204Class.html#a8600d67f5c574e1584ef5555429f305b" target="_top" xlink:title="ATSHA204Class::sha204m\l_execute">
<polygon fill="#ffffff" stroke="#000000" points="522,-.5 522,-30.5 659,-30.5 659,-.5 522,-.5"/>
<text text-anchor="start" x="530" y="-18.5" font-family="Helvetica,sans-Serif" font-size="10.00" fill="#000000">ATSHA204Class::sha204m</text>
<text text-anchor="middle" x="590.5" y="-7.5" font-family="Helvetica,sans-Serif" font-size="10.00" fill="#000000">_execute</text>
</a>
</g>
</g>
<!-- Node17&#45;&gt;Node21 -->
<g id="edge5" class="edge">
<title>Node17&#45;&gt;Node21</title>
<path fill="none" stroke="#191970" d="M133.1483,-42.2243C145.3314,-39.5748 157.9945,-37.1701 170,-35.5 293.0611,-18.3806 438.1134,-15.1783 521.6824,-14.9588"/>
<polygon fill="#191970" stroke="#191970" points="132.0397,-38.8861 123.0523,-44.4966 133.5768,-45.7153 132.0397,-38.8861"/>
</g>
<!-- Node22 -->
<g id="node6" class="node">
<title>Node22</title>
<g id="a_node6"><a xlink:href="classATSHA204Class.html#a30b1fad66d47a88848ebc6d74b66ec97" target="_top" xlink:title="ATSHA204Class::sha204c\l_check_crc">
<polygon fill="#ffffff" stroke="#000000" points="170,-44.5 170,-74.5 304,-74.5 304,-44.5 170,-44.5"/>
<text text-anchor="start" x="178" y="-62.5" font-family="Helvetica,sans-Serif" font-size="10.00" fill="#000000">ATSHA204Class::sha204c</text>
<text text-anchor="middle" x="237" y="-51.5" font-family="Helvetica,sans-Serif" font-size="10.00" fill="#000000">_check_crc</text>
</a>
</g>
</g>
<!-- Node17&#45;&gt;Node22 -->
<g id="edge6" class="edge">
<title>Node17&#45;&gt;Node22</title>
<path fill="none" stroke="#191970" d="M144.4246,-59.5C152.8759,-59.5 161.4279,-59.5 169.7428,-59.5"/>
<polygon fill="#191970" stroke="#191970" points="144.1885,-56.0001 134.1885,-59.5 144.1885,-63.0001 144.1885,-56.0001"/>
</g>
<!-- Node19 -->
<g id="node3" class="node">
<title>Node19</title>
<g id="a_node3"><a xlink:href="classATSHA204Class.html#a6bcaa1359ac7392ed066641323fe8d5d" target="_top" xlink:title="ATSHA204Class::sha204m_read">
<polygon fill="#ffffff" stroke="#000000" points="510,-50 510,-69 671,-69 671,-50 510,-50"/>
<text text-anchor="middle" x="590.5" y="-57" font-family="Helvetica,sans-Serif" font-size="10.00" fill="#000000">ATSHA204Class::sha204m_read</text>
</a>
</g>
</g>
<!-- Node18&#45;&gt;Node19 -->
<g id="edge2" class="edge">
<title>Node18&#45;&gt;Node19</title>
<path fill="none" stroke="#191970" d="M484.2724,-59.5C492.7575,-59.5 501.4121,-59.5 509.936,-59.5"/>
<polygon fill="#191970" stroke="#191970" points="484.0267,-56.0001 474.0266,-59.5 484.0266,-63.0001 484.0267,-56.0001"/>
</g>
<!-- Node18&#45;&gt;Node21 -->
<g id="edge4" class="edge">
<title>Node18&#45;&gt;Node21</title>
<path fill="none" stroke="#191970" d="M479.4695,-42.1231C495.4605,-38.2888 512.2699,-34.2582 527.8339,-30.5262"/>
<polygon fill="#191970" stroke="#191970" points="478.5453,-38.7454 469.6371,-44.4808 480.1775,-45.5525 478.5453,-38.7454"/>
</g>
<!-- Node20 -->
<g id="node4" class="node">
<title>Node20</title>
<g id="a_node4"><a xlink:href="classATSHA204Class.html#ade50092ec236d13cde64e7684b59ab7b" target="_top" xlink:title="ATSHA204Class::getSerial\lNumber">
<polygon fill="#ffffff" stroke="#000000" points="707,-44.5 707,-74.5 843,-74.5 843,-44.5 707,-44.5"/>
<text text-anchor="start" x="715" y="-62.5" font-family="Helvetica,sans-Serif" font-size="10.00" fill="#000000">ATSHA204Class::getSerial</text>
<text text-anchor="middle" x="775" y="-51.5" font-family="Helvetica,sans-Serif" font-size="10.00" fill="#000000">Number</text>
</a>
</g>
</g>
<!-- Node19&#45;&gt;Node20 -->
<g id="edge3" class="edge">
<title>Node19&#45;&gt;Node20</title>
<path fill="none" stroke="#191970" d="M681.2634,-59.5C689.8956,-59.5 698.5452,-59.5 706.9096,-59.5"/>
<polygon fill="#191970" stroke="#191970" points="681.156,-56.0001 671.156,-59.5 681.156,-63.0001 681.156,-56.0001"/>
</g>
<!-- Node22&#45;&gt;Node18 -->
<g id="edge7" class="edge">
<title>Node22&#45;&gt;Node18</title>
<path fill="none" stroke="#191970" d="M314.4246,-59.5C322.8759,-59.5 331.4279,-59.5 339.7428,-59.5"/>
<polygon fill="#191970" stroke="#191970" points="314.1885,-56.0001 304.1885,-59.5 314.1885,-63.0001 314.1885,-56.0001"/>
</g>
</g>
</svg>
        <g id="navigator" transform="translate(0 0)" fill="#404254">
                <rect fill="#f2f5e9" fill-opacity="0.5" stroke="#606060" stroke-width=".5" x="0" y="0" width="60" height="60"/>
                <use id="zoomplus" xlink:href="#zoomPlus" x="17" y="9" onmousedown="handleZoom(evt,'in')"/>
                <use id="zoomminus" xlink:href="#zoomMin" x="42" y="9" onmousedown="handleZoom(evt,'out')"/>
                <use id="reset" xlink:href="#resetDef" x="30" y="36" onmousedown="handleReset()"/>
                <g id="arrowUp" xlink:href="#dirArrow" transform="translate(30 24)" onmousedown="handlePan(0,-1)">
                  <use xlink:href="#rim" fill="#404040">
                        <set attributeName="fill" to="#808080" begin="arrowUp.mouseover" end="arrowUp.mouseout"/>
                  </use>
                  <path fill="none" stroke="white" stroke-width="1.5" d="M0,-3.0v7 M-2.5,-0.5L0,-3.0L2.5,-0.5"/>
                </g>
                <g id="arrowRight" xlink:href="#dirArrow" transform="rotate(90) translate(36 -43)" onmousedown="handlePan(1,0)">
                  <use xlink:href="#rim" fill="#404040">
                        <set attributeName="fill" to="#808080" begin="arrowRight.mouseover" end="arrowRight.mouseout"/>
                  </use>
                  <path fill="none" stroke="white" stroke-width="1.5" d="M0,-3.0v7 M-2.5,-0.5L0,-3.0L2.5,-0.5"/>
                </g>
                <g id="arrowDown" xlink:href="#dirArrow" transform="rotate(180) translate(-30 -48)" onmousedown="handlePan(0,1)">
                  <use xlink:href="#rim" fill="#404040">
                        <set attributeName="fill" to="#808080" begin="arrowDown.mouseover" end="arrowDown.mouseout"/>
                  </use>
                  <path fill="none" stroke="white" stroke-width="1.5" d="M0,-3.0v7 M-2.5,-0.5L0,-3.0L2.5,-0.5"/>
                </g>
                <g id="arrowLeft" xlink:href="#dirArrow" transform="rotate(270) translate(-36 17)" onmousedown="handlePan(-1,0)">
                  <use xlink:href="#rim" fill="#404040">
                        <set attributeName="fill" to="#808080" begin="arrowLeft.mouseover" end="arrowLeft.mouseout"/>
                  </use>
                  <path fill="none" stroke="white" stroke-width="1.5" d="M0,-3.0v7 M-2.5,-0.5L0,-3.0L2.5,-0.5"/>
                </g>
        </g>
        <svg viewBox="0 0 15 15" width="100%" height="30px" preserveAspectRatio="xMaxYMin meet">
         <g id="arrow_out" transform="scale(0.3 0.3)">
          <a xlink:href="classATSHA204Class_a42b8beceec64c89148a9bb49b26f0fb1_icgraph_org.svg" target="_base">
           <rect id="button" ry="5" rx="5" y="6" x="6" height="38" width="38"
                fill="#f2f5e9" fill-opacity="0.5" stroke="#606060" stroke-width="1.0"/>
           <path id="arrow"
             d="M 11.500037,31.436501 C 11.940474,20.09759 22.043105,11.32322 32.158766,21.979434 L 37.068811,17.246167 C 37.068811,17.246167 37.088388,32 37.088388,32 L 22.160133,31.978069 C 22.160133,31.978069 26.997745,27.140456 26.997745,27.140456 C 18.528582,18.264221 13.291696,25.230495 11.500037,31.436501 z"
             style="fill:#404040;"/>
          </a>
         </g>
        </svg>
</svg>
