<?xml version="1.0" encoding="UTF-8" standalone="no"?>
<!DOCTYPE svg PUBLIC "-//W3C//DTD SVG 1.1//EN"
 "http://www.w3.org/Graphics/SVG/1.1/DTD/svg11.dtd">
<!-- Generated by graphviz version 2.40.1 (20161225.0304)
 -->
<!-- Title: Sha256Class::pad Pages: 1 -->
<!--zoomable 116 -->
<svg id="main" version="1.1" xmlns="http://www.w3.org/2000/svg" xmlns:xlink="http://www.w3.org/1999/xlink" xml:space="preserve" onload="init(evt)">
<style type="text/css"><![CDATA[
.edge:hover path { stroke: red; }
.edge:hover polygon { stroke: red; fill: red; }
]]></style>
<script type="text/javascript"><![CDATA[
var edges = document.getElementsByTagName('g');
if (edges && edges.length) {
  for (var i=0;i<edges.length;i++) {
    if (edges[i].id.substr(0,4)=='edge') {
      edges[i].setAttribute('class','edge');
    }
  }
}
]]></script>
        <defs>
                <circle id="rim" cx="0" cy="0" r="7"/>
                <circle id="rim2" cx="0" cy="0" r="3.5"/>
                <g id="zoomPlus">
                        <use xlink:href="#rim" fill="#404040">
                                <set attributeName="fill" to="#808080" begin="zoomplus.mouseover" end="zoomplus.mouseout"/>
                        </use>
                        <path d="M-4,0h8M0,-4v8" fill="none" stroke="white" stroke-width="1.5" pointer-events="none"/>
                </g>
                <g id="zoomMin">
                        <use xlink:href="#rim" fill="#404040">
                                <set attributeName="fill" to="#808080" begin="zoomminus.mouseover" end="zoomminus.mouseout"/>
                        </use>
                        <path d="M-4,0h8" fill="none" stroke="white" stroke-width="1.5" pointer-events="none"/>
                </g>
                <g id="dirArrow">
                        <path fill="none" stroke="white" stroke-width="1.5" d="M0,-3.0v7 M-2.5,-0.5L0,-3.0L2.5,-0.5"/>
                </g>
               <g id="resetDef">
                       <use xlink:href="#rim2" fill="#404040">
                               <set attributeName="fill" to="#808080" begin="reset.mouseover" end="reset.mouseout"/>
                       </use>
               </g>
        </defs>

<script type="text/javascript">
var viewWidth = 707;
var viewHeight = 116;
var sectionId = 'dynsection-9';
</script>
<script xlink:href="svgpan.js"/>
<svg id="graph" class="graph">
<g id="viewport">
<title>Sha256Class::pad</title>
<polygon fill="#ffffff" stroke="transparent" points="-4,4 -4,-112 703,-112 703,4 -4,4"/>
<!-- Node52 -->
<g id="node1" class="node">
<title>Node52</title>
<polygon fill="#bfbfbf" stroke="#000000" points="0,-44.5 0,-63.5 97,-63.5 97,-44.5 0,-44.5"/>
<text text-anchor="middle" x="48.5" y="-51.5" font-family="Helvetica,sans-Serif" font-size="10.00" fill="#000000">Sha256Class::pad</text>
</g>
<!-- Node53 -->
<g id="node2" class="node">
<title>Node53</title>
<g id="a_node2"><a xlink:href="classSha256Class.html#a0ca245a22f8b056a3d1902da3c64b705" target="_top" xlink:title="Sha256Class::result">
<polygon fill="#ffffff" stroke="#000000" points="133,-44.5 133,-63.5 238,-63.5 238,-44.5 133,-44.5"/>
<text text-anchor="middle" x="185.5" y="-51.5" font-family="Helvetica,sans-Serif" font-size="10.00" fill="#000000">Sha256Class::result</text>
</a>
</g>
</g>
<!-- Node52&#45;&gt;Node53 -->
<g id="edge1" class="edge">
<title>Node52&#45;&gt;Node53</title>
<path fill="none" stroke="#191970" d="M107.3612,-54C115.8127,-54 124.4639,-54 132.7863,-54"/>
<polygon fill="#191970" stroke="#191970" points="107.1869,-50.5001 97.1868,-54 107.1868,-57.5001 107.1869,-50.5001"/>
</g>
<!-- Node54 -->
<g id="node3" class="node">
<title>Node54</title>
<g id="a_node3"><a xlink:href="classSha256Class.html#a73d3dcea6eb667fd146d12aa5d106939" target="_top" xlink:title="Sha256Class::initHmac">
<polygon fill="#ffffff" stroke="#000000" points="279.5,-63.5 279.5,-82.5 399.5,-82.5 399.5,-63.5 279.5,-63.5"/>
<text text-anchor="middle" x="339.5" y="-70.5" font-family="Helvetica,sans-Serif" font-size="10.00" fill="#000000">Sha256Class::initHmac</text>
</a>
</g>
</g>
<!-- Node53&#45;&gt;Node54 -->
<g id="edge2" class="edge">
<title>Node53&#45;&gt;Node54</title>
<path fill="none" stroke="#191970" d="M248.2416,-61.7408C258.5627,-63.0142 269.2379,-64.3313 279.4902,-65.5962"/>
<polygon fill="#191970" stroke="#191970" points="248.4207,-58.2365 238.0673,-60.4856 247.5635,-65.1838 248.4207,-58.2365"/>
</g>
<!-- Node58 -->
<g id="node7" class="node">
<title>Node58</title>
<g id="a_node7"><a xlink:href="classSha256Class.html#a7556f29cadf7eaca21a537df41318af3" target="_top" xlink:title="Sha256Class::resultHmac">
<polygon fill="#ffffff" stroke="#000000" points="274,-25.5 274,-44.5 405,-44.5 405,-25.5 274,-25.5"/>
<text text-anchor="middle" x="339.5" y="-32.5" font-family="Helvetica,sans-Serif" font-size="10.00" fill="#000000">Sha256Class::resultHmac</text>
</a>
</g>
</g>
<!-- Node53&#45;&gt;Node58 -->
<g id="edge6" class="edge">
<title>Node53&#45;&gt;Node58</title>
<path fill="none" stroke="#191970" d="M248.2163,-46.2623C256.6565,-45.221 265.334,-44.1504 273.8237,-43.1029"/>
<polygon fill="#191970" stroke="#191970" points="247.5635,-42.8162 238.0673,-47.5144 248.4207,-49.7635 247.5635,-42.8162"/>
</g>
<!-- Node55 -->
<g id="node4" class="node">
<title>Node55</title>
<g id="a_node4"><a xlink:href="TooSigning_8h.html#a1e2cd2b37702263e1fe166395350bf08" target="_top" xlink:title="TooSigning_init_hmac">
<polygon fill="#ffffff" stroke="#000000" points="441,-88.5 441,-107.5 554,-107.5 554,-88.5 441,-88.5"/>
<text text-anchor="middle" x="497.5" y="-95.5" font-family="Helvetica,sans-Serif" font-size="10.00" fill="#000000">TooSigning_init_hmac</text>
</a>
</g>
</g>
<!-- Node54&#45;&gt;Node55 -->
<g id="edge3" class="edge">
<title>Node54&#45;&gt;Node55</title>
<path fill="none" stroke="#191970" d="M409.6179,-84.0946C420.0719,-85.7487 430.736,-87.4361 440.8655,-89.0388"/>
<polygon fill="#191970" stroke="#191970" points="410.1079,-80.6287 399.6838,-82.5227 409.0139,-87.5427 410.1079,-80.6287"/>
</g>
<!-- Node57 -->
<g id="node6" class="node">
<title>Node57</title>
<g id="a_node6"><a xlink:href="TooSigning_8cpp.html#a03df9fd005c518d1114f912ae7da9f06" target="_top" xlink:title="TooSigning_unsigned\l_network_available">
<polygon fill="#ffffff" stroke="#000000" points="442.5,-39 442.5,-69 552.5,-69 552.5,-39 442.5,-39"/>
<text text-anchor="start" x="450.5" y="-57" font-family="Helvetica,sans-Serif" font-size="10.00" fill="#000000">TooSigning_unsigned</text>
<text text-anchor="middle" x="497.5" y="-46" font-family="Helvetica,sans-Serif" font-size="10.00" fill="#000000">_network_available</text>
</a>
</g>
</g>
<!-- Node54&#45;&gt;Node57 -->
<g id="edge5" class="edge">
<title>Node54&#45;&gt;Node57</title>
<path fill="none" stroke="#191970" d="M409.6701,-64.5618C420.6414,-63.2425 431.8427,-61.8955 442.4134,-60.6243"/>
<polygon fill="#191970" stroke="#191970" points="409.1943,-61.0937 399.6838,-65.7627 410.0301,-68.0437 409.1943,-61.0937"/>
</g>
<!-- Node56 -->
<g id="node5" class="node">
<title>Node56</title>
<g id="a_node5"><a xlink:href="TooNetworking_8h.html#ab5dfe46515ee5ca8f9893675df673d96" target="_top" xlink:title="TooNetworking_send\l_signed">
<polygon fill="#ffffff" stroke="#000000" points="590,-39 590,-69 699,-69 699,-39 590,-39"/>
<text text-anchor="start" x="598" y="-57" font-family="Helvetica,sans-Serif" font-size="10.00" fill="#000000">TooNetworking_send</text>
<text text-anchor="middle" x="644.5" y="-46" font-family="Helvetica,sans-Serif" font-size="10.00" fill="#000000">_signed</text>
</a>
</g>
</g>
<!-- Node55&#45;&gt;Node56 -->
<g id="edge4" class="edge">
<title>Node55&#45;&gt;Node56</title>
<path fill="none" stroke="#191970" d="M539.1119,-85.5447C556.2375,-80.4187 576.2283,-74.4351 594.168,-69.0654"/>
<polygon fill="#191970" stroke="#191970" points="537.9732,-82.2321 529.3968,-88.4527 539.9805,-88.9381 537.9732,-82.2321"/>
</g>
<!-- Node58&#45;&gt;Node57 -->
<g id="edge9" class="edge">
<title>Node58&#45;&gt;Node57</title>
<path fill="none" stroke="#191970" d="M415.0697,-44.0875C424.2707,-45.1939 433.534,-46.3079 442.3589,-47.3691"/>
<polygon fill="#191970" stroke="#191970" points="415.48,-40.6117 405.1336,-42.8926 414.6442,-47.5616 415.48,-40.6117"/>
</g>
<!-- Node59 -->
<g id="node8" class="node">
<title>Node59</title>
<g id="a_node8"><a xlink:href="TooSigning_8h.html#ab8a2415b95a77c91ffbc6ebbde622f64" target="_top" xlink:title="TooSigning_get_hmac">
<polygon fill="#ffffff" stroke="#000000" points="441,-.5 441,-19.5 554,-19.5 554,-.5 441,-.5"/>
<text text-anchor="middle" x="497.5" y="-7.5" font-family="Helvetica,sans-Serif" font-size="10.00" fill="#000000">TooSigning_get_hmac</text>
</a>
</g>
</g>
<!-- Node58&#45;&gt;Node59 -->
<g id="edge7" class="edge">
<title>Node58&#45;&gt;Node59</title>
<path fill="none" stroke="#191970" d="M409.6179,-23.9054C420.0719,-22.2513 430.736,-20.5639 440.8655,-18.9612"/>
<polygon fill="#191970" stroke="#191970" points="409.0139,-20.4573 399.6838,-25.4773 410.1079,-27.3713 409.0139,-20.4573"/>
</g>
<!-- Node59&#45;&gt;Node56 -->
<g id="edge8" class="edge">
<title>Node59&#45;&gt;Node56</title>
<path fill="none" stroke="#191970" d="M539.1119,-22.4553C556.2375,-27.5813 576.2283,-33.5649 594.168,-38.9346"/>
<polygon fill="#191970" stroke="#191970" points="539.9805,-19.0619 529.3968,-19.5473 537.9732,-25.7679 539.9805,-19.0619"/>
</g>
</g>
</svg>
        <g id="navigator" transform="translate(0 0)" fill="#404254">
                <rect fill="#f2f5e9" fill-opacity="0.5" stroke="#606060" stroke-width=".5" x="0" y="0" width="60" height="60"/>
                <use id="zoomplus" xlink:href="#zoomPlus" x="17" y="9" onmousedown="handleZoom(evt,'in')"/>
                <use id="zoomminus" xlink:href="#zoomMin" x="42" y="9" onmousedown="handleZoom(evt,'out')"/>
                <use id="reset" xlink:href="#resetDef" x="30" y="36" onmousedown="handleReset()"/>
                <g id="arrowUp" xlink:href="#dirArrow" transform="translate(30 24)" onmousedown="handlePan(0,-1)">
                  <use xlink:href="#rim" fill="#404040">
                        <set attributeName="fill" to="#808080" begin="arrowUp.mouseover" end="arrowUp.mouseout"/>
                  </use>
                  <path fill="none" stroke="white" stroke-width="1.5" d="M0,-3.0v7 M-2.5,-0.5L0,-3.0L2.5,-0.5"/>
                </g>
                <g id="arrowRight" xlink:href="#dirArrow" transform="rotate(90) translate(36 -43)" onmousedown="handlePan(1,0)">
                  <use xlink:href="#rim" fill="#404040">
                        <set attributeName="fill" to="#808080" begin="arrowRight.mouseover" end="arrowRight.mouseout"/>
                  </use>
                  <path fill="none" stroke="white" stroke-width="1.5" d="M0,-3.0v7 M-2.5,-0.5L0,-3.0L2.5,-0.5"/>
                </g>
                <g id="arrowDown" xlink:href="#dirArrow" transform="rotate(180) translate(-30 -48)" onmousedown="handlePan(0,1)">
                  <use xlink:href="#rim" fill="#404040">
                        <set attributeName="fill" to="#808080" begin="arrowDown.mouseover" end="arrowDown.mouseout"/>
                  </use>
                  <path fill="none" stroke="white" stroke-width="1.5" d="M0,-3.0v7 M-2.5,-0.5L0,-3.0L2.5,-0.5"/>
                </g>
                <g id="arrowLeft" xlink:href="#dirArrow" transform="rotate(270) translate(-36 17)" onmousedown="handlePan(-1,0)">
                  <use xlink:href="#rim" fill="#404040">
                        <set attributeName="fill" to="#808080" begin="arrowLeft.mouseover" end="arrowLeft.mouseout"/>
                  </use>
                  <path fill="none" stroke="white" stroke-width="1.5" d="M0,-3.0v7 M-2.5,-0.5L0,-3.0L2.5,-0.5"/>
                </g>
        </g>
        <svg viewBox="0 0 15 15" width="100%" height="30px" preserveAspectRatio="xMaxYMin meet">
         <g id="arrow_out" transform="scale(0.3 0.3)">
          <a xlink:href="classSha256Class_a82049dae520ccf0bd8478f2aef639149_icgraph_org.svg" target="_base">
           <rect id="button" ry="5" rx="5" y="6" x="6" height="38" width="38"
                fill="#f2f5e9" fill-opacity="0.5" stroke="#606060" stroke-width="1.0"/>
           <path id="arrow"
             d="M 11.500037,31.436501 C 11.940474,20.09759 22.043105,11.32322 32.158766,21.979434 L 37.068811,17.246167 C 37.068811,17.246167 37.088388,32 37.088388,32 L 22.160133,31.978069 C 22.160133,31.978069 26.997745,27.140456 26.997745,27.140456 C 18.528582,18.264221 13.291696,25.230495 11.500037,31.436501 z"
             style="fill:#404040;"/>
          </a>
         </g>
        </svg>
</svg>
