<?xml version="1.0" encoding="UTF-8" standalone="no"?>
<!DOCTYPE svg PUBLIC "-//W3C//DTD SVG 1.1//EN"
 "http://www.w3.org/Graphics/SVG/1.1/DTD/svg11.dtd">
<!-- Generated by graphviz version 2.40.1 (20161225.0304)
 -->
<!-- Title: Sha256Class::write Pages: 1 -->
<svg width="826pt" height="162pt"
 viewBox="0.00 0.00 826.00 161.50" xmlns="http://www.w3.org/2000/svg" xmlns:xlink="http://www.w3.org/1999/xlink">
<g id="graph0" class="graph" transform="scale(1 1) rotate(0) translate(4 157.5)">
<title>Sha256Class::write</title>
<polygon fill="#ffffff" stroke="transparent" points="-4,4 -4,-157.5 822,-157.5 822,4 -4,4"/>
<!-- Node128 -->
<g id="node1" class="node">
<title>Node128</title>
<polygon fill="#bfbfbf" stroke="#000000" points="0,-38.5 0,-57.5 102,-57.5 102,-38.5 0,-38.5"/>
<text text-anchor="middle" x="51" y="-45.5" font-family="Helvetica,sans-Serif" font-size="10.00" fill="#000000">Sha256Class::write</text>
</g>
<!-- Node129 -->
<g id="node2" class="node">
<title>Node129</title>
<g id="a_node2"><a xlink:href="classSha256Class.html#a73d3dcea6eb667fd146d12aa5d106939" target="_top" xlink:title="Sha256Class::initHmac">
<polygon fill="#ffffff" stroke="#000000" points="143.5,-38.5 143.5,-57.5 263.5,-57.5 263.5,-38.5 143.5,-38.5"/>
<text text-anchor="middle" x="203.5" y="-45.5" font-family="Helvetica,sans-Serif" font-size="10.00" fill="#000000">Sha256Class::initHmac</text>
</a>
</g>
</g>
<!-- Node128&#45;&gt;Node129 -->
<g id="edge1" class="edge">
<title>Node128&#45;&gt;Node129</title>
<path fill="none" stroke="#191970" d="M112.3171,-48C122.5841,-48 133.227,-48 143.4614,-48"/>
<polygon fill="#191970" stroke="#191970" points="112.2046,-44.5001 102.2045,-48 112.2045,-51.5001 112.2046,-44.5001"/>
</g>
<!-- Node137 -->
<g id="node10" class="node">
<title>Node137</title>
<g id="a_node10"><a xlink:href="classSha256Class.html#a7556f29cadf7eaca21a537df41318af3" target="_top" xlink:title="Sha256Class::resultHmac">
<polygon fill="#ffffff" stroke="#000000" points="138,-.5 138,-19.5 269,-19.5 269,-.5 138,-.5"/>
<text text-anchor="middle" x="203.5" y="-7.5" font-family="Helvetica,sans-Serif" font-size="10.00" fill="#000000">Sha256Class::resultHmac</text>
</a>
</g>
</g>
<!-- Node128&#45;&gt;Node137 -->
<g id="edge11" class="edge">
<title>Node128&#45;&gt;Node137</title>
<path fill="none" stroke="#191970" d="M99.3184,-35.96C120.6234,-30.6512 145.3042,-24.5012 165.2945,-19.5201"/>
<polygon fill="#191970" stroke="#191970" points="98.3392,-32.5969 89.4822,-38.411 100.0318,-39.3892 98.3392,-32.5969"/>
</g>
<!-- Node138 -->
<g id="node11" class="node">
<title>Node138</title>
<g id="a_node11"><a xlink:href="group__TOOSIGNING__HASHING.html#gafb2935303b05255e80a7a6fa4be7cf57" target="_top" xlink:title="TooSigning_hash_data">
<polygon fill="#ffffff" stroke="#000000" points="145.5,-76.5 145.5,-95.5 261.5,-95.5 261.5,-76.5 145.5,-76.5"/>
<text text-anchor="middle" x="203.5" y="-83.5" font-family="Helvetica,sans-Serif" font-size="10.00" fill="#000000">TooSigning_hash_data</text>
</a>
</g>
</g>
<!-- Node128&#45;&gt;Node138 -->
<g id="edge14" class="edge">
<title>Node128&#45;&gt;Node138</title>
<path fill="none" stroke="#191970" d="M99.3184,-60.04C120.6234,-65.3488 145.3042,-71.4988 165.2945,-76.4799"/>
<polygon fill="#191970" stroke="#191970" points="100.0318,-56.6108 89.4822,-57.589 98.3392,-63.4031 100.0318,-56.6108"/>
</g>
<!-- Node130 -->
<g id="node3" class="node">
<title>Node130</title>
<g id="a_node3"><a xlink:href="TooNetworking_8h.html#a9f893c3218491ee86282fdcd9f376500" target="_top" xlink:title="TooNetworking_send\l_signed_">
<polygon fill="#ffffff" stroke="#000000" points="305.5,-64 305.5,-94 414.5,-94 414.5,-64 305.5,-64"/>
<text text-anchor="start" x="313.5" y="-82" font-family="Helvetica,sans-Serif" font-size="10.00" fill="#000000">TooNetworking_send</text>
<text text-anchor="middle" x="360" y="-71" font-family="Helvetica,sans-Serif" font-size="10.00" fill="#000000">_signed_</text>
</a>
</g>
</g>
<!-- Node129&#45;&gt;Node130 -->
<g id="edge2" class="edge">
<title>Node129&#45;&gt;Node130</title>
<path fill="none" stroke="#191970" d="M261.9028,-59.5686C276.1387,-62.3885 291.313,-65.3943 305.366,-68.1779"/>
<polygon fill="#191970" stroke="#191970" points="262.2217,-56.0638 251.7322,-57.554 260.8615,-62.9304 262.2217,-56.0638"/>
</g>
<!-- Node136 -->
<g id="node9" class="node">
<title>Node136</title>
<g id="a_node9"><a xlink:href="TooSigning_8cpp.html#a03df9fd005c518d1114f912ae7da9f06" target="_top" xlink:title="TooSigning_unsigned\l_network_available">
<polygon fill="#ffffff" stroke="#000000" points="305,-8 305,-38 415,-38 415,-8 305,-8"/>
<text text-anchor="start" x="313" y="-26" font-family="Helvetica,sans-Serif" font-size="10.00" fill="#000000">TooSigning_unsigned</text>
<text text-anchor="middle" x="360" y="-15" font-family="Helvetica,sans-Serif" font-size="10.00" fill="#000000">_network_available</text>
</a>
</g>
</g>
<!-- Node129&#45;&gt;Node136 -->
<g id="edge9" class="edge">
<title>Node129&#45;&gt;Node136</title>
<path fill="none" stroke="#191970" d="M273.2085,-36.8645C283.8339,-35.1671 294.6719,-33.4358 304.9263,-31.7977"/>
<polygon fill="#191970" stroke="#191970" points="272.4351,-33.4435 263.1124,-38.4773 273.5393,-40.3559 272.4351,-33.4435"/>
</g>
<!-- Node131 -->
<g id="node4" class="node">
<title>Node131</title>
<g id="a_node4"><a xlink:href="TooNetworking_8h.html#a9209f3e1a2fdf0b3b88d49105b8fc359" target="_top" xlink:title="TooNetworking_send\l_signed">
<polygon fill="#ffffff" stroke="#000000" points="459,-30 459,-60 568,-60 568,-30 459,-30"/>
<text text-anchor="start" x="467" y="-48" font-family="Helvetica,sans-Serif" font-size="10.00" fill="#000000">TooNetworking_send</text>
<text text-anchor="middle" x="513.5" y="-37" font-family="Helvetica,sans-Serif" font-size="10.00" fill="#000000">_signed</text>
</a>
</g>
</g>
<!-- Node130&#45;&gt;Node131 -->
<g id="edge3" class="edge">
<title>Node130&#45;&gt;Node131</title>
<path fill="none" stroke="#191970" d="M424.4808,-64.7176C435.9202,-62.1838 447.7329,-59.5673 458.8666,-57.1012"/>
<polygon fill="#191970" stroke="#191970" points="423.557,-61.3373 414.5506,-66.9171 425.0709,-68.1717 423.557,-61.3373"/>
</g>
<!-- Node132 -->
<g id="node5" class="node">
<title>Node132</title>
<g id="a_node5"><a xlink:href="TooNetworking_8h.html#a085ff748b00f6be4ebafcae2bb0dded1" target="_top" xlink:title="TooNetworking_bufferlist\l_send_signed">
<polygon fill="#ffffff" stroke="#000000" points="617,-123 617,-153 742,-153 742,-123 617,-123"/>
<text text-anchor="start" x="625" y="-141" font-family="Helvetica,sans-Serif" font-size="10.00" fill="#000000">TooNetworking_bufferlist</text>
<text text-anchor="middle" x="679.5" y="-130" font-family="Helvetica,sans-Serif" font-size="10.00" fill="#000000">_send_signed</text>
</a>
</g>
</g>
<!-- Node130&#45;&gt;Node132 -->
<g id="edge4" class="edge">
<title>Node130&#45;&gt;Node132</title>
<path fill="none" stroke="#191970" d="M396.9292,-98.5625C413.09,-106.2379 432.5426,-114.3156 451,-119 505.789,-132.9053 570.1009,-137.2303 616.5139,-138.3248"/>
<polygon fill="#191970" stroke="#191970" points="398.3486,-95.3607 387.8268,-94.1185 395.2775,-101.651 398.3486,-95.3607"/>
</g>
<!-- Node134 -->
<g id="node7" class="node">
<title>Node134</title>
<g id="a_node7"><a xlink:href="TooNetworking_8h.html#ab58e06e0eb6f2f8ecbebeaf3c173fb22" target="_top" xlink:title="TooNetworking_bufferlist\l_send_all">
<polygon fill="#ffffff" stroke="#000000" points="451,-79 451,-109 576,-109 576,-79 451,-79"/>
<text text-anchor="start" x="459" y="-97" font-family="Helvetica,sans-Serif" font-size="10.00" fill="#000000">TooNetworking_bufferlist</text>
<text text-anchor="middle" x="513.5" y="-86" font-family="Helvetica,sans-Serif" font-size="10.00" fill="#000000">_send_all</text>
</a>
</g>
</g>
<!-- Node130&#45;&gt;Node134 -->
<g id="edge6" class="edge">
<title>Node130&#45;&gt;Node134</title>
<path fill="none" stroke="#191970" d="M424.5908,-85.3118C433.2498,-86.158 442.1207,-87.0248 450.7474,-87.8678"/>
<polygon fill="#191970" stroke="#191970" points="424.8436,-81.8199 414.5506,-84.3307 424.1627,-88.7867 424.8436,-81.8199"/>
</g>
<!-- Node133 -->
<g id="node6" class="node">
<title>Node133</title>
<g id="a_node6"><a xlink:href="NODE__SKETCH__TooAutomation__Node_8ino_8cpp.html#a0b33edabd7f1c4e4a0bf32c67269be2f" target="_top" xlink:title="loop">
<polygon fill="#ffffff" stroke="#000000" points="783,-103.5 783,-122.5 818,-122.5 818,-103.5 783,-103.5"/>
<text text-anchor="middle" x="800.5" y="-110.5" font-family="Helvetica,sans-Serif" font-size="10.00" fill="#000000">loop</text>
</a>
</g>
</g>
<!-- Node132&#45;&gt;Node133 -->
<g id="edge5" class="edge">
<title>Node132&#45;&gt;Node133</title>
<path fill="none" stroke="#191970" d="M752.2474,-122.9695C763.636,-120.6165 774.4203,-118.3884 782.8934,-116.6377"/>
<polygon fill="#191970" stroke="#191970" points="751.2115,-119.6096 742.1266,-125.0606 752.6279,-126.4648 751.2115,-119.6096"/>
</g>
<!-- Node135 -->
<g id="node8" class="node">
<title>Node135</title>
<g id="a_node8"><a xlink:href="TooNetworking_8h.html#a7382ba1aed5405c3adc02011ea6c45dd" target="_top" xlink:title="TooNetworking_connection\l_maintenance">
<polygon fill="#ffffff" stroke="#000000" points="612,-74 612,-104 747,-104 747,-74 612,-74"/>
<text text-anchor="start" x="620" y="-92" font-family="Helvetica,sans-Serif" font-size="10.00" fill="#000000">TooNetworking_connection</text>
<text text-anchor="middle" x="679.5" y="-81" font-family="Helvetica,sans-Serif" font-size="10.00" fill="#000000">_maintenance</text>
</a>
</g>
</g>
<!-- Node134&#45;&gt;Node135 -->
<g id="edge7" class="edge">
<title>Node134&#45;&gt;Node135</title>
<path fill="none" stroke="#191970" d="M586.4873,-91.8016C594.951,-91.5467 603.5556,-91.2875 611.9422,-91.0349"/>
<polygon fill="#191970" stroke="#191970" points="586.1475,-88.3101 576.2575,-92.1097 586.3584,-95.307 586.1475,-88.3101"/>
</g>
<!-- Node135&#45;&gt;Node133 -->
<g id="edge8" class="edge">
<title>Node135&#45;&gt;Node133</title>
<path fill="none" stroke="#191970" d="M757.1566,-104.403C766.6588,-106.2877 775.5454,-108.0503 782.7679,-109.4829"/>
<polygon fill="#191970" stroke="#191970" points="757.5653,-100.9159 747.0754,-102.4034 756.2034,-107.7822 757.5653,-100.9159"/>
</g>
<!-- Node136&#45;&gt;Node135 -->
<g id="edge10" class="edge">
<title>Node136&#45;&gt;Node135</title>
<path fill="none" stroke="#191970" d="M425.6231,-11.9072C469.1972,-6.9924 527.1514,-5.2098 576,-20 610.7241,-30.5136 644.4466,-56.9439 663.5276,-73.8724"/>
<polygon fill="#191970" stroke="#191970" points="424.9386,-8.4645 415.4326,-13.1427 425.7812,-15.4136 424.9386,-8.4645"/>
</g>
<!-- Node137&#45;&gt;Node130 -->
<g id="edge12" class="edge">
<title>Node137&#45;&gt;Node130</title>
<path fill="none" stroke="#191970" d="M251.6402,-22.6411C257.5555,-24.5807 263.4631,-26.7086 269,-29 281.7421,-34.2731 311.758,-51.1029 333.8487,-63.7919"/>
<polygon fill="#191970" stroke="#191970" points="252.3303,-19.1903 241.7419,-19.5591 250.2493,-25.8738 252.3303,-19.1903"/>
</g>
<!-- Node137&#45;&gt;Node136 -->
<g id="edge13" class="edge">
<title>Node137&#45;&gt;Node136</title>
<path fill="none" stroke="#191970" d="M279.6267,-16.3236C288.0319,-17.0218 296.4698,-17.7227 304.5521,-18.3941"/>
<polygon fill="#191970" stroke="#191970" points="279.672,-12.8154 269.4165,-15.4755 279.0924,-19.7914 279.672,-12.8154"/>
</g>
<!-- Node138&#45;&gt;Node130 -->
<g id="edge15" class="edge">
<title>Node138&#45;&gt;Node130</title>
<path fill="none" stroke="#191970" d="M271.9255,-82.9394C283.0905,-82.44 294.5266,-81.9285 305.3051,-81.4464"/>
<polygon fill="#191970" stroke="#191970" points="271.6084,-79.45 261.7748,-83.3935 271.9213,-86.443 271.6084,-79.45"/>
</g>
<!-- Node138&#45;&gt;Node136 -->
<g id="edge16" class="edge">
<title>Node138&#45;&gt;Node136</title>
<path fill="none" stroke="#191970" d="M250.4021,-73.4367C256.7092,-71.4447 263.0513,-69.2824 269,-67 290.6268,-58.7024 314.1451,-47.2635 331.8543,-38.1288"/>
<polygon fill="#191970" stroke="#191970" points="249.1325,-70.1644 240.5812,-76.4195 251.1668,-76.8623 249.1325,-70.1644"/>
</g>
</g>
</svg>
