<?xml version="1.0" encoding="UTF-8" standalone="no"?>
<!DOCTYPE svg PUBLIC "-//W3C//DTD SVG 1.1//EN"
 "http://www.w3.org/Graphics/SVG/1.1/DTD/svg11.dtd">
<!-- Generated by graphviz version 2.40.1 (20161225.0304)
 -->
<!-- Title: Sha256Class::initHmac Pages: 1 -->
<svg width="677pt" height="152pt"
 viewBox="0.00 0.00 677.00 152.00" xmlns="http://www.w3.org/2000/svg" xmlns:xlink="http://www.w3.org/1999/xlink">
<g id="graph0" class="graph" transform="scale(1 1) rotate(0) translate(4 148)">
<title>Sha256Class::initHmac</title>
<polygon fill="#ffffff" stroke="transparent" points="-4,4 -4,-148 673,-148 673,4 -4,4"/>
<!-- Node53 -->
<g id="node1" class="node">
<title>Node53</title>
<polygon fill="#bfbfbf" stroke="#000000" points="0,-30 0,-49 120,-49 120,-30 0,-30"/>
<text text-anchor="middle" x="60" y="-37" font-family="Helvetica,sans-Serif" font-size="10.00" fill="#000000">Sha256Class::initHmac</text>
</g>
<!-- Node54 -->
<g id="node2" class="node">
<title>Node54</title>
<g id="a_node2"><a xlink:href="TooNetworking_8h.html#a9f893c3218491ee86282fdcd9f376500" target="_top" xlink:title="TooNetworking_send\l_signed_">
<polygon fill="#ffffff" stroke="#000000" points="156.5,-59.5 156.5,-89.5 265.5,-89.5 265.5,-59.5 156.5,-59.5"/>
<text text-anchor="start" x="164.5" y="-77.5" font-family="Helvetica,sans-Serif" font-size="10.00" fill="#000000">TooNetworking_send</text>
<text text-anchor="middle" x="211" y="-66.5" font-family="Helvetica,sans-Serif" font-size="10.00" fill="#000000">_signed_</text>
</a>
</g>
</g>
<!-- Node53&#45;&gt;Node54 -->
<g id="edge1" class="edge">
<title>Node53&#45;&gt;Node54</title>
<path fill="none" stroke="#191970" d="M111.1192,-51.3488C125.7176,-54.7326 141.6783,-58.4321 156.4722,-61.8611"/>
<polygon fill="#191970" stroke="#191970" points="111.7935,-47.9124 101.2614,-49.0639 110.2128,-54.7316 111.7935,-47.9124"/>
</g>
<!-- Node60 -->
<g id="node8" class="node">
<title>Node60</title>
<g id="a_node8"><a xlink:href="TooSigning_8cpp.html#a03df9fd005c518d1114f912ae7da9f06" target="_top" xlink:title="TooSigning_unsigned\l_network_available">
<polygon fill="#ffffff" stroke="#000000" points="156,-.5 156,-30.5 266,-30.5 266,-.5 156,-.5"/>
<text text-anchor="start" x="164" y="-18.5" font-family="Helvetica,sans-Serif" font-size="10.00" fill="#000000">TooSigning_unsigned</text>
<text text-anchor="middle" x="211" y="-7.5" font-family="Helvetica,sans-Serif" font-size="10.00" fill="#000000">_network_available</text>
</a>
</g>
</g>
<!-- Node53&#45;&gt;Node60 -->
<g id="edge8" class="edge">
<title>Node53&#45;&gt;Node60</title>
<path fill="none" stroke="#191970" d="M130.2035,-28.3418C138.8589,-26.9661 147.6076,-25.5756 155.9916,-24.2431"/>
<polygon fill="#191970" stroke="#191970" points="129.4397,-24.9192 120.1131,-29.9456 130.5385,-31.8324 129.4397,-24.9192"/>
</g>
<!-- Node55 -->
<g id="node3" class="node">
<title>Node55</title>
<g id="a_node3"><a xlink:href="TooNetworking_8h.html#a9209f3e1a2fdf0b3b88d49105b8fc359" target="_top" xlink:title="TooNetworking_send\l_signed">
<polygon fill="#ffffff" stroke="#000000" points="310,-113.5 310,-143.5 419,-143.5 419,-113.5 310,-113.5"/>
<text text-anchor="start" x="318" y="-131.5" font-family="Helvetica,sans-Serif" font-size="10.00" fill="#000000">TooNetworking_send</text>
<text text-anchor="middle" x="364.5" y="-120.5" font-family="Helvetica,sans-Serif" font-size="10.00" fill="#000000">_signed</text>
</a>
</g>
</g>
<!-- Node54&#45;&gt;Node55 -->
<g id="edge2" class="edge">
<title>Node54&#45;&gt;Node55</title>
<path fill="none" stroke="#191970" d="M263.1968,-92.8624C282.2517,-99.5657 303.5634,-107.063 321.705,-113.4451"/>
<polygon fill="#191970" stroke="#191970" points="264.3531,-89.559 253.7583,-89.542 262.0301,-96.1623 264.3531,-89.559"/>
</g>
<!-- Node56 -->
<g id="node4" class="node">
<title>Node56</title>
<g id="a_node4"><a xlink:href="TooNetworking_8h.html#a085ff748b00f6be4ebafcae2bb0dded1" target="_top" xlink:title="TooNetworking_bufferlist\l_send_signed">
<polygon fill="#ffffff" stroke="#000000" points="468,-69.5 468,-99.5 593,-99.5 593,-69.5 468,-69.5"/>
<text text-anchor="start" x="476" y="-87.5" font-family="Helvetica,sans-Serif" font-size="10.00" fill="#000000">TooNetworking_bufferlist</text>
<text text-anchor="middle" x="530.5" y="-76.5" font-family="Helvetica,sans-Serif" font-size="10.00" fill="#000000">_send_signed</text>
</a>
</g>
</g>
<!-- Node54&#45;&gt;Node56 -->
<g id="edge3" class="edge">
<title>Node54&#45;&gt;Node56</title>
<path fill="none" stroke="#191970" d="M275.7391,-76.5263C331.8409,-78.2822 412.4983,-80.8067 467.9493,-82.5422"/>
<polygon fill="#191970" stroke="#191970" points="275.6656,-73.0223 265.561,-76.2077 275.4466,-80.0189 275.6656,-73.0223"/>
</g>
<!-- Node58 -->
<g id="node6" class="node">
<title>Node58</title>
<g id="a_node6"><a xlink:href="TooNetworking_8h.html#ab58e06e0eb6f2f8ecbebeaf3c173fb22" target="_top" xlink:title="TooNetworking_bufferlist\l_send_all">
<polygon fill="#ffffff" stroke="#000000" points="302,-25.5 302,-55.5 427,-55.5 427,-25.5 302,-25.5"/>
<text text-anchor="start" x="310" y="-43.5" font-family="Helvetica,sans-Serif" font-size="10.00" fill="#000000">TooNetworking_bufferlist</text>
<text text-anchor="middle" x="364.5" y="-32.5" font-family="Helvetica,sans-Serif" font-size="10.00" fill="#000000">_send_all</text>
</a>
</g>
</g>
<!-- Node54&#45;&gt;Node58 -->
<g id="edge5" class="edge">
<title>Node54&#45;&gt;Node58</title>
<path fill="none" stroke="#191970" d="M275.5908,-60.1932C284.2498,-58.2753 293.1207,-56.3104 301.7474,-54.3996"/>
<polygon fill="#191970" stroke="#191970" points="274.557,-56.8373 265.5506,-62.4171 276.0709,-63.6717 274.557,-56.8373"/>
</g>
<!-- Node57 -->
<g id="node5" class="node">
<title>Node57</title>
<g id="a_node5"><a xlink:href="NODE__SKETCH__TooAutomation__Node_8ino_8cpp.html#a0b33edabd7f1c4e4a0bf32c67269be2f" target="_top" xlink:title="loop">
<polygon fill="#ffffff" stroke="#000000" points="634,-50 634,-69 669,-69 669,-50 634,-50"/>
<text text-anchor="middle" x="651.5" y="-57" font-family="Helvetica,sans-Serif" font-size="10.00" fill="#000000">loop</text>
</a>
</g>
</g>
<!-- Node56&#45;&gt;Node57 -->
<g id="edge4" class="edge">
<title>Node56&#45;&gt;Node57</title>
<path fill="none" stroke="#191970" d="M603.2474,-69.4695C614.636,-67.1165 625.4203,-64.8884 633.8934,-63.1377"/>
<polygon fill="#191970" stroke="#191970" points="602.2115,-66.1096 593.1266,-71.5606 603.6279,-72.9648 602.2115,-66.1096"/>
</g>
<!-- Node59 -->
<g id="node7" class="node">
<title>Node59</title>
<g id="a_node7"><a xlink:href="TooNetworking_8h.html#a7382ba1aed5405c3adc02011ea6c45dd" target="_top" xlink:title="TooNetworking_connection\l_maintenance">
<polygon fill="#ffffff" stroke="#000000" points="463,-20.5 463,-50.5 598,-50.5 598,-20.5 463,-20.5"/>
<text text-anchor="start" x="471" y="-38.5" font-family="Helvetica,sans-Serif" font-size="10.00" fill="#000000">TooNetworking_connection</text>
<text text-anchor="middle" x="530.5" y="-27.5" font-family="Helvetica,sans-Serif" font-size="10.00" fill="#000000">_maintenance</text>
</a>
</g>
</g>
<!-- Node58&#45;&gt;Node59 -->
<g id="edge6" class="edge">
<title>Node58&#45;&gt;Node59</title>
<path fill="none" stroke="#191970" d="M437.4873,-38.3016C445.951,-38.0467 454.5556,-37.7875 462.9422,-37.5349"/>
<polygon fill="#191970" stroke="#191970" points="437.1475,-34.8101 427.2575,-38.6097 437.3584,-41.807 437.1475,-34.8101"/>
</g>
<!-- Node59&#45;&gt;Node57 -->
<g id="edge7" class="edge">
<title>Node59&#45;&gt;Node57</title>
<path fill="none" stroke="#191970" d="M608.1566,-50.903C617.6588,-52.7877 626.5454,-54.5503 633.7679,-55.9829"/>
<polygon fill="#191970" stroke="#191970" points="608.5653,-47.4159 598.0754,-48.9034 607.2034,-54.2822 608.5653,-47.4159"/>
</g>
<!-- Node60&#45;&gt;Node59 -->
<g id="edge9" class="edge">
<title>Node60&#45;&gt;Node59</title>
<path fill="none" stroke="#191970" d="M276.218,-12.2715C319.1543,-10.9401 376.5442,-10.6697 427,-15.5 438.6594,-16.6162 450.9579,-18.4243 462.8472,-20.5086"/>
<polygon fill="#191970" stroke="#191970" points="276.0575,-8.7748 266.1812,-12.61 276.2936,-15.7708 276.0575,-8.7748"/>
</g>
</g>
</svg>
