<?xml version="1.0" encoding="UTF-8" standalone="no"?>
<!DOCTYPE svg PUBLIC "-//W3C//DTD SVG 1.1//EN"
 "http://www.w3.org/Graphics/SVG/1.1/DTD/svg11.dtd">
<!-- Generated by graphviz version 2.40.1 (20161225.0304)
 -->
<!-- Title: Sha256Class::hashBlock Pages: 1 -->
<!--zoomable 129 -->
<svg id="main" version="1.1" xmlns="http://www.w3.org/2000/svg" xmlns:xlink="http://www.w3.org/1999/xlink" xml:space="preserve" onload="init(evt)">
<style type="text/css"><![CDATA[
.edge:hover path { stroke: red; }
.edge:hover polygon { stroke: red; fill: red; }
]]></style>
<script type="text/javascript"><![CDATA[
var edges = document.getElementsByTagName('g');
if (edges && edges.length) {
  for (var i=0;i<edges.length;i++) {
    if (edges[i].id.substr(0,4)=='edge') {
      edges[i].setAttribute('class','edge');
    }
  }
}
]]></script>
        <defs>
                <circle id="rim" cx="0" cy="0" r="7"/>
                <circle id="rim2" cx="0" cy="0" r="3.5"/>
                <g id="zoomPlus">
                        <use xlink:href="#rim" fill="#404040">
                                <set attributeName="fill" to="#808080" begin="zoomplus.mouseover" end="zoomplus.mouseout"/>
                        </use>
                        <path d="M-4,0h8M0,-4v8" fill="none" stroke="white" stroke-width="1.5" pointer-events="none"/>
                </g>
                <g id="zoomMin">
                        <use xlink:href="#rim" fill="#404040">
                                <set attributeName="fill" to="#808080" begin="zoomminus.mouseover" end="zoomminus.mouseout"/>
                        </use>
                        <path d="M-4,0h8" fill="none" stroke="white" stroke-width="1.5" pointer-events="none"/>
                </g>
                <g id="dirArrow">
                        <path fill="none" stroke="white" stroke-width="1.5" d="M0,-3.0v7 M-2.5,-0.5L0,-3.0L2.5,-0.5"/>
                </g>
               <g id="resetDef">
                       <use xlink:href="#rim2" fill="#404040">
                               <set attributeName="fill" to="#808080" begin="reset.mouseover" end="reset.mouseout"/>
                       </use>
               </g>
        </defs>

<script type="text/javascript">
var viewWidth = 1147;
var viewHeight = 129;
var sectionId = 'dynsection-4';
</script>
<script xlink:href="svgpan.js"/>
<svg id="graph" class="graph">
<g id="viewport">
<title>Sha256Class::hashBlock</title>
<polygon fill="#ffffff" stroke="transparent" points="-4,4 -4,-125 1143,-125 1143,4 -4,4"/>
<!-- Node18 -->
<g id="node1" class="node">
<title>Node18</title>
<polygon fill="#bfbfbf" stroke="#000000" points="0,-57.5 0,-76.5 127,-76.5 127,-57.5 0,-57.5"/>
<text text-anchor="middle" x="63.5" y="-64.5" font-family="Helvetica,sans-Serif" font-size="10.00" fill="#000000">Sha256Class::hashBlock</text>
</g>
<!-- Node19 -->
<g id="node2" class="node">
<title>Node19</title>
<g id="a_node2"><a xlink:href="classSha256Class.html#ab0b46743e3d59b1c68f52ed89dfaff50" target="_top" xlink:title="Sha256Class::addUncounted">
<polygon fill="#ffffff" stroke="#000000" points="163,-57.5 163,-76.5 307,-76.5 307,-57.5 163,-57.5"/>
<text text-anchor="middle" x="235" y="-64.5" font-family="Helvetica,sans-Serif" font-size="10.00" fill="#000000">Sha256Class::addUncounted</text>
</a>
</g>
</g>
<!-- Node18&#45;&gt;Node19 -->
<g id="edge1" class="edge">
<title>Node18&#45;&gt;Node19</title>
<path fill="none" stroke="#191970" d="M137.4728,-67C145.8434,-67 154.3666,-67 162.7152,-67"/>
<polygon fill="#191970" stroke="#191970" points="137.3603,-63.5001 127.3603,-67 137.3602,-70.5001 137.3603,-63.5001"/>
</g>
<!-- Node20 -->
<g id="node3" class="node">
<title>Node20</title>
<g id="a_node3"><a xlink:href="classSha256Class.html#a0f0fc4bd4d8c53d232df0d41d7ea25e0" target="_top" xlink:title="Sha256Class::write">
<polygon fill="#ffffff" stroke="#000000" points="477.5,-38.5 477.5,-57.5 579.5,-57.5 579.5,-38.5 477.5,-38.5"/>
<text text-anchor="middle" x="528.5" y="-45.5" font-family="Helvetica,sans-Serif" font-size="10.00" fill="#000000">Sha256Class::write</text>
</a>
</g>
</g>
<!-- Node19&#45;&gt;Node20 -->
<g id="edge2" class="edge">
<title>Node19&#45;&gt;Node20</title>
<path fill="none" stroke="#191970" d="M317.2671,-61.6744C368.6598,-58.3474 433.2228,-54.1679 477.3572,-51.3108"/>
<polygon fill="#191970" stroke="#191970" points="316.9271,-58.189 307.1741,-62.3277 317.3793,-65.1743 316.9271,-58.189"/>
</g>
<!-- Node30 -->
<g id="node13" class="node">
<title>Node30</title>
<g id="a_node13"><a xlink:href="classSha256Class.html#a82049dae520ccf0bd8478f2aef639149" target="_top" xlink:title="Sha256Class::pad">
<polygon fill="#ffffff" stroke="#000000" points="343,-76.5 343,-95.5 440,-95.5 440,-76.5 343,-76.5"/>
<text text-anchor="middle" x="391.5" y="-83.5" font-family="Helvetica,sans-Serif" font-size="10.00" fill="#000000">Sha256Class::pad</text>
</a>
</g>
</g>
<!-- Node19&#45;&gt;Node30 -->
<g id="edge16" class="edge">
<title>Node19&#45;&gt;Node30</title>
<path fill="none" stroke="#191970" d="M317.4503,-77.0099C326.0962,-78.0596 334.6735,-79.1009 342.7583,-80.0825"/>
<polygon fill="#191970" stroke="#191970" points="317.6436,-73.5078 307.2947,-75.777 316.7999,-80.4568 317.6436,-73.5078"/>
</g>
<!-- Node21 -->
<g id="node4" class="node">
<title>Node21</title>
<g id="a_node4"><a xlink:href="classSha256Class.html#a73d3dcea6eb667fd146d12aa5d106939" target="_top" xlink:title="Sha256Class::initHmac">
<polygon fill="#ffffff" stroke="#000000" points="622.5,-38.5 622.5,-57.5 742.5,-57.5 742.5,-38.5 622.5,-38.5"/>
<text text-anchor="middle" x="682.5" y="-45.5" font-family="Helvetica,sans-Serif" font-size="10.00" fill="#000000">Sha256Class::initHmac</text>
</a>
</g>
</g>
<!-- Node20&#45;&gt;Node21 -->
<g id="edge3" class="edge">
<title>Node20&#45;&gt;Node21</title>
<path fill="none" stroke="#191970" d="M589.8829,-48C600.5846,-48 611.7064,-48 622.3738,-48"/>
<polygon fill="#191970" stroke="#191970" points="589.7798,-44.5001 579.7798,-48 589.7797,-51.5001 589.7798,-44.5001"/>
</g>
<!-- Node27 -->
<g id="node10" class="node">
<title>Node27</title>
<g id="a_node10"><a xlink:href="classSha256Class.html#a7556f29cadf7eaca21a537df41318af3" target="_top" xlink:title="Sha256Class::resultHmac">
<polygon fill="#ffffff" stroke="#000000" points="617,-76.5 617,-95.5 748,-95.5 748,-76.5 617,-76.5"/>
<text text-anchor="middle" x="682.5" y="-83.5" font-family="Helvetica,sans-Serif" font-size="10.00" fill="#000000">Sha256Class::resultHmac</text>
</a>
</g>
</g>
<!-- Node20&#45;&gt;Node27 -->
<g id="edge9" class="edge">
<title>Node20&#45;&gt;Node27</title>
<path fill="none" stroke="#191970" d="M577.2937,-60.04C598.8082,-65.3488 623.7318,-71.4988 643.9187,-76.4799"/>
<polygon fill="#191970" stroke="#191970" points="577.908,-56.5867 567.3607,-57.589 576.231,-63.3828 577.908,-56.5867"/>
</g>
<!-- Node29 -->
<g id="node12" class="node">
<title>Node29</title>
<g id="a_node12"><a xlink:href="group__TOOSIGNING__HASHING.html#gafb2935303b05255e80a7a6fa4be7cf57" target="_top" xlink:title="TooSigning_hash_data">
<polygon fill="#ffffff" stroke="#000000" points="624.5,-.5 624.5,-19.5 740.5,-19.5 740.5,-.5 624.5,-.5"/>
<text text-anchor="middle" x="682.5" y="-7.5" font-family="Helvetica,sans-Serif" font-size="10.00" fill="#000000">TooSigning_hash_data</text>
</a>
</g>
</g>
<!-- Node20&#45;&gt;Node29 -->
<g id="edge13" class="edge">
<title>Node20&#45;&gt;Node29</title>
<path fill="none" stroke="#191970" d="M577.2937,-35.96C598.8082,-30.6512 623.7318,-24.5012 643.9187,-19.5201"/>
<polygon fill="#191970" stroke="#191970" points="576.231,-32.6172 567.3607,-38.411 577.908,-39.4133 576.231,-32.6172"/>
</g>
<!-- Node22 -->
<g id="node5" class="node">
<title>Node22</title>
<g id="a_node5"><a xlink:href="TooSigning_8h.html#a1e2cd2b37702263e1fe166395350bf08" target="_top" xlink:title="TooSigning_init_hmac">
<polygon fill="#ffffff" stroke="#000000" points="784,-13.5 784,-32.5 897,-32.5 897,-13.5 784,-13.5"/>
<text text-anchor="middle" x="840.5" y="-20.5" font-family="Helvetica,sans-Serif" font-size="10.00" fill="#000000">TooSigning_init_hmac</text>
</a>
</g>
</g>
<!-- Node21&#45;&gt;Node22 -->
<g id="edge4" class="edge">
<title>Node21&#45;&gt;Node22</title>
<path fill="none" stroke="#191970" d="M752.6179,-36.9054C763.0719,-35.2513 773.736,-33.5639 783.8655,-31.9612"/>
<polygon fill="#191970" stroke="#191970" points="752.0139,-33.4573 742.6838,-38.4773 753.1079,-40.3713 752.0139,-33.4573"/>
</g>
<!-- Node24 -->
<g id="node7" class="node">
<title>Node24</title>
<g id="a_node7"><a xlink:href="TooSigning_8cpp.html#a03df9fd005c518d1114f912ae7da9f06" target="_top" xlink:title="TooSigning_unsigned\l_network_available">
<polygon fill="#ffffff" stroke="#000000" points="785.5,-52 785.5,-82 895.5,-82 895.5,-52 785.5,-52"/>
<text text-anchor="start" x="793.5" y="-70" font-family="Helvetica,sans-Serif" font-size="10.00" fill="#000000">TooSigning_unsigned</text>
<text text-anchor="middle" x="840.5" y="-59" font-family="Helvetica,sans-Serif" font-size="10.00" fill="#000000">_network_available</text>
</a>
</g>
</g>
<!-- Node21&#45;&gt;Node24 -->
<g id="edge6" class="edge">
<title>Node21&#45;&gt;Node24</title>
<path fill="none" stroke="#191970" d="M752.6701,-56.4382C763.6414,-57.7575 774.8427,-59.1045 785.4134,-60.3757"/>
<polygon fill="#191970" stroke="#191970" points="753.0301,-52.9563 742.6838,-55.2373 752.1943,-59.9063 753.0301,-52.9563"/>
</g>
<!-- Node23 -->
<g id="node6" class="node">
<title>Node23</title>
<g id="a_node6"><a xlink:href="TooNetworking_8h.html#ab5dfe46515ee5ca8f9893675df673d96" target="_top" xlink:title="TooNetworking_send\l_signed">
<polygon fill="#ffffff" stroke="#000000" points="946,-5 946,-35 1055,-35 1055,-5 946,-5"/>
<text text-anchor="start" x="954" y="-23" font-family="Helvetica,sans-Serif" font-size="10.00" fill="#000000">TooNetworking_send</text>
<text text-anchor="middle" x="1000.5" y="-12" font-family="Helvetica,sans-Serif" font-size="10.00" fill="#000000">_signed</text>
</a>
</g>
</g>
<!-- Node22&#45;&gt;Node23 -->
<g id="edge5" class="edge">
<title>Node22&#45;&gt;Node23</title>
<path fill="none" stroke="#191970" d="M907.5144,-21.7435C920.33,-21.5032 933.6024,-21.2543 945.9684,-21.0225"/>
<polygon fill="#191970" stroke="#191970" points="907.2931,-18.2469 897.3605,-21.9339 907.4244,-25.2457 907.2931,-18.2469"/>
</g>
<!-- Node25 -->
<g id="node8" class="node">
<title>Node25</title>
<g id="a_node8"><a xlink:href="TooNetworking_8h.html#a7382ba1aed5405c3adc02011ea6c45dd" target="_top" xlink:title="TooNetworking_connection\l_maintenance">
<polygon fill="#ffffff" stroke="#000000" points="933,-54 933,-84 1068,-84 1068,-54 933,-54"/>
<text text-anchor="start" x="941" y="-72" font-family="Helvetica,sans-Serif" font-size="10.00" fill="#000000">TooNetworking_connection</text>
<text text-anchor="middle" x="1000.5" y="-61" font-family="Helvetica,sans-Serif" font-size="10.00" fill="#000000">_maintenance</text>
</a>
</g>
</g>
<!-- Node24&#45;&gt;Node25 -->
<g id="edge7" class="edge">
<title>Node24&#45;&gt;Node25</title>
<path fill="none" stroke="#191970" d="M905.587,-67.8136C914.5862,-67.9261 923.8465,-68.0418 932.8902,-68.1549"/>
<polygon fill="#191970" stroke="#191970" points="905.6059,-64.3136 895.5629,-67.6883 905.5184,-71.3131 905.6059,-64.3136"/>
</g>
<!-- Node26 -->
<g id="node9" class="node">
<title>Node26</title>
<g id="a_node9"><a xlink:href="NODE__SKETCH__TooAutomation__Node_8ino_8cpp.html#a0b33edabd7f1c4e4a0bf32c67269be2f" target="_top" xlink:title="loop">
<polygon fill="#ffffff" stroke="#000000" points="1104,-59.5 1104,-78.5 1139,-78.5 1139,-59.5 1104,-59.5"/>
<text text-anchor="middle" x="1121.5" y="-66.5" font-family="Helvetica,sans-Serif" font-size="10.00" fill="#000000">loop</text>
</a>
</g>
</g>
<!-- Node25&#45;&gt;Node26 -->
<g id="edge8" class="edge">
<title>Node25&#45;&gt;Node26</title>
<path fill="none" stroke="#191970" d="M1078.1566,-69C1087.6588,-69 1096.5454,-69 1103.7679,-69"/>
<polygon fill="#191970" stroke="#191970" points="1078.0755,-65.5001 1068.0754,-69 1078.0754,-72.5001 1078.0755,-65.5001"/>
</g>
<!-- Node27&#45;&gt;Node24 -->
<g id="edge12" class="edge">
<title>Node27&#45;&gt;Node24</title>
<path fill="none" stroke="#191970" d="M758.0697,-76.9125C767.2707,-75.8061 776.534,-74.6921 785.3589,-73.6309"/>
<polygon fill="#191970" stroke="#191970" points="757.6442,-73.4384 748.1336,-78.1074 758.48,-80.3883 757.6442,-73.4384"/>
</g>
<!-- Node28 -->
<g id="node11" class="node">
<title>Node28</title>
<g id="a_node11"><a xlink:href="TooSigning_8h.html#ab8a2415b95a77c91ffbc6ebbde622f64" target="_top" xlink:title="TooSigning_get_hmac">
<polygon fill="#ffffff" stroke="#000000" points="784,-101.5 784,-120.5 897,-120.5 897,-101.5 784,-101.5"/>
<text text-anchor="middle" x="840.5" y="-108.5" font-family="Helvetica,sans-Serif" font-size="10.00" fill="#000000">TooSigning_get_hmac</text>
</a>
</g>
</g>
<!-- Node27&#45;&gt;Node28 -->
<g id="edge10" class="edge">
<title>Node27&#45;&gt;Node28</title>
<path fill="none" stroke="#191970" d="M752.6179,-97.0946C763.0719,-98.7487 773.736,-100.4361 783.8655,-102.0388"/>
<polygon fill="#191970" stroke="#191970" points="753.1079,-93.6287 742.6838,-95.5227 752.0139,-100.5427 753.1079,-93.6287"/>
</g>
<!-- Node28&#45;&gt;Node23 -->
<g id="edge11" class="edge">
<title>Node28&#45;&gt;Node23</title>
<path fill="none" stroke="#191970" d="M886.597,-97.2909C890.2567,-95.4317 893.7783,-93.3425 897,-91 918.2815,-75.526 911.7293,-59.4888 933,-44 937.625,-40.6322 942.7673,-37.6998 948.0916,-35.1551"/>
<polygon fill="#191970" stroke="#191970" points="885.0028,-94.1698 877.3074,-101.452 887.8644,-100.5582 885.0028,-94.1698"/>
</g>
<!-- Node29&#45;&gt;Node23 -->
<g id="edge14" class="edge">
<title>Node29&#45;&gt;Node23</title>
<path fill="none" stroke="#191970" d="M750.9991,-4.4417C793.1586,-1.9245 848.2723,-.2558 897,-4 912.9533,-5.2258 930.1687,-7.4995 945.8934,-9.9558"/>
<polygon fill="#191970" stroke="#191970" points="750.6067,-.9594 740.8457,-5.0791 751.0454,-7.9456 750.6067,-.9594"/>
</g>
<!-- Node29&#45;&gt;Node24 -->
<g id="edge15" class="edge">
<title>Node29&#45;&gt;Node24</title>
<path fill="none" stroke="#191970" d="M727.8792,-22.4753C734.6612,-24.5383 741.5412,-26.7439 748,-29 767.5043,-35.813 788.8631,-44.5031 806.1377,-51.853"/>
<polygon fill="#191970" stroke="#191970" points="728.6557,-19.055 718.0732,-19.5656 726.6644,-25.7658 728.6557,-19.055"/>
</g>
<!-- Node31 -->
<g id="node14" class="node">
<title>Node31</title>
<g id="a_node14"><a xlink:href="classSha256Class.html#a0ca245a22f8b056a3d1902da3c64b705" target="_top" xlink:title="Sha256Class::result">
<polygon fill="#ffffff" stroke="#000000" points="476,-76.5 476,-95.5 581,-95.5 581,-76.5 476,-76.5"/>
<text text-anchor="middle" x="528.5" y="-83.5" font-family="Helvetica,sans-Serif" font-size="10.00" fill="#000000">Sha256Class::result</text>
</a>
</g>
</g>
<!-- Node30&#45;&gt;Node31 -->
<g id="edge17" class="edge">
<title>Node30&#45;&gt;Node31</title>
<path fill="none" stroke="#191970" d="M450.3612,-86C458.8127,-86 467.4639,-86 475.7863,-86"/>
<polygon fill="#191970" stroke="#191970" points="450.1869,-82.5001 440.1868,-86 450.1868,-89.5001 450.1869,-82.5001"/>
</g>
<!-- Node31&#45;&gt;Node21 -->
<g id="edge18" class="edge">
<title>Node31&#45;&gt;Node21</title>
<path fill="none" stroke="#191970" d="M577.2937,-73.96C598.8082,-68.6512 623.7318,-62.5012 643.9187,-57.5201"/>
<polygon fill="#191970" stroke="#191970" points="576.231,-70.6172 567.3607,-76.411 577.908,-77.4133 576.231,-70.6172"/>
</g>
<!-- Node31&#45;&gt;Node27 -->
<g id="edge19" class="edge">
<title>Node31&#45;&gt;Node27</title>
<path fill="none" stroke="#191970" d="M591.2163,-86C599.6565,-86 608.334,-86 616.8237,-86"/>
<polygon fill="#191970" stroke="#191970" points="591.0674,-82.5001 581.0673,-86 591.0673,-89.5001 591.0674,-82.5001"/>
</g>
</g>
</svg>
        <g id="navigator" transform="translate(0 0)" fill="#404254">
                <rect fill="#f2f5e9" fill-opacity="0.5" stroke="#606060" stroke-width=".5" x="0" y="0" width="60" height="60"/>
                <use id="zoomplus" xlink:href="#zoomPlus" x="17" y="9" onmousedown="handleZoom(evt,'in')"/>
                <use id="zoomminus" xlink:href="#zoomMin" x="42" y="9" onmousedown="handleZoom(evt,'out')"/>
                <use id="reset" xlink:href="#resetDef" x="30" y="36" onmousedown="handleReset()"/>
                <g id="arrowUp" xlink:href="#dirArrow" transform="translate(30 24)" onmousedown="handlePan(0,-1)">
                  <use xlink:href="#rim" fill="#404040">
                        <set attributeName="fill" to="#808080" begin="arrowUp.mouseover" end="arrowUp.mouseout"/>
                  </use>
                  <path fill="none" stroke="white" stroke-width="1.5" d="M0,-3.0v7 M-2.5,-0.5L0,-3.0L2.5,-0.5"/>
                </g>
                <g id="arrowRight" xlink:href="#dirArrow" transform="rotate(90) translate(36 -43)" onmousedown="handlePan(1,0)">
                  <use xlink:href="#rim" fill="#404040">
                        <set attributeName="fill" to="#808080" begin="arrowRight.mouseover" end="arrowRight.mouseout"/>
                  </use>
                  <path fill="none" stroke="white" stroke-width="1.5" d="M0,-3.0v7 M-2.5,-0.5L0,-3.0L2.5,-0.5"/>
                </g>
                <g id="arrowDown" xlink:href="#dirArrow" transform="rotate(180) translate(-30 -48)" onmousedown="handlePan(0,1)">
                  <use xlink:href="#rim" fill="#404040">
                        <set attributeName="fill" to="#808080" begin="arrowDown.mouseover" end="arrowDown.mouseout"/>
                  </use>
                  <path fill="none" stroke="white" stroke-width="1.5" d="M0,-3.0v7 M-2.5,-0.5L0,-3.0L2.5,-0.5"/>
                </g>
                <g id="arrowLeft" xlink:href="#dirArrow" transform="rotate(270) translate(-36 17)" onmousedown="handlePan(-1,0)">
                  <use xlink:href="#rim" fill="#404040">
                        <set attributeName="fill" to="#808080" begin="arrowLeft.mouseover" end="arrowLeft.mouseout"/>
                  </use>
                  <path fill="none" stroke="white" stroke-width="1.5" d="M0,-3.0v7 M-2.5,-0.5L0,-3.0L2.5,-0.5"/>
                </g>
        </g>
        <svg viewBox="0 0 15 15" width="100%" height="30px" preserveAspectRatio="xMaxYMin meet">
         <g id="arrow_out" transform="scale(0.3 0.3)">
          <a xlink:href="classSha256Class_a399d2a23951e2130f54af8ac7712068f_icgraph_org.svg" target="_base">
           <rect id="button" ry="5" rx="5" y="6" x="6" height="38" width="38"
                fill="#f2f5e9" fill-opacity="0.5" stroke="#606060" stroke-width="1.0"/>
           <path id="arrow"
             d="M 11.500037,31.436501 C 11.940474,20.09759 22.043105,11.32322 32.158766,21.979434 L 37.068811,17.246167 C 37.068811,17.246167 37.088388,32 37.088388,32 L 22.160133,31.978069 C 22.160133,31.978069 26.997745,27.140456 26.997745,27.140456 C 18.528582,18.264221 13.291696,25.230495 11.500037,31.436501 z"
             style="fill:#404040;"/>
          </a>
         </g>
        </svg>
</svg>
