<?xml version="1.0" encoding="UTF-8" standalone="no"?>
<!DOCTYPE svg PUBLIC "-//W3C//DTD SVG 1.1//EN"
 "http://www.w3.org/Graphics/SVG/1.1/DTD/svg11.dtd">
<!-- Generated by graphviz version 2.40.1 (20161225.0304)
 -->
<!-- Title: Sha256Class::ror32 Pages: 1 -->
<svg width="1444pt" height="162pt"
 viewBox="0.00 0.00 1444.00 161.50" xmlns="http://www.w3.org/2000/svg" xmlns:xlink="http://www.w3.org/1999/xlink">
<g id="graph0" class="graph" transform="scale(1 1) rotate(0) translate(4 157.5)">
<title>Sha256Class::ror32</title>
<polygon fill="#ffffff" stroke="transparent" points="-4,4 -4,-157.5 1440,-157.5 1440,4 -4,4"/>
<!-- Node108 -->
<g id="node1" class="node">
<title>Node108</title>
<polygon fill="#bfbfbf" stroke="#000000" points="0,-57.5 0,-76.5 103,-76.5 103,-57.5 0,-57.5"/>
<text text-anchor="middle" x="51.5" y="-64.5" font-family="Helvetica,sans-Serif" font-size="10.00" fill="#000000">Sha256Class::ror32</text>
</g>
<!-- Node109 -->
<g id="node2" class="node">
<title>Node109</title>
<g id="a_node2"><a xlink:href="classSha256Class.html#a399d2a23951e2130f54af8ac7712068f" target="_top" xlink:title="Sha256Class::hashBlock">
<polygon fill="#ffffff" stroke="#000000" points="139,-57.5 139,-76.5 266,-76.5 266,-57.5 139,-57.5"/>
<text text-anchor="middle" x="202.5" y="-64.5" font-family="Helvetica,sans-Serif" font-size="10.00" fill="#000000">Sha256Class::hashBlock</text>
</a>
</g>
</g>
<!-- Node108&#45;&gt;Node109 -->
<g id="edge1" class="edge">
<title>Node108&#45;&gt;Node109</title>
<path fill="none" stroke="#191970" d="M113.224,-67C121.6923,-67 130.3998,-67 138.9009,-67"/>
<polygon fill="#191970" stroke="#191970" points="113.0433,-63.5001 103.0433,-67 113.0433,-70.5001 113.0433,-63.5001"/>
</g>
<!-- Node110 -->
<g id="node3" class="node">
<title>Node110</title>
<g id="a_node3"><a xlink:href="classSha256Class.html#ab0b46743e3d59b1c68f52ed89dfaff50" target="_top" xlink:title="Sha256Class::addUncounted">
<polygon fill="#ffffff" stroke="#000000" points="302,-57.5 302,-76.5 446,-76.5 446,-57.5 302,-57.5"/>
<text text-anchor="middle" x="374" y="-64.5" font-family="Helvetica,sans-Serif" font-size="10.00" fill="#000000">Sha256Class::addUncounted</text>
</a>
</g>
</g>
<!-- Node109&#45;&gt;Node110 -->
<g id="edge2" class="edge">
<title>Node109&#45;&gt;Node110</title>
<path fill="none" stroke="#191970" d="M276.4728,-67C284.8434,-67 293.3666,-67 301.7152,-67"/>
<polygon fill="#191970" stroke="#191970" points="276.3603,-63.5001 266.3603,-67 276.3602,-70.5001 276.3603,-63.5001"/>
</g>
<!-- Node111 -->
<g id="node4" class="node">
<title>Node111</title>
<g id="a_node4"><a xlink:href="classSha256Class.html#a0f0fc4bd4d8c53d232df0d41d7ea25e0" target="_top" xlink:title="Sha256Class::write">
<polygon fill="#ffffff" stroke="#000000" points="616.5,-38.5 616.5,-57.5 718.5,-57.5 718.5,-38.5 616.5,-38.5"/>
<text text-anchor="middle" x="667.5" y="-45.5" font-family="Helvetica,sans-Serif" font-size="10.00" fill="#000000">Sha256Class::write</text>
</a>
</g>
</g>
<!-- Node110&#45;&gt;Node111 -->
<g id="edge3" class="edge">
<title>Node110&#45;&gt;Node111</title>
<path fill="none" stroke="#191970" d="M456.2671,-61.6744C507.6598,-58.3474 572.2228,-54.1679 616.3572,-51.3108"/>
<polygon fill="#191970" stroke="#191970" points="455.9271,-58.189 446.1741,-62.3277 456.3793,-65.1743 455.9271,-58.189"/>
</g>
<!-- Node122 -->
<g id="node15" class="node">
<title>Node122</title>
<g id="a_node15"><a xlink:href="classSha256Class.html#a82049dae520ccf0bd8478f2aef639149" target="_top" xlink:title="Sha256Class::pad">
<polygon fill="#ffffff" stroke="#000000" points="482,-76.5 482,-95.5 579,-95.5 579,-76.5 482,-76.5"/>
<text text-anchor="middle" x="530.5" y="-83.5" font-family="Helvetica,sans-Serif" font-size="10.00" fill="#000000">Sha256Class::pad</text>
</a>
</g>
</g>
<!-- Node110&#45;&gt;Node122 -->
<g id="edge20" class="edge">
<title>Node110&#45;&gt;Node122</title>
<path fill="none" stroke="#191970" d="M456.4503,-77.0099C465.0962,-78.0596 473.6735,-79.1009 481.7583,-80.0825"/>
<polygon fill="#191970" stroke="#191970" points="456.6436,-73.5078 446.2947,-75.777 455.7999,-80.4568 456.6436,-73.5078"/>
</g>
<!-- Node112 -->
<g id="node5" class="node">
<title>Node112</title>
<g id="a_node5"><a xlink:href="classSha256Class.html#a73d3dcea6eb667fd146d12aa5d106939" target="_top" xlink:title="Sha256Class::initHmac">
<polygon fill="#ffffff" stroke="#000000" points="761.5,-76.5 761.5,-95.5 881.5,-95.5 881.5,-76.5 761.5,-76.5"/>
<text text-anchor="middle" x="821.5" y="-83.5" font-family="Helvetica,sans-Serif" font-size="10.00" fill="#000000">Sha256Class::initHmac</text>
</a>
</g>
</g>
<!-- Node111&#45;&gt;Node112 -->
<g id="edge4" class="edge">
<title>Node111&#45;&gt;Node112</title>
<path fill="none" stroke="#191970" d="M716.2937,-60.04C737.8082,-65.3488 762.7318,-71.4988 782.9187,-76.4799"/>
<polygon fill="#191970" stroke="#191970" points="716.908,-56.5867 706.3607,-57.589 715.231,-63.3828 716.908,-56.5867"/>
</g>
<!-- Node120 -->
<g id="node13" class="node">
<title>Node120</title>
<g id="a_node13"><a xlink:href="classSha256Class.html#a7556f29cadf7eaca21a537df41318af3" target="_top" xlink:title="Sha256Class::resultHmac">
<polygon fill="#ffffff" stroke="#000000" points="756,-38.5 756,-57.5 887,-57.5 887,-38.5 756,-38.5"/>
<text text-anchor="middle" x="821.5" y="-45.5" font-family="Helvetica,sans-Serif" font-size="10.00" fill="#000000">Sha256Class::resultHmac</text>
</a>
</g>
</g>
<!-- Node111&#45;&gt;Node120 -->
<g id="edge14" class="edge">
<title>Node111&#45;&gt;Node120</title>
<path fill="none" stroke="#191970" d="M729.0102,-48C737.8617,-48 746.9981,-48 755.925,-48"/>
<polygon fill="#191970" stroke="#191970" points="728.7798,-44.5001 718.7798,-48 728.7797,-51.5001 728.7798,-44.5001"/>
</g>
<!-- Node121 -->
<g id="node14" class="node">
<title>Node121</title>
<g id="a_node14"><a xlink:href="group__TOOSIGNING__HASHING.html#gafb2935303b05255e80a7a6fa4be7cf57" target="_top" xlink:title="TooSigning_hash_data">
<polygon fill="#ffffff" stroke="#000000" points="763.5,-.5 763.5,-19.5 879.5,-19.5 879.5,-.5 763.5,-.5"/>
<text text-anchor="middle" x="821.5" y="-7.5" font-family="Helvetica,sans-Serif" font-size="10.00" fill="#000000">TooSigning_hash_data</text>
</a>
</g>
</g>
<!-- Node111&#45;&gt;Node121 -->
<g id="edge17" class="edge">
<title>Node111&#45;&gt;Node121</title>
<path fill="none" stroke="#191970" d="M716.2937,-35.96C737.8082,-30.6512 762.7318,-24.5012 782.9187,-19.5201"/>
<polygon fill="#191970" stroke="#191970" points="715.231,-32.6172 706.3607,-38.411 716.908,-39.4133 715.231,-32.6172"/>
</g>
<!-- Node113 -->
<g id="node6" class="node">
<title>Node113</title>
<g id="a_node6"><a xlink:href="TooNetworking_8h.html#a9f893c3218491ee86282fdcd9f376500" target="_top" xlink:title="TooNetworking_send\l_signed_">
<polygon fill="#ffffff" stroke="#000000" points="923.5,-64 923.5,-94 1032.5,-94 1032.5,-64 923.5,-64"/>
<text text-anchor="start" x="931.5" y="-82" font-family="Helvetica,sans-Serif" font-size="10.00" fill="#000000">TooNetworking_send</text>
<text text-anchor="middle" x="978" y="-71" font-family="Helvetica,sans-Serif" font-size="10.00" fill="#000000">_signed_</text>
</a>
</g>
</g>
<!-- Node112&#45;&gt;Node113 -->
<g id="edge5" class="edge">
<title>Node112&#45;&gt;Node113</title>
<path fill="none" stroke="#191970" d="M891.6943,-82.8603C902.3568,-82.3834 913.221,-81.8975 923.4836,-81.4384"/>
<polygon fill="#191970" stroke="#191970" points="891.393,-79.3702 881.5594,-83.3136 891.7058,-86.3632 891.393,-79.3702"/>
</g>
<!-- Node119 -->
<g id="node12" class="node">
<title>Node119</title>
<g id="a_node12"><a xlink:href="TooSigning_8cpp.html#a03df9fd005c518d1114f912ae7da9f06" target="_top" xlink:title="TooSigning_unsigned\l_network_available">
<polygon fill="#ffffff" stroke="#000000" points="923,-8 923,-38 1033,-38 1033,-8 923,-8"/>
<text text-anchor="start" x="931" y="-26" font-family="Helvetica,sans-Serif" font-size="10.00" fill="#000000">TooSigning_unsigned</text>
<text text-anchor="middle" x="978" y="-15" font-family="Helvetica,sans-Serif" font-size="10.00" fill="#000000">_network_available</text>
</a>
</g>
</g>
<!-- Node112&#45;&gt;Node119 -->
<g id="edge12" class="edge">
<title>Node112&#45;&gt;Node119</title>
<path fill="none" stroke="#191970" d="M868.4021,-73.4367C874.7092,-71.4447 881.0513,-69.2824 887,-67 908.6268,-58.7024 932.1451,-47.2635 949.8543,-38.1288"/>
<polygon fill="#191970" stroke="#191970" points="867.1325,-70.1644 858.5812,-76.4195 869.1668,-76.8623 867.1325,-70.1644"/>
</g>
<!-- Node114 -->
<g id="node7" class="node">
<title>Node114</title>
<g id="a_node7"><a xlink:href="TooNetworking_8h.html#a9209f3e1a2fdf0b3b88d49105b8fc359" target="_top" xlink:title="TooNetworking_send\l_signed">
<polygon fill="#ffffff" stroke="#000000" points="1077,-30 1077,-60 1186,-60 1186,-30 1077,-30"/>
<text text-anchor="start" x="1085" y="-48" font-family="Helvetica,sans-Serif" font-size="10.00" fill="#000000">TooNetworking_send</text>
<text text-anchor="middle" x="1131.5" y="-37" font-family="Helvetica,sans-Serif" font-size="10.00" fill="#000000">_signed</text>
</a>
</g>
</g>
<!-- Node113&#45;&gt;Node114 -->
<g id="edge6" class="edge">
<title>Node113&#45;&gt;Node114</title>
<path fill="none" stroke="#191970" d="M1042.4808,-64.7176C1053.9202,-62.1838 1065.7329,-59.5673 1076.8666,-57.1012"/>
<polygon fill="#191970" stroke="#191970" points="1041.557,-61.3373 1032.5506,-66.9171 1043.0709,-68.1717 1041.557,-61.3373"/>
</g>
<!-- Node115 -->
<g id="node8" class="node">
<title>Node115</title>
<g id="a_node8"><a xlink:href="TooNetworking_8h.html#a085ff748b00f6be4ebafcae2bb0dded1" target="_top" xlink:title="TooNetworking_bufferlist\l_send_signed">
<polygon fill="#ffffff" stroke="#000000" points="1235,-123 1235,-153 1360,-153 1360,-123 1235,-123"/>
<text text-anchor="start" x="1243" y="-141" font-family="Helvetica,sans-Serif" font-size="10.00" fill="#000000">TooNetworking_bufferlist</text>
<text text-anchor="middle" x="1297.5" y="-130" font-family="Helvetica,sans-Serif" font-size="10.00" fill="#000000">_send_signed</text>
</a>
</g>
</g>
<!-- Node113&#45;&gt;Node115 -->
<g id="edge7" class="edge">
<title>Node113&#45;&gt;Node115</title>
<path fill="none" stroke="#191970" d="M1014.9292,-98.5625C1031.09,-106.2379 1050.5426,-114.3156 1069,-119 1123.789,-132.9053 1188.1009,-137.2303 1234.5139,-138.3248"/>
<polygon fill="#191970" stroke="#191970" points="1016.3486,-95.3607 1005.8268,-94.1185 1013.2775,-101.651 1016.3486,-95.3607"/>
</g>
<!-- Node117 -->
<g id="node10" class="node">
<title>Node117</title>
<g id="a_node10"><a xlink:href="TooNetworking_8h.html#ab58e06e0eb6f2f8ecbebeaf3c173fb22" target="_top" xlink:title="TooNetworking_bufferlist\l_send_all">
<polygon fill="#ffffff" stroke="#000000" points="1069,-79 1069,-109 1194,-109 1194,-79 1069,-79"/>
<text text-anchor="start" x="1077" y="-97" font-family="Helvetica,sans-Serif" font-size="10.00" fill="#000000">TooNetworking_bufferlist</text>
<text text-anchor="middle" x="1131.5" y="-86" font-family="Helvetica,sans-Serif" font-size="10.00" fill="#000000">_send_all</text>
</a>
</g>
</g>
<!-- Node113&#45;&gt;Node117 -->
<g id="edge9" class="edge">
<title>Node113&#45;&gt;Node117</title>
<path fill="none" stroke="#191970" d="M1042.5908,-85.3118C1051.2498,-86.158 1060.1207,-87.0248 1068.7474,-87.8678"/>
<polygon fill="#191970" stroke="#191970" points="1042.8436,-81.8199 1032.5506,-84.3307 1042.1627,-88.7867 1042.8436,-81.8199"/>
</g>
<!-- Node116 -->
<g id="node9" class="node">
<title>Node116</title>
<g id="a_node9"><a xlink:href="NODE__SKETCH__TooAutomation__Node_8ino_8cpp.html#a0b33edabd7f1c4e4a0bf32c67269be2f" target="_top" xlink:title="loop">
<polygon fill="#ffffff" stroke="#000000" points="1401,-103.5 1401,-122.5 1436,-122.5 1436,-103.5 1401,-103.5"/>
<text text-anchor="middle" x="1418.5" y="-110.5" font-family="Helvetica,sans-Serif" font-size="10.00" fill="#000000">loop</text>
</a>
</g>
</g>
<!-- Node115&#45;&gt;Node116 -->
<g id="edge8" class="edge">
<title>Node115&#45;&gt;Node116</title>
<path fill="none" stroke="#191970" d="M1370.2474,-122.9695C1381.636,-120.6165 1392.4203,-118.3884 1400.8934,-116.6377"/>
<polygon fill="#191970" stroke="#191970" points="1369.2115,-119.6096 1360.1266,-125.0606 1370.6279,-126.4648 1369.2115,-119.6096"/>
</g>
<!-- Node118 -->
<g id="node11" class="node">
<title>Node118</title>
<g id="a_node11"><a xlink:href="TooNetworking_8h.html#a7382ba1aed5405c3adc02011ea6c45dd" target="_top" xlink:title="TooNetworking_connection\l_maintenance">
<polygon fill="#ffffff" stroke="#000000" points="1230,-74 1230,-104 1365,-104 1365,-74 1230,-74"/>
<text text-anchor="start" x="1238" y="-92" font-family="Helvetica,sans-Serif" font-size="10.00" fill="#000000">TooNetworking_connection</text>
<text text-anchor="middle" x="1297.5" y="-81" font-family="Helvetica,sans-Serif" font-size="10.00" fill="#000000">_maintenance</text>
</a>
</g>
</g>
<!-- Node117&#45;&gt;Node118 -->
<g id="edge10" class="edge">
<title>Node117&#45;&gt;Node118</title>
<path fill="none" stroke="#191970" d="M1204.4873,-91.8016C1212.951,-91.5467 1221.5556,-91.2875 1229.9422,-91.0349"/>
<polygon fill="#191970" stroke="#191970" points="1204.1475,-88.3101 1194.2575,-92.1097 1204.3584,-95.307 1204.1475,-88.3101"/>
</g>
<!-- Node118&#45;&gt;Node116 -->
<g id="edge11" class="edge">
<title>Node118&#45;&gt;Node116</title>
<path fill="none" stroke="#191970" d="M1375.1566,-104.403C1384.6588,-106.2877 1393.5454,-108.0503 1400.7679,-109.4829"/>
<polygon fill="#191970" stroke="#191970" points="1375.5653,-100.9159 1365.0754,-102.4034 1374.2034,-107.7822 1375.5653,-100.9159"/>
</g>
<!-- Node119&#45;&gt;Node118 -->
<g id="edge13" class="edge">
<title>Node119&#45;&gt;Node118</title>
<path fill="none" stroke="#191970" d="M1043.6231,-11.9072C1087.1972,-6.9924 1145.1514,-5.2098 1194,-20 1228.7241,-30.5136 1262.4466,-56.9439 1281.5276,-73.8724"/>
<polygon fill="#191970" stroke="#191970" points="1042.9386,-8.4645 1033.4326,-13.1427 1043.7812,-15.4136 1042.9386,-8.4645"/>
</g>
<!-- Node120&#45;&gt;Node113 -->
<g id="edge15" class="edge">
<title>Node120&#45;&gt;Node113</title>
<path fill="none" stroke="#191970" d="M879.9028,-59.5686C894.1387,-62.3885 909.313,-65.3943 923.366,-68.1779"/>
<polygon fill="#191970" stroke="#191970" points="880.2217,-56.0638 869.7322,-57.554 878.8615,-62.9304 880.2217,-56.0638"/>
</g>
<!-- Node120&#45;&gt;Node119 -->
<g id="edge16" class="edge">
<title>Node120&#45;&gt;Node119</title>
<path fill="none" stroke="#191970" d="M891.2085,-36.8645C901.8339,-35.1671 912.6719,-33.4358 922.9263,-31.7977"/>
<polygon fill="#191970" stroke="#191970" points="890.4351,-33.4435 881.1124,-38.4773 891.5393,-40.3559 890.4351,-33.4435"/>
</g>
<!-- Node121&#45;&gt;Node113 -->
<g id="edge18" class="edge">
<title>Node121&#45;&gt;Node113</title>
<path fill="none" stroke="#191970" d="M869.6402,-22.6411C875.5555,-24.5807 881.4631,-26.7086 887,-29 899.7421,-34.2731 929.758,-51.1029 951.8487,-63.7919"/>
<polygon fill="#191970" stroke="#191970" points="870.3303,-19.1903 859.7419,-19.5591 868.2493,-25.8738 870.3303,-19.1903"/>
</g>
<!-- Node121&#45;&gt;Node119 -->
<g id="edge19" class="edge">
<title>Node121&#45;&gt;Node119</title>
<path fill="none" stroke="#191970" d="M889.8005,-15.6735C900.8273,-16.5895 912.122,-17.5277 922.7896,-18.4138"/>
<polygon fill="#191970" stroke="#191970" points="890.0303,-12.1806 879.7748,-14.8407 889.4507,-19.1566 890.0303,-12.1806"/>
</g>
<!-- Node123 -->
<g id="node16" class="node">
<title>Node123</title>
<g id="a_node16"><a xlink:href="classSha256Class.html#a0ca245a22f8b056a3d1902da3c64b705" target="_top" xlink:title="Sha256Class::result">
<polygon fill="#ffffff" stroke="#000000" points="615,-76.5 615,-95.5 720,-95.5 720,-76.5 615,-76.5"/>
<text text-anchor="middle" x="667.5" y="-83.5" font-family="Helvetica,sans-Serif" font-size="10.00" fill="#000000">Sha256Class::result</text>
</a>
</g>
</g>
<!-- Node122&#45;&gt;Node123 -->
<g id="edge21" class="edge">
<title>Node122&#45;&gt;Node123</title>
<path fill="none" stroke="#191970" d="M589.3612,-86C597.8127,-86 606.4639,-86 614.7863,-86"/>
<polygon fill="#191970" stroke="#191970" points="589.1869,-82.5001 579.1868,-86 589.1868,-89.5001 589.1869,-82.5001"/>
</g>
<!-- Node123&#45;&gt;Node112 -->
<g id="edge22" class="edge">
<title>Node123&#45;&gt;Node112</title>
<path fill="none" stroke="#191970" d="M730.2416,-86C740.5627,-86 751.2379,-86 761.4902,-86"/>
<polygon fill="#191970" stroke="#191970" points="730.0674,-82.5001 720.0673,-86 730.0673,-89.5001 730.0674,-82.5001"/>
</g>
<!-- Node123&#45;&gt;Node120 -->
<g id="edge23" class="edge">
<title>Node123&#45;&gt;Node120</title>
<path fill="none" stroke="#191970" d="M716.2937,-73.96C737.8082,-68.6512 762.7318,-62.5012 782.9187,-57.5201"/>
<polygon fill="#191970" stroke="#191970" points="715.231,-70.6172 706.3607,-76.411 716.908,-77.4133 715.231,-70.6172"/>
</g>
</g>
</svg>
