<?xml version="1.0" encoding="UTF-8" standalone="no"?>
<!DOCTYPE svg PUBLIC "-//W3C//DTD SVG 1.1//EN"
 "http://www.w3.org/Graphics/SVG/1.1/DTD/svg11.dtd">
<!-- Generated by graphviz version 2.40.1 (20161225.0304)
 -->
<!-- Title: Sha256Class::ror32 Pages: 1 -->
<!--zoomable 129 -->
<svg id="main" version="1.1" xmlns="http://www.w3.org/2000/svg" xmlns:xlink="http://www.w3.org/1999/xlink" xml:space="preserve" onload="init(evt)">
<style type="text/css"><![CDATA[
.edge:hover path { stroke: red; }
.edge:hover polygon { stroke: red; fill: red; }
]]></style>
<script type="text/javascript"><![CDATA[
var edges = document.getElementsByTagName('g');
if (edges && edges.length) {
  for (var i=0;i<edges.length;i++) {
    if (edges[i].id.substr(0,4)=='edge') {
      edges[i].setAttribute('class','edge');
    }
  }
}
]]></script>
        <defs>
                <circle id="rim" cx="0" cy="0" r="7"/>
                <circle id="rim2" cx="0" cy="0" r="3.5"/>
                <g id="zoomPlus">
                        <use xlink:href="#rim" fill="#404040">
                                <set attributeName="fill" to="#808080" begin="zoomplus.mouseover" end="zoomplus.mouseout"/>
                        </use>
                        <path d="M-4,0h8M0,-4v8" fill="none" stroke="white" stroke-width="1.5" pointer-events="none"/>
                </g>
                <g id="zoomMin">
                        <use xlink:href="#rim" fill="#404040">
                                <set attributeName="fill" to="#808080" begin="zoomminus.mouseover" end="zoomminus.mouseout"/>
                        </use>
                        <path d="M-4,0h8" fill="none" stroke="white" stroke-width="1.5" pointer-events="none"/>
                </g>
                <g id="dirArrow">
                        <path fill="none" stroke="white" stroke-width="1.5" d="M0,-3.0v7 M-2.5,-0.5L0,-3.0L2.5,-0.5"/>
                </g>
               <g id="resetDef">
                       <use xlink:href="#rim2" fill="#404040">
                               <set attributeName="fill" to="#808080" begin="reset.mouseover" end="reset.mouseout"/>
                       </use>
               </g>
        </defs>

<script type="text/javascript">
var viewWidth = 1189;
var viewHeight = 129;
var sectionId = 'dynsection-14';
</script>
<script xlink:href="svgpan.js"/>
<svg id="graph" class="graph">
<g id="viewport">
<title>Sha256Class::ror32</title>
<polygon fill="#ffffff" stroke="transparent" points="-4,4 -4,-125 1185,-125 1185,4 -4,4"/>
<!-- Node85 -->
<g id="node1" class="node">
<title>Node85</title>
<polygon fill="#bfbfbf" stroke="#000000" points="0,-44.5 0,-63.5 103,-63.5 103,-44.5 0,-44.5"/>
<text text-anchor="middle" x="51.5" y="-51.5" font-family="Helvetica,sans-Serif" font-size="10.00" fill="#000000">Sha256Class::ror32</text>
</g>
<!-- Node86 -->
<g id="node2" class="node">
<title>Node86</title>
<g id="a_node2"><a xlink:href="classSha256Class.html#a399d2a23951e2130f54af8ac7712068f" target="_top" xlink:title="Sha256Class::hashBlock">
<polygon fill="#ffffff" stroke="#000000" points="139,-44.5 139,-63.5 266,-63.5 266,-44.5 139,-44.5"/>
<text text-anchor="middle" x="202.5" y="-51.5" font-family="Helvetica,sans-Serif" font-size="10.00" fill="#000000">Sha256Class::hashBlock</text>
</a>
</g>
</g>
<!-- Node85&#45;&gt;Node86 -->
<g id="edge1" class="edge">
<title>Node85&#45;&gt;Node86</title>
<path fill="none" stroke="#191970" d="M113.224,-54C121.6923,-54 130.3998,-54 138.9009,-54"/>
<polygon fill="#191970" stroke="#191970" points="113.0433,-50.5001 103.0433,-54 113.0433,-57.5001 113.0433,-50.5001"/>
</g>
<!-- Node87 -->
<g id="node3" class="node">
<title>Node87</title>
<g id="a_node3"><a xlink:href="classSha256Class.html#ab0b46743e3d59b1c68f52ed89dfaff50" target="_top" xlink:title="Sha256Class::addUncounted">
<polygon fill="#ffffff" stroke="#000000" points="302,-44.5 302,-63.5 446,-63.5 446,-44.5 302,-44.5"/>
<text text-anchor="middle" x="374" y="-51.5" font-family="Helvetica,sans-Serif" font-size="10.00" fill="#000000">Sha256Class::addUncounted</text>
</a>
</g>
</g>
<!-- Node86&#45;&gt;Node87 -->
<g id="edge2" class="edge">
<title>Node86&#45;&gt;Node87</title>
<path fill="none" stroke="#191970" d="M276.4728,-54C284.8434,-54 293.3666,-54 301.7152,-54"/>
<polygon fill="#191970" stroke="#191970" points="276.3603,-50.5001 266.3603,-54 276.3602,-57.5001 276.3603,-50.5001"/>
</g>
<!-- Node88 -->
<g id="node4" class="node">
<title>Node88</title>
<g id="a_node4"><a xlink:href="classSha256Class.html#a0f0fc4bd4d8c53d232df0d41d7ea25e0" target="_top" xlink:title="Sha256Class::write">
<polygon fill="#ffffff" stroke="#000000" points="616.5,-63.5 616.5,-82.5 718.5,-82.5 718.5,-63.5 616.5,-63.5"/>
<text text-anchor="middle" x="667.5" y="-70.5" font-family="Helvetica,sans-Serif" font-size="10.00" fill="#000000">Sha256Class::write</text>
</a>
</g>
</g>
<!-- Node87&#45;&gt;Node88 -->
<g id="edge3" class="edge">
<title>Node87&#45;&gt;Node88</title>
<path fill="none" stroke="#191970" d="M456.2671,-59.3256C507.6598,-62.6526 572.2228,-66.8321 616.3572,-69.6892"/>
<polygon fill="#191970" stroke="#191970" points="456.3793,-55.8257 446.1741,-58.6723 455.9271,-62.811 456.3793,-55.8257"/>
</g>
<!-- Node96 -->
<g id="node12" class="node">
<title>Node96</title>
<g id="a_node12"><a xlink:href="classSha256Class.html#a82049dae520ccf0bd8478f2aef639149" target="_top" xlink:title="Sha256Class::pad">
<polygon fill="#ffffff" stroke="#000000" points="482,-25.5 482,-44.5 579,-44.5 579,-25.5 482,-25.5"/>
<text text-anchor="middle" x="530.5" y="-32.5" font-family="Helvetica,sans-Serif" font-size="10.00" fill="#000000">Sha256Class::pad</text>
</a>
</g>
</g>
<!-- Node87&#45;&gt;Node96 -->
<g id="edge15" class="edge">
<title>Node87&#45;&gt;Node96</title>
<path fill="none" stroke="#191970" d="M456.4503,-43.9901C465.0962,-42.9404 473.6735,-41.8991 481.7583,-40.9175"/>
<polygon fill="#191970" stroke="#191970" points="455.7999,-40.5432 446.2947,-45.223 456.6436,-47.4922 455.7999,-40.5432"/>
</g>
<!-- Node89 -->
<g id="node5" class="node">
<title>Node89</title>
<g id="a_node5"><a xlink:href="classSha256Class.html#a73d3dcea6eb667fd146d12aa5d106939" target="_top" xlink:title="Sha256Class::initHmac">
<polygon fill="#ffffff" stroke="#000000" points="761.5,-25.5 761.5,-44.5 881.5,-44.5 881.5,-25.5 761.5,-25.5"/>
<text text-anchor="middle" x="821.5" y="-32.5" font-family="Helvetica,sans-Serif" font-size="10.00" fill="#000000">Sha256Class::initHmac</text>
</a>
</g>
</g>
<!-- Node88&#45;&gt;Node89 -->
<g id="edge4" class="edge">
<title>Node88&#45;&gt;Node89</title>
<path fill="none" stroke="#191970" d="M716.2937,-60.96C737.8082,-55.6512 762.7318,-49.5012 782.9187,-44.5201"/>
<polygon fill="#191970" stroke="#191970" points="715.231,-57.6172 706.3607,-63.411 716.908,-64.4133 715.231,-57.6172"/>
</g>
<!-- Node93 -->
<g id="node9" class="node">
<title>Node93</title>
<g id="a_node9"><a xlink:href="classSha256Class.html#a7556f29cadf7eaca21a537df41318af3" target="_top" xlink:title="Sha256Class::resultHmac">
<polygon fill="#ffffff" stroke="#000000" points="756,-63.5 756,-82.5 887,-82.5 887,-63.5 756,-63.5"/>
<text text-anchor="middle" x="821.5" y="-70.5" font-family="Helvetica,sans-Serif" font-size="10.00" fill="#000000">Sha256Class::resultHmac</text>
</a>
</g>
</g>
<!-- Node88&#45;&gt;Node93 -->
<g id="edge8" class="edge">
<title>Node88&#45;&gt;Node93</title>
<path fill="none" stroke="#191970" d="M729.0102,-73C737.8617,-73 746.9981,-73 755.925,-73"/>
<polygon fill="#191970" stroke="#191970" points="728.7798,-69.5001 718.7798,-73 728.7797,-76.5001 728.7798,-69.5001"/>
</g>
<!-- Node95 -->
<g id="node11" class="node">
<title>Node95</title>
<g id="a_node11"><a xlink:href="group__TOOSIGNING__HASHING.html#gafb2935303b05255e80a7a6fa4be7cf57" target="_top" xlink:title="TooSigning_hash_data">
<polygon fill="#ffffff" stroke="#000000" points="763.5,-101.5 763.5,-120.5 879.5,-120.5 879.5,-101.5 763.5,-101.5"/>
<text text-anchor="middle" x="821.5" y="-108.5" font-family="Helvetica,sans-Serif" font-size="10.00" fill="#000000">TooSigning_hash_data</text>
</a>
</g>
</g>
<!-- Node88&#45;&gt;Node95 -->
<g id="edge12" class="edge">
<title>Node88&#45;&gt;Node95</title>
<path fill="none" stroke="#191970" d="M716.2937,-85.04C737.8082,-90.3488 762.7318,-96.4988 782.9187,-101.4799"/>
<polygon fill="#191970" stroke="#191970" points="716.908,-81.5867 706.3607,-82.589 715.231,-88.3828 716.908,-81.5867"/>
</g>
<!-- Node90 -->
<g id="node6" class="node">
<title>Node90</title>
<g id="a_node6"><a xlink:href="TooSigning_8h.html#a1e2cd2b37702263e1fe166395350bf08" target="_top" xlink:title="TooSigning_init_hmac">
<polygon fill="#ffffff" stroke="#000000" points="923,-.5 923,-19.5 1036,-19.5 1036,-.5 923,-.5"/>
<text text-anchor="middle" x="979.5" y="-7.5" font-family="Helvetica,sans-Serif" font-size="10.00" fill="#000000">TooSigning_init_hmac</text>
</a>
</g>
</g>
<!-- Node89&#45;&gt;Node90 -->
<g id="edge5" class="edge">
<title>Node89&#45;&gt;Node90</title>
<path fill="none" stroke="#191970" d="M891.6179,-23.9054C902.0719,-22.2513 912.736,-20.5639 922.8655,-18.9612"/>
<polygon fill="#191970" stroke="#191970" points="891.0139,-20.4573 881.6838,-25.4773 892.1079,-27.3713 891.0139,-20.4573"/>
</g>
<!-- Node92 -->
<g id="node8" class="node">
<title>Node92</title>
<g id="a_node8"><a xlink:href="TooSigning_8cpp.html#a03df9fd005c518d1114f912ae7da9f06" target="_top" xlink:title="TooSigning_unsigned\l_network_available">
<polygon fill="#ffffff" stroke="#000000" points="924.5,-39 924.5,-69 1034.5,-69 1034.5,-39 924.5,-39"/>
<text text-anchor="start" x="932.5" y="-57" font-family="Helvetica,sans-Serif" font-size="10.00" fill="#000000">TooSigning_unsigned</text>
<text text-anchor="middle" x="979.5" y="-46" font-family="Helvetica,sans-Serif" font-size="10.00" fill="#000000">_network_available</text>
</a>
</g>
</g>
<!-- Node89&#45;&gt;Node92 -->
<g id="edge7" class="edge">
<title>Node89&#45;&gt;Node92</title>
<path fill="none" stroke="#191970" d="M891.6701,-43.4382C902.6414,-44.7575 913.8427,-46.1045 924.4134,-47.3757"/>
<polygon fill="#191970" stroke="#191970" points="892.0301,-39.9563 881.6838,-42.2373 891.1943,-46.9063 892.0301,-39.9563"/>
</g>
<!-- Node91 -->
<g id="node7" class="node">
<title>Node91</title>
<g id="a_node7"><a xlink:href="TooNetworking_8h.html#ab5dfe46515ee5ca8f9893675df673d96" target="_top" xlink:title="TooNetworking_send\l_signed">
<polygon fill="#ffffff" stroke="#000000" points="1072,-83 1072,-113 1181,-113 1181,-83 1072,-83"/>
<text text-anchor="start" x="1080" y="-101" font-family="Helvetica,sans-Serif" font-size="10.00" fill="#000000">TooNetworking_send</text>
<text text-anchor="middle" x="1126.5" y="-90" font-family="Helvetica,sans-Serif" font-size="10.00" fill="#000000">_signed</text>
</a>
</g>
</g>
<!-- Node90&#45;&gt;Node91 -->
<g id="edge6" class="edge">
<title>Node90&#45;&gt;Node91</title>
<path fill="none" stroke="#191970" d="M1023.3101,-23.1251C1027.6815,-24.9089 1031.9836,-26.8685 1036,-29 1064.2725,-44.0043 1093.0035,-67.6499 1110.2909,-82.9917"/>
<polygon fill="#191970" stroke="#191970" points="1024.3055,-19.7598 1013.7138,-19.5022 1021.8331,-26.3087 1024.3055,-19.7598"/>
</g>
<!-- Node93&#45;&gt;Node92 -->
<g id="edge11" class="edge">
<title>Node93&#45;&gt;Node92</title>
<path fill="none" stroke="#191970" d="M897.0697,-63.9125C906.2707,-62.8061 915.534,-61.6921 924.3589,-60.6309"/>
<polygon fill="#191970" stroke="#191970" points="896.6442,-60.4384 887.1336,-65.1074 897.48,-67.3883 896.6442,-60.4384"/>
</g>
<!-- Node94 -->
<g id="node10" class="node">
<title>Node94</title>
<g id="a_node10"><a xlink:href="TooSigning_8h.html#ab8a2415b95a77c91ffbc6ebbde622f64" target="_top" xlink:title="TooSigning_get_hmac">
<polygon fill="#ffffff" stroke="#000000" points="923,-88.5 923,-107.5 1036,-107.5 1036,-88.5 923,-88.5"/>
<text text-anchor="middle" x="979.5" y="-95.5" font-family="Helvetica,sans-Serif" font-size="10.00" fill="#000000">TooSigning_get_hmac</text>
</a>
</g>
</g>
<!-- Node93&#45;&gt;Node94 -->
<g id="edge9" class="edge">
<title>Node93&#45;&gt;Node94</title>
<path fill="none" stroke="#191970" d="M891.6179,-84.0946C902.0719,-85.7487 912.736,-87.4361 922.8655,-89.0388"/>
<polygon fill="#191970" stroke="#191970" points="892.1079,-80.6287 881.6838,-82.5227 891.0139,-87.5427 892.1079,-80.6287"/>
</g>
<!-- Node94&#45;&gt;Node91 -->
<g id="edge10" class="edge">
<title>Node94&#45;&gt;Node91</title>
<path fill="none" stroke="#191970" d="M1046.5402,-98C1054.9787,-98 1063.5317,-98 1071.7496,-98"/>
<polygon fill="#191970" stroke="#191970" points="1046.3341,-94.5001 1036.334,-98 1046.334,-101.5001 1046.3341,-94.5001"/>
</g>
<!-- Node95&#45;&gt;Node91 -->
<g id="edge13" class="edge">
<title>Node95&#45;&gt;Node91</title>
<path fill="none" stroke="#191970" d="M890.0831,-117.4879C932.2734,-120.3466 987.39,-122.0477 1036,-117 1047.657,-115.7895 1060.0248,-113.7244 1071.7501,-111.3906"/>
<polygon fill="#191970" stroke="#191970" points="890.146,-113.9835 879.9215,-116.7603 889.646,-120.9656 890.146,-113.9835"/>
</g>
<!-- Node95&#45;&gt;Node92 -->
<g id="edge14" class="edge">
<title>Node95&#45;&gt;Node92</title>
<path fill="none" stroke="#191970" d="M866.8792,-98.5247C873.6612,-96.4617 880.5412,-94.2561 887,-92 906.5043,-85.187 927.8631,-76.4969 945.1377,-69.147"/>
<polygon fill="#191970" stroke="#191970" points="865.6644,-95.2342 857.0732,-101.4344 867.6557,-101.945 865.6644,-95.2342"/>
</g>
<!-- Node97 -->
<g id="node13" class="node">
<title>Node97</title>
<g id="a_node13"><a xlink:href="classSha256Class.html#a0ca245a22f8b056a3d1902da3c64b705" target="_top" xlink:title="Sha256Class::result">
<polygon fill="#ffffff" stroke="#000000" points="615,-25.5 615,-44.5 720,-44.5 720,-25.5 615,-25.5"/>
<text text-anchor="middle" x="667.5" y="-32.5" font-family="Helvetica,sans-Serif" font-size="10.00" fill="#000000">Sha256Class::result</text>
</a>
</g>
</g>
<!-- Node96&#45;&gt;Node97 -->
<g id="edge16" class="edge">
<title>Node96&#45;&gt;Node97</title>
<path fill="none" stroke="#191970" d="M589.3612,-35C597.8127,-35 606.4639,-35 614.7863,-35"/>
<polygon fill="#191970" stroke="#191970" points="589.1869,-31.5001 579.1868,-35 589.1868,-38.5001 589.1869,-31.5001"/>
</g>
<!-- Node97&#45;&gt;Node89 -->
<g id="edge17" class="edge">
<title>Node97&#45;&gt;Node89</title>
<path fill="none" stroke="#191970" d="M730.2416,-35C740.5627,-35 751.2379,-35 761.4902,-35"/>
<polygon fill="#191970" stroke="#191970" points="730.0674,-31.5001 720.0673,-35 730.0673,-38.5001 730.0674,-31.5001"/>
</g>
<!-- Node97&#45;&gt;Node93 -->
<g id="edge18" class="edge">
<title>Node97&#45;&gt;Node93</title>
<path fill="none" stroke="#191970" d="M716.2937,-47.04C737.8082,-52.3488 762.7318,-58.4988 782.9187,-63.4799"/>
<polygon fill="#191970" stroke="#191970" points="716.908,-43.5867 706.3607,-44.589 715.231,-50.3828 716.908,-43.5867"/>
</g>
</g>
</svg>
        <g id="navigator" transform="translate(0 0)" fill="#404254">
                <rect fill="#f2f5e9" fill-opacity="0.5" stroke="#606060" stroke-width=".5" x="0" y="0" width="60" height="60"/>
                <use id="zoomplus" xlink:href="#zoomPlus" x="17" y="9" onmousedown="handleZoom(evt,'in')"/>
                <use id="zoomminus" xlink:href="#zoomMin" x="42" y="9" onmousedown="handleZoom(evt,'out')"/>
                <use id="reset" xlink:href="#resetDef" x="30" y="36" onmousedown="handleReset()"/>
                <g id="arrowUp" xlink:href="#dirArrow" transform="translate(30 24)" onmousedown="handlePan(0,-1)">
                  <use xlink:href="#rim" fill="#404040">
                        <set attributeName="fill" to="#808080" begin="arrowUp.mouseover" end="arrowUp.mouseout"/>
                  </use>
                  <path fill="none" stroke="white" stroke-width="1.5" d="M0,-3.0v7 M-2.5,-0.5L0,-3.0L2.5,-0.5"/>
                </g>
                <g id="arrowRight" xlink:href="#dirArrow" transform="rotate(90) translate(36 -43)" onmousedown="handlePan(1,0)">
                  <use xlink:href="#rim" fill="#404040">
                        <set attributeName="fill" to="#808080" begin="arrowRight.mouseover" end="arrowRight.mouseout"/>
                  </use>
                  <path fill="none" stroke="white" stroke-width="1.5" d="M0,-3.0v7 M-2.5,-0.5L0,-3.0L2.5,-0.5"/>
                </g>
                <g id="arrowDown" xlink:href="#dirArrow" transform="rotate(180) translate(-30 -48)" onmousedown="handlePan(0,1)">
                  <use xlink:href="#rim" fill="#404040">
                        <set attributeName="fill" to="#808080" begin="arrowDown.mouseover" end="arrowDown.mouseout"/>
                  </use>
                  <path fill="none" stroke="white" stroke-width="1.5" d="M0,-3.0v7 M-2.5,-0.5L0,-3.0L2.5,-0.5"/>
                </g>
                <g id="arrowLeft" xlink:href="#dirArrow" transform="rotate(270) translate(-36 17)" onmousedown="handlePan(-1,0)">
                  <use xlink:href="#rim" fill="#404040">
                        <set attributeName="fill" to="#808080" begin="arrowLeft.mouseover" end="arrowLeft.mouseout"/>
                  </use>
                  <path fill="none" stroke="white" stroke-width="1.5" d="M0,-3.0v7 M-2.5,-0.5L0,-3.0L2.5,-0.5"/>
                </g>
        </g>
        <svg viewBox="0 0 15 15" width="100%" height="30px" preserveAspectRatio="xMaxYMin meet">
         <g id="arrow_out" transform="scale(0.3 0.3)">
          <a xlink:href="classSha256Class_ae275718ce9813bb33b2d8d8fbf018bd6_icgraph_org.svg" target="_base">
           <rect id="button" ry="5" rx="5" y="6" x="6" height="38" width="38"
                fill="#f2f5e9" fill-opacity="0.5" stroke="#606060" stroke-width="1.0"/>
           <path id="arrow"
             d="M 11.500037,31.436501 C 11.940474,20.09759 22.043105,11.32322 32.158766,21.979434 L 37.068811,17.246167 C 37.068811,17.246167 37.088388,32 37.088388,32 L 22.160133,31.978069 C 22.160133,31.978069 26.997745,27.140456 26.997745,27.140456 C 18.528582,18.264221 13.291696,25.230495 11.500037,31.436501 z"
             style="fill:#404040;"/>
          </a>
         </g>
        </svg>
</svg>
