<?xml version="1.0" encoding="UTF-8" standalone="no"?>
<!DOCTYPE svg PUBLIC "-//W3C//DTD SVG 1.1//EN"
 "http://www.w3.org/Graphics/SVG/1.1/DTD/svg11.dtd">
<!-- Generated by graphviz version 2.40.1 (20161225.0304)
 -->
<!-- Title: Sha256Class::initHmac Pages: 1 -->
<svg width="862pt" height="169pt"
 viewBox="0.00 0.00 862.00 169.00" xmlns="http://www.w3.org/2000/svg" xmlns:xlink="http://www.w3.org/1999/xlink">
<g id="graph0" class="graph" transform="scale(1 1) rotate(0) translate(4 165)">
<title>Sha256Class::initHmac</title>
<polygon fill="#ffffff" stroke="transparent" points="-4,4 -4,-165 858,-165 858,4 -4,4"/>
<!-- Node62 -->
<g id="node1" class="node">
<title>Node62</title>
<polygon fill="#bfbfbf" stroke="#000000" points="0,-30 0,-49 120,-49 120,-30 0,-30"/>
<text text-anchor="middle" x="60" y="-37" font-family="Helvetica,sans-Serif" font-size="10.00" fill="#000000">Sha256Class::initHmac</text>
</g>
<!-- Node63 -->
<g id="node2" class="node">
<title>Node63</title>
<g id="a_node2"><a xlink:href="TooSigning_8h.html#a1e2cd2b37702263e1fe166395350bf08" target="_top" xlink:title="TooSigning_init_hmac">
<polygon fill="#ffffff" stroke="#000000" points="156,-53 156,-72 269,-72 269,-53 156,-53"/>
<text text-anchor="middle" x="212.5" y="-60" font-family="Helvetica,sans-Serif" font-size="10.00" fill="#000000">TooSigning_init_hmac</text>
</a>
</g>
</g>
<!-- Node62&#45;&gt;Node63 -->
<g id="edge1" class="edge">
<title>Node62&#45;&gt;Node63</title>
<path fill="none" stroke="#191970" d="M130.2045,-50.0882C138.7271,-51.3736 147.351,-52.6743 155.6469,-53.9254"/>
<polygon fill="#191970" stroke="#191970" points="130.6822,-46.6208 120.272,-48.5902 129.6382,-53.5425 130.6822,-46.6208"/>
</g>
<!-- Node70 -->
<g id="node9" class="node">
<title>Node70</title>
<g id="a_node9"><a xlink:href="TooSigning_8cpp.html#a03df9fd005c518d1114f912ae7da9f06" target="_top" xlink:title="TooSigning_unsigned\l_network_available">
<polygon fill="#ffffff" stroke="#000000" points="157.5,-2.5 157.5,-32.5 267.5,-32.5 267.5,-2.5 157.5,-2.5"/>
<text text-anchor="start" x="165.5" y="-20.5" font-family="Helvetica,sans-Serif" font-size="10.00" fill="#000000">TooSigning_unsigned</text>
<text text-anchor="middle" x="212.5" y="-9.5" font-family="Helvetica,sans-Serif" font-size="10.00" fill="#000000">_network_available</text>
</a>
</g>
</g>
<!-- Node62&#45;&gt;Node70 -->
<g id="edge10" class="edge">
<title>Node62&#45;&gt;Node70</title>
<path fill="none" stroke="#191970" d="M130.3435,-29.3521C139.3291,-28.0558 148.4247,-26.7436 157.1273,-25.4882"/>
<polygon fill="#191970" stroke="#191970" points="129.6698,-25.913 120.272,-30.805 130.6694,-32.8412 129.6698,-25.913"/>
</g>
<!-- Node64 -->
<g id="node3" class="node">
<title>Node64</title>
<g id="a_node3"><a xlink:href="TooNetworking_8h.html#a9f893c3218491ee86282fdcd9f376500" target="_top" xlink:title="TooNetworking_send\l_signed_">
<polygon fill="#ffffff" stroke="#000000" points="318,-68.5 318,-98.5 427,-98.5 427,-68.5 318,-68.5"/>
<text text-anchor="start" x="326" y="-86.5" font-family="Helvetica,sans-Serif" font-size="10.00" fill="#000000">TooNetworking_send</text>
<text text-anchor="middle" x="372.5" y="-75.5" font-family="Helvetica,sans-Serif" font-size="10.00" fill="#000000">_signed_</text>
</a>
</g>
</g>
<!-- Node63&#45;&gt;Node64 -->
<g id="edge2" class="edge">
<title>Node63&#45;&gt;Node64</title>
<path fill="none" stroke="#191970" d="M279.5144,-71.2956C292.33,-72.9777 305.6024,-74.7197 317.9684,-76.3427"/>
<polygon fill="#191970" stroke="#191970" points="279.731,-67.7941 269.3605,-69.9629 278.82,-74.7346 279.731,-67.7941"/>
</g>
<!-- Node65 -->
<g id="node4" class="node">
<title>Node65</title>
<g id="a_node4"><a xlink:href="TooNetworking_8h.html#a59be7e774988f57ab43c4c078c570c67" target="_top" xlink:title="TooNetworking_bufferlist_add">
<polygon fill="#ffffff" stroke="#000000" points="476,-112 476,-131 622,-131 622,-112 476,-112"/>
<text text-anchor="middle" x="549" y="-119" font-family="Helvetica,sans-Serif" font-size="10.00" fill="#000000">TooNetworking_bufferlist_add</text>
</a>
</g>
</g>
<!-- Node64&#45;&gt;Node65 -->
<g id="edge3" class="edge">
<title>Node64&#45;&gt;Node65</title>
<path fill="none" stroke="#191970" d="M437.1914,-97.4279C459.6686,-102.2672 484.3458,-107.5801 504.7854,-111.9807"/>
<polygon fill="#191970" stroke="#191970" points="437.8909,-93.9984 427.3782,-95.3151 436.4175,-100.8416 437.8909,-93.9984"/>
</g>
<!-- Node66 -->
<g id="node5" class="node">
<title>Node66</title>
<g id="a_node5"><a xlink:href="TooNetworking_8h.html#a9209f3e1a2fdf0b3b88d49105b8fc359" target="_top" xlink:title="TooNetworking_send\l_signed">
<polygon fill="#ffffff" stroke="#000000" points="666,-130.5 666,-160.5 775,-160.5 775,-130.5 666,-130.5"/>
<text text-anchor="start" x="674" y="-148.5" font-family="Helvetica,sans-Serif" font-size="10.00" fill="#000000">TooNetworking_send</text>
<text text-anchor="middle" x="720.5" y="-137.5" font-family="Helvetica,sans-Serif" font-size="10.00" fill="#000000">_signed</text>
</a>
</g>
</g>
<!-- Node64&#45;&gt;Node66 -->
<g id="edge7" class="edge">
<title>Node64&#45;&gt;Node66</title>
<path fill="none" stroke="#191970" d="M401.3085,-104.3503C421.2185,-117.4652 448.9022,-133.2356 476,-140.5 539.3585,-157.4853 615.2958,-155.7899 665.5518,-151.7755"/>
<polygon fill="#191970" stroke="#191970" points="403.2522,-101.4396 393.0074,-98.7387 399.3318,-107.2388 403.2522,-101.4396"/>
</g>
<!-- Node67 -->
<g id="node6" class="node">
<title>Node67</title>
<g id="a_node6"><a xlink:href="TooNetworking_8h.html#a085ff748b00f6be4ebafcae2bb0dded1" target="_top" xlink:title="TooNetworking_bufferlist\l_send_signed">
<polygon fill="#ffffff" stroke="#000000" points="658,-68.5 658,-98.5 783,-98.5 783,-68.5 658,-68.5"/>
<text text-anchor="start" x="666" y="-86.5" font-family="Helvetica,sans-Serif" font-size="10.00" fill="#000000">TooNetworking_bufferlist</text>
<text text-anchor="middle" x="720.5" y="-75.5" font-family="Helvetica,sans-Serif" font-size="10.00" fill="#000000">_send_signed</text>
</a>
</g>
</g>
<!-- Node64&#45;&gt;Node67 -->
<g id="edge8" class="edge">
<title>Node64&#45;&gt;Node67</title>
<path fill="none" stroke="#191970" d="M437.4796,-83.5C500.5318,-83.5 595.5694,-83.5 657.8268,-83.5"/>
<polygon fill="#191970" stroke="#191970" points="437.2579,-80.0001 427.2578,-83.5 437.2578,-87.0001 437.2579,-80.0001"/>
</g>
<!-- Node69 -->
<g id="node8" class="node">
<title>Node69</title>
<g id="a_node8"><a xlink:href="TooNetworking_8h.html#ab58e06e0eb6f2f8ecbebeaf3c173fb22" target="_top" xlink:title="TooNetworking_bufferlist\l_send_all">
<polygon fill="#ffffff" stroke="#000000" points="486.5,-24.5 486.5,-54.5 611.5,-54.5 611.5,-24.5 486.5,-24.5"/>
<text text-anchor="start" x="494.5" y="-42.5" font-family="Helvetica,sans-Serif" font-size="10.00" fill="#000000">TooNetworking_bufferlist</text>
<text text-anchor="middle" x="549" y="-31.5" font-family="Helvetica,sans-Serif" font-size="10.00" fill="#000000">_send_all</text>
</a>
</g>
</g>
<!-- Node64&#45;&gt;Node69 -->
<g id="edge9" class="edge">
<title>Node64&#45;&gt;Node69</title>
<path fill="none" stroke="#191970" d="M437.1251,-67.3895C453.9569,-63.1935 472.0266,-58.6888 488.629,-54.55"/>
<polygon fill="#191970" stroke="#191970" points="436.2346,-64.0043 427.3782,-69.8193 437.9279,-70.7964 436.2346,-64.0043"/>
</g>
<!-- Node65&#45;&gt;Node66 -->
<g id="edge4" class="edge">
<title>Node65&#45;&gt;Node66</title>
<path fill="none" stroke="#191970" d="M627.2082,-132.4446C640.2857,-134.2747 653.599,-136.1378 665.9187,-137.8618"/>
<polygon fill="#191970" stroke="#191970" points="627.6627,-128.9742 617.2741,-131.0544 626.6925,-135.9066 627.6627,-128.9742"/>
</g>
<!-- Node65&#45;&gt;Node67 -->
<g id="edge5" class="edge">
<title>Node65&#45;&gt;Node67</title>
<path fill="none" stroke="#191970" d="M602.3451,-109.6801C619.9093,-105.7883 639.6003,-101.4253 657.7958,-97.3936"/>
<polygon fill="#191970" stroke="#191970" points="601.2827,-106.3305 592.2767,-111.911 602.7971,-113.1648 601.2827,-106.3305"/>
</g>
<!-- Node68 -->
<g id="node7" class="node">
<title>Node68</title>
<g id="a_node7"><a xlink:href="NODE__SKETCH__TooAutomation__Node_8ino_8cpp.html#a0b33edabd7f1c4e4a0bf32c67269be2f" target="_top" xlink:title="loop">
<polygon fill="#ffffff" stroke="#000000" points="819,-30 819,-49 854,-49 854,-30 819,-30"/>
<text text-anchor="middle" x="836.5" y="-37" font-family="Helvetica,sans-Serif" font-size="10.00" fill="#000000">loop</text>
</a>
</g>
</g>
<!-- Node67&#45;&gt;Node68 -->
<g id="edge6" class="edge">
<title>Node67&#45;&gt;Node68</title>
<path fill="none" stroke="#191970" d="M769.6448,-64.8589C787.1104,-58.234 805.673,-51.193 818.7953,-46.2156"/>
<polygon fill="#191970" stroke="#191970" points="768.2048,-61.6617 760.0962,-68.4808 770.6875,-68.2066 768.2048,-61.6617"/>
</g>
<!-- Node71 -->
<g id="node10" class="node">
<title>Node71</title>
<g id="a_node10"><a xlink:href="TooNetworking_8h.html#a7382ba1aed5405c3adc02011ea6c45dd" target="_top" xlink:title="TooNetworking_connection\l_maintenance">
<polygon fill="#ffffff" stroke="#000000" points="305,-.5 305,-30.5 440,-30.5 440,-.5 305,-.5"/>
<text text-anchor="start" x="313" y="-18.5" font-family="Helvetica,sans-Serif" font-size="10.00" fill="#000000">TooNetworking_connection</text>
<text text-anchor="middle" x="372.5" y="-7.5" font-family="Helvetica,sans-Serif" font-size="10.00" fill="#000000">_maintenance</text>
</a>
</g>
</g>
<!-- Node70&#45;&gt;Node71 -->
<g id="edge11" class="edge">
<title>Node70&#45;&gt;Node71</title>
<path fill="none" stroke="#191970" d="M277.587,-16.6864C286.5862,-16.5739 295.8465,-16.4582 304.8902,-16.3451"/>
<polygon fill="#191970" stroke="#191970" points="277.5184,-13.1869 267.5629,-16.8117 277.6059,-20.1864 277.5184,-13.1869"/>
</g>
<!-- Node71&#45;&gt;Node68 -->
<g id="edge12" class="edge">
<title>Node71&#45;&gt;Node68</title>
<path fill="none" stroke="#191970" d="M450.2872,-14.6675C458.962,-14.5987 467.6695,-14.5402 476,-14.5 540.8881,-14.1865 557.2203,-10.7377 622,-14.5 695.36,-18.7606 782.1235,-31.1517 818.7641,-36.726"/>
<polygon fill="#191970" stroke="#191970" points="450.1136,-11.1687 440.1433,-14.7524 450.1723,-18.1685 450.1136,-11.1687"/>
</g>
</g>
</svg>
