<?xml version="1.0" encoding="UTF-8" standalone="no"?>
<!DOCTYPE svg PUBLIC "-//W3C//DTD SVG 1.1//EN"
 "http://www.w3.org/Graphics/SVG/1.1/DTD/svg11.dtd">
<!-- Generated by graphviz version 2.40.1 (20161225.0304)
 -->
<!-- Title: Sha256Class::hashBlock Pages: 1 -->
<svg width="1490pt" height="182pt"
 viewBox="0.00 0.00 1490.00 182.22" xmlns="http://www.w3.org/2000/svg" xmlns:xlink="http://www.w3.org/1999/xlink">
<g id="graph0" class="graph" transform="scale(1 1) rotate(0) translate(4 178.2243)">
<title>Sha256Class::hashBlock</title>
<polygon fill="#ffffff" stroke="transparent" points="-4,4 -4,-178.2243 1486,-178.2243 1486,4 -4,4"/>
<!-- Node22 -->
<g id="node1" class="node">
<title>Node22</title>
<polygon fill="#bfbfbf" stroke="#000000" points="0,-86 0,-105 127,-105 127,-86 0,-86"/>
<text text-anchor="middle" x="63.5" y="-93" font-family="Helvetica,sans-Serif" font-size="10.00" fill="#000000">Sha256Class::hashBlock</text>
</g>
<!-- Node23 -->
<g id="node2" class="node">
<title>Node23</title>
<g id="a_node2"><a xlink:href="classSha256Class.html#ab0b46743e3d59b1c68f52ed89dfaff50" target="_top" xlink:title="Sha256Class::addUncounted">
<polygon fill="#ffffff" stroke="#000000" points="163,-86 163,-105 307,-105 307,-86 163,-86"/>
<text text-anchor="middle" x="235" y="-93" font-family="Helvetica,sans-Serif" font-size="10.00" fill="#000000">Sha256Class::addUncounted</text>
</a>
</g>
</g>
<!-- Node22&#45;&gt;Node23 -->
<g id="edge1" class="edge">
<title>Node22&#45;&gt;Node23</title>
<path fill="none" stroke="#191970" d="M137.4728,-95.5C145.8434,-95.5 154.3666,-95.5 162.7152,-95.5"/>
<polygon fill="#191970" stroke="#191970" points="137.3603,-92.0001 127.3603,-95.5 137.3602,-99.0001 137.3603,-92.0001"/>
</g>
<!-- Node24 -->
<g id="node3" class="node">
<title>Node24</title>
<g id="a_node3"><a xlink:href="classSha256Class.html#a0f0fc4bd4d8c53d232df0d41d7ea25e0" target="_top" xlink:title="Sha256Class::write">
<polygon fill="#ffffff" stroke="#000000" points="477.5,-105 477.5,-124 579.5,-124 579.5,-105 477.5,-105"/>
<text text-anchor="middle" x="528.5" y="-112" font-family="Helvetica,sans-Serif" font-size="10.00" fill="#000000">Sha256Class::write</text>
</a>
</g>
</g>
<!-- Node23&#45;&gt;Node24 -->
<g id="edge2" class="edge">
<title>Node23&#45;&gt;Node24</title>
<path fill="none" stroke="#191970" d="M317.2671,-100.8256C368.6598,-104.1526 433.2228,-108.3321 477.3572,-111.1892"/>
<polygon fill="#191970" stroke="#191970" points="317.3793,-97.3257 307.1741,-100.1723 316.9271,-104.311 317.3793,-97.3257"/>
</g>
<!-- Node38 -->
<g id="node17" class="node">
<title>Node38</title>
<g id="a_node17"><a xlink:href="classSha256Class.html#a82049dae520ccf0bd8478f2aef639149" target="_top" xlink:title="Sha256Class::pad">
<polygon fill="#ffffff" stroke="#000000" points="343,-67 343,-86 440,-86 440,-67 343,-67"/>
<text text-anchor="middle" x="391.5" y="-74" font-family="Helvetica,sans-Serif" font-size="10.00" fill="#000000">Sha256Class::pad</text>
</a>
</g>
</g>
<!-- Node23&#45;&gt;Node38 -->
<g id="edge23" class="edge">
<title>Node23&#45;&gt;Node38</title>
<path fill="none" stroke="#191970" d="M317.4503,-85.4901C326.0962,-84.4404 334.6735,-83.3991 342.7583,-82.4175"/>
<polygon fill="#191970" stroke="#191970" points="316.7999,-82.0432 307.2947,-86.723 317.6436,-88.9922 316.7999,-82.0432"/>
</g>
<!-- Node25 -->
<g id="node4" class="node">
<title>Node25</title>
<g id="a_node4"><a xlink:href="classSha256Class.html#a73d3dcea6eb667fd146d12aa5d106939" target="_top" xlink:title="Sha256Class::initHmac">
<polygon fill="#ffffff" stroke="#000000" points="622.5,-67 622.5,-86 742.5,-86 742.5,-67 622.5,-67"/>
<text text-anchor="middle" x="682.5" y="-74" font-family="Helvetica,sans-Serif" font-size="10.00" fill="#000000">Sha256Class::initHmac</text>
</a>
</g>
</g>
<!-- Node24&#45;&gt;Node25 -->
<g id="edge3" class="edge">
<title>Node24&#45;&gt;Node25</title>
<path fill="none" stroke="#191970" d="M577.2937,-102.46C598.8082,-97.1512 623.7318,-91.0012 643.9187,-86.0201"/>
<polygon fill="#191970" stroke="#191970" points="576.231,-99.1172 567.3607,-104.911 577.908,-105.9133 576.231,-99.1172"/>
</g>
<!-- Node35 -->
<g id="node14" class="node">
<title>Node35</title>
<g id="a_node14"><a xlink:href="classSha256Class.html#a7556f29cadf7eaca21a537df41318af3" target="_top" xlink:title="Sha256Class::resultHmac">
<polygon fill="#ffffff" stroke="#000000" points="617,-105 617,-124 748,-124 748,-105 617,-105"/>
<text text-anchor="middle" x="682.5" y="-112" font-family="Helvetica,sans-Serif" font-size="10.00" fill="#000000">Sha256Class::resultHmac</text>
</a>
</g>
</g>
<!-- Node24&#45;&gt;Node35 -->
<g id="edge16" class="edge">
<title>Node24&#45;&gt;Node35</title>
<path fill="none" stroke="#191970" d="M590.0102,-114.5C598.8617,-114.5 607.9981,-114.5 616.925,-114.5"/>
<polygon fill="#191970" stroke="#191970" points="589.7798,-111.0001 579.7798,-114.5 589.7797,-118.0001 589.7798,-111.0001"/>
</g>
<!-- Node37 -->
<g id="node16" class="node">
<title>Node37</title>
<g id="a_node16"><a xlink:href="group__TOOSIGNING__HASHING.html#gafb2935303b05255e80a7a6fa4be7cf57" target="_top" xlink:title="TooSigning_hash_data">
<polygon fill="#ffffff" stroke="#000000" points="624.5,-143 624.5,-162 740.5,-162 740.5,-143 624.5,-143"/>
<text text-anchor="middle" x="682.5" y="-150" font-family="Helvetica,sans-Serif" font-size="10.00" fill="#000000">TooSigning_hash_data</text>
</a>
</g>
</g>
<!-- Node24&#45;&gt;Node37 -->
<g id="edge20" class="edge">
<title>Node24&#45;&gt;Node37</title>
<path fill="none" stroke="#191970" d="M577.2937,-126.54C598.8082,-131.8488 623.7318,-137.9988 643.9187,-142.9799"/>
<polygon fill="#191970" stroke="#191970" points="577.908,-123.0867 567.3607,-124.089 576.231,-129.8828 577.908,-123.0867"/>
</g>
<!-- Node26 -->
<g id="node5" class="node">
<title>Node26</title>
<g id="a_node5"><a xlink:href="TooSigning_8h.html#a1e2cd2b37702263e1fe166395350bf08" target="_top" xlink:title="TooSigning_init_hmac">
<polygon fill="#ffffff" stroke="#000000" points="784,-42 784,-61 897,-61 897,-42 784,-42"/>
<text text-anchor="middle" x="840.5" y="-49" font-family="Helvetica,sans-Serif" font-size="10.00" fill="#000000">TooSigning_init_hmac</text>
</a>
</g>
</g>
<!-- Node25&#45;&gt;Node26 -->
<g id="edge4" class="edge">
<title>Node25&#45;&gt;Node26</title>
<path fill="none" stroke="#191970" d="M752.6179,-65.4054C763.0719,-63.7513 773.736,-62.0639 783.8655,-60.4612"/>
<polygon fill="#191970" stroke="#191970" points="752.0139,-61.9573 742.6838,-66.9773 753.1079,-68.8713 752.0139,-61.9573"/>
</g>
<!-- Node33 -->
<g id="node12" class="node">
<title>Node33</title>
<g id="a_node12"><a xlink:href="TooSigning_8cpp.html#a03df9fd005c518d1114f912ae7da9f06" target="_top" xlink:title="TooSigning_unsigned\l_network_available">
<polygon fill="#ffffff" stroke="#000000" points="785.5,-118.5 785.5,-148.5 895.5,-148.5 895.5,-118.5 785.5,-118.5"/>
<text text-anchor="start" x="793.5" y="-136.5" font-family="Helvetica,sans-Serif" font-size="10.00" fill="#000000">TooSigning_unsigned</text>
<text text-anchor="middle" x="840.5" y="-125.5" font-family="Helvetica,sans-Serif" font-size="10.00" fill="#000000">_network_available</text>
</a>
</g>
</g>
<!-- Node25&#45;&gt;Node33 -->
<g id="edge13" class="edge">
<title>Node25&#45;&gt;Node33</title>
<path fill="none" stroke="#191970" d="M727.8792,-88.9753C734.6612,-91.0383 741.5412,-93.2439 748,-95.5 767.5043,-102.313 788.8631,-111.0031 806.1377,-118.353"/>
<polygon fill="#191970" stroke="#191970" points="728.6557,-85.555 718.0732,-86.0656 726.6644,-92.2658 728.6557,-85.555"/>
</g>
<!-- Node27 -->
<g id="node6" class="node">
<title>Node27</title>
<g id="a_node6"><a xlink:href="TooNetworking_8h.html#a9f893c3218491ee86282fdcd9f376500" target="_top" xlink:title="TooNetworking_send\l_signed_">
<polygon fill="#ffffff" stroke="#000000" points="946,-63.5 946,-93.5 1055,-93.5 1055,-63.5 946,-63.5"/>
<text text-anchor="start" x="954" y="-81.5" font-family="Helvetica,sans-Serif" font-size="10.00" fill="#000000">TooNetworking_send</text>
<text text-anchor="middle" x="1000.5" y="-70.5" font-family="Helvetica,sans-Serif" font-size="10.00" fill="#000000">_signed_</text>
</a>
</g>
</g>
<!-- Node26&#45;&gt;Node27 -->
<g id="edge5" class="edge">
<title>Node26&#45;&gt;Node27</title>
<path fill="none" stroke="#191970" d="M907.1435,-62.7461C920.065,-64.9266 933.465,-67.1878 945.9431,-69.2935"/>
<polygon fill="#191970" stroke="#191970" points="907.353,-59.232 896.91,-61.0192 906.1882,-66.1345 907.353,-59.232"/>
</g>
<!-- Node28 -->
<g id="node7" class="node">
<title>Node28</title>
<g id="a_node7"><a xlink:href="TooNetworking_8h.html#a59be7e774988f57ab43c4c078c570c67" target="_top" xlink:title="TooNetworking_bufferlist_add">
<polygon fill="#ffffff" stroke="#000000" points="1104,-25 1104,-44 1250,-44 1250,-25 1104,-25"/>
<text text-anchor="middle" x="1177" y="-32" font-family="Helvetica,sans-Serif" font-size="10.00" fill="#000000">TooNetworking_bufferlist_add</text>
</a>
</g>
</g>
<!-- Node27&#45;&gt;Node28 -->
<g id="edge6" class="edge">
<title>Node27&#45;&gt;Node28</title>
<path fill="none" stroke="#191970" d="M1065.3869,-62.3242C1090.0156,-56.1845 1117.2602,-49.3926 1138.6664,-44.0562"/>
<polygon fill="#191970" stroke="#191970" points="1064.2346,-59.0043 1055.3782,-64.8193 1065.9279,-65.7964 1064.2346,-59.0043"/>
</g>
<!-- Node29 -->
<g id="node8" class="node">
<title>Node29</title>
<g id="a_node8"><a xlink:href="TooNetworking_8h.html#a9209f3e1a2fdf0b3b88d49105b8fc359" target="_top" xlink:title="TooNetworking_send\l_signed">
<polygon fill="#ffffff" stroke="#000000" points="1294,-.5 1294,-30.5 1403,-30.5 1403,-.5 1294,-.5"/>
<text text-anchor="start" x="1302" y="-18.5" font-family="Helvetica,sans-Serif" font-size="10.00" fill="#000000">TooNetworking_send</text>
<text text-anchor="middle" x="1348.5" y="-7.5" font-family="Helvetica,sans-Serif" font-size="10.00" fill="#000000">_signed</text>
</a>
</g>
</g>
<!-- Node27&#45;&gt;Node29 -->
<g id="edge10" class="edge">
<title>Node27&#45;&gt;Node29</title>
<path fill="none" stroke="#191970" d="M1026.4215,-57.1417C1046.287,-42.2298 1075.112,-23.6007 1104,-15.5 1167.3507,2.2645 1243.6195,-1.4827 1293.9395,-7.2046"/>
<polygon fill="#191970" stroke="#191970" points="1024.2643,-54.3853 1018.4822,-63.2633 1028.5386,-59.9288 1024.2643,-54.3853"/>
</g>
<!-- Node30 -->
<g id="node9" class="node">
<title>Node30</title>
<g id="a_node9"><a xlink:href="TooNetworking_8h.html#a085ff748b00f6be4ebafcae2bb0dded1" target="_top" xlink:title="TooNetworking_bufferlist\l_send_signed">
<polygon fill="#ffffff" stroke="#000000" points="1286,-101.5 1286,-131.5 1411,-131.5 1411,-101.5 1286,-101.5"/>
<text text-anchor="start" x="1294" y="-119.5" font-family="Helvetica,sans-Serif" font-size="10.00" fill="#000000">TooNetworking_bufferlist</text>
<text text-anchor="middle" x="1348.5" y="-108.5" font-family="Helvetica,sans-Serif" font-size="10.00" fill="#000000">_send_signed</text>
</a>
</g>
</g>
<!-- Node27&#45;&gt;Node30 -->
<g id="edge11" class="edge">
<title>Node27&#45;&gt;Node30</title>
<path fill="none" stroke="#191970" d="M1064.4495,-95.8859C1077.4532,-98.872 1091.1003,-101.6155 1104,-103.5 1165.4097,-112.4713 1236.2991,-115.438 1285.8816,-116.3312"/>
<polygon fill="#191970" stroke="#191970" points="1065.1915,-92.4648 1054.6539,-93.5652 1063.5777,-99.2763 1065.1915,-92.4648"/>
</g>
<!-- Node32 -->
<g id="node11" class="node">
<title>Node32</title>
<g id="a_node11"><a xlink:href="TooNetworking_8h.html#ab58e06e0eb6f2f8ecbebeaf3c173fb22" target="_top" xlink:title="TooNetworking_bufferlist\l_send_all">
<polygon fill="#ffffff" stroke="#000000" points="1114.5,-63.5 1114.5,-93.5 1239.5,-93.5 1239.5,-63.5 1114.5,-63.5"/>
<text text-anchor="start" x="1122.5" y="-81.5" font-family="Helvetica,sans-Serif" font-size="10.00" fill="#000000">TooNetworking_bufferlist</text>
<text text-anchor="middle" x="1177" y="-70.5" font-family="Helvetica,sans-Serif" font-size="10.00" fill="#000000">_send_all</text>
</a>
</g>
</g>
<!-- Node27&#45;&gt;Node32 -->
<g id="edge12" class="edge">
<title>Node27&#45;&gt;Node32</title>
<path fill="none" stroke="#191970" d="M1065.6736,-78.5C1081.6138,-78.5 1098.6343,-78.5 1114.4486,-78.5"/>
<polygon fill="#191970" stroke="#191970" points="1065.3782,-75.0001 1055.3782,-78.5 1065.3782,-82.0001 1065.3782,-75.0001"/>
</g>
<!-- Node28&#45;&gt;Node29 -->
<g id="edge7" class="edge">
<title>Node28&#45;&gt;Node29</title>
<path fill="none" stroke="#191970" d="M1260.2478,-25.2772C1271.6894,-24.0096 1283.1905,-22.7355 1293.9353,-21.5451"/>
<polygon fill="#191970" stroke="#191970" points="1259.7827,-21.8072 1250.2289,-26.3872 1260.5535,-28.7647 1259.7827,-21.8072"/>
</g>
<!-- Node28&#45;&gt;Node30 -->
<g id="edge8" class="edge">
<title>Node28&#45;&gt;Node30</title>
<path fill="none" stroke="#191970" d="M1230.1151,-47.0651C1236.9153,-49.2495 1243.6969,-51.726 1250,-54.5 1278.8513,-67.1977 1309.1168,-87.443 1328.3594,-101.3222"/>
<polygon fill="#191970" stroke="#191970" points="1230.7771,-43.6091 1220.1925,-44.073 1228.7562,-50.3111 1230.7771,-43.6091"/>
</g>
<!-- Node31 -->
<g id="node10" class="node">
<title>Node31</title>
<g id="a_node10"><a xlink:href="NODE__SKETCH__TooAutomation__Node_8ino_8cpp.html#a0b33edabd7f1c4e4a0bf32c67269be2f" target="_top" xlink:title="loop">
<polygon fill="#ffffff" stroke="#000000" points="1447,-129 1447,-148 1482,-148 1482,-129 1447,-129"/>
<text text-anchor="middle" x="1464.5" y="-136" font-family="Helvetica,sans-Serif" font-size="10.00" fill="#000000">loop</text>
</a>
</g>
</g>
<!-- Node30&#45;&gt;Node31 -->
<g id="edge9" class="edge">
<title>Node30&#45;&gt;Node31</title>
<path fill="none" stroke="#191970" d="M1421.2178,-130.2913C1430.6312,-132.0766 1439.4907,-133.7569 1446.7123,-135.1265"/>
<polygon fill="#191970" stroke="#191970" points="1421.7301,-126.8262 1411.2531,-128.4014 1420.4257,-133.7036 1421.7301,-126.8262"/>
</g>
<!-- Node34 -->
<g id="node13" class="node">
<title>Node34</title>
<g id="a_node13"><a xlink:href="TooNetworking_8h.html#a7382ba1aed5405c3adc02011ea6c45dd" target="_top" xlink:title="TooNetworking_connection\l_maintenance">
<polygon fill="#ffffff" stroke="#000000" points="933,-128.5 933,-158.5 1068,-158.5 1068,-128.5 933,-128.5"/>
<text text-anchor="start" x="941" y="-146.5" font-family="Helvetica,sans-Serif" font-size="10.00" fill="#000000">TooNetworking_connection</text>
<text text-anchor="middle" x="1000.5" y="-135.5" font-family="Helvetica,sans-Serif" font-size="10.00" fill="#000000">_maintenance</text>
</a>
</g>
</g>
<!-- Node33&#45;&gt;Node34 -->
<g id="edge14" class="edge">
<title>Node33&#45;&gt;Node34</title>
<path fill="none" stroke="#191970" d="M905.587,-137.5679C914.5862,-138.1304 923.8465,-138.7092 932.8902,-139.2744"/>
<polygon fill="#191970" stroke="#191970" points="905.7618,-134.0721 895.5629,-136.9414 905.3251,-141.0585 905.7618,-134.0721"/>
</g>
<!-- Node34&#45;&gt;Node31 -->
<g id="edge15" class="edge">
<title>Node34&#45;&gt;Node31</title>
<path fill="none" stroke="#191970" d="M1078.1278,-144.303C1160.6888,-144.8805 1295.0908,-145.0298 1411,-141.5 1422.902,-141.1375 1436.277,-140.3875 1446.6765,-139.7282"/>
<polygon fill="#191970" stroke="#191970" points="1078.0984,-140.8028 1068.0728,-144.2287 1078.0466,-147.8026 1078.0984,-140.8028"/>
</g>
<!-- Node35&#45;&gt;Node33 -->
<g id="edge19" class="edge">
<title>Node35&#45;&gt;Node33</title>
<path fill="none" stroke="#191970" d="M758.0697,-123.5875C767.2707,-124.6939 776.534,-125.8079 785.3589,-126.8691"/>
<polygon fill="#191970" stroke="#191970" points="758.48,-120.1117 748.1336,-122.3926 757.6442,-127.0616 758.48,-120.1117"/>
</g>
<!-- Node36 -->
<g id="node15" class="node">
<title>Node36</title>
<g id="a_node15"><a xlink:href="TooSigning_8h.html#ab8a2415b95a77c91ffbc6ebbde622f64" target="_top" xlink:title="TooSigning_get_hmac">
<polygon fill="#ffffff" stroke="#000000" points="784,-80 784,-99 897,-99 897,-80 784,-80"/>
<text text-anchor="middle" x="840.5" y="-87" font-family="Helvetica,sans-Serif" font-size="10.00" fill="#000000">TooSigning_get_hmac</text>
</a>
</g>
</g>
<!-- Node35&#45;&gt;Node36 -->
<g id="edge17" class="edge">
<title>Node35&#45;&gt;Node36</title>
<path fill="none" stroke="#191970" d="M752.6179,-103.4054C763.0719,-101.7513 773.736,-100.0639 783.8655,-98.4612"/>
<polygon fill="#191970" stroke="#191970" points="752.0139,-99.9573 742.6838,-104.9773 753.1079,-106.8713 752.0139,-99.9573"/>
</g>
<!-- Node36&#45;&gt;Node27 -->
<g id="edge18" class="edge">
<title>Node36&#45;&gt;Node27</title>
<path fill="none" stroke="#191970" d="M907.5144,-84.8928C920.33,-84.0117 933.6024,-83.0992 945.9684,-82.249"/>
<polygon fill="#191970" stroke="#191970" points="907.0969,-81.4131 897.3605,-85.5908 907.5771,-88.3966 907.0969,-81.4131"/>
</g>
<!-- Node37&#45;&gt;Node27 -->
<g id="edge21" class="edge">
<title>Node37&#45;&gt;Node27</title>
<path fill="none" stroke="#191970" d="M726.5262,-164.3107C771.4152,-173.985 842.0693,-182.5504 897,-158.5 918.6087,-149.039 914.7413,-134.4354 933,-119.5 944.8864,-109.7771 959.2921,-100.7141 971.7376,-93.5945"/>
<polygon fill="#191970" stroke="#191970" points="727.0512,-160.841 716.525,-162.0447 725.5043,-167.668 727.0512,-160.841"/>
</g>
<!-- Node37&#45;&gt;Node33 -->
<g id="edge22" class="edge">
<title>Node37&#45;&gt;Node33</title>
<path fill="none" stroke="#191970" d="M750.8716,-144.2781C762.3541,-142.8973 774.1417,-141.4798 785.2401,-140.1452"/>
<polygon fill="#191970" stroke="#191970" points="750.395,-140.8101 740.8845,-145.4791 751.2308,-147.76 750.395,-140.8101"/>
</g>
<!-- Node39 -->
<g id="node18" class="node">
<title>Node39</title>
<g id="a_node18"><a xlink:href="classSha256Class.html#a0ca245a22f8b056a3d1902da3c64b705" target="_top" xlink:title="Sha256Class::result">
<polygon fill="#ffffff" stroke="#000000" points="476,-67 476,-86 581,-86 581,-67 476,-67"/>
<text text-anchor="middle" x="528.5" y="-74" font-family="Helvetica,sans-Serif" font-size="10.00" fill="#000000">Sha256Class::result</text>
</a>
</g>
</g>
<!-- Node38&#45;&gt;Node39 -->
<g id="edge24" class="edge">
<title>Node38&#45;&gt;Node39</title>
<path fill="none" stroke="#191970" d="M450.3612,-76.5C458.8127,-76.5 467.4639,-76.5 475.7863,-76.5"/>
<polygon fill="#191970" stroke="#191970" points="450.1869,-73.0001 440.1868,-76.5 450.1868,-80.0001 450.1869,-73.0001"/>
</g>
<!-- Node39&#45;&gt;Node25 -->
<g id="edge25" class="edge">
<title>Node39&#45;&gt;Node25</title>
<path fill="none" stroke="#191970" d="M591.2416,-76.5C601.5627,-76.5 612.2379,-76.5 622.4902,-76.5"/>
<polygon fill="#191970" stroke="#191970" points="591.0674,-73.0001 581.0673,-76.5 591.0673,-80.0001 591.0674,-73.0001"/>
</g>
<!-- Node39&#45;&gt;Node35 -->
<g id="edge26" class="edge">
<title>Node39&#45;&gt;Node35</title>
<path fill="none" stroke="#191970" d="M577.2937,-88.54C598.8082,-93.8488 623.7318,-99.9988 643.9187,-104.9799"/>
<polygon fill="#191970" stroke="#191970" points="577.908,-85.0867 567.3607,-86.089 576.231,-91.8828 577.908,-85.0867"/>
</g>
</g>
</svg>
