<?xml version="1.0" encoding="UTF-8" standalone="no"?>
<!DOCTYPE svg PUBLIC "-//W3C//DTD SVG 1.1//EN"
 "http://www.w3.org/Graphics/SVG/1.1/DTD/svg11.dtd">
<!-- Generated by graphviz version 2.40.1 (20161225.0304)
 -->
<!-- Title: ATSHA204Class::sha204m_execute Pages: 1 -->
<!--zoomable 329 -->
<svg id="main" version="1.1" xmlns="http://www.w3.org/2000/svg" xmlns:xlink="http://www.w3.org/1999/xlink" xml:space="preserve" onload="init(evt)">
<style type="text/css"><![CDATA[
.edge:hover path { stroke: red; }
.edge:hover polygon { stroke: red; fill: red; }
]]></style>
<script type="text/javascript"><![CDATA[
var edges = document.getElementsByTagName('g');
if (edges && edges.length) {
  for (var i=0;i<edges.length;i++) {
    if (edges[i].id.substr(0,4)=='edge') {
      edges[i].setAttribute('class','edge');
    }
  }
}
]]></script>
        <defs>
                <circle id="rim" cx="0" cy="0" r="7"/>
                <circle id="rim2" cx="0" cy="0" r="3.5"/>
                <g id="zoomPlus">
                        <use xlink:href="#rim" fill="#404040">
                                <set attributeName="fill" to="#808080" begin="zoomplus.mouseover" end="zoomplus.mouseout"/>
                        </use>
                        <path d="M-4,0h8M0,-4v8" fill="none" stroke="white" stroke-width="1.5" pointer-events="none"/>
                </g>
                <g id="zoomMin">
                        <use xlink:href="#rim" fill="#404040">
                                <set attributeName="fill" to="#808080" begin="zoomminus.mouseover" end="zoomminus.mouseout"/>
                        </use>
                        <path d="M-4,0h8" fill="none" stroke="white" stroke-width="1.5" pointer-events="none"/>
                </g>
                <g id="dirArrow">
                        <path fill="none" stroke="white" stroke-width="1.5" d="M0,-3.0v7 M-2.5,-0.5L0,-3.0L2.5,-0.5"/>
                </g>
               <g id="resetDef">
                       <use xlink:href="#rim2" fill="#404040">
                               <set attributeName="fill" to="#808080" begin="reset.mouseover" end="reset.mouseout"/>
                       </use>
               </g>
        </defs>

<script type="text/javascript">
var viewWidth = 1123;
var viewHeight = 329;
var sectionId = 'dynsection-12';
</script>
<script xlink:href="svgpan.js"/>
<svg id="graph" class="graph">
<g id="viewport">
<title>ATSHA204Class::sha204m_execute</title>
<polygon fill="#ffffff" stroke="transparent" points="-4,4 -4,-325 1119,-325 1119,4 -4,4"/>
<!-- Node79 -->
<g id="node1" class="node">
<title>Node79</title>
<polygon fill="#bfbfbf" stroke="#000000" points="0,-265.5 0,-295.5 137,-295.5 137,-265.5 0,-265.5"/>
<text text-anchor="start" x="8" y="-283.5" font-family="Helvetica,sans-Serif" font-size="10.00" fill="#000000">ATSHA204Class::sha204m</text>
<text text-anchor="middle" x="68.5" y="-272.5" font-family="Helvetica,sans-Serif" font-size="10.00" fill="#000000">_execute</text>
</g>
<!-- Node80 -->
<g id="node2" class="node">
<title>Node80</title>
<g id="a_node2"><a xlink:href="classATSHA204Class.html#a42b8beceec64c89148a9bb49b26f0fb1" target="_top" xlink:title="ATSHA204Class::sha204c\l_calculate_crc">
<polygon fill="#ffffff" stroke="#000000" points="513,-290.5 513,-320.5 647,-320.5 647,-290.5 513,-290.5"/>
<text text-anchor="start" x="521" y="-308.5" font-family="Helvetica,sans-Serif" font-size="10.00" fill="#000000">ATSHA204Class::sha204c</text>
<text text-anchor="middle" x="580" y="-297.5" font-family="Helvetica,sans-Serif" font-size="10.00" fill="#000000">_calculate_crc</text>
</a>
</g>
</g>
<!-- Node79&#45;&gt;Node80 -->
<g id="edge1" class="edge">
<title>Node79&#45;&gt;Node80</title>
<path fill="none" stroke="#191970" d="M137.1442,-290.0996C192.5676,-297.3435 272.6325,-306.6662 343,-310.5 402.4674,-313.7399 417.462,-311.9442 477,-310.5 485.3616,-310.2972 494.1017,-310.0018 502.8036,-309.6545"/>
<polygon fill="#191970" stroke="#191970" points="503.1328,-313.1439 512.9763,-309.2254 502.8377,-306.1501 503.1328,-313.1439"/>
</g>
<!-- Node81 -->
<g id="node3" class="node">
<title>Node81</title>
<g id="a_node3"><a xlink:href="classATSHA204Class.html#a3689222ad46022e5c50ba484053d9b2c" target="_top" xlink:title="ATSHA204Class::sha204c\l_send_and_receive">
<polygon fill="#ffffff" stroke="#000000" points="173,-202.5 173,-232.5 307,-232.5 307,-202.5 173,-202.5"/>
<text text-anchor="start" x="181" y="-220.5" font-family="Helvetica,sans-Serif" font-size="10.00" fill="#000000">ATSHA204Class::sha204c</text>
<text text-anchor="middle" x="240" y="-209.5" font-family="Helvetica,sans-Serif" font-size="10.00" fill="#000000">_send_and_receive</text>
</a>
</g>
</g>
<!-- Node79&#45;&gt;Node81 -->
<g id="edge2" class="edge">
<title>Node79&#45;&gt;Node81</title>
<path fill="none" stroke="#191970" d="M109.5785,-265.4099C133.5669,-256.5979 164.0264,-245.4087 189.4755,-236.06"/>
<polygon fill="#191970" stroke="#191970" points="190.78,-239.3096 198.9598,-232.576 188.3662,-232.7389 190.78,-239.3096"/>
</g>
<!-- Node81&#45;&gt;Node80 -->
<g id="edge3" class="edge">
<title>Node81&#45;&gt;Node80</title>
<path fill="none" stroke="#191970" d="M256.7292,-232.7311C275.9669,-249.2253 309.2584,-274.7494 343,-286.5 394.2068,-304.333 455.2648,-308.8674 502.5812,-309.0556"/>
<polygon fill="#191970" stroke="#191970" points="502.7742,-312.5553 512.7655,-309.0304 502.7568,-305.5553 502.7742,-312.5553"/>
</g>
<!-- Node82 -->
<g id="node4" class="node">
<title>Node82</title>
<g id="a_node4"><a xlink:href="classATSHA204Class.html#abe55ac783f1a37777bd09b7fc369ebc9" target="_top" xlink:title="ATSHA204Class::swi\l_send_byte">
<polygon fill="#ffffff" stroke="#000000" points="853,-155.5 853,-185.5 966,-185.5 966,-155.5 853,-155.5"/>
<text text-anchor="start" x="861" y="-173.5" font-family="Helvetica,sans-Serif" font-size="10.00" fill="#000000">ATSHA204Class::swi</text>
<text text-anchor="middle" x="909.5" y="-162.5" font-family="Helvetica,sans-Serif" font-size="10.00" fill="#000000">_send_byte</text>
</a>
</g>
</g>
<!-- Node81&#45;&gt;Node82 -->
<g id="edge4" class="edge">
<title>Node81&#45;&gt;Node82</title>
<path fill="none" stroke="#191970" d="M307.2303,-207.6038C319.1284,-206.069 331.4144,-204.6231 343,-203.5 523.0683,-186.0437 736.2968,-176.6508 842.4574,-172.7353"/>
<polygon fill="#191970" stroke="#191970" points="842.8354,-176.224 852.7013,-172.3623 842.5806,-169.2286 842.8354,-176.224"/>
</g>
<!-- Node83 -->
<g id="node5" class="node">
<title>Node83</title>
<g id="a_node5"><a xlink:href="classATSHA204Class.html#a0f8c2167d152bbe670d1b1187d7b2897" target="_top" xlink:title="ATSHA204Class::swi\l_send_bytes">
<polygon fill="#ffffff" stroke="#000000" points="1002,-178.5 1002,-208.5 1115,-208.5 1115,-178.5 1002,-178.5"/>
<text text-anchor="start" x="1010" y="-196.5" font-family="Helvetica,sans-Serif" font-size="10.00" fill="#000000">ATSHA204Class::swi</text>
<text text-anchor="middle" x="1058.5" y="-185.5" font-family="Helvetica,sans-Serif" font-size="10.00" fill="#000000">_send_bytes</text>
</a>
</g>
</g>
<!-- Node81&#45;&gt;Node83 -->
<g id="edge6" class="edge">
<title>Node81&#45;&gt;Node83</title>
<path fill="none" stroke="#191970" d="M307.0923,-217.5C375.6715,-217.5 485.2604,-217.5 580,-217.5 580,-217.5 580,-217.5 750,-217.5 833.4562,-217.5 929.2303,-208.6618 991.6389,-201.7122"/>
<polygon fill="#191970" stroke="#191970" points="992.1997,-205.1712 1001.7437,-200.571 991.414,-198.2155 992.1997,-205.1712"/>
</g>
<!-- Node84 -->
<g id="node6" class="node">
<title>Node84</title>
<g id="a_node6"><a xlink:href="classATSHA204Class.html#a0d8eab6a8af231835dd5b6734df0d670" target="_top" xlink:title="ATSHA204Class::sha204c\l_resync">
<polygon fill="#ffffff" stroke="#000000" points="343,-63.5 343,-93.5 477,-93.5 477,-63.5 343,-63.5"/>
<text text-anchor="start" x="351" y="-81.5" font-family="Helvetica,sans-Serif" font-size="10.00" fill="#000000">ATSHA204Class::sha204c</text>
<text text-anchor="middle" x="410" y="-70.5" font-family="Helvetica,sans-Serif" font-size="10.00" fill="#000000">_resync</text>
</a>
</g>
</g>
<!-- Node81&#45;&gt;Node84 -->
<g id="edge7" class="edge">
<title>Node81&#45;&gt;Node84</title>
<path fill="none" stroke="#191970" d="M256.39,-202.3922C276.4005,-184.133 311.4783,-152.7203 343,-127.5 354.8616,-118.0096 368.315,-108.0267 380.038,-99.566"/>
<polygon fill="#191970" stroke="#191970" points="382.1304,-102.3725 388.2209,-93.7032 378.0535,-96.6823 382.1304,-102.3725"/>
</g>
<!-- Node85 -->
<g id="node7" class="node">
<title>Node85</title>
<g id="a_node7"><a xlink:href="classATSHA204Class.html#ae5c777e2388de999d13afef7008a36a7" target="_top" xlink:title="ATSHA204Class::sha204p\l_receive_response">
<polygon fill="#ffffff" stroke="#000000" points="683,-101.5 683,-131.5 817,-131.5 817,-101.5 683,-101.5"/>
<text text-anchor="start" x="691" y="-119.5" font-family="Helvetica,sans-Serif" font-size="10.00" fill="#000000">ATSHA204Class::sha204p</text>
<text text-anchor="middle" x="750" y="-108.5" font-family="Helvetica,sans-Serif" font-size="10.00" fill="#000000">_receive_response</text>
</a>
</g>
</g>
<!-- Node81&#45;&gt;Node85 -->
<g id="edge16" class="edge">
<title>Node81&#45;&gt;Node85</title>
<path fill="none" stroke="#191970" d="M263.9669,-202.3691C284.2256,-190.3378 314.4307,-174.1397 343,-165.5 454.4993,-131.7811 589.7929,-121.1489 672.8778,-117.8656"/>
<polygon fill="#191970" stroke="#191970" points="673.132,-121.3587 682.996,-117.492 672.8736,-114.3635 673.132,-121.3587"/>
</g>
<!-- Node90 -->
<g id="node12" class="node">
<title>Node90</title>
<g id="a_node12"><a xlink:href="classATSHA204Class.html#a30b1fad66d47a88848ebc6d74b66ec97" target="_top" xlink:title="ATSHA204Class::sha204c\l_check_crc">
<polygon fill="#ffffff" stroke="#000000" points="343,-246.5 343,-276.5 477,-276.5 477,-246.5 343,-246.5"/>
<text text-anchor="start" x="351" y="-264.5" font-family="Helvetica,sans-Serif" font-size="10.00" fill="#000000">ATSHA204Class::sha204c</text>
<text text-anchor="middle" x="410" y="-253.5" font-family="Helvetica,sans-Serif" font-size="10.00" fill="#000000">_check_crc</text>
</a>
</g>
</g>
<!-- Node81&#45;&gt;Node90 -->
<g id="edge17" class="edge">
<title>Node81&#45;&gt;Node90</title>
<path fill="none" stroke="#191970" d="M298.0289,-232.5192C312.1744,-236.1804 327.4316,-240.1294 341.995,-243.8987"/>
<polygon fill="#191970" stroke="#191970" points="341.3862,-247.3564 351.9442,-246.4738 343.1402,-240.5797 341.3862,-247.3564"/>
</g>
<!-- Node82&#45;&gt;Node83 -->
<g id="edge5" class="edge">
<title>Node82&#45;&gt;Node83</title>
<path fill="none" stroke="#191970" d="M966.2556,-179.2609C974.6493,-180.5566 983.3621,-181.9015 991.9332,-183.2246"/>
<polygon fill="#191970" stroke="#191970" points="991.4853,-186.6968 1001.9022,-184.7634 992.5533,-179.7788 991.4853,-186.6968"/>
</g>
<!-- Node84&#45;&gt;Node85 -->
<g id="edge8" class="edge">
<title>Node84&#45;&gt;Node85</title>
<path fill="none" stroke="#191970" d="M477.1731,-86.0076C533.52,-92.3052 614.0085,-101.301 672.9603,-107.8897"/>
<polygon fill="#191970" stroke="#191970" points="672.6396,-111.3755 682.9665,-109.008 673.4171,-104.4189 672.6396,-111.3755"/>
</g>
<!-- Node87 -->
<g id="node9" class="node">
<title>Node87</title>
<g id="a_node9"><a xlink:href="classATSHA204Class.html#ac51be7c43d75dcc439d89ecb0493149b" target="_top" xlink:title="ATSHA204Class::sha204c\l_sleep">
<polygon fill="#ffffff" stroke="#000000" points="683,-.5 683,-30.5 817,-30.5 817,-.5 683,-.5"/>
<text text-anchor="start" x="691" y="-18.5" font-family="Helvetica,sans-Serif" font-size="10.00" fill="#000000">ATSHA204Class::sha204c</text>
<text text-anchor="middle" x="750" y="-7.5" font-family="Helvetica,sans-Serif" font-size="10.00" fill="#000000">_sleep</text>
</a>
</g>
</g>
<!-- Node84&#45;&gt;Node87 -->
<g id="edge11" class="edge">
<title>Node84&#45;&gt;Node87</title>
<path fill="none" stroke="#191970" d="M438.4335,-63.3855C458.6471,-53.3892 486.7578,-40.9736 513,-34.5 565.3649,-21.5822 626.0163,-16.9013 672.8537,-15.4142"/>
<polygon fill="#191970" stroke="#191970" points="673.0322,-18.9107 682.932,-15.1364 672.8393,-11.9133 673.0322,-18.9107"/>
</g>
<!-- Node88 -->
<g id="node10" class="node">
<title>Node88</title>
<g id="a_node10"><a xlink:href="classATSHA204Class.html#a2772385d612dee11f65c310334d7952b" target="_top" xlink:title="ATSHA204Class::sha204c\l_wakeup">
<polygon fill="#ffffff" stroke="#000000" points="513,-44.5 513,-74.5 647,-74.5 647,-44.5 513,-44.5"/>
<text text-anchor="start" x="521" y="-62.5" font-family="Helvetica,sans-Serif" font-size="10.00" fill="#000000">ATSHA204Class::sha204c</text>
<text text-anchor="middle" x="580" y="-51.5" font-family="Helvetica,sans-Serif" font-size="10.00" fill="#000000">_wakeup</text>
</a>
</g>
</g>
<!-- Node84&#45;&gt;Node88 -->
<g id="edge13" class="edge">
<title>Node84&#45;&gt;Node88</title>
<path fill="none" stroke="#191970" d="M477.1885,-70.9907C485.5935,-70.0513 494.2417,-69.0848 502.7842,-68.13"/>
<polygon fill="#191970" stroke="#191970" points="503.1935,-71.6061 512.7428,-67.017 502.4159,-64.6495 503.1935,-71.6061"/>
</g>
<!-- Node85&#45;&gt;Node82 -->
<g id="edge9" class="edge">
<title>Node85&#45;&gt;Node82</title>
<path fill="none" stroke="#191970" d="M794.4296,-131.542C813.362,-137.9517 835.6224,-145.4881 855.494,-152.2158"/>
<polygon fill="#191970" stroke="#191970" points="854.438,-155.5534 865.0323,-155.4451 856.6828,-148.9231 854.438,-155.5534"/>
</g>
<!-- Node86 -->
<g id="node8" class="node">
<title>Node86</title>
<g id="a_node8"><a xlink:href="classATSHA204Class.html#ae81c8e3063da186b698d31bad70e543b" target="_top" xlink:title="ATSHA204Class::swi\l_receive_bytes">
<polygon fill="#ffffff" stroke="#000000" points="853,-101.5 853,-131.5 966,-131.5 966,-101.5 853,-101.5"/>
<text text-anchor="start" x="861" y="-119.5" font-family="Helvetica,sans-Serif" font-size="10.00" fill="#000000">ATSHA204Class::swi</text>
<text text-anchor="middle" x="909.5" y="-108.5" font-family="Helvetica,sans-Serif" font-size="10.00" fill="#000000">_receive_bytes</text>
</a>
</g>
</g>
<!-- Node85&#45;&gt;Node86 -->
<g id="edge10" class="edge">
<title>Node85&#45;&gt;Node86</title>
<path fill="none" stroke="#191970" d="M817.1801,-116.5C825.6539,-116.5 834.3219,-116.5 842.7884,-116.5"/>
<polygon fill="#191970" stroke="#191970" points="842.9892,-120.0001 852.9892,-116.5 842.9891,-113.0001 842.9892,-120.0001"/>
</g>
<!-- Node87&#45;&gt;Node82 -->
<g id="edge12" class="edge">
<title>Node87&#45;&gt;Node82</title>
<path fill="none" stroke="#191970" d="M805.4699,-30.6482C809.673,-33.1619 813.5953,-36.09 817,-39.5 850.6708,-73.2238 821.8452,-104.4391 853,-140.5 855.9803,-143.9496 859.4574,-147.0642 863.1953,-149.8626"/>
<polygon fill="#191970" stroke="#191970" points="861.4323,-152.8928 871.7036,-155.491 865.2944,-147.0546 861.4323,-152.8928"/>
</g>
<!-- Node88&#45;&gt;Node85 -->
<g id="edge15" class="edge">
<title>Node88&#45;&gt;Node85</title>
<path fill="none" stroke="#191970" d="M625.1106,-74.6253C646.7142,-81.8689 672.7638,-90.6032 695.47,-98.2164"/>
<polygon fill="#191970" stroke="#191970" points="694.3799,-101.5424 704.9739,-101.403 696.6053,-94.9055 694.3799,-101.5424"/>
</g>
<!-- Node89 -->
<g id="node11" class="node">
<title>Node89</title>
<g id="a_node11"><a xlink:href="classATSHA204Class.html#a2d69316e4670b7fd17a1e2b6231191ff" target="_top" xlink:title="ATSHA204Class::swi\l_set_signal_pin">
<polygon fill="#ffffff" stroke="#000000" points="693.5,-49.5 693.5,-79.5 806.5,-79.5 806.5,-49.5 693.5,-49.5"/>
<text text-anchor="start" x="701.5" y="-67.5" font-family="Helvetica,sans-Serif" font-size="10.00" fill="#000000">ATSHA204Class::swi</text>
<text text-anchor="middle" x="750" y="-56.5" font-family="Helvetica,sans-Serif" font-size="10.00" fill="#000000">_set_signal_pin</text>
</a>
</g>
</g>
<!-- Node88&#45;&gt;Node89 -->
<g id="edge14" class="edge">
<title>Node88&#45;&gt;Node89</title>
<path fill="none" stroke="#191970" d="M647.1885,-61.4761C659.0325,-61.8245 671.3595,-62.187 683.1929,-62.5351"/>
<polygon fill="#191970" stroke="#191970" points="683.3418,-66.0409 693.4404,-62.8365 683.5477,-59.0439 683.3418,-66.0409"/>
</g>
<!-- Node90&#45;&gt;Node80 -->
<g id="edge18" class="edge">
<title>Node90&#45;&gt;Node80</title>
<path fill="none" stroke="#191970" d="M468.0289,-276.5192C482.1744,-280.1804 497.4316,-284.1294 511.995,-287.8987"/>
<polygon fill="#191970" stroke="#191970" points="511.3862,-291.3564 521.9442,-290.4738 513.1402,-284.5797 511.3862,-291.3564"/>
</g>
</g>
</svg>
        <g id="navigator" transform="translate(0 0)" fill="#404254">
                <rect fill="#f2f5e9" fill-opacity="0.5" stroke="#606060" stroke-width=".5" x="0" y="0" width="60" height="60"/>
                <use id="zoomplus" xlink:href="#zoomPlus" x="17" y="9" onmousedown="handleZoom(evt,'in')"/>
                <use id="zoomminus" xlink:href="#zoomMin" x="42" y="9" onmousedown="handleZoom(evt,'out')"/>
                <use id="reset" xlink:href="#resetDef" x="30" y="36" onmousedown="handleReset()"/>
                <g id="arrowUp" xlink:href="#dirArrow" transform="translate(30 24)" onmousedown="handlePan(0,-1)">
                  <use xlink:href="#rim" fill="#404040">
                        <set attributeName="fill" to="#808080" begin="arrowUp.mouseover" end="arrowUp.mouseout"/>
                  </use>
                  <path fill="none" stroke="white" stroke-width="1.5" d="M0,-3.0v7 M-2.5,-0.5L0,-3.0L2.5,-0.5"/>
                </g>
                <g id="arrowRight" xlink:href="#dirArrow" transform="rotate(90) translate(36 -43)" onmousedown="handlePan(1,0)">
                  <use xlink:href="#rim" fill="#404040">
                        <set attributeName="fill" to="#808080" begin="arrowRight.mouseover" end="arrowRight.mouseout"/>
                  </use>
                  <path fill="none" stroke="white" stroke-width="1.5" d="M0,-3.0v7 M-2.5,-0.5L0,-3.0L2.5,-0.5"/>
                </g>
                <g id="arrowDown" xlink:href="#dirArrow" transform="rotate(180) translate(-30 -48)" onmousedown="handlePan(0,1)">
                  <use xlink:href="#rim" fill="#404040">
                        <set attributeName="fill" to="#808080" begin="arrowDown.mouseover" end="arrowDown.mouseout"/>
                  </use>
                  <path fill="none" stroke="white" stroke-width="1.5" d="M0,-3.0v7 M-2.5,-0.5L0,-3.0L2.5,-0.5"/>
                </g>
                <g id="arrowLeft" xlink:href="#dirArrow" transform="rotate(270) translate(-36 17)" onmousedown="handlePan(-1,0)">
                  <use xlink:href="#rim" fill="#404040">
                        <set attributeName="fill" to="#808080" begin="arrowLeft.mouseover" end="arrowLeft.mouseout"/>
                  </use>
                  <path fill="none" stroke="white" stroke-width="1.5" d="M0,-3.0v7 M-2.5,-0.5L0,-3.0L2.5,-0.5"/>
                </g>
        </g>
        <svg viewBox="0 0 15 15" width="100%" height="30px" preserveAspectRatio="xMaxYMin meet">
         <g id="arrow_out" transform="scale(0.3 0.3)">
          <a xlink:href="classATSHA204Class_a8600d67f5c574e1584ef5555429f305b_cgraph_org.svg" target="_base">
           <rect id="button" ry="5" rx="5" y="6" x="6" height="38" width="38"
                fill="#f2f5e9" fill-opacity="0.5" stroke="#606060" stroke-width="1.0"/>
           <path id="arrow"
             d="M 11.500037,31.436501 C 11.940474,20.09759 22.043105,11.32322 32.158766,21.979434 L 37.068811,17.246167 C 37.068811,17.246167 37.088388,32 37.088388,32 L 22.160133,31.978069 C 22.160133,31.978069 26.997745,27.140456 26.997745,27.140456 C 18.528582,18.264221 13.291696,25.230495 11.500037,31.436501 z"
             style="fill:#404040;"/>
          </a>
         </g>
        </svg>
</svg>
