<?xml version="1.0" encoding="UTF-8" standalone="no"?>
<!DOCTYPE svg PUBLIC "-//W3C//DTD SVG 1.1//EN"
 "http://www.w3.org/Graphics/SVG/1.1/DTD/svg11.dtd">
<!-- Generated by graphviz version 2.40.1 (20161225.0304)
 -->
<!-- Title: ATSHA204Class::sha204p_receive_response Pages: 1 -->
<svg width="440pt" height="88pt"
 viewBox="0.00 0.00 440.00 88.00" xmlns="http://www.w3.org/2000/svg" xmlns:xlink="http://www.w3.org/1999/xlink">
<g id="graph0" class="graph" transform="scale(1 1) rotate(0) translate(4 84)">
<title>ATSHA204Class::sha204p_receive_response</title>
<polygon fill="#ffffff" stroke="transparent" points="-4,4 -4,-84 436,-84 436,4 -4,4"/>
<!-- Node106 -->
<g id="node1" class="node">
<title>Node106</title>
<polygon fill="#bfbfbf" stroke="#000000" points="0,-24.5 0,-54.5 134,-54.5 134,-24.5 0,-24.5"/>
<text text-anchor="start" x="8" y="-42.5" font-family="Helvetica,sans-Serif" font-size="10.00" fill="#000000">ATSHA204Class::sha204p</text>
<text text-anchor="middle" x="67" y="-31.5" font-family="Helvetica,sans-Serif" font-size="10.00" fill="#000000">_receive_response</text>
</g>
<!-- Node107 -->
<g id="node2" class="node">
<title>Node107</title>
<g id="a_node2"><a xlink:href="classATSHA204Class.html#abe55ac783f1a37777bd09b7fc369ebc9" target="_top" xlink:title="ATSHA204Class::swi\l_send_byte">
<polygon fill="#ffffff" stroke="#000000" points="170,-49.5 170,-79.5 283,-79.5 283,-49.5 170,-49.5"/>
<text text-anchor="start" x="178" y="-67.5" font-family="Helvetica,sans-Serif" font-size="10.00" fill="#000000">ATSHA204Class::swi</text>
<text text-anchor="middle" x="226.5" y="-56.5" font-family="Helvetica,sans-Serif" font-size="10.00" fill="#000000">_send_byte</text>
</a>
</g>
</g>
<!-- Node106&#45;&gt;Node107 -->
<g id="edge1" class="edge">
<title>Node106&#45;&gt;Node107</title>
<path fill="none" stroke="#191970" d="M134.1801,-50.0298C142.747,-51.3726 151.5124,-52.7465 160.0675,-54.0874"/>
<polygon fill="#191970" stroke="#191970" points="159.5678,-57.5517 169.9892,-55.6425 160.6518,-50.6361 159.5678,-57.5517"/>
</g>
<!-- Node109 -->
<g id="node4" class="node">
<title>Node109</title>
<g id="a_node4"><a xlink:href="classATSHA204Class.html#ae81c8e3063da186b698d31bad70e543b" target="_top" xlink:title="ATSHA204Class::swi\l_receive_bytes">
<polygon fill="#ffffff" stroke="#000000" points="170,-.5 170,-30.5 283,-30.5 283,-.5 170,-.5"/>
<text text-anchor="start" x="178" y="-18.5" font-family="Helvetica,sans-Serif" font-size="10.00" fill="#000000">ATSHA204Class::swi</text>
<text text-anchor="middle" x="226.5" y="-7.5" font-family="Helvetica,sans-Serif" font-size="10.00" fill="#000000">_receive_bytes</text>
</a>
</g>
</g>
<!-- Node106&#45;&gt;Node109 -->
<g id="edge3" class="edge">
<title>Node106&#45;&gt;Node109</title>
<path fill="none" stroke="#191970" d="M134.1801,-29.3914C142.747,-28.1023 151.5124,-26.7834 160.0675,-25.4961"/>
<polygon fill="#191970" stroke="#191970" points="160.6213,-28.9523 169.9892,-24.0032 159.5797,-22.0302 160.6213,-28.9523"/>
</g>
<!-- Node108 -->
<g id="node3" class="node">
<title>Node108</title>
<g id="a_node3"><a xlink:href="classATSHA204Class.html#a0f8c2167d152bbe670d1b1187d7b2897" target="_top" xlink:title="ATSHA204Class::swi\l_send_bytes">
<polygon fill="#ffffff" stroke="#000000" points="319,-49.5 319,-79.5 432,-79.5 432,-49.5 319,-49.5"/>
<text text-anchor="start" x="327" y="-67.5" font-family="Helvetica,sans-Serif" font-size="10.00" fill="#000000">ATSHA204Class::swi</text>
<text text-anchor="middle" x="375.5" y="-56.5" font-family="Helvetica,sans-Serif" font-size="10.00" fill="#000000">_send_bytes</text>
</a>
</g>
</g>
<!-- Node107&#45;&gt;Node108 -->
<g id="edge2" class="edge">
<title>Node107&#45;&gt;Node108</title>
<path fill="none" stroke="#191970" d="M283.2556,-64.5C291.558,-64.5 300.1727,-64.5 308.6536,-64.5"/>
<polygon fill="#191970" stroke="#191970" points="308.9023,-68.0001 318.9022,-64.5 308.9022,-61.0001 308.9023,-68.0001"/>
</g>
</g>
</svg>
