<?xml version="1.0" encoding="UTF-8" standalone="no"?>
<!DOCTYPE svg PUBLIC "-//W3C//DTD SVG 1.1//EN"
 "http://www.w3.org/Graphics/SVG/1.1/DTD/svg11.dtd">
<!-- Generated by graphviz version 2.40.1 (20161225.0304)
 -->
<!-- Title: Sha256Class::init Pages: 1 -->
<svg width="660pt" height="122pt"
 viewBox="0.00 0.00 660.00 121.50" xmlns="http://www.w3.org/2000/svg" xmlns:xlink="http://www.w3.org/1999/xlink">
<g id="graph0" class="graph" transform="scale(1 1) rotate(0) translate(4 117.5)">
<title>Sha256Class::init</title>
<polygon fill="#ffffff" stroke="transparent" points="-4,4 -4,-117.5 656,-117.5 656,4 -4,4"/>
<!-- Node33 -->
<g id="node1" class="node">
<title>Node33</title>
<polygon fill="#bfbfbf" stroke="#000000" points="0,-50 0,-69 94,-69 94,-50 0,-50"/>
<text text-anchor="middle" x="47" y="-57" font-family="Helvetica,sans-Serif" font-size="10.00" fill="#000000">Sha256Class::init</text>
</g>
<!-- Node34 -->
<g id="node2" class="node">
<title>Node34</title>
<g id="a_node2"><a xlink:href="classSha256Class.html#a73d3dcea6eb667fd146d12aa5d106939" target="_top" xlink:title="Sha256Class::initHmac">
<polygon fill="#ffffff" stroke="#000000" points="135.5,-69 135.5,-88 255.5,-88 255.5,-69 135.5,-69"/>
<text text-anchor="middle" x="195.5" y="-76" font-family="Helvetica,sans-Serif" font-size="10.00" fill="#000000">Sha256Class::initHmac</text>
</a>
</g>
</g>
<!-- Node33&#45;&gt;Node34 -->
<g id="edge1" class="edge">
<title>Node33&#45;&gt;Node34</title>
<path fill="none" stroke="#191970" d="M104.3424,-66.8367C114.4678,-68.1322 125.0362,-69.4844 135.239,-70.7898"/>
<polygon fill="#191970" stroke="#191970" points="104.758,-63.3615 94.3946,-65.564 103.8695,-70.3049 104.758,-63.3615"/>
</g>
<!-- Node40 -->
<g id="node8" class="node">
<title>Node40</title>
<g id="a_node8"><a xlink:href="classSha256Class.html#a7556f29cadf7eaca21a537df41318af3" target="_top" xlink:title="Sha256Class::resultHmac">
<polygon fill="#ffffff" stroke="#000000" points="130,-31 130,-50 261,-50 261,-31 130,-31"/>
<text text-anchor="middle" x="195.5" y="-38" font-family="Helvetica,sans-Serif" font-size="10.00" fill="#000000">Sha256Class::resultHmac</text>
</a>
</g>
</g>
<!-- Node33&#45;&gt;Node40 -->
<g id="edge7" class="edge">
<title>Node33&#45;&gt;Node40</title>
<path fill="none" stroke="#191970" d="M104.3941,-52.1566C112.7387,-51.089 121.3832,-49.983 129.8752,-48.8964"/>
<polygon fill="#191970" stroke="#191970" points="103.8695,-48.6951 94.3946,-53.436 104.758,-55.6385 103.8695,-48.6951"/>
</g>
<!-- Node35 -->
<g id="node3" class="node">
<title>Node35</title>
<g id="a_node3"><a xlink:href="TooSigning_8h.html#a1e2cd2b37702263e1fe166395350bf08" target="_top" xlink:title="TooSigning_init_hmac">
<polygon fill="#ffffff" stroke="#000000" points="297,-94 297,-113 410,-113 410,-94 297,-94"/>
<text text-anchor="middle" x="353.5" y="-101" font-family="Helvetica,sans-Serif" font-size="10.00" fill="#000000">TooSigning_init_hmac</text>
</a>
</g>
</g>
<!-- Node34&#45;&gt;Node35 -->
<g id="edge2" class="edge">
<title>Node34&#45;&gt;Node35</title>
<path fill="none" stroke="#191970" d="M265.6179,-89.5946C276.0719,-91.2487 286.736,-92.9361 296.8655,-94.5388"/>
<polygon fill="#191970" stroke="#191970" points="266.1079,-86.1287 255.6838,-88.0227 265.0139,-93.0427 266.1079,-86.1287"/>
</g>
<!-- Node37 -->
<g id="node5" class="node">
<title>Node37</title>
<g id="a_node5"><a xlink:href="TooSigning_8cpp.html#a03df9fd005c518d1114f912ae7da9f06" target="_top" xlink:title="TooSigning_unsigned\l_network_available">
<polygon fill="#ffffff" stroke="#000000" points="298.5,-44.5 298.5,-74.5 408.5,-74.5 408.5,-44.5 298.5,-44.5"/>
<text text-anchor="start" x="306.5" y="-62.5" font-family="Helvetica,sans-Serif" font-size="10.00" fill="#000000">TooSigning_unsigned</text>
<text text-anchor="middle" x="353.5" y="-51.5" font-family="Helvetica,sans-Serif" font-size="10.00" fill="#000000">_network_available</text>
</a>
</g>
</g>
<!-- Node34&#45;&gt;Node37 -->
<g id="edge4" class="edge">
<title>Node34&#45;&gt;Node37</title>
<path fill="none" stroke="#191970" d="M265.6701,-70.0618C276.6414,-68.7425 287.8427,-67.3955 298.4134,-66.1243"/>
<polygon fill="#191970" stroke="#191970" points="265.1943,-66.5937 255.6838,-71.2627 266.0301,-73.5437 265.1943,-66.5937"/>
</g>
<!-- Node36 -->
<g id="node4" class="node">
<title>Node36</title>
<g id="a_node4"><a xlink:href="TooNetworking_8h.html#ab5dfe46515ee5ca8f9893675df673d96" target="_top" xlink:title="TooNetworking_send\l_signed">
<polygon fill="#ffffff" stroke="#000000" points="459,-.5 459,-30.5 568,-30.5 568,-.5 459,-.5"/>
<text text-anchor="start" x="467" y="-18.5" font-family="Helvetica,sans-Serif" font-size="10.00" fill="#000000">TooNetworking_send</text>
<text text-anchor="middle" x="513.5" y="-7.5" font-family="Helvetica,sans-Serif" font-size="10.00" fill="#000000">_signed</text>
</a>
</g>
</g>
<!-- Node35&#45;&gt;Node36 -->
<g id="edge3" class="edge">
<title>Node35&#45;&gt;Node36</title>
<path fill="none" stroke="#191970" d="M400.9076,-89.8955C404.0909,-88.2805 407.1575,-86.4876 410,-84.5 430.9899,-69.8226 425.1372,-54.3575 446,-39.5 450.7616,-36.109 456.0499,-33.1542 461.5112,-30.5897"/>
<polygon fill="#191970" stroke="#191970" points="399.4266,-86.7236 391.7163,-93.99 402.2752,-93.1178 399.4266,-86.7236"/>
</g>
<!-- Node38 -->
<g id="node6" class="node">
<title>Node38</title>
<g id="a_node6"><a xlink:href="TooNetworking_8h.html#a7382ba1aed5405c3adc02011ea6c45dd" target="_top" xlink:title="TooNetworking_connection\l_maintenance">
<polygon fill="#ffffff" stroke="#000000" points="446,-49.5 446,-79.5 581,-79.5 581,-49.5 446,-49.5"/>
<text text-anchor="start" x="454" y="-67.5" font-family="Helvetica,sans-Serif" font-size="10.00" fill="#000000">TooNetworking_connection</text>
<text text-anchor="middle" x="513.5" y="-56.5" font-family="Helvetica,sans-Serif" font-size="10.00" fill="#000000">_maintenance</text>
</a>
</g>
</g>
<!-- Node37&#45;&gt;Node38 -->
<g id="edge5" class="edge">
<title>Node37&#45;&gt;Node38</title>
<path fill="none" stroke="#191970" d="M418.587,-61.534C427.5862,-61.8152 436.8465,-62.1046 445.8902,-62.3872"/>
<polygon fill="#191970" stroke="#191970" points="418.6674,-58.0349 408.5629,-61.2207 418.4487,-65.0315 418.6674,-58.0349"/>
</g>
<!-- Node39 -->
<g id="node7" class="node">
<title>Node39</title>
<g id="a_node7"><a xlink:href="NODE__SKETCH__TooAutomation__Node_8ino_8cpp.html#a0b33edabd7f1c4e4a0bf32c67269be2f" target="_top" xlink:title="loop">
<polygon fill="#ffffff" stroke="#000000" points="617,-55 617,-74 652,-74 652,-55 617,-55"/>
<text text-anchor="middle" x="634.5" y="-62" font-family="Helvetica,sans-Serif" font-size="10.00" fill="#000000">loop</text>
</a>
</g>
</g>
<!-- Node38&#45;&gt;Node39 -->
<g id="edge6" class="edge">
<title>Node38&#45;&gt;Node39</title>
<path fill="none" stroke="#191970" d="M591.1566,-64.5C600.6588,-64.5 609.5454,-64.5 616.7679,-64.5"/>
<polygon fill="#191970" stroke="#191970" points="591.0755,-61.0001 581.0754,-64.5 591.0754,-68.0001 591.0755,-61.0001"/>
</g>
<!-- Node40&#45;&gt;Node37 -->
<g id="edge10" class="edge">
<title>Node40&#45;&gt;Node37</title>
<path fill="none" stroke="#191970" d="M271.0697,-49.5875C280.2707,-50.6939 289.534,-51.8079 298.3589,-52.8691"/>
<polygon fill="#191970" stroke="#191970" points="271.48,-46.1117 261.1336,-48.3926 270.6442,-53.0616 271.48,-46.1117"/>
</g>
<!-- Node41 -->
<g id="node9" class="node">
<title>Node41</title>
<g id="a_node9"><a xlink:href="TooSigning_8h.html#ab8a2415b95a77c91ffbc6ebbde622f64" target="_top" xlink:title="TooSigning_get_hmac">
<polygon fill="#ffffff" stroke="#000000" points="297,-6 297,-25 410,-25 410,-6 297,-6"/>
<text text-anchor="middle" x="353.5" y="-13" font-family="Helvetica,sans-Serif" font-size="10.00" fill="#000000">TooSigning_get_hmac</text>
</a>
</g>
</g>
<!-- Node40&#45;&gt;Node41 -->
<g id="edge8" class="edge">
<title>Node40&#45;&gt;Node41</title>
<path fill="none" stroke="#191970" d="M265.6179,-29.4054C276.0719,-27.7513 286.736,-26.0639 296.8655,-24.4612"/>
<polygon fill="#191970" stroke="#191970" points="265.0139,-25.9573 255.6838,-30.9773 266.1079,-32.8713 265.0139,-25.9573"/>
</g>
<!-- Node41&#45;&gt;Node36 -->
<g id="edge9" class="edge">
<title>Node41&#45;&gt;Node36</title>
<path fill="none" stroke="#191970" d="M420.5144,-15.5C433.33,-15.5 446.6024,-15.5 458.9684,-15.5"/>
<polygon fill="#191970" stroke="#191970" points="420.3606,-12.0001 410.3605,-15.5 420.3605,-19.0001 420.3606,-12.0001"/>
</g>
</g>
</svg>
