<?xml version="1.0" encoding="UTF-8" standalone="no"?>
<!DOCTYPE svg PUBLIC "-//W3C//DTD SVG 1.1//EN"
 "http://www.w3.org/Graphics/SVG/1.1/DTD/svg11.dtd">
<!-- Generated by graphviz version 2.40.1 (20161225.0304)
 -->
<!-- Title: Sha256Class::initHmac Pages: 1 -->
<svg width="519pt" height="88pt"
 viewBox="0.00 0.00 519.00 88.00" xmlns="http://www.w3.org/2000/svg" xmlns:xlink="http://www.w3.org/1999/xlink">
<g id="graph0" class="graph" transform="scale(1 1) rotate(0) translate(4 84)">
<title>Sha256Class::initHmac</title>
<polygon fill="#ffffff" stroke="transparent" points="-4,4 -4,-84 515,-84 515,4 -4,4"/>
<!-- Node50 -->
<g id="node1" class="node">
<title>Node50</title>
<polygon fill="#bfbfbf" stroke="#000000" points="0,-30 0,-49 120,-49 120,-30 0,-30"/>
<text text-anchor="middle" x="60" y="-37" font-family="Helvetica,sans-Serif" font-size="10.00" fill="#000000">Sha256Class::initHmac</text>
</g>
<!-- Node51 -->
<g id="node2" class="node">
<title>Node51</title>
<g id="a_node2"><a xlink:href="TooSigning_8h.html#a1e2cd2b37702263e1fe166395350bf08" target="_top" xlink:title="TooSigning_init_hmac">
<polygon fill="#ffffff" stroke="#000000" points="156,-53 156,-72 269,-72 269,-53 156,-53"/>
<text text-anchor="middle" x="212.5" y="-60" font-family="Helvetica,sans-Serif" font-size="10.00" fill="#000000">TooSigning_init_hmac</text>
</a>
</g>
</g>
<!-- Node50&#45;&gt;Node51 -->
<g id="edge1" class="edge">
<title>Node50&#45;&gt;Node51</title>
<path fill="none" stroke="#191970" d="M130.2045,-50.0882C138.7271,-51.3736 147.351,-52.6743 155.6469,-53.9254"/>
<polygon fill="#191970" stroke="#191970" points="130.6822,-46.6208 120.272,-48.5902 129.6382,-53.5425 130.6822,-46.6208"/>
</g>
<!-- Node53 -->
<g id="node4" class="node">
<title>Node53</title>
<g id="a_node4"><a xlink:href="TooSigning_8cpp.html#a03df9fd005c518d1114f912ae7da9f06" target="_top" xlink:title="TooSigning_unsigned\l_network_available">
<polygon fill="#ffffff" stroke="#000000" points="157.5,-2.5 157.5,-32.5 267.5,-32.5 267.5,-2.5 157.5,-2.5"/>
<text text-anchor="start" x="165.5" y="-20.5" font-family="Helvetica,sans-Serif" font-size="10.00" fill="#000000">TooSigning_unsigned</text>
<text text-anchor="middle" x="212.5" y="-9.5" font-family="Helvetica,sans-Serif" font-size="10.00" fill="#000000">_network_available</text>
</a>
</g>
</g>
<!-- Node50&#45;&gt;Node53 -->
<g id="edge3" class="edge">
<title>Node50&#45;&gt;Node53</title>
<path fill="none" stroke="#191970" d="M130.3435,-29.3521C139.3291,-28.0558 148.4247,-26.7436 157.1273,-25.4882"/>
<polygon fill="#191970" stroke="#191970" points="129.6698,-25.913 120.272,-30.805 130.6694,-32.8412 129.6698,-25.913"/>
</g>
<!-- Node52 -->
<g id="node3" class="node">
<title>Node52</title>
<g id="a_node3"><a xlink:href="TooNetworking_8h.html#ab5dfe46515ee5ca8f9893675df673d96" target="_top" xlink:title="TooNetworking_send\l_signed">
<polygon fill="#ffffff" stroke="#000000" points="318,-49.5 318,-79.5 427,-79.5 427,-49.5 318,-49.5"/>
<text text-anchor="start" x="326" y="-67.5" font-family="Helvetica,sans-Serif" font-size="10.00" fill="#000000">TooNetworking_send</text>
<text text-anchor="middle" x="372.5" y="-56.5" font-family="Helvetica,sans-Serif" font-size="10.00" fill="#000000">_signed</text>
</a>
</g>
</g>
<!-- Node51&#45;&gt;Node52 -->
<g id="edge2" class="edge">
<title>Node51&#45;&gt;Node52</title>
<path fill="none" stroke="#191970" d="M279.5144,-63.3377C292.33,-63.4979 305.6024,-63.6638 317.9684,-63.8184"/>
<polygon fill="#191970" stroke="#191970" points="279.4035,-59.8361 269.3605,-63.2108 279.316,-66.8356 279.4035,-59.8361"/>
</g>
<!-- Node54 -->
<g id="node5" class="node">
<title>Node54</title>
<g id="a_node5"><a xlink:href="TooNetworking_8h.html#a7382ba1aed5405c3adc02011ea6c45dd" target="_top" xlink:title="TooNetworking_connection\l_maintenance">
<polygon fill="#ffffff" stroke="#000000" points="305,-.5 305,-30.5 440,-30.5 440,-.5 305,-.5"/>
<text text-anchor="start" x="313" y="-18.5" font-family="Helvetica,sans-Serif" font-size="10.00" fill="#000000">TooNetworking_connection</text>
<text text-anchor="middle" x="372.5" y="-7.5" font-family="Helvetica,sans-Serif" font-size="10.00" fill="#000000">_maintenance</text>
</a>
</g>
</g>
<!-- Node53&#45;&gt;Node54 -->
<g id="edge4" class="edge">
<title>Node53&#45;&gt;Node54</title>
<path fill="none" stroke="#191970" d="M277.587,-16.6864C286.5862,-16.5739 295.8465,-16.4582 304.8902,-16.3451"/>
<polygon fill="#191970" stroke="#191970" points="277.5184,-13.1869 267.5629,-16.8117 277.6059,-20.1864 277.5184,-13.1869"/>
</g>
<!-- Node55 -->
<g id="node6" class="node">
<title>Node55</title>
<g id="a_node6"><a xlink:href="NODE__SKETCH__TooAutomation__Node_8ino_8cpp.html#a0b33edabd7f1c4e4a0bf32c67269be2f" target="_top" xlink:title="loop">
<polygon fill="#ffffff" stroke="#000000" points="476,-6 476,-25 511,-25 511,-6 476,-6"/>
<text text-anchor="middle" x="493.5" y="-13" font-family="Helvetica,sans-Serif" font-size="10.00" fill="#000000">loop</text>
</a>
</g>
</g>
<!-- Node54&#45;&gt;Node55 -->
<g id="edge5" class="edge">
<title>Node54&#45;&gt;Node55</title>
<path fill="none" stroke="#191970" d="M450.1566,-15.5C459.6588,-15.5 468.5454,-15.5 475.7679,-15.5"/>
<polygon fill="#191970" stroke="#191970" points="450.0755,-12.0001 440.0754,-15.5 450.0754,-19.0001 450.0755,-12.0001"/>
</g>
</g>
</svg>
