<?xml version="1.0" encoding="UTF-8" standalone="no"?>
<!DOCTYPE svg PUBLIC "-//W3C//DTD SVG 1.1//EN"
 "http://www.w3.org/Graphics/SVG/1.1/DTD/svg11.dtd">
<!-- Generated by graphviz version 2.40.1 (20161225.0304)
 -->
<!-- Title: Sha256Class::hashBlock Pages: 1 -->
<svg width="1305pt" height="162pt"
 viewBox="0.00 0.00 1305.00 161.50" xmlns="http://www.w3.org/2000/svg" xmlns:xlink="http://www.w3.org/1999/xlink">
<g id="graph0" class="graph" transform="scale(1 1) rotate(0) translate(4 157.5)">
<title>Sha256Class::hashBlock</title>
<polygon fill="#ffffff" stroke="transparent" points="-4,4 -4,-157.5 1301,-157.5 1301,4 -4,4"/>
<!-- Node19 -->
<g id="node1" class="node">
<title>Node19</title>
<polygon fill="#bfbfbf" stroke="#000000" points="0,-57.5 0,-76.5 127,-76.5 127,-57.5 0,-57.5"/>
<text text-anchor="middle" x="63.5" y="-64.5" font-family="Helvetica,sans-Serif" font-size="10.00" fill="#000000">Sha256Class::hashBlock</text>
</g>
<!-- Node20 -->
<g id="node2" class="node">
<title>Node20</title>
<g id="a_node2"><a xlink:href="classSha256Class.html#ab0b46743e3d59b1c68f52ed89dfaff50" target="_top" xlink:title="Sha256Class::addUncounted">
<polygon fill="#ffffff" stroke="#000000" points="163,-57.5 163,-76.5 307,-76.5 307,-57.5 163,-57.5"/>
<text text-anchor="middle" x="235" y="-64.5" font-family="Helvetica,sans-Serif" font-size="10.00" fill="#000000">Sha256Class::addUncounted</text>
</a>
</g>
</g>
<!-- Node19&#45;&gt;Node20 -->
<g id="edge1" class="edge">
<title>Node19&#45;&gt;Node20</title>
<path fill="none" stroke="#191970" d="M137.4728,-67C145.8434,-67 154.3666,-67 162.7152,-67"/>
<polygon fill="#191970" stroke="#191970" points="137.3603,-63.5001 127.3603,-67 137.3602,-70.5001 137.3603,-63.5001"/>
</g>
<!-- Node21 -->
<g id="node3" class="node">
<title>Node21</title>
<g id="a_node3"><a xlink:href="classSha256Class.html#a0f0fc4bd4d8c53d232df0d41d7ea25e0" target="_top" xlink:title="Sha256Class::write">
<polygon fill="#ffffff" stroke="#000000" points="477.5,-38.5 477.5,-57.5 579.5,-57.5 579.5,-38.5 477.5,-38.5"/>
<text text-anchor="middle" x="528.5" y="-45.5" font-family="Helvetica,sans-Serif" font-size="10.00" fill="#000000">Sha256Class::write</text>
</a>
</g>
</g>
<!-- Node20&#45;&gt;Node21 -->
<g id="edge2" class="edge">
<title>Node20&#45;&gt;Node21</title>
<path fill="none" stroke="#191970" d="M317.2671,-61.6744C368.6598,-58.3474 433.2228,-54.1679 477.3572,-51.3108"/>
<polygon fill="#191970" stroke="#191970" points="316.9271,-58.189 307.1741,-62.3277 317.3793,-65.1743 316.9271,-58.189"/>
</g>
<!-- Node32 -->
<g id="node14" class="node">
<title>Node32</title>
<g id="a_node14"><a xlink:href="classSha256Class.html#a82049dae520ccf0bd8478f2aef639149" target="_top" xlink:title="Sha256Class::pad">
<polygon fill="#ffffff" stroke="#000000" points="343,-76.5 343,-95.5 440,-95.5 440,-76.5 343,-76.5"/>
<text text-anchor="middle" x="391.5" y="-83.5" font-family="Helvetica,sans-Serif" font-size="10.00" fill="#000000">Sha256Class::pad</text>
</a>
</g>
</g>
<!-- Node20&#45;&gt;Node32 -->
<g id="edge19" class="edge">
<title>Node20&#45;&gt;Node32</title>
<path fill="none" stroke="#191970" d="M317.4503,-77.0099C326.0962,-78.0596 334.6735,-79.1009 342.7583,-80.0825"/>
<polygon fill="#191970" stroke="#191970" points="317.6436,-73.5078 307.2947,-75.777 316.7999,-80.4568 317.6436,-73.5078"/>
</g>
<!-- Node22 -->
<g id="node4" class="node">
<title>Node22</title>
<g id="a_node4"><a xlink:href="classSha256Class.html#a73d3dcea6eb667fd146d12aa5d106939" target="_top" xlink:title="Sha256Class::initHmac">
<polygon fill="#ffffff" stroke="#000000" points="622.5,-76.5 622.5,-95.5 742.5,-95.5 742.5,-76.5 622.5,-76.5"/>
<text text-anchor="middle" x="682.5" y="-83.5" font-family="Helvetica,sans-Serif" font-size="10.00" fill="#000000">Sha256Class::initHmac</text>
</a>
</g>
</g>
<!-- Node21&#45;&gt;Node22 -->
<g id="edge3" class="edge">
<title>Node21&#45;&gt;Node22</title>
<path fill="none" stroke="#191970" d="M577.2937,-60.04C598.8082,-65.3488 623.7318,-71.4988 643.9187,-76.4799"/>
<polygon fill="#191970" stroke="#191970" points="577.908,-56.5867 567.3607,-57.589 576.231,-63.3828 577.908,-56.5867"/>
</g>
<!-- Node30 -->
<g id="node12" class="node">
<title>Node30</title>
<g id="a_node12"><a xlink:href="classSha256Class.html#a7556f29cadf7eaca21a537df41318af3" target="_top" xlink:title="Sha256Class::resultHmac">
<polygon fill="#ffffff" stroke="#000000" points="617,-38.5 617,-57.5 748,-57.5 748,-38.5 617,-38.5"/>
<text text-anchor="middle" x="682.5" y="-45.5" font-family="Helvetica,sans-Serif" font-size="10.00" fill="#000000">Sha256Class::resultHmac</text>
</a>
</g>
</g>
<!-- Node21&#45;&gt;Node30 -->
<g id="edge13" class="edge">
<title>Node21&#45;&gt;Node30</title>
<path fill="none" stroke="#191970" d="M590.0102,-48C598.8617,-48 607.9981,-48 616.925,-48"/>
<polygon fill="#191970" stroke="#191970" points="589.7798,-44.5001 579.7798,-48 589.7797,-51.5001 589.7798,-44.5001"/>
</g>
<!-- Node31 -->
<g id="node13" class="node">
<title>Node31</title>
<g id="a_node13"><a xlink:href="group__TOOSIGNING__HASHING.html#gafb2935303b05255e80a7a6fa4be7cf57" target="_top" xlink:title="TooSigning_hash_data">
<polygon fill="#ffffff" stroke="#000000" points="624.5,-.5 624.5,-19.5 740.5,-19.5 740.5,-.5 624.5,-.5"/>
<text text-anchor="middle" x="682.5" y="-7.5" font-family="Helvetica,sans-Serif" font-size="10.00" fill="#000000">TooSigning_hash_data</text>
</a>
</g>
</g>
<!-- Node21&#45;&gt;Node31 -->
<g id="edge16" class="edge">
<title>Node21&#45;&gt;Node31</title>
<path fill="none" stroke="#191970" d="M577.2937,-35.96C598.8082,-30.6512 623.7318,-24.5012 643.9187,-19.5201"/>
<polygon fill="#191970" stroke="#191970" points="576.231,-32.6172 567.3607,-38.411 577.908,-39.4133 576.231,-32.6172"/>
</g>
<!-- Node23 -->
<g id="node5" class="node">
<title>Node23</title>
<g id="a_node5"><a xlink:href="TooNetworking_8h.html#a9f893c3218491ee86282fdcd9f376500" target="_top" xlink:title="TooNetworking_send\l_signed_">
<polygon fill="#ffffff" stroke="#000000" points="784.5,-64 784.5,-94 893.5,-94 893.5,-64 784.5,-64"/>
<text text-anchor="start" x="792.5" y="-82" font-family="Helvetica,sans-Serif" font-size="10.00" fill="#000000">TooNetworking_send</text>
<text text-anchor="middle" x="839" y="-71" font-family="Helvetica,sans-Serif" font-size="10.00" fill="#000000">_signed_</text>
</a>
</g>
</g>
<!-- Node22&#45;&gt;Node23 -->
<g id="edge4" class="edge">
<title>Node22&#45;&gt;Node23</title>
<path fill="none" stroke="#191970" d="M752.6943,-82.8603C763.3568,-82.3834 774.221,-81.8975 784.4836,-81.4384"/>
<polygon fill="#191970" stroke="#191970" points="752.393,-79.3702 742.5594,-83.3136 752.7058,-86.3632 752.393,-79.3702"/>
</g>
<!-- Node29 -->
<g id="node11" class="node">
<title>Node29</title>
<g id="a_node11"><a xlink:href="TooSigning_8cpp.html#a03df9fd005c518d1114f912ae7da9f06" target="_top" xlink:title="TooSigning_unsigned\l_network_available">
<polygon fill="#ffffff" stroke="#000000" points="784,-8 784,-38 894,-38 894,-8 784,-8"/>
<text text-anchor="start" x="792" y="-26" font-family="Helvetica,sans-Serif" font-size="10.00" fill="#000000">TooSigning_unsigned</text>
<text text-anchor="middle" x="839" y="-15" font-family="Helvetica,sans-Serif" font-size="10.00" fill="#000000">_network_available</text>
</a>
</g>
</g>
<!-- Node22&#45;&gt;Node29 -->
<g id="edge11" class="edge">
<title>Node22&#45;&gt;Node29</title>
<path fill="none" stroke="#191970" d="M729.4021,-73.4367C735.7092,-71.4447 742.0513,-69.2824 748,-67 769.6268,-58.7024 793.1451,-47.2635 810.8543,-38.1288"/>
<polygon fill="#191970" stroke="#191970" points="728.1325,-70.1644 719.5812,-76.4195 730.1668,-76.8623 728.1325,-70.1644"/>
</g>
<!-- Node24 -->
<g id="node6" class="node">
<title>Node24</title>
<g id="a_node6"><a xlink:href="TooNetworking_8h.html#a9209f3e1a2fdf0b3b88d49105b8fc359" target="_top" xlink:title="TooNetworking_send\l_signed">
<polygon fill="#ffffff" stroke="#000000" points="938,-30 938,-60 1047,-60 1047,-30 938,-30"/>
<text text-anchor="start" x="946" y="-48" font-family="Helvetica,sans-Serif" font-size="10.00" fill="#000000">TooNetworking_send</text>
<text text-anchor="middle" x="992.5" y="-37" font-family="Helvetica,sans-Serif" font-size="10.00" fill="#000000">_signed</text>
</a>
</g>
</g>
<!-- Node23&#45;&gt;Node24 -->
<g id="edge5" class="edge">
<title>Node23&#45;&gt;Node24</title>
<path fill="none" stroke="#191970" d="M903.4808,-64.7176C914.9202,-62.1838 926.7329,-59.5673 937.8666,-57.1012"/>
<polygon fill="#191970" stroke="#191970" points="902.557,-61.3373 893.5506,-66.9171 904.0709,-68.1717 902.557,-61.3373"/>
</g>
<!-- Node25 -->
<g id="node7" class="node">
<title>Node25</title>
<g id="a_node7"><a xlink:href="TooNetworking_8h.html#a085ff748b00f6be4ebafcae2bb0dded1" target="_top" xlink:title="TooNetworking_bufferlist\l_send_signed">
<polygon fill="#ffffff" stroke="#000000" points="1096,-123 1096,-153 1221,-153 1221,-123 1096,-123"/>
<text text-anchor="start" x="1104" y="-141" font-family="Helvetica,sans-Serif" font-size="10.00" fill="#000000">TooNetworking_bufferlist</text>
<text text-anchor="middle" x="1158.5" y="-130" font-family="Helvetica,sans-Serif" font-size="10.00" fill="#000000">_send_signed</text>
</a>
</g>
</g>
<!-- Node23&#45;&gt;Node25 -->
<g id="edge6" class="edge">
<title>Node23&#45;&gt;Node25</title>
<path fill="none" stroke="#191970" d="M875.9292,-98.5625C892.09,-106.2379 911.5426,-114.3156 930,-119 984.789,-132.9053 1049.1009,-137.2303 1095.5139,-138.3248"/>
<polygon fill="#191970" stroke="#191970" points="877.3486,-95.3607 866.8268,-94.1185 874.2775,-101.651 877.3486,-95.3607"/>
</g>
<!-- Node27 -->
<g id="node9" class="node">
<title>Node27</title>
<g id="a_node9"><a xlink:href="TooNetworking_8h.html#ab58e06e0eb6f2f8ecbebeaf3c173fb22" target="_top" xlink:title="TooNetworking_bufferlist\l_send_all">
<polygon fill="#ffffff" stroke="#000000" points="930,-79 930,-109 1055,-109 1055,-79 930,-79"/>
<text text-anchor="start" x="938" y="-97" font-family="Helvetica,sans-Serif" font-size="10.00" fill="#000000">TooNetworking_bufferlist</text>
<text text-anchor="middle" x="992.5" y="-86" font-family="Helvetica,sans-Serif" font-size="10.00" fill="#000000">_send_all</text>
</a>
</g>
</g>
<!-- Node23&#45;&gt;Node27 -->
<g id="edge8" class="edge">
<title>Node23&#45;&gt;Node27</title>
<path fill="none" stroke="#191970" d="M903.5908,-85.3118C912.2498,-86.158 921.1207,-87.0248 929.7474,-87.8678"/>
<polygon fill="#191970" stroke="#191970" points="903.8436,-81.8199 893.5506,-84.3307 903.1627,-88.7867 903.8436,-81.8199"/>
</g>
<!-- Node26 -->
<g id="node8" class="node">
<title>Node26</title>
<g id="a_node8"><a xlink:href="NODE__SKETCH__TooAutomation__Node_8ino_8cpp.html#a0b33edabd7f1c4e4a0bf32c67269be2f" target="_top" xlink:title="loop">
<polygon fill="#ffffff" stroke="#000000" points="1262,-103.5 1262,-122.5 1297,-122.5 1297,-103.5 1262,-103.5"/>
<text text-anchor="middle" x="1279.5" y="-110.5" font-family="Helvetica,sans-Serif" font-size="10.00" fill="#000000">loop</text>
</a>
</g>
</g>
<!-- Node25&#45;&gt;Node26 -->
<g id="edge7" class="edge">
<title>Node25&#45;&gt;Node26</title>
<path fill="none" stroke="#191970" d="M1231.2474,-122.9695C1242.636,-120.6165 1253.4203,-118.3884 1261.8934,-116.6377"/>
<polygon fill="#191970" stroke="#191970" points="1230.2115,-119.6096 1221.1266,-125.0606 1231.6279,-126.4648 1230.2115,-119.6096"/>
</g>
<!-- Node28 -->
<g id="node10" class="node">
<title>Node28</title>
<g id="a_node10"><a xlink:href="TooNetworking_8h.html#a7382ba1aed5405c3adc02011ea6c45dd" target="_top" xlink:title="TooNetworking_connection\l_maintenance">
<polygon fill="#ffffff" stroke="#000000" points="1091,-74 1091,-104 1226,-104 1226,-74 1091,-74"/>
<text text-anchor="start" x="1099" y="-92" font-family="Helvetica,sans-Serif" font-size="10.00" fill="#000000">TooNetworking_connection</text>
<text text-anchor="middle" x="1158.5" y="-81" font-family="Helvetica,sans-Serif" font-size="10.00" fill="#000000">_maintenance</text>
</a>
</g>
</g>
<!-- Node27&#45;&gt;Node28 -->
<g id="edge9" class="edge">
<title>Node27&#45;&gt;Node28</title>
<path fill="none" stroke="#191970" d="M1065.4873,-91.8016C1073.951,-91.5467 1082.5556,-91.2875 1090.9422,-91.0349"/>
<polygon fill="#191970" stroke="#191970" points="1065.1475,-88.3101 1055.2575,-92.1097 1065.3584,-95.307 1065.1475,-88.3101"/>
</g>
<!-- Node28&#45;&gt;Node26 -->
<g id="edge10" class="edge">
<title>Node28&#45;&gt;Node26</title>
<path fill="none" stroke="#191970" d="M1236.1566,-104.403C1245.6588,-106.2877 1254.5454,-108.0503 1261.7679,-109.4829"/>
<polygon fill="#191970" stroke="#191970" points="1236.5653,-100.9159 1226.0754,-102.4034 1235.2034,-107.7822 1236.5653,-100.9159"/>
</g>
<!-- Node29&#45;&gt;Node28 -->
<g id="edge12" class="edge">
<title>Node29&#45;&gt;Node28</title>
<path fill="none" stroke="#191970" d="M904.6231,-11.9072C948.1972,-6.9924 1006.1514,-5.2098 1055,-20 1089.7241,-30.5136 1123.4466,-56.9439 1142.5276,-73.8724"/>
<polygon fill="#191970" stroke="#191970" points="903.9386,-8.4645 894.4326,-13.1427 904.7812,-15.4136 903.9386,-8.4645"/>
</g>
<!-- Node30&#45;&gt;Node23 -->
<g id="edge14" class="edge">
<title>Node30&#45;&gt;Node23</title>
<path fill="none" stroke="#191970" d="M740.9028,-59.5686C755.1387,-62.3885 770.313,-65.3943 784.366,-68.1779"/>
<polygon fill="#191970" stroke="#191970" points="741.2217,-56.0638 730.7322,-57.554 739.8615,-62.9304 741.2217,-56.0638"/>
</g>
<!-- Node30&#45;&gt;Node29 -->
<g id="edge15" class="edge">
<title>Node30&#45;&gt;Node29</title>
<path fill="none" stroke="#191970" d="M752.2085,-36.8645C762.8339,-35.1671 773.6719,-33.4358 783.9263,-31.7977"/>
<polygon fill="#191970" stroke="#191970" points="751.4351,-33.4435 742.1124,-38.4773 752.5393,-40.3559 751.4351,-33.4435"/>
</g>
<!-- Node31&#45;&gt;Node23 -->
<g id="edge17" class="edge">
<title>Node31&#45;&gt;Node23</title>
<path fill="none" stroke="#191970" d="M730.6402,-22.6411C736.5555,-24.5807 742.4631,-26.7086 748,-29 760.7421,-34.2731 790.758,-51.1029 812.8487,-63.7919"/>
<polygon fill="#191970" stroke="#191970" points="731.3303,-19.1903 720.7419,-19.5591 729.2493,-25.8738 731.3303,-19.1903"/>
</g>
<!-- Node31&#45;&gt;Node29 -->
<g id="edge18" class="edge">
<title>Node31&#45;&gt;Node29</title>
<path fill="none" stroke="#191970" d="M750.8005,-15.6735C761.8273,-16.5895 773.122,-17.5277 783.7896,-18.4138"/>
<polygon fill="#191970" stroke="#191970" points="751.0303,-12.1806 740.7748,-14.8407 750.4507,-19.1566 751.0303,-12.1806"/>
</g>
<!-- Node33 -->
<g id="node15" class="node">
<title>Node33</title>
<g id="a_node15"><a xlink:href="classSha256Class.html#a0ca245a22f8b056a3d1902da3c64b705" target="_top" xlink:title="Sha256Class::result">
<polygon fill="#ffffff" stroke="#000000" points="476,-76.5 476,-95.5 581,-95.5 581,-76.5 476,-76.5"/>
<text text-anchor="middle" x="528.5" y="-83.5" font-family="Helvetica,sans-Serif" font-size="10.00" fill="#000000">Sha256Class::result</text>
</a>
</g>
</g>
<!-- Node32&#45;&gt;Node33 -->
<g id="edge20" class="edge">
<title>Node32&#45;&gt;Node33</title>
<path fill="none" stroke="#191970" d="M450.3612,-86C458.8127,-86 467.4639,-86 475.7863,-86"/>
<polygon fill="#191970" stroke="#191970" points="450.1869,-82.5001 440.1868,-86 450.1868,-89.5001 450.1869,-82.5001"/>
</g>
<!-- Node33&#45;&gt;Node22 -->
<g id="edge21" class="edge">
<title>Node33&#45;&gt;Node22</title>
<path fill="none" stroke="#191970" d="M591.2416,-86C601.5627,-86 612.2379,-86 622.4902,-86"/>
<polygon fill="#191970" stroke="#191970" points="591.0674,-82.5001 581.0673,-86 591.0673,-89.5001 591.0674,-82.5001"/>
</g>
<!-- Node33&#45;&gt;Node30 -->
<g id="edge22" class="edge">
<title>Node33&#45;&gt;Node30</title>
<path fill="none" stroke="#191970" d="M577.2937,-73.96C598.8082,-68.6512 623.7318,-62.5012 643.9187,-57.5201"/>
<polygon fill="#191970" stroke="#191970" points="576.231,-70.6172 567.3607,-76.411 577.908,-77.4133 576.231,-70.6172"/>
</g>
</g>
</svg>
