<?xml version="1.0" encoding="UTF-8" standalone="no"?>
<!DOCTYPE svg PUBLIC "-//W3C//DTD SVG 1.1//EN"
 "http://www.w3.org/Graphics/SVG/1.1/DTD/svg11.dtd">
<!-- Generated by graphviz version 2.40.1 (20161225.0304)
 -->
<!-- Title: Sha256Class::resultHmac Pages: 1 -->
<svg width="688pt" height="152pt"
 viewBox="0.00 0.00 688.00 152.00" xmlns="http://www.w3.org/2000/svg" xmlns:xlink="http://www.w3.org/1999/xlink">
<g id="graph0" class="graph" transform="scale(1 1) rotate(0) translate(4 148)">
<title>Sha256Class::resultHmac</title>
<polygon fill="#ffffff" stroke="transparent" points="-4,4 -4,-148 684,-148 684,4 -4,4"/>
<!-- Node99 -->
<g id="node1" class="node">
<title>Node99</title>
<polygon fill="#bfbfbf" stroke="#000000" points="0,-30 0,-49 131,-49 131,-30 0,-30"/>
<text text-anchor="middle" x="65.5" y="-37" font-family="Helvetica,sans-Serif" font-size="10.00" fill="#000000">Sha256Class::resultHmac</text>
</g>
<!-- Node100 -->
<g id="node2" class="node">
<title>Node100</title>
<g id="a_node2"><a xlink:href="TooNetworking_8h.html#a9f893c3218491ee86282fdcd9f376500" target="_top" xlink:title="TooNetworking_send\l_signed_">
<polygon fill="#ffffff" stroke="#000000" points="167.5,-59.5 167.5,-89.5 276.5,-89.5 276.5,-59.5 167.5,-59.5"/>
<text text-anchor="start" x="175.5" y="-77.5" font-family="Helvetica,sans-Serif" font-size="10.00" fill="#000000">TooNetworking_send</text>
<text text-anchor="middle" x="222" y="-66.5" font-family="Helvetica,sans-Serif" font-size="10.00" fill="#000000">_signed_</text>
</a>
</g>
</g>
<!-- Node99&#45;&gt;Node100 -->
<g id="edge1" class="edge">
<title>Node99&#45;&gt;Node100</title>
<path fill="none" stroke="#191970" d="M118.3537,-51.3203C134.091,-54.8398 151.3654,-58.7031 167.2227,-62.2495"/>
<polygon fill="#191970" stroke="#191970" points="118.7871,-47.8309 108.2643,-49.0639 117.2593,-54.6621 118.7871,-47.8309"/>
</g>
<!-- Node106 -->
<g id="node8" class="node">
<title>Node106</title>
<g id="a_node8"><a xlink:href="TooSigning_8cpp.html#a03df9fd005c518d1114f912ae7da9f06" target="_top" xlink:title="TooSigning_unsigned\l_network_available">
<polygon fill="#ffffff" stroke="#000000" points="167,-.5 167,-30.5 277,-30.5 277,-.5 167,-.5"/>
<text text-anchor="start" x="175" y="-18.5" font-family="Helvetica,sans-Serif" font-size="10.00" fill="#000000">TooSigning_unsigned</text>
<text text-anchor="middle" x="222" y="-7.5" font-family="Helvetica,sans-Serif" font-size="10.00" fill="#000000">_network_available</text>
</a>
</g>
</g>
<!-- Node99&#45;&gt;Node106 -->
<g id="edge8" class="edge">
<title>Node99&#45;&gt;Node106</title>
<path fill="none" stroke="#191970" d="M137.9193,-28.3942C147.6944,-26.8951 157.5915,-25.3773 166.9959,-23.9351"/>
<polygon fill="#191970" stroke="#191970" points="137.1565,-24.9701 127.8026,-29.9456 138.2176,-31.8893 137.1565,-24.9701"/>
</g>
<!-- Node101 -->
<g id="node3" class="node">
<title>Node101</title>
<g id="a_node3"><a xlink:href="TooNetworking_8h.html#a9209f3e1a2fdf0b3b88d49105b8fc359" target="_top" xlink:title="TooNetworking_send\l_signed">
<polygon fill="#ffffff" stroke="#000000" points="321,-113.5 321,-143.5 430,-143.5 430,-113.5 321,-113.5"/>
<text text-anchor="start" x="329" y="-131.5" font-family="Helvetica,sans-Serif" font-size="10.00" fill="#000000">TooNetworking_send</text>
<text text-anchor="middle" x="375.5" y="-120.5" font-family="Helvetica,sans-Serif" font-size="10.00" fill="#000000">_signed</text>
</a>
</g>
</g>
<!-- Node100&#45;&gt;Node101 -->
<g id="edge2" class="edge">
<title>Node100&#45;&gt;Node101</title>
<path fill="none" stroke="#191970" d="M274.1968,-92.8624C293.2517,-99.5657 314.5634,-107.063 332.705,-113.4451"/>
<polygon fill="#191970" stroke="#191970" points="275.3531,-89.559 264.7583,-89.542 273.0301,-96.1623 275.3531,-89.559"/>
</g>
<!-- Node102 -->
<g id="node4" class="node">
<title>Node102</title>
<g id="a_node4"><a xlink:href="TooNetworking_8h.html#a085ff748b00f6be4ebafcae2bb0dded1" target="_top" xlink:title="TooNetworking_bufferlist\l_send_signed">
<polygon fill="#ffffff" stroke="#000000" points="479,-69.5 479,-99.5 604,-99.5 604,-69.5 479,-69.5"/>
<text text-anchor="start" x="487" y="-87.5" font-family="Helvetica,sans-Serif" font-size="10.00" fill="#000000">TooNetworking_bufferlist</text>
<text text-anchor="middle" x="541.5" y="-76.5" font-family="Helvetica,sans-Serif" font-size="10.00" fill="#000000">_send_signed</text>
</a>
</g>
</g>
<!-- Node100&#45;&gt;Node102 -->
<g id="edge3" class="edge">
<title>Node100&#45;&gt;Node102</title>
<path fill="none" stroke="#191970" d="M286.7391,-76.5263C342.8409,-78.2822 423.4983,-80.8067 478.9493,-82.5422"/>
<polygon fill="#191970" stroke="#191970" points="286.6656,-73.0223 276.561,-76.2077 286.4466,-80.0189 286.6656,-73.0223"/>
</g>
<!-- Node104 -->
<g id="node6" class="node">
<title>Node104</title>
<g id="a_node6"><a xlink:href="TooNetworking_8h.html#ab58e06e0eb6f2f8ecbebeaf3c173fb22" target="_top" xlink:title="TooNetworking_bufferlist\l_send_all">
<polygon fill="#ffffff" stroke="#000000" points="313,-25.5 313,-55.5 438,-55.5 438,-25.5 313,-25.5"/>
<text text-anchor="start" x="321" y="-43.5" font-family="Helvetica,sans-Serif" font-size="10.00" fill="#000000">TooNetworking_bufferlist</text>
<text text-anchor="middle" x="375.5" y="-32.5" font-family="Helvetica,sans-Serif" font-size="10.00" fill="#000000">_send_all</text>
</a>
</g>
</g>
<!-- Node100&#45;&gt;Node104 -->
<g id="edge5" class="edge">
<title>Node100&#45;&gt;Node104</title>
<path fill="none" stroke="#191970" d="M286.5908,-60.1932C295.2498,-58.2753 304.1207,-56.3104 312.7474,-54.3996"/>
<polygon fill="#191970" stroke="#191970" points="285.557,-56.8373 276.5506,-62.4171 287.0709,-63.6717 285.557,-56.8373"/>
</g>
<!-- Node103 -->
<g id="node5" class="node">
<title>Node103</title>
<g id="a_node5"><a xlink:href="NODE__SKETCH__TooAutomation__Node_8ino_8cpp.html#a0b33edabd7f1c4e4a0bf32c67269be2f" target="_top" xlink:title="loop">
<polygon fill="#ffffff" stroke="#000000" points="645,-50 645,-69 680,-69 680,-50 645,-50"/>
<text text-anchor="middle" x="662.5" y="-57" font-family="Helvetica,sans-Serif" font-size="10.00" fill="#000000">loop</text>
</a>
</g>
</g>
<!-- Node102&#45;&gt;Node103 -->
<g id="edge4" class="edge">
<title>Node102&#45;&gt;Node103</title>
<path fill="none" stroke="#191970" d="M614.2474,-69.4695C625.636,-67.1165 636.4203,-64.8884 644.8934,-63.1377"/>
<polygon fill="#191970" stroke="#191970" points="613.2115,-66.1096 604.1266,-71.5606 614.6279,-72.9648 613.2115,-66.1096"/>
</g>
<!-- Node105 -->
<g id="node7" class="node">
<title>Node105</title>
<g id="a_node7"><a xlink:href="TooNetworking_8h.html#a7382ba1aed5405c3adc02011ea6c45dd" target="_top" xlink:title="TooNetworking_connection\l_maintenance">
<polygon fill="#ffffff" stroke="#000000" points="474,-20.5 474,-50.5 609,-50.5 609,-20.5 474,-20.5"/>
<text text-anchor="start" x="482" y="-38.5" font-family="Helvetica,sans-Serif" font-size="10.00" fill="#000000">TooNetworking_connection</text>
<text text-anchor="middle" x="541.5" y="-27.5" font-family="Helvetica,sans-Serif" font-size="10.00" fill="#000000">_maintenance</text>
</a>
</g>
</g>
<!-- Node104&#45;&gt;Node105 -->
<g id="edge6" class="edge">
<title>Node104&#45;&gt;Node105</title>
<path fill="none" stroke="#191970" d="M448.4873,-38.3016C456.951,-38.0467 465.5556,-37.7875 473.9422,-37.5349"/>
<polygon fill="#191970" stroke="#191970" points="448.1475,-34.8101 438.2575,-38.6097 448.3584,-41.807 448.1475,-34.8101"/>
</g>
<!-- Node105&#45;&gt;Node103 -->
<g id="edge7" class="edge">
<title>Node105&#45;&gt;Node103</title>
<path fill="none" stroke="#191970" d="M619.1566,-50.903C628.6588,-52.7877 637.5454,-54.5503 644.7679,-55.9829"/>
<polygon fill="#191970" stroke="#191970" points="619.5653,-47.4159 609.0754,-48.9034 618.2034,-54.2822 619.5653,-47.4159"/>
</g>
<!-- Node106&#45;&gt;Node105 -->
<g id="edge9" class="edge">
<title>Node106&#45;&gt;Node105</title>
<path fill="none" stroke="#191970" d="M287.218,-12.2715C330.1543,-10.9401 387.5442,-10.6697 438,-15.5 449.6594,-16.6162 461.9579,-18.4243 473.8472,-20.5086"/>
<polygon fill="#191970" stroke="#191970" points="287.0575,-8.7748 277.1812,-12.61 287.2936,-15.7708 287.0575,-8.7748"/>
</g>
</g>
</svg>
