<?xml version="1.0" encoding="UTF-8" standalone="no"?>
<!DOCTYPE svg PUBLIC "-//W3C//DTD SVG 1.1//EN"
 "http://www.w3.org/Graphics/SVG/1.1/DTD/svg11.dtd">
<!-- Generated by graphviz version 2.40.1 (20161225.0304)
 -->
<!-- Title: Sha256Class::result Pages: 1 -->
<!--zoomable 154 -->
<svg id="main" version="1.1" xmlns="http://www.w3.org/2000/svg" xmlns:xlink="http://www.w3.org/1999/xlink" xml:space="preserve" onload="init(evt)">
<style type="text/css"><![CDATA[
.edge:hover path { stroke: red; }
.edge:hover polygon { stroke: red; fill: red; }
]]></style>
<script type="text/javascript"><![CDATA[
var edges = document.getElementsByTagName('g');
if (edges && edges.length) {
  for (var i=0;i<edges.length;i++) {
    if (edges[i].id.substr(0,4)=='edge') {
      edges[i].setAttribute('class','edge');
    }
  }
}
]]></script>
        <defs>
                <circle id="rim" cx="0" cy="0" r="7"/>
                <circle id="rim2" cx="0" cy="0" r="3.5"/>
                <g id="zoomPlus">
                        <use xlink:href="#rim" fill="#404040">
                                <set attributeName="fill" to="#808080" begin="zoomplus.mouseover" end="zoomplus.mouseout"/>
                        </use>
                        <path d="M-4,0h8M0,-4v8" fill="none" stroke="white" stroke-width="1.5" pointer-events="none"/>
                </g>
                <g id="zoomMin">
                        <use xlink:href="#rim" fill="#404040">
                                <set attributeName="fill" to="#808080" begin="zoomminus.mouseover" end="zoomminus.mouseout"/>
                        </use>
                        <path d="M-4,0h8" fill="none" stroke="white" stroke-width="1.5" pointer-events="none"/>
                </g>
                <g id="dirArrow">
                        <path fill="none" stroke="white" stroke-width="1.5" d="M0,-3.0v7 M-2.5,-0.5L0,-3.0L2.5,-0.5"/>
                </g>
               <g id="resetDef">
                       <use xlink:href="#rim2" fill="#404040">
                               <set attributeName="fill" to="#808080" begin="reset.mouseover" end="reset.mouseout"/>
                       </use>
               </g>
        </defs>

<script type="text/javascript">
var viewWidth = 829;
var viewHeight = 154;
var sectionId = 'dynsection-11';
</script>
<script xlink:href="svgpan.js"/>
<svg id="graph" class="graph">
<g id="viewport">
<title>Sha256Class::result</title>
<polygon fill="#ffffff" stroke="transparent" points="-4,4 -4,-150 825,-150 825,4 -4,4"/>
<!-- Node81 -->
<g id="node1" class="node">
<title>Node81</title>
<polygon fill="#bfbfbf" stroke="#000000" points="0,-30 0,-49 105,-49 105,-30 0,-30"/>
<text text-anchor="middle" x="52.5" y="-37" font-family="Helvetica,sans-Serif" font-size="10.00" fill="#000000">Sha256Class::result</text>
</g>
<!-- Node82 -->
<g id="node2" class="node">
<title>Node82</title>
<g id="a_node2"><a xlink:href="classSha256Class.html#a73d3dcea6eb667fd146d12aa5d106939" target="_top" xlink:title="Sha256Class::initHmac">
<polygon fill="#ffffff" stroke="#000000" points="146.5,-49 146.5,-68 266.5,-68 266.5,-49 146.5,-49"/>
<text text-anchor="middle" x="206.5" y="-56" font-family="Helvetica,sans-Serif" font-size="10.00" fill="#000000">Sha256Class::initHmac</text>
</a>
</g>
</g>
<!-- Node81&#45;&gt;Node82 -->
<g id="edge1" class="edge">
<title>Node81&#45;&gt;Node82</title>
<path fill="none" stroke="#191970" d="M115.2416,-47.2408C125.5627,-48.5142 136.2379,-49.8313 146.4902,-51.0962"/>
<polygon fill="#191970" stroke="#191970" points="115.4207,-43.7365 105.0673,-45.9856 114.5635,-50.6838 115.4207,-43.7365"/>
</g>
<!-- Node90 -->
<g id="node10" class="node">
<title>Node90</title>
<g id="a_node10"><a xlink:href="classSha256Class.html#a7556f29cadf7eaca21a537df41318af3" target="_top" xlink:title="Sha256Class::resultHmac">
<polygon fill="#ffffff" stroke="#000000" points="141,-11 141,-30 272,-30 272,-11 141,-11"/>
<text text-anchor="middle" x="206.5" y="-18" font-family="Helvetica,sans-Serif" font-size="10.00" fill="#000000">Sha256Class::resultHmac</text>
</a>
</g>
</g>
<!-- Node81&#45;&gt;Node90 -->
<g id="edge11" class="edge">
<title>Node81&#45;&gt;Node90</title>
<path fill="none" stroke="#191970" d="M115.2163,-31.7623C123.6565,-30.721 132.334,-29.6504 140.8237,-28.6029"/>
<polygon fill="#191970" stroke="#191970" points="114.5635,-28.3162 105.0673,-33.0144 115.4207,-35.2635 114.5635,-28.3162"/>
</g>
<!-- Node83 -->
<g id="node3" class="node">
<title>Node83</title>
<g id="a_node3"><a xlink:href="TooNetworking_8h.html#a9f893c3218491ee86282fdcd9f376500" target="_top" xlink:title="TooNetworking_send\l_signed_">
<polygon fill="#ffffff" stroke="#000000" points="308.5,-49.5 308.5,-79.5 417.5,-79.5 417.5,-49.5 308.5,-49.5"/>
<text text-anchor="start" x="316.5" y="-67.5" font-family="Helvetica,sans-Serif" font-size="10.00" fill="#000000">TooNetworking_send</text>
<text text-anchor="middle" x="363" y="-56.5" font-family="Helvetica,sans-Serif" font-size="10.00" fill="#000000">_signed_</text>
</a>
</g>
</g>
<!-- Node82&#45;&gt;Node83 -->
<g id="edge2" class="edge">
<title>Node82&#45;&gt;Node83</title>
<path fill="none" stroke="#191970" d="M276.6943,-61.1912C287.3568,-61.5999 298.221,-62.0165 308.4836,-62.4099"/>
<polygon fill="#191970" stroke="#191970" points="276.6862,-57.6884 266.5594,-60.8026 276.4179,-64.6832 276.6862,-57.6884"/>
</g>
<!-- Node89 -->
<g id="node9" class="node">
<title>Node89</title>
<g id="a_node9"><a xlink:href="TooSigning_8cpp.html#a03df9fd005c518d1114f912ae7da9f06" target="_top" xlink:title="TooSigning_unsigned\l_network_available">
<polygon fill="#ffffff" stroke="#000000" points="308,-.5 308,-30.5 418,-30.5 418,-.5 308,-.5"/>
<text text-anchor="start" x="316" y="-18.5" font-family="Helvetica,sans-Serif" font-size="10.00" fill="#000000">TooSigning_unsigned</text>
<text text-anchor="middle" x="363" y="-7.5" font-family="Helvetica,sans-Serif" font-size="10.00" fill="#000000">_network_available</text>
</a>
</g>
</g>
<!-- Node82&#45;&gt;Node89 -->
<g id="edge9" class="edge">
<title>Node82&#45;&gt;Node89</title>
<path fill="none" stroke="#191970" d="M251.3392,-46.18C269.1228,-41.2937 289.741,-35.6287 308.3841,-30.5063"/>
<polygon fill="#191970" stroke="#191970" points="249.9477,-42.9325 241.2324,-48.9569 251.8024,-49.6823 249.9477,-42.9325"/>
</g>
<!-- Node84 -->
<g id="node4" class="node">
<title>Node84</title>
<g id="a_node4"><a xlink:href="TooNetworking_8h.html#a9209f3e1a2fdf0b3b88d49105b8fc359" target="_top" xlink:title="TooNetworking_send\l_signed">
<polygon fill="#ffffff" stroke="#000000" points="462,-22.5 462,-52.5 571,-52.5 571,-22.5 462,-22.5"/>
<text text-anchor="start" x="470" y="-40.5" font-family="Helvetica,sans-Serif" font-size="10.00" fill="#000000">TooNetworking_send</text>
<text text-anchor="middle" x="516.5" y="-29.5" font-family="Helvetica,sans-Serif" font-size="10.00" fill="#000000">_signed</text>
</a>
</g>
</g>
<!-- Node83&#45;&gt;Node84 -->
<g id="edge3" class="edge">
<title>Node83&#45;&gt;Node84</title>
<path fill="none" stroke="#191970" d="M427.4808,-53.1581C438.9202,-51.146 450.7329,-49.0682 461.8666,-47.1098"/>
<polygon fill="#191970" stroke="#191970" points="426.793,-49.7253 417.5506,-54.9048 428.0057,-56.6194 426.793,-49.7253"/>
</g>
<!-- Node85 -->
<g id="node5" class="node">
<title>Node85</title>
<g id="a_node5"><a xlink:href="TooNetworking_8h.html#a085ff748b00f6be4ebafcae2bb0dded1" target="_top" xlink:title="TooNetworking_bufferlist\l_send_signed">
<polygon fill="#ffffff" stroke="#000000" points="620,-115.5 620,-145.5 745,-145.5 745,-115.5 620,-115.5"/>
<text text-anchor="start" x="628" y="-133.5" font-family="Helvetica,sans-Serif" font-size="10.00" fill="#000000">TooNetworking_bufferlist</text>
<text text-anchor="middle" x="682.5" y="-122.5" font-family="Helvetica,sans-Serif" font-size="10.00" fill="#000000">_send_signed</text>
</a>
</g>
</g>
<!-- Node83&#45;&gt;Node85 -->
<g id="edge4" class="edge">
<title>Node83&#45;&gt;Node85</title>
<path fill="none" stroke="#191970" d="M394.7682,-84.8468C411.6836,-94.6426 433.2361,-105.5325 454,-111.5 508.5182,-127.1683 573.1428,-131.2805 619.7301,-131.847"/>
<polygon fill="#191970" stroke="#191970" points="396.265,-81.6646 385.8822,-79.5555 392.6836,-87.6791 396.265,-81.6646"/>
</g>
<!-- Node87 -->
<g id="node7" class="node">
<title>Node87</title>
<g id="a_node7"><a xlink:href="TooNetworking_8h.html#ab58e06e0eb6f2f8ecbebeaf3c173fb22" target="_top" xlink:title="TooNetworking_bufferlist\l_send_all">
<polygon fill="#ffffff" stroke="#000000" points="454,-71.5 454,-101.5 579,-101.5 579,-71.5 454,-71.5"/>
<text text-anchor="start" x="462" y="-89.5" font-family="Helvetica,sans-Serif" font-size="10.00" fill="#000000">TooNetworking_bufferlist</text>
<text text-anchor="middle" x="516.5" y="-78.5" font-family="Helvetica,sans-Serif" font-size="10.00" fill="#000000">_send_all</text>
</a>
</g>
</g>
<!-- Node83&#45;&gt;Node87 -->
<g id="edge6" class="edge">
<title>Node83&#45;&gt;Node87</title>
<path fill="none" stroke="#191970" d="M427.5908,-73.7573C436.2498,-74.9983 445.1207,-76.2697 453.7474,-77.5061"/>
<polygon fill="#191970" stroke="#191970" points="427.946,-70.2725 417.5506,-72.3183 426.9528,-77.2017 427.946,-70.2725"/>
</g>
<!-- Node86 -->
<g id="node6" class="node">
<title>Node86</title>
<g id="a_node6"><a xlink:href="NODE__SKETCH__TooAutomation__Node_8ino_8cpp.html#a0b33edabd7f1c4e4a0bf32c67269be2f" target="_top" xlink:title="loop">
<polygon fill="#ffffff" stroke="#000000" points="786,-96 786,-115 821,-115 821,-96 786,-96"/>
<text text-anchor="middle" x="803.5" y="-103" font-family="Helvetica,sans-Serif" font-size="10.00" fill="#000000">loop</text>
</a>
</g>
</g>
<!-- Node85&#45;&gt;Node86 -->
<g id="edge5" class="edge">
<title>Node85&#45;&gt;Node86</title>
<path fill="none" stroke="#191970" d="M755.2474,-115.4695C766.636,-113.1165 777.4203,-110.8884 785.8934,-109.1377"/>
<polygon fill="#191970" stroke="#191970" points="754.2115,-112.1096 745.1266,-117.5606 755.6279,-118.9648 754.2115,-112.1096"/>
</g>
<!-- Node88 -->
<g id="node8" class="node">
<title>Node88</title>
<g id="a_node8"><a xlink:href="TooNetworking_8h.html#a7382ba1aed5405c3adc02011ea6c45dd" target="_top" xlink:title="TooNetworking_connection\l_maintenance">
<polygon fill="#ffffff" stroke="#000000" points="615,-66.5 615,-96.5 750,-96.5 750,-66.5 615,-66.5"/>
<text text-anchor="start" x="623" y="-84.5" font-family="Helvetica,sans-Serif" font-size="10.00" fill="#000000">TooNetworking_connection</text>
<text text-anchor="middle" x="682.5" y="-73.5" font-family="Helvetica,sans-Serif" font-size="10.00" fill="#000000">_maintenance</text>
</a>
</g>
</g>
<!-- Node87&#45;&gt;Node88 -->
<g id="edge7" class="edge">
<title>Node87&#45;&gt;Node88</title>
<path fill="none" stroke="#191970" d="M589.4873,-84.3016C597.951,-84.0467 606.5556,-83.7875 614.9422,-83.5349"/>
<polygon fill="#191970" stroke="#191970" points="589.1475,-80.8101 579.2575,-84.6097 589.3584,-87.807 589.1475,-80.8101"/>
</g>
<!-- Node88&#45;&gt;Node86 -->
<g id="edge8" class="edge">
<title>Node88&#45;&gt;Node86</title>
<path fill="none" stroke="#191970" d="M760.1566,-96.903C769.6588,-98.7877 778.5454,-100.5503 785.7679,-101.9829"/>
<polygon fill="#191970" stroke="#191970" points="760.5653,-93.4159 750.0754,-94.9034 759.2034,-100.2822 760.5653,-93.4159"/>
</g>
<!-- Node89&#45;&gt;Node88 -->
<g id="edge10" class="edge">
<title>Node89&#45;&gt;Node88</title>
<path fill="none" stroke="#191970" d="M428.6231,-4.4072C472.1972,.5076 530.1514,2.2902 579,-12.5 613.7241,-23.0136 647.4466,-49.4439 666.5276,-66.3724"/>
<polygon fill="#191970" stroke="#191970" points="427.9386,-.9645 418.4326,-5.6427 428.7812,-7.9136 427.9386,-.9645"/>
</g>
<!-- Node90&#45;&gt;Node83 -->
<g id="edge12" class="edge">
<title>Node90&#45;&gt;Node83</title>
<path fill="none" stroke="#191970" d="M250.2907,-32.8118C268.6355,-37.9694 290.1377,-44.0148 309.4152,-49.4346"/>
<polygon fill="#191970" stroke="#191970" points="251.0323,-29.3846 240.4582,-30.0473 249.1376,-36.1233 251.0323,-29.3846"/>
</g>
<!-- Node90&#45;&gt;Node89 -->
<g id="edge13" class="edge">
<title>Node90&#45;&gt;Node89</title>
<path fill="none" stroke="#191970" d="M282.6267,-18.0678C291.0319,-17.7993 299.4698,-17.5297 307.5521,-17.2715"/>
<polygon fill="#191970" stroke="#191970" points="282.2996,-14.5764 272.4165,-18.394 282.5232,-21.5728 282.2996,-14.5764"/>
</g>
</g>
</svg>
        <g id="navigator" transform="translate(0 0)" fill="#404254">
                <rect fill="#f2f5e9" fill-opacity="0.5" stroke="#606060" stroke-width=".5" x="0" y="0" width="60" height="60"/>
                <use id="zoomplus" xlink:href="#zoomPlus" x="17" y="9" onmousedown="handleZoom(evt,'in')"/>
                <use id="zoomminus" xlink:href="#zoomMin" x="42" y="9" onmousedown="handleZoom(evt,'out')"/>
                <use id="reset" xlink:href="#resetDef" x="30" y="36" onmousedown="handleReset()"/>
                <g id="arrowUp" xlink:href="#dirArrow" transform="translate(30 24)" onmousedown="handlePan(0,-1)">
                  <use xlink:href="#rim" fill="#404040">
                        <set attributeName="fill" to="#808080" begin="arrowUp.mouseover" end="arrowUp.mouseout"/>
                  </use>
                  <path fill="none" stroke="white" stroke-width="1.5" d="M0,-3.0v7 M-2.5,-0.5L0,-3.0L2.5,-0.5"/>
                </g>
                <g id="arrowRight" xlink:href="#dirArrow" transform="rotate(90) translate(36 -43)" onmousedown="handlePan(1,0)">
                  <use xlink:href="#rim" fill="#404040">
                        <set attributeName="fill" to="#808080" begin="arrowRight.mouseover" end="arrowRight.mouseout"/>
                  </use>
                  <path fill="none" stroke="white" stroke-width="1.5" d="M0,-3.0v7 M-2.5,-0.5L0,-3.0L2.5,-0.5"/>
                </g>
                <g id="arrowDown" xlink:href="#dirArrow" transform="rotate(180) translate(-30 -48)" onmousedown="handlePan(0,1)">
                  <use xlink:href="#rim" fill="#404040">
                        <set attributeName="fill" to="#808080" begin="arrowDown.mouseover" end="arrowDown.mouseout"/>
                  </use>
                  <path fill="none" stroke="white" stroke-width="1.5" d="M0,-3.0v7 M-2.5,-0.5L0,-3.0L2.5,-0.5"/>
                </g>
                <g id="arrowLeft" xlink:href="#dirArrow" transform="rotate(270) translate(-36 17)" onmousedown="handlePan(-1,0)">
                  <use xlink:href="#rim" fill="#404040">
                        <set attributeName="fill" to="#808080" begin="arrowLeft.mouseover" end="arrowLeft.mouseout"/>
                  </use>
                  <path fill="none" stroke="white" stroke-width="1.5" d="M0,-3.0v7 M-2.5,-0.5L0,-3.0L2.5,-0.5"/>
                </g>
        </g>
        <svg viewBox="0 0 15 15" width="100%" height="30px" preserveAspectRatio="xMaxYMin meet">
         <g id="arrow_out" transform="scale(0.3 0.3)">
          <a xlink:href="classSha256Class_a0ca245a22f8b056a3d1902da3c64b705_icgraph_org.svg" target="_base">
           <rect id="button" ry="5" rx="5" y="6" x="6" height="38" width="38"
                fill="#f2f5e9" fill-opacity="0.5" stroke="#606060" stroke-width="1.0"/>
           <path id="arrow"
             d="M 11.500037,31.436501 C 11.940474,20.09759 22.043105,11.32322 32.158766,21.979434 L 37.068811,17.246167 C 37.068811,17.246167 37.088388,32 37.088388,32 L 22.160133,31.978069 C 22.160133,31.978069 26.997745,27.140456 26.997745,27.140456 C 18.528582,18.264221 13.291696,25.230495 11.500037,31.436501 z"
             style="fill:#404040;"/>
          </a>
         </g>
        </svg>
</svg>
