<?xml version="1.0" encoding="UTF-8" standalone="no"?>
<!DOCTYPE svg PUBLIC "-//W3C//DTD SVG 1.1//EN"
 "http://www.w3.org/Graphics/SVG/1.1/DTD/svg11.dtd">
<!-- Generated by graphviz version 2.40.1 (20161225.0304)
 -->
<!-- Title: Sha256Class::addUncounted Pages: 1 -->
<!--zoomable 182 -->
<svg id="main" version="1.1" xmlns="http://www.w3.org/2000/svg" xmlns:xlink="http://www.w3.org/1999/xlink" xml:space="preserve" onload="init(evt)">
<style type="text/css"><![CDATA[
.edge:hover path { stroke: red; }
.edge:hover polygon { stroke: red; fill: red; }
]]></style>
<script type="text/javascript"><![CDATA[
var edges = document.getElementsByTagName('g');
if (edges && edges.length) {
  for (var i=0;i<edges.length;i++) {
    if (edges[i].id.substr(0,4)=='edge') {
      edges[i].setAttribute('class','edge');
    }
  }
}
]]></script>
        <defs>
                <circle id="rim" cx="0" cy="0" r="7"/>
                <circle id="rim2" cx="0" cy="0" r="3.5"/>
                <g id="zoomPlus">
                        <use xlink:href="#rim" fill="#404040">
                                <set attributeName="fill" to="#808080" begin="zoomplus.mouseover" end="zoomplus.mouseout"/>
                        </use>
                        <path d="M-4,0h8M0,-4v8" fill="none" stroke="white" stroke-width="1.5" pointer-events="none"/>
                </g>
                <g id="zoomMin">
                        <use xlink:href="#rim" fill="#404040">
                                <set attributeName="fill" to="#808080" begin="zoomminus.mouseover" end="zoomminus.mouseout"/>
                        </use>
                        <path d="M-4,0h8" fill="none" stroke="white" stroke-width="1.5" pointer-events="none"/>
                </g>
                <g id="dirArrow">
                        <path fill="none" stroke="white" stroke-width="1.5" d="M0,-3.0v7 M-2.5,-0.5L0,-3.0L2.5,-0.5"/>
                </g>
               <g id="resetDef">
                       <use xlink:href="#rim2" fill="#404040">
                               <set attributeName="fill" to="#808080" begin="reset.mouseover" end="reset.mouseout"/>
                       </use>
               </g>
        </defs>

<script type="text/javascript">
var viewWidth = 1327;
var viewHeight = 182;
var sectionId = 'dynsection-2';
</script>
<script xlink:href="svgpan.js"/>
<svg id="graph" class="graph">
<g id="viewport">
<title>Sha256Class::addUncounted</title>
<polygon fill="#ffffff" stroke="transparent" points="-4,4 -4,-178.2243 1323,-178.2243 1323,4 -4,4"/>
<!-- Node3 -->
<g id="node1" class="node">
<title>Node3</title>
<polygon fill="#bfbfbf" stroke="#000000" points="0,-86 0,-105 144,-105 144,-86 0,-86"/>
<text text-anchor="middle" x="72" y="-93" font-family="Helvetica,sans-Serif" font-size="10.00" fill="#000000">Sha256Class::addUncounted</text>
</g>
<!-- Node4 -->
<g id="node2" class="node">
<title>Node4</title>
<g id="a_node2"><a xlink:href="classSha256Class.html#a0f0fc4bd4d8c53d232df0d41d7ea25e0" target="_top" xlink:title="Sha256Class::write">
<polygon fill="#ffffff" stroke="#000000" points="314.5,-105 314.5,-124 416.5,-124 416.5,-105 314.5,-105"/>
<text text-anchor="middle" x="365.5" y="-112" font-family="Helvetica,sans-Serif" font-size="10.00" fill="#000000">Sha256Class::write</text>
</a>
</g>
</g>
<!-- Node3&#45;&gt;Node4 -->
<g id="edge1" class="edge">
<title>Node3&#45;&gt;Node4</title>
<path fill="none" stroke="#191970" d="M154.2671,-100.8256C205.6598,-104.1526 270.2228,-108.3321 314.3572,-111.1892"/>
<polygon fill="#191970" stroke="#191970" points="154.3793,-97.3257 144.1741,-100.1723 153.9271,-104.311 154.3793,-97.3257"/>
</g>
<!-- Node18 -->
<g id="node16" class="node">
<title>Node18</title>
<g id="a_node16"><a xlink:href="classSha256Class.html#a82049dae520ccf0bd8478f2aef639149" target="_top" xlink:title="Sha256Class::pad">
<polygon fill="#ffffff" stroke="#000000" points="180,-67 180,-86 277,-86 277,-67 180,-67"/>
<text text-anchor="middle" x="228.5" y="-74" font-family="Helvetica,sans-Serif" font-size="10.00" fill="#000000">Sha256Class::pad</text>
</a>
</g>
</g>
<!-- Node3&#45;&gt;Node18 -->
<g id="edge22" class="edge">
<title>Node3&#45;&gt;Node18</title>
<path fill="none" stroke="#191970" d="M154.4503,-85.4901C163.0962,-84.4404 171.6735,-83.3991 179.7583,-82.4175"/>
<polygon fill="#191970" stroke="#191970" points="153.7999,-82.0432 144.2947,-86.723 154.6436,-88.9922 153.7999,-82.0432"/>
</g>
<!-- Node5 -->
<g id="node3" class="node">
<title>Node5</title>
<g id="a_node3"><a xlink:href="classSha256Class.html#a73d3dcea6eb667fd146d12aa5d106939" target="_top" xlink:title="Sha256Class::initHmac">
<polygon fill="#ffffff" stroke="#000000" points="459.5,-67 459.5,-86 579.5,-86 579.5,-67 459.5,-67"/>
<text text-anchor="middle" x="519.5" y="-74" font-family="Helvetica,sans-Serif" font-size="10.00" fill="#000000">Sha256Class::initHmac</text>
</a>
</g>
</g>
<!-- Node4&#45;&gt;Node5 -->
<g id="edge2" class="edge">
<title>Node4&#45;&gt;Node5</title>
<path fill="none" stroke="#191970" d="M414.2937,-102.46C435.8082,-97.1512 460.7318,-91.0012 480.9187,-86.0201"/>
<polygon fill="#191970" stroke="#191970" points="413.231,-99.1172 404.3607,-104.911 414.908,-105.9133 413.231,-99.1172"/>
</g>
<!-- Node15 -->
<g id="node13" class="node">
<title>Node15</title>
<g id="a_node13"><a xlink:href="classSha256Class.html#a7556f29cadf7eaca21a537df41318af3" target="_top" xlink:title="Sha256Class::resultHmac">
<polygon fill="#ffffff" stroke="#000000" points="454,-105 454,-124 585,-124 585,-105 454,-105"/>
<text text-anchor="middle" x="519.5" y="-112" font-family="Helvetica,sans-Serif" font-size="10.00" fill="#000000">Sha256Class::resultHmac</text>
</a>
</g>
</g>
<!-- Node4&#45;&gt;Node15 -->
<g id="edge15" class="edge">
<title>Node4&#45;&gt;Node15</title>
<path fill="none" stroke="#191970" d="M427.0102,-114.5C435.8617,-114.5 444.9981,-114.5 453.925,-114.5"/>
<polygon fill="#191970" stroke="#191970" points="426.7798,-111.0001 416.7798,-114.5 426.7797,-118.0001 426.7798,-111.0001"/>
</g>
<!-- Node17 -->
<g id="node15" class="node">
<title>Node17</title>
<g id="a_node15"><a xlink:href="group__TOOSIGNING__HASHING.html#gafb2935303b05255e80a7a6fa4be7cf57" target="_top" xlink:title="TooSigning_hash_data">
<polygon fill="#ffffff" stroke="#000000" points="461.5,-143 461.5,-162 577.5,-162 577.5,-143 461.5,-143"/>
<text text-anchor="middle" x="519.5" y="-150" font-family="Helvetica,sans-Serif" font-size="10.00" fill="#000000">TooSigning_hash_data</text>
</a>
</g>
</g>
<!-- Node4&#45;&gt;Node17 -->
<g id="edge19" class="edge">
<title>Node4&#45;&gt;Node17</title>
<path fill="none" stroke="#191970" d="M414.2937,-126.54C435.8082,-131.8488 460.7318,-137.9988 480.9187,-142.9799"/>
<polygon fill="#191970" stroke="#191970" points="414.908,-123.0867 404.3607,-124.089 413.231,-129.8828 414.908,-123.0867"/>
</g>
<!-- Node6 -->
<g id="node4" class="node">
<title>Node6</title>
<g id="a_node4"><a xlink:href="TooSigning_8h.html#a1e2cd2b37702263e1fe166395350bf08" target="_top" xlink:title="TooSigning_init_hmac">
<polygon fill="#ffffff" stroke="#000000" points="621,-42 621,-61 734,-61 734,-42 621,-42"/>
<text text-anchor="middle" x="677.5" y="-49" font-family="Helvetica,sans-Serif" font-size="10.00" fill="#000000">TooSigning_init_hmac</text>
</a>
</g>
</g>
<!-- Node5&#45;&gt;Node6 -->
<g id="edge3" class="edge">
<title>Node5&#45;&gt;Node6</title>
<path fill="none" stroke="#191970" d="M589.6179,-65.4054C600.0719,-63.7513 610.736,-62.0639 620.8655,-60.4612"/>
<polygon fill="#191970" stroke="#191970" points="589.0139,-61.9573 579.6838,-66.9773 590.1079,-68.8713 589.0139,-61.9573"/>
</g>
<!-- Node13 -->
<g id="node11" class="node">
<title>Node13</title>
<g id="a_node11"><a xlink:href="TooSigning_8cpp.html#a03df9fd005c518d1114f912ae7da9f06" target="_top" xlink:title="TooSigning_unsigned\l_network_available">
<polygon fill="#ffffff" stroke="#000000" points="622.5,-118.5 622.5,-148.5 732.5,-148.5 732.5,-118.5 622.5,-118.5"/>
<text text-anchor="start" x="630.5" y="-136.5" font-family="Helvetica,sans-Serif" font-size="10.00" fill="#000000">TooSigning_unsigned</text>
<text text-anchor="middle" x="677.5" y="-125.5" font-family="Helvetica,sans-Serif" font-size="10.00" fill="#000000">_network_available</text>
</a>
</g>
</g>
<!-- Node5&#45;&gt;Node13 -->
<g id="edge12" class="edge">
<title>Node5&#45;&gt;Node13</title>
<path fill="none" stroke="#191970" d="M564.8792,-88.9753C571.6612,-91.0383 578.5412,-93.2439 585,-95.5 604.5043,-102.313 625.8631,-111.0031 643.1377,-118.353"/>
<polygon fill="#191970" stroke="#191970" points="565.6557,-85.555 555.0732,-86.0656 563.6644,-92.2658 565.6557,-85.555"/>
</g>
<!-- Node7 -->
<g id="node5" class="node">
<title>Node7</title>
<g id="a_node5"><a xlink:href="TooNetworking_8h.html#a9f893c3218491ee86282fdcd9f376500" target="_top" xlink:title="TooNetworking_send\l_signed_">
<polygon fill="#ffffff" stroke="#000000" points="783,-63.5 783,-93.5 892,-93.5 892,-63.5 783,-63.5"/>
<text text-anchor="start" x="791" y="-81.5" font-family="Helvetica,sans-Serif" font-size="10.00" fill="#000000">TooNetworking_send</text>
<text text-anchor="middle" x="837.5" y="-70.5" font-family="Helvetica,sans-Serif" font-size="10.00" fill="#000000">_signed_</text>
</a>
</g>
</g>
<!-- Node6&#45;&gt;Node7 -->
<g id="edge4" class="edge">
<title>Node6&#45;&gt;Node7</title>
<path fill="none" stroke="#191970" d="M744.1435,-62.7461C757.065,-64.9266 770.465,-67.1878 782.9431,-69.2935"/>
<polygon fill="#191970" stroke="#191970" points="744.353,-59.232 733.91,-61.0192 743.1882,-66.1345 744.353,-59.232"/>
</g>
<!-- Node8 -->
<g id="node6" class="node">
<title>Node8</title>
<g id="a_node6"><a xlink:href="TooNetworking_8h.html#a59be7e774988f57ab43c4c078c570c67" target="_top" xlink:title="TooNetworking_bufferlist_add">
<polygon fill="#ffffff" stroke="#000000" points="941,-25 941,-44 1087,-44 1087,-25 941,-25"/>
<text text-anchor="middle" x="1014" y="-32" font-family="Helvetica,sans-Serif" font-size="10.00" fill="#000000">TooNetworking_bufferlist_add</text>
</a>
</g>
</g>
<!-- Node7&#45;&gt;Node8 -->
<g id="edge5" class="edge">
<title>Node7&#45;&gt;Node8</title>
<path fill="none" stroke="#191970" d="M902.3869,-62.3242C927.0156,-56.1845 954.2602,-49.3926 975.6664,-44.0562"/>
<polygon fill="#191970" stroke="#191970" points="901.2346,-59.0043 892.3782,-64.8193 902.9279,-65.7964 901.2346,-59.0043"/>
</g>
<!-- Node9 -->
<g id="node7" class="node">
<title>Node9</title>
<g id="a_node7"><a xlink:href="TooNetworking_8h.html#a9209f3e1a2fdf0b3b88d49105b8fc359" target="_top" xlink:title="TooNetworking_send\l_signed">
<polygon fill="#ffffff" stroke="#000000" points="1131,-.5 1131,-30.5 1240,-30.5 1240,-.5 1131,-.5"/>
<text text-anchor="start" x="1139" y="-18.5" font-family="Helvetica,sans-Serif" font-size="10.00" fill="#000000">TooNetworking_send</text>
<text text-anchor="middle" x="1185.5" y="-7.5" font-family="Helvetica,sans-Serif" font-size="10.00" fill="#000000">_signed</text>
</a>
</g>
</g>
<!-- Node7&#45;&gt;Node9 -->
<g id="edge9" class="edge">
<title>Node7&#45;&gt;Node9</title>
<path fill="none" stroke="#191970" d="M863.4215,-57.1417C883.287,-42.2298 912.112,-23.6007 941,-15.5 1004.3507,2.2645 1080.6195,-1.4827 1130.9395,-7.2046"/>
<polygon fill="#191970" stroke="#191970" points="861.2643,-54.3853 855.4822,-63.2633 865.5386,-59.9288 861.2643,-54.3853"/>
</g>
<!-- Node10 -->
<g id="node8" class="node">
<title>Node10</title>
<g id="a_node8"><a xlink:href="TooNetworking_8h.html#a085ff748b00f6be4ebafcae2bb0dded1" target="_top" xlink:title="TooNetworking_bufferlist\l_send_signed">
<polygon fill="#ffffff" stroke="#000000" points="1123,-101.5 1123,-131.5 1248,-131.5 1248,-101.5 1123,-101.5"/>
<text text-anchor="start" x="1131" y="-119.5" font-family="Helvetica,sans-Serif" font-size="10.00" fill="#000000">TooNetworking_bufferlist</text>
<text text-anchor="middle" x="1185.5" y="-108.5" font-family="Helvetica,sans-Serif" font-size="10.00" fill="#000000">_send_signed</text>
</a>
</g>
</g>
<!-- Node7&#45;&gt;Node10 -->
<g id="edge10" class="edge">
<title>Node7&#45;&gt;Node10</title>
<path fill="none" stroke="#191970" d="M901.4495,-95.8859C914.4532,-98.872 928.1003,-101.6155 941,-103.5 1002.4097,-112.4713 1073.2991,-115.438 1122.8816,-116.3312"/>
<polygon fill="#191970" stroke="#191970" points="902.1915,-92.4648 891.6539,-93.5652 900.5777,-99.2763 902.1915,-92.4648"/>
</g>
<!-- Node12 -->
<g id="node10" class="node">
<title>Node12</title>
<g id="a_node10"><a xlink:href="TooNetworking_8h.html#ab58e06e0eb6f2f8ecbebeaf3c173fb22" target="_top" xlink:title="TooNetworking_bufferlist\l_send_all">
<polygon fill="#ffffff" stroke="#000000" points="951.5,-63.5 951.5,-93.5 1076.5,-93.5 1076.5,-63.5 951.5,-63.5"/>
<text text-anchor="start" x="959.5" y="-81.5" font-family="Helvetica,sans-Serif" font-size="10.00" fill="#000000">TooNetworking_bufferlist</text>
<text text-anchor="middle" x="1014" y="-70.5" font-family="Helvetica,sans-Serif" font-size="10.00" fill="#000000">_send_all</text>
</a>
</g>
</g>
<!-- Node7&#45;&gt;Node12 -->
<g id="edge11" class="edge">
<title>Node7&#45;&gt;Node12</title>
<path fill="none" stroke="#191970" d="M902.6736,-78.5C918.6138,-78.5 935.6343,-78.5 951.4486,-78.5"/>
<polygon fill="#191970" stroke="#191970" points="902.3782,-75.0001 892.3782,-78.5 902.3782,-82.0001 902.3782,-75.0001"/>
</g>
<!-- Node8&#45;&gt;Node9 -->
<g id="edge6" class="edge">
<title>Node8&#45;&gt;Node9</title>
<path fill="none" stroke="#191970" d="M1097.2478,-25.2772C1108.6894,-24.0096 1120.1905,-22.7355 1130.9353,-21.5451"/>
<polygon fill="#191970" stroke="#191970" points="1096.7827,-21.8072 1087.2289,-26.3872 1097.5535,-28.7647 1096.7827,-21.8072"/>
</g>
<!-- Node8&#45;&gt;Node10 -->
<g id="edge7" class="edge">
<title>Node8&#45;&gt;Node10</title>
<path fill="none" stroke="#191970" d="M1067.1151,-47.0651C1073.9153,-49.2495 1080.6969,-51.726 1087,-54.5 1115.8513,-67.1977 1146.1168,-87.443 1165.3594,-101.3222"/>
<polygon fill="#191970" stroke="#191970" points="1067.7771,-43.6091 1057.1925,-44.073 1065.7562,-50.3111 1067.7771,-43.6091"/>
</g>
<!-- Node11 -->
<g id="node9" class="node">
<title>Node11</title>
<g id="a_node9"><a xlink:href="NODE__SKETCH__TooAutomation__Node_8ino_8cpp.html#a0b33edabd7f1c4e4a0bf32c67269be2f" target="_top" xlink:title="loop">
<polygon fill="#ffffff" stroke="#000000" points="1284,-129 1284,-148 1319,-148 1319,-129 1284,-129"/>
<text text-anchor="middle" x="1301.5" y="-136" font-family="Helvetica,sans-Serif" font-size="10.00" fill="#000000">loop</text>
</a>
</g>
</g>
<!-- Node10&#45;&gt;Node11 -->
<g id="edge8" class="edge">
<title>Node10&#45;&gt;Node11</title>
<path fill="none" stroke="#191970" d="M1258.2178,-130.2913C1267.6312,-132.0766 1276.4907,-133.7569 1283.7123,-135.1265"/>
<polygon fill="#191970" stroke="#191970" points="1258.7301,-126.8262 1248.2531,-128.4014 1257.4257,-133.7036 1258.7301,-126.8262"/>
</g>
<!-- Node14 -->
<g id="node12" class="node">
<title>Node14</title>
<g id="a_node12"><a xlink:href="TooNetworking_8h.html#a7382ba1aed5405c3adc02011ea6c45dd" target="_top" xlink:title="TooNetworking_connection\l_maintenance">
<polygon fill="#ffffff" stroke="#000000" points="770,-128.5 770,-158.5 905,-158.5 905,-128.5 770,-128.5"/>
<text text-anchor="start" x="778" y="-146.5" font-family="Helvetica,sans-Serif" font-size="10.00" fill="#000000">TooNetworking_connection</text>
<text text-anchor="middle" x="837.5" y="-135.5" font-family="Helvetica,sans-Serif" font-size="10.00" fill="#000000">_maintenance</text>
</a>
</g>
</g>
<!-- Node13&#45;&gt;Node14 -->
<g id="edge13" class="edge">
<title>Node13&#45;&gt;Node14</title>
<path fill="none" stroke="#191970" d="M742.587,-137.5679C751.5862,-138.1304 760.8465,-138.7092 769.8902,-139.2744"/>
<polygon fill="#191970" stroke="#191970" points="742.7618,-134.0721 732.5629,-136.9414 742.3251,-141.0585 742.7618,-134.0721"/>
</g>
<!-- Node14&#45;&gt;Node11 -->
<g id="edge14" class="edge">
<title>Node14&#45;&gt;Node11</title>
<path fill="none" stroke="#191970" d="M915.1278,-144.303C997.6888,-144.8805 1132.0908,-145.0298 1248,-141.5 1259.902,-141.1375 1273.277,-140.3875 1283.6765,-139.7282"/>
<polygon fill="#191970" stroke="#191970" points="915.0984,-140.8028 905.0728,-144.2287 915.0466,-147.8026 915.0984,-140.8028"/>
</g>
<!-- Node15&#45;&gt;Node13 -->
<g id="edge18" class="edge">
<title>Node15&#45;&gt;Node13</title>
<path fill="none" stroke="#191970" d="M595.0697,-123.5875C604.2707,-124.6939 613.534,-125.8079 622.3589,-126.8691"/>
<polygon fill="#191970" stroke="#191970" points="595.48,-120.1117 585.1336,-122.3926 594.6442,-127.0616 595.48,-120.1117"/>
</g>
<!-- Node16 -->
<g id="node14" class="node">
<title>Node16</title>
<g id="a_node14"><a xlink:href="TooSigning_8h.html#ab8a2415b95a77c91ffbc6ebbde622f64" target="_top" xlink:title="TooSigning_get_hmac">
<polygon fill="#ffffff" stroke="#000000" points="621,-80 621,-99 734,-99 734,-80 621,-80"/>
<text text-anchor="middle" x="677.5" y="-87" font-family="Helvetica,sans-Serif" font-size="10.00" fill="#000000">TooSigning_get_hmac</text>
</a>
</g>
</g>
<!-- Node15&#45;&gt;Node16 -->
<g id="edge16" class="edge">
<title>Node15&#45;&gt;Node16</title>
<path fill="none" stroke="#191970" d="M589.6179,-103.4054C600.0719,-101.7513 610.736,-100.0639 620.8655,-98.4612"/>
<polygon fill="#191970" stroke="#191970" points="589.0139,-99.9573 579.6838,-104.9773 590.1079,-106.8713 589.0139,-99.9573"/>
</g>
<!-- Node16&#45;&gt;Node7 -->
<g id="edge17" class="edge">
<title>Node16&#45;&gt;Node7</title>
<path fill="none" stroke="#191970" d="M744.5144,-84.8928C757.33,-84.0117 770.6024,-83.0992 782.9684,-82.249"/>
<polygon fill="#191970" stroke="#191970" points="744.0969,-81.4131 734.3605,-85.5908 744.5771,-88.3966 744.0969,-81.4131"/>
</g>
<!-- Node17&#45;&gt;Node7 -->
<g id="edge20" class="edge">
<title>Node17&#45;&gt;Node7</title>
<path fill="none" stroke="#191970" d="M563.5262,-164.3107C608.4152,-173.985 679.0693,-182.5504 734,-158.5 755.6087,-149.039 751.7413,-134.4354 770,-119.5 781.8864,-109.7771 796.2921,-100.7141 808.7376,-93.5945"/>
<polygon fill="#191970" stroke="#191970" points="564.0512,-160.841 553.525,-162.0447 562.5043,-167.668 564.0512,-160.841"/>
</g>
<!-- Node17&#45;&gt;Node13 -->
<g id="edge21" class="edge">
<title>Node17&#45;&gt;Node13</title>
<path fill="none" stroke="#191970" d="M587.8716,-144.2781C599.3541,-142.8973 611.1417,-141.4798 622.2401,-140.1452"/>
<polygon fill="#191970" stroke="#191970" points="587.395,-140.8101 577.8845,-145.4791 588.2308,-147.76 587.395,-140.8101"/>
</g>
<!-- Node19 -->
<g id="node17" class="node">
<title>Node19</title>
<g id="a_node17"><a xlink:href="classSha256Class.html#a0ca245a22f8b056a3d1902da3c64b705" target="_top" xlink:title="Sha256Class::result">
<polygon fill="#ffffff" stroke="#000000" points="313,-67 313,-86 418,-86 418,-67 313,-67"/>
<text text-anchor="middle" x="365.5" y="-74" font-family="Helvetica,sans-Serif" font-size="10.00" fill="#000000">Sha256Class::result</text>
</a>
</g>
</g>
<!-- Node18&#45;&gt;Node19 -->
<g id="edge23" class="edge">
<title>Node18&#45;&gt;Node19</title>
<path fill="none" stroke="#191970" d="M287.3612,-76.5C295.8127,-76.5 304.4639,-76.5 312.7863,-76.5"/>
<polygon fill="#191970" stroke="#191970" points="287.1869,-73.0001 277.1868,-76.5 287.1868,-80.0001 287.1869,-73.0001"/>
</g>
<!-- Node19&#45;&gt;Node5 -->
<g id="edge24" class="edge">
<title>Node19&#45;&gt;Node5</title>
<path fill="none" stroke="#191970" d="M428.2416,-76.5C438.5627,-76.5 449.2379,-76.5 459.4902,-76.5"/>
<polygon fill="#191970" stroke="#191970" points="428.0674,-73.0001 418.0673,-76.5 428.0673,-80.0001 428.0674,-73.0001"/>
</g>
<!-- Node19&#45;&gt;Node15 -->
<g id="edge25" class="edge">
<title>Node19&#45;&gt;Node15</title>
<path fill="none" stroke="#191970" d="M414.2937,-88.54C435.8082,-93.8488 460.7318,-99.9988 480.9187,-104.9799"/>
<polygon fill="#191970" stroke="#191970" points="414.908,-85.0867 404.3607,-86.089 413.231,-91.8828 414.908,-85.0867"/>
</g>
</g>
</svg>
        <g id="navigator" transform="translate(0 0)" fill="#404254">
                <rect fill="#f2f5e9" fill-opacity="0.5" stroke="#606060" stroke-width=".5" x="0" y="0" width="60" height="60"/>
                <use id="zoomplus" xlink:href="#zoomPlus" x="17" y="9" onmousedown="handleZoom(evt,'in')"/>
                <use id="zoomminus" xlink:href="#zoomMin" x="42" y="9" onmousedown="handleZoom(evt,'out')"/>
                <use id="reset" xlink:href="#resetDef" x="30" y="36" onmousedown="handleReset()"/>
                <g id="arrowUp" xlink:href="#dirArrow" transform="translate(30 24)" onmousedown="handlePan(0,-1)">
                  <use xlink:href="#rim" fill="#404040">
                        <set attributeName="fill" to="#808080" begin="arrowUp.mouseover" end="arrowUp.mouseout"/>
                  </use>
                  <path fill="none" stroke="white" stroke-width="1.5" d="M0,-3.0v7 M-2.5,-0.5L0,-3.0L2.5,-0.5"/>
                </g>
                <g id="arrowRight" xlink:href="#dirArrow" transform="rotate(90) translate(36 -43)" onmousedown="handlePan(1,0)">
                  <use xlink:href="#rim" fill="#404040">
                        <set attributeName="fill" to="#808080" begin="arrowRight.mouseover" end="arrowRight.mouseout"/>
                  </use>
                  <path fill="none" stroke="white" stroke-width="1.5" d="M0,-3.0v7 M-2.5,-0.5L0,-3.0L2.5,-0.5"/>
                </g>
                <g id="arrowDown" xlink:href="#dirArrow" transform="rotate(180) translate(-30 -48)" onmousedown="handlePan(0,1)">
                  <use xlink:href="#rim" fill="#404040">
                        <set attributeName="fill" to="#808080" begin="arrowDown.mouseover" end="arrowDown.mouseout"/>
                  </use>
                  <path fill="none" stroke="white" stroke-width="1.5" d="M0,-3.0v7 M-2.5,-0.5L0,-3.0L2.5,-0.5"/>
                </g>
                <g id="arrowLeft" xlink:href="#dirArrow" transform="rotate(270) translate(-36 17)" onmousedown="handlePan(-1,0)">
                  <use xlink:href="#rim" fill="#404040">
                        <set attributeName="fill" to="#808080" begin="arrowLeft.mouseover" end="arrowLeft.mouseout"/>
                  </use>
                  <path fill="none" stroke="white" stroke-width="1.5" d="M0,-3.0v7 M-2.5,-0.5L0,-3.0L2.5,-0.5"/>
                </g>
        </g>
        <svg viewBox="0 0 15 15" width="100%" height="30px" preserveAspectRatio="xMaxYMin meet">
         <g id="arrow_out" transform="scale(0.3 0.3)">
          <a xlink:href="classSha256Class_ab0b46743e3d59b1c68f52ed89dfaff50_icgraph_org.svg" target="_base">
           <rect id="button" ry="5" rx="5" y="6" x="6" height="38" width="38"
                fill="#f2f5e9" fill-opacity="0.5" stroke="#606060" stroke-width="1.0"/>
           <path id="arrow"
             d="M 11.500037,31.436501 C 11.940474,20.09759 22.043105,11.32322 32.158766,21.979434 L 37.068811,17.246167 C 37.068811,17.246167 37.088388,32 37.088388,32 L 22.160133,31.978069 C 22.160133,31.978069 26.997745,27.140456 26.997745,27.140456 C 18.528582,18.264221 13.291696,25.230495 11.500037,31.436501 z"
             style="fill:#404040;"/>
          </a>
         </g>
        </svg>
</svg>
