<?xml version="1.0" encoding="UTF-8" standalone="no"?>
<!DOCTYPE svg PUBLIC "-//W3C//DTD SVG 1.1//EN"
 "http://www.w3.org/Graphics/SVG/1.1/DTD/svg11.dtd">
<!-- Generated by graphviz version 2.40.1 (20161225.0304)
 -->
<!-- Title: ATSHA204Class::getSerialNumber Pages: 1 -->
<!--zoomable 288 -->
<svg id="main" version="1.1" xmlns="http://www.w3.org/2000/svg" xmlns:xlink="http://www.w3.org/1999/xlink" xml:space="preserve" onload="init(evt)">
<style type="text/css"><![CDATA[
.edge:hover path { stroke: red; }
.edge:hover polygon { stroke: red; fill: red; }
]]></style>
<script type="text/javascript"><![CDATA[
var edges = document.getElementsByTagName('g');
if (edges && edges.length) {
  for (var i=0;i<edges.length;i++) {
    if (edges[i].id.substr(0,4)=='edge') {
      edges[i].setAttribute('class','edge');
    }
  }
}
]]></script>
        <defs>
                <circle id="rim" cx="0" cy="0" r="7"/>
                <circle id="rim2" cx="0" cy="0" r="3.5"/>
                <g id="zoomPlus">
                        <use xlink:href="#rim" fill="#404040">
                                <set attributeName="fill" to="#808080" begin="zoomplus.mouseover" end="zoomplus.mouseout"/>
                        </use>
                        <path d="M-4,0h8M0,-4v8" fill="none" stroke="white" stroke-width="1.5" pointer-events="none"/>
                </g>
                <g id="zoomMin">
                        <use xlink:href="#rim" fill="#404040">
                                <set attributeName="fill" to="#808080" begin="zoomminus.mouseover" end="zoomminus.mouseout"/>
                        </use>
                        <path d="M-4,0h8" fill="none" stroke="white" stroke-width="1.5" pointer-events="none"/>
                </g>
                <g id="dirArrow">
                        <path fill="none" stroke="white" stroke-width="1.5" d="M0,-3.0v7 M-2.5,-0.5L0,-3.0L2.5,-0.5"/>
                </g>
               <g id="resetDef">
                       <use xlink:href="#rim2" fill="#404040">
                               <set attributeName="fill" to="#808080" begin="reset.mouseover" end="reset.mouseout"/>
                       </use>
               </g>
        </defs>

<script type="text/javascript">
var viewWidth = 1319;
var viewHeight = 288;
var sectionId = 'dynsection-0';
</script>
<script xlink:href="svgpan.js"/>
<svg id="graph" class="graph">
<g id="viewport">
<title>ATSHA204Class::getSerialNumber</title>
<polygon fill="#ffffff" stroke="transparent" points="-4,4 -4,-284.1855 1315,-284.1855 1315,4 -4,4"/>
<!-- Node2 -->
<g id="node1" class="node">
<title>Node2</title>
<polygon fill="#bfbfbf" stroke="#000000" points="0,-161.5 0,-191.5 136,-191.5 136,-161.5 0,-161.5"/>
<text text-anchor="start" x="8" y="-179.5" font-family="Helvetica,sans-Serif" font-size="10.00" fill="#000000">ATSHA204Class::getSerial</text>
<text text-anchor="middle" x="68" y="-168.5" font-family="Helvetica,sans-Serif" font-size="10.00" fill="#000000">Number</text>
</g>
<!-- Node3 -->
<g id="node2" class="node">
<title>Node3</title>
<g id="a_node2"><a xlink:href="classATSHA204Class.html#a6bcaa1359ac7392ed066641323fe8d5d" target="_top" xlink:title="ATSHA204Class::sha204m_read">
<polygon fill="#ffffff" stroke="#000000" points="172,-167 172,-186 333,-186 333,-167 172,-167"/>
<text text-anchor="middle" x="252.5" y="-174" font-family="Helvetica,sans-Serif" font-size="10.00" fill="#000000">ATSHA204Class::sha204m_read</text>
</a>
</g>
</g>
<!-- Node2&#45;&gt;Node3 -->
<g id="edge1" class="edge">
<title>Node2&#45;&gt;Node3</title>
<path fill="none" stroke="#191970" d="M136.1768,-176.5C144.514,-176.5 153.1332,-176.5 161.7352,-176.5"/>
<polygon fill="#191970" stroke="#191970" points="161.8074,-180.0001 171.8073,-176.5 161.8073,-173.0001 161.8074,-180.0001"/>
</g>
<!-- Node4 -->
<g id="node3" class="node">
<title>Node4</title>
<g id="a_node3"><a xlink:href="classATSHA204Class.html#a3689222ad46022e5c50ba484053d9b2c" target="_top" xlink:title="ATSHA204Class::sha204c\l_send_and_receive">
<polygon fill="#ffffff" stroke="#000000" points="369,-161.5 369,-191.5 503,-191.5 503,-161.5 369,-161.5"/>
<text text-anchor="start" x="377" y="-179.5" font-family="Helvetica,sans-Serif" font-size="10.00" fill="#000000">ATSHA204Class::sha204c</text>
<text text-anchor="middle" x="436" y="-168.5" font-family="Helvetica,sans-Serif" font-size="10.00" fill="#000000">_send_and_receive</text>
</a>
</g>
</g>
<!-- Node3&#45;&gt;Node4 -->
<g id="edge2" class="edge">
<title>Node3&#45;&gt;Node4</title>
<path fill="none" stroke="#191970" d="M333.2528,-176.5C341.7294,-176.5 350.333,-176.5 358.7686,-176.5"/>
<polygon fill="#191970" stroke="#191970" points="358.9551,-180.0001 368.9551,-176.5 358.9551,-173.0001 358.9551,-180.0001"/>
</g>
<!-- Node5 -->
<g id="node4" class="node">
<title>Node5</title>
<g id="a_node4"><a xlink:href="classATSHA204Class.html#a42b8beceec64c89148a9bb49b26f0fb1" target="_top" xlink:title="ATSHA204Class::sha204c\l_calculate_crc">
<polygon fill="#ffffff" stroke="#000000" points="709,-246.5 709,-276.5 843,-276.5 843,-246.5 709,-246.5"/>
<text text-anchor="start" x="717" y="-264.5" font-family="Helvetica,sans-Serif" font-size="10.00" fill="#000000">ATSHA204Class::sha204c</text>
<text text-anchor="middle" x="776" y="-253.5" font-family="Helvetica,sans-Serif" font-size="10.00" fill="#000000">_calculate_crc</text>
</a>
</g>
</g>
<!-- Node4&#45;&gt;Node5 -->
<g id="edge3" class="edge">
<title>Node4&#45;&gt;Node5</title>
<path fill="none" stroke="#191970" d="M447.6297,-191.6389C464.8828,-212.7085 499.5032,-249.9251 539,-264.5 589.998,-283.319 651.4729,-281.9168 699.0319,-276.1517"/>
<polygon fill="#191970" stroke="#191970" points="699.4952,-279.621 708.9605,-274.8609 698.5927,-272.6794 699.4952,-279.621"/>
</g>
<!-- Node6 -->
<g id="node5" class="node">
<title>Node6</title>
<g id="a_node5"><a xlink:href="classATSHA204Class.html#abe55ac783f1a37777bd09b7fc369ebc9" target="_top" xlink:title="ATSHA204Class::swi\l_send_byte">
<polygon fill="#ffffff" stroke="#000000" points="1049,-117.5 1049,-147.5 1162,-147.5 1162,-117.5 1049,-117.5"/>
<text text-anchor="start" x="1057" y="-135.5" font-family="Helvetica,sans-Serif" font-size="10.00" fill="#000000">ATSHA204Class::swi</text>
<text text-anchor="middle" x="1105.5" y="-124.5" font-family="Helvetica,sans-Serif" font-size="10.00" fill="#000000">_send_byte</text>
</a>
</g>
</g>
<!-- Node4&#45;&gt;Node6 -->
<g id="edge4" class="edge">
<title>Node4&#45;&gt;Node6</title>
<path fill="none" stroke="#191970" d="M503.2596,-172.0797C631.7541,-163.6349 910.7213,-145.301 1038.7875,-136.8844"/>
<polygon fill="#191970" stroke="#191970" points="1039.1051,-140.3712 1048.854,-136.2228 1038.646,-133.3862 1039.1051,-140.3712"/>
</g>
<!-- Node7 -->
<g id="node6" class="node">
<title>Node7</title>
<g id="a_node6"><a xlink:href="classATSHA204Class.html#a0f8c2167d152bbe670d1b1187d7b2897" target="_top" xlink:title="ATSHA204Class::swi\l_send_bytes">
<polygon fill="#ffffff" stroke="#000000" points="1198,-158.5 1198,-188.5 1311,-188.5 1311,-158.5 1198,-158.5"/>
<text text-anchor="start" x="1206" y="-176.5" font-family="Helvetica,sans-Serif" font-size="10.00" fill="#000000">ATSHA204Class::swi</text>
<text text-anchor="middle" x="1254.5" y="-165.5" font-family="Helvetica,sans-Serif" font-size="10.00" fill="#000000">_send_bytes</text>
</a>
</g>
</g>
<!-- Node4&#45;&gt;Node7 -->
<g id="edge6" class="edge">
<title>Node4&#45;&gt;Node7</title>
<path fill="none" stroke="#191970" d="M503.0305,-182.4596C571.5612,-188.0317 681.1126,-195.5 776,-195.5 776,-195.5 776,-195.5 946,-195.5 1029.4161,-195.5 1125.1988,-187.3983 1187.6203,-181.0279"/>
<polygon fill="#191970" stroke="#191970" points="1188.1408,-184.4928 1197.7273,-179.9817 1187.4201,-177.53 1188.1408,-184.4928"/>
</g>
<!-- Node8 -->
<g id="node7" class="node">
<title>Node8</title>
<g id="a_node7"><a xlink:href="classATSHA204Class.html#a0d8eab6a8af231835dd5b6734df0d670" target="_top" xlink:title="ATSHA204Class::sha204c\l_resync">
<polygon fill="#ffffff" stroke="#000000" points="539,-76.5 539,-106.5 673,-106.5 673,-76.5 539,-76.5"/>
<text text-anchor="start" x="547" y="-94.5" font-family="Helvetica,sans-Serif" font-size="10.00" fill="#000000">ATSHA204Class::sha204c</text>
<text text-anchor="middle" x="606" y="-83.5" font-family="Helvetica,sans-Serif" font-size="10.00" fill="#000000">_resync</text>
</a>
</g>
</g>
<!-- Node4&#45;&gt;Node8 -->
<g id="edge7" class="edge">
<title>Node4&#45;&gt;Node8</title>
<path fill="none" stroke="#191970" d="M466.0013,-161.4994C493.9895,-147.5053 535.9197,-126.5402 566.5958,-111.2021"/>
<polygon fill="#191970" stroke="#191970" points="568.3478,-114.2393 575.7268,-106.6366 565.2173,-107.9783 568.3478,-114.2393"/>
</g>
<!-- Node9 -->
<g id="node8" class="node">
<title>Node9</title>
<g id="a_node8"><a xlink:href="classATSHA204Class.html#ae5c777e2388de999d13afef7008a36a7" target="_top" xlink:title="ATSHA204Class::sha204p\l_receive_response">
<polygon fill="#ffffff" stroke="#000000" points="879,-.5 879,-30.5 1013,-30.5 1013,-.5 879,-.5"/>
<text text-anchor="start" x="887" y="-18.5" font-family="Helvetica,sans-Serif" font-size="10.00" fill="#000000">ATSHA204Class::sha204p</text>
<text text-anchor="middle" x="946" y="-7.5" font-family="Helvetica,sans-Serif" font-size="10.00" fill="#000000">_receive_response</text>
</a>
</g>
</g>
<!-- Node4&#45;&gt;Node9 -->
<g id="edge16" class="edge">
<title>Node4&#45;&gt;Node9</title>
<path fill="none" stroke="#191970" d="M446.1669,-161.4245C462.8151,-137.8916 498.1557,-92.5346 539,-67.5 640.2135,-5.4633 782.1284,-2.1598 868.8608,-7.4107"/>
<polygon fill="#191970" stroke="#191970" points="868.6891,-10.9068 878.8975,-8.0715 869.1491,-3.922 868.6891,-10.9068"/>
</g>
<!-- Node14 -->
<g id="node13" class="node">
<title>Node14</title>
<g id="a_node13"><a xlink:href="classATSHA204Class.html#a30b1fad66d47a88848ebc6d74b66ec97" target="_top" xlink:title="ATSHA204Class::sha204c\l_check_crc">
<polygon fill="#ffffff" stroke="#000000" points="539,-224.5 539,-254.5 673,-254.5 673,-224.5 539,-224.5"/>
<text text-anchor="start" x="547" y="-242.5" font-family="Helvetica,sans-Serif" font-size="10.00" fill="#000000">ATSHA204Class::sha204c</text>
<text text-anchor="middle" x="606" y="-231.5" font-family="Helvetica,sans-Serif" font-size="10.00" fill="#000000">_check_crc</text>
</a>
</g>
</g>
<!-- Node4&#45;&gt;Node14 -->
<g id="edge17" class="edge">
<title>Node4&#45;&gt;Node14</title>
<path fill="none" stroke="#191970" d="M476.7192,-191.5901C500.4978,-200.4021 530.6909,-211.5913 555.9174,-220.94"/>
<polygon fill="#191970" stroke="#191970" points="554.7257,-224.2309 565.3188,-224.424 557.1582,-217.6671 554.7257,-224.2309"/>
</g>
<!-- Node6&#45;&gt;Node7 -->
<g id="edge5" class="edge">
<title>Node6&#45;&gt;Node7</title>
<path fill="none" stroke="#191970" d="M1160.136,-147.5341C1169.8536,-150.208 1180.0575,-153.0158 1190.0181,-155.7567"/>
<polygon fill="#191970" stroke="#191970" points="1189.3003,-159.1892 1199.8706,-158.4677 1191.1575,-152.44 1189.3003,-159.1892"/>
</g>
<!-- Node8&#45;&gt;Node9 -->
<g id="edge8" class="edge">
<title>Node8&#45;&gt;Node9</title>
<path fill="none" stroke="#191970" d="M633.5831,-76.4987C653.8633,-66.1429 682.4086,-52.9444 709,-45.5 761.1848,-30.8905 821.8399,-23.3792 868.7242,-19.526"/>
<polygon fill="#191970" stroke="#191970" points="869.1174,-23.006 878.8134,-18.7356 868.5706,-16.0274 869.1174,-23.006"/>
</g>
<!-- Node11 -->
<g id="node10" class="node">
<title>Node11</title>
<g id="a_node10"><a xlink:href="classATSHA204Class.html#ac51be7c43d75dcc439d89ecb0493149b" target="_top" xlink:title="ATSHA204Class::sha204c\l_sleep">
<polygon fill="#ffffff" stroke="#000000" points="879,-98.5 879,-128.5 1013,-128.5 1013,-98.5 879,-98.5"/>
<text text-anchor="start" x="887" y="-116.5" font-family="Helvetica,sans-Serif" font-size="10.00" fill="#000000">ATSHA204Class::sha204c</text>
<text text-anchor="middle" x="946" y="-105.5" font-family="Helvetica,sans-Serif" font-size="10.00" fill="#000000">_sleep</text>
</a>
</g>
</g>
<!-- Node8&#45;&gt;Node11 -->
<g id="edge11" class="edge">
<title>Node8&#45;&gt;Node11</title>
<path fill="none" stroke="#191970" d="M673.1731,-95.8465C729.52,-99.4925 810.0085,-104.7006 868.9603,-108.5151"/>
<polygon fill="#191970" stroke="#191970" points="868.7613,-112.0094 878.9665,-109.1625 869.2134,-105.024 868.7613,-112.0094"/>
</g>
<!-- Node12 -->
<g id="node11" class="node">
<title>Node12</title>
<g id="a_node11"><a xlink:href="classATSHA204Class.html#a2772385d612dee11f65c310334d7952b" target="_top" xlink:title="ATSHA204Class::sha204c\l_wakeup">
<polygon fill="#ffffff" stroke="#000000" points="709,-54.5 709,-84.5 843,-84.5 843,-54.5 709,-54.5"/>
<text text-anchor="start" x="717" y="-72.5" font-family="Helvetica,sans-Serif" font-size="10.00" fill="#000000">ATSHA204Class::sha204c</text>
<text text-anchor="middle" x="776" y="-61.5" font-family="Helvetica,sans-Serif" font-size="10.00" fill="#000000">_wakeup</text>
</a>
</g>
</g>
<!-- Node8&#45;&gt;Node12 -->
<g id="edge13" class="edge">
<title>Node8&#45;&gt;Node12</title>
<path fill="none" stroke="#191970" d="M673.1885,-82.805C681.5935,-81.7173 690.2417,-80.5981 698.7842,-79.4926"/>
<polygon fill="#191970" stroke="#191970" points="699.2748,-82.9584 708.7428,-78.2039 698.3763,-76.0163 699.2748,-82.9584"/>
</g>
<!-- Node9&#45;&gt;Node6 -->
<g id="edge9" class="edge">
<title>Node9&#45;&gt;Node6</title>
<path fill="none" stroke="#191970" d="M994.066,-30.5656C1000.6475,-33.4423 1007.1463,-36.7487 1013,-40.5 1042.4986,-59.404 1070.1215,-89.0532 1087.365,-109.56"/>
<polygon fill="#191970" stroke="#191970" points="1084.818,-111.9727 1093.879,-117.4634 1090.2197,-107.5206 1084.818,-111.9727"/>
</g>
<!-- Node10 -->
<g id="node9" class="node">
<title>Node10</title>
<g id="a_node9"><a xlink:href="classATSHA204Class.html#ae81c8e3063da186b698d31bad70e543b" target="_top" xlink:title="ATSHA204Class::swi\l_receive_bytes">
<polygon fill="#ffffff" stroke="#000000" points="1049,-.5 1049,-30.5 1162,-30.5 1162,-.5 1049,-.5"/>
<text text-anchor="start" x="1057" y="-18.5" font-family="Helvetica,sans-Serif" font-size="10.00" fill="#000000">ATSHA204Class::swi</text>
<text text-anchor="middle" x="1105.5" y="-7.5" font-family="Helvetica,sans-Serif" font-size="10.00" fill="#000000">_receive_bytes</text>
</a>
</g>
</g>
<!-- Node9&#45;&gt;Node10 -->
<g id="edge10" class="edge">
<title>Node9&#45;&gt;Node10</title>
<path fill="none" stroke="#191970" d="M1013.1801,-15.5C1021.6539,-15.5 1030.3219,-15.5 1038.7884,-15.5"/>
<polygon fill="#191970" stroke="#191970" points="1038.9892,-19.0001 1048.9892,-15.5 1038.9891,-12.0001 1038.9892,-19.0001"/>
</g>
<!-- Node11&#45;&gt;Node6 -->
<g id="edge12" class="edge">
<title>Node11&#45;&gt;Node6</title>
<path fill="none" stroke="#191970" d="M1013.1801,-121.5026C1021.6539,-122.5121 1030.3219,-123.5446 1038.7884,-124.5532"/>
<polygon fill="#191970" stroke="#191970" points="1038.6453,-128.0608 1048.9892,-125.7683 1039.4734,-121.1099 1038.6453,-128.0608"/>
</g>
<!-- Node12&#45;&gt;Node9 -->
<g id="edge15" class="edge">
<title>Node12&#45;&gt;Node9</title>
<path fill="none" stroke="#191970" d="M823.3545,-54.458C843.7166,-47.99 867.6906,-40.3747 889.0158,-33.6009"/>
<polygon fill="#191970" stroke="#191970" points="890.1338,-36.9181 898.6049,-30.5549 888.0146,-30.2466 890.1338,-36.9181"/>
</g>
<!-- Node13 -->
<g id="node12" class="node">
<title>Node13</title>
<g id="a_node12"><a xlink:href="classATSHA204Class.html#a2d69316e4670b7fd17a1e2b6231191ff" target="_top" xlink:title="ATSHA204Class::swi\l_set_signal_pin">
<polygon fill="#ffffff" stroke="#000000" points="889.5,-49.5 889.5,-79.5 1002.5,-79.5 1002.5,-49.5 889.5,-49.5"/>
<text text-anchor="start" x="897.5" y="-67.5" font-family="Helvetica,sans-Serif" font-size="10.00" fill="#000000">ATSHA204Class::swi</text>
<text text-anchor="middle" x="946" y="-56.5" font-family="Helvetica,sans-Serif" font-size="10.00" fill="#000000">_set_signal_pin</text>
</a>
</g>
</g>
<!-- Node12&#45;&gt;Node13 -->
<g id="edge14" class="edge">
<title>Node12&#45;&gt;Node13</title>
<path fill="none" stroke="#191970" d="M843.1885,-67.5239C855.0325,-67.1755 867.3595,-66.813 879.1929,-66.4649"/>
<polygon fill="#191970" stroke="#191970" points="879.5477,-69.9561 889.4404,-66.1635 879.3418,-62.9591 879.5477,-69.9561"/>
</g>
<!-- Node14&#45;&gt;Node5 -->
<g id="edge18" class="edge">
<title>Node14&#45;&gt;Node5</title>
<path fill="none" stroke="#191970" d="M673.1885,-248.195C681.5935,-249.2827 690.2417,-250.4019 698.7842,-251.5074"/>
<polygon fill="#191970" stroke="#191970" points="698.3763,-254.9837 708.7428,-252.7961 699.2748,-248.0416 698.3763,-254.9837"/>
</g>
</g>
</svg>
        <g id="navigator" transform="translate(0 0)" fill="#404254">
                <rect fill="#f2f5e9" fill-opacity="0.5" stroke="#606060" stroke-width=".5" x="0" y="0" width="60" height="60"/>
                <use id="zoomplus" xlink:href="#zoomPlus" x="17" y="9" onmousedown="handleZoom(evt,'in')"/>
                <use id="zoomminus" xlink:href="#zoomMin" x="42" y="9" onmousedown="handleZoom(evt,'out')"/>
                <use id="reset" xlink:href="#resetDef" x="30" y="36" onmousedown="handleReset()"/>
                <g id="arrowUp" xlink:href="#dirArrow" transform="translate(30 24)" onmousedown="handlePan(0,-1)">
                  <use xlink:href="#rim" fill="#404040">
                        <set attributeName="fill" to="#808080" begin="arrowUp.mouseover" end="arrowUp.mouseout"/>
                  </use>
                  <path fill="none" stroke="white" stroke-width="1.5" d="M0,-3.0v7 M-2.5,-0.5L0,-3.0L2.5,-0.5"/>
                </g>
                <g id="arrowRight" xlink:href="#dirArrow" transform="rotate(90) translate(36 -43)" onmousedown="handlePan(1,0)">
                  <use xlink:href="#rim" fill="#404040">
                        <set attributeName="fill" to="#808080" begin="arrowRight.mouseover" end="arrowRight.mouseout"/>
                  </use>
                  <path fill="none" stroke="white" stroke-width="1.5" d="M0,-3.0v7 M-2.5,-0.5L0,-3.0L2.5,-0.5"/>
                </g>
                <g id="arrowDown" xlink:href="#dirArrow" transform="rotate(180) translate(-30 -48)" onmousedown="handlePan(0,1)">
                  <use xlink:href="#rim" fill="#404040">
                        <set attributeName="fill" to="#808080" begin="arrowDown.mouseover" end="arrowDown.mouseout"/>
                  </use>
                  <path fill="none" stroke="white" stroke-width="1.5" d="M0,-3.0v7 M-2.5,-0.5L0,-3.0L2.5,-0.5"/>
                </g>
                <g id="arrowLeft" xlink:href="#dirArrow" transform="rotate(270) translate(-36 17)" onmousedown="handlePan(-1,0)">
                  <use xlink:href="#rim" fill="#404040">
                        <set attributeName="fill" to="#808080" begin="arrowLeft.mouseover" end="arrowLeft.mouseout"/>
                  </use>
                  <path fill="none" stroke="white" stroke-width="1.5" d="M0,-3.0v7 M-2.5,-0.5L0,-3.0L2.5,-0.5"/>
                </g>
        </g>
        <svg viewBox="0 0 15 15" width="100%" height="30px" preserveAspectRatio="xMaxYMin meet">
         <g id="arrow_out" transform="scale(0.3 0.3)">
          <a xlink:href="classATSHA204Class_ade50092ec236d13cde64e7684b59ab7b_cgraph_org.svg" target="_base">
           <rect id="button" ry="5" rx="5" y="6" x="6" height="38" width="38"
                fill="#f2f5e9" fill-opacity="0.5" stroke="#606060" stroke-width="1.0"/>
           <path id="arrow"
             d="M 11.500037,31.436501 C 11.940474,20.09759 22.043105,11.32322 32.158766,21.979434 L 37.068811,17.246167 C 37.068811,17.246167 37.088388,32 37.088388,32 L 22.160133,31.978069 C 22.160133,31.978069 26.997745,27.140456 26.997745,27.140456 C 18.528582,18.264221 13.291696,25.230495 11.500037,31.436501 z"
             style="fill:#404040;"/>
          </a>
         </g>
        </svg>
</svg>
