<?xml version="1.0" encoding="UTF-8" standalone="no"?>
<!DOCTYPE svg PUBLIC "-//W3C//DTD SVG 1.1//EN"
 "http://www.w3.org/Graphics/SVG/1.1/DTD/svg11.dtd">
<!-- Generated by graphviz version 2.40.1 (20161225.0304)
 -->
<!-- Title: Sha256Class::pad Pages: 1 -->
<!--zoomable 185 -->
<svg id="main" version="1.1" xmlns="http://www.w3.org/2000/svg" xmlns:xlink="http://www.w3.org/1999/xlink" xml:space="preserve" onload="init(evt)">
<style type="text/css"><![CDATA[
.edge:hover path { stroke: red; }
.edge:hover polygon { stroke: red; fill: red; }
]]></style>
<script type="text/javascript"><![CDATA[
var edges = document.getElementsByTagName('g');
if (edges && edges.length) {
  for (var i=0;i<edges.length;i++) {
    if (edges[i].id.substr(0,4)=='edge') {
      edges[i].setAttribute('class','edge');
    }
  }
}
]]></script>
        <defs>
                <circle id="rim" cx="0" cy="0" r="7"/>
                <circle id="rim2" cx="0" cy="0" r="3.5"/>
                <g id="zoomPlus">
                        <use xlink:href="#rim" fill="#404040">
                                <set attributeName="fill" to="#808080" begin="zoomplus.mouseover" end="zoomplus.mouseout"/>
                        </use>
                        <path d="M-4,0h8M0,-4v8" fill="none" stroke="white" stroke-width="1.5" pointer-events="none"/>
                </g>
                <g id="zoomMin">
                        <use xlink:href="#rim" fill="#404040">
                                <set attributeName="fill" to="#808080" begin="zoomminus.mouseover" end="zoomminus.mouseout"/>
                        </use>
                        <path d="M-4,0h8" fill="none" stroke="white" stroke-width="1.5" pointer-events="none"/>
                </g>
                <g id="dirArrow">
                        <path fill="none" stroke="white" stroke-width="1.5" d="M0,-3.0v7 M-2.5,-0.5L0,-3.0L2.5,-0.5"/>
                </g>
               <g id="resetDef">
                       <use xlink:href="#rim2" fill="#404040">
                               <set attributeName="fill" to="#808080" begin="reset.mouseover" end="reset.mouseout"/>
                       </use>
               </g>
        </defs>

<script type="text/javascript">
var viewWidth = 1147;
var viewHeight = 185;
var sectionId = 'dynsection-9';
</script>
<script xlink:href="svgpan.js"/>
<svg id="graph" class="graph">
<g id="viewport">
<title>Sha256Class::pad</title>
<polygon fill="#ffffff" stroke="transparent" points="-4,4 -4,-180.5 1143,-180.5 1143,4 -4,4"/>
<!-- Node76 -->
<g id="node1" class="node">
<title>Node76</title>
<polygon fill="#bfbfbf" stroke="#000000" points="0,-113 0,-132 97,-132 97,-113 0,-113"/>
<text text-anchor="middle" x="48.5" y="-120" font-family="Helvetica,sans-Serif" font-size="10.00" fill="#000000">Sha256Class::pad</text>
</g>
<!-- Node77 -->
<g id="node2" class="node">
<title>Node77</title>
<g id="a_node2"><a xlink:href="classSha256Class.html#a0ca245a22f8b056a3d1902da3c64b705" target="_top" xlink:title="Sha256Class::result">
<polygon fill="#ffffff" stroke="#000000" points="133,-113 133,-132 238,-132 238,-113 133,-113"/>
<text text-anchor="middle" x="185.5" y="-120" font-family="Helvetica,sans-Serif" font-size="10.00" fill="#000000">Sha256Class::result</text>
</a>
</g>
</g>
<!-- Node76&#45;&gt;Node77 -->
<g id="edge1" class="edge">
<title>Node76&#45;&gt;Node77</title>
<path fill="none" stroke="#191970" d="M107.3612,-122.5C115.8127,-122.5 124.4639,-122.5 132.7863,-122.5"/>
<polygon fill="#191970" stroke="#191970" points="107.1869,-119.0001 97.1868,-122.5 107.1868,-126.0001 107.1869,-119.0001"/>
</g>
<!-- Node78 -->
<g id="node3" class="node">
<title>Node78</title>
<g id="a_node3"><a xlink:href="classSha256Class.html#a73d3dcea6eb667fd146d12aa5d106939" target="_top" xlink:title="Sha256Class::initHmac">
<polygon fill="#ffffff" stroke="#000000" points="279.5,-94 279.5,-113 399.5,-113 399.5,-94 279.5,-94"/>
<text text-anchor="middle" x="339.5" y="-101" font-family="Helvetica,sans-Serif" font-size="10.00" fill="#000000">Sha256Class::initHmac</text>
</a>
</g>
</g>
<!-- Node77&#45;&gt;Node78 -->
<g id="edge2" class="edge">
<title>Node77&#45;&gt;Node78</title>
<path fill="none" stroke="#191970" d="M248.2416,-114.7592C258.5627,-113.4858 269.2379,-112.1687 279.4902,-110.9038"/>
<polygon fill="#191970" stroke="#191970" points="247.5635,-111.3162 238.0673,-116.0144 248.4207,-118.2635 247.5635,-111.3162"/>
</g>
<!-- Node88 -->
<g id="node13" class="node">
<title>Node88</title>
<g id="a_node13"><a xlink:href="classSha256Class.html#a7556f29cadf7eaca21a537df41318af3" target="_top" xlink:title="Sha256Class::resultHmac">
<polygon fill="#ffffff" stroke="#000000" points="274,-132 274,-151 405,-151 405,-132 274,-132"/>
<text text-anchor="middle" x="339.5" y="-139" font-family="Helvetica,sans-Serif" font-size="10.00" fill="#000000">Sha256Class::resultHmac</text>
</a>
</g>
</g>
<!-- Node77&#45;&gt;Node88 -->
<g id="edge15" class="edge">
<title>Node77&#45;&gt;Node88</title>
<path fill="none" stroke="#191970" d="M248.2163,-130.2377C256.6565,-131.279 265.334,-132.3496 273.8237,-133.3971"/>
<polygon fill="#191970" stroke="#191970" points="248.4207,-126.7365 238.0673,-128.9856 247.5635,-133.6838 248.4207,-126.7365"/>
</g>
<!-- Node79 -->
<g id="node4" class="node">
<title>Node79</title>
<g id="a_node4"><a xlink:href="TooSigning_8h.html#a1e2cd2b37702263e1fe166395350bf08" target="_top" xlink:title="TooSigning_init_hmac">
<polygon fill="#ffffff" stroke="#000000" points="441,-69 441,-88 554,-88 554,-69 441,-69"/>
<text text-anchor="middle" x="497.5" y="-76" font-family="Helvetica,sans-Serif" font-size="10.00" fill="#000000">TooSigning_init_hmac</text>
</a>
</g>
</g>
<!-- Node78&#45;&gt;Node79 -->
<g id="edge3" class="edge">
<title>Node78&#45;&gt;Node79</title>
<path fill="none" stroke="#191970" d="M409.6179,-92.4054C420.0719,-90.7513 430.736,-89.0639 440.8655,-87.4612"/>
<polygon fill="#191970" stroke="#191970" points="409.0139,-88.9573 399.6838,-93.9773 410.1079,-95.8713 409.0139,-88.9573"/>
</g>
<!-- Node86 -->
<g id="node11" class="node">
<title>Node86</title>
<g id="a_node11"><a xlink:href="TooSigning_8cpp.html#a03df9fd005c518d1114f912ae7da9f06" target="_top" xlink:title="TooSigning_unsigned\l_network_available">
<polygon fill="#ffffff" stroke="#000000" points="442.5,-107.5 442.5,-137.5 552.5,-137.5 552.5,-107.5 442.5,-107.5"/>
<text text-anchor="start" x="450.5" y="-125.5" font-family="Helvetica,sans-Serif" font-size="10.00" fill="#000000">TooSigning_unsigned</text>
<text text-anchor="middle" x="497.5" y="-114.5" font-family="Helvetica,sans-Serif" font-size="10.00" fill="#000000">_network_available</text>
</a>
</g>
</g>
<!-- Node78&#45;&gt;Node86 -->
<g id="edge12" class="edge">
<title>Node78&#45;&gt;Node86</title>
<path fill="none" stroke="#191970" d="M409.6701,-111.9382C420.6414,-113.2575 431.8427,-114.6045 442.4134,-115.8757"/>
<polygon fill="#191970" stroke="#191970" points="410.0301,-108.4563 399.6838,-110.7373 409.1943,-115.4063 410.0301,-108.4563"/>
</g>
<!-- Node80 -->
<g id="node5" class="node">
<title>Node80</title>
<g id="a_node5"><a xlink:href="TooNetworking_8h.html#a9f893c3218491ee86282fdcd9f376500" target="_top" xlink:title="TooNetworking_send\l_signed_">
<polygon fill="#ffffff" stroke="#000000" points="603,-63.5 603,-93.5 712,-93.5 712,-63.5 603,-63.5"/>
<text text-anchor="start" x="611" y="-81.5" font-family="Helvetica,sans-Serif" font-size="10.00" fill="#000000">TooNetworking_send</text>
<text text-anchor="middle" x="657.5" y="-70.5" font-family="Helvetica,sans-Serif" font-size="10.00" fill="#000000">_signed_</text>
</a>
</g>
</g>
<!-- Node79&#45;&gt;Node80 -->
<g id="edge4" class="edge">
<title>Node79&#45;&gt;Node80</title>
<path fill="none" stroke="#191970" d="M564.5144,-78.5C577.33,-78.5 590.6024,-78.5 602.9684,-78.5"/>
<polygon fill="#191970" stroke="#191970" points="564.3606,-75.0001 554.3605,-78.5 564.3605,-82.0001 564.3606,-75.0001"/>
</g>
<!-- Node81 -->
<g id="node6" class="node">
<title>Node81</title>
<g id="a_node6"><a xlink:href="TooNetworking_8h.html#a59be7e774988f57ab43c4c078c570c67" target="_top" xlink:title="TooNetworking_bufferlist_add">
<polygon fill="#ffffff" stroke="#000000" points="761,-25 761,-44 907,-44 907,-25 761,-25"/>
<text text-anchor="middle" x="834" y="-32" font-family="Helvetica,sans-Serif" font-size="10.00" fill="#000000">TooNetworking_bufferlist_add</text>
</a>
</g>
</g>
<!-- Node80&#45;&gt;Node81 -->
<g id="edge5" class="edge">
<title>Node80&#45;&gt;Node81</title>
<path fill="none" stroke="#191970" d="M722.3869,-62.3242C747.0156,-56.1845 774.2602,-49.3926 795.6664,-44.0562"/>
<polygon fill="#191970" stroke="#191970" points="721.2346,-59.0043 712.3782,-64.8193 722.9279,-65.7964 721.2346,-59.0043"/>
</g>
<!-- Node82 -->
<g id="node7" class="node">
<title>Node82</title>
<g id="a_node7"><a xlink:href="TooNetworking_8h.html#a9209f3e1a2fdf0b3b88d49105b8fc359" target="_top" xlink:title="TooNetworking_send\l_signed">
<polygon fill="#ffffff" stroke="#000000" points="951,-.5 951,-30.5 1060,-30.5 1060,-.5 951,-.5"/>
<text text-anchor="start" x="959" y="-18.5" font-family="Helvetica,sans-Serif" font-size="10.00" fill="#000000">TooNetworking_send</text>
<text text-anchor="middle" x="1005.5" y="-7.5" font-family="Helvetica,sans-Serif" font-size="10.00" fill="#000000">_signed</text>
</a>
</g>
</g>
<!-- Node80&#45;&gt;Node82 -->
<g id="edge9" class="edge">
<title>Node80&#45;&gt;Node82</title>
<path fill="none" stroke="#191970" d="M683.4215,-57.1417C703.287,-42.2298 732.112,-23.6007 761,-15.5 824.3507,2.2645 900.6195,-1.4827 950.9395,-7.2046"/>
<polygon fill="#191970" stroke="#191970" points="681.2643,-54.3853 675.4822,-63.2633 685.5386,-59.9288 681.2643,-54.3853"/>
</g>
<!-- Node83 -->
<g id="node8" class="node">
<title>Node83</title>
<g id="a_node8"><a xlink:href="TooNetworking_8h.html#a085ff748b00f6be4ebafcae2bb0dded1" target="_top" xlink:title="TooNetworking_bufferlist\l_send_signed">
<polygon fill="#ffffff" stroke="#000000" points="943,-101.5 943,-131.5 1068,-131.5 1068,-101.5 943,-101.5"/>
<text text-anchor="start" x="951" y="-119.5" font-family="Helvetica,sans-Serif" font-size="10.00" fill="#000000">TooNetworking_bufferlist</text>
<text text-anchor="middle" x="1005.5" y="-108.5" font-family="Helvetica,sans-Serif" font-size="10.00" fill="#000000">_send_signed</text>
</a>
</g>
</g>
<!-- Node80&#45;&gt;Node83 -->
<g id="edge10" class="edge">
<title>Node80&#45;&gt;Node83</title>
<path fill="none" stroke="#191970" d="M721.4495,-95.8859C734.4532,-98.872 748.1003,-101.6155 761,-103.5 822.4097,-112.4713 893.2991,-115.438 942.8816,-116.3312"/>
<polygon fill="#191970" stroke="#191970" points="722.1915,-92.4648 711.6539,-93.5652 720.5777,-99.2763 722.1915,-92.4648"/>
</g>
<!-- Node85 -->
<g id="node10" class="node">
<title>Node85</title>
<g id="a_node10"><a xlink:href="TooNetworking_8h.html#ab58e06e0eb6f2f8ecbebeaf3c173fb22" target="_top" xlink:title="TooNetworking_bufferlist\l_send_all">
<polygon fill="#ffffff" stroke="#000000" points="771.5,-63.5 771.5,-93.5 896.5,-93.5 896.5,-63.5 771.5,-63.5"/>
<text text-anchor="start" x="779.5" y="-81.5" font-family="Helvetica,sans-Serif" font-size="10.00" fill="#000000">TooNetworking_bufferlist</text>
<text text-anchor="middle" x="834" y="-70.5" font-family="Helvetica,sans-Serif" font-size="10.00" fill="#000000">_send_all</text>
</a>
</g>
</g>
<!-- Node80&#45;&gt;Node85 -->
<g id="edge11" class="edge">
<title>Node80&#45;&gt;Node85</title>
<path fill="none" stroke="#191970" d="M722.6736,-78.5C738.6138,-78.5 755.6343,-78.5 771.4486,-78.5"/>
<polygon fill="#191970" stroke="#191970" points="722.3782,-75.0001 712.3782,-78.5 722.3782,-82.0001 722.3782,-75.0001"/>
</g>
<!-- Node81&#45;&gt;Node82 -->
<g id="edge6" class="edge">
<title>Node81&#45;&gt;Node82</title>
<path fill="none" stroke="#191970" d="M917.2478,-25.2772C928.6894,-24.0096 940.1905,-22.7355 950.9353,-21.5451"/>
<polygon fill="#191970" stroke="#191970" points="916.7827,-21.8072 907.2289,-26.3872 917.5535,-28.7647 916.7827,-21.8072"/>
</g>
<!-- Node81&#45;&gt;Node83 -->
<g id="edge7" class="edge">
<title>Node81&#45;&gt;Node83</title>
<path fill="none" stroke="#191970" d="M887.1151,-47.0651C893.9153,-49.2495 900.6969,-51.726 907,-54.5 935.8513,-67.1977 966.1168,-87.443 985.3594,-101.3222"/>
<polygon fill="#191970" stroke="#191970" points="887.7771,-43.6091 877.1925,-44.073 885.7562,-50.3111 887.7771,-43.6091"/>
</g>
<!-- Node84 -->
<g id="node9" class="node">
<title>Node84</title>
<g id="a_node9"><a xlink:href="NODE__SKETCH__TooAutomation__Node_8ino_8cpp.html#a0b33edabd7f1c4e4a0bf32c67269be2f" target="_top" xlink:title="loop">
<polygon fill="#ffffff" stroke="#000000" points="1104,-129 1104,-148 1139,-148 1139,-129 1104,-129"/>
<text text-anchor="middle" x="1121.5" y="-136" font-family="Helvetica,sans-Serif" font-size="10.00" fill="#000000">loop</text>
</a>
</g>
</g>
<!-- Node83&#45;&gt;Node84 -->
<g id="edge8" class="edge">
<title>Node83&#45;&gt;Node84</title>
<path fill="none" stroke="#191970" d="M1078.2178,-130.2913C1087.6312,-132.0766 1096.4907,-133.7569 1103.7123,-135.1265"/>
<polygon fill="#191970" stroke="#191970" points="1078.7301,-126.8262 1068.2531,-128.4014 1077.4257,-133.7036 1078.7301,-126.8262"/>
</g>
<!-- Node87 -->
<g id="node12" class="node">
<title>Node87</title>
<g id="a_node12"><a xlink:href="TooNetworking_8h.html#a7382ba1aed5405c3adc02011ea6c45dd" target="_top" xlink:title="TooNetworking_connection\l_maintenance">
<polygon fill="#ffffff" stroke="#000000" points="590,-128.5 590,-158.5 725,-158.5 725,-128.5 590,-128.5"/>
<text text-anchor="start" x="598" y="-146.5" font-family="Helvetica,sans-Serif" font-size="10.00" fill="#000000">TooNetworking_connection</text>
<text text-anchor="middle" x="657.5" y="-135.5" font-family="Helvetica,sans-Serif" font-size="10.00" fill="#000000">_maintenance</text>
</a>
</g>
</g>
<!-- Node86&#45;&gt;Node87 -->
<g id="edge13" class="edge">
<title>Node86&#45;&gt;Node87</title>
<path fill="none" stroke="#191970" d="M562.587,-131.0427C571.5862,-132.2238 580.8465,-133.4392 589.8902,-134.6262"/>
<polygon fill="#191970" stroke="#191970" points="562.9334,-127.5582 552.5629,-129.727 562.0224,-134.4987 562.9334,-127.5582"/>
</g>
<!-- Node87&#45;&gt;Node84 -->
<g id="edge14" class="edge">
<title>Node87&#45;&gt;Node84</title>
<path fill="none" stroke="#191970" d="M735.1278,-144.303C817.6888,-144.8805 952.0908,-145.0298 1068,-141.5 1079.902,-141.1375 1093.277,-140.3875 1103.6765,-139.7282"/>
<polygon fill="#191970" stroke="#191970" points="735.0984,-140.8028 725.0728,-144.2287 735.0466,-147.8026 735.0984,-140.8028"/>
</g>
<!-- Node88&#45;&gt;Node86 -->
<g id="edge18" class="edge">
<title>Node88&#45;&gt;Node86</title>
<path fill="none" stroke="#191970" d="M415.0697,-132.4125C424.2707,-131.3061 433.534,-130.1921 442.3589,-129.1309"/>
<polygon fill="#191970" stroke="#191970" points="414.6442,-128.9384 405.1336,-133.6074 415.48,-135.8883 414.6442,-128.9384"/>
</g>
<!-- Node89 -->
<g id="node14" class="node">
<title>Node89</title>
<g id="a_node14"><a xlink:href="TooSigning_8h.html#ab8a2415b95a77c91ffbc6ebbde622f64" target="_top" xlink:title="TooSigning_get_hmac">
<polygon fill="#ffffff" stroke="#000000" points="441,-157 441,-176 554,-176 554,-157 441,-157"/>
<text text-anchor="middle" x="497.5" y="-164" font-family="Helvetica,sans-Serif" font-size="10.00" fill="#000000">TooSigning_get_hmac</text>
</a>
</g>
</g>
<!-- Node88&#45;&gt;Node89 -->
<g id="edge16" class="edge">
<title>Node88&#45;&gt;Node89</title>
<path fill="none" stroke="#191970" d="M409.6179,-152.5946C420.0719,-154.2487 430.736,-155.9361 440.8655,-157.5388"/>
<polygon fill="#191970" stroke="#191970" points="410.1079,-149.1287 399.6838,-151.0227 409.0139,-156.0427 410.1079,-149.1287"/>
</g>
<!-- Node89&#45;&gt;Node80 -->
<g id="edge17" class="edge">
<title>Node89&#45;&gt;Node80</title>
<path fill="none" stroke="#191970" d="M541.5037,-153.3438C545.8115,-151.5712 550.0466,-149.6226 554,-147.5 571.8587,-137.9118 573.3102,-131.0028 590,-119.5 603.2088,-110.3964 618.4432,-101.0501 631.0926,-93.5844"/>
<polygon fill="#191970" stroke="#191970" points="540.1412,-150.1174 532.0378,-156.9428 542.6289,-156.6604 540.1412,-150.1174"/>
</g>
</g>
</svg>
        <g id="navigator" transform="translate(0 0)" fill="#404254">
                <rect fill="#f2f5e9" fill-opacity="0.5" stroke="#606060" stroke-width=".5" x="0" y="0" width="60" height="60"/>
                <use id="zoomplus" xlink:href="#zoomPlus" x="17" y="9" onmousedown="handleZoom(evt,'in')"/>
                <use id="zoomminus" xlink:href="#zoomMin" x="42" y="9" onmousedown="handleZoom(evt,'out')"/>
                <use id="reset" xlink:href="#resetDef" x="30" y="36" onmousedown="handleReset()"/>
                <g id="arrowUp" xlink:href="#dirArrow" transform="translate(30 24)" onmousedown="handlePan(0,-1)">
                  <use xlink:href="#rim" fill="#404040">
                        <set attributeName="fill" to="#808080" begin="arrowUp.mouseover" end="arrowUp.mouseout"/>
                  </use>
                  <path fill="none" stroke="white" stroke-width="1.5" d="M0,-3.0v7 M-2.5,-0.5L0,-3.0L2.5,-0.5"/>
                </g>
                <g id="arrowRight" xlink:href="#dirArrow" transform="rotate(90) translate(36 -43)" onmousedown="handlePan(1,0)">
                  <use xlink:href="#rim" fill="#404040">
                        <set attributeName="fill" to="#808080" begin="arrowRight.mouseover" end="arrowRight.mouseout"/>
                  </use>
                  <path fill="none" stroke="white" stroke-width="1.5" d="M0,-3.0v7 M-2.5,-0.5L0,-3.0L2.5,-0.5"/>
                </g>
                <g id="arrowDown" xlink:href="#dirArrow" transform="rotate(180) translate(-30 -48)" onmousedown="handlePan(0,1)">
                  <use xlink:href="#rim" fill="#404040">
                        <set attributeName="fill" to="#808080" begin="arrowDown.mouseover" end="arrowDown.mouseout"/>
                  </use>
                  <path fill="none" stroke="white" stroke-width="1.5" d="M0,-3.0v7 M-2.5,-0.5L0,-3.0L2.5,-0.5"/>
                </g>
                <g id="arrowLeft" xlink:href="#dirArrow" transform="rotate(270) translate(-36 17)" onmousedown="handlePan(-1,0)">
                  <use xlink:href="#rim" fill="#404040">
                        <set attributeName="fill" to="#808080" begin="arrowLeft.mouseover" end="arrowLeft.mouseout"/>
                  </use>
                  <path fill="none" stroke="white" stroke-width="1.5" d="M0,-3.0v7 M-2.5,-0.5L0,-3.0L2.5,-0.5"/>
                </g>
        </g>
        <svg viewBox="0 0 15 15" width="100%" height="30px" preserveAspectRatio="xMaxYMin meet">
         <g id="arrow_out" transform="scale(0.3 0.3)">
          <a xlink:href="classSha256Class_a82049dae520ccf0bd8478f2aef639149_icgraph_org.svg" target="_base">
           <rect id="button" ry="5" rx="5" y="6" x="6" height="38" width="38"
                fill="#f2f5e9" fill-opacity="0.5" stroke="#606060" stroke-width="1.0"/>
           <path id="arrow"
             d="M 11.500037,31.436501 C 11.940474,20.09759 22.043105,11.32322 32.158766,21.979434 L 37.068811,17.246167 C 37.068811,17.246167 37.088388,32 37.088388,32 L 22.160133,31.978069 C 22.160133,31.978069 26.997745,27.140456 26.997745,27.140456 C 18.528582,18.264221 13.291696,25.230495 11.500037,31.436501 z"
             style="fill:#404040;"/>
          </a>
         </g>
        </svg>
</svg>
