<?xml version="1.0" encoding="UTF-8" standalone="no"?>
<!DOCTYPE svg PUBLIC "-//W3C//DTD SVG 1.1//EN"
 "http://www.w3.org/Graphics/SVG/1.1/DTD/svg11.dtd">
<!-- Generated by graphviz version 2.40.1 (20161225.0304)
 -->
<!-- Title: Sha256Class::write Pages: 1 -->
<svg width="668pt" height="143pt"
 viewBox="0.00 0.00 668.00 142.56" xmlns="http://www.w3.org/2000/svg" xmlns:xlink="http://www.w3.org/1999/xlink">
<g id="graph0" class="graph" transform="scale(1 1) rotate(0) translate(4 138.5593)">
<title>Sha256Class::write</title>
<polygon fill="#ffffff" stroke="transparent" points="-4,4 -4,-138.5593 664,-138.5593 664,4 -4,4"/>
<!-- Node118 -->
<g id="node1" class="node">
<title>Node118</title>
<polygon fill="#bfbfbf" stroke="#000000" points="0,-52.0593 0,-71.0593 102,-71.0593 102,-52.0593 0,-52.0593"/>
<text text-anchor="middle" x="51" y="-59.0593" font-family="Helvetica,sans-Serif" font-size="10.00" fill="#000000">Sha256Class::write</text>
</g>
<!-- Node119 -->
<g id="node2" class="node">
<title>Node119</title>
<g id="a_node2"><a xlink:href="classSha256Class.html#a73d3dcea6eb667fd146d12aa5d106939" target="_top" xlink:title="Sha256Class::initHmac">
<polygon fill="#ffffff" stroke="#000000" points="143.5,-90.0593 143.5,-109.0593 263.5,-109.0593 263.5,-90.0593 143.5,-90.0593"/>
<text text-anchor="middle" x="203.5" y="-97.0593" font-family="Helvetica,sans-Serif" font-size="10.00" fill="#000000">Sha256Class::initHmac</text>
</a>
</g>
</g>
<!-- Node118&#45;&gt;Node119 -->
<g id="edge1" class="edge">
<title>Node118&#45;&gt;Node119</title>
<path fill="none" stroke="#191970" d="M99.3184,-73.5993C120.6234,-78.9081 145.3042,-85.0581 165.2945,-90.0393"/>
<polygon fill="#191970" stroke="#191970" points="100.0318,-70.1701 89.4822,-71.1483 98.3392,-76.9624 100.0318,-70.1701"/>
</g>
<!-- Node125 -->
<g id="node8" class="node">
<title>Node125</title>
<g id="a_node8"><a xlink:href="classSha256Class.html#a7556f29cadf7eaca21a537df41318af3" target="_top" xlink:title="Sha256Class::resultHmac">
<polygon fill="#ffffff" stroke="#000000" points="138,-52.0593 138,-71.0593 269,-71.0593 269,-52.0593 138,-52.0593"/>
<text text-anchor="middle" x="203.5" y="-59.0593" font-family="Helvetica,sans-Serif" font-size="10.00" fill="#000000">Sha256Class::resultHmac</text>
</a>
</g>
</g>
<!-- Node118&#45;&gt;Node125 -->
<g id="edge7" class="edge">
<title>Node118&#45;&gt;Node125</title>
<path fill="none" stroke="#191970" d="M112.292,-61.5593C120.6879,-61.5593 129.3357,-61.5593 137.8063,-61.5593"/>
<polygon fill="#191970" stroke="#191970" points="112.2046,-58.0594 102.2045,-61.5593 112.2045,-65.0594 112.2046,-58.0594"/>
</g>
<!-- Node127 -->
<g id="node10" class="node">
<title>Node127</title>
<g id="a_node10"><a xlink:href="group__TOOSIGNING__HASHING.html#gafb2935303b05255e80a7a6fa4be7cf57" target="_top" xlink:title="TooSigning_hash_data">
<polygon fill="#ffffff" stroke="#000000" points="145.5,-14.0593 145.5,-33.0593 261.5,-33.0593 261.5,-14.0593 145.5,-14.0593"/>
<text text-anchor="middle" x="203.5" y="-21.0593" font-family="Helvetica,sans-Serif" font-size="10.00" fill="#000000">TooSigning_hash_data</text>
</a>
</g>
</g>
<!-- Node118&#45;&gt;Node127 -->
<g id="edge11" class="edge">
<title>Node118&#45;&gt;Node127</title>
<path fill="none" stroke="#191970" d="M99.3184,-49.5193C120.6234,-44.2106 145.3042,-38.0606 165.2945,-33.0794"/>
<polygon fill="#191970" stroke="#191970" points="98.3392,-46.1562 89.4822,-51.9703 100.0318,-52.9485 98.3392,-46.1562"/>
</g>
<!-- Node120 -->
<g id="node3" class="node">
<title>Node120</title>
<g id="a_node3"><a xlink:href="TooSigning_8h.html#a1e2cd2b37702263e1fe166395350bf08" target="_top" xlink:title="TooSigning_init_hmac">
<polygon fill="#ffffff" stroke="#000000" points="305,-115.0593 305,-134.0593 418,-134.0593 418,-115.0593 305,-115.0593"/>
<text text-anchor="middle" x="361.5" y="-122.0593" font-family="Helvetica,sans-Serif" font-size="10.00" fill="#000000">TooSigning_init_hmac</text>
</a>
</g>
</g>
<!-- Node119&#45;&gt;Node120 -->
<g id="edge2" class="edge">
<title>Node119&#45;&gt;Node120</title>
<path fill="none" stroke="#191970" d="M273.6179,-110.6539C284.0719,-112.3081 294.736,-113.9954 304.8655,-115.5982"/>
<polygon fill="#191970" stroke="#191970" points="274.1079,-107.188 263.6838,-109.0821 273.0139,-114.102 274.1079,-107.188"/>
</g>
<!-- Node122 -->
<g id="node5" class="node">
<title>Node122</title>
<g id="a_node5"><a xlink:href="TooSigning_8cpp.html#a03df9fd005c518d1114f912ae7da9f06" target="_top" xlink:title="TooSigning_unsigned\l_network_available">
<polygon fill="#ffffff" stroke="#000000" points="306.5,-27.5593 306.5,-57.5593 416.5,-57.5593 416.5,-27.5593 306.5,-27.5593"/>
<text text-anchor="start" x="314.5" y="-45.5593" font-family="Helvetica,sans-Serif" font-size="10.00" fill="#000000">TooSigning_unsigned</text>
<text text-anchor="middle" x="361.5" y="-34.5593" font-family="Helvetica,sans-Serif" font-size="10.00" fill="#000000">_network_available</text>
</a>
</g>
</g>
<!-- Node119&#45;&gt;Node122 -->
<g id="edge4" class="edge">
<title>Node119&#45;&gt;Node122</title>
<path fill="none" stroke="#191970" d="M248.8792,-87.084C255.6612,-85.021 262.5412,-82.8154 269,-80.5593 288.5043,-73.7463 309.8631,-65.0562 327.1377,-57.7063"/>
<polygon fill="#191970" stroke="#191970" points="247.6644,-83.7936 239.0732,-89.9937 249.6557,-90.5044 247.6644,-83.7936"/>
</g>
<!-- Node121 -->
<g id="node4" class="node">
<title>Node121</title>
<g id="a_node4"><a xlink:href="TooNetworking_8h.html#ab5dfe46515ee5ca8f9893675df673d96" target="_top" xlink:title="TooNetworking_send\l_signed">
<polygon fill="#ffffff" stroke="#000000" points="467,-73.5593 467,-103.5593 576,-103.5593 576,-73.5593 467,-73.5593"/>
<text text-anchor="start" x="475" y="-91.5593" font-family="Helvetica,sans-Serif" font-size="10.00" fill="#000000">TooNetworking_send</text>
<text text-anchor="middle" x="521.5" y="-80.5593" font-family="Helvetica,sans-Serif" font-size="10.00" fill="#000000">_signed</text>
</a>
</g>
</g>
<!-- Node120&#45;&gt;Node121 -->
<g id="edge3" class="edge">
<title>Node120&#45;&gt;Node121</title>
<path fill="none" stroke="#191970" d="M414.1872,-112.7047C431.0501,-108.9106 449.7529,-104.7024 466.7588,-100.8761"/>
<polygon fill="#191970" stroke="#191970" points="412.9448,-109.3967 403.957,-115.0065 414.4814,-116.226 412.9448,-109.3967"/>
</g>
<!-- Node123 -->
<g id="node6" class="node">
<title>Node123</title>
<g id="a_node6"><a xlink:href="TooNetworking_8h.html#a7382ba1aed5405c3adc02011ea6c45dd" target="_top" xlink:title="TooNetworking_connection\l_maintenance">
<polygon fill="#ffffff" stroke="#000000" points="454,-24.5593 454,-54.5593 589,-54.5593 589,-24.5593 454,-24.5593"/>
<text text-anchor="start" x="462" y="-42.5593" font-family="Helvetica,sans-Serif" font-size="10.00" fill="#000000">TooNetworking_connection</text>
<text text-anchor="middle" x="521.5" y="-31.5593" font-family="Helvetica,sans-Serif" font-size="10.00" fill="#000000">_maintenance</text>
</a>
</g>
</g>
<!-- Node122&#45;&gt;Node123 -->
<g id="edge5" class="edge">
<title>Node122&#45;&gt;Node123</title>
<path fill="none" stroke="#191970" d="M426.587,-41.339C435.5862,-41.1702 444.8465,-40.9966 453.8902,-40.827"/>
<polygon fill="#191970" stroke="#191970" points="426.4955,-37.84 416.5629,-41.5269 426.6268,-44.8387 426.4955,-37.84"/>
</g>
<!-- Node124 -->
<g id="node7" class="node">
<title>Node124</title>
<g id="a_node7"><a xlink:href="NODE__SKETCH__TooAutomation__Node_8ino_8cpp.html#a0b33edabd7f1c4e4a0bf32c67269be2f" target="_top" xlink:title="loop">
<polygon fill="#ffffff" stroke="#000000" points="625,-30.0593 625,-49.0593 660,-49.0593 660,-30.0593 625,-30.0593"/>
<text text-anchor="middle" x="642.5" y="-37.0593" font-family="Helvetica,sans-Serif" font-size="10.00" fill="#000000">loop</text>
</a>
</g>
</g>
<!-- Node123&#45;&gt;Node124 -->
<g id="edge6" class="edge">
<title>Node123&#45;&gt;Node124</title>
<path fill="none" stroke="#191970" d="M599.1566,-39.5593C608.6588,-39.5593 617.5454,-39.5593 624.7679,-39.5593"/>
<polygon fill="#191970" stroke="#191970" points="599.0755,-36.0594 589.0754,-39.5593 599.0754,-43.0594 599.0755,-36.0594"/>
</g>
<!-- Node125&#45;&gt;Node122 -->
<g id="edge10" class="edge">
<title>Node125&#45;&gt;Node122</title>
<path fill="none" stroke="#191970" d="M279.0697,-52.4718C288.2707,-51.3654 297.534,-50.2515 306.3589,-49.1902"/>
<polygon fill="#191970" stroke="#191970" points="278.6442,-48.9977 269.1336,-53.6667 279.48,-55.9476 278.6442,-48.9977"/>
</g>
<!-- Node126 -->
<g id="node9" class="node">
<title>Node126</title>
<g id="a_node9"><a xlink:href="TooSigning_8h.html#ab8a2415b95a77c91ffbc6ebbde622f64" target="_top" xlink:title="TooSigning_get_hmac">
<polygon fill="#ffffff" stroke="#000000" points="305,-77.0593 305,-96.0593 418,-96.0593 418,-77.0593 305,-77.0593"/>
<text text-anchor="middle" x="361.5" y="-84.0593" font-family="Helvetica,sans-Serif" font-size="10.00" fill="#000000">TooSigning_get_hmac</text>
</a>
</g>
</g>
<!-- Node125&#45;&gt;Node126 -->
<g id="edge8" class="edge">
<title>Node125&#45;&gt;Node126</title>
<path fill="none" stroke="#191970" d="M273.6179,-72.6539C284.0719,-74.3081 294.736,-75.9954 304.8655,-77.5982"/>
<polygon fill="#191970" stroke="#191970" points="274.1079,-69.188 263.6838,-71.0821 273.0139,-76.102 274.1079,-69.188"/>
</g>
<!-- Node126&#45;&gt;Node121 -->
<g id="edge9" class="edge">
<title>Node126&#45;&gt;Node121</title>
<path fill="none" stroke="#191970" d="M428.5144,-87.397C441.33,-87.5572 454.6024,-87.7231 466.9684,-87.8777"/>
<polygon fill="#191970" stroke="#191970" points="428.4035,-83.8955 418.3605,-87.2701 428.316,-90.8949 428.4035,-83.8955"/>
</g>
<!-- Node127&#45;&gt;Node121 -->
<g id="edge12" class="edge">
<title>Node127&#45;&gt;Node121</title>
<path fill="none" stroke="#191970" d="M244.2522,-11.6041C289.2767,-.7677 362.7197,9.7315 418,-17.5593 441.5939,-29.2072 432.7293,-49.0705 454,-64.5593 458.625,-67.9271 463.7673,-70.8595 469.0916,-73.4043"/>
<polygon fill="#191970" stroke="#191970" points="243.3849,-8.2131 234.5444,-14.0523 245.0967,-15.0006 243.3849,-8.2131"/>
</g>
<!-- Node127&#45;&gt;Node122 -->
<g id="edge13" class="edge">
<title>Node127&#45;&gt;Node122</title>
<path fill="none" stroke="#191970" d="M271.8716,-31.7812C283.3541,-33.162 295.1417,-34.5795 306.2401,-35.9142"/>
<polygon fill="#191970" stroke="#191970" points="272.2308,-28.2993 261.8845,-30.5803 271.395,-35.2492 272.2308,-28.2993"/>
</g>
</g>
</svg>
