<?xml version="1.0" encoding="UTF-8" standalone="no"?>
<!DOCTYPE svg PUBLIC "-//W3C//DTD SVG 1.1//EN"
 "http://www.w3.org/Graphics/SVG/1.1/DTD/svg11.dtd">
<!-- Generated by graphviz version 2.40.1 (20161225.0304)
 -->
<!-- Title: Sha256Class::write Pages: 1 -->
<svg width="571pt" height="137pt"
 viewBox="0.00 0.00 571.00 137.17" xmlns="http://www.w3.org/2000/svg" xmlns:xlink="http://www.w3.org/1999/xlink">
<g id="graph0" class="graph" transform="scale(1 1) rotate(0) translate(4 133.1675)">
<title>Sha256Class::write</title>
<polygon fill="#ffffff" stroke="transparent" points="-4,4 -4,-133.1675 567,-133.1675 567,4 -4,4"/>
<!-- Node102 -->
<g id="node1" class="node">
<title>Node102</title>
<polygon fill="#bfbfbf" stroke="#000000" points="0,-46.6675 0,-65.6675 102,-65.6675 102,-46.6675 0,-46.6675"/>
<text text-anchor="middle" x="51" y="-53.6675" font-family="Helvetica,sans-Serif" font-size="10.00" fill="#000000">Sha256Class::write</text>
</g>
<!-- Node103 -->
<g id="node2" class="node">
<title>Node103</title>
<g id="a_node2"><a xlink:href="classSha256Class.html#a73d3dcea6eb667fd146d12aa5d106939" target="_top" xlink:title="Sha256Class::initHmac">
<polygon fill="#ffffff" stroke="#000000" points="143.5,-84.6675 143.5,-103.6675 263.5,-103.6675 263.5,-84.6675 143.5,-84.6675"/>
<text text-anchor="middle" x="203.5" y="-91.6675" font-family="Helvetica,sans-Serif" font-size="10.00" fill="#000000">Sha256Class::initHmac</text>
</a>
</g>
</g>
<!-- Node102&#45;&gt;Node103 -->
<g id="edge1" class="edge">
<title>Node102&#45;&gt;Node103</title>
<path fill="none" stroke="#191970" d="M99.3184,-68.2075C120.6234,-73.5163 145.3042,-79.6663 165.2945,-84.6475"/>
<polygon fill="#191970" stroke="#191970" points="100.0318,-64.7783 89.4822,-65.7565 98.3392,-71.5706 100.0318,-64.7783"/>
</g>
<!-- Node107 -->
<g id="node6" class="node">
<title>Node107</title>
<g id="a_node6"><a xlink:href="classSha256Class.html#a7556f29cadf7eaca21a537df41318af3" target="_top" xlink:title="Sha256Class::resultHmac">
<polygon fill="#ffffff" stroke="#000000" points="138,-46.6675 138,-65.6675 269,-65.6675 269,-46.6675 138,-46.6675"/>
<text text-anchor="middle" x="203.5" y="-53.6675" font-family="Helvetica,sans-Serif" font-size="10.00" fill="#000000">Sha256Class::resultHmac</text>
</a>
</g>
</g>
<!-- Node102&#45;&gt;Node107 -->
<g id="edge5" class="edge">
<title>Node102&#45;&gt;Node107</title>
<path fill="none" stroke="#191970" d="M112.292,-56.1675C120.6879,-56.1675 129.3357,-56.1675 137.8063,-56.1675"/>
<polygon fill="#191970" stroke="#191970" points="112.2046,-52.6676 102.2045,-56.1675 112.2045,-59.6676 112.2046,-52.6676"/>
</g>
<!-- Node109 -->
<g id="node8" class="node">
<title>Node109</title>
<g id="a_node8"><a xlink:href="group__TOOSIGNING__HASHING.html#gafb2935303b05255e80a7a6fa4be7cf57" target="_top" xlink:title="TooSigning_hash_data">
<polygon fill="#ffffff" stroke="#000000" points="145.5,-8.6675 145.5,-27.6675 261.5,-27.6675 261.5,-8.6675 145.5,-8.6675"/>
<text text-anchor="middle" x="203.5" y="-15.6675" font-family="Helvetica,sans-Serif" font-size="10.00" fill="#000000">TooSigning_hash_data</text>
</a>
</g>
</g>
<!-- Node102&#45;&gt;Node109 -->
<g id="edge9" class="edge">
<title>Node102&#45;&gt;Node109</title>
<path fill="none" stroke="#191970" d="M99.3184,-44.1275C120.6234,-38.8188 145.3042,-32.6688 165.2945,-27.6876"/>
<polygon fill="#191970" stroke="#191970" points="98.3392,-40.7644 89.4822,-46.5785 100.0318,-47.5567 98.3392,-40.7644"/>
</g>
<!-- Node104 -->
<g id="node3" class="node">
<title>Node104</title>
<g id="a_node3"><a xlink:href="TooSigning_8h.html#a1e2cd2b37702263e1fe166395350bf08" target="_top" xlink:title="TooSigning_init_hmac">
<polygon fill="#ffffff" stroke="#000000" points="305,-109.6675 305,-128.6675 418,-128.6675 418,-109.6675 305,-109.6675"/>
<text text-anchor="middle" x="361.5" y="-116.6675" font-family="Helvetica,sans-Serif" font-size="10.00" fill="#000000">TooSigning_init_hmac</text>
</a>
</g>
</g>
<!-- Node103&#45;&gt;Node104 -->
<g id="edge2" class="edge">
<title>Node103&#45;&gt;Node104</title>
<path fill="none" stroke="#191970" d="M273.6179,-105.2621C284.0719,-106.9163 294.736,-108.6036 304.8655,-110.2064"/>
<polygon fill="#191970" stroke="#191970" points="274.1079,-101.7962 263.6838,-103.6903 273.0139,-108.7102 274.1079,-101.7962"/>
</g>
<!-- Node106 -->
<g id="node5" class="node">
<title>Node106</title>
<g id="a_node5"><a xlink:href="TooSigning_8cpp.html#a03df9fd005c518d1114f912ae7da9f06" target="_top" xlink:title="TooSigning_unsigned\l_network_available">
<polygon fill="#ffffff" stroke="#000000" points="306.5,-22.1675 306.5,-52.1675 416.5,-52.1675 416.5,-22.1675 306.5,-22.1675"/>
<text text-anchor="start" x="314.5" y="-40.1675" font-family="Helvetica,sans-Serif" font-size="10.00" fill="#000000">TooSigning_unsigned</text>
<text text-anchor="middle" x="361.5" y="-29.1675" font-family="Helvetica,sans-Serif" font-size="10.00" fill="#000000">_network_available</text>
</a>
</g>
</g>
<!-- Node103&#45;&gt;Node106 -->
<g id="edge4" class="edge">
<title>Node103&#45;&gt;Node106</title>
<path fill="none" stroke="#191970" d="M248.8792,-81.6922C255.6612,-79.6292 262.5412,-77.4236 269,-75.1675 288.5043,-68.3545 309.8631,-59.6644 327.1377,-52.3145"/>
<polygon fill="#191970" stroke="#191970" points="247.6644,-78.4017 239.0732,-84.6019 249.6557,-85.1126 247.6644,-78.4017"/>
</g>
<!-- Node105 -->
<g id="node4" class="node">
<title>Node105</title>
<g id="a_node4"><a xlink:href="TooNetworking_8h.html#ab5dfe46515ee5ca8f9893675df673d96" target="_top" xlink:title="TooNetworking_send\l_signed">
<polygon fill="#ffffff" stroke="#000000" points="454,-66.1675 454,-96.1675 563,-96.1675 563,-66.1675 454,-66.1675"/>
<text text-anchor="start" x="462" y="-84.1675" font-family="Helvetica,sans-Serif" font-size="10.00" fill="#000000">TooNetworking_send</text>
<text text-anchor="middle" x="508.5" y="-73.1675" font-family="Helvetica,sans-Serif" font-size="10.00" fill="#000000">_signed</text>
</a>
</g>
</g>
<!-- Node104&#45;&gt;Node105 -->
<g id="edge3" class="edge">
<title>Node104&#45;&gt;Node105</title>
<path fill="none" stroke="#191970" d="M408.342,-107.0587C422.8398,-103.311 438.9382,-99.1495 453.9128,-95.2785"/>
<polygon fill="#191970" stroke="#191970" points="407.4001,-103.6871 398.5943,-109.5785 409.152,-110.4643 407.4001,-103.6871"/>
</g>
<!-- Node107&#45;&gt;Node106 -->
<g id="edge8" class="edge">
<title>Node107&#45;&gt;Node106</title>
<path fill="none" stroke="#191970" d="M279.0697,-47.08C288.2707,-45.9736 297.534,-44.8597 306.3589,-43.7984"/>
<polygon fill="#191970" stroke="#191970" points="278.6442,-43.6059 269.1336,-48.2749 279.48,-50.5558 278.6442,-43.6059"/>
</g>
<!-- Node108 -->
<g id="node7" class="node">
<title>Node108</title>
<g id="a_node7"><a xlink:href="TooSigning_8h.html#ab8a2415b95a77c91ffbc6ebbde622f64" target="_top" xlink:title="TooSigning_get_hmac">
<polygon fill="#ffffff" stroke="#000000" points="305,-71.6675 305,-90.6675 418,-90.6675 418,-71.6675 305,-71.6675"/>
<text text-anchor="middle" x="361.5" y="-78.6675" font-family="Helvetica,sans-Serif" font-size="10.00" fill="#000000">TooSigning_get_hmac</text>
</a>
</g>
</g>
<!-- Node107&#45;&gt;Node108 -->
<g id="edge6" class="edge">
<title>Node107&#45;&gt;Node108</title>
<path fill="none" stroke="#191970" d="M273.6179,-67.2621C284.0719,-68.9163 294.736,-70.6036 304.8655,-72.2064"/>
<polygon fill="#191970" stroke="#191970" points="274.1079,-63.7962 263.6838,-65.6903 273.0139,-70.7102 274.1079,-63.7962"/>
</g>
<!-- Node108&#45;&gt;Node105 -->
<g id="edge7" class="edge">
<title>Node108&#45;&gt;Node105</title>
<path fill="none" stroke="#191970" d="M428.5402,-81.1675C436.9787,-81.1675 445.5317,-81.1675 453.7496,-81.1675"/>
<polygon fill="#191970" stroke="#191970" points="428.3341,-77.6676 418.334,-81.1675 428.334,-84.6676 428.3341,-77.6676"/>
</g>
<!-- Node109&#45;&gt;Node105 -->
<g id="edge10" class="edge">
<title>Node109&#45;&gt;Node105</title>
<path fill="none" stroke="#191970" d="M255.4707,-6.8475C299.862,.5276 364.7896,5.8034 418,-12.1675 449.4476,-22.7884 478.5953,-49.1852 494.9184,-66.078"/>
<polygon fill="#191970" stroke="#191970" points="254.731,-3.4237 245.4863,-8.5991 255.9407,-10.3184 254.731,-3.4237"/>
</g>
<!-- Node109&#45;&gt;Node106 -->
<g id="edge11" class="edge">
<title>Node109&#45;&gt;Node106</title>
<path fill="none" stroke="#191970" d="M271.8716,-26.3894C283.3541,-27.7702 295.1417,-29.1877 306.2401,-30.5224"/>
<polygon fill="#191970" stroke="#191970" points="272.2308,-22.9075 261.8845,-25.1885 271.395,-29.8574 272.2308,-22.9075"/>
</g>
</g>
</svg>
