<?xml version="1.0" encoding="UTF-8" standalone="no"?>
<!DOCTYPE svg PUBLIC "-//W3C//DTD SVG 1.1//EN"
 "http://www.w3.org/Graphics/SVG/1.1/DTD/svg11.dtd">
<!-- Generated by graphviz version 2.40.1 (20161225.0304)
 -->
<!-- Title: ATSHA204Class::swi_send_byte Pages: 1 -->
<!--zoomable 130 -->
<svg id="main" version="1.1" xmlns="http://www.w3.org/2000/svg" xmlns:xlink="http://www.w3.org/1999/xlink" xml:space="preserve" onload="init(evt)">
<style type="text/css"><![CDATA[
.edge:hover path { stroke: red; }
.edge:hover polygon { stroke: red; fill: red; }
]]></style>
<script type="text/javascript"><![CDATA[
var edges = document.getElementsByTagName('g');
if (edges && edges.length) {
  for (var i=0;i<edges.length;i++) {
    if (edges[i].id.substr(0,4)=='edge') {
      edges[i].setAttribute('class','edge');
    }
  }
}
]]></script>
        <defs>
                <circle id="rim" cx="0" cy="0" r="7"/>
                <circle id="rim2" cx="0" cy="0" r="3.5"/>
                <g id="zoomPlus">
                        <use xlink:href="#rim" fill="#404040">
                                <set attributeName="fill" to="#808080" begin="zoomplus.mouseover" end="zoomplus.mouseout"/>
                        </use>
                        <path d="M-4,0h8M0,-4v8" fill="none" stroke="white" stroke-width="1.5" pointer-events="none"/>
                </g>
                <g id="zoomMin">
                        <use xlink:href="#rim" fill="#404040">
                                <set attributeName="fill" to="#808080" begin="zoomminus.mouseover" end="zoomminus.mouseout"/>
                        </use>
                        <path d="M-4,0h8" fill="none" stroke="white" stroke-width="1.5" pointer-events="none"/>
                </g>
                <g id="dirArrow">
                        <path fill="none" stroke="white" stroke-width="1.5" d="M0,-3.0v7 M-2.5,-0.5L0,-3.0L2.5,-0.5"/>
                </g>
               <g id="resetDef">
                       <use xlink:href="#rim2" fill="#404040">
                               <set attributeName="fill" to="#808080" begin="reset.mouseover" end="reset.mouseout"/>
                       </use>
               </g>
        </defs>

<script type="text/javascript">
var viewWidth = 1170;
var viewHeight = 130;
var sectionId = 'dynsection-19';
</script>
<script xlink:href="svgpan.js"/>
<svg id="graph" class="graph">
<g id="viewport">
<title>ATSHA204Class::swi_send_byte</title>
<polygon fill="#ffffff" stroke="transparent" points="-4,4 -4,-125.9293 1166,-125.9293 1166,4 -4,4"/>
<!-- Node128 -->
<g id="node1" class="node">
<title>Node128</title>
<polygon fill="#bfbfbf" stroke="#000000" points="0,-73.1454 0,-103.1454 113,-103.1454 113,-73.1454 0,-73.1454"/>
<text text-anchor="start" x="8" y="-91.1454" font-family="Helvetica,sans-Serif" font-size="10.00" fill="#000000">ATSHA204Class::swi</text>
<text text-anchor="middle" x="56.5" y="-80.1454" font-family="Helvetica,sans-Serif" font-size="10.00" fill="#000000">_send_byte</text>
</g>
<!-- Node129 -->
<g id="node2" class="node">
<title>Node129</title>
<g id="a_node2"><a xlink:href="classATSHA204Class.html#ac51be7c43d75dcc439d89ecb0493149b" target="_top" xlink:title="ATSHA204Class::sha204c\l_sleep">
<polygon fill="#ffffff" stroke="#000000" points="319,-73.1454 319,-103.1454 453,-103.1454 453,-73.1454 319,-73.1454"/>
<text text-anchor="start" x="327" y="-91.1454" font-family="Helvetica,sans-Serif" font-size="10.00" fill="#000000">ATSHA204Class::sha204c</text>
<text text-anchor="middle" x="386" y="-80.1454" font-family="Helvetica,sans-Serif" font-size="10.00" fill="#000000">_sleep</text>
</a>
</g>
</g>
<!-- Node128&#45;&gt;Node129 -->
<g id="edge1" class="edge">
<title>Node128&#45;&gt;Node129</title>
<path fill="none" stroke="#191970" d="M123.4768,-88.1454C180.4014,-88.1454 261.7271,-88.1454 318.734,-88.1454"/>
<polygon fill="#191970" stroke="#191970" points="123.1431,-84.6455 113.1431,-88.1454 123.143,-91.6455 123.1431,-84.6455"/>
</g>
<!-- Node131 -->
<g id="node4" class="node">
<title>Node131</title>
<g id="a_node4"><a xlink:href="classATSHA204Class.html#a3689222ad46022e5c50ba484053d9b2c" target="_top" xlink:title="ATSHA204Class::sha204c\l_send_and_receive">
<polygon fill="#ffffff" stroke="#000000" points="659,-24.1454 659,-54.1454 793,-54.1454 793,-24.1454 659,-24.1454"/>
<text text-anchor="start" x="667" y="-42.1454" font-family="Helvetica,sans-Serif" font-size="10.00" fill="#000000">ATSHA204Class::sha204c</text>
<text text-anchor="middle" x="726" y="-31.1454" font-family="Helvetica,sans-Serif" font-size="10.00" fill="#000000">_send_and_receive</text>
</a>
</g>
</g>
<!-- Node128&#45;&gt;Node131 -->
<g id="edge12" class="edge">
<title>Node128&#45;&gt;Node131</title>
<path fill="none" stroke="#191970" d="M123.2296,-98.9396C131.8852,-100.1354 140.6432,-101.2443 149,-102.1454 283.4203,-116.6397 318.9829,-130.987 453,-113.1454 536.7239,-101.9993 631.1804,-72.426 684.1532,-54.2185"/>
<polygon fill="#191970" stroke="#191970" points="123.5395,-95.4485 113.1458,-97.5031 122.5522,-102.3785 123.5395,-95.4485"/>
</g>
<!-- Node135 -->
<g id="node8" class="node">
<title>Node135</title>
<g id="a_node8"><a xlink:href="classATSHA204Class.html#ae5c777e2388de999d13afef7008a36a7" target="_top" xlink:title="ATSHA204Class::sha204p\l_receive_response">
<polygon fill="#ffffff" stroke="#000000" points="149,-2.1454 149,-32.1454 283,-32.1454 283,-2.1454 149,-2.1454"/>
<text text-anchor="start" x="157" y="-20.1454" font-family="Helvetica,sans-Serif" font-size="10.00" fill="#000000">ATSHA204Class::sha204p</text>
<text text-anchor="middle" x="216" y="-9.1454" font-family="Helvetica,sans-Serif" font-size="10.00" fill="#000000">_receive_response</text>
</a>
</g>
</g>
<!-- Node128&#45;&gt;Node135 -->
<g id="edge7" class="edge">
<title>Node128&#45;&gt;Node135</title>
<path fill="none" stroke="#191970" d="M99.5637,-68.976C125.5285,-57.418 158.1272,-42.9069 182.2229,-32.181"/>
<polygon fill="#191970" stroke="#191970" points="98.0382,-65.8238 90.3258,-73.0881 100.885,-72.2189 98.0382,-65.8238"/>
</g>
<!-- Node130 -->
<g id="node3" class="node">
<title>Node130</title>
<g id="a_node3"><a xlink:href="classATSHA204Class.html#a0d8eab6a8af231835dd5b6734df0d670" target="_top" xlink:title="ATSHA204Class::sha204c\l_resync">
<polygon fill="#ffffff" stroke="#000000" points="489,-24.1454 489,-54.1454 623,-54.1454 623,-24.1454 489,-24.1454"/>
<text text-anchor="start" x="497" y="-42.1454" font-family="Helvetica,sans-Serif" font-size="10.00" fill="#000000">ATSHA204Class::sha204c</text>
<text text-anchor="middle" x="556" y="-31.1454" font-family="Helvetica,sans-Serif" font-size="10.00" fill="#000000">_resync</text>
</a>
</g>
</g>
<!-- Node129&#45;&gt;Node130 -->
<g id="edge2" class="edge">
<title>Node129&#45;&gt;Node130</title>
<path fill="none" stroke="#191970" d="M448.0815,-70.2513C466.3664,-64.981 486.1804,-59.2699 503.7802,-54.197"/>
<polygon fill="#191970" stroke="#191970" points="447.0322,-66.9112 438.3928,-73.0439 448.971,-73.6374 447.0322,-66.9112"/>
</g>
<!-- Node130&#45;&gt;Node131 -->
<g id="edge3" class="edge">
<title>Node130&#45;&gt;Node131</title>
<path fill="none" stroke="#191970" d="M633.4246,-39.1454C641.8759,-39.1454 650.4279,-39.1454 658.7428,-39.1454"/>
<polygon fill="#191970" stroke="#191970" points="633.1885,-35.6455 623.1885,-39.1454 633.1885,-42.6455 633.1885,-35.6455"/>
</g>
<!-- Node132 -->
<g id="node5" class="node">
<title>Node132</title>
<g id="a_node5"><a xlink:href="classATSHA204Class.html#a6bcaa1359ac7392ed066641323fe8d5d" target="_top" xlink:title="ATSHA204Class::sha204m_read">
<polygon fill="#ffffff" stroke="#000000" points="829,-51.6454 829,-70.6454 990,-70.6454 990,-51.6454 829,-51.6454"/>
<text text-anchor="middle" x="909.5" y="-58.6454" font-family="Helvetica,sans-Serif" font-size="10.00" fill="#000000">ATSHA204Class::sha204m_read</text>
</a>
</g>
</g>
<!-- Node131&#45;&gt;Node132 -->
<g id="edge4" class="edge">
<title>Node131&#45;&gt;Node132</title>
<path fill="none" stroke="#191970" d="M803.0565,-48.3838C812.0293,-49.4595 821.1946,-50.5584 830.1971,-51.6377"/>
<polygon fill="#191970" stroke="#191970" points="803.3722,-44.8966 793.0266,-47.1813 802.5389,-51.8469 803.3722,-44.8966"/>
</g>
<!-- Node134 -->
<g id="node7" class="node">
<title>Node134</title>
<g id="a_node7"><a xlink:href="classATSHA204Class.html#a8600d67f5c574e1584ef5555429f305b" target="_top" xlink:title="ATSHA204Class::sha204m\l_execute">
<polygon fill="#ffffff" stroke="#000000" points="841,-2.1454 841,-32.1454 978,-32.1454 978,-2.1454 841,-2.1454"/>
<text text-anchor="start" x="849" y="-20.1454" font-family="Helvetica,sans-Serif" font-size="10.00" fill="#000000">ATSHA204Class::sha204m</text>
<text text-anchor="middle" x="909.5" y="-9.1454" font-family="Helvetica,sans-Serif" font-size="10.00" fill="#000000">_execute</text>
</a>
</g>
</g>
<!-- Node131&#45;&gt;Node134 -->
<g id="edge6" class="edge">
<title>Node131&#45;&gt;Node134</title>
<path fill="none" stroke="#191970" d="M802.9927,-29.9147C815.5439,-28.4099 828.4735,-26.8597 840.8084,-25.3809"/>
<polygon fill="#191970" stroke="#191970" points="802.5389,-26.4439 793.0266,-31.1095 803.3722,-33.3941 802.5389,-26.4439"/>
</g>
<!-- Node133 -->
<g id="node6" class="node">
<title>Node133</title>
<g id="a_node6"><a xlink:href="classATSHA204Class.html#ade50092ec236d13cde64e7684b59ab7b" target="_top" xlink:title="ATSHA204Class::getSerial\lNumber">
<polygon fill="#ffffff" stroke="#000000" points="1026,-46.1454 1026,-76.1454 1162,-76.1454 1162,-46.1454 1026,-46.1454"/>
<text text-anchor="start" x="1034" y="-64.1454" font-family="Helvetica,sans-Serif" font-size="10.00" fill="#000000">ATSHA204Class::getSerial</text>
<text text-anchor="middle" x="1094" y="-53.1454" font-family="Helvetica,sans-Serif" font-size="10.00" fill="#000000">Number</text>
</a>
</g>
</g>
<!-- Node132&#45;&gt;Node133 -->
<g id="edge5" class="edge">
<title>Node132&#45;&gt;Node133</title>
<path fill="none" stroke="#191970" d="M1000.2634,-61.1454C1008.8956,-61.1454 1017.5452,-61.1454 1025.9096,-61.1454"/>
<polygon fill="#191970" stroke="#191970" points="1000.156,-57.6455 990.156,-61.1454 1000.156,-64.6455 1000.156,-57.6455"/>
</g>
<!-- Node135&#45;&gt;Node130 -->
<g id="edge10" class="edge">
<title>Node135&#45;&gt;Node130</title>
<path fill="none" stroke="#191970" d="M293.1604,-11.061C339.6322,-8.664 399.8996,-7.7934 453,-14.1454 469.9919,-16.178 488.2314,-20.0331 504.5695,-24.1183"/>
<polygon fill="#191970" stroke="#191970" points="292.9545,-7.5669 283.1619,-11.611 293.3391,-14.5563 292.9545,-7.5669"/>
</g>
<!-- Node135&#45;&gt;Node131 -->
<g id="edge11" class="edge">
<title>Node135&#45;&gt;Node131</title>
<path fill="none" stroke="#191970" d="M293.3409,-7.9888C301.9869,-7.2322 310.6747,-6.5887 319,-6.1454 453.9667,1.0411 489.2134,5.0587 623,-14.1454 639.3019,-16.4854 656.7946,-20.2449 672.6529,-24.1454"/>
<polygon fill="#191970" stroke="#191970" points="292.8697,-4.5173 283.2346,-8.9237 293.5146,-11.4876 292.8697,-4.5173"/>
</g>
<!-- Node136 -->
<g id="node9" class="node">
<title>Node136</title>
<g id="a_node9"><a xlink:href="classATSHA204Class.html#a2772385d612dee11f65c310334d7952b" target="_top" xlink:title="ATSHA204Class::sha204c\l_wakeup">
<polygon fill="#ffffff" stroke="#000000" points="319,-24.1454 319,-54.1454 453,-54.1454 453,-24.1454 319,-24.1454"/>
<text text-anchor="start" x="327" y="-42.1454" font-family="Helvetica,sans-Serif" font-size="10.00" fill="#000000">ATSHA204Class::sha204c</text>
<text text-anchor="middle" x="386" y="-31.1454" font-family="Helvetica,sans-Serif" font-size="10.00" fill="#000000">_wakeup</text>
</a>
</g>
</g>
<!-- Node135&#45;&gt;Node136 -->
<g id="edge8" class="edge">
<title>Node135&#45;&gt;Node136</title>
<path fill="none" stroke="#191970" d="M293.146,-27.129C301.6879,-28.2344 310.3366,-29.3536 318.7428,-30.4415"/>
<polygon fill="#191970" stroke="#191970" points="293.555,-23.6528 283.1885,-25.8404 292.6566,-30.5949 293.555,-23.6528"/>
</g>
<!-- Node136&#45;&gt;Node130 -->
<g id="edge9" class="edge">
<title>Node136&#45;&gt;Node130</title>
<path fill="none" stroke="#191970" d="M463.4246,-39.1454C471.8759,-39.1454 480.4279,-39.1454 488.7428,-39.1454"/>
<polygon fill="#191970" stroke="#191970" points="463.1885,-35.6455 453.1885,-39.1454 463.1885,-42.6455 463.1885,-35.6455"/>
</g>
</g>
</svg>
        <g id="navigator" transform="translate(0 0)" fill="#404254">
                <rect fill="#f2f5e9" fill-opacity="0.5" stroke="#606060" stroke-width=".5" x="0" y="0" width="60" height="60"/>
                <use id="zoomplus" xlink:href="#zoomPlus" x="17" y="9" onmousedown="handleZoom(evt,'in')"/>
                <use id="zoomminus" xlink:href="#zoomMin" x="42" y="9" onmousedown="handleZoom(evt,'out')"/>
                <use id="reset" xlink:href="#resetDef" x="30" y="36" onmousedown="handleReset()"/>
                <g id="arrowUp" xlink:href="#dirArrow" transform="translate(30 24)" onmousedown="handlePan(0,-1)">
                  <use xlink:href="#rim" fill="#404040">
                        <set attributeName="fill" to="#808080" begin="arrowUp.mouseover" end="arrowUp.mouseout"/>
                  </use>
                  <path fill="none" stroke="white" stroke-width="1.5" d="M0,-3.0v7 M-2.5,-0.5L0,-3.0L2.5,-0.5"/>
                </g>
                <g id="arrowRight" xlink:href="#dirArrow" transform="rotate(90) translate(36 -43)" onmousedown="handlePan(1,0)">
                  <use xlink:href="#rim" fill="#404040">
                        <set attributeName="fill" to="#808080" begin="arrowRight.mouseover" end="arrowRight.mouseout"/>
                  </use>
                  <path fill="none" stroke="white" stroke-width="1.5" d="M0,-3.0v7 M-2.5,-0.5L0,-3.0L2.5,-0.5"/>
                </g>
                <g id="arrowDown" xlink:href="#dirArrow" transform="rotate(180) translate(-30 -48)" onmousedown="handlePan(0,1)">
                  <use xlink:href="#rim" fill="#404040">
                        <set attributeName="fill" to="#808080" begin="arrowDown.mouseover" end="arrowDown.mouseout"/>
                  </use>
                  <path fill="none" stroke="white" stroke-width="1.5" d="M0,-3.0v7 M-2.5,-0.5L0,-3.0L2.5,-0.5"/>
                </g>
                <g id="arrowLeft" xlink:href="#dirArrow" transform="rotate(270) translate(-36 17)" onmousedown="handlePan(-1,0)">
                  <use xlink:href="#rim" fill="#404040">
                        <set attributeName="fill" to="#808080" begin="arrowLeft.mouseover" end="arrowLeft.mouseout"/>
                  </use>
                  <path fill="none" stroke="white" stroke-width="1.5" d="M0,-3.0v7 M-2.5,-0.5L0,-3.0L2.5,-0.5"/>
                </g>
        </g>
        <svg viewBox="0 0 15 15" width="100%" height="30px" preserveAspectRatio="xMaxYMin meet">
         <g id="arrow_out" transform="scale(0.3 0.3)">
          <a xlink:href="classATSHA204Class_abe55ac783f1a37777bd09b7fc369ebc9_icgraph_org.svg" target="_base">
           <rect id="button" ry="5" rx="5" y="6" x="6" height="38" width="38"
                fill="#f2f5e9" fill-opacity="0.5" stroke="#606060" stroke-width="1.0"/>
           <path id="arrow"
             d="M 11.500037,31.436501 C 11.940474,20.09759 22.043105,11.32322 32.158766,21.979434 L 37.068811,17.246167 C 37.068811,17.246167 37.088388,32 37.088388,32 L 22.160133,31.978069 C 22.160133,31.978069 26.997745,27.140456 26.997745,27.140456 C 18.528582,18.264221 13.291696,25.230495 11.500037,31.436501 z"
             style="fill:#404040;"/>
          </a>
         </g>
        </svg>
</svg>
