<?xml version="1.0" encoding="UTF-8" standalone="no"?>
<!DOCTYPE svg PUBLIC "-//W3C//DTD SVG 1.1//EN"
 "http://www.w3.org/Graphics/SVG/1.1/DTD/svg11.dtd">
<!-- Generated by graphviz version 2.40.1 (20161225.0304)
 -->
<!-- Title: TooSigning_hash_data Pages: 1 -->
<svg width="694pt" height="169pt"
 viewBox="0.00 0.00 694.00 169.00" xmlns="http://www.w3.org/2000/svg" xmlns:xlink="http://www.w3.org/1999/xlink">
<g id="graph0" class="graph" transform="scale(1 1) rotate(0) translate(4 165)">
<title>TooSigning_hash_data</title>
<polygon fill="#ffffff" stroke="transparent" points="-4,4 -4,-165 690,-165 690,4 -4,4"/>
<!-- Node10 -->
<g id="node1" class="node">
<title>Node10</title>
<polygon fill="#bfbfbf" stroke="#000000" points="0,-30 0,-49 116,-49 116,-30 0,-30"/>
<text text-anchor="middle" x="58" y="-37" font-family="Helvetica,sans-Serif" font-size="10.00" fill="#000000">TooSigning_hash_data</text>
</g>
<!-- Node11 -->
<g id="node2" class="node">
<title>Node11</title>
<g id="a_node2"><a xlink:href="TooNetworking_8h.html#a9f893c3218491ee86282fdcd9f376500" target="_top" xlink:title="TooNetworking_send\l_signed_">
<polygon fill="#ffffff" stroke="#000000" points="152.5,-68.5 152.5,-98.5 261.5,-98.5 261.5,-68.5 152.5,-68.5"/>
<text text-anchor="start" x="160.5" y="-86.5" font-family="Helvetica,sans-Serif" font-size="10.00" fill="#000000">TooNetworking_send</text>
<text text-anchor="middle" x="207" y="-75.5" font-family="Helvetica,sans-Serif" font-size="10.00" fill="#000000">_signed_</text>
</a>
</g>
</g>
<!-- Node10&#45;&gt;Node11 -->
<g id="edge1" class="edge">
<title>Node10&#45;&gt;Node11</title>
<path fill="none" stroke="#191970" d="M100.178,-51.9553C117.5367,-57.0813 137.7995,-63.0649 155.9832,-68.4346"/>
<polygon fill="#191970" stroke="#191970" points="100.9126,-48.5228 90.3308,-49.0473 98.9301,-55.2362 100.9126,-48.5228"/>
</g>
<!-- Node17 -->
<g id="node8" class="node">
<title>Node17</title>
<g id="a_node8"><a xlink:href="TooSigning_8cpp.html#a03df9fd005c518d1114f912ae7da9f06" target="_top" xlink:title="TooSigning_unsigned\l_network_available">
<polygon fill="#ffffff" stroke="#000000" points="152,-.5 152,-30.5 262,-30.5 262,-.5 152,-.5"/>
<text text-anchor="start" x="160" y="-18.5" font-family="Helvetica,sans-Serif" font-size="10.00" fill="#000000">TooSigning_unsigned</text>
<text text-anchor="middle" x="207" y="-7.5" font-family="Helvetica,sans-Serif" font-size="10.00" fill="#000000">_network_available</text>
</a>
</g>
</g>
<!-- Node10&#45;&gt;Node17 -->
<g id="edge9" class="edge">
<title>Node10&#45;&gt;Node17</title>
<path fill="none" stroke="#191970" d="M126.071,-28.5356C134.69,-27.1472 143.4247,-25.7403 151.809,-24.3898"/>
<polygon fill="#191970" stroke="#191970" points="125.3501,-25.1065 116.0339,-30.1523 126.4633,-32.0174 125.3501,-25.1065"/>
</g>
<!-- Node12 -->
<g id="node3" class="node">
<title>Node12</title>
<g id="a_node3"><a xlink:href="TooNetworking_8h.html#a59be7e774988f57ab43c4c078c570c67" target="_top" xlink:title="TooNetworking_bufferlist_add">
<polygon fill="#ffffff" stroke="#000000" points="298,-112 298,-131 444,-131 444,-112 298,-112"/>
<text text-anchor="middle" x="371" y="-119" font-family="Helvetica,sans-Serif" font-size="10.00" fill="#000000">TooNetworking_bufferlist_add</text>
</a>
</g>
</g>
<!-- Node11&#45;&gt;Node12 -->
<g id="edge2" class="edge">
<title>Node11&#45;&gt;Node12</title>
<path fill="none" stroke="#191970" d="M271.4333,-98.4297C291.0999,-102.9866 312.181,-107.8712 329.859,-111.9673"/>
<polygon fill="#191970" stroke="#191970" points="272.1416,-95.0011 261.6096,-96.1534 270.5615,-101.8205 272.1416,-95.0011"/>
</g>
<!-- Node13 -->
<g id="node4" class="node">
<title>Node13</title>
<g id="a_node4"><a xlink:href="TooNetworking_8h.html#a9209f3e1a2fdf0b3b88d49105b8fc359" target="_top" xlink:title="TooNetworking_send\l_signed">
<polygon fill="#ffffff" stroke="#000000" points="493,-130.5 493,-160.5 602,-160.5 602,-130.5 493,-130.5"/>
<text text-anchor="start" x="501" y="-148.5" font-family="Helvetica,sans-Serif" font-size="10.00" fill="#000000">TooNetworking_send</text>
<text text-anchor="middle" x="547.5" y="-137.5" font-family="Helvetica,sans-Serif" font-size="10.00" fill="#000000">_signed</text>
</a>
</g>
</g>
<!-- Node11&#45;&gt;Node13 -->
<g id="edge6" class="edge">
<title>Node11&#45;&gt;Node13</title>
<path fill="none" stroke="#191970" d="M232.6377,-104.8669C249.9232,-117.8681 273.8968,-133.3122 298,-140.5 362.768,-159.8143 441.2488,-157.446 492.6791,-152.6486"/>
<polygon fill="#191970" stroke="#191970" points="234.7659,-102.0882 224.7181,-98.7277 230.4772,-107.6206 234.7659,-102.0882"/>
</g>
<!-- Node14 -->
<g id="node5" class="node">
<title>Node14</title>
<g id="a_node5"><a xlink:href="TooNetworking_8h.html#a085ff748b00f6be4ebafcae2bb0dded1" target="_top" xlink:title="TooNetworking_bufferlist\l_send_signed">
<polygon fill="#ffffff" stroke="#000000" points="485,-68.5 485,-98.5 610,-98.5 610,-68.5 485,-68.5"/>
<text text-anchor="start" x="493" y="-86.5" font-family="Helvetica,sans-Serif" font-size="10.00" fill="#000000">TooNetworking_bufferlist</text>
<text text-anchor="middle" x="547.5" y="-75.5" font-family="Helvetica,sans-Serif" font-size="10.00" fill="#000000">_send_signed</text>
</a>
</g>
</g>
<!-- Node11&#45;&gt;Node14 -->
<g id="edge7" class="edge">
<title>Node11&#45;&gt;Node14</title>
<path fill="none" stroke="#191970" d="M272.0236,-83.5C333.2617,-83.5 424.381,-83.5 484.8364,-83.5"/>
<polygon fill="#191970" stroke="#191970" points="271.7072,-80.0001 261.7072,-83.5 271.7072,-87.0001 271.7072,-80.0001"/>
</g>
<!-- Node16 -->
<g id="node7" class="node">
<title>Node16</title>
<g id="a_node7"><a xlink:href="TooNetworking_8h.html#ab58e06e0eb6f2f8ecbebeaf3c173fb22" target="_top" xlink:title="TooNetworking_bufferlist\l_send_all">
<polygon fill="#ffffff" stroke="#000000" points="308.5,-24.5 308.5,-54.5 433.5,-54.5 433.5,-24.5 308.5,-24.5"/>
<text text-anchor="start" x="316.5" y="-42.5" font-family="Helvetica,sans-Serif" font-size="10.00" fill="#000000">TooNetworking_bufferlist</text>
<text text-anchor="middle" x="371" y="-31.5" font-family="Helvetica,sans-Serif" font-size="10.00" fill="#000000">_send_all</text>
</a>
</g>
</g>
<!-- Node11&#45;&gt;Node16 -->
<g id="edge8" class="edge">
<title>Node11&#45;&gt;Node16</title>
<path fill="none" stroke="#191970" d="M271.4209,-66.2164C285.8008,-62.3583 300.9375,-58.2973 314.9476,-54.5385"/>
<polygon fill="#191970" stroke="#191970" points="270.3611,-62.8768 261.6096,-68.8486 272.175,-69.6377 270.3611,-62.8768"/>
</g>
<!-- Node12&#45;&gt;Node13 -->
<g id="edge3" class="edge">
<title>Node12&#45;&gt;Node13</title>
<path fill="none" stroke="#191970" d="M451.1957,-132.4048C465.2782,-134.3197 479.6365,-136.2721 492.8202,-138.0648"/>
<polygon fill="#191970" stroke="#191970" points="451.3914,-128.8993 441.011,-131.0199 450.4482,-135.8354 451.3914,-128.8993"/>
</g>
<!-- Node12&#45;&gt;Node14 -->
<g id="edge4" class="edge">
<title>Node12&#45;&gt;Node14</title>
<path fill="none" stroke="#191970" d="M425.4371,-109.7798C444.2773,-105.7236 465.5399,-101.1458 484.9777,-96.9609"/>
<polygon fill="#191970" stroke="#191970" points="424.5777,-106.3846 415.5384,-111.911 426.0511,-113.2278 424.5777,-106.3846"/>
</g>
<!-- Node15 -->
<g id="node6" class="node">
<title>Node15</title>
<g id="a_node6"><a xlink:href="NODE__SKETCH__TooAutomation__Node_8ino_8cpp.html#a0b33edabd7f1c4e4a0bf32c67269be2f" target="_top" xlink:title="loop">
<polygon fill="#ffffff" stroke="#000000" points="651,-30 651,-49 686,-49 686,-30 651,-30"/>
<text text-anchor="middle" x="668.5" y="-37" font-family="Helvetica,sans-Serif" font-size="10.00" fill="#000000">loop</text>
</a>
</g>
</g>
<!-- Node14&#45;&gt;Node15 -->
<g id="edge5" class="edge">
<title>Node14&#45;&gt;Node15</title>
<path fill="none" stroke="#191970" d="M598.447,-64.9738C617.183,-58.1607 637.1731,-50.8916 650.9833,-45.8697"/>
<polygon fill="#191970" stroke="#191970" points="597.0047,-61.774 588.8029,-68.4808 599.397,-68.3525 597.0047,-61.774"/>
</g>
<!-- Node18 -->
<g id="node9" class="node">
<title>Node18</title>
<g id="a_node9"><a xlink:href="TooNetworking_8h.html#a7382ba1aed5405c3adc02011ea6c45dd" target="_top" xlink:title="TooNetworking_connection\l_maintenance">
<polygon fill="#ffffff" stroke="#000000" points="480,-.5 480,-30.5 615,-30.5 615,-.5 480,-.5"/>
<text text-anchor="start" x="488" y="-18.5" font-family="Helvetica,sans-Serif" font-size="10.00" fill="#000000">TooNetworking_connection</text>
<text text-anchor="middle" x="547.5" y="-7.5" font-family="Helvetica,sans-Serif" font-size="10.00" fill="#000000">_maintenance</text>
</a>
</g>
</g>
<!-- Node17&#45;&gt;Node18 -->
<g id="edge10" class="edge">
<title>Node17&#45;&gt;Node18</title>
<path fill="none" stroke="#191970" d="M272.3794,-14.6952C280.996,-14.6144 289.7103,-14.5455 298,-14.5 362.8879,-14.1435 379.1119,-14.1865 444,-14.5 455.5902,-14.556 467.9103,-14.6472 479.8567,-14.7524"/>
<polygon fill="#191970" stroke="#191970" points="272.3052,-11.1956 262.3404,-14.7947 272.3747,-18.1953 272.3052,-11.1956"/>
</g>
<!-- Node18&#45;&gt;Node15 -->
<g id="edge11" class="edge">
<title>Node18&#45;&gt;Node15</title>
<path fill="none" stroke="#191970" d="M625.1566,-30.903C634.6588,-32.7877 643.5454,-34.5503 650.7679,-35.9829"/>
<polygon fill="#191970" stroke="#191970" points="625.5653,-27.4159 615.0754,-28.9034 624.2034,-34.2822 625.5653,-27.4159"/>
</g>
</g>
</svg>
