<?xml version="1.0" encoding="UTF-8" standalone="no"?>
<!DOCTYPE svg PUBLIC "-//W3C//DTD SVG 1.1//EN"
 "http://www.w3.org/Graphics/SVG/1.1/DTD/svg11.dtd">
<!-- Generated by graphviz version 2.40.1 (20161225.0304)
 -->
<!-- Title: TooSigning_sent_noncelist_initialize Pages: 1 -->
<svg width="746pt" height="118pt"
 viewBox="0.00 0.00 746.00 117.50" xmlns="http://www.w3.org/2000/svg" xmlns:xlink="http://www.w3.org/1999/xlink">
<g id="graph0" class="graph" transform="scale(1 1) rotate(0) translate(4 113.5)">
<title>TooSigning_sent_noncelist_initialize</title>
<polygon fill="#ffffff" stroke="transparent" points="-4,4 -4,-113.5 742,-113.5 742,4 -4,4"/>
<!-- Node22 -->
<g id="node1" class="node">
<title>Node22</title>
<polygon fill="#bfbfbf" stroke="#000000" points="0,-54 0,-84 134,-84 134,-54 0,-54"/>
<text text-anchor="start" x="8" y="-72" font-family="Helvetica,sans-Serif" font-size="10.00" fill="#000000">TooSigning_sent_noncelist</text>
<text text-anchor="middle" x="67" y="-61" font-family="Helvetica,sans-Serif" font-size="10.00" fill="#000000">_initialize</text>
</g>
<!-- Node23 -->
<g id="node2" class="node">
<title>Node23</title>
<g id="a_node2"><a xlink:href="TooSigning_8h.html#a15dc10b22577187e282a5b1da9ffec08" target="_top" xlink:title="TooSigning_sent_noncelist_add">
<polygon fill="#ffffff" stroke="#000000" points="170,-82.5 170,-101.5 325,-101.5 325,-82.5 170,-82.5"/>
<text text-anchor="middle" x="247.5" y="-89.5" font-family="Helvetica,sans-Serif" font-size="10.00" fill="#000000">TooSigning_sent_noncelist_add</text>
</a>
</g>
</g>
<!-- Node22&#45;&gt;Node23 -->
<g id="edge1" class="edge">
<title>Node22&#45;&gt;Node23</title>
<path fill="none" stroke="#191970" d="M144.3101,-78.8512C153.704,-80.0482 163.2889,-81.2695 172.6463,-82.4619"/>
<polygon fill="#191970" stroke="#191970" points="144.5738,-75.3565 134.2115,-77.5644 143.6889,-82.3004 144.5738,-75.3565"/>
</g>
<!-- Node27 -->
<g id="node6" class="node">
<title>Node27</title>
<g id="a_node6"><a xlink:href="TooSigning_8h.html#a9aff748f7fc40b75d1a3400400fbf94c" target="_top" xlink:title="TooSigning_signed_network\l_begin">
<polygon fill="#ffffff" stroke="#000000" points="178,-32 178,-62 317,-62 317,-32 178,-32"/>
<text text-anchor="start" x="186" y="-50" font-family="Helvetica,sans-Serif" font-size="10.00" fill="#000000">TooSigning_signed_network</text>
<text text-anchor="middle" x="247.5" y="-39" font-family="Helvetica,sans-Serif" font-size="10.00" fill="#000000">_begin</text>
</a>
</g>
</g>
<!-- Node22&#45;&gt;Node27 -->
<g id="edge5" class="edge">
<title>Node22&#45;&gt;Node27</title>
<path fill="none" stroke="#191970" d="M144.3341,-59.5742C155.4601,-58.2182 166.8534,-56.8295 177.8189,-55.493"/>
<polygon fill="#191970" stroke="#191970" points="143.7146,-56.1238 134.2115,-60.808 144.5616,-63.0723 143.7146,-56.1238"/>
</g>
<!-- Node24 -->
<g id="node3" class="node">
<title>Node24</title>
<g id="a_node3"><a xlink:href="TooSigning_8cpp.html#a03df9fd005c518d1114f912ae7da9f06" target="_top" xlink:title="TooSigning_unsigned\l_network_available">
<polygon fill="#ffffff" stroke="#000000" points="373.5,-79 373.5,-109 483.5,-109 483.5,-79 373.5,-79"/>
<text text-anchor="start" x="381.5" y="-97" font-family="Helvetica,sans-Serif" font-size="10.00" fill="#000000">TooSigning_unsigned</text>
<text text-anchor="middle" x="428.5" y="-86" font-family="Helvetica,sans-Serif" font-size="10.00" fill="#000000">_network_available</text>
</a>
</g>
</g>
<!-- Node23&#45;&gt;Node24 -->
<g id="edge2" class="edge">
<title>Node23&#45;&gt;Node24</title>
<path fill="none" stroke="#191970" d="M335.3649,-92.9709C348.2734,-93.1135 361.2535,-93.2569 373.2534,-93.3895"/>
<polygon fill="#191970" stroke="#191970" points="335.0861,-89.4677 325.048,-92.8569 335.0086,-96.4673 335.0861,-89.4677"/>
</g>
<!-- Node25 -->
<g id="node4" class="node">
<title>Node25</title>
<g id="a_node4"><a xlink:href="TooNetworking_8h.html#a7382ba1aed5405c3adc02011ea6c45dd" target="_top" xlink:title="TooNetworking_connection\l_maintenance">
<polygon fill="#ffffff" stroke="#000000" points="532,-79 532,-109 667,-109 667,-79 532,-79"/>
<text text-anchor="start" x="540" y="-97" font-family="Helvetica,sans-Serif" font-size="10.00" fill="#000000">TooNetworking_connection</text>
<text text-anchor="middle" x="599.5" y="-86" font-family="Helvetica,sans-Serif" font-size="10.00" fill="#000000">_maintenance</text>
</a>
</g>
</g>
<!-- Node24&#45;&gt;Node25 -->
<g id="edge3" class="edge">
<title>Node24&#45;&gt;Node25</title>
<path fill="none" stroke="#191970" d="M493.8634,-94C506.3451,-94 519.4339,-94 531.9815,-94"/>
<polygon fill="#191970" stroke="#191970" points="493.5468,-90.5001 483.5467,-94 493.5467,-97.5001 493.5468,-90.5001"/>
</g>
<!-- Node26 -->
<g id="node5" class="node">
<title>Node26</title>
<g id="a_node5"><a xlink:href="NODE__SKETCH__TooAutomation__Node_8ino_8cpp.html#a0b33edabd7f1c4e4a0bf32c67269be2f" target="_top" xlink:title="loop">
<polygon fill="#ffffff" stroke="#000000" points="703,-84.5 703,-103.5 738,-103.5 738,-84.5 703,-84.5"/>
<text text-anchor="middle" x="720.5" y="-91.5" font-family="Helvetica,sans-Serif" font-size="10.00" fill="#000000">loop</text>
</a>
</g>
</g>
<!-- Node25&#45;&gt;Node26 -->
<g id="edge4" class="edge">
<title>Node25&#45;&gt;Node26</title>
<path fill="none" stroke="#191970" d="M677.1566,-94C686.6588,-94 695.5454,-94 702.7679,-94"/>
<polygon fill="#191970" stroke="#191970" points="677.0755,-90.5001 667.0754,-94 677.0754,-97.5001 677.0755,-90.5001"/>
</g>
<!-- Node28 -->
<g id="node7" class="node">
<title>Node28</title>
<g id="a_node7"><a xlink:href="TooNetworking_8h.html#aec97902cf0d3ec10fd86927f3d1df0c6" target="_top" xlink:title="TooNetworking_connection\l_begin">
<polygon fill="#ffffff" stroke="#000000" points="361,-30 361,-60 496,-60 496,-30 361,-30"/>
<text text-anchor="start" x="369" y="-48" font-family="Helvetica,sans-Serif" font-size="10.00" fill="#000000">TooNetworking_connection</text>
<text text-anchor="middle" x="428.5" y="-37" font-family="Helvetica,sans-Serif" font-size="10.00" fill="#000000">_begin</text>
</a>
</g>
</g>
<!-- Node27&#45;&gt;Node28 -->
<g id="edge6" class="edge">
<title>Node27&#45;&gt;Node28</title>
<path fill="none" stroke="#191970" d="M327.4049,-46.1171C338.5833,-45.9936 349.9804,-45.8676 360.9012,-45.7469"/>
<polygon fill="#191970" stroke="#191970" points="327.1811,-42.6192 317.2204,-46.2296 327.2585,-49.6188 327.1811,-42.6192"/>
</g>
<!-- Node29 -->
<g id="node8" class="node">
<title>Node29</title>
<g id="a_node8"><a xlink:href="NODE__SKETCH__TooAutomation__Node_8ino_8cpp.html#a7dfd9b79bc5a37d7df40207afbc5431f" target="_top" xlink:title="setup">
<polygon fill="#ffffff" stroke="#000000" points="579,-38.5 579,-57.5 620,-57.5 620,-38.5 579,-38.5"/>
<text text-anchor="middle" x="599.5" y="-45.5" font-family="Helvetica,sans-Serif" font-size="10.00" fill="#000000">setup</text>
</a>
</g>
</g>
<!-- Node28&#45;&gt;Node29 -->
<g id="edge7" class="edge">
<title>Node28&#45;&gt;Node29</title>
<path fill="none" stroke="#191970" d="M506.2666,-46.3643C533.0235,-46.8337 560.7989,-47.321 578.9955,-47.6403"/>
<polygon fill="#191970" stroke="#191970" points="506.1436,-42.8617 496.0837,-46.1857 506.0208,-49.8606 506.1436,-42.8617"/>
</g>
<!-- Node30 -->
<g id="node9" class="node">
<title>Node30</title>
<g id="a_node9"><a xlink:href="TooNetworking_8h.html#a2676204dee95da1ef337de95eb0e9bcb" target="_top" xlink:title="TooNetworking_begin">
<polygon fill="#ffffff" stroke="#000000" points="544,-.5 544,-19.5 655,-19.5 655,-.5 544,-.5"/>
<text text-anchor="middle" x="599.5" y="-7.5" font-family="Helvetica,sans-Serif" font-size="10.00" fill="#000000">TooNetworking_begin</text>
</a>
</g>
</g>
<!-- Node28&#45;&gt;Node30 -->
<g id="edge8" class="edge">
<title>Node28&#45;&gt;Node30</title>
<path fill="none" stroke="#191970" d="M505.9931,-29.1388C522.0195,-25.8586 538.4243,-22.5009 552.9288,-19.5321"/>
<polygon fill="#191970" stroke="#191970" points="505.1788,-25.7329 496.0837,-31.1671 506.5825,-32.5907 505.1788,-25.7329"/>
</g>
</g>
</svg>
