<?xml version="1.0" encoding="UTF-8" standalone="no"?>
<!DOCTYPE svg PUBLIC "-//W3C//DTD SVG 1.1//EN"
 "http://www.w3.org/Graphics/SVG/1.1/DTD/svg11.dtd">
<!-- Generated by graphviz version 2.40.1 (20161225.0304)
 -->
<!-- Title: TooSigning_random_data_print Pages: 1 -->
<!--zoomable 321 -->
<svg id="main" version="1.1" xmlns="http://www.w3.org/2000/svg" xmlns:xlink="http://www.w3.org/1999/xlink" xml:space="preserve" onload="init(evt)">
<style type="text/css"><![CDATA[
.edge:hover path { stroke: red; }
.edge:hover polygon { stroke: red; fill: red; }
]]></style>
<script type="text/javascript"><![CDATA[
var edges = document.getElementsByTagName('g');
if (edges && edges.length) {
  for (var i=0;i<edges.length;i++) {
    if (edges[i].id.substr(0,4)=='edge') {
      edges[i].setAttribute('class','edge');
    }
  }
}
]]></script>
        <defs>
                <circle id="rim" cx="0" cy="0" r="7"/>
                <circle id="rim2" cx="0" cy="0" r="3.5"/>
                <g id="zoomPlus">
                        <use xlink:href="#rim" fill="#404040">
                                <set attributeName="fill" to="#808080" begin="zoomplus.mouseover" end="zoomplus.mouseout"/>
                        </use>
                        <path d="M-4,0h8M0,-4v8" fill="none" stroke="white" stroke-width="1.5" pointer-events="none"/>
                </g>
                <g id="zoomMin">
                        <use xlink:href="#rim" fill="#404040">
                                <set attributeName="fill" to="#808080" begin="zoomminus.mouseover" end="zoomminus.mouseout"/>
                        </use>
                        <path d="M-4,0h8" fill="none" stroke="white" stroke-width="1.5" pointer-events="none"/>
                </g>
                <g id="dirArrow">
                        <path fill="none" stroke="white" stroke-width="1.5" d="M0,-3.0v7 M-2.5,-0.5L0,-3.0L2.5,-0.5"/>
                </g>
               <g id="resetDef">
                       <use xlink:href="#rim2" fill="#404040">
                               <set attributeName="fill" to="#808080" begin="reset.mouseover" end="reset.mouseout"/>
                       </use>
               </g>
        </defs>

<script type="text/javascript">
var viewWidth = 705;
var viewHeight = 321;
var sectionId = 'dynsection-0';
</script>
<script xlink:href="svgpan.js"/>
<svg id="graph" class="graph">
<g id="viewport">
<title>TooSigning_random_data_print</title>
<polygon fill="#ffffff" stroke="transparent" points="-4,4 -4,-317.0249 701,-317.0249 701,4 -4,4"/>
<!-- Node1 -->
<g id="node1" class="node">
<title>Node1</title>
<polygon fill="#bfbfbf" stroke="#000000" points="0,-142.1159 0,-172.1159 127,-172.1159 127,-142.1159 0,-142.1159"/>
<text text-anchor="start" x="8" y="-160.1159" font-family="Helvetica,sans-Serif" font-size="10.00" fill="#000000">TooSigning_random_data</text>
<text text-anchor="middle" x="63.5" y="-149.1159" font-family="Helvetica,sans-Serif" font-size="10.00" fill="#000000">_print</text>
</g>
<!-- Node2 -->
<g id="node2" class="node">
<title>Node2</title>
<g id="a_node2"><a xlink:href="NODE__SKETCH__TooAutomation__Node_8ino_8cpp.html#a0b33edabd7f1c4e4a0bf32c67269be2f" target="_top" xlink:title="loop">
<polygon fill="#ffffff" stroke="#000000" points="662,-229.6159 662,-248.6159 697,-248.6159 697,-229.6159 662,-229.6159"/>
<text text-anchor="middle" x="679.5" y="-236.6159" font-family="Helvetica,sans-Serif" font-size="10.00" fill="#000000">loop</text>
</a>
</g>
</g>
<!-- Node1&#45;&gt;Node2 -->
<g id="edge1" class="edge">
<title>Node1&#45;&gt;Node2</title>
<path fill="none" stroke="#191970" d="M77.0518,-180.6569C93.552,-206.6834 124.098,-247.1685 163,-264.1159 351.6532,-346.3014 425.118,-308.7353 626,-264.1159 639.4112,-261.137 653.4408,-254.427 663.767,-248.708"/>
<polygon fill="#191970" stroke="#191970" points="80.0242,-178.8087 71.8106,-172.1163 74.058,-182.47 80.0242,-178.8087"/>
</g>
<!-- Node3 -->
<g id="node3" class="node">
<title>Node3</title>
<g id="a_node3"><a xlink:href="TooNetworking_8h.html#a59be7e774988f57ab43c4c078c570c67" target="_top" xlink:title="TooNetworking_bufferlist_add">
<polygon fill="#ffffff" stroke="#000000" points="309,-147.6159 309,-166.6159 455,-166.6159 455,-147.6159 309,-147.6159"/>
<text text-anchor="middle" x="382" y="-154.6159" font-family="Helvetica,sans-Serif" font-size="10.00" fill="#000000">TooNetworking_bufferlist_add</text>
</a>
</g>
</g>
<!-- Node1&#45;&gt;Node3 -->
<g id="edge2" class="edge">
<title>Node1&#45;&gt;Node3</title>
<path fill="none" stroke="#191970" d="M137.2719,-157.1159C188.878,-157.1159 257.5035,-157.1159 308.95,-157.1159"/>
<polygon fill="#191970" stroke="#191970" points="137.1878,-153.616 127.1877,-157.1159 137.1877,-160.616 137.1878,-153.616"/>
</g>
<!-- Node4 -->
<g id="node4" class="node">
<title>Node4</title>
<g id="a_node4"><a xlink:href="TooNetworking_8h.html#a9209f3e1a2fdf0b3b88d49105b8fc359" target="_top" xlink:title="TooNetworking_send\l_signed">
<polygon fill="#ffffff" stroke="#000000" points="504,-142.1159 504,-172.1159 613,-172.1159 613,-142.1159 504,-142.1159"/>
<text text-anchor="start" x="512" y="-160.1159" font-family="Helvetica,sans-Serif" font-size="10.00" fill="#000000">TooNetworking_send</text>
<text text-anchor="middle" x="558.5" y="-149.1159" font-family="Helvetica,sans-Serif" font-size="10.00" fill="#000000">_signed</text>
</a>
</g>
</g>
<!-- Node1&#45;&gt;Node4 -->
<g id="edge6" class="edge">
<title>Node1&#45;&gt;Node4</title>
<path fill="none" stroke="#191970" d="M137.2128,-168.3725C145.89,-169.4351 154.6312,-170.3859 163,-171.1159 292.3058,-182.3952 325.7376,-187.8822 455,-176.1159 471.0105,-174.6585 488.2438,-171.9579 503.9673,-169.0411"/>
<polygon fill="#191970" stroke="#191970" points="137.4444,-164.8737 127.0819,-167.0802 136.5586,-171.8175 137.4444,-164.8737"/>
</g>
<!-- Node5 -->
<g id="node5" class="node">
<title>Node5</title>
<g id="a_node5"><a xlink:href="TooNetworking_8h.html#a085ff748b00f6be4ebafcae2bb0dded1" target="_top" xlink:title="TooNetworking_bufferlist\l_send_signed">
<polygon fill="#ffffff" stroke="#000000" points="496,-80.1159 496,-110.1159 621,-110.1159 621,-80.1159 496,-80.1159"/>
<text text-anchor="start" x="504" y="-98.1159" font-family="Helvetica,sans-Serif" font-size="10.00" fill="#000000">TooNetworking_bufferlist</text>
<text text-anchor="middle" x="558.5" y="-87.1159" font-family="Helvetica,sans-Serif" font-size="10.00" fill="#000000">_send_signed</text>
</a>
</g>
</g>
<!-- Node1&#45;&gt;Node5 -->
<g id="edge12" class="edge">
<title>Node1&#45;&gt;Node5</title>
<path fill="none" stroke="#191970" d="M79.7474,-133.542C97.4911,-109.5628 128.0813,-73.04 163,-52.1159 220.712,-17.5335 242.3204,-21.0848 309,-12.1159 373.3097,-3.4657 393.7817,9.3988 455,-12.1159 493.2449,-25.5567 527.823,-59.7469 545.6994,-79.8031"/>
<polygon fill="#191970" stroke="#191970" points="76.8307,-131.6025 73.8072,-141.7568 82.5031,-135.7042 76.8307,-131.6025"/>
</g>
<!-- Node6 -->
<g id="node6" class="node">
<title>Node6</title>
<g id="a_node6"><a xlink:href="TooNetworking_8h.html#a9f893c3218491ee86282fdcd9f376500" target="_top" xlink:title="TooNetworking_send\l_signed_">
<polygon fill="#ffffff" stroke="#000000" points="163.5,-98.1159 163.5,-128.1159 272.5,-128.1159 272.5,-98.1159 163.5,-98.1159"/>
<text text-anchor="start" x="171.5" y="-116.1159" font-family="Helvetica,sans-Serif" font-size="10.00" fill="#000000">TooNetworking_send</text>
<text text-anchor="middle" x="218" y="-105.1159" font-family="Helvetica,sans-Serif" font-size="10.00" fill="#000000">_signed_</text>
</a>
</g>
</g>
<!-- Node1&#45;&gt;Node6 -->
<g id="edge7" class="edge">
<title>Node1&#45;&gt;Node6</title>
<path fill="none" stroke="#191970" d="M126.0436,-139.3041C139.0471,-135.6008 152.6278,-131.7332 165.2375,-128.1421"/>
<polygon fill="#191970" stroke="#191970" points="124.8969,-135.9914 116.238,-142.0966 126.8143,-142.7237 124.8969,-135.9914"/>
</g>
<!-- Node7 -->
<g id="node7" class="node">
<title>Node7</title>
<g id="a_node7"><a xlink:href="TooNetworking_8h.html#ab58e06e0eb6f2f8ecbebeaf3c173fb22" target="_top" xlink:title="TooNetworking_bufferlist\l_send_all">
<polygon fill="#ffffff" stroke="#000000" points="319.5,-22.1159 319.5,-52.1159 444.5,-52.1159 444.5,-22.1159 319.5,-22.1159"/>
<text text-anchor="start" x="327.5" y="-40.1159" font-family="Helvetica,sans-Serif" font-size="10.00" fill="#000000">TooNetworking_bufferlist</text>
<text text-anchor="middle" x="382" y="-29.1159" font-family="Helvetica,sans-Serif" font-size="10.00" fill="#000000">_send_all</text>
</a>
</g>
</g>
<!-- Node1&#45;&gt;Node7 -->
<g id="edge13" class="edge">
<title>Node1&#45;&gt;Node7</title>
<path fill="none" stroke="#191970" d="M88.8927,-135.4513C108.0892,-120.1237 135.7165,-100.2203 163,-88.1159 213.136,-65.8728 274.2054,-52.6832 319.1055,-45.3093"/>
<polygon fill="#191970" stroke="#191970" points="86.4981,-132.8874 80.9527,-141.9151 90.9175,-138.316 86.4981,-132.8874"/>
</g>
<!-- Node8 -->
<g id="node8" class="node">
<title>Node8</title>
<g id="a_node8"><a xlink:href="TooSigning_8cpp.html#a03df9fd005c518d1114f912ae7da9f06" target="_top" xlink:title="TooSigning_unsigned\l_network_available">
<polygon fill="#ffffff" stroke="#000000" points="163,-224.1159 163,-254.1159 273,-254.1159 273,-224.1159 163,-224.1159"/>
<text text-anchor="start" x="171" y="-242.1159" font-family="Helvetica,sans-Serif" font-size="10.00" fill="#000000">TooSigning_unsigned</text>
<text text-anchor="middle" x="218" y="-231.1159" font-family="Helvetica,sans-Serif" font-size="10.00" fill="#000000">_network_available</text>
</a>
</g>
</g>
<!-- Node1&#45;&gt;Node8 -->
<g id="edge14" class="edge">
<title>Node1&#45;&gt;Node8</title>
<path fill="none" stroke="#191970" d="M100.7188,-176.8695C128.0385,-191.3693 164.5883,-210.7679 189.5808,-224.0325"/>
<polygon fill="#191970" stroke="#191970" points="102.3115,-173.7525 91.8377,-172.1559 99.0299,-179.9356 102.3115,-173.7525"/>
</g>
<!-- Node3&#45;&gt;Node4 -->
<g id="edge3" class="edge">
<title>Node3&#45;&gt;Node4</title>
<path fill="none" stroke="#191970" d="M465.0723,-157.1159C478.2256,-157.1159 491.5328,-157.1159 503.8197,-157.1159"/>
<polygon fill="#191970" stroke="#191970" points="465.0634,-153.616 455.0634,-157.1159 465.0633,-160.616 465.0634,-153.616"/>
</g>
<!-- Node3&#45;&gt;Node5 -->
<g id="edge4" class="edge">
<title>Node3&#45;&gt;Node5</title>
<path fill="none" stroke="#191970" d="M418.6725,-144.2337C446.8447,-134.3376 485.8214,-120.646 515.4688,-110.2317"/>
<polygon fill="#191970" stroke="#191970" points="417.4662,-140.9478 409.1913,-147.5642 419.7862,-147.5521 417.4662,-140.9478"/>
</g>
<!-- Node5&#45;&gt;Node2 -->
<g id="edge5" class="edge">
<title>Node5&#45;&gt;Node2</title>
<path fill="none" stroke="#191970" d="M603.1439,-115.2608C611.3879,-120.3007 619.4496,-126.2616 626,-133.1159 654.0571,-162.4744 670.6141,-209.4192 676.7556,-229.4984"/>
<polygon fill="#191970" stroke="#191970" points="604.6105,-112.068 594.1898,-110.1548 601.143,-118.1489 604.6105,-112.068"/>
</g>
<!-- Node6&#45;&gt;Node3 -->
<g id="edge8" class="edge">
<title>Node6&#45;&gt;Node3</title>
<path fill="none" stroke="#191970" d="M282.4299,-130.4019C304.1174,-136.2205 327.5255,-142.5008 346.1932,-147.5092"/>
<polygon fill="#191970" stroke="#191970" points="283.175,-126.9781 272.6096,-127.7672 281.3611,-133.739 283.175,-126.9781"/>
</g>
<!-- Node6&#45;&gt;Node4 -->
<g id="edge9" class="edge">
<title>Node6&#45;&gt;Node4</title>
<path fill="none" stroke="#191970" d="M282.9373,-118.6171C330.6576,-122.9873 397.0111,-129.7472 455,-138.1159 470.9119,-140.4122 488.1143,-143.3749 503.8399,-146.2745"/>
<polygon fill="#191970" stroke="#191970" points="283.0194,-115.1103 272.7444,-117.694 282.388,-122.0817 283.0194,-115.1103"/>
</g>
<!-- Node6&#45;&gt;Node5 -->
<g id="edge10" class="edge">
<title>Node6&#45;&gt;Node5</title>
<path fill="none" stroke="#191970" d="M282.9974,-107.0221C291.7337,-106.3143 300.5819,-105.6543 309,-105.1159 372.5957,-101.0483 445.4226,-98.3548 495.9101,-96.7985"/>
<polygon fill="#191970" stroke="#191970" points="282.5001,-103.5514 272.8257,-107.8706 283.0821,-110.5271 282.5001,-103.5514"/>
</g>
<!-- Node6&#45;&gt;Node7 -->
<g id="edge11" class="edge">
<title>Node6&#45;&gt;Node7</title>
<path fill="none" stroke="#191970" d="M255.603,-93.2777C271.8795,-84.9075 291.2364,-75.2406 309,-67.1159 320.2145,-61.9865 332.5663,-56.7559 343.8697,-52.1291"/>
<polygon fill="#191970" stroke="#191970" points="253.6836,-90.3301 246.411,-98.0346 256.9009,-96.5469 253.6836,-90.3301"/>
</g>
<!-- Node9 -->
<g id="node9" class="node">
<title>Node9</title>
<g id="a_node9"><a xlink:href="TooNetworking_8h.html#a7382ba1aed5405c3adc02011ea6c45dd" target="_top" xlink:title="TooNetworking_connection\l_maintenance">
<polygon fill="#ffffff" stroke="#000000" points="491,-224.1159 491,-254.1159 626,-254.1159 626,-224.1159 491,-224.1159"/>
<text text-anchor="start" x="499" y="-242.1159" font-family="Helvetica,sans-Serif" font-size="10.00" fill="#000000">TooNetworking_connection</text>
<text text-anchor="middle" x="558.5" y="-231.1159" font-family="Helvetica,sans-Serif" font-size="10.00" fill="#000000">_maintenance</text>
</a>
</g>
</g>
<!-- Node8&#45;&gt;Node9 -->
<g id="edge15" class="edge">
<title>Node8&#45;&gt;Node9</title>
<path fill="none" stroke="#191970" d="M283.1332,-239.1159C342.7214,-239.1159 430.5351,-239.1159 490.8899,-239.1159"/>
<polygon fill="#191970" stroke="#191970" points="283.0857,-235.616 273.0856,-239.1159 283.0856,-242.616 283.0857,-235.616"/>
</g>
<!-- Node9&#45;&gt;Node2 -->
<g id="edge16" class="edge">
<title>Node9&#45;&gt;Node2</title>
<path fill="none" stroke="#191970" d="M636.1566,-239.1159C645.6588,-239.1159 654.5454,-239.1159 661.7679,-239.1159"/>
<polygon fill="#191970" stroke="#191970" points="636.0755,-235.616 626.0754,-239.1159 636.0754,-242.616 636.0755,-235.616"/>
</g>
</g>
</svg>
        <g id="navigator" transform="translate(0 0)" fill="#404254">
                <rect fill="#f2f5e9" fill-opacity="0.5" stroke="#606060" stroke-width=".5" x="0" y="0" width="60" height="60"/>
                <use id="zoomplus" xlink:href="#zoomPlus" x="17" y="9" onmousedown="handleZoom(evt,'in')"/>
                <use id="zoomminus" xlink:href="#zoomMin" x="42" y="9" onmousedown="handleZoom(evt,'out')"/>
                <use id="reset" xlink:href="#resetDef" x="30" y="36" onmousedown="handleReset()"/>
                <g id="arrowUp" xlink:href="#dirArrow" transform="translate(30 24)" onmousedown="handlePan(0,-1)">
                  <use xlink:href="#rim" fill="#404040">
                        <set attributeName="fill" to="#808080" begin="arrowUp.mouseover" end="arrowUp.mouseout"/>
                  </use>
                  <path fill="none" stroke="white" stroke-width="1.5" d="M0,-3.0v7 M-2.5,-0.5L0,-3.0L2.5,-0.5"/>
                </g>
                <g id="arrowRight" xlink:href="#dirArrow" transform="rotate(90) translate(36 -43)" onmousedown="handlePan(1,0)">
                  <use xlink:href="#rim" fill="#404040">
                        <set attributeName="fill" to="#808080" begin="arrowRight.mouseover" end="arrowRight.mouseout"/>
                  </use>
                  <path fill="none" stroke="white" stroke-width="1.5" d="M0,-3.0v7 M-2.5,-0.5L0,-3.0L2.5,-0.5"/>
                </g>
                <g id="arrowDown" xlink:href="#dirArrow" transform="rotate(180) translate(-30 -48)" onmousedown="handlePan(0,1)">
                  <use xlink:href="#rim" fill="#404040">
                        <set attributeName="fill" to="#808080" begin="arrowDown.mouseover" end="arrowDown.mouseout"/>
                  </use>
                  <path fill="none" stroke="white" stroke-width="1.5" d="M0,-3.0v7 M-2.5,-0.5L0,-3.0L2.5,-0.5"/>
                </g>
                <g id="arrowLeft" xlink:href="#dirArrow" transform="rotate(270) translate(-36 17)" onmousedown="handlePan(-1,0)">
                  <use xlink:href="#rim" fill="#404040">
                        <set attributeName="fill" to="#808080" begin="arrowLeft.mouseover" end="arrowLeft.mouseout"/>
                  </use>
                  <path fill="none" stroke="white" stroke-width="1.5" d="M0,-3.0v7 M-2.5,-0.5L0,-3.0L2.5,-0.5"/>
                </g>
        </g>
        <svg viewBox="0 0 15 15" width="100%" height="30px" preserveAspectRatio="xMaxYMin meet">
         <g id="arrow_out" transform="scale(0.3 0.3)">
          <a xlink:href="group__TOOSIGNING__DEBUGGING_ga974dd51d29b9bd928de51c481289aad7_icgraph_org.svg" target="_base">
           <rect id="button" ry="5" rx="5" y="6" x="6" height="38" width="38"
                fill="#f2f5e9" fill-opacity="0.5" stroke="#606060" stroke-width="1.0"/>
           <path id="arrow"
             d="M 11.500037,31.436501 C 11.940474,20.09759 22.043105,11.32322 32.158766,21.979434 L 37.068811,17.246167 C 37.068811,17.246167 37.088388,32 37.088388,32 L 22.160133,31.978069 C 22.160133,31.978069 26.997745,27.140456 26.997745,27.140456 C 18.528582,18.264221 13.291696,25.230495 11.500037,31.436501 z"
             style="fill:#404040;"/>
          </a>
         </g>
        </svg>
</svg>
