<?xml version="1.0" encoding="UTF-8" standalone="no"?>
<!DOCTYPE svg PUBLIC "-//W3C//DTD SVG 1.1//EN"
 "http://www.w3.org/Graphics/SVG/1.1/DTD/svg11.dtd">
<!-- Generated by graphviz version 2.40.1 (20161225.0304)
 -->
<!-- Title: TooSigning_hash_store Pages: 1 -->
<svg width="676pt" height="152pt"
 viewBox="0.00 0.00 676.00 152.00" xmlns="http://www.w3.org/2000/svg" xmlns:xlink="http://www.w3.org/1999/xlink">
<g id="graph0" class="graph" transform="scale(1 1) rotate(0) translate(4 148)">
<title>TooSigning_hash_store</title>
<polygon fill="#ffffff" stroke="transparent" points="-4,4 -4,-148 672,-148 672,4 -4,4"/>
<!-- Node24 -->
<g id="node1" class="node">
<title>Node24</title>
<polygon fill="#bfbfbf" stroke="#000000" points="0,-30 0,-49 119,-49 119,-30 0,-30"/>
<text text-anchor="middle" x="59.5" y="-37" font-family="Helvetica,sans-Serif" font-size="10.00" fill="#000000">TooSigning_hash_store</text>
</g>
<!-- Node25 -->
<g id="node2" class="node">
<title>Node25</title>
<g id="a_node2"><a xlink:href="TooNetworking_8h.html#a9f893c3218491ee86282fdcd9f376500" target="_top" xlink:title="TooNetworking_send\l_signed_">
<polygon fill="#ffffff" stroke="#000000" points="155.5,-59.5 155.5,-89.5 264.5,-89.5 264.5,-59.5 155.5,-59.5"/>
<text text-anchor="start" x="163.5" y="-77.5" font-family="Helvetica,sans-Serif" font-size="10.00" fill="#000000">TooNetworking_send</text>
<text text-anchor="middle" x="210" y="-66.5" font-family="Helvetica,sans-Serif" font-size="10.00" fill="#000000">_signed_</text>
</a>
</g>
</g>
<!-- Node24&#45;&gt;Node25 -->
<g id="edge1" class="edge">
<title>Node24&#45;&gt;Node25</title>
<path fill="none" stroke="#191970" d="M110.3983,-51.3368C124.8705,-54.7025 140.6896,-58.3813 155.3734,-61.7961"/>
<polygon fill="#191970" stroke="#191970" points="111.1577,-47.9201 100.6248,-49.0639 109.572,-54.7381 111.1577,-47.9201"/>
</g>
<!-- Node31 -->
<g id="node8" class="node">
<title>Node31</title>
<g id="a_node8"><a xlink:href="TooSigning_8cpp.html#a03df9fd005c518d1114f912ae7da9f06" target="_top" xlink:title="TooSigning_unsigned\l_network_available">
<polygon fill="#ffffff" stroke="#000000" points="155,-.5 155,-30.5 265,-30.5 265,-.5 155,-.5"/>
<text text-anchor="start" x="163" y="-18.5" font-family="Helvetica,sans-Serif" font-size="10.00" fill="#000000">TooSigning_unsigned</text>
<text text-anchor="middle" x="210" y="-7.5" font-family="Helvetica,sans-Serif" font-size="10.00" fill="#000000">_network_available</text>
</a>
</g>
</g>
<!-- Node24&#45;&gt;Node31 -->
<g id="edge8" class="edge">
<title>Node24&#45;&gt;Node31</title>
<path fill="none" stroke="#191970" d="M129.3304,-28.3643C137.8363,-27.0078 146.4351,-25.6366 154.6889,-24.3204"/>
<polygon fill="#191970" stroke="#191970" points="128.738,-24.9144 119.414,-29.9456 129.8405,-31.8271 128.738,-24.9144"/>
</g>
<!-- Node26 -->
<g id="node3" class="node">
<title>Node26</title>
<g id="a_node3"><a xlink:href="TooNetworking_8h.html#a9209f3e1a2fdf0b3b88d49105b8fc359" target="_top" xlink:title="TooNetworking_send\l_signed">
<polygon fill="#ffffff" stroke="#000000" points="309,-113.5 309,-143.5 418,-143.5 418,-113.5 309,-113.5"/>
<text text-anchor="start" x="317" y="-131.5" font-family="Helvetica,sans-Serif" font-size="10.00" fill="#000000">TooNetworking_send</text>
<text text-anchor="middle" x="363.5" y="-120.5" font-family="Helvetica,sans-Serif" font-size="10.00" fill="#000000">_signed</text>
</a>
</g>
</g>
<!-- Node25&#45;&gt;Node26 -->
<g id="edge2" class="edge">
<title>Node25&#45;&gt;Node26</title>
<path fill="none" stroke="#191970" d="M262.1968,-92.8624C281.2517,-99.5657 302.5634,-107.063 320.705,-113.4451"/>
<polygon fill="#191970" stroke="#191970" points="263.3531,-89.559 252.7583,-89.542 261.0301,-96.1623 263.3531,-89.559"/>
</g>
<!-- Node27 -->
<g id="node4" class="node">
<title>Node27</title>
<g id="a_node4"><a xlink:href="TooNetworking_8h.html#a085ff748b00f6be4ebafcae2bb0dded1" target="_top" xlink:title="TooNetworking_bufferlist\l_send_signed">
<polygon fill="#ffffff" stroke="#000000" points="467,-69.5 467,-99.5 592,-99.5 592,-69.5 467,-69.5"/>
<text text-anchor="start" x="475" y="-87.5" font-family="Helvetica,sans-Serif" font-size="10.00" fill="#000000">TooNetworking_bufferlist</text>
<text text-anchor="middle" x="529.5" y="-76.5" font-family="Helvetica,sans-Serif" font-size="10.00" fill="#000000">_send_signed</text>
</a>
</g>
</g>
<!-- Node25&#45;&gt;Node27 -->
<g id="edge3" class="edge">
<title>Node25&#45;&gt;Node27</title>
<path fill="none" stroke="#191970" d="M274.7391,-76.5263C330.8409,-78.2822 411.4983,-80.8067 466.9493,-82.5422"/>
<polygon fill="#191970" stroke="#191970" points="274.6656,-73.0223 264.561,-76.2077 274.4466,-80.0189 274.6656,-73.0223"/>
</g>
<!-- Node29 -->
<g id="node6" class="node">
<title>Node29</title>
<g id="a_node6"><a xlink:href="TooNetworking_8h.html#ab58e06e0eb6f2f8ecbebeaf3c173fb22" target="_top" xlink:title="TooNetworking_bufferlist\l_send_all">
<polygon fill="#ffffff" stroke="#000000" points="301,-25.5 301,-55.5 426,-55.5 426,-25.5 301,-25.5"/>
<text text-anchor="start" x="309" y="-43.5" font-family="Helvetica,sans-Serif" font-size="10.00" fill="#000000">TooNetworking_bufferlist</text>
<text text-anchor="middle" x="363.5" y="-32.5" font-family="Helvetica,sans-Serif" font-size="10.00" fill="#000000">_send_all</text>
</a>
</g>
</g>
<!-- Node25&#45;&gt;Node29 -->
<g id="edge5" class="edge">
<title>Node25&#45;&gt;Node29</title>
<path fill="none" stroke="#191970" d="M274.5908,-60.1932C283.2498,-58.2753 292.1207,-56.3104 300.7474,-54.3996"/>
<polygon fill="#191970" stroke="#191970" points="273.557,-56.8373 264.5506,-62.4171 275.0709,-63.6717 273.557,-56.8373"/>
</g>
<!-- Node28 -->
<g id="node5" class="node">
<title>Node28</title>
<g id="a_node5"><a xlink:href="NODE__SKETCH__TooAutomation__Node_8ino_8cpp.html#a0b33edabd7f1c4e4a0bf32c67269be2f" target="_top" xlink:title="loop">
<polygon fill="#ffffff" stroke="#000000" points="633,-50 633,-69 668,-69 668,-50 633,-50"/>
<text text-anchor="middle" x="650.5" y="-57" font-family="Helvetica,sans-Serif" font-size="10.00" fill="#000000">loop</text>
</a>
</g>
</g>
<!-- Node27&#45;&gt;Node28 -->
<g id="edge4" class="edge">
<title>Node27&#45;&gt;Node28</title>
<path fill="none" stroke="#191970" d="M602.2474,-69.4695C613.636,-67.1165 624.4203,-64.8884 632.8934,-63.1377"/>
<polygon fill="#191970" stroke="#191970" points="601.2115,-66.1096 592.1266,-71.5606 602.6279,-72.9648 601.2115,-66.1096"/>
</g>
<!-- Node30 -->
<g id="node7" class="node">
<title>Node30</title>
<g id="a_node7"><a xlink:href="TooNetworking_8h.html#a7382ba1aed5405c3adc02011ea6c45dd" target="_top" xlink:title="TooNetworking_connection\l_maintenance">
<polygon fill="#ffffff" stroke="#000000" points="462,-20.5 462,-50.5 597,-50.5 597,-20.5 462,-20.5"/>
<text text-anchor="start" x="470" y="-38.5" font-family="Helvetica,sans-Serif" font-size="10.00" fill="#000000">TooNetworking_connection</text>
<text text-anchor="middle" x="529.5" y="-27.5" font-family="Helvetica,sans-Serif" font-size="10.00" fill="#000000">_maintenance</text>
</a>
</g>
</g>
<!-- Node29&#45;&gt;Node30 -->
<g id="edge6" class="edge">
<title>Node29&#45;&gt;Node30</title>
<path fill="none" stroke="#191970" d="M436.4873,-38.3016C444.951,-38.0467 453.5556,-37.7875 461.9422,-37.5349"/>
<polygon fill="#191970" stroke="#191970" points="436.1475,-34.8101 426.2575,-38.6097 436.3584,-41.807 436.1475,-34.8101"/>
</g>
<!-- Node30&#45;&gt;Node28 -->
<g id="edge7" class="edge">
<title>Node30&#45;&gt;Node28</title>
<path fill="none" stroke="#191970" d="M607.1566,-50.903C616.6588,-52.7877 625.5454,-54.5503 632.7679,-55.9829"/>
<polygon fill="#191970" stroke="#191970" points="607.5653,-47.4159 597.0754,-48.9034 606.2034,-54.2822 607.5653,-47.4159"/>
</g>
<!-- Node31&#45;&gt;Node30 -->
<g id="edge9" class="edge">
<title>Node31&#45;&gt;Node30</title>
<path fill="none" stroke="#191970" d="M275.218,-12.2715C318.1543,-10.9401 375.5442,-10.6697 426,-15.5 437.6594,-16.6162 449.9579,-18.4243 461.8472,-20.5086"/>
<polygon fill="#191970" stroke="#191970" points="275.0575,-8.7748 265.1812,-12.61 275.2936,-15.7708 275.0575,-8.7748"/>
</g>
</g>
</svg>
