<?xml version="1.0" encoding="UTF-8" standalone="no"?>
<!DOCTYPE svg PUBLIC "-//W3C//DTD SVG 1.1//EN"
 "http://www.w3.org/Graphics/SVG/1.1/DTD/svg11.dtd">
<!-- Generated by graphviz version 2.40.1 (20161225.0304)
 -->
<!-- Title: TooSigning_hash_store Pages: 1 -->
<svg width="515pt" height="88pt"
 viewBox="0.00 0.00 515.00 88.00" xmlns="http://www.w3.org/2000/svg" xmlns:xlink="http://www.w3.org/1999/xlink">
<g id="graph0" class="graph" transform="scale(1 1) rotate(0) translate(4 84)">
<title>TooSigning_hash_store</title>
<polygon fill="#ffffff" stroke="transparent" points="-4,4 -4,-84 511,-84 511,4 -4,4"/>
<!-- Node21 -->
<g id="node1" class="node">
<title>Node21</title>
<polygon fill="#bfbfbf" stroke="#000000" points="0,-30 0,-49 119,-49 119,-30 0,-30"/>
<text text-anchor="middle" x="59.5" y="-37" font-family="Helvetica,sans-Serif" font-size="10.00" fill="#000000">TooSigning_hash_store</text>
</g>
<!-- Node22 -->
<g id="node2" class="node">
<title>Node22</title>
<g id="a_node2"><a xlink:href="TooNetworking_8h.html#ab5dfe46515ee5ca8f9893675df673d96" target="_top" xlink:title="TooNetworking_send\l_signed">
<polygon fill="#ffffff" stroke="#000000" points="155.5,-49.5 155.5,-79.5 264.5,-79.5 264.5,-49.5 155.5,-49.5"/>
<text text-anchor="start" x="163.5" y="-67.5" font-family="Helvetica,sans-Serif" font-size="10.00" fill="#000000">TooNetworking_send</text>
<text text-anchor="middle" x="210" y="-56.5" font-family="Helvetica,sans-Serif" font-size="10.00" fill="#000000">_signed</text>
</a>
</g>
</g>
<!-- Node21&#45;&gt;Node22 -->
<g id="edge1" class="edge">
<title>Node21&#45;&gt;Node22</title>
<path fill="none" stroke="#191970" d="M126.7089,-50.6643C136.2778,-52.2538 146.0222,-53.8725 155.3135,-55.4159"/>
<polygon fill="#191970" stroke="#191970" points="127.2653,-47.2088 116.8269,-49.0227 126.1182,-54.1142 127.2653,-47.2088"/>
</g>
<!-- Node23 -->
<g id="node3" class="node">
<title>Node23</title>
<g id="a_node3"><a xlink:href="TooSigning_8cpp.html#a03df9fd005c518d1114f912ae7da9f06" target="_top" xlink:title="TooSigning_unsigned\l_network_available">
<polygon fill="#ffffff" stroke="#000000" points="155,-.5 155,-30.5 265,-30.5 265,-.5 155,-.5"/>
<text text-anchor="start" x="163" y="-18.5" font-family="Helvetica,sans-Serif" font-size="10.00" fill="#000000">TooSigning_unsigned</text>
<text text-anchor="middle" x="210" y="-7.5" font-family="Helvetica,sans-Serif" font-size="10.00" fill="#000000">_network_available</text>
</a>
</g>
</g>
<!-- Node21&#45;&gt;Node23 -->
<g id="edge2" class="edge">
<title>Node21&#45;&gt;Node23</title>
<path fill="none" stroke="#191970" d="M129.3304,-28.3643C137.8363,-27.0078 146.4351,-25.6366 154.6889,-24.3204"/>
<polygon fill="#191970" stroke="#191970" points="128.738,-24.9144 119.414,-29.9456 129.8405,-31.8271 128.738,-24.9144"/>
</g>
<!-- Node24 -->
<g id="node4" class="node">
<title>Node24</title>
<g id="a_node4"><a xlink:href="TooNetworking_8h.html#a7382ba1aed5405c3adc02011ea6c45dd" target="_top" xlink:title="TooNetworking_connection\l_maintenance">
<polygon fill="#ffffff" stroke="#000000" points="301,-.5 301,-30.5 436,-30.5 436,-.5 301,-.5"/>
<text text-anchor="start" x="309" y="-18.5" font-family="Helvetica,sans-Serif" font-size="10.00" fill="#000000">TooNetworking_connection</text>
<text text-anchor="middle" x="368.5" y="-7.5" font-family="Helvetica,sans-Serif" font-size="10.00" fill="#000000">_maintenance</text>
</a>
</g>
</g>
<!-- Node23&#45;&gt;Node24 -->
<g id="edge3" class="edge">
<title>Node23&#45;&gt;Node24</title>
<path fill="none" stroke="#191970" d="M275.5012,-15.5C283.8601,-15.5 292.4295,-15.5 300.822,-15.5"/>
<polygon fill="#191970" stroke="#191970" points="275.4356,-12.0001 265.4356,-15.5 275.4356,-19.0001 275.4356,-12.0001"/>
</g>
<!-- Node25 -->
<g id="node5" class="node">
<title>Node25</title>
<g id="a_node5"><a xlink:href="NODE__SKETCH__TooAutomation__Node_8ino_8cpp.html#a0b33edabd7f1c4e4a0bf32c67269be2f" target="_top" xlink:title="loop">
<polygon fill="#ffffff" stroke="#000000" points="472,-6 472,-25 507,-25 507,-6 472,-6"/>
<text text-anchor="middle" x="489.5" y="-13" font-family="Helvetica,sans-Serif" font-size="10.00" fill="#000000">loop</text>
</a>
</g>
</g>
<!-- Node24&#45;&gt;Node25 -->
<g id="edge4" class="edge">
<title>Node24&#45;&gt;Node25</title>
<path fill="none" stroke="#191970" d="M446.1566,-15.5C455.6588,-15.5 464.5454,-15.5 471.7679,-15.5"/>
<polygon fill="#191970" stroke="#191970" points="446.0755,-12.0001 436.0754,-15.5 446.0754,-19.0001 446.0755,-12.0001"/>
</g>
</g>
</svg>
