<?xml version="1.0" encoding="UTF-8" standalone="no"?>
<!DOCTYPE svg PUBLIC "-//W3C//DTD SVG 1.1//EN"
 "http://www.w3.org/Graphics/SVG/1.1/DTD/svg11.dtd">
<!-- Generated by graphviz version 2.40.1 (20161225.0304)
 -->
<!-- Title: TooSigning_hash_data Pages: 1 -->
<svg width="744pt" height="28pt"
 viewBox="0.00 0.00 744.00 28.00" xmlns="http://www.w3.org/2000/svg" xmlns:xlink="http://www.w3.org/1999/xlink">
<g id="graph0" class="graph" transform="scale(1 1) rotate(0) translate(4 24)">
<title>TooSigning_hash_data</title>
<polygon fill="#ffffff" stroke="transparent" points="-4,4 -4,-24 740,-24 740,4 -4,4"/>
<!-- Node3 -->
<g id="node1" class="node">
<title>Node3</title>
<polygon fill="#bfbfbf" stroke="#000000" points="0,-.5 0,-19.5 116,-19.5 116,-.5 0,-.5"/>
<text text-anchor="middle" x="58" y="-7.5" font-family="Helvetica,sans-Serif" font-size="10.00" fill="#000000">TooSigning_hash_data</text>
</g>
<!-- Node4 -->
<g id="node2" class="node">
<title>Node4</title>
<g id="a_node2"><a xlink:href="classSha256Class.html#a0f0fc4bd4d8c53d232df0d41d7ea25e0" target="_top" xlink:title="Sha256Class::write">
<polygon fill="#ffffff" stroke="#000000" points="152,-.5 152,-19.5 254,-19.5 254,-.5 152,-.5"/>
<text text-anchor="middle" x="203" y="-7.5" font-family="Helvetica,sans-Serif" font-size="10.00" fill="#000000">Sha256Class::write</text>
</a>
</g>
</g>
<!-- Node3&#45;&gt;Node4 -->
<g id="edge1" class="edge">
<title>Node3&#45;&gt;Node4</title>
<path fill="none" stroke="#191970" d="M116.1416,-10C124.5437,-10 133.2139,-10 141.6759,-10"/>
<polygon fill="#191970" stroke="#191970" points="141.8625,-13.5001 151.8625,-10 141.8625,-6.5001 141.8625,-13.5001"/>
</g>
<!-- Node5 -->
<g id="node3" class="node">
<title>Node5</title>
<g id="a_node3"><a xlink:href="classSha256Class.html#ab0b46743e3d59b1c68f52ed89dfaff50" target="_top" xlink:title="Sha256Class::addUncounted">
<polygon fill="#ffffff" stroke="#000000" points="290,-.5 290,-19.5 434,-19.5 434,-.5 290,-.5"/>
<text text-anchor="middle" x="362" y="-7.5" font-family="Helvetica,sans-Serif" font-size="10.00" fill="#000000">Sha256Class::addUncounted</text>
</a>
</g>
</g>
<!-- Node4&#45;&gt;Node5 -->
<g id="edge2" class="edge">
<title>Node4&#45;&gt;Node5</title>
<path fill="none" stroke="#191970" d="M254.1838,-10C262.3401,-10 270.9537,-10 279.6131,-10"/>
<polygon fill="#191970" stroke="#191970" points="279.7749,-13.5001 289.7748,-10 279.7748,-6.5001 279.7749,-13.5001"/>
</g>
<!-- Node6 -->
<g id="node4" class="node">
<title>Node6</title>
<g id="a_node4"><a xlink:href="classSha256Class.html#a399d2a23951e2130f54af8ac7712068f" target="_top" xlink:title="Sha256Class::hashBlock">
<polygon fill="#ffffff" stroke="#000000" points="470,-.5 470,-19.5 597,-19.5 597,-.5 470,-.5"/>
<text text-anchor="middle" x="533.5" y="-7.5" font-family="Helvetica,sans-Serif" font-size="10.00" fill="#000000">Sha256Class::hashBlock</text>
</a>
</g>
</g>
<!-- Node5&#45;&gt;Node6 -->
<g id="edge3" class="edge">
<title>Node5&#45;&gt;Node6</title>
<path fill="none" stroke="#191970" d="M434.2344,-10C442.6298,-10 451.2026,-10 459.6198,-10"/>
<polygon fill="#191970" stroke="#191970" points="459.7873,-13.5001 469.7873,-10 459.7873,-6.5001 459.7873,-13.5001"/>
</g>
<!-- Node7 -->
<g id="node5" class="node">
<title>Node7</title>
<g id="a_node5"><a xlink:href="classSha256Class.html#ae275718ce9813bb33b2d8d8fbf018bd6" target="_top" xlink:title="Sha256Class::ror32">
<polygon fill="#ffffff" stroke="#000000" points="633,-.5 633,-19.5 736,-19.5 736,-.5 633,-.5"/>
<text text-anchor="middle" x="684.5" y="-7.5" font-family="Helvetica,sans-Serif" font-size="10.00" fill="#000000">Sha256Class::ror32</text>
</a>
</g>
</g>
<!-- Node6&#45;&gt;Node7 -->
<g id="edge4" class="edge">
<title>Node6&#45;&gt;Node7</title>
<path fill="none" stroke="#191970" d="M597.1,-10C605.5806,-10 614.2667,-10 622.7157,-10"/>
<polygon fill="#191970" stroke="#191970" points="622.8743,-13.5001 632.8743,-10 622.8742,-6.5001 622.8743,-13.5001"/>
</g>
</g>
</svg>
