<?xml version="1.0" encoding="UTF-8" standalone="no"?>
<!DOCTYPE svg PUBLIC "-//W3C//DTD SVG 1.1//EN"
 "http://www.w3.org/Graphics/SVG/1.1/DTD/svg11.dtd">
<!-- Generated by graphviz version 2.40.1 (20161225.0304)
 -->
<!-- Title: TooSigning_requested_noncelist_initialize Pages: 1 -->
<svg width="857pt" height="213pt"
 viewBox="0.00 0.00 857.00 212.50" xmlns="http://www.w3.org/2000/svg" xmlns:xlink="http://www.w3.org/1999/xlink">
<g id="graph0" class="graph" transform="scale(1 1) rotate(0) translate(4 208.5)">
<title>TooSigning_requested_noncelist_initialize</title>
<polygon fill="#ffffff" stroke="transparent" points="-4,4 -4,-208.5 853,-208.5 853,4 -4,4"/>
<!-- Node11 -->
<g id="node1" class="node">
<title>Node11</title>
<polygon fill="#bfbfbf" stroke="#000000" points="0,-70 0,-100 113,-100 113,-70 0,-70"/>
<text text-anchor="start" x="8" y="-88" font-family="Helvetica,sans-Serif" font-size="10.00" fill="#000000">TooSigning_requested</text>
<text text-anchor="middle" x="56.5" y="-77" font-family="Helvetica,sans-Serif" font-size="10.00" fill="#000000">_noncelist_initialize</text>
</g>
<!-- Node12 -->
<g id="node2" class="node">
<title>Node12</title>
<g id="a_node2"><a xlink:href="TooSigning_8h.html#a53b55547df3d4276f3ca6a74d601549a" target="_top" xlink:title="TooSigning_requested\l_noncelist_add">
<polygon fill="#ffffff" stroke="#000000" points="162,-103 162,-133 275,-133 275,-103 162,-103"/>
<text text-anchor="start" x="170" y="-121" font-family="Helvetica,sans-Serif" font-size="10.00" fill="#000000">TooSigning_requested</text>
<text text-anchor="middle" x="218.5" y="-110" font-family="Helvetica,sans-Serif" font-size="10.00" fill="#000000">_noncelist_add</text>
</a>
</g>
</g>
<!-- Node11&#45;&gt;Node12 -->
<g id="edge1" class="edge">
<title>Node11&#45;&gt;Node12</title>
<path fill="none" stroke="#191970" d="M123.3046,-98.6083C136.1169,-101.2183 149.4184,-103.9278 161.8723,-106.4647"/>
<polygon fill="#191970" stroke="#191970" points="123.6571,-95.1084 113.1597,-96.5418 122.2599,-101.9675 123.6571,-95.1084"/>
</g>
<!-- Node18 -->
<g id="node8" class="node">
<title>Node18</title>
<g id="a_node8"><a xlink:href="TooSigning_8h.html#a9aff748f7fc40b75d1a3400400fbf94c" target="_top" xlink:title="TooSigning_signed_network\l_begin">
<polygon fill="#ffffff" stroke="#000000" points="149,-46 149,-76 288,-76 288,-46 149,-46"/>
<text text-anchor="start" x="157" y="-64" font-family="Helvetica,sans-Serif" font-size="10.00" fill="#000000">TooSigning_signed_network</text>
<text text-anchor="middle" x="218.5" y="-53" font-family="Helvetica,sans-Serif" font-size="10.00" fill="#000000">_begin</text>
</a>
</g>
</g>
<!-- Node11&#45;&gt;Node18 -->
<g id="edge12" class="edge">
<title>Node11&#45;&gt;Node18</title>
<path fill="none" stroke="#191970" d="M123.2848,-75.106C131.6921,-73.8604 140.3103,-72.5837 148.7617,-71.3316"/>
<polygon fill="#191970" stroke="#191970" points="122.5388,-71.6782 113.1597,-76.606 123.5647,-78.6026 122.5388,-71.6782"/>
</g>
<!-- Node13 -->
<g id="node3" class="node">
<title>Node13</title>
<g id="a_node3"><a xlink:href="TooNetworking_8h.html#a59be7e774988f57ab43c4c078c570c67" target="_top" xlink:title="TooNetworking_bufferlist_add">
<polygon fill="#ffffff" stroke="#000000" points="324,-120.5 324,-139.5 470,-139.5 470,-120.5 324,-120.5"/>
<text text-anchor="middle" x="397" y="-127.5" font-family="Helvetica,sans-Serif" font-size="10.00" fill="#000000">TooNetworking_bufferlist_add</text>
</a>
</g>
</g>
<!-- Node12&#45;&gt;Node13 -->
<g id="edge2" class="edge">
<title>Node12&#45;&gt;Node13</title>
<path fill="none" stroke="#191970" d="M285.7695,-122.5223C298.23,-123.36 311.3,-124.2387 323.9234,-125.0873"/>
<polygon fill="#191970" stroke="#191970" points="285.6816,-119.0086 275.4693,-121.8299 285.212,-125.9928 285.6816,-119.0086"/>
</g>
<!-- Node14 -->
<g id="node4" class="node">
<title>Node14</title>
<g id="a_node4"><a xlink:href="TooNetworking_8h.html#a9209f3e1a2fdf0b3b88d49105b8fc359" target="_top" xlink:title="TooNetworking_send\l_signed">
<polygon fill="#ffffff" stroke="#000000" points="507,-156 507,-186 616,-186 616,-156 507,-156"/>
<text text-anchor="start" x="515" y="-174" font-family="Helvetica,sans-Serif" font-size="10.00" fill="#000000">TooNetworking_send</text>
<text text-anchor="middle" x="561.5" y="-163" font-family="Helvetica,sans-Serif" font-size="10.00" fill="#000000">_signed</text>
</a>
</g>
</g>
<!-- Node12&#45;&gt;Node14 -->
<g id="edge10" class="edge">
<title>Node12&#45;&gt;Node14</title>
<path fill="none" stroke="#191970" d="M272.6193,-136.083C288.9692,-140.9522 307.0751,-145.7611 324,-149 386.0235,-160.8693 458.4316,-166.4044 506.8422,-168.9399"/>
<polygon fill="#191970" stroke="#191970" points="273.2784,-132.625 262.6924,-133.057 271.2373,-139.3208 273.2784,-132.625"/>
</g>
<!-- Node15 -->
<g id="node5" class="node">
<title>Node15</title>
<g id="a_node5"><a xlink:href="TooNetworking_8h.html#a085ff748b00f6be4ebafcae2bb0dded1" target="_top" xlink:title="TooNetworking_bufferlist\l_send_signed">
<polygon fill="#ffffff" stroke="#000000" points="653,-109 653,-139 778,-139 778,-109 653,-109"/>
<text text-anchor="start" x="661" y="-127" font-family="Helvetica,sans-Serif" font-size="10.00" fill="#000000">TooNetworking_bufferlist</text>
<text text-anchor="middle" x="715.5" y="-116" font-family="Helvetica,sans-Serif" font-size="10.00" fill="#000000">_send_signed</text>
</a>
</g>
</g>
<!-- Node12&#45;&gt;Node15 -->
<g id="edge11" class="edge">
<title>Node12&#45;&gt;Node15</title>
<path fill="none" stroke="#191970" d="M285.2958,-112.897C298.1338,-112.1062 311.478,-111.415 324,-111 440.0569,-107.154 575.4657,-114.2219 652.78,-119.3558"/>
<polygon fill="#191970" stroke="#191970" points="284.8893,-109.4158 275.134,-113.5491 285.3376,-116.4014 284.8893,-109.4158"/>
</g>
<!-- Node13&#45;&gt;Node14 -->
<g id="edge3" class="edge">
<title>Node13&#45;&gt;Node14</title>
<path fill="none" stroke="#191970" d="M471.9582,-141.9562C489.9836,-146.3318 508.4798,-151.2599 523.9473,-155.8685"/>
<polygon fill="#191970" stroke="#191970" points="472.5536,-138.5002 462.0148,-139.5878 470.9316,-145.3097 472.5536,-138.5002"/>
</g>
<!-- Node13&#45;&gt;Node15 -->
<g id="edge9" class="edge">
<title>Node13&#45;&gt;Node15</title>
<path fill="none" stroke="#191970" d="M480.3202,-128.4304C534.3631,-127.4123 603.6376,-126.1073 652.9739,-125.1779"/>
<polygon fill="#191970" stroke="#191970" points="480.0026,-124.9357 470.0703,-128.6235 480.1345,-131.9344 480.0026,-124.9357"/>
</g>
<!-- Node14&#45;&gt;Node13 -->
<g id="edge4" class="edge">
<title>Node14&#45;&gt;Node13</title>
<path fill="none" stroke="#191970" d="M496.7003,-161.4624C468.1416,-154.7987 436.6406,-146.2712 416.8425,-139.53"/>
<polygon fill="#191970" stroke="#191970" points="496.1268,-164.9215 506.6551,-163.7358 497.6853,-158.0972 496.1268,-164.9215"/>
</g>
<!-- Node14&#45;&gt;Node14 -->
<g id="edge5" class="edge">
<title>Node14&#45;&gt;Node14</title>
<path fill="none" stroke="#191970" d="M534.1361,-196.4579C537.5323,-201.179 546.6536,-204.5 561.5,-204.5 585.8633,-204.5 594.8092,-195.5566 588.3377,-186.159"/>
<polygon fill="#191970" stroke="#191970" points="537.6473,-196.3246 534.6623,-186.159 530.6565,-195.9673 537.6473,-196.3246"/>
</g>
<!-- Node14&#45;&gt;Node15 -->
<g id="edge6" class="edge">
<title>Node14&#45;&gt;Node15</title>
<path fill="none" stroke="#191970" d="M620.4304,-153.0147C635.5705,-148.3941 651.6983,-143.4719 666.2888,-139.019"/>
<polygon fill="#191970" stroke="#191970" points="619.1928,-149.733 610.65,-155.9997 621.2361,-156.4282 619.1928,-149.733"/>
</g>
<!-- Node17 -->
<g id="node7" class="node">
<title>Node17</title>
<g id="a_node7"><a xlink:href="TooNetworking_8h.html#ab58e06e0eb6f2f8ecbebeaf3c173fb22" target="_top" xlink:title="TooNetworking_bufferlist\l_send_all">
<polygon fill="#ffffff" stroke="#000000" points="653,-158 653,-188 778,-188 778,-158 653,-158"/>
<text text-anchor="start" x="661" y="-176" font-family="Helvetica,sans-Serif" font-size="10.00" fill="#000000">TooNetworking_bufferlist</text>
<text text-anchor="middle" x="715.5" y="-165" font-family="Helvetica,sans-Serif" font-size="10.00" fill="#000000">_send_all</text>
</a>
</g>
</g>
<!-- Node14&#45;&gt;Node17 -->
<g id="edge8" class="edge">
<title>Node14&#45;&gt;Node17</title>
<path fill="none" stroke="#191970" d="M626.3762,-171.8425C635.1285,-171.9562 644.0952,-172.0727 652.8085,-172.1858"/>
<polygon fill="#191970" stroke="#191970" points="626.2729,-168.341 616.2283,-171.7108 626.1819,-175.3404 626.2729,-168.341"/>
</g>
<!-- Node16 -->
<g id="node6" class="node">
<title>Node16</title>
<g id="a_node6"><a xlink:href="NODE__SKETCH__TooAutomation__Node_8ino_8cpp.html#a0b33edabd7f1c4e4a0bf32c67269be2f" target="_top" xlink:title="loop">
<polygon fill="#ffffff" stroke="#000000" points="814,-114.5 814,-133.5 849,-133.5 849,-114.5 814,-114.5"/>
<text text-anchor="middle" x="831.5" y="-121.5" font-family="Helvetica,sans-Serif" font-size="10.00" fill="#000000">loop</text>
</a>
</g>
</g>
<!-- Node15&#45;&gt;Node16 -->
<g id="edge7" class="edge">
<title>Node15&#45;&gt;Node16</title>
<path fill="none" stroke="#191970" d="M788.5149,-124C797.8175,-124 806.5667,-124 813.7123,-124"/>
<polygon fill="#191970" stroke="#191970" points="788.2531,-120.5001 778.2531,-124 788.253,-127.5001 788.2531,-120.5001"/>
</g>
<!-- Node19 -->
<g id="node9" class="node">
<title>Node19</title>
<g id="a_node9"><a xlink:href="TooNetworking_8h.html#aec97902cf0d3ec10fd86927f3d1df0c6" target="_top" xlink:title="TooNetworking_connection\l_begin">
<polygon fill="#ffffff" stroke="#000000" points="329.5,-30 329.5,-60 464.5,-60 464.5,-30 329.5,-30"/>
<text text-anchor="start" x="337.5" y="-48" font-family="Helvetica,sans-Serif" font-size="10.00" fill="#000000">TooNetworking_connection</text>
<text text-anchor="middle" x="397" y="-37" font-family="Helvetica,sans-Serif" font-size="10.00" fill="#000000">_begin</text>
</a>
</g>
</g>
<!-- Node18&#45;&gt;Node19 -->
<g id="edge13" class="edge">
<title>Node18&#45;&gt;Node19</title>
<path fill="none" stroke="#191970" d="M298.0041,-53.8736C308.4917,-52.9335 319.161,-51.9772 329.4234,-51.0573"/>
<polygon fill="#191970" stroke="#191970" points="297.6714,-50.3893 288.0239,-54.7682 298.2965,-57.3613 297.6714,-50.3893"/>
</g>
<!-- Node20 -->
<g id="node10" class="node">
<title>Node20</title>
<g id="a_node10"><a xlink:href="NODE__SKETCH__TooAutomation__Node_8ino_8cpp.html#a7dfd9b79bc5a37d7df40207afbc5431f" target="_top" xlink:title="setup">
<polygon fill="#ffffff" stroke="#000000" points="541,-38.5 541,-57.5 582,-57.5 582,-38.5 541,-38.5"/>
<text text-anchor="middle" x="561.5" y="-45.5" font-family="Helvetica,sans-Serif" font-size="10.00" fill="#000000">setup</text>
</a>
</g>
</g>
<!-- Node19&#45;&gt;Node20 -->
<g id="edge14" class="edge">
<title>Node19&#45;&gt;Node20</title>
<path fill="none" stroke="#191970" d="M475.1579,-46.4254C499.3149,-46.8659 523.9437,-47.3151 540.6816,-47.6203"/>
<polygon fill="#191970" stroke="#191970" points="474.9204,-42.9206 464.8582,-46.2375 474.7927,-49.9194 474.9204,-42.9206"/>
</g>
<!-- Node21 -->
<g id="node11" class="node">
<title>Node21</title>
<g id="a_node11"><a xlink:href="TooNetworking_8h.html#a2676204dee95da1ef337de95eb0e9bcb" target="_top" xlink:title="TooNetworking_begin">
<polygon fill="#ffffff" stroke="#000000" points="506,-.5 506,-19.5 617,-19.5 617,-.5 506,-.5"/>
<text text-anchor="middle" x="561.5" y="-7.5" font-family="Helvetica,sans-Serif" font-size="10.00" fill="#000000">TooNetworking_begin</text>
</a>
</g>
</g>
<!-- Node19&#45;&gt;Node21 -->
<g id="edge15" class="edge">
<title>Node19&#45;&gt;Node21</title>
<path fill="none" stroke="#191970" d="M474.7882,-28.4493C489.2054,-25.3818 503.806,-22.2753 516.811,-19.5083"/>
<polygon fill="#191970" stroke="#191970" points="473.9108,-25.0576 464.8582,-30.5621 475.3676,-31.9043 473.9108,-25.0576"/>
</g>
</g>
</svg>
