<?xml version="1.0" encoding="UTF-8" standalone="no"?>
<!DOCTYPE svg PUBLIC "-//W3C//DTD SVG 1.1//EN"
 "http://www.w3.org/Graphics/SVG/1.1/DTD/svg11.dtd">
<!-- Generated by graphviz version 2.40.1 (20161225.0304)
 -->
<!-- Title: TooSigning_hash_store Pages: 1 -->
<svg width="697pt" height="169pt"
 viewBox="0.00 0.00 697.00 169.00" xmlns="http://www.w3.org/2000/svg" xmlns:xlink="http://www.w3.org/1999/xlink">
<g id="graph0" class="graph" transform="scale(1 1) rotate(0) translate(4 165)">
<title>TooSigning_hash_store</title>
<polygon fill="#ffffff" stroke="transparent" points="-4,4 -4,-165 693,-165 693,4 -4,4"/>
<!-- Node25 -->
<g id="node1" class="node">
<title>Node25</title>
<polygon fill="#bfbfbf" stroke="#000000" points="0,-30 0,-49 119,-49 119,-30 0,-30"/>
<text text-anchor="middle" x="59.5" y="-37" font-family="Helvetica,sans-Serif" font-size="10.00" fill="#000000">TooSigning_hash_store</text>
</g>
<!-- Node26 -->
<g id="node2" class="node">
<title>Node26</title>
<g id="a_node2"><a xlink:href="TooNetworking_8h.html#a9f893c3218491ee86282fdcd9f376500" target="_top" xlink:title="TooNetworking_send\l_signed_">
<polygon fill="#ffffff" stroke="#000000" points="155.5,-68.5 155.5,-98.5 264.5,-98.5 264.5,-68.5 155.5,-68.5"/>
<text text-anchor="start" x="163.5" y="-86.5" font-family="Helvetica,sans-Serif" font-size="10.00" fill="#000000">TooNetworking_send</text>
<text text-anchor="middle" x="210" y="-75.5" font-family="Helvetica,sans-Serif" font-size="10.00" fill="#000000">_signed_</text>
</a>
</g>
</g>
<!-- Node25&#45;&gt;Node26 -->
<g id="edge1" class="edge">
<title>Node25&#45;&gt;Node26</title>
<path fill="none" stroke="#191970" d="M102.1026,-51.9553C119.636,-57.0813 140.1028,-63.0649 158.4696,-68.4346"/>
<polygon fill="#191970" stroke="#191970" points="102.7366,-48.4942 92.1563,-49.0473 100.7723,-55.2129 102.7366,-48.4942"/>
</g>
<!-- Node32 -->
<g id="node8" class="node">
<title>Node32</title>
<g id="a_node8"><a xlink:href="TooSigning_8cpp.html#a03df9fd005c518d1114f912ae7da9f06" target="_top" xlink:title="TooSigning_unsigned\l_network_available">
<polygon fill="#ffffff" stroke="#000000" points="155,-.5 155,-30.5 265,-30.5 265,-.5 155,-.5"/>
<text text-anchor="start" x="163" y="-18.5" font-family="Helvetica,sans-Serif" font-size="10.00" fill="#000000">TooSigning_unsigned</text>
<text text-anchor="middle" x="210" y="-7.5" font-family="Helvetica,sans-Serif" font-size="10.00" fill="#000000">_network_available</text>
</a>
</g>
</g>
<!-- Node25&#45;&gt;Node32 -->
<g id="edge9" class="edge">
<title>Node25&#45;&gt;Node32</title>
<path fill="none" stroke="#191970" d="M129.3304,-28.3643C137.8363,-27.0078 146.4351,-25.6366 154.6889,-24.3204"/>
<polygon fill="#191970" stroke="#191970" points="128.738,-24.9144 119.414,-29.9456 129.8405,-31.8271 128.738,-24.9144"/>
</g>
<!-- Node27 -->
<g id="node3" class="node">
<title>Node27</title>
<g id="a_node3"><a xlink:href="TooNetworking_8h.html#a59be7e774988f57ab43c4c078c570c67" target="_top" xlink:title="TooNetworking_bufferlist_add">
<polygon fill="#ffffff" stroke="#000000" points="301,-112 301,-131 447,-131 447,-112 301,-112"/>
<text text-anchor="middle" x="374" y="-119" font-family="Helvetica,sans-Serif" font-size="10.00" fill="#000000">TooNetworking_bufferlist_add</text>
</a>
</g>
</g>
<!-- Node26&#45;&gt;Node27 -->
<g id="edge2" class="edge">
<title>Node26&#45;&gt;Node27</title>
<path fill="none" stroke="#191970" d="M274.4333,-98.4297C294.0999,-102.9866 315.181,-107.8712 332.859,-111.9673"/>
<polygon fill="#191970" stroke="#191970" points="275.1416,-95.0011 264.6096,-96.1534 273.5615,-101.8205 275.1416,-95.0011"/>
</g>
<!-- Node28 -->
<g id="node4" class="node">
<title>Node28</title>
<g id="a_node4"><a xlink:href="TooNetworking_8h.html#a9209f3e1a2fdf0b3b88d49105b8fc359" target="_top" xlink:title="TooNetworking_send\l_signed">
<polygon fill="#ffffff" stroke="#000000" points="496,-130.5 496,-160.5 605,-160.5 605,-130.5 496,-130.5"/>
<text text-anchor="start" x="504" y="-148.5" font-family="Helvetica,sans-Serif" font-size="10.00" fill="#000000">TooNetworking_send</text>
<text text-anchor="middle" x="550.5" y="-137.5" font-family="Helvetica,sans-Serif" font-size="10.00" fill="#000000">_signed</text>
</a>
</g>
</g>
<!-- Node26&#45;&gt;Node28 -->
<g id="edge6" class="edge">
<title>Node26&#45;&gt;Node28</title>
<path fill="none" stroke="#191970" d="M235.6377,-104.8669C252.9232,-117.8681 276.8968,-133.3122 301,-140.5 365.768,-159.8143 444.2488,-157.446 495.6791,-152.6486"/>
<polygon fill="#191970" stroke="#191970" points="237.7659,-102.0882 227.7181,-98.7277 233.4772,-107.6206 237.7659,-102.0882"/>
</g>
<!-- Node29 -->
<g id="node5" class="node">
<title>Node29</title>
<g id="a_node5"><a xlink:href="TooNetworking_8h.html#a085ff748b00f6be4ebafcae2bb0dded1" target="_top" xlink:title="TooNetworking_bufferlist\l_send_signed">
<polygon fill="#ffffff" stroke="#000000" points="488,-68.5 488,-98.5 613,-98.5 613,-68.5 488,-68.5"/>
<text text-anchor="start" x="496" y="-86.5" font-family="Helvetica,sans-Serif" font-size="10.00" fill="#000000">TooNetworking_bufferlist</text>
<text text-anchor="middle" x="550.5" y="-75.5" font-family="Helvetica,sans-Serif" font-size="10.00" fill="#000000">_send_signed</text>
</a>
</g>
</g>
<!-- Node26&#45;&gt;Node29 -->
<g id="edge7" class="edge">
<title>Node26&#45;&gt;Node29</title>
<path fill="none" stroke="#191970" d="M275.0236,-83.5C336.2617,-83.5 427.381,-83.5 487.8364,-83.5"/>
<polygon fill="#191970" stroke="#191970" points="274.7072,-80.0001 264.7072,-83.5 274.7072,-87.0001 274.7072,-80.0001"/>
</g>
<!-- Node31 -->
<g id="node7" class="node">
<title>Node31</title>
<g id="a_node7"><a xlink:href="TooNetworking_8h.html#ab58e06e0eb6f2f8ecbebeaf3c173fb22" target="_top" xlink:title="TooNetworking_bufferlist\l_send_all">
<polygon fill="#ffffff" stroke="#000000" points="311.5,-24.5 311.5,-54.5 436.5,-54.5 436.5,-24.5 311.5,-24.5"/>
<text text-anchor="start" x="319.5" y="-42.5" font-family="Helvetica,sans-Serif" font-size="10.00" fill="#000000">TooNetworking_bufferlist</text>
<text text-anchor="middle" x="374" y="-31.5" font-family="Helvetica,sans-Serif" font-size="10.00" fill="#000000">_send_all</text>
</a>
</g>
</g>
<!-- Node26&#45;&gt;Node31 -->
<g id="edge8" class="edge">
<title>Node26&#45;&gt;Node31</title>
<path fill="none" stroke="#191970" d="M274.4209,-66.2164C288.8008,-62.3583 303.9375,-58.2973 317.9476,-54.5385"/>
<polygon fill="#191970" stroke="#191970" points="273.3611,-62.8768 264.6096,-68.8486 275.175,-69.6377 273.3611,-62.8768"/>
</g>
<!-- Node27&#45;&gt;Node28 -->
<g id="edge3" class="edge">
<title>Node27&#45;&gt;Node28</title>
<path fill="none" stroke="#191970" d="M454.1957,-132.4048C468.2782,-134.3197 482.6365,-136.2721 495.8202,-138.0648"/>
<polygon fill="#191970" stroke="#191970" points="454.3914,-128.8993 444.011,-131.0199 453.4482,-135.8354 454.3914,-128.8993"/>
</g>
<!-- Node27&#45;&gt;Node29 -->
<g id="edge4" class="edge">
<title>Node27&#45;&gt;Node29</title>
<path fill="none" stroke="#191970" d="M428.4371,-109.7798C447.2773,-105.7236 468.5399,-101.1458 487.9777,-96.9609"/>
<polygon fill="#191970" stroke="#191970" points="427.5777,-106.3846 418.5384,-111.911 429.0511,-113.2278 427.5777,-106.3846"/>
</g>
<!-- Node30 -->
<g id="node6" class="node">
<title>Node30</title>
<g id="a_node6"><a xlink:href="NODE__SKETCH__TooAutomation__Node_8ino_8cpp.html#a0b33edabd7f1c4e4a0bf32c67269be2f" target="_top" xlink:title="loop">
<polygon fill="#ffffff" stroke="#000000" points="654,-30 654,-49 689,-49 689,-30 654,-30"/>
<text text-anchor="middle" x="671.5" y="-37" font-family="Helvetica,sans-Serif" font-size="10.00" fill="#000000">loop</text>
</a>
</g>
</g>
<!-- Node29&#45;&gt;Node30 -->
<g id="edge5" class="edge">
<title>Node29&#45;&gt;Node30</title>
<path fill="none" stroke="#191970" d="M601.447,-64.9738C620.183,-58.1607 640.1731,-50.8916 653.9833,-45.8697"/>
<polygon fill="#191970" stroke="#191970" points="600.0047,-61.774 591.8029,-68.4808 602.397,-68.3525 600.0047,-61.774"/>
</g>
<!-- Node33 -->
<g id="node9" class="node">
<title>Node33</title>
<g id="a_node9"><a xlink:href="TooNetworking_8h.html#a7382ba1aed5405c3adc02011ea6c45dd" target="_top" xlink:title="TooNetworking_connection\l_maintenance">
<polygon fill="#ffffff" stroke="#000000" points="483,-.5 483,-30.5 618,-30.5 618,-.5 483,-.5"/>
<text text-anchor="start" x="491" y="-18.5" font-family="Helvetica,sans-Serif" font-size="10.00" fill="#000000">TooNetworking_connection</text>
<text text-anchor="middle" x="550.5" y="-7.5" font-family="Helvetica,sans-Serif" font-size="10.00" fill="#000000">_maintenance</text>
</a>
</g>
</g>
<!-- Node32&#45;&gt;Node33 -->
<g id="edge10" class="edge">
<title>Node32&#45;&gt;Node33</title>
<path fill="none" stroke="#191970" d="M275.3794,-14.6952C283.996,-14.6144 292.7103,-14.5455 301,-14.5 365.8879,-14.1435 382.1119,-14.1865 447,-14.5 458.5902,-14.556 470.9103,-14.6472 482.8567,-14.7524"/>
<polygon fill="#191970" stroke="#191970" points="275.3052,-11.1956 265.3404,-14.7947 275.3747,-18.1953 275.3052,-11.1956"/>
</g>
<!-- Node33&#45;&gt;Node30 -->
<g id="edge11" class="edge">
<title>Node33&#45;&gt;Node30</title>
<path fill="none" stroke="#191970" d="M628.1566,-30.903C637.6588,-32.7877 646.5454,-34.5503 653.7679,-35.9829"/>
<polygon fill="#191970" stroke="#191970" points="628.5653,-27.4159 618.0754,-28.9034 627.2034,-34.2822 628.5653,-27.4159"/>
</g>
</g>
</svg>
