<?xml version="1.0" encoding="UTF-8" standalone="no"?>
<!DOCTYPE svg PUBLIC "-//W3C//DTD SVG 1.1//EN"
 "http://www.w3.org/Graphics/SVG/1.1/DTD/svg11.dtd">
<!-- Generated by graphviz version 2.40.1 (20161225.0304)
 -->
<!-- Title: TooSigning_random_data_print Pages: 1 -->
<!--zoomable 224 -->
<svg id="main" version="1.1" xmlns="http://www.w3.org/2000/svg" xmlns:xlink="http://www.w3.org/1999/xlink" xml:space="preserve" onload="init(evt)">
<style type="text/css"><![CDATA[
.edge:hover path { stroke: red; }
.edge:hover polygon { stroke: red; fill: red; }
]]></style>
<script type="text/javascript"><![CDATA[
var edges = document.getElementsByTagName('g');
if (edges && edges.length) {
  for (var i=0;i<edges.length;i++) {
    if (edges[i].id.substr(0,4)=='edge') {
      edges[i].setAttribute('class','edge');
    }
  }
}
]]></script>
        <defs>
                <circle id="rim" cx="0" cy="0" r="7"/>
                <circle id="rim2" cx="0" cy="0" r="3.5"/>
                <g id="zoomPlus">
                        <use xlink:href="#rim" fill="#404040">
                                <set attributeName="fill" to="#808080" begin="zoomplus.mouseover" end="zoomplus.mouseout"/>
                        </use>
                        <path d="M-4,0h8M0,-4v8" fill="none" stroke="white" stroke-width="1.5" pointer-events="none"/>
                </g>
                <g id="zoomMin">
                        <use xlink:href="#rim" fill="#404040">
                                <set attributeName="fill" to="#808080" begin="zoomminus.mouseover" end="zoomminus.mouseout"/>
                        </use>
                        <path d="M-4,0h8" fill="none" stroke="white" stroke-width="1.5" pointer-events="none"/>
                </g>
                <g id="dirArrow">
                        <path fill="none" stroke="white" stroke-width="1.5" d="M0,-3.0v7 M-2.5,-0.5L0,-3.0L2.5,-0.5"/>
                </g>
               <g id="resetDef">
                       <use xlink:href="#rim2" fill="#404040">
                               <set attributeName="fill" to="#808080" begin="reset.mouseover" end="reset.mouseout"/>
                       </use>
               </g>
        </defs>

<script type="text/javascript">
var viewWidth = 720;
var viewHeight = 224;
var sectionId = 'dynsection-0';
</script>
<script xlink:href="svgpan.js"/>
<svg id="graph" class="graph">
<g id="viewport">
<title>TooSigning_random_data_print</title>
<polygon fill="#ffffff" stroke="transparent" points="-4,4 -4,-220.384 716,-220.384 716,4 -4,4"/>
<!-- Node1 -->
<g id="node1" class="node">
<title>Node1</title>
<polygon fill="#bfbfbf" stroke="#000000" points="0,-84.884 0,-114.884 127,-114.884 127,-84.884 0,-84.884"/>
<text text-anchor="start" x="8" y="-102.884" font-family="Helvetica,sans-Serif" font-size="10.00" fill="#000000">TooSigning_random_data</text>
<text text-anchor="middle" x="63.5" y="-91.884" font-family="Helvetica,sans-Serif" font-size="10.00" fill="#000000">_print</text>
</g>
<!-- Node2 -->
<g id="node2" class="node">
<title>Node2</title>
<g id="a_node2"><a xlink:href="NODE__SKETCH__TooAutomation__Node_8ino_8cpp.html#a0b33edabd7f1c4e4a0bf32c67269be2f" target="_top" xlink:title="loop">
<polygon fill="#ffffff" stroke="#000000" points="677,-147.384 677,-166.384 712,-166.384 712,-147.384 677,-147.384"/>
<text text-anchor="middle" x="694.5" y="-154.384" font-family="Helvetica,sans-Serif" font-size="10.00" fill="#000000">loop</text>
</a>
</g>
</g>
<!-- Node1&#45;&gt;Node2 -->
<g id="edge1" class="edge">
<title>Node1&#45;&gt;Node2</title>
<path fill="none" stroke="#191970" d="M137.2508,-110.7563C145.9213,-111.8877 154.6504,-112.9597 163,-113.884 364.0499,-136.1414 609.0932,-151.7297 676.5692,-155.8191"/>
<polygon fill="#191970" stroke="#191970" points="137.5005,-107.2587 127.1256,-109.4062 136.5752,-114.1973 137.5005,-107.2587"/>
</g>
<!-- Node3 -->
<g id="node3" class="node">
<title>Node3</title>
<g id="a_node3"><a xlink:href="TooNetworking_8h.html#a59be7e774988f57ab43c4c078c570c67" target="_top" xlink:title="TooNetworking_bufferlist_add">
<polygon fill="#ffffff" stroke="#000000" points="163,-33.384 163,-52.384 309,-52.384 309,-33.384 163,-33.384"/>
<text text-anchor="middle" x="236" y="-40.384" font-family="Helvetica,sans-Serif" font-size="10.00" fill="#000000">TooNetworking_bufferlist_add</text>
</a>
</g>
</g>
<!-- Node1&#45;&gt;Node3 -->
<g id="edge2" class="edge">
<title>Node1&#45;&gt;Node3</title>
<path fill="none" stroke="#191970" d="M118.8179,-81.509C133.2008,-76.7391 148.6777,-71.6134 163,-66.884 177.4417,-62.1152 193.4974,-56.8343 206.8658,-52.4431"/>
<polygon fill="#191970" stroke="#191970" points="117.4522,-78.2744 109.0629,-84.745 119.6563,-84.9183 117.4522,-78.2744"/>
</g>
<!-- Node4 -->
<g id="node4" class="node">
<title>Node4</title>
<g id="a_node4"><a xlink:href="TooNetworking_8h.html#a9209f3e1a2fdf0b3b88d49105b8fc359" target="_top" xlink:title="TooNetworking_send\l_signed">
<polygon fill="#ffffff" stroke="#000000" points="358,-41.884 358,-71.884 467,-71.884 467,-41.884 358,-41.884"/>
<text text-anchor="start" x="366" y="-59.884" font-family="Helvetica,sans-Serif" font-size="10.00" fill="#000000">TooNetworking_send</text>
<text text-anchor="middle" x="412.5" y="-48.884" font-family="Helvetica,sans-Serif" font-size="10.00" fill="#000000">_signed</text>
</a>
</g>
</g>
<!-- Node1&#45;&gt;Node4 -->
<g id="edge10" class="edge">
<title>Node1&#45;&gt;Node4</title>
<path fill="none" stroke="#191970" d="M137.0331,-90.8241C203.0586,-82.6891 298.4834,-70.9319 357.9328,-63.6072"/>
<polygon fill="#191970" stroke="#191970" points="136.6031,-87.3505 127.1062,-92.0472 137.4591,-94.298 136.6031,-87.3505"/>
</g>
<!-- Node5 -->
<g id="node5" class="node">
<title>Node5</title>
<g id="a_node5"><a xlink:href="TooNetworking_8h.html#a085ff748b00f6be4ebafcae2bb0dded1" target="_top" xlink:title="TooNetworking_bufferlist\l_send_signed">
<polygon fill="#ffffff" stroke="#000000" points="516,-19.884 516,-49.884 641,-49.884 641,-19.884 516,-19.884"/>
<text text-anchor="start" x="524" y="-37.884" font-family="Helvetica,sans-Serif" font-size="10.00" fill="#000000">TooNetworking_bufferlist</text>
<text text-anchor="middle" x="578.5" y="-26.884" font-family="Helvetica,sans-Serif" font-size="10.00" fill="#000000">_send_signed</text>
</a>
</g>
</g>
<!-- Node1&#45;&gt;Node5 -->
<g id="edge11" class="edge">
<title>Node1&#45;&gt;Node5</title>
<path fill="none" stroke="#191970" d="M84.4782,-77.1406C103.0691,-58.7897 132.0104,-34.3654 163,-23.884 282.6243,16.5755 432.8631,-3.421 515.9601,-20.1256"/>
<polygon fill="#191970" stroke="#191970" points="81.6838,-74.9905 77.1685,-84.5751 86.6753,-79.8982 81.6838,-74.9905"/>
</g>
<!-- Node6 -->
<g id="node6" class="node">
<title>Node6</title>
<g id="a_node6"><a xlink:href="TooNetworking_8h.html#ab58e06e0eb6f2f8ecbebeaf3c173fb22" target="_top" xlink:title="TooNetworking_bufferlist\l_send_all">
<polygon fill="#ffffff" stroke="#000000" points="516,-83.884 516,-113.884 641,-113.884 641,-83.884 516,-83.884"/>
<text text-anchor="start" x="524" y="-101.884" font-family="Helvetica,sans-Serif" font-size="10.00" fill="#000000">TooNetworking_bufferlist</text>
<text text-anchor="middle" x="578.5" y="-90.884" font-family="Helvetica,sans-Serif" font-size="10.00" fill="#000000">_send_all</text>
</a>
</g>
</g>
<!-- Node1&#45;&gt;Node6 -->
<g id="edge12" class="edge">
<title>Node1&#45;&gt;Node6</title>
<path fill="none" stroke="#191970" d="M137.3525,-99.7406C239.0258,-99.5432 420.3433,-99.1911 515.7844,-99.0058"/>
<polygon fill="#191970" stroke="#191970" points="137.1588,-96.2409 127.1656,-99.7604 137.1724,-103.2409 137.1588,-96.2409"/>
</g>
<!-- Node7 -->
<g id="node7" class="node">
<title>Node7</title>
<g id="a_node7"><a xlink:href="TooSigning_8cpp.html#a03df9fd005c518d1114f912ae7da9f06" target="_top" xlink:title="TooSigning_unsigned\l_network_available">
<polygon fill="#ffffff" stroke="#000000" points="181,-185.884 181,-215.884 291,-215.884 291,-185.884 181,-185.884"/>
<text text-anchor="start" x="189" y="-203.884" font-family="Helvetica,sans-Serif" font-size="10.00" fill="#000000">TooSigning_unsigned</text>
<text text-anchor="middle" x="236" y="-192.884" font-family="Helvetica,sans-Serif" font-size="10.00" fill="#000000">_network_available</text>
</a>
</g>
</g>
<!-- Node1&#45;&gt;Node7 -->
<g id="edge13" class="edge">
<title>Node1&#45;&gt;Node7</title>
<path fill="none" stroke="#191970" d="M90.1548,-121.4757C109.5807,-136.5573 136.9509,-156.489 163,-170.884 172.954,-176.3847 184.127,-181.4721 194.6823,-185.8359"/>
<polygon fill="#191970" stroke="#191970" points="92.1081,-118.5593 82.0827,-115.1326 87.783,-124.0633 92.1081,-118.5593"/>
</g>
<!-- Node3&#45;&gt;Node4 -->
<g id="edge3" class="edge">
<title>Node3&#45;&gt;Node4</title>
<path fill="none" stroke="#191970" d="M319.0723,-42.7337C332.2256,-43.7244 345.5328,-44.9279 357.8197,-46.251"/>
<polygon fill="#191970" stroke="#191970" points="319.2873,-39.2402 309.0634,-42.019 318.7887,-46.2224 319.2873,-39.2402"/>
</g>
<!-- Node3&#45;&gt;Node5 -->
<g id="edge9" class="edge">
<title>Node3&#45;&gt;Node5</title>
<path fill="none" stroke="#191970" d="M319.3438,-33.6051C327.9987,-32.9014 336.6716,-32.3032 345,-31.884 404.9241,-28.868 420.007,-30.9706 480,-31.884 491.6325,-32.0611 504.0351,-32.3558 515.9779,-32.6931"/>
<polygon fill="#191970" stroke="#191970" points="318.8772,-30.1322 309.2134,-34.4752 319.4763,-37.1065 318.8772,-30.1322"/>
</g>
<!-- Node4&#45;&gt;Node3 -->
<g id="edge4" class="edge">
<title>Node4&#45;&gt;Node3</title>
<path fill="none" stroke="#191970" d="M347.7987,-58.2836C325.6095,-56.9441 301.2774,-54.827 280.9951,-52.4235"/>
<polygon fill="#191970" stroke="#191970" points="347.6412,-61.7802 357.8206,-58.8426 348.0311,-54.791 347.6412,-61.7802"/>
</g>
<!-- Node4&#45;&gt;Node4 -->
<g id="edge5" class="edge">
<title>Node4&#45;&gt;Node4</title>
<path fill="none" stroke="#191970" d="M383.0038,-82.3419C386.6647,-87.063 396.4968,-90.384 412.5,-90.384 438.7617,-90.384 448.4047,-81.4406 441.4289,-72.043"/>
<polygon fill="#191970" stroke="#191970" points="386.5157,-82.2204 383.5711,-72.043 379.5263,-81.8354 386.5157,-82.2204"/>
</g>
<!-- Node4&#45;&gt;Node5 -->
<g id="edge6" class="edge">
<title>Node4&#45;&gt;Node5</title>
<path fill="none" stroke="#191970" d="M477.3518,-48.2892C490.0569,-46.6054 503.3586,-44.8425 515.9855,-43.1691"/>
<polygon fill="#191970" stroke="#191970" points="476.7681,-44.8359 467.3147,-49.6194 477.6878,-51.7752 476.7681,-44.8359"/>
</g>
<!-- Node4&#45;&gt;Node6 -->
<g id="edge8" class="edge">
<title>Node4&#45;&gt;Node6</title>
<path fill="none" stroke="#191970" d="M477.226,-73.2605C491.0422,-76.7561 505.5692,-80.4317 519.1708,-83.873"/>
<polygon fill="#191970" stroke="#191970" points="477.8677,-69.8126 467.3147,-70.7528 476.1507,-76.5988 477.8677,-69.8126"/>
</g>
<!-- Node5&#45;&gt;Node2 -->
<g id="edge7" class="edge">
<title>Node5&#45;&gt;Node2</title>
<path fill="none" stroke="#191970" d="M617.0886,-55.2435C625.4949,-60.6585 633.9683,-66.9547 641,-73.884 663.9569,-96.5065 682.0488,-130.6647 690.0403,-147.215"/>
<polygon fill="#191970" stroke="#191970" points="618.7712,-52.1697 608.4158,-49.9299 615.1143,-58.1385 618.7712,-52.1697"/>
</g>
<!-- Node8 -->
<g id="node8" class="node">
<title>Node8</title>
<g id="a_node8"><a xlink:href="TooNetworking_8h.html#a7382ba1aed5405c3adc02011ea6c45dd" target="_top" xlink:title="TooNetworking_connection\l_maintenance">
<polygon fill="#ffffff" stroke="#000000" points="345,-185.884 345,-215.884 480,-215.884 480,-185.884 345,-185.884"/>
<text text-anchor="start" x="353" y="-203.884" font-family="Helvetica,sans-Serif" font-size="10.00" fill="#000000">TooNetworking_connection</text>
<text text-anchor="middle" x="412.5" y="-192.884" font-family="Helvetica,sans-Serif" font-size="10.00" fill="#000000">_maintenance</text>
</a>
</g>
</g>
<!-- Node7&#45;&gt;Node8 -->
<g id="edge14" class="edge">
<title>Node7&#45;&gt;Node8</title>
<path fill="none" stroke="#191970" d="M301.5073,-200.884C315.6762,-200.884 330.6844,-200.884 344.9308,-200.884"/>
<polygon fill="#191970" stroke="#191970" points="301.3615,-197.3841 291.3614,-200.884 301.3614,-204.3841 301.3615,-197.3841"/>
</g>
<!-- Node8&#45;&gt;Node2 -->
<g id="edge15" class="edge">
<title>Node8&#45;&gt;Node2</title>
<path fill="none" stroke="#191970" d="M490.2403,-193.1261C534.6249,-188.0864 591.1843,-180.6322 641,-170.884 653.0605,-168.524 666.4355,-165.024 676.7953,-162.114"/>
<polygon fill="#191970" stroke="#191970" points="489.6481,-189.6704 480.0989,-194.2598 490.4258,-196.627 489.6481,-189.6704"/>
</g>
</g>
</svg>
        <g id="navigator" transform="translate(0 0)" fill="#404254">
                <rect fill="#f2f5e9" fill-opacity="0.5" stroke="#606060" stroke-width=".5" x="0" y="0" width="60" height="60"/>
                <use id="zoomplus" xlink:href="#zoomPlus" x="17" y="9" onmousedown="handleZoom(evt,'in')"/>
                <use id="zoomminus" xlink:href="#zoomMin" x="42" y="9" onmousedown="handleZoom(evt,'out')"/>
                <use id="reset" xlink:href="#resetDef" x="30" y="36" onmousedown="handleReset()"/>
                <g id="arrowUp" xlink:href="#dirArrow" transform="translate(30 24)" onmousedown="handlePan(0,-1)">
                  <use xlink:href="#rim" fill="#404040">
                        <set attributeName="fill" to="#808080" begin="arrowUp.mouseover" end="arrowUp.mouseout"/>
                  </use>
                  <path fill="none" stroke="white" stroke-width="1.5" d="M0,-3.0v7 M-2.5,-0.5L0,-3.0L2.5,-0.5"/>
                </g>
                <g id="arrowRight" xlink:href="#dirArrow" transform="rotate(90) translate(36 -43)" onmousedown="handlePan(1,0)">
                  <use xlink:href="#rim" fill="#404040">
                        <set attributeName="fill" to="#808080" begin="arrowRight.mouseover" end="arrowRight.mouseout"/>
                  </use>
                  <path fill="none" stroke="white" stroke-width="1.5" d="M0,-3.0v7 M-2.5,-0.5L0,-3.0L2.5,-0.5"/>
                </g>
                <g id="arrowDown" xlink:href="#dirArrow" transform="rotate(180) translate(-30 -48)" onmousedown="handlePan(0,1)">
                  <use xlink:href="#rim" fill="#404040">
                        <set attributeName="fill" to="#808080" begin="arrowDown.mouseover" end="arrowDown.mouseout"/>
                  </use>
                  <path fill="none" stroke="white" stroke-width="1.5" d="M0,-3.0v7 M-2.5,-0.5L0,-3.0L2.5,-0.5"/>
                </g>
                <g id="arrowLeft" xlink:href="#dirArrow" transform="rotate(270) translate(-36 17)" onmousedown="handlePan(-1,0)">
                  <use xlink:href="#rim" fill="#404040">
                        <set attributeName="fill" to="#808080" begin="arrowLeft.mouseover" end="arrowLeft.mouseout"/>
                  </use>
                  <path fill="none" stroke="white" stroke-width="1.5" d="M0,-3.0v7 M-2.5,-0.5L0,-3.0L2.5,-0.5"/>
                </g>
        </g>
        <svg viewBox="0 0 15 15" width="100%" height="30px" preserveAspectRatio="xMaxYMin meet">
         <g id="arrow_out" transform="scale(0.3 0.3)">
          <a xlink:href="group__TOOSIGNING__DEBUGGING_ga974dd51d29b9bd928de51c481289aad7_icgraph_org.svg" target="_base">
           <rect id="button" ry="5" rx="5" y="6" x="6" height="38" width="38"
                fill="#f2f5e9" fill-opacity="0.5" stroke="#606060" stroke-width="1.0"/>
           <path id="arrow"
             d="M 11.500037,31.436501 C 11.940474,20.09759 22.043105,11.32322 32.158766,21.979434 L 37.068811,17.246167 C 37.068811,17.246167 37.088388,32 37.088388,32 L 22.160133,31.978069 C 22.160133,31.978069 26.997745,27.140456 26.997745,27.140456 C 18.528582,18.264221 13.291696,25.230495 11.500037,31.436501 z"
             style="fill:#404040;"/>
          </a>
         </g>
        </svg>
</svg>
