<?xml version="1.0" encoding="UTF-8" standalone="no"?>
<!DOCTYPE svg PUBLIC "-//W3C//DTD SVG 1.1//EN"
 "http://www.w3.org/Graphics/SVG/1.1/DTD/svg11.dtd">
<!-- Generated by graphviz version 2.40.1 (20161225.0304)
 -->
<!-- Title: TooSigning_received_noncelist_print Pages: 1 -->
<svg width="847pt" height="102pt"
 viewBox="0.00 0.00 847.00 102.13" xmlns="http://www.w3.org/2000/svg" xmlns:xlink="http://www.w3.org/1999/xlink">
<g id="graph0" class="graph" transform="scale(1 1) rotate(0) translate(4 98.1275)">
<title>TooSigning_received_noncelist_print</title>
<polygon fill="#ffffff" stroke="transparent" points="-4,4 -4,-98.1275 843,-98.1275 843,4 -4,4"/>
<!-- Node10 -->
<g id="node1" class="node">
<title>Node10</title>
<polygon fill="#bfbfbf" stroke="#000000" points="0,-14.6275 0,-44.6275 107,-44.6275 107,-14.6275 0,-14.6275"/>
<text text-anchor="start" x="8" y="-32.6275" font-family="Helvetica,sans-Serif" font-size="10.00" fill="#000000">TooSigning_received</text>
<text text-anchor="middle" x="53.5" y="-21.6275" font-family="Helvetica,sans-Serif" font-size="10.00" fill="#000000">_noncelist_print</text>
</g>
<!-- Node11 -->
<g id="node2" class="node">
<title>Node11</title>
<g id="a_node2"><a xlink:href="TooSigning_8h.html#a03dcb29c3bb1c45c6583cd6a5d731523" target="_top" xlink:title="TooSigning_received\l_noncelist_add">
<polygon fill="#ffffff" stroke="#000000" points="143,-63.6275 143,-93.6275 250,-93.6275 250,-63.6275 143,-63.6275"/>
<text text-anchor="start" x="151" y="-81.6275" font-family="Helvetica,sans-Serif" font-size="10.00" fill="#000000">TooSigning_received</text>
<text text-anchor="middle" x="196.5" y="-70.6275" font-family="Helvetica,sans-Serif" font-size="10.00" fill="#000000">_noncelist_add</text>
</a>
</g>
</g>
<!-- Node10&#45;&gt;Node11 -->
<g id="edge1" class="edge">
<title>Node10&#45;&gt;Node11</title>
<path fill="none" stroke="#191970" d="M107.1677,-48.0171C122.057,-53.119 138.0483,-58.5986 152.3278,-63.4915"/>
<polygon fill="#191970" stroke="#191970" points="108.1662,-44.6595 97.5715,-44.7289 105.897,-51.2815 108.1662,-44.6595"/>
</g>
<!-- Node15 -->
<g id="node6" class="node">
<title>Node15</title>
<g id="a_node6"><a xlink:href="TooSigning_8h.html#a17c243416f235786f027aa263693e3d5" target="_top" xlink:title="TooSigning_received\l_noncelist_remove">
<polygon fill="#ffffff" stroke="#000000" points="143,-14.6275 143,-44.6275 250,-44.6275 250,-14.6275 143,-14.6275"/>
<text text-anchor="start" x="151" y="-32.6275" font-family="Helvetica,sans-Serif" font-size="10.00" fill="#000000">TooSigning_received</text>
<text text-anchor="middle" x="196.5" y="-21.6275" font-family="Helvetica,sans-Serif" font-size="10.00" fill="#000000">_noncelist_remove</text>
</a>
</g>
</g>
<!-- Node10&#45;&gt;Node15 -->
<g id="edge5" class="edge">
<title>Node10&#45;&gt;Node15</title>
<path fill="none" stroke="#191970" d="M117.3238,-29.6275C125.7452,-29.6275 134.3103,-29.6275 142.5445,-29.6275"/>
<polygon fill="#191970" stroke="#191970" points="117.1548,-26.1276 107.1548,-29.6275 117.1547,-33.1276 117.1548,-26.1276"/>
</g>
<!-- Node16 -->
<g id="node7" class="node">
<title>Node16</title>
<g id="a_node7"><a xlink:href="TooSigning_8h.html#aacdaa96bfb38ad32fac838381608b44e" target="_top" xlink:title="TooSigning_received\l_noncelist_remove_timeout">
<polygon fill="#ffffff" stroke="#000000" points="286,-14.6275 286,-44.6275 422,-44.6275 422,-14.6275 286,-14.6275"/>
<text text-anchor="start" x="294" y="-32.6275" font-family="Helvetica,sans-Serif" font-size="10.00" fill="#000000">TooSigning_received</text>
<text text-anchor="middle" x="354" y="-21.6275" font-family="Helvetica,sans-Serif" font-size="10.00" fill="#000000">_noncelist_remove_timeout</text>
</a>
</g>
</g>
<!-- Node10&#45;&gt;Node16 -->
<g id="edge9" class="edge">
<title>Node10&#45;&gt;Node16</title>
<path fill="none" stroke="#191970" d="M107.9417,-11.8831C119.401,-8.8669 131.503,-6.203 143,-4.6275 190.1152,1.8293 202.7749,.9689 250,-4.6275 267.15,-6.6598 285.5647,-10.5149 302.0618,-14.6001"/>
<polygon fill="#191970" stroke="#191970" points="106.7778,-8.5733 98.0681,-14.6059 108.6387,-15.3214 106.7778,-8.5733"/>
</g>
<!-- Node12 -->
<g id="node3" class="node">
<title>Node12</title>
<g id="a_node3"><a xlink:href="TooSigning_8cpp.html#a03df9fd005c518d1114f912ae7da9f06" target="_top" xlink:title="TooSigning_unsigned\l_network_available">
<polygon fill="#ffffff" stroke="#000000" points="472.5,-63.6275 472.5,-93.6275 582.5,-93.6275 582.5,-63.6275 472.5,-63.6275"/>
<text text-anchor="start" x="480.5" y="-81.6275" font-family="Helvetica,sans-Serif" font-size="10.00" fill="#000000">TooSigning_unsigned</text>
<text text-anchor="middle" x="527.5" y="-70.6275" font-family="Helvetica,sans-Serif" font-size="10.00" fill="#000000">_network_available</text>
</a>
</g>
</g>
<!-- Node11&#45;&gt;Node12 -->
<g id="edge2" class="edge">
<title>Node11&#45;&gt;Node12</title>
<path fill="none" stroke="#191970" d="M260.4064,-78.6275C321.9251,-78.6275 413.9881,-78.6275 472.3731,-78.6275"/>
<polygon fill="#191970" stroke="#191970" points="260.0488,-75.1276 250.0487,-78.6275 260.0487,-82.1276 260.0488,-75.1276"/>
</g>
<!-- Node13 -->
<g id="node4" class="node">
<title>Node13</title>
<g id="a_node4"><a xlink:href="TooNetworking_8h.html#a7382ba1aed5405c3adc02011ea6c45dd" target="_top" xlink:title="TooNetworking_connection\l_maintenance">
<polygon fill="#ffffff" stroke="#000000" points="633,-38.6275 633,-68.6275 768,-68.6275 768,-38.6275 633,-38.6275"/>
<text text-anchor="start" x="641" y="-56.6275" font-family="Helvetica,sans-Serif" font-size="10.00" fill="#000000">TooNetworking_connection</text>
<text text-anchor="middle" x="700.5" y="-45.6275" font-family="Helvetica,sans-Serif" font-size="10.00" fill="#000000">_maintenance</text>
</a>
</g>
</g>
<!-- Node12&#45;&gt;Node13 -->
<g id="edge3" class="edge">
<title>Node12&#45;&gt;Node13</title>
<path fill="none" stroke="#191970" d="M592.9824,-69.1647C605.9975,-67.2839 619.6882,-65.3055 632.7764,-63.4141"/>
<polygon fill="#191970" stroke="#191970" points="592.1105,-65.7542 582.7139,-70.6486 593.1117,-72.6823 592.1105,-65.7542"/>
</g>
<!-- Node14 -->
<g id="node5" class="node">
<title>Node14</title>
<g id="a_node5"><a xlink:href="NODE__SKETCH__TooAutomation__Node_8ino_8cpp.html#a0b33edabd7f1c4e4a0bf32c67269be2f" target="_top" xlink:title="loop">
<polygon fill="#ffffff" stroke="#000000" points="804,-44.1275 804,-63.1275 839,-63.1275 839,-44.1275 804,-44.1275"/>
<text text-anchor="middle" x="821.5" y="-51.1275" font-family="Helvetica,sans-Serif" font-size="10.00" fill="#000000">loop</text>
</a>
</g>
</g>
<!-- Node13&#45;&gt;Node14 -->
<g id="edge4" class="edge">
<title>Node13&#45;&gt;Node14</title>
<path fill="none" stroke="#191970" d="M778.1566,-53.6275C787.6588,-53.6275 796.5454,-53.6275 803.7679,-53.6275"/>
<polygon fill="#191970" stroke="#191970" points="778.0755,-50.1276 768.0754,-53.6275 778.0754,-57.1276 778.0755,-50.1276"/>
</g>
<!-- Node15&#45;&gt;Node16 -->
<g id="edge6" class="edge">
<title>Node15&#45;&gt;Node16</title>
<path fill="none" stroke="#191970" d="M260.4024,-29.6275C268.8338,-29.6275 277.5009,-29.6275 285.9978,-29.6275"/>
<polygon fill="#191970" stroke="#191970" points="260.2621,-26.1276 250.2621,-29.6275 260.262,-33.1276 260.2621,-26.1276"/>
</g>
<!-- Node17 -->
<g id="node8" class="node">
<title>Node17</title>
<g id="a_node8"><a xlink:href="TooSigning_8h.html#af68b8dda897cf488129c205ad532ca9e" target="_top" xlink:title="TooSigning_signed_network\l_update">
<polygon fill="#ffffff" stroke="#000000" points="458,-14.6275 458,-44.6275 597,-44.6275 597,-14.6275 458,-14.6275"/>
<text text-anchor="start" x="466" y="-32.6275" font-family="Helvetica,sans-Serif" font-size="10.00" fill="#000000">TooSigning_signed_network</text>
<text text-anchor="middle" x="527.5" y="-21.6275" font-family="Helvetica,sans-Serif" font-size="10.00" fill="#000000">_update</text>
</a>
</g>
</g>
<!-- Node16&#45;&gt;Node17 -->
<g id="edge7" class="edge">
<title>Node16&#45;&gt;Node17</title>
<path fill="none" stroke="#191970" d="M432.1002,-29.6275C440.7036,-29.6275 449.4215,-29.6275 457.9111,-29.6275"/>
<polygon fill="#191970" stroke="#191970" points="432.0739,-26.1276 422.0738,-29.6275 432.0738,-33.1276 432.0739,-26.1276"/>
</g>
<!-- Node17&#45;&gt;Node13 -->
<g id="edge8" class="edge">
<title>Node17&#45;&gt;Node13</title>
<path fill="none" stroke="#191970" d="M607.338,-40.7033C615.883,-41.8887 624.5152,-43.0862 632.8985,-44.2492"/>
<polygon fill="#191970" stroke="#191970" points="607.7532,-37.2274 597.3671,-39.32 606.7912,-44.161 607.7532,-37.2274"/>
</g>
</g>
</svg>
