<?xml version="1.0" encoding="UTF-8" standalone="no"?>
<!DOCTYPE svg PUBLIC "-//W3C//DTD SVG 1.1//EN"
 "http://www.w3.org/Graphics/SVG/1.1/DTD/svg11.dtd">
<!-- Generated by graphviz version 2.40.1 (20161225.0304)
 -->
<!-- Title: TooSigning_random_data_print Pages: 1 -->
<svg width="684pt" height="236pt"
 viewBox="0.00 0.00 684.00 235.58" xmlns="http://www.w3.org/2000/svg" xmlns:xlink="http://www.w3.org/1999/xlink">
<g id="graph0" class="graph" transform="scale(1 1) rotate(0) translate(4 231.5781)">
<title>TooSigning_random_data_print</title>
<polygon fill="#ffffff" stroke="transparent" points="-4,4 -4,-231.5781 680,-231.5781 680,4 -4,4"/>
<!-- Node1 -->
<g id="node1" class="node">
<title>Node1</title>
<polygon fill="#bfbfbf" stroke="#000000" points="0,-104.5 0,-134.5 127,-134.5 127,-104.5 0,-104.5"/>
<text text-anchor="start" x="8" y="-122.5" font-family="Helvetica,sans-Serif" font-size="10.00" fill="#000000">TooSigning_random_data</text>
<text text-anchor="middle" x="63.5" y="-111.5" font-family="Helvetica,sans-Serif" font-size="10.00" fill="#000000">_print</text>
</g>
<!-- Node2 -->
<g id="node2" class="node">
<title>Node2</title>
<g id="a_node2"><a xlink:href="NODE__SKETCH__TooAutomation__Node_8ino_8cpp.html#a0b33edabd7f1c4e4a0bf32c67269be2f" target="_top" xlink:title="loop">
<polygon fill="#ffffff" stroke="#000000" points="641,-169 641,-188 676,-188 676,-169 641,-169"/>
<text text-anchor="middle" x="658.5" y="-176" font-family="Helvetica,sans-Serif" font-size="10.00" fill="#000000">loop</text>
</a>
</g>
</g>
<!-- Node1&#45;&gt;Node2 -->
<g id="edge1" class="edge">
<title>Node1&#45;&gt;Node2</title>
<path fill="none" stroke="#191970" d="M88.2749,-141.1449C107.35,-156.5125 135.0963,-176.1791 163,-186.5 347.2621,-254.6543 411.0497,-223.8177 605,-192.5 617.1321,-190.541 630.5071,-187.041 640.849,-184.0308"/>
<polygon fill="#191970" stroke="#191970" points="90.3444,-138.3149 80.4039,-134.6492 85.8889,-143.7138 90.3444,-138.3149"/>
</g>
<!-- Node3 -->
<g id="node3" class="node">
<title>Node3</title>
<g id="a_node3"><a xlink:href="TooNetworking_8h.html#a9209f3e1a2fdf0b3b88d49105b8fc359" target="_top" xlink:title="TooNetworking_send\l_signed">
<polygon fill="#ffffff" stroke="#000000" points="317,-57.5 317,-87.5 426,-87.5 426,-57.5 317,-57.5"/>
<text text-anchor="start" x="325" y="-75.5" font-family="Helvetica,sans-Serif" font-size="10.00" fill="#000000">TooNetworking_send</text>
<text text-anchor="middle" x="371.5" y="-64.5" font-family="Helvetica,sans-Serif" font-size="10.00" fill="#000000">_signed</text>
</a>
</g>
</g>
<!-- Node1&#45;&gt;Node3 -->
<g id="edge2" class="edge">
<title>Node1&#45;&gt;Node3</title>
<path fill="none" stroke="#191970" d="M137.3938,-108.224C192.5965,-99.8002 266.83,-88.4724 316.7782,-80.8504"/>
<polygon fill="#191970" stroke="#191970" points="136.6754,-104.793 127.3178,-109.7616 137.7314,-111.7129 136.6754,-104.793"/>
</g>
<!-- Node4 -->
<g id="node4" class="node">
<title>Node4</title>
<g id="a_node4"><a xlink:href="TooNetworking_8h.html#a9f893c3218491ee86282fdcd9f376500" target="_top" xlink:title="TooNetworking_send\l_signed_">
<polygon fill="#ffffff" stroke="#000000" points="163.5,-126.5 163.5,-156.5 272.5,-156.5 272.5,-126.5 163.5,-126.5"/>
<text text-anchor="start" x="171.5" y="-144.5" font-family="Helvetica,sans-Serif" font-size="10.00" fill="#000000">TooNetworking_send</text>
<text text-anchor="middle" x="218" y="-133.5" font-family="Helvetica,sans-Serif" font-size="10.00" fill="#000000">_signed_</text>
</a>
</g>
</g>
<!-- Node1&#45;&gt;Node4 -->
<g id="edge3" class="edge">
<title>Node1&#45;&gt;Node4</title>
<path fill="none" stroke="#191970" d="M137.4118,-130.0247C146.1276,-131.2657 154.9001,-132.5149 163.2845,-133.7088"/>
<polygon fill="#191970" stroke="#191970" points="137.6266,-126.52 127.2331,-128.5753 136.6398,-133.4501 137.6266,-126.52"/>
</g>
<!-- Node5 -->
<g id="node5" class="node">
<title>Node5</title>
<g id="a_node5"><a xlink:href="TooNetworking_8h.html#a085ff748b00f6be4ebafcae2bb0dded1" target="_top" xlink:title="TooNetworking_bufferlist\l_send_signed">
<polygon fill="#ffffff" stroke="#000000" points="309,-163.5 309,-193.5 434,-193.5 434,-163.5 309,-163.5"/>
<text text-anchor="start" x="317" y="-181.5" font-family="Helvetica,sans-Serif" font-size="10.00" fill="#000000">TooNetworking_bufferlist</text>
<text text-anchor="middle" x="371.5" y="-170.5" font-family="Helvetica,sans-Serif" font-size="10.00" fill="#000000">_send_signed</text>
</a>
</g>
</g>
<!-- Node1&#45;&gt;Node5 -->
<g id="edge10" class="edge">
<title>Node1&#45;&gt;Node5</title>
<path fill="none" stroke="#191970" d="M97.6393,-139.6345C116.2966,-149.5899 140.1937,-160.6914 163,-166.5 210.9608,-178.7153 267.0536,-181.3158 308.9709,-181.0819"/>
<polygon fill="#191970" stroke="#191970" points="99.1141,-136.4517 88.6621,-134.7178 95.7516,-142.5912 99.1141,-136.4517"/>
</g>
<!-- Node6 -->
<g id="node6" class="node">
<title>Node6</title>
<g id="a_node6"><a xlink:href="TooNetworking_8h.html#ab58e06e0eb6f2f8ecbebeaf3c173fb22" target="_top" xlink:title="TooNetworking_bufferlist\l_send_all">
<polygon fill="#ffffff" stroke="#000000" points="309,-111.5 309,-141.5 434,-141.5 434,-111.5 309,-111.5"/>
<text text-anchor="start" x="317" y="-129.5" font-family="Helvetica,sans-Serif" font-size="10.00" fill="#000000">TooNetworking_bufferlist</text>
<text text-anchor="middle" x="371.5" y="-118.5" font-family="Helvetica,sans-Serif" font-size="10.00" fill="#000000">_send_all</text>
</a>
</g>
</g>
<!-- Node1&#45;&gt;Node6 -->
<g id="edge11" class="edge">
<title>Node1&#45;&gt;Node6</title>
<path fill="none" stroke="#191970" d="M137.4846,-116.8085C177.6039,-115.8492 228.0423,-115.4504 273,-117.5 284.579,-118.0279 296.8999,-118.9031 308.7665,-119.9058"/>
<polygon fill="#191970" stroke="#191970" points="137.1597,-113.3155 127.2526,-117.0705 137.3389,-120.3132 137.1597,-113.3155"/>
</g>
<!-- Node8 -->
<g id="node8" class="node">
<title>Node8</title>
<g id="a_node8"><a xlink:href="TooSigning_8cpp.html#a03df9fd005c518d1114f912ae7da9f06" target="_top" xlink:title="TooSigning_unsigned\l_network_available">
<polygon fill="#ffffff" stroke="#000000" points="163,-.5 163,-30.5 273,-30.5 273,-.5 163,-.5"/>
<text text-anchor="start" x="171" y="-18.5" font-family="Helvetica,sans-Serif" font-size="10.00" fill="#000000">TooSigning_unsigned</text>
<text text-anchor="middle" x="218" y="-7.5" font-family="Helvetica,sans-Serif" font-size="10.00" fill="#000000">_network_available</text>
</a>
</g>
</g>
<!-- Node1&#45;&gt;Node8 -->
<g id="edge12" class="edge">
<title>Node1&#45;&gt;Node8</title>
<path fill="none" stroke="#191970" d="M90.2723,-97.9837C109.8959,-82.6148 137.4576,-61.8506 163,-45.5 171.0613,-40.3397 180.0795,-35.1822 188.4441,-30.6353"/>
<polygon fill="#191970" stroke="#191970" points="88.0609,-95.2702 82.3771,-104.2115 92.3961,-100.7662 88.0609,-95.2702"/>
</g>
<!-- Node4&#45;&gt;Node3 -->
<g id="edge4" class="edge">
<title>Node4&#45;&gt;Node3</title>
<path fill="none" stroke="#191970" d="M261.0426,-122.1519C285.3617,-111.2201 315.3154,-97.7556 337.8924,-87.607"/>
<polygon fill="#191970" stroke="#191970" points="259.3721,-119.0653 251.6862,-126.3577 262.2421,-125.45 259.3721,-119.0653"/>
</g>
<!-- Node4&#45;&gt;Node5 -->
<g id="edge5" class="edge">
<title>Node4&#45;&gt;Node5</title>
<path fill="none" stroke="#191970" d="M282.3812,-157.0186C291.1952,-159.1431 300.2326,-161.3215 309.0121,-163.4378"/>
<polygon fill="#191970" stroke="#191970" points="283.0923,-153.5898 272.5506,-154.649 281.452,-160.3949 283.0923,-153.5898"/>
</g>
<!-- Node4&#45;&gt;Node6 -->
<g id="edge7" class="edge">
<title>Node4&#45;&gt;Node6</title>
<path fill="none" stroke="#191970" d="M282.5908,-135.1882C291.2498,-134.342 300.1207,-133.4752 308.7474,-132.6322"/>
<polygon fill="#191970" stroke="#191970" points="282.1627,-131.7133 272.5506,-136.1693 282.8436,-138.6801 282.1627,-131.7133"/>
</g>
<!-- Node5&#45;&gt;Node2 -->
<g id="edge6" class="edge">
<title>Node5&#45;&gt;Node2</title>
<path fill="none" stroke="#191970" d="M444.4555,-178.5C510.2868,-178.5 602.4848,-178.5 640.7613,-178.5"/>
<polygon fill="#191970" stroke="#191970" points="444.1288,-175.0001 434.1287,-178.5 444.1287,-182.0001 444.1288,-175.0001"/>
</g>
<!-- Node7 -->
<g id="node7" class="node">
<title>Node7</title>
<g id="a_node7"><a xlink:href="TooNetworking_8h.html#a7382ba1aed5405c3adc02011ea6c45dd" target="_top" xlink:title="TooNetworking_connection\l_maintenance">
<polygon fill="#ffffff" stroke="#000000" points="470,-111.5 470,-141.5 605,-141.5 605,-111.5 470,-111.5"/>
<text text-anchor="start" x="478" y="-129.5" font-family="Helvetica,sans-Serif" font-size="10.00" fill="#000000">TooNetworking_connection</text>
<text text-anchor="middle" x="537.5" y="-118.5" font-family="Helvetica,sans-Serif" font-size="10.00" fill="#000000">_maintenance</text>
</a>
</g>
</g>
<!-- Node6&#45;&gt;Node7 -->
<g id="edge8" class="edge">
<title>Node6&#45;&gt;Node7</title>
<path fill="none" stroke="#191970" d="M444.4873,-126.5C452.951,-126.5 461.5556,-126.5 469.9422,-126.5"/>
<polygon fill="#191970" stroke="#191970" points="444.2575,-123.0001 434.2575,-126.5 444.2574,-130.0001 444.2575,-123.0001"/>
</g>
<!-- Node7&#45;&gt;Node2 -->
<g id="edge9" class="edge">
<title>Node7&#45;&gt;Node2</title>
<path fill="none" stroke="#191970" d="M581.9369,-145.5968C602.3027,-154.3491 625.2866,-164.2265 640.711,-170.8552"/>
<polygon fill="#191970" stroke="#191970" points="583.0677,-142.2733 572.4982,-141.5406 580.3038,-148.7046 583.0677,-142.2733"/>
</g>
<!-- Node8&#45;&gt;Node7 -->
<g id="edge13" class="edge">
<title>Node8&#45;&gt;Node7</title>
<path fill="none" stroke="#191970" d="M283.2874,-17.1626C327.352,-20.2553 385.9989,-28.2784 434,-48.5 469.4572,-63.4372 503.7257,-93.2215 522.5731,-111.3533"/>
<polygon fill="#191970" stroke="#191970" points="283.4694,-13.6672 273.2676,-16.5262 283.0256,-20.6531 283.4694,-13.6672"/>
</g>
</g>
</svg>
