<?xml version="1.0" encoding="UTF-8" standalone="no"?>
<!DOCTYPE svg PUBLIC "-//W3C//DTD SVG 1.1//EN"
 "http://www.w3.org/Graphics/SVG/1.1/DTD/svg11.dtd">
<!-- Generated by graphviz version 2.40.1 (20161225.0304)
 -->
<!-- Title: TooSigning_requested_noncelist_initialize Pages: 1 -->
<svg width="614pt" height="164pt"
 viewBox="0.00 0.00 614.00 163.50" xmlns="http://www.w3.org/2000/svg" xmlns:xlink="http://www.w3.org/1999/xlink">
<g id="graph0" class="graph" transform="scale(1 1) rotate(0) translate(4 159.5)">
<title>TooSigning_requested_noncelist_initialize</title>
<polygon fill="#ffffff" stroke="transparent" points="-4,4 -4,-159.5 610,-159.5 610,4 -4,4"/>
<!-- Node11 -->
<g id="node1" class="node">
<title>Node11</title>
<polygon fill="#bfbfbf" stroke="#000000" points="0,-51 0,-81 113,-81 113,-51 0,-51"/>
<text text-anchor="start" x="8" y="-69" font-family="Helvetica,sans-Serif" font-size="10.00" fill="#000000">TooSigning_requested</text>
<text text-anchor="middle" x="56.5" y="-58" font-family="Helvetica,sans-Serif" font-size="10.00" fill="#000000">_noncelist_initialize</text>
</g>
<!-- Node12 -->
<g id="node2" class="node">
<title>Node12</title>
<g id="a_node2"><a xlink:href="TooSigning_8h.html#a53b55547df3d4276f3ca6a74d601549a" target="_top" xlink:title="TooSigning_requested\l_noncelist_add">
<polygon fill="#ffffff" stroke="#000000" points="162,-76 162,-106 275,-106 275,-76 162,-76"/>
<text text-anchor="start" x="170" y="-94" font-family="Helvetica,sans-Serif" font-size="10.00" fill="#000000">TooSigning_requested</text>
<text text-anchor="middle" x="218.5" y="-83" font-family="Helvetica,sans-Serif" font-size="10.00" fill="#000000">_noncelist_add</text>
</a>
</g>
</g>
<!-- Node11&#45;&gt;Node12 -->
<g id="edge1" class="edge">
<title>Node11&#45;&gt;Node12</title>
<path fill="none" stroke="#191970" d="M123.3046,-76.3093C136.1169,-78.2866 149.4184,-80.3393 161.8723,-82.2612"/>
<polygon fill="#191970" stroke="#191970" points="123.5766,-72.81 113.1597,-74.7438 122.5089,-79.7281 123.5766,-72.81"/>
</g>
<!-- Node16 -->
<g id="node6" class="node">
<title>Node16</title>
<g id="a_node6"><a xlink:href="TooSigning_8h.html#a9aff748f7fc40b75d1a3400400fbf94c" target="_top" xlink:title="TooSigning_signed_network\l_begin">
<polygon fill="#ffffff" stroke="#000000" points="149,-27 149,-57 288,-57 288,-27 149,-27"/>
<text text-anchor="start" x="157" y="-45" font-family="Helvetica,sans-Serif" font-size="10.00" fill="#000000">TooSigning_signed_network</text>
<text text-anchor="middle" x="218.5" y="-34" font-family="Helvetica,sans-Serif" font-size="10.00" fill="#000000">_begin</text>
</a>
</g>
</g>
<!-- Node11&#45;&gt;Node16 -->
<g id="edge5" class="edge">
<title>Node11&#45;&gt;Node16</title>
<path fill="none" stroke="#191970" d="M123.2848,-56.106C131.6921,-54.8604 140.3103,-53.5837 148.7617,-52.3316"/>
<polygon fill="#191970" stroke="#191970" points="122.5388,-52.6782 113.1597,-57.606 123.5647,-59.6026 122.5388,-52.6782"/>
</g>
<!-- Node13 -->
<g id="node3" class="node">
<title>Node13</title>
<g id="a_node3"><a xlink:href="TooNetworking_8h.html#a9209f3e1a2fdf0b3b88d49105b8fc359" target="_top" xlink:title="TooNetworking_send\l_signed">
<polygon fill="#ffffff" stroke="#000000" points="337,-125 337,-155 446,-155 446,-125 337,-125"/>
<text text-anchor="start" x="345" y="-143" font-family="Helvetica,sans-Serif" font-size="10.00" fill="#000000">TooNetworking_send</text>
<text text-anchor="middle" x="391.5" y="-132" font-family="Helvetica,sans-Serif" font-size="10.00" fill="#000000">_signed</text>
</a>
</g>
</g>
<!-- Node12&#45;&gt;Node13 -->
<g id="edge2" class="edge">
<title>Node12&#45;&gt;Node13</title>
<path fill="none" stroke="#191970" d="M281.6771,-108.8941C300.2846,-114.1644 320.4483,-119.8755 338.3587,-124.9484"/>
<polygon fill="#191970" stroke="#191970" points="282.3927,-105.4591 271.8173,-106.1014 280.485,-112.1942 282.3927,-105.4591"/>
</g>
<!-- Node14 -->
<g id="node4" class="node">
<title>Node14</title>
<g id="a_node4"><a xlink:href="TooNetworking_8h.html#a085ff748b00f6be4ebafcae2bb0dded1" target="_top" xlink:title="TooNetworking_bufferlist\l_send_signed">
<polygon fill="#ffffff" stroke="#000000" points="329,-76 329,-106 454,-106 454,-76 329,-76"/>
<text text-anchor="start" x="337" y="-94" font-family="Helvetica,sans-Serif" font-size="10.00" fill="#000000">TooNetworking_bufferlist</text>
<text text-anchor="middle" x="391.5" y="-83" font-family="Helvetica,sans-Serif" font-size="10.00" fill="#000000">_send_signed</text>
</a>
</g>
</g>
<!-- Node12&#45;&gt;Node14 -->
<g id="edge3" class="edge">
<title>Node12&#45;&gt;Node14</title>
<path fill="none" stroke="#191970" d="M285.3738,-91C299.6341,-91 314.6457,-91 328.7449,-91"/>
<polygon fill="#191970" stroke="#191970" points="285.1467,-87.5001 275.1467,-91 285.1466,-94.5001 285.1467,-87.5001"/>
</g>
<!-- Node15 -->
<g id="node5" class="node">
<title>Node15</title>
<g id="a_node5"><a xlink:href="NODE__SKETCH__TooAutomation__Node_8ino_8cpp.html#a0b33edabd7f1c4e4a0bf32c67269be2f" target="_top" xlink:title="loop">
<polygon fill="#ffffff" stroke="#000000" points="533,-81.5 533,-100.5 568,-100.5 568,-81.5 533,-81.5"/>
<text text-anchor="middle" x="550.5" y="-88.5" font-family="Helvetica,sans-Serif" font-size="10.00" fill="#000000">loop</text>
</a>
</g>
</g>
<!-- Node14&#45;&gt;Node15 -->
<g id="edge4" class="edge">
<title>Node14&#45;&gt;Node15</title>
<path fill="none" stroke="#191970" d="M464.3864,-91C489.7936,-91 516.1078,-91 532.8528,-91"/>
<polygon fill="#191970" stroke="#191970" points="464.341,-87.5001 454.341,-91 464.341,-94.5001 464.341,-87.5001"/>
</g>
<!-- Node17 -->
<g id="node7" class="node">
<title>Node17</title>
<g id="a_node7"><a xlink:href="TooNetworking_8h.html#aec97902cf0d3ec10fd86927f3d1df0c6" target="_top" xlink:title="TooNetworking_connection\l_begin">
<polygon fill="#ffffff" stroke="#000000" points="324,-27 324,-57 459,-57 459,-27 324,-27"/>
<text text-anchor="start" x="332" y="-45" font-family="Helvetica,sans-Serif" font-size="10.00" fill="#000000">TooNetworking_connection</text>
<text text-anchor="middle" x="391.5" y="-34" font-family="Helvetica,sans-Serif" font-size="10.00" fill="#000000">_begin</text>
</a>
</g>
</g>
<!-- Node16&#45;&gt;Node17 -->
<g id="edge6" class="edge">
<title>Node16&#45;&gt;Node17</title>
<path fill="none" stroke="#191970" d="M298.6166,-42C307.0706,-42 315.6064,-42 323.8985,-42"/>
<polygon fill="#191970" stroke="#191970" points="298.3671,-38.5001 288.3671,-42 298.367,-45.5001 298.3671,-38.5001"/>
</g>
<!-- Node18 -->
<g id="node8" class="node">
<title>Node18</title>
<g id="a_node8"><a xlink:href="NODE__SKETCH__TooAutomation__Node_8ino_8cpp.html#a7dfd9b79bc5a37d7df40207afbc5431f" target="_top" xlink:title="setup">
<polygon fill="#ffffff" stroke="#000000" points="530,-38.5 530,-57.5 571,-57.5 571,-38.5 530,-38.5"/>
<text text-anchor="middle" x="550.5" y="-45.5" font-family="Helvetica,sans-Serif" font-size="10.00" fill="#000000">setup</text>
</a>
</g>
</g>
<!-- Node17&#45;&gt;Node18 -->
<g id="edge7" class="edge">
<title>Node17&#45;&gt;Node18</title>
<path fill="none" stroke="#191970" d="M469.6087,-44.9475C491.9236,-45.7896 514.3847,-46.6372 529.9566,-47.2248"/>
<polygon fill="#191970" stroke="#191970" points="469.5164,-41.4416 459.3915,-44.5619 469.2524,-48.4366 469.5164,-41.4416"/>
</g>
<!-- Node19 -->
<g id="node9" class="node">
<title>Node19</title>
<g id="a_node9"><a xlink:href="TooNetworking_8h.html#a2676204dee95da1ef337de95eb0e9bcb" target="_top" xlink:title="TooNetworking_begin">
<polygon fill="#ffffff" stroke="#000000" points="495,-.5 495,-19.5 606,-19.5 606,-.5 495,-.5"/>
<text text-anchor="middle" x="550.5" y="-7.5" font-family="Helvetica,sans-Serif" font-size="10.00" fill="#000000">TooNetworking_begin</text>
</a>
</g>
</g>
<!-- Node17&#45;&gt;Node19 -->
<g id="edge8" class="edge">
<title>Node17&#45;&gt;Node19</title>
<path fill="none" stroke="#191970" d="M469.433,-26.3154C480.8995,-24.0076 492.4096,-21.6912 503.0084,-19.558"/>
<polygon fill="#191970" stroke="#191970" points="468.5044,-22.932 459.3915,-28.3363 469.8855,-29.7944 468.5044,-22.932"/>
</g>
</g>
</svg>
