<?xml version="1.0" encoding="UTF-8" standalone="no"?>
<!DOCTYPE svg PUBLIC "-//W3C//DTD SVG 1.1//EN"
 "http://www.w3.org/Graphics/SVG/1.1/DTD/svg11.dtd">
<!-- Generated by graphviz version 2.40.1 (20161225.0304)
 -->
<!-- Title: TooSigning_requested_noncelist_initialize Pages: 1 -->
<!--zoomable 185 -->
<svg id="main" version="1.1" xmlns="http://www.w3.org/2000/svg" xmlns:xlink="http://www.w3.org/1999/xlink" xml:space="preserve" onload="init(evt)">
<style type="text/css"><![CDATA[
.edge:hover path { stroke: red; }
.edge:hover polygon { stroke: red; fill: red; }
]]></style>
<script type="text/javascript"><![CDATA[
var edges = document.getElementsByTagName('g');
if (edges && edges.length) {
  for (var i=0;i<edges.length;i++) {
    if (edges[i].id.substr(0,4)=='edge') {
      edges[i].setAttribute('class','edge');
    }
  }
}
]]></script>
        <defs>
                <circle id="rim" cx="0" cy="0" r="7"/>
                <circle id="rim2" cx="0" cy="0" r="3.5"/>
                <g id="zoomPlus">
                        <use xlink:href="#rim" fill="#404040">
                                <set attributeName="fill" to="#808080" begin="zoomplus.mouseover" end="zoomplus.mouseout"/>
                        </use>
                        <path d="M-4,0h8M0,-4v8" fill="none" stroke="white" stroke-width="1.5" pointer-events="none"/>
                </g>
                <g id="zoomMin">
                        <use xlink:href="#rim" fill="#404040">
                                <set attributeName="fill" to="#808080" begin="zoomminus.mouseover" end="zoomminus.mouseout"/>
                        </use>
                        <path d="M-4,0h8" fill="none" stroke="white" stroke-width="1.5" pointer-events="none"/>
                </g>
                <g id="dirArrow">
                        <path fill="none" stroke="white" stroke-width="1.5" d="M0,-3.0v7 M-2.5,-0.5L0,-3.0L2.5,-0.5"/>
                </g>
               <g id="resetDef">
                       <use xlink:href="#rim2" fill="#404040">
                               <set attributeName="fill" to="#808080" begin="reset.mouseover" end="reset.mouseout"/>
                       </use>
               </g>
        </defs>

<script type="text/javascript">
var viewWidth = 710;
var viewHeight = 185;
var sectionId = 'dynsection-1';
</script>
<script xlink:href="svgpan.js"/>
<svg id="graph" class="graph">
<g id="viewport">
<title>TooSigning_requested_noncelist_initialize</title>
<polygon fill="#ffffff" stroke="transparent" points="-4,4 -4,-180.5 706,-180.5 706,4 -4,4"/>
<!-- Node11 -->
<g id="node1" class="node">
<title>Node11</title>
<polygon fill="#bfbfbf" stroke="#000000" points="0,-69 0,-99 113,-99 113,-69 0,-69"/>
<text text-anchor="start" x="8" y="-87" font-family="Helvetica,sans-Serif" font-size="10.00" fill="#000000">TooSigning_requested</text>
<text text-anchor="middle" x="56.5" y="-76" font-family="Helvetica,sans-Serif" font-size="10.00" fill="#000000">_noncelist_initialize</text>
</g>
<!-- Node12 -->
<g id="node2" class="node">
<title>Node12</title>
<g id="a_node2"><a xlink:href="TooSigning_8h.html#a53b55547df3d4276f3ca6a74d601549a" target="_top" xlink:title="TooSigning_requested\l_noncelist_add">
<polygon fill="#ffffff" stroke="#000000" points="162,-102 162,-132 275,-132 275,-102 162,-102"/>
<text text-anchor="start" x="170" y="-120" font-family="Helvetica,sans-Serif" font-size="10.00" fill="#000000">TooSigning_requested</text>
<text text-anchor="middle" x="218.5" y="-109" font-family="Helvetica,sans-Serif" font-size="10.00" fill="#000000">_noncelist_add</text>
</a>
</g>
</g>
<!-- Node11&#45;&gt;Node12 -->
<g id="edge1" class="edge">
<title>Node11&#45;&gt;Node12</title>
<path fill="none" stroke="#191970" d="M123.3046,-97.6083C136.1169,-100.2183 149.4184,-102.9278 161.8723,-105.4647"/>
<polygon fill="#191970" stroke="#191970" points="123.6571,-94.1084 113.1597,-95.5418 122.2599,-100.9675 123.6571,-94.1084"/>
</g>
<!-- Node17 -->
<g id="node7" class="node">
<title>Node17</title>
<g id="a_node7"><a xlink:href="TooSigning_8h.html#a9aff748f7fc40b75d1a3400400fbf94c" target="_top" xlink:title="TooSigning_signed_network\l_begin">
<polygon fill="#ffffff" stroke="#000000" points="149,-45 149,-75 288,-75 288,-45 149,-45"/>
<text text-anchor="start" x="157" y="-63" font-family="Helvetica,sans-Serif" font-size="10.00" fill="#000000">TooSigning_signed_network</text>
<text text-anchor="middle" x="218.5" y="-52" font-family="Helvetica,sans-Serif" font-size="10.00" fill="#000000">_begin</text>
</a>
</g>
</g>
<!-- Node11&#45;&gt;Node17 -->
<g id="edge8" class="edge">
<title>Node11&#45;&gt;Node17</title>
<path fill="none" stroke="#191970" d="M123.2848,-74.106C131.6921,-72.8604 140.3103,-71.5837 148.7617,-70.3316"/>
<polygon fill="#191970" stroke="#191970" points="122.5388,-70.6782 113.1597,-75.606 123.5647,-77.6026 122.5388,-70.6782"/>
</g>
<!-- Node13 -->
<g id="node3" class="node">
<title>Node13</title>
<g id="a_node3"><a xlink:href="TooNetworking_8h.html#a59be7e774988f57ab43c4c078c570c67" target="_top" xlink:title="TooNetworking_bufferlist_add">
<polygon fill="#ffffff" stroke="#000000" points="324,-116.5 324,-135.5 470,-135.5 470,-116.5 324,-116.5"/>
<text text-anchor="middle" x="397" y="-123.5" font-family="Helvetica,sans-Serif" font-size="10.00" fill="#000000">TooNetworking_bufferlist_add</text>
</a>
</g>
</g>
<!-- Node12&#45;&gt;Node13 -->
<g id="edge2" class="edge">
<title>Node12&#45;&gt;Node13</title>
<path fill="none" stroke="#191970" d="M285.7695,-120.3917C298.23,-121.02 311.3,-121.679 323.9234,-122.3155"/>
<polygon fill="#191970" stroke="#191970" points="285.6329,-116.8805 275.4693,-119.8724 285.2803,-123.8716 285.6329,-116.8805"/>
</g>
<!-- Node14 -->
<g id="node4" class="node">
<title>Node14</title>
<g id="a_node4"><a xlink:href="TooNetworking_8h.html#a9209f3e1a2fdf0b3b88d49105b8fc359" target="_top" xlink:title="TooNetworking_send\l_signed">
<polygon fill="#ffffff" stroke="#000000" points="514,-146 514,-176 623,-176 623,-146 514,-146"/>
<text text-anchor="start" x="522" y="-164" font-family="Helvetica,sans-Serif" font-size="10.00" fill="#000000">TooNetworking_send</text>
<text text-anchor="middle" x="568.5" y="-153" font-family="Helvetica,sans-Serif" font-size="10.00" fill="#000000">_signed</text>
</a>
</g>
</g>
<!-- Node12&#45;&gt;Node14 -->
<g id="edge6" class="edge">
<title>Node12&#45;&gt;Node14</title>
<path fill="none" stroke="#191970" d="M276.9646,-134.6761C292.1543,-138.6715 308.5828,-142.4743 324,-145 388.6478,-155.591 463.9953,-159.2298 513.7748,-160.448"/>
<polygon fill="#191970" stroke="#191970" points="277.7516,-131.2633 267.1849,-132.0342 275.926,-138.021 277.7516,-131.2633"/>
</g>
<!-- Node15 -->
<g id="node5" class="node">
<title>Node15</title>
<g id="a_node5"><a xlink:href="TooNetworking_8h.html#a085ff748b00f6be4ebafcae2bb0dded1" target="_top" xlink:title="TooNetworking_bufferlist\l_send_signed">
<polygon fill="#ffffff" stroke="#000000" points="506,-90 506,-120 631,-120 631,-90 506,-90"/>
<text text-anchor="start" x="514" y="-108" font-family="Helvetica,sans-Serif" font-size="10.00" fill="#000000">TooNetworking_bufferlist</text>
<text text-anchor="middle" x="568.5" y="-97" font-family="Helvetica,sans-Serif" font-size="10.00" fill="#000000">_send_signed</text>
</a>
</g>
</g>
<!-- Node12&#45;&gt;Node15 -->
<g id="edge7" class="edge">
<title>Node12&#45;&gt;Node15</title>
<path fill="none" stroke="#191970" d="M285.2654,-109.7933C298.1061,-108.6561 311.4591,-107.6444 324,-107 385.7884,-103.8249 456.4731,-103.6169 505.8959,-104.0266"/>
<polygon fill="#191970" stroke="#191970" points="284.74,-106.3268 275.1025,-110.7277 285.381,-113.2974 284.74,-106.3268"/>
</g>
<!-- Node13&#45;&gt;Node14 -->
<g id="edge3" class="edge">
<title>Node13&#45;&gt;Node14</title>
<path fill="none" stroke="#191970" d="M453.743,-137.5802C473.0715,-141.5248 494.6289,-145.9243 513.7943,-149.8356"/>
<polygon fill="#191970" stroke="#191970" points="454.3611,-134.1343 443.8631,-135.5639 452.9613,-140.9929 454.3611,-134.1343"/>
</g>
<!-- Node13&#45;&gt;Node15 -->
<g id="edge4" class="edge">
<title>Node13&#45;&gt;Node15</title>
<path fill="none" stroke="#191970" d="M480.2715,-115.8035C488.8569,-114.7522 497.4755,-113.6969 505.7826,-112.6797"/>
<polygon fill="#191970" stroke="#191970" points="479.7293,-112.3436 470.2289,-117.0332 480.5802,-119.2918 479.7293,-112.3436"/>
</g>
<!-- Node16 -->
<g id="node6" class="node">
<title>Node16</title>
<g id="a_node6"><a xlink:href="NODE__SKETCH__TooAutomation__Node_8ino_8cpp.html#a0b33edabd7f1c4e4a0bf32c67269be2f" target="_top" xlink:title="loop">
<polygon fill="#ffffff" stroke="#000000" points="667,-95.5 667,-114.5 702,-114.5 702,-95.5 667,-95.5"/>
<text text-anchor="middle" x="684.5" y="-102.5" font-family="Helvetica,sans-Serif" font-size="10.00" fill="#000000">loop</text>
</a>
</g>
</g>
<!-- Node15&#45;&gt;Node16 -->
<g id="edge5" class="edge">
<title>Node15&#45;&gt;Node16</title>
<path fill="none" stroke="#191970" d="M641.5149,-105C650.8175,-105 659.5667,-105 666.7123,-105"/>
<polygon fill="#191970" stroke="#191970" points="641.2531,-101.5001 631.2531,-105 641.253,-108.5001 641.2531,-101.5001"/>
</g>
<!-- Node18 -->
<g id="node8" class="node">
<title>Node18</title>
<g id="a_node8"><a xlink:href="TooNetworking_8h.html#aec97902cf0d3ec10fd86927f3d1df0c6" target="_top" xlink:title="TooNetworking_connection\l_begin">
<polygon fill="#ffffff" stroke="#000000" points="329.5,-29 329.5,-59 464.5,-59 464.5,-29 329.5,-29"/>
<text text-anchor="start" x="337.5" y="-47" font-family="Helvetica,sans-Serif" font-size="10.00" fill="#000000">TooNetworking_connection</text>
<text text-anchor="middle" x="397" y="-36" font-family="Helvetica,sans-Serif" font-size="10.00" fill="#000000">_begin</text>
</a>
</g>
</g>
<!-- Node17&#45;&gt;Node18 -->
<g id="edge9" class="edge">
<title>Node17&#45;&gt;Node18</title>
<path fill="none" stroke="#191970" d="M298.0041,-52.8736C308.4917,-51.9335 319.161,-50.9772 329.4234,-50.0573"/>
<polygon fill="#191970" stroke="#191970" points="297.6714,-49.3893 288.0239,-53.7682 298.2965,-56.3613 297.6714,-49.3893"/>
</g>
<!-- Node19 -->
<g id="node9" class="node">
<title>Node19</title>
<g id="a_node9"><a xlink:href="NODE__SKETCH__TooAutomation__Node_8ino_8cpp.html#a7dfd9b79bc5a37d7df40207afbc5431f" target="_top" xlink:title="setup">
<polygon fill="#ffffff" stroke="#000000" points="548,-38.5 548,-57.5 589,-57.5 589,-38.5 548,-38.5"/>
<text text-anchor="middle" x="568.5" y="-45.5" font-family="Helvetica,sans-Serif" font-size="10.00" fill="#000000">setup</text>
</a>
</g>
</g>
<!-- Node18&#45;&gt;Node19 -->
<g id="edge10" class="edge">
<title>Node18&#45;&gt;Node19</title>
<path fill="none" stroke="#191970" d="M474.994,-45.8191C501.8292,-46.445 529.6858,-47.0947 547.9356,-47.5204"/>
<polygon fill="#191970" stroke="#191970" points="474.8603,-42.3151 464.7813,-45.5809 474.697,-49.3132 474.8603,-42.3151"/>
</g>
<!-- Node20 -->
<g id="node10" class="node">
<title>Node20</title>
<g id="a_node10"><a xlink:href="TooNetworking_8h.html#a2676204dee95da1ef337de95eb0e9bcb" target="_top" xlink:title="TooNetworking_begin">
<polygon fill="#ffffff" stroke="#000000" points="513,-.5 513,-19.5 624,-19.5 624,-.5 513,-.5"/>
<text text-anchor="middle" x="568.5" y="-7.5" font-family="Helvetica,sans-Serif" font-size="10.00" fill="#000000">TooNetworking_begin</text>
</a>
</g>
</g>
<!-- Node18&#45;&gt;Node20 -->
<g id="edge11" class="edge">
<title>Node18&#45;&gt;Node20</title>
<path fill="none" stroke="#191970" d="M474.9182,-28.5527C490.4525,-25.473 506.3325,-22.3247 520.4961,-19.5168"/>
<polygon fill="#191970" stroke="#191970" points="473.9098,-25.1844 464.7813,-30.5623 475.2711,-32.0507 473.9098,-25.1844"/>
</g>
</g>
</svg>
        <g id="navigator" transform="translate(0 0)" fill="#404254">
                <rect fill="#f2f5e9" fill-opacity="0.5" stroke="#606060" stroke-width=".5" x="0" y="0" width="60" height="60"/>
                <use id="zoomplus" xlink:href="#zoomPlus" x="17" y="9" onmousedown="handleZoom(evt,'in')"/>
                <use id="zoomminus" xlink:href="#zoomMin" x="42" y="9" onmousedown="handleZoom(evt,'out')"/>
                <use id="reset" xlink:href="#resetDef" x="30" y="36" onmousedown="handleReset()"/>
                <g id="arrowUp" xlink:href="#dirArrow" transform="translate(30 24)" onmousedown="handlePan(0,-1)">
                  <use xlink:href="#rim" fill="#404040">
                        <set attributeName="fill" to="#808080" begin="arrowUp.mouseover" end="arrowUp.mouseout"/>
                  </use>
                  <path fill="none" stroke="white" stroke-width="1.5" d="M0,-3.0v7 M-2.5,-0.5L0,-3.0L2.5,-0.5"/>
                </g>
                <g id="arrowRight" xlink:href="#dirArrow" transform="rotate(90) translate(36 -43)" onmousedown="handlePan(1,0)">
                  <use xlink:href="#rim" fill="#404040">
                        <set attributeName="fill" to="#808080" begin="arrowRight.mouseover" end="arrowRight.mouseout"/>
                  </use>
                  <path fill="none" stroke="white" stroke-width="1.5" d="M0,-3.0v7 M-2.5,-0.5L0,-3.0L2.5,-0.5"/>
                </g>
                <g id="arrowDown" xlink:href="#dirArrow" transform="rotate(180) translate(-30 -48)" onmousedown="handlePan(0,1)">
                  <use xlink:href="#rim" fill="#404040">
                        <set attributeName="fill" to="#808080" begin="arrowDown.mouseover" end="arrowDown.mouseout"/>
                  </use>
                  <path fill="none" stroke="white" stroke-width="1.5" d="M0,-3.0v7 M-2.5,-0.5L0,-3.0L2.5,-0.5"/>
                </g>
                <g id="arrowLeft" xlink:href="#dirArrow" transform="rotate(270) translate(-36 17)" onmousedown="handlePan(-1,0)">
                  <use xlink:href="#rim" fill="#404040">
                        <set attributeName="fill" to="#808080" begin="arrowLeft.mouseover" end="arrowLeft.mouseout"/>
                  </use>
                  <path fill="none" stroke="white" stroke-width="1.5" d="M0,-3.0v7 M-2.5,-0.5L0,-3.0L2.5,-0.5"/>
                </g>
        </g>
        <svg viewBox="0 0 15 15" width="100%" height="30px" preserveAspectRatio="xMaxYMin meet">
         <g id="arrow_out" transform="scale(0.3 0.3)">
          <a xlink:href="group__TOOSIGNING__INITIALIZE_gafd247c5271ff63bfcde14ef94060002d_icgraph_org.svg" target="_base">
           <rect id="button" ry="5" rx="5" y="6" x="6" height="38" width="38"
                fill="#f2f5e9" fill-opacity="0.5" stroke="#606060" stroke-width="1.0"/>
           <path id="arrow"
             d="M 11.500037,31.436501 C 11.940474,20.09759 22.043105,11.32322 32.158766,21.979434 L 37.068811,17.246167 C 37.068811,17.246167 37.088388,32 37.088388,32 L 22.160133,31.978069 C 22.160133,31.978069 26.997745,27.140456 26.997745,27.140456 C 18.528582,18.264221 13.291696,25.230495 11.500037,31.436501 z"
             style="fill:#404040;"/>
          </a>
         </g>
        </svg>
</svg>
