<?xml version="1.0" encoding="UTF-8" standalone="no"?>
<!DOCTYPE svg PUBLIC "-//W3C//DTD SVG 1.1//EN"
 "http://www.w3.org/Graphics/SVG/1.1/DTD/svg11.dtd">
<!-- Generated by graphviz version 2.40.1 (20161225.0304)
 -->
<!-- Title: TooSigning_requested_noncelist_print Pages: 1 -->
<!--zoomable 232 -->
<svg id="main" version="1.1" xmlns="http://www.w3.org/2000/svg" xmlns:xlink="http://www.w3.org/1999/xlink" xml:space="preserve" onload="init(evt)">
<style type="text/css"><![CDATA[
.edge:hover path { stroke: red; }
.edge:hover polygon { stroke: red; fill: red; }
]]></style>
<script type="text/javascript"><![CDATA[
var edges = document.getElementsByTagName('g');
if (edges && edges.length) {
  for (var i=0;i<edges.length;i++) {
    if (edges[i].id.substr(0,4)=='edge') {
      edges[i].setAttribute('class','edge');
    }
  }
}
]]></script>
        <defs>
                <circle id="rim" cx="0" cy="0" r="7"/>
                <circle id="rim2" cx="0" cy="0" r="3.5"/>
                <g id="zoomPlus">
                        <use xlink:href="#rim" fill="#404040">
                                <set attributeName="fill" to="#808080" begin="zoomplus.mouseover" end="zoomplus.mouseout"/>
                        </use>
                        <path d="M-4,0h8M0,-4v8" fill="none" stroke="white" stroke-width="1.5" pointer-events="none"/>
                </g>
                <g id="zoomMin">
                        <use xlink:href="#rim" fill="#404040">
                                <set attributeName="fill" to="#808080" begin="zoomminus.mouseover" end="zoomminus.mouseout"/>
                        </use>
                        <path d="M-4,0h8" fill="none" stroke="white" stroke-width="1.5" pointer-events="none"/>
                </g>
                <g id="dirArrow">
                        <path fill="none" stroke="white" stroke-width="1.5" d="M0,-3.0v7 M-2.5,-0.5L0,-3.0L2.5,-0.5"/>
                </g>
               <g id="resetDef">
                       <use xlink:href="#rim2" fill="#404040">
                               <set attributeName="fill" to="#808080" begin="reset.mouseover" end="reset.mouseout"/>
                       </use>
               </g>
        </defs>

<script type="text/javascript">
var viewWidth = 869;
var viewHeight = 232;
var sectionId = 'dynsection-2';
</script>
<script xlink:href="svgpan.js"/>
<svg id="graph" class="graph">
<g id="viewport">
<title>TooSigning_requested_noncelist_print</title>
<polygon fill="#ffffff" stroke="transparent" points="-4,4 -4,-228 865,-228 865,4 -4,4"/>
<!-- Node18 -->
<g id="node1" class="node">
<title>Node18</title>
<polygon fill="#bfbfbf" stroke="#000000" points="0,-49.5 0,-79.5 113,-79.5 113,-49.5 0,-49.5"/>
<text text-anchor="start" x="8" y="-67.5" font-family="Helvetica,sans-Serif" font-size="10.00" fill="#000000">TooSigning_requested</text>
<text text-anchor="middle" x="56.5" y="-56.5" font-family="Helvetica,sans-Serif" font-size="10.00" fill="#000000">_noncelist_print</text>
</g>
<!-- Node19 -->
<g id="node2" class="node">
<title>Node19</title>
<g id="a_node2"><a xlink:href="TooSigning_8h.html#a53b55547df3d4276f3ca6a74d601549a" target="_top" xlink:title="TooSigning_requested\l_noncelist_add">
<polygon fill="#ffffff" stroke="#000000" points="149,-114.5 149,-144.5 262,-144.5 262,-114.5 149,-114.5"/>
<text text-anchor="start" x="157" y="-132.5" font-family="Helvetica,sans-Serif" font-size="10.00" fill="#000000">TooSigning_requested</text>
<text text-anchor="middle" x="205.5" y="-121.5" font-family="Helvetica,sans-Serif" font-size="10.00" fill="#000000">_noncelist_add</text>
</a>
</g>
</g>
<!-- Node18&#45;&gt;Node19 -->
<g id="edge1" class="edge">
<title>Node18&#45;&gt;Node19</title>
<path fill="none" stroke="#191970" d="M100.3896,-83.6465C122.878,-93.4569 149.871,-105.2323 170.8715,-114.3936"/>
<polygon fill="#191970" stroke="#191970" points="101.6234,-80.3662 91.0581,-79.5757 98.8244,-86.7823 101.6234,-80.3662"/>
</g>
<!-- Node25 -->
<g id="node8" class="node">
<title>Node25</title>
<g id="a_node8"><a xlink:href="TooSigning_8h.html#a451535471c647e6bb93141cc8e321432" target="_top" xlink:title="TooSigning_requested\l_noncelist_received">
<polygon fill="#ffffff" stroke="#000000" points="149,-49.5 149,-79.5 262,-79.5 262,-49.5 149,-49.5"/>
<text text-anchor="start" x="157" y="-67.5" font-family="Helvetica,sans-Serif" font-size="10.00" fill="#000000">TooSigning_requested</text>
<text text-anchor="middle" x="205.5" y="-56.5" font-family="Helvetica,sans-Serif" font-size="10.00" fill="#000000">_noncelist_received</text>
</a>
</g>
</g>
<!-- Node18&#45;&gt;Node25 -->
<g id="edge12" class="edge">
<title>Node18&#45;&gt;Node25</title>
<path fill="none" stroke="#191970" d="M123.5076,-64.5C131.9902,-64.5 140.6037,-64.5 148.9022,-64.5"/>
<polygon fill="#191970" stroke="#191970" points="123.2556,-61.0001 113.2556,-64.5 123.2555,-68.0001 123.2556,-61.0001"/>
</g>
<!-- Node29 -->
<g id="node12" class="node">
<title>Node29</title>
<g id="a_node12"><a xlink:href="TooSigning_8h.html#af7ec4002cf8cf81195f3745703e04b22" target="_top" xlink:title="TooSigning_requested\l_noncelist_retry_all">
<polygon fill="#ffffff" stroke="#000000" points="314.5,-.5 314.5,-30.5 427.5,-30.5 427.5,-.5 314.5,-.5"/>
<text text-anchor="start" x="322.5" y="-18.5" font-family="Helvetica,sans-Serif" font-size="10.00" fill="#000000">TooSigning_requested</text>
<text text-anchor="middle" x="371" y="-7.5" font-family="Helvetica,sans-Serif" font-size="10.00" fill="#000000">_noncelist_retry_all</text>
</a>
</g>
</g>
<!-- Node18&#45;&gt;Node29 -->
<g id="edge17" class="edge">
<title>Node18&#45;&gt;Node29</title>
<path fill="none" stroke="#191970" d="M116.3531,-46.8629C127.1527,-44.099 138.3605,-41.5002 149,-39.5 204.6243,-29.0429 269.009,-22.7073 314.0697,-19.1933"/>
<polygon fill="#191970" stroke="#191970" points="115.358,-43.5055 106.5778,-49.4351 117.1393,-50.2751 115.358,-43.5055"/>
</g>
<!-- Node20 -->
<g id="node3" class="node">
<title>Node20</title>
<g id="a_node3"><a xlink:href="TooNetworking_8h.html#a59be7e774988f57ab43c4c078c570c67" target="_top" xlink:title="TooNetworking_bufferlist_add">
<polygon fill="#ffffff" stroke="#000000" points="298,-138 298,-157 444,-157 444,-138 298,-138"/>
<text text-anchor="middle" x="371" y="-145" font-family="Helvetica,sans-Serif" font-size="10.00" fill="#000000">TooNetworking_bufferlist_add</text>
</a>
</g>
</g>
<!-- Node19&#45;&gt;Node20 -->
<g id="edge2" class="edge">
<title>Node19&#45;&gt;Node20</title>
<path fill="none" stroke="#191970" d="M272.5061,-136.7877C280.8556,-137.6958 289.4271,-138.628 297.8635,-139.5456"/>
<polygon fill="#191970" stroke="#191970" points="272.7756,-133.2964 262.4557,-135.6946 272.0186,-140.2554 272.7756,-133.2964"/>
</g>
<!-- Node21 -->
<g id="node4" class="node">
<title>Node21</title>
<g id="a_node4"><a xlink:href="TooNetworking_8h.html#a9209f3e1a2fdf0b3b88d49105b8fc359" target="_top" xlink:title="TooNetworking_send\l_signed">
<polygon fill="#ffffff" stroke="#000000" points="495,-175.5 495,-205.5 604,-205.5 604,-175.5 495,-175.5"/>
<text text-anchor="start" x="503" y="-193.5" font-family="Helvetica,sans-Serif" font-size="10.00" fill="#000000">TooNetworking_send</text>
<text text-anchor="middle" x="549.5" y="-182.5" font-family="Helvetica,sans-Serif" font-size="10.00" fill="#000000">_signed</text>
</a>
</g>
</g>
<!-- Node19&#45;&gt;Node21 -->
<g id="edge10" class="edge">
<title>Node19&#45;&gt;Node21</title>
<path fill="none" stroke="#191970" d="M246.3382,-148.7539C262.1471,-155.4255 280.5998,-162.282 298,-166.5 364.4981,-182.6198 443.3431,-188.0057 494.794,-189.7538"/>
<polygon fill="#191970" stroke="#191970" points="247.4367,-145.4154 236.8696,-144.649 244.6524,-151.8379 247.4367,-145.4154"/>
</g>
<!-- Node22 -->
<g id="node5" class="node">
<title>Node22</title>
<g id="a_node5"><a xlink:href="TooNetworking_8h.html#a085ff748b00f6be4ebafcae2bb0dded1" target="_top" xlink:title="TooNetworking_bufferlist\l_send_signed">
<polygon fill="#ffffff" stroke="#000000" points="660,-112.5 660,-142.5 785,-142.5 785,-112.5 660,-112.5"/>
<text text-anchor="start" x="668" y="-130.5" font-family="Helvetica,sans-Serif" font-size="10.00" fill="#000000">TooNetworking_bufferlist</text>
<text text-anchor="middle" x="722.5" y="-119.5" font-family="Helvetica,sans-Serif" font-size="10.00" fill="#000000">_send_signed</text>
</a>
</g>
</g>
<!-- Node19&#45;&gt;Node22 -->
<g id="edge11" class="edge">
<title>Node19&#45;&gt;Node22</title>
<path fill="none" stroke="#191970" d="M272.3172,-128.7106C280.9584,-128.6282 289.6891,-128.5547 298,-128.5 426.6004,-127.6534 577.1194,-127.4963 659.9237,-127.4821"/>
<polygon fill="#191970" stroke="#191970" points="272.2094,-125.2114 262.2448,-128.8108 272.2792,-132.211 272.2094,-125.2114"/>
</g>
<!-- Node20&#45;&gt;Node21 -->
<g id="edge3" class="edge">
<title>Node20&#45;&gt;Node21</title>
<path fill="none" stroke="#191970" d="M447.6153,-159.2668C469.3484,-164.2929 492.1015,-170.1081 510.579,-175.4366"/>
<polygon fill="#191970" stroke="#191970" points="448.2477,-155.8214 437.7206,-157.0177 446.6961,-162.6472 448.2477,-155.8214"/>
</g>
<!-- Node20&#45;&gt;Node22 -->
<g id="edge9" class="edge">
<title>Node20&#45;&gt;Node22</title>
<path fill="none" stroke="#191970" d="M454.5707,-142.7449C517.5986,-139.1587 602.6868,-134.3173 659.9176,-131.0609"/>
<polygon fill="#191970" stroke="#191970" points="454.0431,-139.2692 444.2581,-143.3317 454.4408,-146.2579 454.0431,-139.2692"/>
</g>
<!-- Node21&#45;&gt;Node20 -->
<g id="edge4" class="edge">
<title>Node21&#45;&gt;Node20</title>
<path fill="none" stroke="#191970" d="M484.9241,-181.4592C452.1587,-174.2044 414.5784,-164.4878 391.8256,-157.0411"/>
<polygon fill="#191970" stroke="#191970" points="484.4016,-184.9272 494.9163,-183.6264 485.8854,-178.0862 484.4016,-184.9272"/>
</g>
<!-- Node21&#45;&gt;Node21 -->
<g id="edge5" class="edge">
<title>Node21&#45;&gt;Node21</title>
<path fill="none" stroke="#191970" d="M518.9377,-215.9579C522.7309,-220.679 532.9183,-224 549.5,-224 576.7109,-224 586.7025,-215.0566 579.4745,-205.659"/>
<polygon fill="#191970" stroke="#191970" points="522.4499,-215.8422 519.5255,-205.659 515.4613,-215.4433 522.4499,-215.8422"/>
</g>
<!-- Node21&#45;&gt;Node22 -->
<g id="edge6" class="edge">
<title>Node21&#45;&gt;Node22</title>
<path fill="none" stroke="#191970" d="M600.5075,-171.925C626.1845,-162.5744 656.9096,-151.3855 681.1009,-142.576"/>
<polygon fill="#191970" stroke="#191970" points="599.1365,-168.6994 590.9378,-175.4099 601.5318,-175.2768 599.1365,-168.6994"/>
</g>
<!-- Node24 -->
<g id="node7" class="node">
<title>Node24</title>
<g id="a_node7"><a xlink:href="TooNetworking_8h.html#ab58e06e0eb6f2f8ecbebeaf3c173fb22" target="_top" xlink:title="TooNetworking_bufferlist\l_send_all">
<polygon fill="#ffffff" stroke="#000000" points="660,-175.5 660,-205.5 785,-205.5 785,-175.5 660,-175.5"/>
<text text-anchor="start" x="668" y="-193.5" font-family="Helvetica,sans-Serif" font-size="10.00" fill="#000000">TooNetworking_bufferlist</text>
<text text-anchor="middle" x="722.5" y="-182.5" font-family="Helvetica,sans-Serif" font-size="10.00" fill="#000000">_send_all</text>
</a>
</g>
</g>
<!-- Node21&#45;&gt;Node24 -->
<g id="edge8" class="edge">
<title>Node21&#45;&gt;Node24</title>
<path fill="none" stroke="#191970" d="M614.3995,-190.5C629.3226,-190.5 645.1621,-190.5 659.9819,-190.5"/>
<polygon fill="#191970" stroke="#191970" points="614.2383,-187.0001 604.2383,-190.5 614.2382,-194.0001 614.2383,-187.0001"/>
</g>
<!-- Node23 -->
<g id="node6" class="node">
<title>Node23</title>
<g id="a_node6"><a xlink:href="NODE__SKETCH__TooAutomation__Node_8ino_8cpp.html#a0b33edabd7f1c4e4a0bf32c67269be2f" target="_top" xlink:title="loop">
<polygon fill="#ffffff" stroke="#000000" points="826,-93 826,-112 861,-112 861,-93 826,-93"/>
<text text-anchor="middle" x="843.5" y="-100" font-family="Helvetica,sans-Serif" font-size="10.00" fill="#000000">loop</text>
</a>
</g>
</g>
<!-- Node22&#45;&gt;Node23 -->
<g id="edge7" class="edge">
<title>Node22&#45;&gt;Node23</title>
<path fill="none" stroke="#191970" d="M795.2474,-112.4695C806.636,-110.1165 817.4203,-107.8884 825.8934,-106.1377"/>
<polygon fill="#191970" stroke="#191970" points="794.2115,-109.1096 785.1266,-114.5606 795.6279,-115.9648 794.2115,-109.1096"/>
</g>
<!-- Node26 -->
<g id="node9" class="node">
<title>Node26</title>
<g id="a_node9"><a xlink:href="TooSigning_8h.html#a03dcb29c3bb1c45c6583cd6a5d731523" target="_top" xlink:title="TooSigning_received\l_noncelist_add">
<polygon fill="#ffffff" stroke="#000000" points="317.5,-49.5 317.5,-79.5 424.5,-79.5 424.5,-49.5 317.5,-49.5"/>
<text text-anchor="start" x="325.5" y="-67.5" font-family="Helvetica,sans-Serif" font-size="10.00" fill="#000000">TooSigning_received</text>
<text text-anchor="middle" x="371" y="-56.5" font-family="Helvetica,sans-Serif" font-size="10.00" fill="#000000">_noncelist_add</text>
</a>
</g>
</g>
<!-- Node25&#45;&gt;Node26 -->
<g id="edge13" class="edge">
<title>Node25&#45;&gt;Node26</title>
<path fill="none" stroke="#191970" d="M272.6099,-64.5C287.4741,-64.5 303.037,-64.5 317.2848,-64.5"/>
<polygon fill="#191970" stroke="#191970" points="272.4557,-61.0001 262.4557,-64.5 272.4557,-68.0001 272.4557,-61.0001"/>
</g>
<!-- Node27 -->
<g id="node10" class="node">
<title>Node27</title>
<g id="a_node10"><a xlink:href="TooSigning_8cpp.html#a03df9fd005c518d1114f912ae7da9f06" target="_top" xlink:title="TooSigning_unsigned\l_network_available">
<polygon fill="#ffffff" stroke="#000000" points="494.5,-49.5 494.5,-79.5 604.5,-79.5 604.5,-49.5 494.5,-49.5"/>
<text text-anchor="start" x="502.5" y="-67.5" font-family="Helvetica,sans-Serif" font-size="10.00" fill="#000000">TooSigning_unsigned</text>
<text text-anchor="middle" x="549.5" y="-56.5" font-family="Helvetica,sans-Serif" font-size="10.00" fill="#000000">_network_available</text>
</a>
</g>
</g>
<!-- Node26&#45;&gt;Node27 -->
<g id="edge14" class="edge">
<title>Node26&#45;&gt;Node27</title>
<path fill="none" stroke="#191970" d="M434.5962,-64.5C454.1517,-64.5 475.503,-64.5 494.4362,-64.5"/>
<polygon fill="#191970" stroke="#191970" points="434.5559,-61.0001 424.5559,-64.5 434.5559,-68.0001 434.5559,-61.0001"/>
</g>
<!-- Node28 -->
<g id="node11" class="node">
<title>Node28</title>
<g id="a_node11"><a xlink:href="TooNetworking_8h.html#a7382ba1aed5405c3adc02011ea6c45dd" target="_top" xlink:title="TooNetworking_connection\l_maintenance">
<polygon fill="#ffffff" stroke="#000000" points="655,-49.5 655,-79.5 790,-79.5 790,-49.5 655,-49.5"/>
<text text-anchor="start" x="663" y="-67.5" font-family="Helvetica,sans-Serif" font-size="10.00" fill="#000000">TooNetworking_connection</text>
<text text-anchor="middle" x="722.5" y="-56.5" font-family="Helvetica,sans-Serif" font-size="10.00" fill="#000000">_maintenance</text>
</a>
</g>
</g>
<!-- Node27&#45;&gt;Node28 -->
<g id="edge15" class="edge">
<title>Node27&#45;&gt;Node28</title>
<path fill="none" stroke="#191970" d="M614.9824,-64.5C627.9975,-64.5 641.6882,-64.5 654.7764,-64.5"/>
<polygon fill="#191970" stroke="#191970" points="614.714,-61.0001 604.7139,-64.5 614.7139,-68.0001 614.714,-61.0001"/>
</g>
<!-- Node28&#45;&gt;Node23 -->
<g id="edge16" class="edge">
<title>Node28&#45;&gt;Node23</title>
<path fill="none" stroke="#191970" d="M780.0573,-82.5758C796.7146,-87.8071 813.6702,-93.132 825.857,-96.9592"/>
<polygon fill="#191970" stroke="#191970" points="780.9117,-79.1757 770.3224,-79.5186 778.8143,-85.8541 780.9117,-79.1757"/>
</g>
<!-- Node30 -->
<g id="node13" class="node">
<title>Node30</title>
<g id="a_node13"><a xlink:href="TooSigning_8h.html#af68b8dda897cf488129c205ad532ca9e" target="_top" xlink:title="TooSigning_signed_network\l_update">
<polygon fill="#ffffff" stroke="#000000" points="480,-.5 480,-30.5 619,-30.5 619,-.5 480,-.5"/>
<text text-anchor="start" x="488" y="-18.5" font-family="Helvetica,sans-Serif" font-size="10.00" fill="#000000">TooSigning_signed_network</text>
<text text-anchor="middle" x="549.5" y="-7.5" font-family="Helvetica,sans-Serif" font-size="10.00" fill="#000000">_update</text>
</a>
</g>
</g>
<!-- Node29&#45;&gt;Node30 -->
<g id="edge18" class="edge">
<title>Node29&#45;&gt;Node30</title>
<path fill="none" stroke="#191970" d="M438.2299,-15.5C451.8641,-15.5 466.2295,-15.5 479.9422,-15.5"/>
<polygon fill="#191970" stroke="#191970" points="437.9693,-12.0001 427.9693,-15.5 437.9693,-19.0001 437.9693,-12.0001"/>
</g>
<!-- Node30&#45;&gt;Node28 -->
<g id="edge19" class="edge">
<title>Node30&#45;&gt;Node28</title>
<path fill="none" stroke="#191970" d="M612.6771,-33.3941C631.2846,-38.6644 651.4483,-44.3755 669.3587,-49.4484"/>
<polygon fill="#191970" stroke="#191970" points="613.3927,-29.9591 602.8173,-30.6014 611.485,-36.6942 613.3927,-29.9591"/>
</g>
</g>
</svg>
        <g id="navigator" transform="translate(0 0)" fill="#404254">
                <rect fill="#f2f5e9" fill-opacity="0.5" stroke="#606060" stroke-width=".5" x="0" y="0" width="60" height="60"/>
                <use id="zoomplus" xlink:href="#zoomPlus" x="17" y="9" onmousedown="handleZoom(evt,'in')"/>
                <use id="zoomminus" xlink:href="#zoomMin" x="42" y="9" onmousedown="handleZoom(evt,'out')"/>
                <use id="reset" xlink:href="#resetDef" x="30" y="36" onmousedown="handleReset()"/>
                <g id="arrowUp" xlink:href="#dirArrow" transform="translate(30 24)" onmousedown="handlePan(0,-1)">
                  <use xlink:href="#rim" fill="#404040">
                        <set attributeName="fill" to="#808080" begin="arrowUp.mouseover" end="arrowUp.mouseout"/>
                  </use>
                  <path fill="none" stroke="white" stroke-width="1.5" d="M0,-3.0v7 M-2.5,-0.5L0,-3.0L2.5,-0.5"/>
                </g>
                <g id="arrowRight" xlink:href="#dirArrow" transform="rotate(90) translate(36 -43)" onmousedown="handlePan(1,0)">
                  <use xlink:href="#rim" fill="#404040">
                        <set attributeName="fill" to="#808080" begin="arrowRight.mouseover" end="arrowRight.mouseout"/>
                  </use>
                  <path fill="none" stroke="white" stroke-width="1.5" d="M0,-3.0v7 M-2.5,-0.5L0,-3.0L2.5,-0.5"/>
                </g>
                <g id="arrowDown" xlink:href="#dirArrow" transform="rotate(180) translate(-30 -48)" onmousedown="handlePan(0,1)">
                  <use xlink:href="#rim" fill="#404040">
                        <set attributeName="fill" to="#808080" begin="arrowDown.mouseover" end="arrowDown.mouseout"/>
                  </use>
                  <path fill="none" stroke="white" stroke-width="1.5" d="M0,-3.0v7 M-2.5,-0.5L0,-3.0L2.5,-0.5"/>
                </g>
                <g id="arrowLeft" xlink:href="#dirArrow" transform="rotate(270) translate(-36 17)" onmousedown="handlePan(-1,0)">
                  <use xlink:href="#rim" fill="#404040">
                        <set attributeName="fill" to="#808080" begin="arrowLeft.mouseover" end="arrowLeft.mouseout"/>
                  </use>
                  <path fill="none" stroke="white" stroke-width="1.5" d="M0,-3.0v7 M-2.5,-0.5L0,-3.0L2.5,-0.5"/>
                </g>
        </g>
        <svg viewBox="0 0 15 15" width="100%" height="30px" preserveAspectRatio="xMaxYMin meet">
         <g id="arrow_out" transform="scale(0.3 0.3)">
          <a xlink:href="group__TOOSIGNING__DEBUGGING_gabb54a5e4968d69e35d665869d5c6588f_icgraph_org.svg" target="_base">
           <rect id="button" ry="5" rx="5" y="6" x="6" height="38" width="38"
                fill="#f2f5e9" fill-opacity="0.5" stroke="#606060" stroke-width="1.0"/>
           <path id="arrow"
             d="M 11.500037,31.436501 C 11.940474,20.09759 22.043105,11.32322 32.158766,21.979434 L 37.068811,17.246167 C 37.068811,17.246167 37.088388,32 37.088388,32 L 22.160133,31.978069 C 22.160133,31.978069 26.997745,27.140456 26.997745,27.140456 C 18.528582,18.264221 13.291696,25.230495 11.500037,31.436501 z"
             style="fill:#404040;"/>
          </a>
         </g>
        </svg>
</svg>
