<?xml version="1.0" encoding="UTF-8" standalone="no"?>
<!DOCTYPE svg PUBLIC "-//W3C//DTD SVG 1.1//EN"
 "http://www.w3.org/Graphics/SVG/1.1/DTD/svg11.dtd">
<!-- Generated by graphviz version 2.40.1 (20161225.0304)
 -->
<!-- Title: setup Pages: 1 -->
<svg width="565pt" height="137pt"
 viewBox="0.00 0.00 565.00 137.00" xmlns="http://www.w3.org/2000/svg" xmlns:xlink="http://www.w3.org/1999/xlink">
<g id="graph0" class="graph" transform="scale(1 1) rotate(0) translate(4 133)">
<title>setup</title>
<polygon fill="#ffffff" stroke="transparent" points="-4,4 -4,-133 561,-133 561,4 -4,4"/>
<!-- Node56 -->
<g id="node1" class="node">
<title>Node56</title>
<polygon fill="#bfbfbf" stroke="#000000" points="0,-55 0,-74 41,-74 41,-55 0,-55"/>
<text text-anchor="middle" x="20.5" y="-62" font-family="Helvetica,sans-Serif" font-size="10.00" fill="#000000">setup</text>
</g>
<!-- Node57 -->
<g id="node2" class="node">
<title>Node57</title>
<g id="a_node2"><a xlink:href="TooNetworking_8cpp.html#aec97902cf0d3ec10fd86927f3d1df0c6" target="_top" xlink:title="TooNetworking_connection\l_begin">
<polygon fill="#ffffff" stroke="#000000" points="77,-49.5 77,-79.5 212,-79.5 212,-49.5 77,-49.5"/>
<text text-anchor="start" x="85" y="-67.5" font-family="Helvetica,sans-Serif" font-size="10.00" fill="#000000">TooNetworking_connection</text>
<text text-anchor="middle" x="144.5" y="-56.5" font-family="Helvetica,sans-Serif" font-size="10.00" fill="#000000">_begin</text>
</a>
</g>
</g>
<!-- Node56&#45;&gt;Node57 -->
<g id="edge1" class="edge">
<title>Node56&#45;&gt;Node57</title>
<path fill="none" stroke="#191970" d="M41.2548,-64.5C48.5964,-64.5 57.35,-64.5 66.6108,-64.5"/>
<polygon fill="#191970" stroke="#191970" points="66.816,-68.0001 76.8159,-64.5 66.8159,-61.0001 66.816,-68.0001"/>
</g>
<!-- Node58 -->
<g id="node3" class="node">
<title>Node58</title>
<g id="a_node3"><a xlink:href="TooNetworking_8cpp.html#abdda8f09b9d475ed2c23a2376e2e0151" target="_top" xlink:title="mesh">
<polygon fill="#ffffff" stroke="#000000" points="297,-99 297,-118 338,-118 338,-99 297,-99"/>
<text text-anchor="middle" x="317.5" y="-106" font-family="Helvetica,sans-Serif" font-size="10.00" fill="#000000">mesh</text>
</a>
</g>
</g>
<!-- Node57&#45;&gt;Node58 -->
<g id="edge2" class="edge">
<title>Node57&#45;&gt;Node58</title>
<path fill="none" stroke="#191970" d="M203.5529,-79.5192C231.5647,-86.6436 263.8605,-94.8576 286.9006,-100.7175"/>
<polygon fill="#191970" stroke="#191970" points="286.2324,-104.1589 296.7866,-103.2318 287.9578,-97.3749 286.2324,-104.1589"/>
</g>
<!-- Node59 -->
<g id="node4" class="node">
<title>Node59</title>
<g id="a_node4"><a xlink:href="TooSigning_8cpp.html#ad5ac4cd2c5bebd755a11b7d68da10bb5" target="_top" xlink:title="TooSigning_signed_network\l_begin">
<polygon fill="#ffffff" stroke="#000000" points="248,-49.5 248,-79.5 387,-79.5 387,-49.5 248,-49.5"/>
<text text-anchor="start" x="256" y="-67.5" font-family="Helvetica,sans-Serif" font-size="10.00" fill="#000000">TooSigning_signed_network</text>
<text text-anchor="middle" x="317.5" y="-56.5" font-family="Helvetica,sans-Serif" font-size="10.00" fill="#000000">_begin</text>
</a>
</g>
</g>
<!-- Node57&#45;&gt;Node59 -->
<g id="edge3" class="edge">
<title>Node57&#45;&gt;Node59</title>
<path fill="none" stroke="#191970" d="M212.3776,-64.5C220.6554,-64.5 229.172,-64.5 237.6044,-64.5"/>
<polygon fill="#191970" stroke="#191970" points="237.8267,-68.0001 247.8266,-64.5 237.8266,-61.0001 237.8267,-68.0001"/>
</g>
<!-- Node63 -->
<g id="node8" class="node">
<title>Node63</title>
<g id="a_node8"><a xlink:href="TooNetworking_8cpp.html#a173f695381b08642c89a68cdcd76a5d4" target="_top" xlink:title="radio">
<polygon fill="#ffffff" stroke="#000000" points="298.5,-11 298.5,-30 336.5,-30 336.5,-11 298.5,-11"/>
<text text-anchor="middle" x="317.5" y="-18" font-family="Helvetica,sans-Serif" font-size="10.00" fill="#000000">radio</text>
</a>
</g>
</g>
<!-- Node57&#45;&gt;Node63 -->
<g id="edge7" class="edge">
<title>Node57&#45;&gt;Node63</title>
<path fill="none" stroke="#191970" d="M203.5529,-49.4808C232.2437,-42.1837 265.4289,-33.7435 288.5597,-27.8605"/>
<polygon fill="#191970" stroke="#191970" points="289.5988,-31.2078 298.4276,-25.3508 287.8734,-24.4237 289.5988,-31.2078"/>
</g>
<!-- Node60 -->
<g id="node5" class="node">
<title>Node60</title>
<g id="a_node5"><a xlink:href="group__TOOSIGNING__INITIALIZE.html#ga24011c99b90b9070adb424cee01a3fc2" target="_top" xlink:title="TooSigning_received\l_noncelist_initialize">
<polygon fill="#ffffff" stroke="#000000" points="436.5,-98.5 436.5,-128.5 543.5,-128.5 543.5,-98.5 436.5,-98.5"/>
<text text-anchor="start" x="444.5" y="-116.5" font-family="Helvetica,sans-Serif" font-size="10.00" fill="#000000">TooSigning_received</text>
<text text-anchor="middle" x="490" y="-105.5" font-family="Helvetica,sans-Serif" font-size="10.00" fill="#000000">_noncelist_initialize</text>
</a>
</g>
</g>
<!-- Node59&#45;&gt;Node60 -->
<g id="edge4" class="edge">
<title>Node59&#45;&gt;Node60</title>
<path fill="none" stroke="#191970" d="M370.6632,-79.6014C388.5366,-84.6785 408.6442,-90.3902 427.1878,-95.6577"/>
<polygon fill="#191970" stroke="#191970" points="426.4365,-99.0827 437.0123,-98.4484 428.3493,-92.3491 426.4365,-99.0827"/>
</g>
<!-- Node61 -->
<g id="node6" class="node">
<title>Node61</title>
<g id="a_node6"><a xlink:href="group__TOOSIGNING__INITIALIZE.html#gafd247c5271ff63bfcde14ef94060002d" target="_top" xlink:title="TooSigning_requested\l_noncelist_initialize">
<polygon fill="#ffffff" stroke="#000000" points="433.5,-49.5 433.5,-79.5 546.5,-79.5 546.5,-49.5 433.5,-49.5"/>
<text text-anchor="start" x="441.5" y="-67.5" font-family="Helvetica,sans-Serif" font-size="10.00" fill="#000000">TooSigning_requested</text>
<text text-anchor="middle" x="490" y="-56.5" font-family="Helvetica,sans-Serif" font-size="10.00" fill="#000000">_noncelist_initialize</text>
</a>
</g>
</g>
<!-- Node59&#45;&gt;Node61 -->
<g id="edge5" class="edge">
<title>Node59&#45;&gt;Node61</title>
<path fill="none" stroke="#191970" d="M387.1651,-64.5C399.0258,-64.5 411.3213,-64.5 423.1082,-64.5"/>
<polygon fill="#191970" stroke="#191970" points="423.3118,-68.0001 433.3117,-64.5 423.3117,-61.0001 423.3118,-68.0001"/>
</g>
<!-- Node62 -->
<g id="node7" class="node">
<title>Node62</title>
<g id="a_node7"><a xlink:href="group__TOOSIGNING__INITIALIZE.html#ga0ad0c6af4c20b80f75ccf3d4a2804a0c" target="_top" xlink:title="TooSigning_sent_noncelist\l_initialize">
<polygon fill="#ffffff" stroke="#000000" points="423,-.5 423,-30.5 557,-30.5 557,-.5 423,-.5"/>
<text text-anchor="start" x="431" y="-18.5" font-family="Helvetica,sans-Serif" font-size="10.00" fill="#000000">TooSigning_sent_noncelist</text>
<text text-anchor="middle" x="490" y="-7.5" font-family="Helvetica,sans-Serif" font-size="10.00" fill="#000000">_initialize</text>
</a>
</g>
</g>
<!-- Node59&#45;&gt;Node62 -->
<g id="edge6" class="edge">
<title>Node59&#45;&gt;Node62</title>
<path fill="none" stroke="#191970" d="M370.6632,-49.3986C388.5366,-44.3215 408.6442,-38.6098 427.1878,-33.3423"/>
<polygon fill="#191970" stroke="#191970" points="428.3493,-36.6509 437.0123,-30.5516 426.4365,-29.9173 428.3493,-36.6509"/>
</g>
</g>
</svg>
