<?xml version="1.0" encoding="UTF-8" standalone="no"?>
<!DOCTYPE svg PUBLIC "-//W3C//DTD SVG 1.1//EN"
 "http://www.w3.org/Graphics/SVG/1.1/DTD/svg11.dtd">
<!-- Generated by graphviz version 2.40.1 (20161225.0304)
 -->
<!-- Title: TooNetworking_begin Pages: 1 -->
<svg width="635pt" height="137pt"
 viewBox="0.00 0.00 635.00 137.00" xmlns="http://www.w3.org/2000/svg" xmlns:xlink="http://www.w3.org/1999/xlink">
<g id="graph0" class="graph" transform="scale(1 1) rotate(0) translate(4 133)">
<title>TooNetworking_begin</title>
<polygon fill="#ffffff" stroke="transparent" points="-4,4 -4,-133 631,-133 631,4 -4,4"/>
<!-- Node0 -->
<g id="node1" class="node">
<title>Node0</title>
<polygon fill="#bfbfbf" stroke="#000000" points="0,-77 0,-96 111,-96 111,-77 0,-77"/>
<text text-anchor="middle" x="55.5" y="-84" font-family="Helvetica,sans-Serif" font-size="10.00" fill="#000000">TooNetworking_begin</text>
</g>
<!-- Node1 -->
<g id="node2" class="node">
<title>Node1</title>
<g id="a_node2"><a xlink:href="TooNetworking_8cpp.html#aec97902cf0d3ec10fd86927f3d1df0c6" target="_top" xlink:title="TooNetworking_connection\l_begin">
<polygon fill="#ffffff" stroke="#000000" points="147,-71.5 147,-101.5 282,-101.5 282,-71.5 147,-71.5"/>
<text text-anchor="start" x="155" y="-89.5" font-family="Helvetica,sans-Serif" font-size="10.00" fill="#000000">TooNetworking_connection</text>
<text text-anchor="middle" x="214.5" y="-78.5" font-family="Helvetica,sans-Serif" font-size="10.00" fill="#000000">_begin</text>
</a>
</g>
</g>
<!-- Node0&#45;&gt;Node1 -->
<g id="edge1" class="edge">
<title>Node0&#45;&gt;Node1</title>
<path fill="none" stroke="#191970" d="M111.1105,-86.5C119.4137,-86.5 128.1002,-86.5 136.7589,-86.5"/>
<polygon fill="#191970" stroke="#191970" points="136.886,-90.0001 146.886,-86.5 136.8859,-83.0001 136.886,-90.0001"/>
</g>
<!-- Node2 -->
<g id="node3" class="node">
<title>Node2</title>
<g id="a_node3"><a xlink:href="TooNetworking_8cpp.html#abdda8f09b9d475ed2c23a2376e2e0151" target="_top" xlink:title="mesh">
<polygon fill="#ffffff" stroke="#000000" points="367,-99 367,-118 408,-118 408,-99 367,-99"/>
<text text-anchor="middle" x="387.5" y="-106" font-family="Helvetica,sans-Serif" font-size="10.00" fill="#000000">mesh</text>
</a>
</g>
</g>
<!-- Node1&#45;&gt;Node2 -->
<g id="edge2" class="edge">
<title>Node1&#45;&gt;Node2</title>
<path fill="none" stroke="#191970" d="M282.3776,-95.1318C308.0118,-98.3917 335.9366,-101.9428 356.5582,-104.5652"/>
<polygon fill="#191970" stroke="#191970" points="356.2638,-108.0559 366.6254,-105.8454 357.1469,-101.1118 356.2638,-108.0559"/>
</g>
<!-- Node3 -->
<g id="node4" class="node">
<title>Node3</title>
<g id="a_node4"><a xlink:href="TooSigning_8cpp.html#ad5ac4cd2c5bebd755a11b7d68da10bb5" target="_top" xlink:title="TooSigning_signed_network\l_begin">
<polygon fill="#ffffff" stroke="#000000" points="318,-49.5 318,-79.5 457,-79.5 457,-49.5 318,-49.5"/>
<text text-anchor="start" x="326" y="-67.5" font-family="Helvetica,sans-Serif" font-size="10.00" fill="#000000">TooSigning_signed_network</text>
<text text-anchor="middle" x="387.5" y="-56.5" font-family="Helvetica,sans-Serif" font-size="10.00" fill="#000000">_begin</text>
</a>
</g>
</g>
<!-- Node1&#45;&gt;Node3 -->
<g id="edge3" class="edge">
<title>Node1&#45;&gt;Node3</title>
<path fill="none" stroke="#191970" d="M282.3776,-77.8682C290.7464,-76.8039 299.3592,-75.7087 307.8824,-74.6248"/>
<polygon fill="#191970" stroke="#191970" points="308.3481,-78.0938 317.8266,-73.3602 307.465,-71.1498 308.3481,-78.0938"/>
</g>
<!-- Node4 -->
<g id="node5" class="node">
<title>Node4</title>
<g id="a_node5"><a xlink:href="group__TOOSIGNING__INITIALIZE.html#ga24011c99b90b9070adb424cee01a3fc2" target="_top" xlink:title="TooSigning_received\l_noncelist_initialize">
<polygon fill="#ffffff" stroke="#000000" points="506.5,-98.5 506.5,-128.5 613.5,-128.5 613.5,-98.5 506.5,-98.5"/>
<text text-anchor="start" x="514.5" y="-116.5" font-family="Helvetica,sans-Serif" font-size="10.00" fill="#000000">TooSigning_received</text>
<text text-anchor="middle" x="560" y="-105.5" font-family="Helvetica,sans-Serif" font-size="10.00" fill="#000000">_noncelist_initialize</text>
</a>
</g>
</g>
<!-- Node3&#45;&gt;Node4 -->
<g id="edge4" class="edge">
<title>Node3&#45;&gt;Node4</title>
<path fill="none" stroke="#191970" d="M440.6632,-79.6014C458.5366,-84.6785 478.6442,-90.3902 497.1878,-95.6577"/>
<polygon fill="#191970" stroke="#191970" points="496.4365,-99.0827 507.0123,-98.4484 498.3493,-92.3491 496.4365,-99.0827"/>
</g>
<!-- Node5 -->
<g id="node6" class="node">
<title>Node5</title>
<g id="a_node6"><a xlink:href="group__TOOSIGNING__INITIALIZE.html#gafd247c5271ff63bfcde14ef94060002d" target="_top" xlink:title="TooSigning_requested\l_noncelist_initialize">
<polygon fill="#ffffff" stroke="#000000" points="503.5,-49.5 503.5,-79.5 616.5,-79.5 616.5,-49.5 503.5,-49.5"/>
<text text-anchor="start" x="511.5" y="-67.5" font-family="Helvetica,sans-Serif" font-size="10.00" fill="#000000">TooSigning_requested</text>
<text text-anchor="middle" x="560" y="-56.5" font-family="Helvetica,sans-Serif" font-size="10.00" fill="#000000">_noncelist_initialize</text>
</a>
</g>
</g>
<!-- Node3&#45;&gt;Node5 -->
<g id="edge5" class="edge">
<title>Node3&#45;&gt;Node5</title>
<path fill="none" stroke="#191970" d="M457.1651,-64.5C469.0258,-64.5 481.3213,-64.5 493.1082,-64.5"/>
<polygon fill="#191970" stroke="#191970" points="493.3118,-68.0001 503.3117,-64.5 493.3117,-61.0001 493.3118,-68.0001"/>
</g>
<!-- Node6 -->
<g id="node7" class="node">
<title>Node6</title>
<g id="a_node7"><a xlink:href="group__TOOSIGNING__INITIALIZE.html#ga0ad0c6af4c20b80f75ccf3d4a2804a0c" target="_top" xlink:title="TooSigning_sent_noncelist\l_initialize">
<polygon fill="#ffffff" stroke="#000000" points="493,-.5 493,-30.5 627,-30.5 627,-.5 493,-.5"/>
<text text-anchor="start" x="501" y="-18.5" font-family="Helvetica,sans-Serif" font-size="10.00" fill="#000000">TooSigning_sent_noncelist</text>
<text text-anchor="middle" x="560" y="-7.5" font-family="Helvetica,sans-Serif" font-size="10.00" fill="#000000">_initialize</text>
</a>
</g>
</g>
<!-- Node3&#45;&gt;Node6 -->
<g id="edge6" class="edge">
<title>Node3&#45;&gt;Node6</title>
<path fill="none" stroke="#191970" d="M440.6632,-49.3986C458.5366,-44.3215 478.6442,-38.6098 497.1878,-33.3423"/>
<polygon fill="#191970" stroke="#191970" points="498.3493,-36.6509 507.0123,-30.5516 496.4365,-29.9173 498.3493,-36.6509"/>
</g>
</g>
</svg>
