<?xml version="1.0" encoding="UTF-8" standalone="no"?>
<!DOCTYPE svg PUBLIC "-//W3C//DTD SVG 1.1//EN"
 "http://www.w3.org/Graphics/SVG/1.1/DTD/svg11.dtd">
<!-- Generated by graphviz version 2.40.1 (20161225.0304)
 -->
<!-- Title: TooNetworking_bufferlist_send_all Pages: 1 -->
<!--zoomable 492 -->
<svg id="main" version="1.1" xmlns="http://www.w3.org/2000/svg" xmlns:xlink="http://www.w3.org/1999/xlink" xml:space="preserve" onload="init(evt)">
<style type="text/css"><![CDATA[
.edge:hover path { stroke: red; }
.edge:hover polygon { stroke: red; fill: red; }
]]></style>
<script type="text/javascript"><![CDATA[
var edges = document.getElementsByTagName('g');
if (edges && edges.length) {
  for (var i=0;i<edges.length;i++) {
    if (edges[i].id.substr(0,4)=='edge') {
      edges[i].setAttribute('class','edge');
    }
  }
}
]]></script>
        <defs>
                <circle id="rim" cx="0" cy="0" r="7"/>
                <circle id="rim2" cx="0" cy="0" r="3.5"/>
                <g id="zoomPlus">
                        <use xlink:href="#rim" fill="#404040">
                                <set attributeName="fill" to="#808080" begin="zoomplus.mouseover" end="zoomplus.mouseout"/>
                        </use>
                        <path d="M-4,0h8M0,-4v8" fill="none" stroke="white" stroke-width="1.5" pointer-events="none"/>
                </g>
                <g id="zoomMin">
                        <use xlink:href="#rim" fill="#404040">
                                <set attributeName="fill" to="#808080" begin="zoomminus.mouseover" end="zoomminus.mouseout"/>
                        </use>
                        <path d="M-4,0h8" fill="none" stroke="white" stroke-width="1.5" pointer-events="none"/>
                </g>
                <g id="dirArrow">
                        <path fill="none" stroke="white" stroke-width="1.5" d="M0,-3.0v7 M-2.5,-0.5L0,-3.0L2.5,-0.5"/>
                </g>
               <g id="resetDef">
                       <use xlink:href="#rim2" fill="#404040">
                               <set attributeName="fill" to="#808080" begin="reset.mouseover" end="reset.mouseout"/>
                       </use>
               </g>
        </defs>

<script type="text/javascript">
var viewWidth = 1267;
var viewHeight = 492;
var sectionId = 'dynsection-11';
</script>
<script xlink:href="svgpan.js"/>
<svg id="graph" class="graph">
<g id="viewport">
<title>TooNetworking_bufferlist_send_all</title>
<polygon fill="#ffffff" stroke="transparent" points="-4,4 -4,-488 1263,-488 1263,4 -4,4"/>
<!-- Node68 -->
<g id="node1" class="node">
<title>Node68</title>
<polygon fill="#bfbfbf" stroke="#000000" points="0,-315.5 0,-345.5 125,-345.5 125,-315.5 0,-315.5"/>
<text text-anchor="start" x="8" y="-333.5" font-family="Helvetica,sans-Serif" font-size="10.00" fill="#000000">TooNetworking_bufferlist</text>
<text text-anchor="middle" x="62.5" y="-322.5" font-family="Helvetica,sans-Serif" font-size="10.00" fill="#000000">_send_all</text>
</g>
<!-- Node69 -->
<g id="node2" class="node">
<title>Node69</title>
<g id="a_node2"><a xlink:href="group__TOONETWORKING__SIMPLE__BUFFER.html#ga2b5485b317146ce7c14bbad26172d796" target="_top" xlink:title="TooNetworking_bufferlist\l_print">
<polygon fill="#ffffff" stroke="#000000" points="161,-437.5 161,-467.5 286,-467.5 286,-437.5 161,-437.5"/>
<text text-anchor="start" x="169" y="-455.5" font-family="Helvetica,sans-Serif" font-size="10.00" fill="#000000">TooNetworking_bufferlist</text>
<text text-anchor="middle" x="223.5" y="-444.5" font-family="Helvetica,sans-Serif" font-size="10.00" fill="#000000">_print</text>
</a>
</g>
</g>
<!-- Node68&#45;&gt;Node69 -->
<g id="edge1" class="edge">
<title>Node68&#45;&gt;Node69</title>
<path fill="none" stroke="#191970" d="M75.9966,-345.7006C93.9592,-365.2833 127.3824,-399.5303 161,-422.5 166.3477,-426.1539 172.2089,-429.5973 178.1313,-432.7572"/>
<polygon fill="#191970" stroke="#191970" points="176.9227,-436.069 187.4233,-437.4788 180.0938,-429.8284 176.9227,-436.069"/>
</g>
<!-- Node70 -->
<g id="node3" class="node">
<title>Node70</title>
<g id="a_node3"><a xlink:href="TooNetworking_8cpp.html#a0ad03a7efb42cf40ca3e20fb5df3a5db" target="_top" xlink:title="TooNetworking_bufferlist\l_send_">
<polygon fill="#ffffff" stroke="#000000" points="161,-349.5 161,-379.5 286,-379.5 286,-349.5 161,-349.5"/>
<text text-anchor="start" x="169" y="-367.5" font-family="Helvetica,sans-Serif" font-size="10.00" fill="#000000">TooNetworking_bufferlist</text>
<text text-anchor="middle" x="223.5" y="-356.5" font-family="Helvetica,sans-Serif" font-size="10.00" fill="#000000">_send_</text>
</a>
</g>
</g>
<!-- Node68&#45;&gt;Node70 -->
<g id="edge2" class="edge">
<title>Node68&#45;&gt;Node70</title>
<path fill="none" stroke="#191970" d="M125.2078,-343.7426C133.6481,-345.5251 142.3631,-347.3655 150.9559,-349.1801"/>
<polygon fill="#191970" stroke="#191970" points="150.4559,-352.6517 160.9633,-351.2935 151.9023,-345.8027 150.4559,-352.6517"/>
</g>
<!-- Node75 -->
<g id="node8" class="node">
<title>Node75</title>
<g id="a_node8"><a xlink:href="TooNetworking_8cpp.html#a3c91b7ab2f6500c287ecc7ab4a018ef6" target="_top" xlink:title="TooNetworking_bufferlist\l_remove">
<polygon fill="#ffffff" stroke="#000000" points="335,-453.5 335,-483.5 460,-483.5 460,-453.5 335,-453.5"/>
<text text-anchor="start" x="343" y="-471.5" font-family="Helvetica,sans-Serif" font-size="10.00" fill="#000000">TooNetworking_bufferlist</text>
<text text-anchor="middle" x="397.5" y="-460.5" font-family="Helvetica,sans-Serif" font-size="10.00" fill="#000000">_remove</text>
</a>
</g>
</g>
<!-- Node68&#45;&gt;Node75 -->
<g id="edge9" class="edge">
<title>Node68&#45;&gt;Node75</title>
<path fill="none" stroke="#191970" d="M84.8152,-345.5881C104.2946,-358.2765 133.6497,-376.2554 161,-388.5 214.2388,-412.3348 231.2508,-408.3755 286,-428.5 302.2691,-434.4801 305.7612,-437.4381 322,-443.5 327.9423,-445.7182 334.1831,-447.9454 340.4239,-450.1068"/>
<polygon fill="#191970" stroke="#191970" points="339.5935,-453.5215 350.188,-453.4385 341.8541,-446.8966 339.5935,-453.5215"/>
</g>
<!-- Node76 -->
<g id="node9" class="node">
<title>Node76</title>
<g id="a_node9"><a xlink:href="TooSigning_8cpp.html#a729dc41cfb692fb0aea083c38c5f3577" target="_top" xlink:title="TooSigning_received\l_noncelist_find_from_ID">
<polygon fill="#ffffff" stroke="#000000" points="162.5,-166.5 162.5,-196.5 284.5,-196.5 284.5,-166.5 162.5,-166.5"/>
<text text-anchor="start" x="170.5" y="-184.5" font-family="Helvetica,sans-Serif" font-size="10.00" fill="#000000">TooSigning_received</text>
<text text-anchor="middle" x="223.5" y="-173.5" font-family="Helvetica,sans-Serif" font-size="10.00" fill="#000000">_noncelist_find_from_ID</text>
</a>
</g>
</g>
<!-- Node68&#45;&gt;Node76 -->
<g id="edge10" class="edge">
<title>Node68&#45;&gt;Node76</title>
<path fill="none" stroke="#191970" d="M70.8059,-315.2488C85.6629,-289.2826 119.1828,-236.3127 161,-205.5 162.8627,-204.1275 164.8136,-202.8233 166.8278,-201.5851"/>
<polygon fill="#191970" stroke="#191970" points="168.895,-204.4437 175.9863,-196.572 165.5339,-198.3034 168.895,-204.4437"/>
</g>
<!-- Node77 -->
<g id="node10" class="node">
<title>Node77</title>
<g id="a_node10"><a xlink:href="group__TOOSIGNING__DEBUGGING.html#ga974dd51d29b9bd928de51c481289aad7" target="_top" xlink:title="TooSigning_random_data\l_print">
<polygon fill="#ffffff" stroke="#000000" points="334,-278.5 334,-308.5 461,-308.5 461,-278.5 334,-278.5"/>
<text text-anchor="start" x="342" y="-296.5" font-family="Helvetica,sans-Serif" font-size="10.00" fill="#000000">TooSigning_random_data</text>
<text text-anchor="middle" x="397.5" y="-285.5" font-family="Helvetica,sans-Serif" font-size="10.00" fill="#000000">_print</text>
</a>
</g>
</g>
<!-- Node68&#45;&gt;Node77 -->
<g id="edge11" class="edge">
<title>Node68&#45;&gt;Node77</title>
<path fill="none" stroke="#191970" d="M125.118,-323.584C181.42,-317.3656 264.1764,-308.2253 323.6815,-301.6531"/>
<polygon fill="#191970" stroke="#191970" points="324.2104,-305.116 333.7657,-300.5393 323.4419,-298.1584 324.2104,-305.116"/>
</g>
<!-- Node78 -->
<g id="node11" class="node">
<title>Node78</title>
<g id="a_node11"><a xlink:href="TooNetworking_8cpp.html#a9f893c3218491ee86282fdcd9f376500" target="_top" xlink:title="TooNetworking_send\l_signed_">
<polygon fill="#ffffff" stroke="#000000" points="169,-215.5 169,-245.5 278,-245.5 278,-215.5 169,-215.5"/>
<text text-anchor="start" x="177" y="-233.5" font-family="Helvetica,sans-Serif" font-size="10.00" fill="#000000">TooNetworking_send</text>
<text text-anchor="middle" x="223.5" y="-222.5" font-family="Helvetica,sans-Serif" font-size="10.00" fill="#000000">_signed_</text>
</a>
</g>
</g>
<!-- Node68&#45;&gt;Node78 -->
<g id="edge12" class="edge">
<title>Node68&#45;&gt;Node78</title>
<path fill="none" stroke="#191970" d="M86.9524,-315.3122C114.6546,-298.1059 159.9363,-269.9806 190.6924,-250.8774"/>
<polygon fill="#191970" stroke="#191970" points="192.6969,-253.7526 199.345,-245.5031 189.0035,-247.8062 192.6969,-253.7526"/>
</g>
<!-- Node71 -->
<g id="node4" class="node">
<title>Node71</title>
<g id="a_node4"><a xlink:href="TooNetworking_8cpp.html#a48504aef69d9ac92e34269a64f7b518b" target="_top" xlink:title="TooNetworking_connection\l_check">
<polygon fill="#ffffff" stroke="#000000" points="509,-240.5 509,-270.5 644,-270.5 644,-240.5 509,-240.5"/>
<text text-anchor="start" x="517" y="-258.5" font-family="Helvetica,sans-Serif" font-size="10.00" fill="#000000">TooNetworking_connection</text>
<text text-anchor="middle" x="576.5" y="-247.5" font-family="Helvetica,sans-Serif" font-size="10.00" fill="#000000">_check</text>
</a>
</g>
</g>
<!-- Node70&#45;&gt;Node71 -->
<g id="edge3" class="edge">
<title>Node70&#45;&gt;Node71</title>
<path fill="none" stroke="#191970" d="M286.0181,-378.6151C338.2474,-387.2875 413.5129,-392.3673 473,-366.5 513.6352,-348.8303 545.5471,-306.4742 562.6608,-279.4911"/>
<polygon fill="#191970" stroke="#191970" points="565.8372,-281.0068 568.087,-270.6536 559.8719,-277.3441 565.8372,-281.0068"/>
</g>
<!-- Node73 -->
<g id="node6" class="node">
<title>Node73</title>
<g id="a_node6"><a xlink:href="TooNetworking_8cpp.html#af4808c2c0857cde9a6721ad54f5ab42d" target="_top" xlink:title="TooNetworking_other\l_node_is_online">
<polygon fill="#ffffff" stroke="#000000" points="342.5,-327.5 342.5,-357.5 452.5,-357.5 452.5,-327.5 342.5,-327.5"/>
<text text-anchor="start" x="350.5" y="-345.5" font-family="Helvetica,sans-Serif" font-size="10.00" fill="#000000">TooNetworking_other</text>
<text text-anchor="middle" x="397.5" y="-334.5" font-family="Helvetica,sans-Serif" font-size="10.00" fill="#000000">_node_is_online</text>
</a>
</g>
</g>
<!-- Node70&#45;&gt;Node73 -->
<g id="edge5" class="edge">
<title>Node70&#45;&gt;Node73</title>
<path fill="none" stroke="#191970" d="M286.318,-356.5575C301.1873,-354.6775 317.0804,-352.668 332.0628,-350.7737"/>
<polygon fill="#191970" stroke="#191970" points="332.7841,-354.2104 342.266,-349.4836 331.9059,-347.2657 332.7841,-354.2104"/>
</g>
<!-- Node74 -->
<g id="node7" class="node">
<title>Node74</title>
<g id="a_node7"><a xlink:href="TooNetworking_8cpp.html#a46674b3fdc9ee370b0839869aa145b75" target="_top" xlink:title="TooNetworking_send">
<polygon fill="#ffffff" stroke="#000000" points="343,-415 343,-434 452,-434 452,-415 343,-415"/>
<text text-anchor="middle" x="397.5" y="-422" font-family="Helvetica,sans-Serif" font-size="10.00" fill="#000000">TooNetworking_send</text>
</a>
</g>
</g>
<!-- Node70&#45;&gt;Node74 -->
<g id="edge6" class="edge">
<title>Node70&#45;&gt;Node74</title>
<path fill="none" stroke="#191970" d="M263.6186,-379.6018C281.4367,-386.1953 302.7024,-393.9097 322,-400.5 333.275,-404.3505 345.5643,-408.3432 356.8905,-411.9409"/>
<polygon fill="#191970" stroke="#191970" points="355.9565,-415.3162 366.5462,-414.9873 358.0628,-408.6406 355.9565,-415.3162"/>
</g>
<!-- Node70&#45;&gt;Node75 -->
<g id="edge8" class="edge">
<title>Node70&#45;&gt;Node75</title>
<path fill="none" stroke="#191970" d="M262.6294,-379.6424C270.8099,-383.7768 279.0515,-388.7377 286,-394.5 306.8015,-411.7502 300.1398,-427.6128 322,-443.5 324.5428,-445.348 327.2304,-447.065 330.0169,-448.6597"/>
<polygon fill="#191970" stroke="#191970" points="328.6992,-451.9167 339.197,-453.3473 331.8826,-445.6825 328.6992,-451.9167"/>
</g>
<!-- Node72 -->
<g id="node5" class="node">
<title>Node72</title>
<g id="a_node5"><a xlink:href="TooNetworking_8cpp.html#abdda8f09b9d475ed2c23a2376e2e0151" target="_top" xlink:title="mesh">
<polygon fill="#ffffff" stroke="#000000" points="708,-246 708,-265 749,-265 749,-246 708,-246"/>
<text text-anchor="middle" x="728.5" y="-253" font-family="Helvetica,sans-Serif" font-size="10.00" fill="#000000">mesh</text>
</a>
</g>
</g>
<!-- Node71&#45;&gt;Node72 -->
<g id="edge4" class="edge">
<title>Node71&#45;&gt;Node72</title>
<path fill="none" stroke="#191970" d="M644.0546,-255.5C662.8657,-255.5 682.3756,-255.5 697.8975,-255.5"/>
<polygon fill="#191970" stroke="#191970" points="697.9488,-259.0001 707.9487,-255.5 697.9487,-252.0001 697.9488,-259.0001"/>
</g>
<!-- Node74&#45;&gt;Node72 -->
<g id="edge7" class="edge">
<title>Node74&#45;&gt;Node72</title>
<path fill="none" stroke="#191970" d="M419.8051,-414.896C434.9275,-408.2773 455.306,-399.148 473,-390.5 558.002,-348.955 656.4213,-295.3585 702.3615,-270.0116"/>
<polygon fill="#191970" stroke="#191970" points="704.2857,-272.9472 711.3444,-265.0462 700.8992,-266.8208 704.2857,-272.9472"/>
</g>
<!-- Node78&#45;&gt;Node71 -->
<g id="edge13" class="edge">
<title>Node78&#45;&gt;Node71</title>
<path fill="none" stroke="#191970" d="M278.2689,-234.3788C337.3967,-238.5663 432.0614,-245.2706 498.8517,-250.0008"/>
<polygon fill="#191970" stroke="#191970" points="498.6864,-253.4978 508.9087,-250.7131 499.181,-246.5153 498.6864,-253.4978"/>
</g>
<!-- Node78&#45;&gt;Node73 -->
<g id="edge14" class="edge">
<title>Node78&#45;&gt;Node73</title>
<path fill="none" stroke="#191970" d="M237.0562,-245.8032C254.8259,-265.0152 287.7776,-297.8318 322,-317.5 325.7036,-319.6285 329.6147,-321.6077 333.6291,-323.4426"/>
<polygon fill="#191970" stroke="#191970" points="332.5608,-326.7909 343.1342,-327.4643 335.2885,-320.3442 332.5608,-326.7909"/>
</g>
<!-- Node78&#45;&gt;Node74 -->
<g id="edge33" class="edge">
<title>Node78&#45;&gt;Node74</title>
<path fill="none" stroke="#191970" d="M232.5707,-245.8711C248.5822,-272.277 283.7955,-327.2015 322,-366.5 337.7953,-382.7476 358.3254,-398.2268 373.9892,-409.101"/>
<polygon fill="#191970" stroke="#191970" points="372.3399,-412.2121 382.5769,-414.9425 376.2769,-406.4242 372.3399,-412.2121"/>
</g>
<!-- Node78&#45;&gt;Node77 -->
<g id="edge15" class="edge">
<title>Node78&#45;&gt;Node77</title>
<path fill="none" stroke="#191970" d="M265.1773,-245.5901C289.5154,-254.4021 320.4189,-265.5913 346.2389,-274.94"/>
<polygon fill="#191970" stroke="#191970" points="345.2673,-278.3105 355.8615,-278.424 347.6505,-271.7286 345.2673,-278.3105"/>
</g>
<!-- Node79 -->
<g id="node12" class="node">
<title>Node79</title>
<g id="a_node12"><a xlink:href="TooSigning_8cpp.html#a3994a32f8b2275d51b6832644f703bc7" target="_top" xlink:title="TooSigning_read_hmac\l_from_progmem">
<polygon fill="#ffffff" stroke="#000000" points="338,-.5 338,-30.5 457,-30.5 457,-.5 338,-.5"/>
<text text-anchor="start" x="346" y="-18.5" font-family="Helvetica,sans-Serif" font-size="10.00" fill="#000000">TooSigning_read_hmac</text>
<text text-anchor="middle" x="397.5" y="-7.5" font-family="Helvetica,sans-Serif" font-size="10.00" fill="#000000">_from_progmem</text>
</a>
</g>
</g>
<!-- Node78&#45;&gt;Node79 -->
<g id="edge16" class="edge">
<title>Node78&#45;&gt;Node79</title>
<path fill="none" stroke="#191970" d="M274.5586,-215.3442C278.8332,-212.5874 282.7529,-209.3352 286,-205.5 334.5004,-148.2157 271.7824,-96.285 322,-40.5 324.0785,-38.191 326.3749,-36.0948 328.8348,-34.1918"/>
<polygon fill="#191970" stroke="#191970" points="331.2458,-36.8014 337.7493,-28.4375 327.4494,-30.9202 331.2458,-36.8014"/>
</g>
<!-- Node80 -->
<g id="node13" class="node">
<title>Node80</title>
<g id="a_node13"><a xlink:href="classSha256Class.html#a73d3dcea6eb667fd146d12aa5d106939" target="_top" xlink:title="Sha256Class::initHmac">
<polygon fill="#ffffff" stroke="#000000" points="337.5,-88 337.5,-107 457.5,-107 457.5,-88 337.5,-88"/>
<text text-anchor="middle" x="397.5" y="-95" font-family="Helvetica,sans-Serif" font-size="10.00" fill="#000000">Sha256Class::initHmac</text>
</a>
</g>
</g>
<!-- Node78&#45;&gt;Node80 -->
<g id="edge17" class="edge">
<title>Node78&#45;&gt;Node80</title>
<path fill="none" stroke="#191970" d="M272.6724,-215.4697C277.5394,-212.6721 282.1086,-209.3764 286,-205.5 316.2298,-175.3869 289.8223,-144.5221 322,-116.5 323.9621,-114.7913 326.0561,-113.232 328.251,-111.8096"/>
<polygon fill="#191970" stroke="#191970" points="330.0357,-114.8232 337.1515,-106.9736 326.6937,-108.6724 330.0357,-114.8232"/>
</g>
<!-- Node88 -->
<g id="node21" class="node">
<title>Node88</title>
<g id="a_node21"><a xlink:href="group__TOOSIGNING__HASHING.html#gafb2935303b05255e80a7a6fa4be7cf57" target="_top" xlink:title="TooSigning_hash_data">
<polygon fill="#ffffff" stroke="#000000" points="339.5,-50 339.5,-69 455.5,-69 455.5,-50 339.5,-50"/>
<text text-anchor="middle" x="397.5" y="-57" font-family="Helvetica,sans-Serif" font-size="10.00" fill="#000000">TooSigning_hash_data</text>
</a>
</g>
</g>
<!-- Node78&#45;&gt;Node88 -->
<g id="edge26" class="edge">
<title>Node78&#45;&gt;Node88</title>
<path fill="none" stroke="#191970" d="M274.0152,-215.322C278.4536,-212.5663 282.5584,-209.3206 286,-205.5 325.2662,-161.9094 279.9041,-119.3646 322,-78.5 324.5503,-76.0243 327.3734,-73.8567 330.3862,-71.96"/>
<polygon fill="#191970" stroke="#191970" points="332.0653,-75.0317 339.3106,-67.3014 328.826,-68.8263 332.0653,-75.0317"/>
</g>
<!-- Node89 -->
<g id="node22" class="node">
<title>Node89</title>
<g id="a_node22"><a xlink:href="group__TOOSIGNING__HASHING.html#gae743dd1289d92f915352e40b047b4cc8" target="_top" xlink:title="TooSigning_hash_store">
<polygon fill="#ffffff" stroke="#000000" points="338,-164 338,-183 457,-183 457,-164 338,-164"/>
<text text-anchor="middle" x="397.5" y="-171" font-family="Helvetica,sans-Serif" font-size="10.00" fill="#000000">TooSigning_hash_store</text>
</a>
</g>
</g>
<!-- Node78&#45;&gt;Node89 -->
<g id="edge28" class="edge">
<title>Node78&#45;&gt;Node89</title>
<path fill="none" stroke="#191970" d="M261.0625,-215.4662C283.6585,-206.5293 310.2513,-196.2293 322,-192.5 329.6935,-190.0579 337.9061,-187.7212 345.977,-185.5737"/>
<polygon fill="#191970" stroke="#191970" points="346.904,-188.9492 355.707,-183.0536 345.1488,-182.1728 346.904,-188.9492"/>
</g>
<!-- Node90 -->
<g id="node23" class="node">
<title>Node90</title>
<g id="a_node23"><a xlink:href="classSha256Class.html#a7556f29cadf7eaca21a537df41318af3" target="_top" xlink:title="Sha256Class::resultHmac">
<polygon fill="#ffffff" stroke="#000000" points="332,-126 332,-145 463,-145 463,-126 332,-126"/>
<text text-anchor="middle" x="397.5" y="-133" font-family="Helvetica,sans-Serif" font-size="10.00" fill="#000000">Sha256Class::resultHmac</text>
</a>
</g>
</g>
<!-- Node78&#45;&gt;Node90 -->
<g id="edge29" class="edge">
<title>Node78&#45;&gt;Node90</title>
<path fill="none" stroke="#191970" d="M270.2251,-215.3493C275.8197,-212.5331 281.2304,-209.2657 286,-205.5 307.7759,-188.3074 299.1221,-170.1965 322,-154.5 324.9309,-152.4891 328.0563,-150.6909 331.3053,-149.0829"/>
<polygon fill="#191970" stroke="#191970" points="332.9225,-152.1975 340.7303,-145.0359 330.1606,-145.7654 332.9225,-152.1975"/>
</g>
<!-- Node91 -->
<g id="node24" class="node">
<title>Node91</title>
<g id="a_node24"><a xlink:href="TooNetworking_8cpp.html#aefc5dad88b637efb11a3a7b2f76a19b9" target="_top" xlink:title="TooNetworking_connection_fix">
<polygon fill="#ffffff" stroke="#000000" points="322,-202 322,-221 473,-221 473,-202 322,-202"/>
<text text-anchor="middle" x="397.5" y="-209" font-family="Helvetica,sans-Serif" font-size="10.00" fill="#000000">TooNetworking_connection_fix</text>
</a>
</g>
</g>
<!-- Node78&#45;&gt;Node91 -->
<g id="edge34" class="edge">
<title>Node78&#45;&gt;Node91</title>
<path fill="none" stroke="#191970" d="M278.0773,-224.5404C288.7921,-223.3704 300.2725,-222.1168 311.7246,-220.8663"/>
<polygon fill="#191970" stroke="#191970" points="312.2004,-224.3352 321.7614,-219.7703 311.4405,-217.3766 312.2004,-224.3352"/>
</g>
<!-- Node81 -->
<g id="node14" class="node">
<title>Node81</title>
<g id="a_node14"><a xlink:href="classSha256Class.html#ac1025d69c51fcd1b882ee41114e58339" target="_top" xlink:title="Sha256Class::init">
<polygon fill="#ffffff" stroke="#000000" points="529.5,-88 529.5,-107 623.5,-107 623.5,-88 529.5,-88"/>
<text text-anchor="middle" x="576.5" y="-95" font-family="Helvetica,sans-Serif" font-size="10.00" fill="#000000">Sha256Class::init</text>
</a>
</g>
</g>
<!-- Node80&#45;&gt;Node81 -->
<g id="edge18" class="edge">
<title>Node80&#45;&gt;Node81</title>
<path fill="none" stroke="#191970" d="M457.6024,-97.5C477.4949,-97.5 499.567,-97.5 519.2402,-97.5"/>
<polygon fill="#191970" stroke="#191970" points="519.2852,-101.0001 529.2851,-97.5 519.2851,-94.0001 519.2852,-101.0001"/>
</g>
<!-- Node82 -->
<g id="node15" class="node">
<title>Node82</title>
<g id="a_node15"><a xlink:href="classSha256Class.html#a0f0fc4bd4d8c53d232df0d41d7ea25e0" target="_top" xlink:title="Sha256Class::write">
<polygon fill="#ffffff" stroke="#000000" points="525.5,-50 525.5,-69 627.5,-69 627.5,-50 525.5,-50"/>
<text text-anchor="middle" x="576.5" y="-57" font-family="Helvetica,sans-Serif" font-size="10.00" fill="#000000">Sha256Class::write</text>
</a>
</g>
</g>
<!-- Node80&#45;&gt;Node82 -->
<g id="edge19" class="edge">
<title>Node80&#45;&gt;Node82</title>
<path fill="none" stroke="#191970" d="M442.6693,-87.911C466.7159,-82.8061 496.4744,-76.4887 521.8194,-71.1082"/>
<polygon fill="#191970" stroke="#191970" points="522.6004,-74.5205 531.6556,-69.0201 521.1467,-67.6731 522.6004,-74.5205"/>
</g>
<!-- Node86 -->
<g id="node19" class="node">
<title>Node86</title>
<g id="a_node19"><a xlink:href="classSha256Class.html#a0ca245a22f8b056a3d1902da3c64b705" target="_top" xlink:title="Sha256Class::result">
<polygon fill="#ffffff" stroke="#000000" points="524,-126 524,-145 629,-145 629,-126 524,-126"/>
<text text-anchor="middle" x="576.5" y="-133" font-family="Helvetica,sans-Serif" font-size="10.00" fill="#000000">Sha256Class::result</text>
</a>
</g>
</g>
<!-- Node80&#45;&gt;Node86 -->
<g id="edge23" class="edge">
<title>Node80&#45;&gt;Node86</title>
<path fill="none" stroke="#191970" d="M442.6693,-107.089C466.7159,-112.1939 496.4744,-118.5113 521.8194,-123.8918"/>
<polygon fill="#191970" stroke="#191970" points="521.1467,-127.3269 531.6556,-125.9799 522.6004,-120.4795 521.1467,-127.3269"/>
</g>
<!-- Node83 -->
<g id="node16" class="node">
<title>Node83</title>
<g id="a_node16"><a xlink:href="classSha256Class.html#ab0b46743e3d59b1c68f52ed89dfaff50" target="_top" xlink:title="Sha256Class::addUncounted">
<polygon fill="#ffffff" stroke="#000000" points="813,-79 813,-98 957,-98 957,-79 813,-79"/>
<text text-anchor="middle" x="885" y="-86" font-family="Helvetica,sans-Serif" font-size="10.00" fill="#000000">Sha256Class::addUncounted</text>
</a>
</g>
</g>
<!-- Node82&#45;&gt;Node83 -->
<g id="edge20" class="edge">
<title>Node82&#45;&gt;Node83</title>
<path fill="none" stroke="#191970" d="M627.7888,-64.3213C675.3709,-68.7942 747.0091,-75.5284 802.6076,-80.7548"/>
<polygon fill="#191970" stroke="#191970" points="802.5093,-84.2609 812.793,-81.7123 803.1644,-77.2917 802.5093,-84.2609"/>
</g>
<!-- Node84 -->
<g id="node17" class="node">
<title>Node84</title>
<g id="a_node17"><a xlink:href="classSha256Class.html#a399d2a23951e2130f54af8ac7712068f" target="_top" xlink:title="Sha256Class::hashBlock">
<polygon fill="#ffffff" stroke="#000000" points="993,-79 993,-98 1120,-98 1120,-79 993,-79"/>
<text text-anchor="middle" x="1056.5" y="-86" font-family="Helvetica,sans-Serif" font-size="10.00" fill="#000000">Sha256Class::hashBlock</text>
</a>
</g>
</g>
<!-- Node83&#45;&gt;Node84 -->
<g id="edge21" class="edge">
<title>Node83&#45;&gt;Node84</title>
<path fill="none" stroke="#191970" d="M957.2344,-88.5C965.6298,-88.5 974.2026,-88.5 982.6198,-88.5"/>
<polygon fill="#191970" stroke="#191970" points="982.7873,-92.0001 992.7873,-88.5 982.7873,-85.0001 982.7873,-92.0001"/>
</g>
<!-- Node85 -->
<g id="node18" class="node">
<title>Node85</title>
<g id="a_node18"><a xlink:href="classSha256Class.html#ae275718ce9813bb33b2d8d8fbf018bd6" target="_top" xlink:title="Sha256Class::ror32">
<polygon fill="#ffffff" stroke="#000000" points="1156,-79 1156,-98 1259,-98 1259,-79 1156,-79"/>
<text text-anchor="middle" x="1207.5" y="-86" font-family="Helvetica,sans-Serif" font-size="10.00" fill="#000000">Sha256Class::ror32</text>
</a>
</g>
</g>
<!-- Node84&#45;&gt;Node85 -->
<g id="edge22" class="edge">
<title>Node84&#45;&gt;Node85</title>
<path fill="none" stroke="#191970" d="M1120.1,-88.5C1128.5806,-88.5 1137.2667,-88.5 1145.7157,-88.5"/>
<polygon fill="#191970" stroke="#191970" points="1145.8743,-92.0001 1155.8743,-88.5 1145.8742,-85.0001 1145.8743,-92.0001"/>
</g>
<!-- Node87 -->
<g id="node20" class="node">
<title>Node87</title>
<g id="a_node20"><a xlink:href="classSha256Class.html#a82049dae520ccf0bd8478f2aef639149" target="_top" xlink:title="Sha256Class::pad">
<polygon fill="#ffffff" stroke="#000000" points="680,-117 680,-136 777,-136 777,-117 680,-117"/>
<text text-anchor="middle" x="728.5" y="-124" font-family="Helvetica,sans-Serif" font-size="10.00" fill="#000000">Sha256Class::pad</text>
</a>
</g>
</g>
<!-- Node86&#45;&gt;Node87 -->
<g id="edge24" class="edge">
<title>Node86&#45;&gt;Node87</title>
<path fill="none" stroke="#191970" d="M629.2356,-132.3775C642.3546,-131.6007 656.497,-130.7633 669.8798,-129.9709"/>
<polygon fill="#191970" stroke="#191970" points="670.1604,-133.4605 679.936,-129.3755 669.7466,-126.4728 670.1604,-133.4605"/>
</g>
<!-- Node87&#45;&gt;Node83 -->
<g id="edge25" class="edge">
<title>Node87&#45;&gt;Node83</title>
<path fill="none" stroke="#191970" d="M767.9916,-116.911C788.6434,-111.8965 814.114,-105.7119 836.0125,-100.3947"/>
<polygon fill="#191970" stroke="#191970" points="836.9007,-103.7809 845.7924,-98.0201 835.2489,-96.9785 836.9007,-103.7809"/>
</g>
<!-- Node88&#45;&gt;Node82 -->
<g id="edge27" class="edge">
<title>Node88&#45;&gt;Node82</title>
<path fill="none" stroke="#191970" d="M455.6162,-59.5C474.6532,-59.5 495.8592,-59.5 515.1288,-59.5"/>
<polygon fill="#191970" stroke="#191970" points="515.3069,-63.0001 525.3069,-59.5 515.3068,-56.0001 515.3069,-63.0001"/>
</g>
<!-- Node90&#45;&gt;Node81 -->
<g id="edge31" class="edge">
<title>Node90&#45;&gt;Node81</title>
<path fill="none" stroke="#191970" d="M442.6693,-125.911C466.7159,-120.8061 496.4744,-114.4887 521.8194,-109.1082"/>
<polygon fill="#191970" stroke="#191970" points="522.6004,-112.5205 531.6556,-107.0201 521.1467,-105.6731 522.6004,-112.5205"/>
</g>
<!-- Node90&#45;&gt;Node82 -->
<g id="edge32" class="edge">
<title>Node90&#45;&gt;Node82</title>
<path fill="none" stroke="#191970" d="M451.384,-125.9605C458.9193,-123.4917 466.3506,-120.3913 473,-116.5 493.0789,-104.7495 489.0867,-90.5289 509,-78.5 512.5755,-76.3402 516.4052,-74.418 520.3567,-72.7085"/>
<polygon fill="#191970" stroke="#191970" points="521.6631,-75.956 529.7356,-69.0942 519.1459,-69.4243 521.6631,-75.956"/>
</g>
<!-- Node90&#45;&gt;Node86 -->
<g id="edge30" class="edge">
<title>Node90&#45;&gt;Node86</title>
<path fill="none" stroke="#191970" d="M463.1366,-135.5C479.6624,-135.5 497.3592,-135.5 513.74,-135.5"/>
<polygon fill="#191970" stroke="#191970" points="513.7472,-139.0001 523.7472,-135.5 513.7471,-132.0001 513.7472,-139.0001"/>
</g>
<!-- Node91&#45;&gt;Node71 -->
<g id="edge35" class="edge">
<title>Node91&#45;&gt;Node71</title>
<path fill="none" stroke="#191970" d="M436.3403,-221.0473C456.4936,-226.0012 481.7568,-232.2112 505.2643,-237.9895"/>
<polygon fill="#191970" stroke="#191970" points="504.6649,-241.4463 515.2114,-240.4346 506.3359,-234.6487 504.6649,-241.4463"/>
</g>
<!-- Node91&#45;&gt;Node72 -->
<g id="edge36" class="edge">
<title>Node91&#45;&gt;Node72</title>
<path fill="none" stroke="#191970" d="M473.0044,-213.2048C522.0667,-215.3213 587.2263,-220.0346 644,-230.5 662.2659,-233.8671 682.2114,-239.6632 698.1354,-244.8271"/>
<polygon fill="#191970" stroke="#191970" points="697.3673,-248.2602 707.9609,-248.0974 699.578,-241.6184 697.3673,-248.2602"/>
</g>
</g>
</svg>
        <g id="navigator" transform="translate(0 0)" fill="#404254">
                <rect fill="#f2f5e9" fill-opacity="0.5" stroke="#606060" stroke-width=".5" x="0" y="0" width="60" height="60"/>
                <use id="zoomplus" xlink:href="#zoomPlus" x="17" y="9" onmousedown="handleZoom(evt,'in')"/>
                <use id="zoomminus" xlink:href="#zoomMin" x="42" y="9" onmousedown="handleZoom(evt,'out')"/>
                <use id="reset" xlink:href="#resetDef" x="30" y="36" onmousedown="handleReset()"/>
                <g id="arrowUp" xlink:href="#dirArrow" transform="translate(30 24)" onmousedown="handlePan(0,-1)">
                  <use xlink:href="#rim" fill="#404040">
                        <set attributeName="fill" to="#808080" begin="arrowUp.mouseover" end="arrowUp.mouseout"/>
                  </use>
                  <path fill="none" stroke="white" stroke-width="1.5" d="M0,-3.0v7 M-2.5,-0.5L0,-3.0L2.5,-0.5"/>
                </g>
                <g id="arrowRight" xlink:href="#dirArrow" transform="rotate(90) translate(36 -43)" onmousedown="handlePan(1,0)">
                  <use xlink:href="#rim" fill="#404040">
                        <set attributeName="fill" to="#808080" begin="arrowRight.mouseover" end="arrowRight.mouseout"/>
                  </use>
                  <path fill="none" stroke="white" stroke-width="1.5" d="M0,-3.0v7 M-2.5,-0.5L0,-3.0L2.5,-0.5"/>
                </g>
                <g id="arrowDown" xlink:href="#dirArrow" transform="rotate(180) translate(-30 -48)" onmousedown="handlePan(0,1)">
                  <use xlink:href="#rim" fill="#404040">
                        <set attributeName="fill" to="#808080" begin="arrowDown.mouseover" end="arrowDown.mouseout"/>
                  </use>
                  <path fill="none" stroke="white" stroke-width="1.5" d="M0,-3.0v7 M-2.5,-0.5L0,-3.0L2.5,-0.5"/>
                </g>
                <g id="arrowLeft" xlink:href="#dirArrow" transform="rotate(270) translate(-36 17)" onmousedown="handlePan(-1,0)">
                  <use xlink:href="#rim" fill="#404040">
                        <set attributeName="fill" to="#808080" begin="arrowLeft.mouseover" end="arrowLeft.mouseout"/>
                  </use>
                  <path fill="none" stroke="white" stroke-width="1.5" d="M0,-3.0v7 M-2.5,-0.5L0,-3.0L2.5,-0.5"/>
                </g>
        </g>
        <svg viewBox="0 0 15 15" width="100%" height="30px" preserveAspectRatio="xMaxYMin meet">
         <g id="arrow_out" transform="scale(0.3 0.3)">
          <a xlink:href="TooNetworking_8cpp_ab58e06e0eb6f2f8ecbebeaf3c173fb22_cgraph_org.svg" target="_base">
           <rect id="button" ry="5" rx="5" y="6" x="6" height="38" width="38"
                fill="#f2f5e9" fill-opacity="0.5" stroke="#606060" stroke-width="1.0"/>
           <path id="arrow"
             d="M 11.500037,31.436501 C 11.940474,20.09759 22.043105,11.32322 32.158766,21.979434 L 37.068811,17.246167 C 37.068811,17.246167 37.088388,32 37.088388,32 L 22.160133,31.978069 C 22.160133,31.978069 26.997745,27.140456 26.997745,27.140456 C 18.528582,18.264221 13.291696,25.230495 11.500037,31.436501 z"
             style="fill:#404040;"/>
          </a>
         </g>
        </svg>
</svg>
