<?xml version="1.0" encoding="UTF-8" standalone="no"?>
<!DOCTYPE svg PUBLIC "-//W3C//DTD SVG 1.1//EN"
 "http://www.w3.org/Graphics/SVG/1.1/DTD/svg11.dtd">
<!-- Generated by graphviz version 2.40.1 (20161225.0304)
 -->
<!-- Title: TooNetworking_connection_fix Pages: 1 -->
<svg width="1043pt" height="83pt"
 viewBox="0.00 0.00 1043.00 83.00" xmlns="http://www.w3.org/2000/svg" xmlns:xlink="http://www.w3.org/1999/xlink">
<g id="graph0" class="graph" transform="scale(1 1) rotate(0) translate(4 79)">
<title>TooNetworking_connection_fix</title>
<polygon fill="#ffffff" stroke="transparent" points="-4,4 -4,-79 1039,-79 1039,4 -4,4"/>
<!-- Node126 -->
<g id="node1" class="node">
<title>Node126</title>
<polygon fill="#bfbfbf" stroke="#000000" points="0,-28 0,-47 151,-47 151,-28 0,-28"/>
<text text-anchor="middle" x="75.5" y="-35" font-family="Helvetica,sans-Serif" font-size="10.00" fill="#000000">TooNetworking_connection_fix</text>
</g>
<!-- Node127 -->
<g id="node2" class="node">
<title>Node127</title>
<g id="a_node2"><a xlink:href="TooNetworking_8h.html#ab5dfe46515ee5ca8f9893675df673d96" target="_top" xlink:title="TooNetworking_send\l_signed">
<polygon fill="#ffffff" stroke="#000000" points="199.5,-44.5 199.5,-74.5 308.5,-74.5 308.5,-44.5 199.5,-44.5"/>
<text text-anchor="start" x="207.5" y="-62.5" font-family="Helvetica,sans-Serif" font-size="10.00" fill="#000000">TooNetworking_send</text>
<text text-anchor="middle" x="254" y="-51.5" font-family="Helvetica,sans-Serif" font-size="10.00" fill="#000000">_signed</text>
</a>
</g>
</g>
<!-- Node126&#45;&gt;Node127 -->
<g id="edge1" class="edge">
<title>Node126&#45;&gt;Node127</title>
<path fill="none" stroke="#191970" d="M161.4826,-48.0973C174.3538,-49.6837 187.3157,-51.2812 199.2957,-52.7577"/>
<polygon fill="#191970" stroke="#191970" points="161.5531,-44.5796 151.2001,-46.83 160.6968,-51.527 161.5531,-44.5796"/>
</g>
<!-- Node128 -->
<g id="node3" class="node">
<title>Node128</title>
<g id="a_node3"><a xlink:href="TooSigning_8h.html#abf99e5d9b5ec252bfff3bf26c0ba9e37" target="_top" xlink:title="TooSigning_connection_fix">
<polygon fill="#ffffff" stroke="#000000" points="187,-6 187,-25 321,-25 321,-6 187,-6"/>
<text text-anchor="middle" x="254" y="-13" font-family="Helvetica,sans-Serif" font-size="10.00" fill="#000000">TooSigning_connection_fix</text>
</a>
</g>
</g>
<!-- Node126&#45;&gt;Node128 -->
<g id="edge2" class="edge">
<title>Node126&#45;&gt;Node128</title>
<path fill="none" stroke="#191970" d="M161.2802,-26.9277C169.9003,-25.8652 178.5636,-24.7975 186.9479,-23.7641"/>
<polygon fill="#191970" stroke="#191970" points="160.6968,-23.473 151.2001,-28.17 161.5531,-30.4204 160.6968,-23.473"/>
</g>
<!-- Node129 -->
<g id="node4" class="node">
<title>Node129</title>
<g id="a_node4"><a xlink:href="TooSigning_8h.html#a58143364a83636a3d2df075a95cb2bfc" target="_top" xlink:title="TooSigning_request\l_nonce_from_node_id">
<polygon fill="#ffffff" stroke="#000000" points="357,-.5 357,-30.5 469,-30.5 469,-.5 357,-.5"/>
<text text-anchor="start" x="365" y="-18.5" font-family="Helvetica,sans-Serif" font-size="10.00" fill="#000000">TooSigning_request</text>
<text text-anchor="middle" x="413" y="-7.5" font-family="Helvetica,sans-Serif" font-size="10.00" fill="#000000">_nonce_from_node_id</text>
</a>
</g>
</g>
<!-- Node128&#45;&gt;Node129 -->
<g id="edge3" class="edge">
<title>Node128&#45;&gt;Node129</title>
<path fill="none" stroke="#191970" d="M331.4911,-15.5C340.0943,-15.5 348.7289,-15.5 356.9915,-15.5"/>
<polygon fill="#191970" stroke="#191970" points="331.4303,-12.0001 321.4303,-15.5 331.4303,-19.0001 331.4303,-12.0001"/>
</g>
<!-- Node130 -->
<g id="node5" class="node">
<title>Node130</title>
<g id="a_node5"><a xlink:href="TooSigning_8h.html#af7ec4002cf8cf81195f3745703e04b22" target="_top" xlink:title="TooSigning_requested\l_noncelist_retry_all">
<polygon fill="#ffffff" stroke="#000000" points="505,-.5 505,-30.5 618,-30.5 618,-.5 505,-.5"/>
<text text-anchor="start" x="513" y="-18.5" font-family="Helvetica,sans-Serif" font-size="10.00" fill="#000000">TooSigning_requested</text>
<text text-anchor="middle" x="561.5" y="-7.5" font-family="Helvetica,sans-Serif" font-size="10.00" fill="#000000">_noncelist_retry_all</text>
</a>
</g>
</g>
<!-- Node129&#45;&gt;Node130 -->
<g id="edge4" class="edge">
<title>Node129&#45;&gt;Node130</title>
<path fill="none" stroke="#191970" d="M479.3845,-15.5C487.8629,-15.5 496.4796,-15.5 504.7858,-15.5"/>
<polygon fill="#191970" stroke="#191970" points="479.1415,-12.0001 469.1415,-15.5 479.1414,-19.0001 479.1415,-12.0001"/>
</g>
<!-- Node131 -->
<g id="node6" class="node">
<title>Node131</title>
<g id="a_node6"><a xlink:href="TooSigning_8h.html#af68b8dda897cf488129c205ad532ca9e" target="_top" xlink:title="TooSigning_signed_network\l_update">
<polygon fill="#ffffff" stroke="#000000" points="654,-.5 654,-30.5 793,-30.5 793,-.5 654,-.5"/>
<text text-anchor="start" x="662" y="-18.5" font-family="Helvetica,sans-Serif" font-size="10.00" fill="#000000">TooSigning_signed_network</text>
<text text-anchor="middle" x="723.5" y="-7.5" font-family="Helvetica,sans-Serif" font-size="10.00" fill="#000000">_update</text>
</a>
</g>
</g>
<!-- Node130&#45;&gt;Node131 -->
<g id="edge5" class="edge">
<title>Node130&#45;&gt;Node131</title>
<path fill="none" stroke="#191970" d="M628.2848,-15.5C636.6921,-15.5 645.3103,-15.5 653.7617,-15.5"/>
<polygon fill="#191970" stroke="#191970" points="628.1598,-12.0001 618.1597,-15.5 628.1597,-19.0001 628.1598,-12.0001"/>
</g>
<!-- Node132 -->
<g id="node7" class="node">
<title>Node132</title>
<g id="a_node7"><a xlink:href="TooNetworking_8h.html#a7382ba1aed5405c3adc02011ea6c45dd" target="_top" xlink:title="TooNetworking_connection\l_maintenance">
<polygon fill="#ffffff" stroke="#000000" points="829,-.5 829,-30.5 964,-30.5 964,-.5 829,-.5"/>
<text text-anchor="start" x="837" y="-18.5" font-family="Helvetica,sans-Serif" font-size="10.00" fill="#000000">TooNetworking_connection</text>
<text text-anchor="middle" x="896.5" y="-7.5" font-family="Helvetica,sans-Serif" font-size="10.00" fill="#000000">_maintenance</text>
</a>
</g>
</g>
<!-- Node131&#45;&gt;Node132 -->
<g id="edge6" class="edge">
<title>Node131&#45;&gt;Node132</title>
<path fill="none" stroke="#191970" d="M803.6166,-15.5C812.0706,-15.5 820.6064,-15.5 828.8985,-15.5"/>
<polygon fill="#191970" stroke="#191970" points="803.3671,-12.0001 793.3671,-15.5 803.367,-19.0001 803.3671,-12.0001"/>
</g>
<!-- Node133 -->
<g id="node8" class="node">
<title>Node133</title>
<g id="a_node8"><a xlink:href="NODE__SKETCH__TooAutomation__Node_8ino_8cpp.html#a0b33edabd7f1c4e4a0bf32c67269be2f" target="_top" xlink:title="loop">
<polygon fill="#ffffff" stroke="#000000" points="1000,-6 1000,-25 1035,-25 1035,-6 1000,-6"/>
<text text-anchor="middle" x="1017.5" y="-13" font-family="Helvetica,sans-Serif" font-size="10.00" fill="#000000">loop</text>
</a>
</g>
</g>
<!-- Node132&#45;&gt;Node133 -->
<g id="edge7" class="edge">
<title>Node132&#45;&gt;Node133</title>
<path fill="none" stroke="#191970" d="M974.1566,-15.5C983.6588,-15.5 992.5454,-15.5 999.7679,-15.5"/>
<polygon fill="#191970" stroke="#191970" points="974.0755,-12.0001 964.0754,-15.5 974.0754,-19.0001 974.0755,-12.0001"/>
</g>
</g>
</svg>
