<?xml version="1.0" encoding="UTF-8" standalone="no"?>
<!DOCTYPE svg PUBLIC "-//W3C//DTD SVG 1.1//EN"
 "http://www.w3.org/Graphics/SVG/1.1/DTD/svg11.dtd">
<!-- Generated by graphviz version 2.40.1 (20161225.0304)
 -->
<!-- Title: TooNetworking_send_signed Pages: 1 -->
<!--zoomable 414 -->
<svg id="main" version="1.1" xmlns="http://www.w3.org/2000/svg" xmlns:xlink="http://www.w3.org/1999/xlink" xml:space="preserve" onload="init(evt)">
<style type="text/css"><![CDATA[
.edge:hover path { stroke: red; }
.edge:hover polygon { stroke: red; fill: red; }
]]></style>
<script type="text/javascript"><![CDATA[
var edges = document.getElementsByTagName('g');
if (edges && edges.length) {
  for (var i=0;i<edges.length;i++) {
    if (edges[i].id.substr(0,4)=='edge') {
      edges[i].setAttribute('class','edge');
    }
  }
}
]]></script>
        <defs>
                <circle id="rim" cx="0" cy="0" r="7"/>
                <circle id="rim2" cx="0" cy="0" r="3.5"/>
                <g id="zoomPlus">
                        <use xlink:href="#rim" fill="#404040">
                                <set attributeName="fill" to="#808080" begin="zoomplus.mouseover" end="zoomplus.mouseout"/>
                        </use>
                        <path d="M-4,0h8M0,-4v8" fill="none" stroke="white" stroke-width="1.5" pointer-events="none"/>
                </g>
                <g id="zoomMin">
                        <use xlink:href="#rim" fill="#404040">
                                <set attributeName="fill" to="#808080" begin="zoomminus.mouseover" end="zoomminus.mouseout"/>
                        </use>
                        <path d="M-4,0h8" fill="none" stroke="white" stroke-width="1.5" pointer-events="none"/>
                </g>
                <g id="dirArrow">
                        <path fill="none" stroke="white" stroke-width="1.5" d="M0,-3.0v7 M-2.5,-0.5L0,-3.0L2.5,-0.5"/>
                </g>
               <g id="resetDef">
                       <use xlink:href="#rim2" fill="#404040">
                               <set attributeName="fill" to="#808080" begin="reset.mouseover" end="reset.mouseout"/>
                       </use>
               </g>
        </defs>

<script type="text/javascript">
var viewWidth = 1231;
var viewHeight = 414;
var sectionId = 'dynsection-30';
</script>
<script xlink:href="svgpan.js"/>
<svg id="graph" class="graph">
<g id="viewport">
<title>TooNetworking_send_signed</title>
<polygon fill="#ffffff" stroke="transparent" points="-4,4 -4,-409.5 1227,-409.5 1227,4 -4,4"/>
<!-- Node251 -->
<g id="node1" class="node">
<title>Node251</title>
<polygon fill="#bfbfbf" stroke="#000000" points="0,-177 0,-207 109,-207 109,-177 0,-177"/>
<text text-anchor="start" x="8" y="-195" font-family="Helvetica,sans-Serif" font-size="10.00" fill="#000000">TooNetworking_send</text>
<text text-anchor="middle" x="54.5" y="-184" font-family="Helvetica,sans-Serif" font-size="10.00" fill="#000000">_signed</text>
</g>
<!-- Node252 -->
<g id="node2" class="node">
<title>Node252</title>
<g id="a_node2"><a xlink:href="TooNetworking_8cpp.html#ac352268e177fa2ddf91c8afa5cd04bbf" target="_top" xlink:title="TooNetworking_connection\l_available">
<polygon fill="#ffffff" stroke="#000000" points="332,-375 332,-405 467,-405 467,-375 332,-375"/>
<text text-anchor="start" x="340" y="-393" font-family="Helvetica,sans-Serif" font-size="10.00" fill="#000000">TooNetworking_connection</text>
<text text-anchor="middle" x="399.5" y="-382" font-family="Helvetica,sans-Serif" font-size="10.00" fill="#000000">_available</text>
</a>
</g>
</g>
<!-- Node251&#45;&gt;Node252 -->
<g id="edge1" class="edge">
<title>Node251&#45;&gt;Node252</title>
<path fill="none" stroke="#191970" d="M57.2814,-207.1893C64.5771,-242.2091 87.8007,-328.5502 145,-367 196.4518,-401.5863 267.5667,-405.2666 321.546,-401.4765"/>
<polygon fill="#191970" stroke="#191970" points="322.0714,-404.9457 331.7594,-400.6569 321.5114,-397.9681 322.0714,-404.9457"/>
</g>
<!-- Node254 -->
<g id="node4" class="node">
<title>Node254</title>
<g id="a_node4"><a xlink:href="TooNetworking_8cpp.html#af4808c2c0857cde9a6721ad54f5ab42d" target="_top" xlink:title="TooNetworking_other\l_node_is_online">
<polygon fill="#ffffff" stroke="#000000" points="165.5,-251 165.5,-281 275.5,-281 275.5,-251 165.5,-251"/>
<text text-anchor="start" x="173.5" y="-269" font-family="Helvetica,sans-Serif" font-size="10.00" fill="#000000">TooNetworking_other</text>
<text text-anchor="middle" x="220.5" y="-258" font-family="Helvetica,sans-Serif" font-size="10.00" fill="#000000">_node_is_online</text>
</a>
</g>
</g>
<!-- Node251&#45;&gt;Node254 -->
<g id="edge3" class="edge">
<title>Node251&#45;&gt;Node254</title>
<path fill="none" stroke="#191970" d="M78.8049,-207.1494C96.6575,-217.8458 121.7502,-231.998 145,-242 149.426,-243.9041 154.0545,-245.7364 158.7471,-247.481"/>
<polygon fill="#191970" stroke="#191970" points="157.8305,-250.8701 168.4251,-250.9338 160.1826,-244.2771 157.8305,-250.8701"/>
</g>
<!-- Node255 -->
<g id="node5" class="node">
<title>Node255</title>
<g id="a_node5"><a xlink:href="group__TOOSIGNING__DEBUGGING.html#ga974dd51d29b9bd928de51c481289aad7" target="_top" xlink:title="TooSigning_random_data\l_print">
<polygon fill="#ffffff" stroke="#000000" points="157,-202 157,-232 284,-232 284,-202 157,-202"/>
<text text-anchor="start" x="165" y="-220" font-family="Helvetica,sans-Serif" font-size="10.00" fill="#000000">TooSigning_random_data</text>
<text text-anchor="middle" x="220.5" y="-209" font-family="Helvetica,sans-Serif" font-size="10.00" fill="#000000">_print</text>
</a>
</g>
</g>
<!-- Node251&#45;&gt;Node255 -->
<g id="edge4" class="edge">
<title>Node251&#45;&gt;Node255</title>
<path fill="none" stroke="#191970" d="M109.3147,-200.2552C121.3119,-202.062 134.2008,-204.0031 146.8001,-205.9006"/>
<polygon fill="#191970" stroke="#191970" points="146.4101,-209.3813 156.8198,-207.4096 147.4526,-202.4593 146.4101,-209.3813"/>
</g>
<!-- Node256 -->
<g id="node6" class="node">
<title>Node256</title>
<g id="a_node6"><a xlink:href="TooSigning_8cpp.html#a3994a32f8b2275d51b6832644f703bc7" target="_top" xlink:title="TooSigning_read_hmac\l_from_progmem">
<polygon fill="#ffffff" stroke="#000000" points="161,-153 161,-183 280,-183 280,-153 161,-153"/>
<text text-anchor="start" x="169" y="-171" font-family="Helvetica,sans-Serif" font-size="10.00" fill="#000000">TooSigning_read_hmac</text>
<text text-anchor="middle" x="220.5" y="-160" font-family="Helvetica,sans-Serif" font-size="10.00" fill="#000000">_from_progmem</text>
</a>
</g>
</g>
<!-- Node251&#45;&gt;Node256 -->
<g id="edge5" class="edge">
<title>Node251&#45;&gt;Node256</title>
<path fill="none" stroke="#191970" d="M109.3147,-184.075C122.6134,-182.1523 137.0076,-180.0712 150.8887,-178.0643"/>
<polygon fill="#191970" stroke="#191970" points="151.4863,-181.5144 160.8825,-176.6194 150.4846,-174.5864 151.4863,-181.5144"/>
</g>
<!-- Node257 -->
<g id="node7" class="node">
<title>Node257</title>
<g id="a_node7"><a xlink:href="TooSigning_8cpp.html#a1e2cd2b37702263e1fe166395350bf08" target="_top" xlink:title="TooSigning_init_hmac">
<polygon fill="#ffffff" stroke="#000000" points="164,-114.5 164,-133.5 277,-133.5 277,-114.5 164,-114.5"/>
<text text-anchor="middle" x="220.5" y="-121.5" font-family="Helvetica,sans-Serif" font-size="10.00" fill="#000000">TooSigning_init_hmac</text>
</a>
</g>
</g>
<!-- Node251&#45;&gt;Node257 -->
<g id="edge6" class="edge">
<title>Node251&#45;&gt;Node257</title>
<path fill="none" stroke="#191970" d="M79.1247,-176.9584C96.9234,-166.5847 121.8159,-153.0806 145,-144 152.2796,-141.1488 160.1098,-138.5674 167.8734,-136.2789"/>
<polygon fill="#191970" stroke="#191970" points="168.945,-139.6134 177.6252,-133.5386 167.0512,-132.8745 168.945,-139.6134"/>
</g>
<!-- Node266 -->
<g id="node16" class="node">
<title>Node266</title>
<g id="a_node16"><a xlink:href="group__TOOSIGNING__HASHING.html#gafb2935303b05255e80a7a6fa4be7cf57" target="_top" xlink:title="TooSigning_hash_data">
<polygon fill="#ffffff" stroke="#000000" points="341.5,-38.5 341.5,-57.5 457.5,-57.5 457.5,-38.5 341.5,-38.5"/>
<text text-anchor="middle" x="399.5" y="-45.5" font-family="Helvetica,sans-Serif" font-size="10.00" fill="#000000">TooSigning_hash_data</text>
</a>
</g>
</g>
<!-- Node251&#45;&gt;Node266 -->
<g id="edge16" class="edge">
<title>Node251&#45;&gt;Node266</title>
<path fill="none" stroke="#191970" d="M60.3995,-176.7423C71.9349,-149.2527 100.3226,-91.9515 145,-67 201.8737,-35.2372 277.3641,-33.6911 331.3285,-38.1306"/>
<polygon fill="#191970" stroke="#191970" points="331.2067,-41.6339 341.4834,-39.057 331.8428,-34.6628 331.2067,-41.6339"/>
</g>
<!-- Node267 -->
<g id="node17" class="node">
<title>Node267</title>
<g id="a_node17"><a xlink:href="group__TOOSIGNING__HASHING.html#gae743dd1289d92f915352e40b047b4cc8" target="_top" xlink:title="TooSigning_hash_store">
<polygon fill="#ffffff" stroke="#000000" points="161,-.5 161,-19.5 280,-19.5 280,-.5 161,-.5"/>
<text text-anchor="middle" x="220.5" y="-7.5" font-family="Helvetica,sans-Serif" font-size="10.00" fill="#000000">TooSigning_hash_store</text>
</a>
</g>
</g>
<!-- Node251&#45;&gt;Node267 -->
<g id="edge18" class="edge">
<title>Node251&#45;&gt;Node267</title>
<path fill="none" stroke="#191970" d="M58.9841,-176.925C69.0734,-145.5958 96.5455,-73.1195 145,-34 150.2488,-29.7624 156.2577,-26.2676 162.5428,-23.3866"/>
<polygon fill="#191970" stroke="#191970" points="163.9443,-26.5951 171.8924,-19.5895 161.3104,-20.1095 163.9443,-26.5951"/>
</g>
<!-- Node268 -->
<g id="node18" class="node">
<title>Node268</title>
<g id="a_node18"><a xlink:href="TooSigning_8cpp.html#ab8a2415b95a77c91ffbc6ebbde622f64" target="_top" xlink:title="TooSigning_get_hmac">
<polygon fill="#ffffff" stroke="#000000" points="164,-76.5 164,-95.5 277,-95.5 277,-76.5 164,-76.5"/>
<text text-anchor="middle" x="220.5" y="-83.5" font-family="Helvetica,sans-Serif" font-size="10.00" fill="#000000">TooSigning_get_hmac</text>
</a>
</g>
</g>
<!-- Node251&#45;&gt;Node268 -->
<g id="edge19" class="edge">
<title>Node251&#45;&gt;Node268</title>
<path fill="none" stroke="#191970" d="M65.9283,-176.9353C81.5994,-157.3556 111.6411,-123.4895 145,-105 149.1414,-102.7046 153.5631,-100.6816 158.1108,-98.8995"/>
<polygon fill="#191970" stroke="#191970" points="159.3023,-102.1907 167.5734,-95.5696 156.9786,-95.5876 159.3023,-102.1907"/>
</g>
<!-- Node270 -->
<g id="node20" class="node">
<title>Node270</title>
<g id="a_node20"><a xlink:href="TooNetworking_8cpp.html#a46674b3fdc9ee370b0839869aa145b75" target="_top" xlink:title="TooNetworking_send">
<polygon fill="#ffffff" stroke="#000000" points="345,-298.5 345,-317.5 454,-317.5 454,-298.5 345,-298.5"/>
<text text-anchor="middle" x="399.5" y="-305.5" font-family="Helvetica,sans-Serif" font-size="10.00" fill="#000000">TooNetworking_send</text>
</a>
</g>
</g>
<!-- Node251&#45;&gt;Node270 -->
<g id="edge24" class="edge">
<title>Node251&#45;&gt;Node270</title>
<path fill="none" stroke="#191970" d="M63.0123,-207.0519C76.8539,-229.8733 106.5992,-272.5232 145,-291 204.6053,-319.6796 281.2993,-320.6785 334.8468,-316.5353"/>
<polygon fill="#191970" stroke="#191970" points="335.2352,-320.015 344.9009,-315.6762 334.6392,-313.0404 335.2352,-320.015"/>
</g>
<!-- Node271 -->
<g id="node21" class="node">
<title>Node271</title>
<g id="a_node21"><a xlink:href="TooNetworking_8cpp.html#aefc5dad88b637efb11a3a7b2f76a19b9" target="_top" xlink:title="TooNetworking_connection_fix">
<polygon fill="#ffffff" stroke="#000000" points="145,-338.5 145,-357.5 296,-357.5 296,-338.5 145,-338.5"/>
<text text-anchor="middle" x="220.5" y="-345.5" font-family="Helvetica,sans-Serif" font-size="10.00" fill="#000000">TooNetworking_connection_fix</text>
</a>
</g>
</g>
<!-- Node251&#45;&gt;Node271 -->
<g id="edge26" class="edge">
<title>Node251&#45;&gt;Node271</title>
<path fill="none" stroke="#191970" d="M60.8002,-207.0884C72.9869,-234.4534 102.3941,-292.3583 145,-324 150.8453,-328.3411 157.5016,-331.9131 164.3835,-334.8484"/>
<polygon fill="#191970" stroke="#191970" points="163.2623,-338.1668 173.8529,-338.469 165.7623,-331.6284 163.2623,-338.1668"/>
</g>
<!-- Node253 -->
<g id="node3" class="node">
<title>Node253</title>
<g id="a_node3"><a xlink:href="TooNetworking_8cpp.html#abdda8f09b9d475ed2c23a2376e2e0151" target="_top" xlink:title="mesh">
<polygon fill="#ffffff" stroke="#000000" points="535,-336.5 535,-355.5 576,-355.5 576,-336.5 535,-336.5"/>
<text text-anchor="middle" x="555.5" y="-343.5" font-family="Helvetica,sans-Serif" font-size="10.00" fill="#000000">mesh</text>
</a>
</g>
</g>
<!-- Node252&#45;&gt;Node253 -->
<g id="edge2" class="edge">
<title>Node252&#45;&gt;Node253</title>
<path fill="none" stroke="#191970" d="M452.75,-374.9808C476.9127,-368.1656 504.6105,-360.3534 525.1558,-354.5586"/>
<polygon fill="#191970" stroke="#191970" points="526.2308,-357.8921 534.9051,-351.8088 524.3305,-351.1549 526.2308,-357.8921"/>
</g>
<!-- Node258 -->
<g id="node8" class="node">
<title>Node258</title>
<g id="a_node8"><a xlink:href="classSha256Class.html#a73d3dcea6eb667fd146d12aa5d106939" target="_top" xlink:title="Sha256Class::initHmac">
<polygon fill="#ffffff" stroke="#000000" points="339.5,-114.5 339.5,-133.5 459.5,-133.5 459.5,-114.5 339.5,-114.5"/>
<text text-anchor="middle" x="399.5" y="-121.5" font-family="Helvetica,sans-Serif" font-size="10.00" fill="#000000">Sha256Class::initHmac</text>
</a>
</g>
</g>
<!-- Node257&#45;&gt;Node258 -->
<g id="edge7" class="edge">
<title>Node257&#45;&gt;Node258</title>
<path fill="none" stroke="#191970" d="M277.1367,-124C293.6615,-124 311.922,-124 329.1835,-124"/>
<polygon fill="#191970" stroke="#191970" points="329.2107,-127.5001 339.2107,-124 329.2106,-120.5001 329.2107,-127.5001"/>
</g>
<!-- Node259 -->
<g id="node9" class="node">
<title>Node259</title>
<g id="a_node9"><a xlink:href="classSha256Class.html#ac1025d69c51fcd1b882ee41114e58339" target="_top" xlink:title="Sha256Class::init">
<polygon fill="#ffffff" stroke="#000000" points="508.5,-114.5 508.5,-133.5 602.5,-133.5 602.5,-114.5 508.5,-114.5"/>
<text text-anchor="middle" x="555.5" y="-121.5" font-family="Helvetica,sans-Serif" font-size="10.00" fill="#000000">Sha256Class::init</text>
</a>
</g>
</g>
<!-- Node258&#45;&gt;Node259 -->
<g id="edge8" class="edge">
<title>Node258&#45;&gt;Node259</title>
<path fill="none" stroke="#191970" d="M459.8137,-124C472.4066,-124 485.6488,-124 498.1314,-124"/>
<polygon fill="#191970" stroke="#191970" points="498.4073,-127.5001 508.4072,-124 498.4072,-120.5001 498.4073,-127.5001"/>
</g>
<!-- Node260 -->
<g id="node10" class="node">
<title>Node260</title>
<g id="a_node10"><a xlink:href="classSha256Class.html#a0f0fc4bd4d8c53d232df0d41d7ea25e0" target="_top" xlink:title="Sha256Class::write">
<polygon fill="#ffffff" stroke="#000000" points="504.5,-38.5 504.5,-57.5 606.5,-57.5 606.5,-38.5 504.5,-38.5"/>
<text text-anchor="middle" x="555.5" y="-45.5" font-family="Helvetica,sans-Serif" font-size="10.00" fill="#000000">Sha256Class::write</text>
</a>
</g>
</g>
<!-- Node258&#45;&gt;Node260 -->
<g id="edge9" class="edge">
<title>Node258&#45;&gt;Node260</title>
<path fill="none" stroke="#191970" d="M446.2644,-114.4058C453.4837,-111.9284 460.6435,-108.8397 467,-105 486.9133,-92.9711 483.538,-79.7462 503,-67 505.9686,-65.0558 509.1618,-63.2791 512.4546,-61.6617"/>
<polygon fill="#191970" stroke="#191970" points="514.1443,-64.7425 521.8947,-57.5189 511.3312,-58.3326 514.1443,-64.7425"/>
</g>
<!-- Node264 -->
<g id="node14" class="node">
<title>Node264</title>
<g id="a_node14"><a xlink:href="classSha256Class.html#a0ca245a22f8b056a3d1902da3c64b705" target="_top" xlink:title="Sha256Class::result">
<polygon fill="#ffffff" stroke="#000000" points="503,-76.5 503,-95.5 608,-95.5 608,-76.5 503,-76.5"/>
<text text-anchor="middle" x="555.5" y="-83.5" font-family="Helvetica,sans-Serif" font-size="10.00" fill="#000000">Sha256Class::result</text>
</a>
</g>
</g>
<!-- Node258&#45;&gt;Node264 -->
<g id="edge13" class="edge">
<title>Node258&#45;&gt;Node264</title>
<path fill="none" stroke="#191970" d="M438.8654,-114.411C459.4513,-109.3965 484.8405,-103.2119 506.669,-97.8947"/>
<polygon fill="#191970" stroke="#191970" points="507.5302,-101.2874 516.4177,-95.5201 505.8734,-94.4863 507.5302,-101.2874"/>
</g>
<!-- Node261 -->
<g id="node11" class="node">
<title>Node261</title>
<g id="a_node11"><a xlink:href="classSha256Class.html#ab0b46743e3d59b1c68f52ed89dfaff50" target="_top" xlink:title="Sha256Class::addUncounted">
<polygon fill="#ffffff" stroke="#000000" points="777,-57.5 777,-76.5 921,-76.5 921,-57.5 777,-57.5"/>
<text text-anchor="middle" x="849" y="-64.5" font-family="Helvetica,sans-Serif" font-size="10.00" fill="#000000">Sha256Class::addUncounted</text>
</a>
</g>
</g>
<!-- Node260&#45;&gt;Node261 -->
<g id="edge10" class="edge">
<title>Node260&#45;&gt;Node261</title>
<path fill="none" stroke="#191970" d="M606.6238,-51.3095C650.737,-54.1653 715.2694,-58.3428 766.6571,-61.6695"/>
<polygon fill="#191970" stroke="#191970" points="766.5442,-65.1694 776.7495,-62.3228 766.9965,-58.184 766.5442,-65.1694"/>
</g>
<!-- Node262 -->
<g id="node12" class="node">
<title>Node262</title>
<g id="a_node12"><a xlink:href="classSha256Class.html#a399d2a23951e2130f54af8ac7712068f" target="_top" xlink:title="Sha256Class::hashBlock">
<polygon fill="#ffffff" stroke="#000000" points="957,-57.5 957,-76.5 1084,-76.5 1084,-57.5 957,-57.5"/>
<text text-anchor="middle" x="1020.5" y="-64.5" font-family="Helvetica,sans-Serif" font-size="10.00" fill="#000000">Sha256Class::hashBlock</text>
</a>
</g>
</g>
<!-- Node261&#45;&gt;Node262 -->
<g id="edge11" class="edge">
<title>Node261&#45;&gt;Node262</title>
<path fill="none" stroke="#191970" d="M921.2344,-67C929.6298,-67 938.2026,-67 946.6198,-67"/>
<polygon fill="#191970" stroke="#191970" points="946.7873,-70.5001 956.7873,-67 946.7873,-63.5001 946.7873,-70.5001"/>
</g>
<!-- Node263 -->
<g id="node13" class="node">
<title>Node263</title>
<g id="a_node13"><a xlink:href="classSha256Class.html#ae275718ce9813bb33b2d8d8fbf018bd6" target="_top" xlink:title="Sha256Class::ror32">
<polygon fill="#ffffff" stroke="#000000" points="1120,-57.5 1120,-76.5 1223,-76.5 1223,-57.5 1120,-57.5"/>
<text text-anchor="middle" x="1171.5" y="-64.5" font-family="Helvetica,sans-Serif" font-size="10.00" fill="#000000">Sha256Class::ror32</text>
</a>
</g>
</g>
<!-- Node262&#45;&gt;Node263 -->
<g id="edge12" class="edge">
<title>Node262&#45;&gt;Node263</title>
<path fill="none" stroke="#191970" d="M1084.1,-67C1092.5806,-67 1101.2667,-67 1109.7157,-67"/>
<polygon fill="#191970" stroke="#191970" points="1109.8743,-70.5001 1119.8743,-67 1109.8742,-63.5001 1109.8743,-70.5001"/>
</g>
<!-- Node265 -->
<g id="node15" class="node">
<title>Node265</title>
<g id="a_node15"><a xlink:href="classSha256Class.html#a82049dae520ccf0bd8478f2aef639149" target="_top" xlink:title="Sha256Class::pad">
<polygon fill="#ffffff" stroke="#000000" points="644,-76.5 644,-95.5 741,-95.5 741,-76.5 644,-76.5"/>
<text text-anchor="middle" x="692.5" y="-83.5" font-family="Helvetica,sans-Serif" font-size="10.00" fill="#000000">Sha256Class::pad</text>
</a>
</g>
</g>
<!-- Node264&#45;&gt;Node265 -->
<g id="edge14" class="edge">
<title>Node264&#45;&gt;Node265</title>
<path fill="none" stroke="#191970" d="M608.076,-86C616.4448,-86 625.1493,-86 633.6514,-86"/>
<polygon fill="#191970" stroke="#191970" points="633.8856,-89.5001 643.8856,-86 633.8855,-82.5001 633.8856,-89.5001"/>
</g>
<!-- Node265&#45;&gt;Node261 -->
<g id="edge15" class="edge">
<title>Node265&#45;&gt;Node261</title>
<path fill="none" stroke="#191970" d="M741.1597,-80.0924C749.3741,-79.0952 758.0986,-78.036 766.8883,-76.9688"/>
<polygon fill="#191970" stroke="#191970" points="767.3108,-80.4433 776.8161,-75.7635 766.4671,-73.4944 767.3108,-80.4433"/>
</g>
<!-- Node266&#45;&gt;Node260 -->
<g id="edge17" class="edge">
<title>Node266&#45;&gt;Node260</title>
<path fill="none" stroke="#191970" d="M457.5886,-48C469.4477,-48 481.9649,-48 493.9405,-48"/>
<polygon fill="#191970" stroke="#191970" points="494.2949,-51.5001 504.2949,-48 494.2948,-44.5001 494.2949,-51.5001"/>
</g>
<!-- Node269 -->
<g id="node19" class="node">
<title>Node269</title>
<g id="a_node19"><a xlink:href="classSha256Class.html#a7556f29cadf7eaca21a537df41318af3" target="_top" xlink:title="Sha256Class::resultHmac">
<polygon fill="#ffffff" stroke="#000000" points="334,-76.5 334,-95.5 465,-95.5 465,-76.5 334,-76.5"/>
<text text-anchor="middle" x="399.5" y="-83.5" font-family="Helvetica,sans-Serif" font-size="10.00" fill="#000000">Sha256Class::resultHmac</text>
</a>
</g>
</g>
<!-- Node268&#45;&gt;Node269 -->
<g id="edge20" class="edge">
<title>Node268&#45;&gt;Node269</title>
<path fill="none" stroke="#191970" d="M277.1367,-86C291.9243,-86 308.1018,-86 323.7095,-86"/>
<polygon fill="#191970" stroke="#191970" points="323.8635,-89.5001 333.8634,-86 323.8634,-82.5001 323.8635,-89.5001"/>
</g>
<!-- Node269&#45;&gt;Node259 -->
<g id="edge22" class="edge">
<title>Node269&#45;&gt;Node259</title>
<path fill="none" stroke="#191970" d="M438.8654,-95.589C459.4513,-100.6035 484.8405,-106.7881 506.669,-112.1053"/>
<polygon fill="#191970" stroke="#191970" points="505.8734,-115.5137 516.4177,-114.4799 507.5302,-108.7126 505.8734,-115.5137"/>
</g>
<!-- Node269&#45;&gt;Node260 -->
<g id="edge23" class="edge">
<title>Node269&#45;&gt;Node260</title>
<path fill="none" stroke="#191970" d="M438.8654,-76.411C459.4513,-71.3965 484.8405,-65.2119 506.669,-59.8947"/>
<polygon fill="#191970" stroke="#191970" points="507.5302,-63.2874 516.4177,-57.5201 505.8734,-56.4863 507.5302,-63.2874"/>
</g>
<!-- Node269&#45;&gt;Node264 -->
<g id="edge21" class="edge">
<title>Node269&#45;&gt;Node264</title>
<path fill="none" stroke="#191970" d="M465.2059,-86C474.2809,-86 483.5837,-86 492.6061,-86"/>
<polygon fill="#191970" stroke="#191970" points="492.6465,-89.5001 502.6464,-86 492.6464,-82.5001 492.6465,-89.5001"/>
</g>
<!-- Node270&#45;&gt;Node253 -->
<g id="edge25" class="edge">
<title>Node270&#45;&gt;Node253</title>
<path fill="none" stroke="#191970" d="M438.8654,-317.589C465.5601,-324.0916 500.3319,-332.5616 524.9425,-338.5565"/>
<polygon fill="#191970" stroke="#191970" points="524.2703,-341.995 534.8146,-340.9613 525.9271,-335.1939 524.2703,-341.995"/>
</g>
<!-- Node271&#45;&gt;Node252 -->
<g id="edge27" class="edge">
<title>Node271&#45;&gt;Node252</title>
<path fill="none" stroke="#191970" d="M261.1179,-357.5305C280.1707,-362.0009 303.4869,-367.4718 325.5105,-372.6393"/>
<polygon fill="#191970" stroke="#191970" points="324.9835,-376.1107 335.5186,-374.9876 326.5826,-369.2957 324.9835,-376.1107"/>
</g>
<!-- Node271&#45;&gt;Node253 -->
<g id="edge28" class="edge">
<title>Node271&#45;&gt;Node253</title>
<path fill="none" stroke="#191970" d="M296.0982,-347.5487C368.1635,-347.1184 473.101,-346.4919 524.6214,-346.1844"/>
<polygon fill="#191970" stroke="#191970" points="524.7945,-349.6835 534.7734,-346.1237 524.7527,-342.6836 524.7945,-349.6835"/>
</g>
</g>
</svg>
        <g id="navigator" transform="translate(0 0)" fill="#404254">
                <rect fill="#f2f5e9" fill-opacity="0.5" stroke="#606060" stroke-width=".5" x="0" y="0" width="60" height="60"/>
                <use id="zoomplus" xlink:href="#zoomPlus" x="17" y="9" onmousedown="handleZoom(evt,'in')"/>
                <use id="zoomminus" xlink:href="#zoomMin" x="42" y="9" onmousedown="handleZoom(evt,'out')"/>
                <use id="reset" xlink:href="#resetDef" x="30" y="36" onmousedown="handleReset()"/>
                <g id="arrowUp" xlink:href="#dirArrow" transform="translate(30 24)" onmousedown="handlePan(0,-1)">
                  <use xlink:href="#rim" fill="#404040">
                        <set attributeName="fill" to="#808080" begin="arrowUp.mouseover" end="arrowUp.mouseout"/>
                  </use>
                  <path fill="none" stroke="white" stroke-width="1.5" d="M0,-3.0v7 M-2.5,-0.5L0,-3.0L2.5,-0.5"/>
                </g>
                <g id="arrowRight" xlink:href="#dirArrow" transform="rotate(90) translate(36 -43)" onmousedown="handlePan(1,0)">
                  <use xlink:href="#rim" fill="#404040">
                        <set attributeName="fill" to="#808080" begin="arrowRight.mouseover" end="arrowRight.mouseout"/>
                  </use>
                  <path fill="none" stroke="white" stroke-width="1.5" d="M0,-3.0v7 M-2.5,-0.5L0,-3.0L2.5,-0.5"/>
                </g>
                <g id="arrowDown" xlink:href="#dirArrow" transform="rotate(180) translate(-30 -48)" onmousedown="handlePan(0,1)">
                  <use xlink:href="#rim" fill="#404040">
                        <set attributeName="fill" to="#808080" begin="arrowDown.mouseover" end="arrowDown.mouseout"/>
                  </use>
                  <path fill="none" stroke="white" stroke-width="1.5" d="M0,-3.0v7 M-2.5,-0.5L0,-3.0L2.5,-0.5"/>
                </g>
                <g id="arrowLeft" xlink:href="#dirArrow" transform="rotate(270) translate(-36 17)" onmousedown="handlePan(-1,0)">
                  <use xlink:href="#rim" fill="#404040">
                        <set attributeName="fill" to="#808080" begin="arrowLeft.mouseover" end="arrowLeft.mouseout"/>
                  </use>
                  <path fill="none" stroke="white" stroke-width="1.5" d="M0,-3.0v7 M-2.5,-0.5L0,-3.0L2.5,-0.5"/>
                </g>
        </g>
        <svg viewBox="0 0 15 15" width="100%" height="30px" preserveAspectRatio="xMaxYMin meet">
         <g id="arrow_out" transform="scale(0.3 0.3)">
          <a xlink:href="TooNetworking_8cpp_ab5dfe46515ee5ca8f9893675df673d96_cgraph_org.svg" target="_base">
           <rect id="button" ry="5" rx="5" y="6" x="6" height="38" width="38"
                fill="#f2f5e9" fill-opacity="0.5" stroke="#606060" stroke-width="1.0"/>
           <path id="arrow"
             d="M 11.500037,31.436501 C 11.940474,20.09759 22.043105,11.32322 32.158766,21.979434 L 37.068811,17.246167 C 37.068811,17.246167 37.088388,32 37.088388,32 L 22.160133,31.978069 C 22.160133,31.978069 26.997745,27.140456 26.997745,27.140456 C 18.528582,18.264221 13.291696,25.230495 11.500037,31.436501 z"
             style="fill:#404040;"/>
          </a>
         </g>
        </svg>
</svg>
