<?xml version="1.0" encoding="UTF-8" standalone="no"?>
<!DOCTYPE svg PUBLIC "-//W3C//DTD SVG 1.1//EN"
 "http://www.w3.org/Graphics/SVG/1.1/DTD/svg11.dtd">
<!-- Generated by graphviz version 2.40.1 (20161225.0304)
 -->
<!-- Title: TooNetworking_bufferlist_send_ Pages: 1 -->
<svg width="391pt" height="176pt"
 viewBox="0.00 0.00 391.00 176.00" xmlns="http://www.w3.org/2000/svg" xmlns:xlink="http://www.w3.org/1999/xlink">
<g id="graph0" class="graph" transform="scale(1 1) rotate(0) translate(4 172)">
<title>TooNetworking_bufferlist_send_</title>
<polygon fill="#ffffff" stroke="transparent" points="-4,4 -4,-172 387,-172 387,4 -4,4"/>
<!-- Node69 -->
<g id="node1" class="node">
<title>Node69</title>
<polygon fill="#bfbfbf" stroke="#000000" points="0,-66.5 0,-96.5 125,-96.5 125,-66.5 0,-66.5"/>
<text text-anchor="start" x="8" y="-84.5" font-family="Helvetica,sans-Serif" font-size="10.00" fill="#000000">TooNetworking_bufferlist</text>
<text text-anchor="middle" x="62.5" y="-73.5" font-family="Helvetica,sans-Serif" font-size="10.00" fill="#000000">_send_</text>
</g>
<!-- Node70 -->
<g id="node2" class="node">
<title>Node70</title>
<g id="a_node2"><a xlink:href="TooNetworking_8cpp.html#ac352268e177fa2ddf91c8afa5cd04bbf" target="_top" xlink:title="TooNetworking_connection\l_available">
<polygon fill="#ffffff" stroke="#000000" points="161,-137.5 161,-167.5 296,-167.5 296,-137.5 161,-137.5"/>
<text text-anchor="start" x="169" y="-155.5" font-family="Helvetica,sans-Serif" font-size="10.00" fill="#000000">TooNetworking_connection</text>
<text text-anchor="middle" x="228.5" y="-144.5" font-family="Helvetica,sans-Serif" font-size="10.00" fill="#000000">_available</text>
</a>
</g>
</g>
<!-- Node69&#45;&gt;Node70 -->
<g id="edge1" class="edge">
<title>Node69&#45;&gt;Node70</title>
<path fill="none" stroke="#191970" d="M91.88,-96.5023C111.2747,-106.1603 137.3747,-118.6944 161,-128.5 165.3652,-130.3118 169.9217,-132.1145 174.5166,-133.8709"/>
<polygon fill="#191970" stroke="#191970" points="173.3607,-137.1753 183.9532,-137.3992 175.8123,-130.6186 173.3607,-137.1753"/>
</g>
<!-- Node72 -->
<g id="node4" class="node">
<title>Node72</title>
<g id="a_node4"><a xlink:href="TooNetworking_8cpp.html#af4808c2c0857cde9a6721ad54f5ab42d" target="_top" xlink:title="TooNetworking_other\l_node_is_online">
<polygon fill="#ffffff" stroke="#000000" points="173.5,-88.5 173.5,-118.5 283.5,-118.5 283.5,-88.5 173.5,-88.5"/>
<text text-anchor="start" x="181.5" y="-106.5" font-family="Helvetica,sans-Serif" font-size="10.00" fill="#000000">TooNetworking_other</text>
<text text-anchor="middle" x="228.5" y="-95.5" font-family="Helvetica,sans-Serif" font-size="10.00" fill="#000000">_node_is_online</text>
</a>
</g>
</g>
<!-- Node69&#45;&gt;Node72 -->
<g id="edge3" class="edge">
<title>Node69&#45;&gt;Node72</title>
<path fill="none" stroke="#191970" d="M125.2575,-89.8173C137.5949,-91.4523 150.5677,-93.1716 162.9927,-94.8183"/>
<polygon fill="#191970" stroke="#191970" points="162.9017,-98.3368 173.2749,-96.181 163.8214,-91.3974 162.9017,-98.3368"/>
</g>
<!-- Node73 -->
<g id="node5" class="node">
<title>Node73</title>
<g id="a_node5"><a xlink:href="TooNetworking_8cpp.html#a46674b3fdc9ee370b0839869aa145b75" target="_top" xlink:title="TooNetworking_send">
<polygon fill="#ffffff" stroke="#000000" points="174,-50 174,-69 283,-69 283,-50 174,-50"/>
<text text-anchor="middle" x="228.5" y="-57" font-family="Helvetica,sans-Serif" font-size="10.00" fill="#000000">TooNetworking_send</text>
</a>
</g>
</g>
<!-- Node69&#45;&gt;Node73 -->
<g id="edge4" class="edge">
<title>Node69&#45;&gt;Node73</title>
<path fill="none" stroke="#191970" d="M125.2575,-73.1827C137.8631,-71.5121 151.1322,-69.7536 163.8024,-68.0744"/>
<polygon fill="#191970" stroke="#191970" points="164.3578,-71.5315 173.8112,-66.7479 163.438,-64.5921 164.3578,-71.5315"/>
</g>
<!-- Node75 -->
<g id="node7" class="node">
<title>Node75</title>
<g id="a_node7"><a xlink:href="TooNetworking_8cpp.html#a3c91b7ab2f6500c287ecc7ab4a018ef6" target="_top" xlink:title="TooNetworking_bufferlist\l_remove">
<polygon fill="#ffffff" stroke="#000000" points="166,-.5 166,-30.5 291,-30.5 291,-.5 166,-.5"/>
<text text-anchor="start" x="174" y="-18.5" font-family="Helvetica,sans-Serif" font-size="10.00" fill="#000000">TooNetworking_bufferlist</text>
<text text-anchor="middle" x="228.5" y="-7.5" font-family="Helvetica,sans-Serif" font-size="10.00" fill="#000000">_remove</text>
</a>
</g>
</g>
<!-- Node69&#45;&gt;Node75 -->
<g id="edge6" class="edge">
<title>Node69&#45;&gt;Node75</title>
<path fill="none" stroke="#191970" d="M97.9235,-66.3556C116.6124,-58.4671 139.9688,-48.768 161,-40.5 166.3644,-38.3911 171.9871,-36.2305 177.6007,-34.1054"/>
<polygon fill="#191970" stroke="#191970" points="178.8617,-37.3706 186.9924,-30.5778 176.4003,-30.8176 178.8617,-37.3706"/>
</g>
<!-- Node71 -->
<g id="node3" class="node">
<title>Node71</title>
<g id="a_node3"><a xlink:href="TooNetworking_8cpp.html#aa7924d94ea32c8d33a81ff41f8678320" target="_top" xlink:title="network">
<polygon fill="#ffffff" stroke="#000000" points="332,-143 332,-162 383,-162 383,-143 332,-143"/>
<text text-anchor="middle" x="357.5" y="-150" font-family="Helvetica,sans-Serif" font-size="10.00" fill="#000000">network</text>
</a>
</g>
</g>
<!-- Node70&#45;&gt;Node71 -->
<g id="edge2" class="edge">
<title>Node70&#45;&gt;Node71</title>
<path fill="none" stroke="#191970" d="M296.0225,-152.5C304.9236,-152.5 313.7478,-152.5 321.8151,-152.5"/>
<polygon fill="#191970" stroke="#191970" points="321.9271,-156.0001 331.927,-152.5 321.927,-149.0001 321.9271,-156.0001"/>
</g>
<!-- Node74 -->
<g id="node6" class="node">
<title>Node74</title>
<g id="a_node6"><a xlink:href="TooNetworking_8cpp.html#abdda8f09b9d475ed2c23a2376e2e0151" target="_top" xlink:title="mesh">
<polygon fill="#ffffff" stroke="#000000" points="337,-50 337,-69 378,-69 378,-50 337,-50"/>
<text text-anchor="middle" x="357.5" y="-57" font-family="Helvetica,sans-Serif" font-size="10.00" fill="#000000">mesh</text>
</a>
</g>
</g>
<!-- Node73&#45;&gt;Node74 -->
<g id="edge5" class="edge">
<title>Node73&#45;&gt;Node74</title>
<path fill="none" stroke="#191970" d="M283.2076,-59.5C298.0145,-59.5 313.5264,-59.5 326.5232,-59.5"/>
<polygon fill="#191970" stroke="#191970" points="326.7784,-63.0001 336.7784,-59.5 326.7784,-56.0001 326.7784,-63.0001"/>
</g>
</g>
</svg>
