<?xml version="1.0" encoding="UTF-8" standalone="no"?>
<!DOCTYPE svg PUBLIC "-//W3C//DTD SVG 1.1//EN"
 "http://www.w3.org/Graphics/SVG/1.1/DTD/svg11.dtd">
<!-- Generated by graphviz version 2.40.1 (20161225.0304)
 -->
<!-- Title: TooNetworking_send_signed Pages: 1 -->
<!--zoomable 378 -->
<svg id="main" version="1.1" xmlns="http://www.w3.org/2000/svg" xmlns:xlink="http://www.w3.org/1999/xlink" xml:space="preserve" onload="init(evt)">
<style type="text/css"><![CDATA[
.edge:hover path { stroke: red; }
.edge:hover polygon { stroke: red; fill: red; }
]]></style>
<script type="text/javascript"><![CDATA[
var edges = document.getElementsByTagName('g');
if (edges && edges.length) {
  for (var i=0;i<edges.length;i++) {
    if (edges[i].id.substr(0,4)=='edge') {
      edges[i].setAttribute('class','edge');
    }
  }
}
]]></script>
        <defs>
                <circle id="rim" cx="0" cy="0" r="7"/>
                <circle id="rim2" cx="0" cy="0" r="3.5"/>
                <g id="zoomPlus">
                        <use xlink:href="#rim" fill="#404040">
                                <set attributeName="fill" to="#808080" begin="zoomplus.mouseover" end="zoomplus.mouseout"/>
                        </use>
                        <path d="M-4,0h8M0,-4v8" fill="none" stroke="white" stroke-width="1.5" pointer-events="none"/>
                </g>
                <g id="zoomMin">
                        <use xlink:href="#rim" fill="#404040">
                                <set attributeName="fill" to="#808080" begin="zoomminus.mouseover" end="zoomminus.mouseout"/>
                        </use>
                        <path d="M-4,0h8" fill="none" stroke="white" stroke-width="1.5" pointer-events="none"/>
                </g>
                <g id="dirArrow">
                        <path fill="none" stroke="white" stroke-width="1.5" d="M0,-3.0v7 M-2.5,-0.5L0,-3.0L2.5,-0.5"/>
                </g>
               <g id="resetDef">
                       <use xlink:href="#rim2" fill="#404040">
                               <set attributeName="fill" to="#808080" begin="reset.mouseover" end="reset.mouseout"/>
                       </use>
               </g>
        </defs>

<script type="text/javascript">
var viewWidth = 1211;
var viewHeight = 378;
var sectionId = 'dynsection-26';
</script>
<script xlink:href="svgpan.js"/>
<svg id="graph" class="graph">
<g id="viewport">
<title>TooNetworking_send_signed</title>
<polygon fill="#ffffff" stroke="transparent" points="-4,4 -4,-373.5 1207,-373.5 1207,4 -4,4"/>
<!-- Node208 -->
<g id="node1" class="node">
<title>Node208</title>
<polygon fill="#bfbfbf" stroke="#000000" points="0,-159 0,-189 109,-189 109,-159 0,-159"/>
<text text-anchor="start" x="8" y="-177" font-family="Helvetica,sans-Serif" font-size="10.00" fill="#000000">TooNetworking_send</text>
<text text-anchor="middle" x="54.5" y="-166" font-family="Helvetica,sans-Serif" font-size="10.00" fill="#000000">_signed</text>
</g>
<!-- Node209 -->
<g id="node2" class="node">
<title>Node209</title>
<g id="a_node2"><a xlink:href="TooNetworking_8cpp.html#ac352268e177fa2ddf91c8afa5cd04bbf" target="_top" xlink:title="TooNetworking_connection\l_available">
<polygon fill="#ffffff" stroke="#000000" points="145,-339 145,-369 280,-369 280,-339 145,-339"/>
<text text-anchor="start" x="153" y="-357" font-family="Helvetica,sans-Serif" font-size="10.00" fill="#000000">TooNetworking_connection</text>
<text text-anchor="middle" x="212.5" y="-346" font-family="Helvetica,sans-Serif" font-size="10.00" fill="#000000">_available</text>
</a>
</g>
</g>
<!-- Node208&#45;&gt;Node209 -->
<g id="edge1" class="edge">
<title>Node208&#45;&gt;Node209</title>
<path fill="none" stroke="#191970" d="M59.3055,-189.2274C69.826,-220.1699 97.801,-290.7771 145,-330 146.5425,-331.2818 148.1584,-332.4973 149.8325,-333.6499"/>
<polygon fill="#191970" stroke="#191970" points="148.2372,-336.7739 158.6159,-338.9028 151.83,-330.7663 148.2372,-336.7739"/>
</g>
<!-- Node211 -->
<g id="node4" class="node">
<title>Node211</title>
<g id="a_node4"><a xlink:href="TooNetworking_8cpp.html#af4808c2c0857cde9a6721ad54f5ab42d" target="_top" xlink:title="TooNetworking_other\l_node_is_online">
<polygon fill="#ffffff" stroke="#000000" points="157.5,-290 157.5,-320 267.5,-320 267.5,-290 157.5,-290"/>
<text text-anchor="start" x="165.5" y="-308" font-family="Helvetica,sans-Serif" font-size="10.00" fill="#000000">TooNetworking_other</text>
<text text-anchor="middle" x="212.5" y="-297" font-family="Helvetica,sans-Serif" font-size="10.00" fill="#000000">_node_is_online</text>
</a>
</g>
</g>
<!-- Node208&#45;&gt;Node211 -->
<g id="edge3" class="edge">
<title>Node208&#45;&gt;Node211</title>
<path fill="none" stroke="#191970" d="M63.6855,-189.3382C78.2053,-212.3548 108.5839,-255.8084 145,-281 147.148,-282.4859 149.3978,-283.8896 151.7183,-285.2144"/>
<polygon fill="#191970" stroke="#191970" points="150.4564,-288.5003 160.9528,-289.9413 153.6459,-282.2692 150.4564,-288.5003"/>
</g>
<!-- Node212 -->
<g id="node5" class="node">
<title>Node212</title>
<g id="a_node5"><a xlink:href="TooSigning_8cpp.html#a3994a32f8b2275d51b6832644f703bc7" target="_top" xlink:title="TooSigning_read_hmac\l_from_progmem">
<polygon fill="#ffffff" stroke="#000000" points="153,-241 153,-271 272,-271 272,-241 153,-241"/>
<text text-anchor="start" x="161" y="-259" font-family="Helvetica,sans-Serif" font-size="10.00" fill="#000000">TooSigning_read_hmac</text>
<text text-anchor="middle" x="212.5" y="-248" font-family="Helvetica,sans-Serif" font-size="10.00" fill="#000000">_from_progmem</text>
</a>
</g>
</g>
<!-- Node208&#45;&gt;Node212 -->
<g id="edge4" class="edge">
<title>Node208&#45;&gt;Node212</title>
<path fill="none" stroke="#191970" d="M75.7109,-189.1329C93.6018,-201.4565 120.1891,-218.7573 145,-231 149.2585,-233.1013 153.7401,-235.1297 158.2846,-237.0604"/>
<polygon fill="#191970" stroke="#191970" points="157.0687,-240.3443 167.65,-240.8784 159.7113,-233.8623 157.0687,-240.3443"/>
</g>
<!-- Node213 -->
<g id="node6" class="node">
<title>Node213</title>
<g id="a_node6"><a xlink:href="TooSigning_8cpp.html#a1e2cd2b37702263e1fe166395350bf08" target="_top" xlink:title="TooSigning_init_hmac">
<polygon fill="#ffffff" stroke="#000000" points="156,-164.5 156,-183.5 269,-183.5 269,-164.5 156,-164.5"/>
<text text-anchor="middle" x="212.5" y="-171.5" font-family="Helvetica,sans-Serif" font-size="10.00" fill="#000000">TooSigning_init_hmac</text>
</a>
</g>
</g>
<!-- Node208&#45;&gt;Node213 -->
<g id="edge5" class="edge">
<title>Node208&#45;&gt;Node213</title>
<path fill="none" stroke="#191970" d="M109.3173,-174C121.0852,-174 133.6453,-174 145.8065,-174"/>
<polygon fill="#191970" stroke="#191970" points="145.9021,-177.5001 155.902,-174 145.902,-170.5001 145.9021,-177.5001"/>
</g>
<!-- Node222 -->
<g id="node15" class="node">
<title>Node222</title>
<g id="a_node15"><a xlink:href="group__TOOSIGNING__DEBUGGING.html#ga73839f8ecb81bdbb2e6c36adab498dac" target="_top" xlink:title="TooSigning_random_data\l_print">
<polygon fill="#ffffff" stroke="#000000" points="149,-77 149,-107 276,-107 276,-77 149,-77"/>
<text text-anchor="start" x="157" y="-95" font-family="Helvetica,sans-Serif" font-size="10.00" fill="#000000">TooSigning_random_data</text>
<text text-anchor="middle" x="212.5" y="-84" font-family="Helvetica,sans-Serif" font-size="10.00" fill="#000000">_print</text>
</a>
</g>
</g>
<!-- Node208&#45;&gt;Node222 -->
<g id="edge15" class="edge">
<title>Node208&#45;&gt;Node222</title>
<path fill="none" stroke="#191970" d="M79.0885,-158.9508C97.0784,-148.1683 122.2187,-133.5685 145,-122 152.2348,-118.3261 160.0168,-114.6356 167.6335,-111.1612"/>
<polygon fill="#191970" stroke="#191970" points="169.1067,-114.3364 176.7944,-107.046 166.2383,-107.9511 169.1067,-114.3364"/>
</g>
<!-- Node223 -->
<g id="node16" class="node">
<title>Node223</title>
<g id="a_node16"><a xlink:href="group__TOOSIGNING__HASHING.html#gafb2935303b05255e80a7a6fa4be7cf57" target="_top" xlink:title="TooSigning_hash_data">
<polygon fill="#ffffff" stroke="#000000" points="323.5,-126.5 323.5,-145.5 439.5,-145.5 439.5,-126.5 323.5,-126.5"/>
<text text-anchor="middle" x="381.5" y="-133.5" font-family="Helvetica,sans-Serif" font-size="10.00" fill="#000000">TooSigning_hash_data</text>
</a>
</g>
</g>
<!-- Node208&#45;&gt;Node223 -->
<g id="edge16" class="edge">
<title>Node208&#45;&gt;Node223</title>
<path fill="none" stroke="#191970" d="M109.3386,-161.3241C121.058,-158.942 133.4009,-156.6766 145,-155 201.4014,-146.8473 265.9133,-141.9574 313.2969,-139.1847"/>
<polygon fill="#191970" stroke="#191970" points="313.6554,-142.67 323.4406,-138.6081 313.2581,-135.6813 313.6554,-142.67"/>
</g>
<!-- Node224 -->
<g id="node17" class="node">
<title>Node224</title>
<g id="a_node17"><a xlink:href="group__TOOSIGNING__HASHING.html#gae743dd1289d92f915352e40b047b4cc8" target="_top" xlink:title="TooSigning_hash_store">
<polygon fill="#ffffff" stroke="#000000" points="153,-38.5 153,-57.5 272,-57.5 272,-38.5 153,-38.5"/>
<text text-anchor="middle" x="212.5" y="-45.5" font-family="Helvetica,sans-Serif" font-size="10.00" fill="#000000">TooSigning_hash_store</text>
</a>
</g>
</g>
<!-- Node208&#45;&gt;Node224 -->
<g id="edge18" class="edge">
<title>Node208&#45;&gt;Node224</title>
<path fill="none" stroke="#191970" d="M63.245,-158.7356C77.3979,-135.4132 107.5531,-91.0851 145,-67 148.3037,-64.8751 151.8469,-62.984 155.5168,-61.3016"/>
<polygon fill="#191970" stroke="#191970" points="156.876,-64.5274 164.8356,-57.5348 154.2526,-58.0375 156.876,-64.5274"/>
</g>
<!-- Node225 -->
<g id="node18" class="node">
<title>Node225</title>
<g id="a_node18"><a xlink:href="TooSigning_8cpp.html#ab8a2415b95a77c91ffbc6ebbde622f64" target="_top" xlink:title="TooSigning_get_hmac">
<polygon fill="#ffffff" stroke="#000000" points="156,-202.5 156,-221.5 269,-221.5 269,-202.5 156,-202.5"/>
<text text-anchor="middle" x="212.5" y="-209.5" font-family="Helvetica,sans-Serif" font-size="10.00" fill="#000000">TooSigning_get_hmac</text>
</a>
</g>
</g>
<!-- Node208&#45;&gt;Node225 -->
<g id="edge19" class="edge">
<title>Node208&#45;&gt;Node225</title>
<path fill="none" stroke="#191970" d="M109.3173,-187.1839C126.7518,-191.377 145.9254,-195.9884 162.9644,-200.0864"/>
<polygon fill="#191970" stroke="#191970" points="162.1796,-203.4974 172.7208,-202.4328 163.8165,-196.6914 162.1796,-203.4974"/>
</g>
<!-- Node227 -->
<g id="node20" class="node">
<title>Node227</title>
<g id="a_node20"><a xlink:href="TooNetworking_8cpp.html#a46674b3fdc9ee370b0839869aa145b75" target="_top" xlink:title="TooNetworking_send">
<polygon fill="#ffffff" stroke="#000000" points="158,-.5 158,-19.5 267,-19.5 267,-.5 158,-.5"/>
<text text-anchor="middle" x="212.5" y="-7.5" font-family="Helvetica,sans-Serif" font-size="10.00" fill="#000000">TooNetworking_send</text>
</a>
</g>
</g>
<!-- Node208&#45;&gt;Node227 -->
<g id="edge24" class="edge">
<title>Node208&#45;&gt;Node227</title>
<path fill="none" stroke="#191970" d="M59.7502,-158.6835C70.7216,-129.0036 98.9487,-63.5456 145,-29 147.5001,-27.1246 150.1775,-25.4342 152.9717,-23.9106"/>
<polygon fill="#191970" stroke="#191970" points="154.64,-26.9944 162.2182,-19.5901 151.6767,-20.6525 154.64,-26.9944"/>
</g>
<!-- Node210 -->
<g id="node3" class="node">
<title>Node210</title>
<g id="a_node3"><a xlink:href="TooNetworking_8cpp.html#aa7924d94ea32c8d33a81ff41f8678320" target="_top" xlink:title="network">
<polygon fill="#ffffff" stroke="#000000" points="356,-344.5 356,-363.5 407,-363.5 407,-344.5 356,-344.5"/>
<text text-anchor="middle" x="381.5" y="-351.5" font-family="Helvetica,sans-Serif" font-size="10.00" fill="#000000">network</text>
</a>
</g>
</g>
<!-- Node209&#45;&gt;Node210 -->
<g id="edge2" class="edge">
<title>Node209&#45;&gt;Node210</title>
<path fill="none" stroke="#191970" d="M280.265,-354C302.7347,-354 326.849,-354 345.9041,-354"/>
<polygon fill="#191970" stroke="#191970" points="345.9272,-357.5001 355.9272,-354 345.9272,-350.5001 345.9272,-357.5001"/>
</g>
<!-- Node214 -->
<g id="node7" class="node">
<title>Node214</title>
<g id="a_node7"><a xlink:href="classSha256Class.html#a73d3dcea6eb667fd146d12aa5d106939" target="_top" xlink:title="Sha256Class::initHmac">
<polygon fill="#ffffff" stroke="#000000" points="321.5,-164.5 321.5,-183.5 441.5,-183.5 441.5,-164.5 321.5,-164.5"/>
<text text-anchor="middle" x="381.5" y="-171.5" font-family="Helvetica,sans-Serif" font-size="10.00" fill="#000000">Sha256Class::initHmac</text>
</a>
</g>
</g>
<!-- Node213&#45;&gt;Node214 -->
<g id="edge6" class="edge">
<title>Node213&#45;&gt;Node214</title>
<path fill="none" stroke="#191970" d="M269.2447,-174C282.7481,-174 297.3153,-174 311.3397,-174"/>
<polygon fill="#191970" stroke="#191970" points="311.4327,-177.5001 321.4327,-174 311.4327,-170.5001 311.4327,-177.5001"/>
</g>
<!-- Node215 -->
<g id="node8" class="node">
<title>Node215</title>
<g id="a_node8"><a xlink:href="classSha256Class.html#ac1025d69c51fcd1b882ee41114e58339" target="_top" xlink:title="Sha256Class::init">
<polygon fill="#ffffff" stroke="#000000" points="488.5,-164.5 488.5,-183.5 582.5,-183.5 582.5,-164.5 488.5,-164.5"/>
<text text-anchor="middle" x="535.5" y="-171.5" font-family="Helvetica,sans-Serif" font-size="10.00" fill="#000000">Sha256Class::init</text>
</a>
</g>
</g>
<!-- Node214&#45;&gt;Node215 -->
<g id="edge7" class="edge">
<title>Node214&#45;&gt;Node215</title>
<path fill="none" stroke="#191970" d="M441.9229,-174C453.7846,-174 466.1972,-174 477.9613,-174"/>
<polygon fill="#191970" stroke="#191970" points="478.1024,-177.5001 488.1023,-174 478.1023,-170.5001 478.1024,-177.5001"/>
</g>
<!-- Node216 -->
<g id="node9" class="node">
<title>Node216</title>
<g id="a_node9"><a xlink:href="classSha256Class.html#a0f0fc4bd4d8c53d232df0d41d7ea25e0" target="_top" xlink:title="Sha256Class::write">
<polygon fill="#ffffff" stroke="#000000" points="484.5,-126.5 484.5,-145.5 586.5,-145.5 586.5,-126.5 484.5,-126.5"/>
<text text-anchor="middle" x="535.5" y="-133.5" font-family="Helvetica,sans-Serif" font-size="10.00" fill="#000000">Sha256Class::write</text>
</a>
</g>
</g>
<!-- Node214&#45;&gt;Node216 -->
<g id="edge8" class="edge">
<title>Node214&#45;&gt;Node216</title>
<path fill="none" stroke="#191970" d="M420.3607,-164.411C440.5911,-159.4191 465.5207,-153.2676 487.0036,-147.9666"/>
<polygon fill="#191970" stroke="#191970" points="488.0485,-151.3139 496.9187,-145.5201 486.3714,-144.5177 488.0485,-151.3139"/>
</g>
<!-- Node220 -->
<g id="node13" class="node">
<title>Node220</title>
<g id="a_node13"><a xlink:href="classSha256Class.html#a0ca245a22f8b056a3d1902da3c64b705" target="_top" xlink:title="Sha256Class::result">
<polygon fill="#ffffff" stroke="#000000" points="483,-202.5 483,-221.5 588,-221.5 588,-202.5 483,-202.5"/>
<text text-anchor="middle" x="535.5" y="-209.5" font-family="Helvetica,sans-Serif" font-size="10.00" fill="#000000">Sha256Class::result</text>
</a>
</g>
</g>
<!-- Node214&#45;&gt;Node220 -->
<g id="edge12" class="edge">
<title>Node214&#45;&gt;Node220</title>
<path fill="none" stroke="#191970" d="M420.3607,-183.589C440.5911,-188.5809 465.5207,-194.7324 487.0036,-200.0334"/>
<polygon fill="#191970" stroke="#191970" points="486.3714,-203.4823 496.9187,-202.4799 488.0485,-196.6861 486.3714,-203.4823"/>
</g>
<!-- Node217 -->
<g id="node10" class="node">
<title>Node217</title>
<g id="a_node10"><a xlink:href="classSha256Class.html#ab0b46743e3d59b1c68f52ed89dfaff50" target="_top" xlink:title="Sha256Class::addUncounted">
<polygon fill="#ffffff" stroke="#000000" points="757,-164.5 757,-183.5 901,-183.5 901,-164.5 757,-164.5"/>
<text text-anchor="middle" x="829" y="-171.5" font-family="Helvetica,sans-Serif" font-size="10.00" fill="#000000">Sha256Class::addUncounted</text>
</a>
</g>
</g>
<!-- Node216&#45;&gt;Node217 -->
<g id="edge9" class="edge">
<title>Node216&#45;&gt;Node217</title>
<path fill="none" stroke="#191970" d="M586.6238,-142.6191C630.737,-148.3305 695.2694,-156.6856 746.6571,-163.3389"/>
<polygon fill="#191970" stroke="#191970" points="746.3828,-166.8325 756.7495,-164.6456 747.2817,-159.8905 746.3828,-166.8325"/>
</g>
<!-- Node218 -->
<g id="node11" class="node">
<title>Node218</title>
<g id="a_node11"><a xlink:href="classSha256Class.html#a399d2a23951e2130f54af8ac7712068f" target="_top" xlink:title="Sha256Class::hashBlock">
<polygon fill="#ffffff" stroke="#000000" points="937,-164.5 937,-183.5 1064,-183.5 1064,-164.5 937,-164.5"/>
<text text-anchor="middle" x="1000.5" y="-171.5" font-family="Helvetica,sans-Serif" font-size="10.00" fill="#000000">Sha256Class::hashBlock</text>
</a>
</g>
</g>
<!-- Node217&#45;&gt;Node218 -->
<g id="edge10" class="edge">
<title>Node217&#45;&gt;Node218</title>
<path fill="none" stroke="#191970" d="M901.2344,-174C909.6298,-174 918.2026,-174 926.6198,-174"/>
<polygon fill="#191970" stroke="#191970" points="926.7873,-177.5001 936.7873,-174 926.7873,-170.5001 926.7873,-177.5001"/>
</g>
<!-- Node219 -->
<g id="node12" class="node">
<title>Node219</title>
<g id="a_node12"><a xlink:href="classSha256Class.html#ae275718ce9813bb33b2d8d8fbf018bd6" target="_top" xlink:title="Sha256Class::ror32">
<polygon fill="#ffffff" stroke="#000000" points="1100,-164.5 1100,-183.5 1203,-183.5 1203,-164.5 1100,-164.5"/>
<text text-anchor="middle" x="1151.5" y="-171.5" font-family="Helvetica,sans-Serif" font-size="10.00" fill="#000000">Sha256Class::ror32</text>
</a>
</g>
</g>
<!-- Node218&#45;&gt;Node219 -->
<g id="edge11" class="edge">
<title>Node218&#45;&gt;Node219</title>
<path fill="none" stroke="#191970" d="M1064.1,-174C1072.5806,-174 1081.2667,-174 1089.7157,-174"/>
<polygon fill="#191970" stroke="#191970" points="1089.8743,-177.5001 1099.8743,-174 1089.8742,-170.5001 1089.8743,-177.5001"/>
</g>
<!-- Node221 -->
<g id="node14" class="node">
<title>Node221</title>
<g id="a_node14"><a xlink:href="classSha256Class.html#a82049dae520ccf0bd8478f2aef639149" target="_top" xlink:title="Sha256Class::pad">
<polygon fill="#ffffff" stroke="#000000" points="624,-192.5 624,-211.5 721,-211.5 721,-192.5 624,-192.5"/>
<text text-anchor="middle" x="672.5" y="-199.5" font-family="Helvetica,sans-Serif" font-size="10.00" fill="#000000">Sha256Class::pad</text>
</a>
</g>
</g>
<!-- Node220&#45;&gt;Node221 -->
<g id="edge13" class="edge">
<title>Node220&#45;&gt;Node221</title>
<path fill="none" stroke="#191970" d="M588.076,-208.1623C596.4448,-207.5515 605.1493,-206.9161 613.6514,-206.2955"/>
<polygon fill="#191970" stroke="#191970" points="614.1669,-209.7673 623.8856,-205.5485 613.6573,-202.7859 614.1669,-209.7673"/>
</g>
<!-- Node221&#45;&gt;Node217 -->
<g id="edge14" class="edge">
<title>Node221&#45;&gt;Node217</title>
<path fill="none" stroke="#191970" d="M721.1597,-193.2941C735.2302,-190.7767 750.7977,-187.9915 765.6254,-185.3386"/>
<polygon fill="#191970" stroke="#191970" points="766.5177,-188.7346 775.7449,-183.5281 765.2848,-181.844 766.5177,-188.7346"/>
</g>
<!-- Node223&#45;&gt;Node216 -->
<g id="edge17" class="edge">
<title>Node223&#45;&gt;Node216</title>
<path fill="none" stroke="#191970" d="M439.7208,-136C450.9374,-136 462.7202,-136 474.036,-136"/>
<polygon fill="#191970" stroke="#191970" points="474.2671,-139.5001 484.267,-136 474.267,-132.5001 474.2671,-139.5001"/>
</g>
<!-- Node226 -->
<g id="node19" class="node">
<title>Node226</title>
<g id="a_node19"><a xlink:href="classSha256Class.html#a7556f29cadf7eaca21a537df41318af3" target="_top" xlink:title="Sha256Class::resultHmac">
<polygon fill="#ffffff" stroke="#000000" points="316,-202.5 316,-221.5 447,-221.5 447,-202.5 316,-202.5"/>
<text text-anchor="middle" x="381.5" y="-209.5" font-family="Helvetica,sans-Serif" font-size="10.00" fill="#000000">Sha256Class::resultHmac</text>
</a>
</g>
</g>
<!-- Node225&#45;&gt;Node226 -->
<g id="edge20" class="edge">
<title>Node225&#45;&gt;Node226</title>
<path fill="none" stroke="#191970" d="M269.2447,-212C280.9314,-212 293.415,-212 305.6538,-212"/>
<polygon fill="#191970" stroke="#191970" points="305.8541,-215.5001 315.854,-212 305.854,-208.5001 305.8541,-215.5001"/>
</g>
<!-- Node226&#45;&gt;Node215 -->
<g id="edge22" class="edge">
<title>Node226&#45;&gt;Node215</title>
<path fill="none" stroke="#191970" d="M420.3607,-202.411C440.5911,-197.4191 465.5207,-191.2676 487.0036,-185.9666"/>
<polygon fill="#191970" stroke="#191970" points="488.0485,-189.3139 496.9187,-183.5201 486.3714,-182.5177 488.0485,-189.3139"/>
</g>
<!-- Node226&#45;&gt;Node216 -->
<g id="edge23" class="edge">
<title>Node226&#45;&gt;Node216</title>
<path fill="none" stroke="#191970" d="M426.5358,-202.3858C433.6575,-199.905 440.7316,-196.8206 447,-193 466.8654,-180.8921 463.538,-167.7462 483,-155 485.9686,-153.0558 489.1618,-151.2791 492.4546,-149.6617"/>
<polygon fill="#191970" stroke="#191970" points="494.1443,-152.7425 501.8947,-145.5189 491.3312,-146.3326 494.1443,-152.7425"/>
</g>
<!-- Node226&#45;&gt;Node220 -->
<g id="edge21" class="edge">
<title>Node226&#45;&gt;Node220</title>
<path fill="none" stroke="#191970" d="M447.2566,-212C455.7421,-212 464.4138,-212 472.8475,-212"/>
<polygon fill="#191970" stroke="#191970" points="472.9882,-215.5001 482.9881,-212 472.9881,-208.5001 472.9882,-215.5001"/>
</g>
<!-- Node228 -->
<g id="node21" class="node">
<title>Node228</title>
<g id="a_node21"><a xlink:href="TooNetworking_8cpp.html#abdda8f09b9d475ed2c23a2376e2e0151" target="_top" xlink:title="mesh">
<polygon fill="#ffffff" stroke="#000000" points="361,-.5 361,-19.5 402,-19.5 402,-.5 361,-.5"/>
<text text-anchor="middle" x="381.5" y="-7.5" font-family="Helvetica,sans-Serif" font-size="10.00" fill="#000000">mesh</text>
</a>
</g>
</g>
<!-- Node227&#45;&gt;Node228 -->
<g id="edge25" class="edge">
<title>Node227&#45;&gt;Node228</title>
<path fill="none" stroke="#191970" d="M267.3695,-10C294.9931,-10 327.4539,-10 350.6803,-10"/>
<polygon fill="#191970" stroke="#191970" points="350.9647,-13.5001 360.9647,-10 350.9647,-6.5001 350.9647,-13.5001"/>
</g>
</g>
</svg>
        <g id="navigator" transform="translate(0 0)" fill="#404254">
                <rect fill="#f2f5e9" fill-opacity="0.5" stroke="#606060" stroke-width=".5" x="0" y="0" width="60" height="60"/>
                <use id="zoomplus" xlink:href="#zoomPlus" x="17" y="9" onmousedown="handleZoom(evt,'in')"/>
                <use id="zoomminus" xlink:href="#zoomMin" x="42" y="9" onmousedown="handleZoom(evt,'out')"/>
                <use id="reset" xlink:href="#resetDef" x="30" y="36" onmousedown="handleReset()"/>
                <g id="arrowUp" xlink:href="#dirArrow" transform="translate(30 24)" onmousedown="handlePan(0,-1)">
                  <use xlink:href="#rim" fill="#404040">
                        <set attributeName="fill" to="#808080" begin="arrowUp.mouseover" end="arrowUp.mouseout"/>
                  </use>
                  <path fill="none" stroke="white" stroke-width="1.5" d="M0,-3.0v7 M-2.5,-0.5L0,-3.0L2.5,-0.5"/>
                </g>
                <g id="arrowRight" xlink:href="#dirArrow" transform="rotate(90) translate(36 -43)" onmousedown="handlePan(1,0)">
                  <use xlink:href="#rim" fill="#404040">
                        <set attributeName="fill" to="#808080" begin="arrowRight.mouseover" end="arrowRight.mouseout"/>
                  </use>
                  <path fill="none" stroke="white" stroke-width="1.5" d="M0,-3.0v7 M-2.5,-0.5L0,-3.0L2.5,-0.5"/>
                </g>
                <g id="arrowDown" xlink:href="#dirArrow" transform="rotate(180) translate(-30 -48)" onmousedown="handlePan(0,1)">
                  <use xlink:href="#rim" fill="#404040">
                        <set attributeName="fill" to="#808080" begin="arrowDown.mouseover" end="arrowDown.mouseout"/>
                  </use>
                  <path fill="none" stroke="white" stroke-width="1.5" d="M0,-3.0v7 M-2.5,-0.5L0,-3.0L2.5,-0.5"/>
                </g>
                <g id="arrowLeft" xlink:href="#dirArrow" transform="rotate(270) translate(-36 17)" onmousedown="handlePan(-1,0)">
                  <use xlink:href="#rim" fill="#404040">
                        <set attributeName="fill" to="#808080" begin="arrowLeft.mouseover" end="arrowLeft.mouseout"/>
                  </use>
                  <path fill="none" stroke="white" stroke-width="1.5" d="M0,-3.0v7 M-2.5,-0.5L0,-3.0L2.5,-0.5"/>
                </g>
        </g>
        <svg viewBox="0 0 15 15" width="100%" height="30px" preserveAspectRatio="xMaxYMin meet">
         <g id="arrow_out" transform="scale(0.3 0.3)">
          <a xlink:href="TooNetworking_8cpp_ab5dfe46515ee5ca8f9893675df673d96_cgraph_org.svg" target="_base">
           <rect id="button" ry="5" rx="5" y="6" x="6" height="38" width="38"
                fill="#f2f5e9" fill-opacity="0.5" stroke="#606060" stroke-width="1.0"/>
           <path id="arrow"
             d="M 11.500037,31.436501 C 11.940474,20.09759 22.043105,11.32322 32.158766,21.979434 L 37.068811,17.246167 C 37.068811,17.246167 37.088388,32 37.088388,32 L 22.160133,31.978069 C 22.160133,31.978069 26.997745,27.140456 26.997745,27.140456 C 18.528582,18.264221 13.291696,25.230495 11.500037,31.436501 z"
             style="fill:#404040;"/>
          </a>
         </g>
        </svg>
</svg>
