<?xml version="1.0" encoding="UTF-8" standalone="no"?>
<!DOCTYPE svg PUBLIC "-//W3C//DTD SVG 1.1//EN"
 "http://www.w3.org/Graphics/SVG/1.1/DTD/svg11.dtd">
<!-- Generated by graphviz version 2.40.1 (20161225.0304)
 -->
<!-- Title: TooNetworking_bufferlist_add Pages: 1 -->
<!--zoomable 336 -->
<svg id="main" version="1.1" xmlns="http://www.w3.org/2000/svg" xmlns:xlink="http://www.w3.org/1999/xlink" xml:space="preserve" onload="init(evt)">
<style type="text/css"><![CDATA[
.edge:hover path { stroke: red; }
.edge:hover polygon { stroke: red; fill: red; }
]]></style>
<script type="text/javascript"><![CDATA[
var edges = document.getElementsByTagName('g');
if (edges && edges.length) {
  for (var i=0;i<edges.length;i++) {
    if (edges[i].id.substr(0,4)=='edge') {
      edges[i].setAttribute('class','edge');
    }
  }
}
]]></script>
        <defs>
                <circle id="rim" cx="0" cy="0" r="7"/>
                <circle id="rim2" cx="0" cy="0" r="3.5"/>
                <g id="zoomPlus">
                        <use xlink:href="#rim" fill="#404040">
                                <set attributeName="fill" to="#808080" begin="zoomplus.mouseover" end="zoomplus.mouseout"/>
                        </use>
                        <path d="M-4,0h8M0,-4v8" fill="none" stroke="white" stroke-width="1.5" pointer-events="none"/>
                </g>
                <g id="zoomMin">
                        <use xlink:href="#rim" fill="#404040">
                                <set attributeName="fill" to="#808080" begin="zoomminus.mouseover" end="zoomminus.mouseout"/>
                        </use>
                        <path d="M-4,0h8" fill="none" stroke="white" stroke-width="1.5" pointer-events="none"/>
                </g>
                <g id="dirArrow">
                        <path fill="none" stroke="white" stroke-width="1.5" d="M0,-3.0v7 M-2.5,-0.5L0,-3.0L2.5,-0.5"/>
                </g>
               <g id="resetDef">
                       <use xlink:href="#rim2" fill="#404040">
                               <set attributeName="fill" to="#808080" begin="reset.mouseover" end="reset.mouseout"/>
                       </use>
               </g>
        </defs>

<script type="text/javascript">
var viewWidth = 892;
var viewHeight = 336;
var sectionId = 'dynsection-1';
</script>
<script xlink:href="svgpan.js"/>
<svg id="graph" class="graph">
<g id="viewport">
<title>TooNetworking_bufferlist_add</title>
<polygon fill="#ffffff" stroke="transparent" points="-4,4 -4,-332 888,-332 888,4 -4,4"/>
<!-- Node9 -->
<g id="node1" class="node">
<title>Node9</title>
<polygon fill="#bfbfbf" stroke="#000000" points="0,-175 0,-194 146,-194 146,-175 0,-175"/>
<text text-anchor="middle" x="73" y="-182" font-family="Helvetica,sans-Serif" font-size="10.00" fill="#000000">TooNetworking_bufferlist_add</text>
</g>
<!-- Node10 -->
<g id="node2" class="node">
<title>Node10</title>
<g id="a_node2"><a xlink:href="TooNetworking_8cpp.html#aa8a4e879d4d71fed2a8940cf93b75ae4" target="_top" xlink:title="TooNetworking_bufferlist\l_initialize">
<polygon fill="#ffffff" stroke="#000000" points="510,-279.5 510,-309.5 635,-309.5 635,-279.5 510,-279.5"/>
<text text-anchor="start" x="518" y="-297.5" font-family="Helvetica,sans-Serif" font-size="10.00" fill="#000000">TooNetworking_bufferlist</text>
<text text-anchor="middle" x="572.5" y="-286.5" font-family="Helvetica,sans-Serif" font-size="10.00" fill="#000000">_initialize</text>
</a>
</g>
</g>
<!-- Node9&#45;&gt;Node10 -->
<g id="edge1" class="edge">
<title>Node9&#45;&gt;Node10</title>
<path fill="none" stroke="#191970" d="M96.4599,-194.1575C118.2972,-202.8424 151.9084,-215.4392 182,-223.5 291.0861,-252.7213 420.5476,-273.6275 499.5859,-284.8887"/>
<polygon fill="#191970" stroke="#191970" points="499.5296,-288.4153 509.9206,-286.347 500.5078,-281.484 499.5296,-288.4153"/>
</g>
<!-- Node11 -->
<g id="node3" class="node">
<title>Node11</title>
<g id="a_node3"><a xlink:href="TooNetworking_8cpp.html#a0ad03a7efb42cf40ca3e20fb5df3a5db" target="_top" xlink:title="TooNetworking_bufferlist\l_send_">
<polygon fill="#ffffff" stroke="#000000" points="510,-226.5 510,-256.5 635,-256.5 635,-226.5 510,-226.5"/>
<text text-anchor="start" x="518" y="-244.5" font-family="Helvetica,sans-Serif" font-size="10.00" fill="#000000">TooNetworking_bufferlist</text>
<text text-anchor="middle" x="572.5" y="-233.5" font-family="Helvetica,sans-Serif" font-size="10.00" fill="#000000">_send_</text>
</a>
</g>
</g>
<!-- Node9&#45;&gt;Node11 -->
<g id="edge2" class="edge">
<title>Node9&#45;&gt;Node11</title>
<path fill="none" stroke="#191970" d="M123.0719,-194.0451C141.5451,-197.3507 162.6798,-200.8799 182,-203.5 292.2998,-218.4582 420.9001,-229.8036 499.4936,-236.0535"/>
<polygon fill="#191970" stroke="#191970" points="499.5267,-239.5669 509.771,-236.8644 500.0773,-232.5886 499.5267,-239.5669"/>
</g>
<!-- Node17 -->
<g id="node9" class="node">
<title>Node17</title>
<g id="a_node9"><a xlink:href="TooSigning_8cpp.html#a729dc41cfb692fb0aea083c38c5f3577" target="_top" xlink:title="TooSigning_received\l_noncelist_find_from_ID">
<polygon fill="#ffffff" stroke="#000000" points="511.5,-169.5 511.5,-199.5 633.5,-199.5 633.5,-169.5 511.5,-169.5"/>
<text text-anchor="start" x="519.5" y="-187.5" font-family="Helvetica,sans-Serif" font-size="10.00" fill="#000000">TooSigning_received</text>
<text text-anchor="middle" x="572.5" y="-176.5" font-family="Helvetica,sans-Serif" font-size="10.00" fill="#000000">_noncelist_find_from_ID</text>
</a>
</g>
</g>
<!-- Node9&#45;&gt;Node17 -->
<g id="edge9" class="edge">
<title>Node9&#45;&gt;Node17</title>
<path fill="none" stroke="#191970" d="M146.2741,-188.3227C158.2117,-188.8127 170.4475,-189.2352 182,-189.5 293.4148,-192.054 422.7428,-189.2671 501.0495,-186.9448"/>
<polygon fill="#191970" stroke="#191970" points="501.3926,-190.4361 511.2822,-186.6353 501.1809,-183.4393 501.3926,-190.4361"/>
</g>
<!-- Node18 -->
<g id="node10" class="node">
<title>Node18</title>
<g id="a_node10"><a xlink:href="group__TOOSIGNING__DEBUGGING.html#ga974dd51d29b9bd928de51c481289aad7" target="_top" xlink:title="TooSigning_random_data\l_print">
<polygon fill="#ffffff" stroke="#000000" points="509,-98.5 509,-128.5 636,-128.5 636,-98.5 509,-98.5"/>
<text text-anchor="start" x="517" y="-116.5" font-family="Helvetica,sans-Serif" font-size="10.00" fill="#000000">TooSigning_random_data</text>
<text text-anchor="middle" x="572.5" y="-105.5" font-family="Helvetica,sans-Serif" font-size="10.00" fill="#000000">_print</text>
</a>
</g>
</g>
<!-- Node9&#45;&gt;Node18 -->
<g id="edge10" class="edge">
<title>Node9&#45;&gt;Node18</title>
<path fill="none" stroke="#191970" d="M85.5587,-174.8548C105.0002,-160.5283 144.1056,-134.0746 182,-122.5 288.5092,-89.9675 419.0689,-95.471 498.9899,-103.5978"/>
<polygon fill="#191970" stroke="#191970" points="498.6481,-107.0811 508.9608,-104.6522 499.3843,-100.1199 498.6481,-107.0811"/>
</g>
<!-- Node19 -->
<g id="node11" class="node">
<title>Node19</title>
<g id="a_node11"><a xlink:href="TooNetworking_8cpp.html#a9209f3e1a2fdf0b3b88d49105b8fc359" target="_top" xlink:title="TooNetworking_send\l_signed">
<polygon fill="#ffffff" stroke="#000000" points="182,-131.5 182,-161.5 291,-161.5 291,-131.5 182,-131.5"/>
<text text-anchor="start" x="190" y="-149.5" font-family="Helvetica,sans-Serif" font-size="10.00" fill="#000000">TooNetworking_send</text>
<text text-anchor="middle" x="236.5" y="-138.5" font-family="Helvetica,sans-Serif" font-size="10.00" fill="#000000">_signed</text>
</a>
</g>
</g>
<!-- Node9&#45;&gt;Node19 -->
<g id="edge11" class="edge">
<title>Node9&#45;&gt;Node19</title>
<path fill="none" stroke="#191970" d="M114.258,-174.911C131.8193,-170.8295 152.7159,-165.9728 172.2206,-161.4396"/>
<polygon fill="#191970" stroke="#191970" points="173.0165,-164.8479 181.9645,-159.1749 171.4318,-158.0297 173.0165,-164.8479"/>
</g>
<!-- Node20 -->
<g id="node12" class="node">
<title>Node20</title>
<g id="a_node12"><a xlink:href="TooSigning_8cpp.html#a53b55547df3d4276f3ca6a74d601549a" target="_top" xlink:title="TooSigning_requested\l_noncelist_add">
<polygon fill="#ffffff" stroke="#000000" points="516,-49.5 516,-79.5 629,-79.5 629,-49.5 516,-49.5"/>
<text text-anchor="start" x="524" y="-67.5" font-family="Helvetica,sans-Serif" font-size="10.00" fill="#000000">TooSigning_requested</text>
<text text-anchor="middle" x="572.5" y="-56.5" font-family="Helvetica,sans-Serif" font-size="10.00" fill="#000000">_noncelist_add</text>
</a>
</g>
</g>
<!-- Node9&#45;&gt;Node20 -->
<g id="edge26" class="edge">
<title>Node9&#45;&gt;Node20</title>
<path fill="none" stroke="#191970" d="M81.4044,-174.7207C98.2657,-155.8797 138.3607,-114.8777 182,-97.5 289.0734,-54.8621 425.4243,-54.2021 505.4256,-58.6355"/>
<polygon fill="#191970" stroke="#191970" points="505.6613,-62.1558 515.8528,-59.2601 506.08,-55.1683 505.6613,-62.1558"/>
</g>
<!-- Node12 -->
<g id="node4" class="node">
<title>Node12</title>
<g id="a_node4"><a xlink:href="TooNetworking_8cpp.html#ac352268e177fa2ddf91c8afa5cd04bbf" target="_top" xlink:title="TooNetworking_connection\l_available">
<polygon fill="#ffffff" stroke="#000000" points="672,-160.5 672,-190.5 807,-190.5 807,-160.5 672,-160.5"/>
<text text-anchor="start" x="680" y="-178.5" font-family="Helvetica,sans-Serif" font-size="10.00" fill="#000000">TooNetworking_connection</text>
<text text-anchor="middle" x="739.5" y="-167.5" font-family="Helvetica,sans-Serif" font-size="10.00" fill="#000000">_available</text>
</a>
</g>
</g>
<!-- Node11&#45;&gt;Node12 -->
<g id="edge3" class="edge">
<title>Node11&#45;&gt;Node12</title>
<path fill="none" stroke="#191970" d="M608.2968,-226.3833C627.1791,-218.5024 650.7718,-208.8017 672,-200.5 677.3682,-198.4007 682.9932,-196.2463 688.6083,-194.1247"/>
<polygon fill="#191970" stroke="#191970" points="689.8679,-197.3905 698.0015,-190.601 687.4092,-190.8364 689.8679,-197.3905"/>
</g>
<!-- Node14 -->
<g id="node6" class="node">
<title>Node14</title>
<g id="a_node6"><a xlink:href="TooNetworking_8cpp.html#af4808c2c0857cde9a6721ad54f5ab42d" target="_top" xlink:title="TooNetworking_other\l_node_is_online">
<polygon fill="#ffffff" stroke="#000000" points="684.5,-209.5 684.5,-239.5 794.5,-239.5 794.5,-209.5 684.5,-209.5"/>
<text text-anchor="start" x="692.5" y="-227.5" font-family="Helvetica,sans-Serif" font-size="10.00" fill="#000000">TooNetworking_other</text>
<text text-anchor="middle" x="739.5" y="-216.5" font-family="Helvetica,sans-Serif" font-size="10.00" fill="#000000">_node_is_online</text>
</a>
</g>
</g>
<!-- Node11&#45;&gt;Node14 -->
<g id="edge5" class="edge">
<title>Node11&#45;&gt;Node14</title>
<path fill="none" stroke="#191970" d="M635.1598,-235.1215C647.94,-233.8205 661.416,-232.4487 674.283,-231.1389"/>
<polygon fill="#191970" stroke="#191970" points="674.8524,-234.5991 684.4465,-230.1042 674.1434,-227.6351 674.8524,-234.5991"/>
</g>
<!-- Node15 -->
<g id="node7" class="node">
<title>Node15</title>
<g id="a_node7"><a xlink:href="TooNetworking_8cpp.html#a46674b3fdc9ee370b0839869aa145b75" target="_top" xlink:title="TooNetworking_send">
<polygon fill="#ffffff" stroke="#000000" points="685,-259 685,-278 794,-278 794,-259 685,-259"/>
<text text-anchor="middle" x="739.5" y="-266" font-family="Helvetica,sans-Serif" font-size="10.00" fill="#000000">TooNetworking_send</text>
</a>
</g>
</g>
<!-- Node11&#45;&gt;Node15 -->
<g id="edge6" class="edge">
<title>Node11&#45;&gt;Node15</title>
<path fill="none" stroke="#191970" d="M635.1598,-251.6306C648.214,-253.7412 661.9943,-255.9691 675.1098,-258.0896"/>
<polygon fill="#191970" stroke="#191970" points="674.5563,-261.5455 684.9868,-259.6865 675.6736,-254.6352 674.5563,-261.5455"/>
</g>
<!-- Node16 -->
<g id="node8" class="node">
<title>Node16</title>
<g id="a_node8"><a xlink:href="TooNetworking_8cpp.html#a3c91b7ab2f6500c287ecc7ab4a018ef6" target="_top" xlink:title="TooNetworking_bufferlist\l_remove">
<polygon fill="#ffffff" stroke="#000000" points="677,-297.5 677,-327.5 802,-327.5 802,-297.5 677,-297.5"/>
<text text-anchor="start" x="685" y="-315.5" font-family="Helvetica,sans-Serif" font-size="10.00" fill="#000000">TooNetworking_bufferlist</text>
<text text-anchor="middle" x="739.5" y="-304.5" font-family="Helvetica,sans-Serif" font-size="10.00" fill="#000000">_remove</text>
</a>
</g>
</g>
<!-- Node11&#45;&gt;Node16 -->
<g id="edge8" class="edge">
<title>Node11&#45;&gt;Node16</title>
<path fill="none" stroke="#191970" d="M605.8224,-256.6214C615.5616,-261.0671 626.2172,-265.9565 636,-270.5 652.0479,-277.9532 655.6884,-280.6431 672,-287.5 677.0401,-289.6187 682.3289,-291.7434 687.6343,-293.8102"/>
<polygon fill="#191970" stroke="#191970" points="686.5612,-297.147 697.1515,-297.4539 689.064,-290.6097 686.5612,-297.147"/>
</g>
<!-- Node13 -->
<g id="node5" class="node">
<title>Node13</title>
<g id="a_node5"><a xlink:href="TooNetworking_8cpp.html#abdda8f09b9d475ed2c23a2376e2e0151" target="_top" xlink:title="mesh">
<polygon fill="#ffffff" stroke="#000000" points="843,-212 843,-231 884,-231 884,-212 843,-212"/>
<text text-anchor="middle" x="863.5" y="-219" font-family="Helvetica,sans-Serif" font-size="10.00" fill="#000000">mesh</text>
</a>
</g>
</g>
<!-- Node12&#45;&gt;Node13 -->
<g id="edge4" class="edge">
<title>Node12&#45;&gt;Node13</title>
<path fill="none" stroke="#191970" d="M780.194,-190.5633C789.0322,-193.8372 798.33,-197.2832 807,-200.5 815.5326,-203.6658 824.7885,-207.1043 833.2915,-210.2647"/>
<polygon fill="#191970" stroke="#191970" points="832.2461,-213.6101 842.839,-213.8142 834.6854,-207.0488 832.2461,-213.6101"/>
</g>
<!-- Node15&#45;&gt;Node13 -->
<g id="edge7" class="edge">
<title>Node15&#45;&gt;Node13</title>
<path fill="none" stroke="#191970" d="M778.101,-258.9662C787.6594,-256.2427 797.7965,-253.0405 807,-249.5 817.01,-245.6492 827.633,-240.6451 836.934,-235.9343"/>
<polygon fill="#191970" stroke="#191970" points="838.8049,-238.9067 846.0668,-231.1921 835.579,-232.6942 838.8049,-238.9067"/>
</g>
<!-- Node19&#45;&gt;Node17 -->
<g id="edge12" class="edge">
<title>Node19&#45;&gt;Node17</title>
<path fill="none" stroke="#191970" d="M291.3349,-159.202C303.0545,-161.5823 315.3984,-163.8404 327,-165.5 385.373,-173.8505 452.1166,-178.7183 501.2627,-181.4323"/>
<polygon fill="#191970" stroke="#191970" points="501.3006,-184.9392 511.4736,-181.9792 501.6751,-177.9492 501.3006,-184.9392"/>
</g>
<!-- Node19&#45;&gt;Node18 -->
<g id="edge13" class="edge">
<title>Node19&#45;&gt;Node18</title>
<path fill="none" stroke="#191970" d="M291.31,-133.6176C303.0313,-131.2495 315.3822,-129.0419 327,-127.5 384.3874,-119.8834 449.8622,-116.4076 498.7544,-114.823"/>
<polygon fill="#191970" stroke="#191970" points="499.0382,-118.3161 508.9269,-114.5128 498.8248,-111.3194 499.0382,-118.3161"/>
</g>
<!-- Node19&#45;&gt;Node19 -->
<g id="edge14" class="edge">
<title>Node19&#45;&gt;Node19</title>
<path fill="none" stroke="#191970" d="M208.2682,-161.659C201.4605,-171.0566 210.8711,-180 236.5,-180 252.1176,-180 261.7128,-176.679 265.2854,-171.9579"/>
<polygon fill="#191970" stroke="#191970" points="268.7636,-171.4567 264.7318,-161.659 261.7737,-171.8325 268.7636,-171.4567"/>
</g>
<!-- Node19&#45;&gt;Node20 -->
<g id="edge15" class="edge">
<title>Node19&#45;&gt;Node20</title>
<path fill="none" stroke="#191970" d="M271.2403,-131.3762C287.8721,-124.5742 308.2149,-116.8832 327,-111.5 386.5172,-94.4442 455.946,-81.8012 505.7532,-73.9499"/>
<polygon fill="#191970" stroke="#191970" points="506.4142,-77.3892 515.7583,-72.3955 505.3395,-70.4722 506.4142,-77.3892"/>
</g>
<!-- Node24 -->
<g id="node16" class="node">
<title>Node24</title>
<g id="a_node16"><a xlink:href="TooNetworking_8cpp.html#aa8040740e6ffca2f68beb7f8e57d63fc" target="_top" xlink:title="TooNetworking_bufferlist_add">
<polygon fill="#ffffff" stroke="#000000" points="327,-137 327,-156 473,-156 473,-137 327,-137"/>
<text text-anchor="middle" x="400" y="-144" font-family="Helvetica,sans-Serif" font-size="10.00" fill="#000000">TooNetworking_bufferlist_add</text>
</a>
</g>
</g>
<!-- Node19&#45;&gt;Node24 -->
<g id="edge19" class="edge">
<title>Node19&#45;&gt;Node24</title>
<path fill="none" stroke="#191970" d="M291.398,-140.0846C299.5995,-139.8731 308.2066,-139.7619 316.8347,-139.7509"/>
<polygon fill="#191970" stroke="#191970" points="316.9386,-143.2512 326.95,-139.7841 316.9616,-136.2512 316.9386,-143.2512"/>
</g>
<!-- Node21 -->
<g id="node13" class="node">
<title>Node21</title>
<g id="a_node13"><a xlink:href="group__TOOSIGNING__INITIALIZE.html#gafd247c5271ff63bfcde14ef94060002d" target="_top" xlink:title="TooSigning_requested\l_noncelist_initialize">
<polygon fill="#ffffff" stroke="#000000" points="683,-98.5 683,-128.5 796,-128.5 796,-98.5 683,-98.5"/>
<text text-anchor="start" x="691" y="-116.5" font-family="Helvetica,sans-Serif" font-size="10.00" fill="#000000">TooSigning_requested</text>
<text text-anchor="middle" x="739.5" y="-105.5" font-family="Helvetica,sans-Serif" font-size="10.00" fill="#000000">_noncelist_initialize</text>
</a>
</g>
</g>
<!-- Node20&#45;&gt;Node21 -->
<g id="edge16" class="edge">
<title>Node20&#45;&gt;Node21</title>
<path fill="none" stroke="#191970" d="M623.9682,-79.6014C641.1919,-84.6551 660.5588,-90.3376 678.4422,-95.5848"/>
<polygon fill="#191970" stroke="#191970" points="677.6209,-98.9913 688.2018,-98.4484 679.5917,-92.2745 677.6209,-98.9913"/>
</g>
<!-- Node22 -->
<g id="node14" class="node">
<title>Node22</title>
<g id="a_node14"><a xlink:href="TooSigning_8cpp.html#a74e394128707e55045381d7c9ab6f6fd" target="_top" xlink:title="TooSigning_requested\l_noncelist_find_for_nodeID">
<polygon fill="#ffffff" stroke="#000000" points="672,-49.5 672,-79.5 807,-79.5 807,-49.5 672,-49.5"/>
<text text-anchor="start" x="680" y="-67.5" font-family="Helvetica,sans-Serif" font-size="10.00" fill="#000000">TooSigning_requested</text>
<text text-anchor="middle" x="739.5" y="-56.5" font-family="Helvetica,sans-Serif" font-size="10.00" fill="#000000">_noncelist_find_for_nodeID</text>
</a>
</g>
</g>
<!-- Node20&#45;&gt;Node22 -->
<g id="edge17" class="edge">
<title>Node20&#45;&gt;Node22</title>
<path fill="none" stroke="#191970" d="M629.0386,-64.5C639.5434,-64.5 650.6861,-64.5 661.696,-64.5"/>
<polygon fill="#191970" stroke="#191970" points="661.7478,-68.0001 671.7478,-64.5 661.7477,-61.0001 661.7478,-68.0001"/>
</g>
<!-- Node23 -->
<g id="node15" class="node">
<title>Node23</title>
<g id="a_node15"><a xlink:href="group__TOOSIGNING__DEBUGGING.html#gabb54a5e4968d69e35d665869d5c6588f" target="_top" xlink:title="TooSigning_requested\l_noncelist_print">
<polygon fill="#ffffff" stroke="#000000" points="683,-.5 683,-30.5 796,-30.5 796,-.5 683,-.5"/>
<text text-anchor="start" x="691" y="-18.5" font-family="Helvetica,sans-Serif" font-size="10.00" fill="#000000">TooSigning_requested</text>
<text text-anchor="middle" x="739.5" y="-7.5" font-family="Helvetica,sans-Serif" font-size="10.00" fill="#000000">_noncelist_print</text>
</a>
</g>
</g>
<!-- Node20&#45;&gt;Node23 -->
<g id="edge18" class="edge">
<title>Node20&#45;&gt;Node23</title>
<path fill="none" stroke="#191970" d="M623.9682,-49.3986C641.1919,-44.3449 660.5588,-38.6624 678.4422,-33.4152"/>
<polygon fill="#191970" stroke="#191970" points="679.5917,-36.7255 688.2018,-30.5516 677.6209,-30.0087 679.5917,-36.7255"/>
</g>
<!-- Node24&#45;&gt;Node10 -->
<g id="edge20" class="edge">
<title>Node24&#45;&gt;Node10</title>
<path fill="none" stroke="#191970" d="M406.576,-156.1575C422.0827,-178.314 463.1013,-233.4304 509,-266.5 513.1698,-269.5043 517.7131,-272.2849 522.3896,-274.8328"/>
<polygon fill="#191970" stroke="#191970" points="520.9818,-278.0432 531.4837,-279.4435 524.1473,-271.7997 520.9818,-278.0432"/>
</g>
<!-- Node24&#45;&gt;Node11 -->
<g id="edge21" class="edge">
<title>Node24&#45;&gt;Node11</title>
<path fill="none" stroke="#191970" d="M416.0873,-156.1853C437.2103,-168.8127 475.5414,-191.4195 509,-209.5 516.5719,-213.5918 524.7293,-217.8282 532.5916,-221.8271"/>
<polygon fill="#191970" stroke="#191970" points="531.1285,-225.0091 541.6331,-226.3894 534.282,-218.7597 531.1285,-225.0091"/>
</g>
<!-- Node24&#45;&gt;Node17 -->
<g id="edge22" class="edge">
<title>Node24&#45;&gt;Node17</title>
<path fill="none" stroke="#191970" d="M443.529,-156.089C461.1179,-159.9636 481.8778,-164.5368 501.5422,-168.8687"/>
<polygon fill="#191970" stroke="#191970" points="500.8758,-172.3058 511.3947,-171.0391 502.3818,-165.4697 500.8758,-172.3058"/>
</g>
<!-- Node24&#45;&gt;Node18 -->
<g id="edge23" class="edge">
<title>Node24&#45;&gt;Node18</title>
<path fill="none" stroke="#191970" d="M449.8941,-136.955C465.1384,-134.0387 482.2373,-130.7676 498.7161,-127.6152"/>
<polygon fill="#191970" stroke="#191970" points="499.7099,-130.9886 508.8741,-125.6719 498.3946,-124.1133 499.7099,-130.9886"/>
</g>
<!-- Node24&#45;&gt;Node19 -->
<g id="edge24" class="edge">
<title>Node24&#45;&gt;Node19</title>
<path fill="none" stroke="#191970" d="M326.95,-153.2159C318.4576,-153.2827 309.8386,-153.2514 301.465,-153.1219"/>
<polygon fill="#191970" stroke="#191970" points="301.4677,-149.6213 291.398,-152.9154 301.324,-156.6199 301.4677,-149.6213"/>
</g>
<!-- Node24&#45;&gt;Node20 -->
<g id="edge25" class="edge">
<title>Node24&#45;&gt;Node20</title>
<path fill="none" stroke="#191970" d="M417.0845,-136.8387C438.3085,-125.007 475.7838,-104.6712 509,-89.5 513.4152,-87.4834 518.0435,-85.472 522.7037,-83.5157"/>
<polygon fill="#191970" stroke="#191970" points="524.3347,-86.6296 532.256,-79.5937 521.676,-80.1542 524.3347,-86.6296"/>
</g>
</g>
</svg>
        <g id="navigator" transform="translate(0 0)" fill="#404254">
                <rect fill="#f2f5e9" fill-opacity="0.5" stroke="#606060" stroke-width=".5" x="0" y="0" width="60" height="60"/>
                <use id="zoomplus" xlink:href="#zoomPlus" x="17" y="9" onmousedown="handleZoom(evt,'in')"/>
                <use id="zoomminus" xlink:href="#zoomMin" x="42" y="9" onmousedown="handleZoom(evt,'out')"/>
                <use id="reset" xlink:href="#resetDef" x="30" y="36" onmousedown="handleReset()"/>
                <g id="arrowUp" xlink:href="#dirArrow" transform="translate(30 24)" onmousedown="handlePan(0,-1)">
                  <use xlink:href="#rim" fill="#404040">
                        <set attributeName="fill" to="#808080" begin="arrowUp.mouseover" end="arrowUp.mouseout"/>
                  </use>
                  <path fill="none" stroke="white" stroke-width="1.5" d="M0,-3.0v7 M-2.5,-0.5L0,-3.0L2.5,-0.5"/>
                </g>
                <g id="arrowRight" xlink:href="#dirArrow" transform="rotate(90) translate(36 -43)" onmousedown="handlePan(1,0)">
                  <use xlink:href="#rim" fill="#404040">
                        <set attributeName="fill" to="#808080" begin="arrowRight.mouseover" end="arrowRight.mouseout"/>
                  </use>
                  <path fill="none" stroke="white" stroke-width="1.5" d="M0,-3.0v7 M-2.5,-0.5L0,-3.0L2.5,-0.5"/>
                </g>
                <g id="arrowDown" xlink:href="#dirArrow" transform="rotate(180) translate(-30 -48)" onmousedown="handlePan(0,1)">
                  <use xlink:href="#rim" fill="#404040">
                        <set attributeName="fill" to="#808080" begin="arrowDown.mouseover" end="arrowDown.mouseout"/>
                  </use>
                  <path fill="none" stroke="white" stroke-width="1.5" d="M0,-3.0v7 M-2.5,-0.5L0,-3.0L2.5,-0.5"/>
                </g>
                <g id="arrowLeft" xlink:href="#dirArrow" transform="rotate(270) translate(-36 17)" onmousedown="handlePan(-1,0)">
                  <use xlink:href="#rim" fill="#404040">
                        <set attributeName="fill" to="#808080" begin="arrowLeft.mouseover" end="arrowLeft.mouseout"/>
                  </use>
                  <path fill="none" stroke="white" stroke-width="1.5" d="M0,-3.0v7 M-2.5,-0.5L0,-3.0L2.5,-0.5"/>
                </g>
        </g>
        <svg viewBox="0 0 15 15" width="100%" height="30px" preserveAspectRatio="xMaxYMin meet">
         <g id="arrow_out" transform="scale(0.3 0.3)">
          <a xlink:href="TooNetworking_8h_a59be7e774988f57ab43c4c078c570c67_cgraph_org.svg" target="_base">
           <rect id="button" ry="5" rx="5" y="6" x="6" height="38" width="38"
                fill="#f2f5e9" fill-opacity="0.5" stroke="#606060" stroke-width="1.0"/>
           <path id="arrow"
             d="M 11.500037,31.436501 C 11.940474,20.09759 22.043105,11.32322 32.158766,21.979434 L 37.068811,17.246167 C 37.068811,17.246167 37.088388,32 37.088388,32 L 22.160133,31.978069 C 22.160133,31.978069 26.997745,27.140456 26.997745,27.140456 C 18.528582,18.264221 13.291696,25.230495 11.500037,31.436501 z"
             style="fill:#404040;"/>
          </a>
         </g>
        </svg>
</svg>
