<?xml version="1.0" encoding="UTF-8" standalone="no"?>
<!DOCTYPE svg PUBLIC "-//W3C//DTD SVG 1.1//EN"
 "http://www.w3.org/Graphics/SVG/1.1/DTD/svg11.dtd">
<!-- Generated by graphviz version 2.40.1 (20161225.0304)
 -->
<!-- Title: TooNetworking_connection_available Pages: 1 -->
<svg width="1260pt" height="204pt"
 viewBox="0.00 0.00 1260.00 203.50" xmlns="http://www.w3.org/2000/svg" xmlns:xlink="http://www.w3.org/1999/xlink">
<g id="graph0" class="graph" transform="scale(1 1) rotate(0) translate(4 199.5)">
<title>TooNetworking_connection_available</title>
<polygon fill="#ffffff" stroke="transparent" points="-4,4 -4,-199.5 1256,-199.5 1256,4 -4,4"/>
<!-- Node156 -->
<g id="node1" class="node">
<title>Node156</title>
<polygon fill="#bfbfbf" stroke="#000000" points="0,-85.5 0,-115.5 135,-115.5 135,-85.5 0,-85.5"/>
<text text-anchor="start" x="8" y="-103.5" font-family="Helvetica,sans-Serif" font-size="10.00" fill="#000000">TooNetworking_connection</text>
<text text-anchor="middle" x="67.5" y="-92.5" font-family="Helvetica,sans-Serif" font-size="10.00" fill="#000000">_available</text>
</g>
<!-- Node157 -->
<g id="node2" class="node">
<title>Node157</title>
<g id="a_node2"><a xlink:href="TooNetworking_8h.html#a0ad03a7efb42cf40ca3e20fb5df3a5db" target="_top" xlink:title="TooNetworking_bufferlist\l_send_">
<polygon fill="#ffffff" stroke="#000000" points="362.5,-131.5 362.5,-161.5 487.5,-161.5 487.5,-131.5 362.5,-131.5"/>
<text text-anchor="start" x="370.5" y="-149.5" font-family="Helvetica,sans-Serif" font-size="10.00" fill="#000000">TooNetworking_bufferlist</text>
<text text-anchor="middle" x="425" y="-138.5" font-family="Helvetica,sans-Serif" font-size="10.00" fill="#000000">_send_</text>
</a>
</g>
</g>
<!-- Node156&#45;&gt;Node157 -->
<g id="edge1" class="edge">
<title>Node156&#45;&gt;Node157</title>
<path fill="none" stroke="#191970" d="M145.3695,-110.5196C210.4355,-118.8917 302.016,-130.6755 362.4031,-138.4456"/>
<polygon fill="#191970" stroke="#191970" points="145.5282,-107.0112 135.1633,-109.2063 144.6348,-113.954 145.5282,-107.0112"/>
</g>
<!-- Node163 -->
<g id="node8" class="node">
<title>Node163</title>
<g id="a_node8"><a xlink:href="TooNetworking_8h.html#a99dc4950018bfd3e63ecb05f58082439" target="_top" xlink:title="TooNetworking_connection_fix">
<polygon fill="#ffffff" stroke="#000000" points="171,-53 171,-72 322,-72 322,-53 171,-53"/>
<text text-anchor="middle" x="246.5" y="-60" font-family="Helvetica,sans-Serif" font-size="10.00" fill="#000000">TooNetworking_connection_fix</text>
</a>
</g>
</g>
<!-- Node156&#45;&gt;Node163 -->
<g id="edge7" class="edge">
<title>Node156&#45;&gt;Node163</title>
<path fill="none" stroke="#191970" d="M145.1543,-84.0147C164.4097,-79.927 184.4096,-75.6812 201.5041,-72.0522"/>
<polygon fill="#191970" stroke="#191970" points="144.2274,-80.6334 135.1722,-86.1338 145.6811,-87.4808 144.2274,-80.6334"/>
</g>
<!-- Node164 -->
<g id="node9" class="node">
<title>Node164</title>
<g id="a_node9"><a xlink:href="TooNetworking_8h.html#a9f893c3218491ee86282fdcd9f376500" target="_top" xlink:title="TooNetworking_send\l_signed_">
<polygon fill="#ffffff" stroke="#000000" points="370.5,-82.5 370.5,-112.5 479.5,-112.5 479.5,-82.5 370.5,-82.5"/>
<text text-anchor="start" x="378.5" y="-100.5" font-family="Helvetica,sans-Serif" font-size="10.00" fill="#000000">TooNetworking_send</text>
<text text-anchor="middle" x="425" y="-89.5" font-family="Helvetica,sans-Serif" font-size="10.00" fill="#000000">_signed_</text>
</a>
</g>
</g>
<!-- Node156&#45;&gt;Node164 -->
<g id="edge19" class="edge">
<title>Node156&#45;&gt;Node164</title>
<path fill="none" stroke="#191970" d="M145.4031,-99.8463C213.4385,-99.2753 310.4448,-98.4613 370.4748,-97.9576"/>
<polygon fill="#191970" stroke="#191970" points="145.1335,-96.3483 135.1633,-99.9322 145.1924,-103.3481 145.1335,-96.3483"/>
</g>
<!-- Node158 -->
<g id="node3" class="node">
<title>Node158</title>
<g id="a_node3"><a xlink:href="TooNetworking_8h.html#a59be7e774988f57ab43c4c078c570c67" target="_top" xlink:title="TooNetworking_bufferlist_add">
<polygon fill="#ffffff" stroke="#000000" points="528,-176 528,-195 674,-195 674,-176 528,-176"/>
<text text-anchor="middle" x="601" y="-183" font-family="Helvetica,sans-Serif" font-size="10.00" fill="#000000">TooNetworking_bufferlist_add</text>
</a>
</g>
</g>
<!-- Node157&#45;&gt;Node158 -->
<g id="edge2" class="edge">
<title>Node157&#45;&gt;Node158</title>
<path fill="none" stroke="#191970" d="M497.518,-162.5693C518.0621,-167.1217 539.7685,-171.9317 557.9667,-175.9642"/>
<polygon fill="#191970" stroke="#191970" points="498.067,-159.1061 487.5466,-160.3598 496.5525,-165.9404 498.067,-159.1061"/>
</g>
<!-- Node162 -->
<g id="node7" class="node">
<title>Node162</title>
<g id="a_node7"><a xlink:href="TooNetworking_8h.html#ab58e06e0eb6f2f8ecbebeaf3c173fb22" target="_top" xlink:title="TooNetworking_bufferlist\l_send_all">
<polygon fill="#ffffff" stroke="#000000" points="538.5,-126.5 538.5,-156.5 663.5,-156.5 663.5,-126.5 538.5,-126.5"/>
<text text-anchor="start" x="546.5" y="-144.5" font-family="Helvetica,sans-Serif" font-size="10.00" fill="#000000">TooNetworking_bufferlist</text>
<text text-anchor="middle" x="601" y="-133.5" font-family="Helvetica,sans-Serif" font-size="10.00" fill="#000000">_send_all</text>
</a>
</g>
</g>
<!-- Node157&#45;&gt;Node162 -->
<g id="edge6" class="edge">
<title>Node157&#45;&gt;Node162</title>
<path fill="none" stroke="#191970" d="M497.7412,-144.4335C511.227,-144.0504 525.2059,-143.6532 538.3585,-143.2796"/>
<polygon fill="#191970" stroke="#191970" points="497.4431,-140.9404 487.5466,-144.7231 497.642,-147.9376 497.4431,-140.9404"/>
</g>
<!-- Node159 -->
<g id="node4" class="node">
<title>Node159</title>
<g id="a_node4"><a xlink:href="TooNetworking_8h.html#a9209f3e1a2fdf0b3b88d49105b8fc359" target="_top" xlink:title="TooNetworking_send\l_signed">
<polygon fill="#ffffff" stroke="#000000" points="718,-49.5 718,-79.5 827,-79.5 827,-49.5 718,-49.5"/>
<text text-anchor="start" x="726" y="-67.5" font-family="Helvetica,sans-Serif" font-size="10.00" fill="#000000">TooNetworking_send</text>
<text text-anchor="middle" x="772.5" y="-56.5" font-family="Helvetica,sans-Serif" font-size="10.00" fill="#000000">_signed</text>
</a>
</g>
</g>
<!-- Node158&#45;&gt;Node159 -->
<g id="edge3" class="edge">
<title>Node158&#45;&gt;Node159</title>
<path fill="none" stroke="#191970" d="M667.5579,-171.1273C669.8157,-169.724 671.9741,-168.1858 674,-166.5 703.0385,-142.3355 682.5389,-115.4432 710,-89.5 714.0776,-85.6478 718.8234,-82.3612 723.8435,-79.5636"/>
<polygon fill="#191970" stroke="#191970" points="665.6697,-168.1649 658.4283,-175.8987 668.9121,-174.3688 665.6697,-168.1649"/>
</g>
<!-- Node160 -->
<g id="node5" class="node">
<title>Node160</title>
<g id="a_node5"><a xlink:href="TooNetworking_8h.html#a085ff748b00f6be4ebafcae2bb0dded1" target="_top" xlink:title="TooNetworking_bufferlist\l_send_signed">
<polygon fill="#ffffff" stroke="#000000" points="710,-98.5 710,-128.5 835,-128.5 835,-98.5 710,-98.5"/>
<text text-anchor="start" x="718" y="-116.5" font-family="Helvetica,sans-Serif" font-size="10.00" fill="#000000">TooNetworking_bufferlist</text>
<text text-anchor="middle" x="772.5" y="-105.5" font-family="Helvetica,sans-Serif" font-size="10.00" fill="#000000">_send_signed</text>
</a>
</g>
</g>
<!-- Node158&#45;&gt;Node160 -->
<g id="edge4" class="edge">
<title>Node158&#45;&gt;Node160</title>
<path fill="none" stroke="#191970" d="M654.4785,-173.1648C661.1298,-171.1688 667.7755,-168.9439 674,-166.5 700.3906,-156.1384 728.7172,-140.3569 748.1878,-128.7078"/>
<polygon fill="#191970" stroke="#191970" points="653.4388,-169.8216 644.7781,-175.9243 655.3542,-176.5545 653.4388,-169.8216"/>
</g>
<!-- Node161 -->
<g id="node6" class="node">
<title>Node161</title>
<g id="a_node6"><a xlink:href="NODE__SKETCH__TooAutomation__Node_8ino_8cpp.html#a0b33edabd7f1c4e4a0bf32c67269be2f" target="_top" xlink:title="loop">
<polygon fill="#ffffff" stroke="#000000" points="1217,-68 1217,-87 1252,-87 1252,-68 1217,-68"/>
<text text-anchor="middle" x="1234.5" y="-75" font-family="Helvetica,sans-Serif" font-size="10.00" fill="#000000">loop</text>
</a>
</g>
</g>
<!-- Node160&#45;&gt;Node161 -->
<g id="edge5" class="edge">
<title>Node160&#45;&gt;Node161</title>
<path fill="none" stroke="#191970" d="M845.2953,-107.8276C955.0856,-99.2726 1156.6387,-83.5671 1216.9827,-78.865"/>
<polygon fill="#191970" stroke="#191970" points="844.986,-104.341 835.2882,-108.6074 845.5299,-111.3199 844.986,-104.341"/>
</g>
<!-- Node163&#45;&gt;Node164 -->
<g id="edge8" class="edge">
<title>Node163&#45;&gt;Node164</title>
<path fill="none" stroke="#191970" d="M305.3255,-74.0344C326.2606,-78.1393 349.7326,-82.7417 370.3071,-86.7759"/>
<polygon fill="#191970" stroke="#191970" points="305.7625,-70.5535 295.2759,-72.0639 304.4156,-77.4227 305.7625,-70.5535"/>
</g>
<!-- Node165 -->
<g id="node10" class="node">
<title>Node165</title>
<g id="a_node10"><a xlink:href="TooSigning_8h.html#abf99e5d9b5ec252bfff3bf26c0ba9e37" target="_top" xlink:title="TooSigning_connection_fix">
<polygon fill="#ffffff" stroke="#000000" points="358,-25 358,-44 492,-44 492,-25 358,-25"/>
<text text-anchor="middle" x="425" y="-32" font-family="Helvetica,sans-Serif" font-size="10.00" fill="#000000">TooSigning_connection_fix</text>
</a>
</g>
</g>
<!-- Node163&#45;&gt;Node165 -->
<g id="edge13" class="edge">
<title>Node163&#45;&gt;Node165</title>
<path fill="none" stroke="#191970" d="M317.4913,-51.3641C333.0017,-48.9311 349.2805,-46.3776 364.3443,-44.0146"/>
<polygon fill="#191970" stroke="#191970" points="316.7671,-47.9348 307.4303,-52.9423 317.8519,-54.8503 316.7671,-47.9348"/>
</g>
<!-- Node164&#45;&gt;Node158 -->
<g id="edge9" class="edge">
<title>Node164&#45;&gt;Node158</title>
<path fill="none" stroke="#191970" d="M483.5438,-117.1356C486.4848,-118.7993 489.3244,-120.5854 492,-122.5 512.5481,-137.2036 506.7256,-152.8684 528,-166.5 534.0646,-170.3859 540.8928,-173.479 547.8766,-175.9408"/>
<polygon fill="#191970" stroke="#191970" points="484.977,-113.9376 474.4793,-112.5057 481.7928,-120.1715 484.977,-113.9376"/>
</g>
<!-- Node164&#45;&gt;Node159 -->
<g id="edge10" class="edge">
<title>Node164&#45;&gt;Node159</title>
<path fill="none" stroke="#191970" d="M489.9148,-91.3354C555.621,-85.0957 656.0906,-75.5547 717.8534,-69.6895"/>
<polygon fill="#191970" stroke="#191970" points="489.3034,-87.8776 479.6791,-92.3074 489.9653,-94.8463 489.3034,-87.8776"/>
</g>
<!-- Node164&#45;&gt;Node160 -->
<g id="edge11" class="edge">
<title>Node164&#45;&gt;Node160</title>
<path fill="none" stroke="#191970" d="M489.8863,-100.4876C552.8478,-103.3865 647.7489,-107.7561 709.9169,-110.6185"/>
<polygon fill="#191970" stroke="#191970" points="489.8296,-96.9813 479.6791,-100.0176 489.5076,-103.9739 489.8296,-96.9813"/>
</g>
<!-- Node164&#45;&gt;Node162 -->
<g id="edge12" class="edge">
<title>Node164&#45;&gt;Node162</title>
<path fill="none" stroke="#191970" d="M489.442,-113.6105C506.2262,-117.8065 524.2446,-122.3112 540.8001,-126.45"/>
<polygon fill="#191970" stroke="#191970" points="490.2731,-110.2106 479.7227,-111.1807 488.5753,-117.0016 490.2731,-110.2106"/>
</g>
<!-- Node166 -->
<g id="node11" class="node">
<title>Node166</title>
<g id="a_node11"><a xlink:href="TooSigning_8h.html#a58143364a83636a3d2df075a95cb2bfc" target="_top" xlink:title="TooSigning_request\l_nonce_from_node_id">
<polygon fill="#ffffff" stroke="#000000" points="545,-.5 545,-30.5 657,-30.5 657,-.5 545,-.5"/>
<text text-anchor="start" x="553" y="-18.5" font-family="Helvetica,sans-Serif" font-size="10.00" fill="#000000">TooSigning_request</text>
<text text-anchor="middle" x="601" y="-7.5" font-family="Helvetica,sans-Serif" font-size="10.00" fill="#000000">_nonce_from_node_id</text>
</a>
</g>
</g>
<!-- Node165&#45;&gt;Node166 -->
<g id="edge14" class="edge">
<title>Node165&#45;&gt;Node166</title>
<path fill="none" stroke="#191970" d="M502.3396,-26.1508C516.6064,-24.6107 531.2525,-23.0296 544.7482,-21.5726"/>
<polygon fill="#191970" stroke="#191970" points="501.6067,-22.7095 492.0401,-27.2627 502.358,-29.6691 501.6067,-22.7095"/>
</g>
<!-- Node167 -->
<g id="node12" class="node">
<title>Node167</title>
<g id="a_node12"><a xlink:href="TooSigning_8h.html#af7ec4002cf8cf81195f3745703e04b22" target="_top" xlink:title="TooSigning_requested\l_noncelist_retry_all">
<polygon fill="#ffffff" stroke="#000000" points="716,-.5 716,-30.5 829,-30.5 829,-.5 716,-.5"/>
<text text-anchor="start" x="724" y="-18.5" font-family="Helvetica,sans-Serif" font-size="10.00" fill="#000000">TooSigning_requested</text>
<text text-anchor="middle" x="772.5" y="-7.5" font-family="Helvetica,sans-Serif" font-size="10.00" fill="#000000">_noncelist_retry_all</text>
</a>
</g>
</g>
<!-- Node166&#45;&gt;Node167 -->
<g id="edge15" class="edge">
<title>Node166&#45;&gt;Node167</title>
<path fill="none" stroke="#191970" d="M667.5046,-15.5C683.4977,-15.5 700.4326,-15.5 715.9249,-15.5"/>
<polygon fill="#191970" stroke="#191970" points="667.1555,-12.0001 657.1555,-15.5 667.1555,-19.0001 667.1555,-12.0001"/>
</g>
<!-- Node168 -->
<g id="node13" class="node">
<title>Node168</title>
<g id="a_node13"><a xlink:href="TooSigning_8h.html#af68b8dda897cf488129c205ad532ca9e" target="_top" xlink:title="TooSigning_signed_network\l_update">
<polygon fill="#ffffff" stroke="#000000" points="871,-27.5 871,-57.5 1010,-57.5 1010,-27.5 871,-27.5"/>
<text text-anchor="start" x="879" y="-45.5" font-family="Helvetica,sans-Serif" font-size="10.00" fill="#000000">TooSigning_signed_network</text>
<text text-anchor="middle" x="940.5" y="-34.5" font-family="Helvetica,sans-Serif" font-size="10.00" fill="#000000">_update</text>
</a>
</g>
</g>
<!-- Node167&#45;&gt;Node168 -->
<g id="edge16" class="edge">
<title>Node167&#45;&gt;Node168</title>
<path fill="none" stroke="#191970" d="M839.5393,-26.2742C849.8442,-27.9303 860.5044,-29.6436 870.8642,-31.3085"/>
<polygon fill="#191970" stroke="#191970" points="839.8058,-22.7722 829.3771,-24.641 838.695,-29.6835 839.8058,-22.7722"/>
</g>
<!-- Node169 -->
<g id="node14" class="node">
<title>Node169</title>
<g id="a_node14"><a xlink:href="TooNetworking_8h.html#a7382ba1aed5405c3adc02011ea6c45dd" target="_top" xlink:title="TooNetworking_connection\l_maintenance">
<polygon fill="#ffffff" stroke="#000000" points="1046,-40.5 1046,-70.5 1181,-70.5 1181,-40.5 1046,-40.5"/>
<text text-anchor="start" x="1054" y="-58.5" font-family="Helvetica,sans-Serif" font-size="10.00" fill="#000000">TooNetworking_connection</text>
<text text-anchor="middle" x="1113.5" y="-47.5" font-family="Helvetica,sans-Serif" font-size="10.00" fill="#000000">_maintenance</text>
</a>
</g>
</g>
<!-- Node168&#45;&gt;Node169 -->
<g id="edge17" class="edge">
<title>Node168&#45;&gt;Node169</title>
<path fill="none" stroke="#191970" d="M1020.6166,-48.5203C1029.0706,-49.1556 1037.6064,-49.797 1045.8985,-50.4201"/>
<polygon fill="#191970" stroke="#191970" points="1020.6012,-45.0094 1010.3671,-47.7501 1020.0766,-51.9897 1020.6012,-45.0094"/>
</g>
<!-- Node169&#45;&gt;Node161 -->
<g id="edge18" class="edge">
<title>Node169&#45;&gt;Node161</title>
<path fill="none" stroke="#191970" d="M1191.1566,-69.6194C1200.6588,-71.347 1209.5454,-72.9628 1216.7679,-74.276"/>
<polygon fill="#191970" stroke="#191970" points="1191.5402,-66.1318 1181.0754,-67.7864 1190.288,-73.0189 1191.5402,-66.1318"/>
</g>
</g>
</svg>
