<?xml version="1.0" encoding="UTF-8" standalone="no"?>
<!DOCTYPE svg PUBLIC "-//W3C//DTD SVG 1.1//EN"
 "http://www.w3.org/Graphics/SVG/1.1/DTD/svg11.dtd">
<!-- Generated by graphviz version 2.40.1 (20161225.0304)
 -->
<!-- Title: TooNetworking_connection_fix Pages: 1 -->
<svg width="417pt" height="78pt"
 viewBox="0.00 0.00 417.00 77.50" xmlns="http://www.w3.org/2000/svg" xmlns:xlink="http://www.w3.org/1999/xlink">
<g id="graph0" class="graph" transform="scale(1 1) rotate(0) translate(4 73.5)">
<title>TooNetworking_connection_fix</title>
<polygon fill="#ffffff" stroke="transparent" points="-4,4 -4,-73.5 413,-73.5 413,4 -4,4"/>
<!-- Node114 -->
<g id="node1" class="node">
<title>Node114</title>
<polygon fill="#bfbfbf" stroke="#000000" points="0,-22.5 0,-41.5 151,-41.5 151,-22.5 0,-22.5"/>
<text text-anchor="middle" x="75.5" y="-29.5" font-family="Helvetica,sans-Serif" font-size="10.00" fill="#000000">TooNetworking_connection_fix</text>
</g>
<!-- Node115 -->
<g id="node2" class="node">
<title>Node115</title>
<g id="a_node2"><a xlink:href="TooNetworking_8cpp.html#ac352268e177fa2ddf91c8afa5cd04bbf" target="_top" xlink:title="TooNetworking_connection\l_available">
<polygon fill="#ffffff" stroke="#000000" points="187,-39 187,-69 322,-69 322,-39 187,-39"/>
<text text-anchor="start" x="195" y="-57" font-family="Helvetica,sans-Serif" font-size="10.00" fill="#000000">TooNetworking_connection</text>
<text text-anchor="middle" x="254.5" y="-46" font-family="Helvetica,sans-Serif" font-size="10.00" fill="#000000">_available</text>
</a>
</g>
</g>
<!-- Node114&#45;&gt;Node115 -->
<g id="edge1" class="edge">
<title>Node114&#45;&gt;Node115</title>
<path fill="none" stroke="#191970" d="M151.1527,-41.2981C159.6566,-42.3433 168.3316,-43.4095 176.8602,-44.4577"/>
<polygon fill="#191970" stroke="#191970" points="176.4336,-47.9315 186.7859,-45.6776 177.2876,-40.9838 176.4336,-47.9315"/>
</g>
<!-- Node117 -->
<g id="node4" class="node">
<title>Node117</title>
<g id="a_node4"><a xlink:href="TooNetworking_8cpp.html#abdda8f09b9d475ed2c23a2376e2e0151" target="_top" xlink:title="mesh">
<polygon fill="#ffffff" stroke="#000000" points="234,-.5 234,-19.5 275,-19.5 275,-.5 234,-.5"/>
<text text-anchor="middle" x="254.5" y="-7.5" font-family="Helvetica,sans-Serif" font-size="10.00" fill="#000000">mesh</text>
</a>
</g>
</g>
<!-- Node114&#45;&gt;Node117 -->
<g id="edge3" class="edge">
<title>Node114&#45;&gt;Node117</title>
<path fill="none" stroke="#191970" d="M151.1527,-22.7019C176.7108,-19.5607 203.8129,-16.2297 223.8483,-13.7673"/>
<polygon fill="#191970" stroke="#191970" points="224.4176,-17.2237 233.9159,-12.5299 223.5636,-10.276 224.4176,-17.2237"/>
</g>
<!-- Node116 -->
<g id="node3" class="node">
<title>Node116</title>
<g id="a_node3"><a xlink:href="TooNetworking_8cpp.html#aa7924d94ea32c8d33a81ff41f8678320" target="_top" xlink:title="network">
<polygon fill="#ffffff" stroke="#000000" points="358,-44.5 358,-63.5 409,-63.5 409,-44.5 358,-44.5"/>
<text text-anchor="middle" x="383.5" y="-51.5" font-family="Helvetica,sans-Serif" font-size="10.00" fill="#000000">network</text>
</a>
</g>
</g>
<!-- Node115&#45;&gt;Node116 -->
<g id="edge2" class="edge">
<title>Node115&#45;&gt;Node116</title>
<path fill="none" stroke="#191970" d="M322.0225,-54C330.9236,-54 339.7478,-54 347.8151,-54"/>
<polygon fill="#191970" stroke="#191970" points="347.9271,-57.5001 357.927,-54 347.927,-50.5001 347.9271,-57.5001"/>
</g>
</g>
</svg>
