<?xml version="1.0" encoding="UTF-8" standalone="no"?>
<!DOCTYPE svg PUBLIC "-//W3C//DTD SVG 1.1//EN"
 "http://www.w3.org/Graphics/SVG/1.1/DTD/svg11.dtd">
<!-- Generated by graphviz version 2.40.1 (20161225.0304)
 -->
<!-- Title: TooNetworking_send_signed Pages: 1 -->
<!--zoomable 636 -->
<svg id="main" version="1.1" xmlns="http://www.w3.org/2000/svg" xmlns:xlink="http://www.w3.org/1999/xlink" xml:space="preserve" onload="init(evt)">
<style type="text/css"><![CDATA[
.edge:hover path { stroke: red; }
.edge:hover polygon { stroke: red; fill: red; }
]]></style>
<script type="text/javascript"><![CDATA[
var edges = document.getElementsByTagName('g');
if (edges && edges.length) {
  for (var i=0;i<edges.length;i++) {
    if (edges[i].id.substr(0,4)=='edge') {
      edges[i].setAttribute('class','edge');
    }
  }
}
]]></script>
        <defs>
                <circle id="rim" cx="0" cy="0" r="7"/>
                <circle id="rim2" cx="0" cy="0" r="3.5"/>
                <g id="zoomPlus">
                        <use xlink:href="#rim" fill="#404040">
                                <set attributeName="fill" to="#808080" begin="zoomplus.mouseover" end="zoomplus.mouseout"/>
                        </use>
                        <path d="M-4,0h8M0,-4v8" fill="none" stroke="white" stroke-width="1.5" pointer-events="none"/>
                </g>
                <g id="zoomMin">
                        <use xlink:href="#rim" fill="#404040">
                                <set attributeName="fill" to="#808080" begin="zoomminus.mouseover" end="zoomminus.mouseout"/>
                        </use>
                        <path d="M-4,0h8" fill="none" stroke="white" stroke-width="1.5" pointer-events="none"/>
                </g>
                <g id="dirArrow">
                        <path fill="none" stroke="white" stroke-width="1.5" d="M0,-3.0v7 M-2.5,-0.5L0,-3.0L2.5,-0.5"/>
                </g>
               <g id="resetDef">
                       <use xlink:href="#rim2" fill="#404040">
                               <set attributeName="fill" to="#808080" begin="reset.mouseover" end="reset.mouseout"/>
                       </use>
               </g>
        </defs>

<script type="text/javascript">
var viewWidth = 1574;
var viewHeight = 636;
var sectionId = 'dynsection-25';
</script>
<script xlink:href="svgpan.js"/>
<svg id="graph" class="graph">
<g id="viewport">
<title>TooNetworking_send_signed</title>
<polygon fill="#ffffff" stroke="transparent" points="-4,4 -4,-632.3837 1570,-632.3837 1570,4 -4,4"/>
<!-- Node240 -->
<g id="node1" class="node">
<title>Node240</title>
<polygon fill="#bfbfbf" stroke="#000000" points="0,-300.5 0,-330.5 109,-330.5 109,-300.5 0,-300.5"/>
<text text-anchor="start" x="8" y="-318.5" font-family="Helvetica,sans-Serif" font-size="10.00" fill="#000000">TooNetworking_send</text>
<text text-anchor="middle" x="54.5" y="-307.5" font-family="Helvetica,sans-Serif" font-size="10.00" fill="#000000">_signed</text>
</g>
<!-- Node241 -->
<g id="node2" class="node">
<title>Node241</title>
<g id="a_node2"><a xlink:href="TooSigning_8cpp.html#a729dc41cfb692fb0aea083c38c5f3577" target="_top" xlink:title="TooSigning_received\l_noncelist_find_from_ID">
<polygon fill="#ffffff" stroke="#000000" points="328.5,-300.5 328.5,-330.5 450.5,-330.5 450.5,-300.5 328.5,-300.5"/>
<text text-anchor="start" x="336.5" y="-318.5" font-family="Helvetica,sans-Serif" font-size="10.00" fill="#000000">TooSigning_received</text>
<text text-anchor="middle" x="389.5" y="-307.5" font-family="Helvetica,sans-Serif" font-size="10.00" fill="#000000">_noncelist_find_from_ID</text>
</a>
</g>
</g>
<!-- Node240&#45;&gt;Node241 -->
<g id="edge1" class="edge">
<title>Node240&#45;&gt;Node241</title>
<path fill="none" stroke="#191970" d="M109.0691,-315.5C166.0596,-315.5 255.6983,-315.5 318.2417,-315.5"/>
<polygon fill="#191970" stroke="#191970" points="318.4249,-319.0001 328.4248,-315.5 318.4248,-312.0001 318.4249,-319.0001"/>
</g>
<!-- Node242 -->
<g id="node3" class="node">
<title>Node242</title>
<g id="a_node3"><a xlink:href="group__TOOSIGNING__DEBUGGING.html#ga974dd51d29b9bd928de51c481289aad7" target="_top" xlink:title="TooSigning_random_data\l_print">
<polygon fill="#ffffff" stroke="#000000" points="500,-323.5 500,-353.5 627,-353.5 627,-323.5 500,-323.5"/>
<text text-anchor="start" x="508" y="-341.5" font-family="Helvetica,sans-Serif" font-size="10.00" fill="#000000">TooSigning_random_data</text>
<text text-anchor="middle" x="563.5" y="-330.5" font-family="Helvetica,sans-Serif" font-size="10.00" fill="#000000">_print</text>
</a>
</g>
</g>
<!-- Node240&#45;&gt;Node242 -->
<g id="edge2" class="edge">
<title>Node240&#45;&gt;Node242</title>
<path fill="none" stroke="#191970" d="M109.4296,-324.8353C121.1428,-326.5908 133.4602,-328.2614 145,-329.5 280.7523,-344.0706 315.4735,-341.7244 452,-340.5 464.221,-340.3904 477.1945,-340.2133 489.8064,-340.0085"/>
<polygon fill="#191970" stroke="#191970" points="489.8827,-343.5078 499.8221,-339.8392 489.7643,-336.5088 489.8827,-343.5078"/>
</g>
<!-- Node243 -->
<g id="node4" class="node">
<title>Node243</title>
<g id="a_node4"><a xlink:href="TooNetworking_8cpp.html#a9f893c3218491ee86282fdcd9f376500" target="_top" xlink:title="TooNetworking_send\l_signed_">
<polygon fill="#ffffff" stroke="#000000" points="335,-396.5 335,-426.5 444,-426.5 444,-396.5 335,-396.5"/>
<text text-anchor="start" x="343" y="-414.5" font-family="Helvetica,sans-Serif" font-size="10.00" fill="#000000">TooNetworking_send</text>
<text text-anchor="middle" x="389.5" y="-403.5" font-family="Helvetica,sans-Serif" font-size="10.00" fill="#000000">_signed_</text>
</a>
</g>
</g>
<!-- Node240&#45;&gt;Node243 -->
<g id="edge3" class="edge">
<title>Node240&#45;&gt;Node243</title>
<path fill="none" stroke="#191970" d="M73.0135,-330.676C90.4791,-344.1533 117.9498,-363.2545 145,-373.5 203.442,-395.6355 274.4192,-404.8845 324.8119,-408.7447"/>
<polygon fill="#191970" stroke="#191970" points="324.6988,-412.2455 334.9232,-409.4683 325.1985,-405.2634 324.6988,-412.2455"/>
</g>
<!-- Node263 -->
<g id="node24" class="node">
<title>Node263</title>
<g id="a_node24"><a xlink:href="TooSigning_8cpp.html#a53b55547df3d4276f3ca6a74d601549a" target="_top" xlink:title="TooSigning_requested\l_noncelist_add">
<polygon fill="#ffffff" stroke="#000000" points="333,-98.5 333,-128.5 446,-128.5 446,-98.5 333,-98.5"/>
<text text-anchor="start" x="341" y="-116.5" font-family="Helvetica,sans-Serif" font-size="10.00" fill="#000000">TooSigning_requested</text>
<text text-anchor="middle" x="389.5" y="-105.5" font-family="Helvetica,sans-Serif" font-size="10.00" fill="#000000">_noncelist_add</text>
</a>
</g>
</g>
<!-- Node240&#45;&gt;Node263 -->
<g id="edge32" class="edge">
<title>Node240&#45;&gt;Node263</title>
<path fill="none" stroke="#191970" d="M74.9853,-300.4394C93.0957,-287.3194 120.3852,-268.0193 145,-252.5 216.7858,-207.2402 303.7925,-159.3682 352.2665,-133.2914"/>
<polygon fill="#191970" stroke="#191970" points="353.9875,-136.34 361.1442,-128.5276 350.6777,-130.1719 353.9875,-136.34"/>
</g>
<!-- Node267 -->
<g id="node28" class="node">
<title>Node267</title>
<g id="a_node28"><a xlink:href="TooNetworking_8cpp.html#aa8040740e6ffca2f68beb7f8e57d63fc" target="_top" xlink:title="TooNetworking_bufferlist_add">
<polygon fill="#ffffff" stroke="#000000" points="145,-262 145,-281 291,-281 291,-262 145,-262"/>
<text text-anchor="middle" x="218" y="-269" font-family="Helvetica,sans-Serif" font-size="10.00" fill="#000000">TooNetworking_bufferlist_add</text>
</a>
</g>
</g>
<!-- Node240&#45;&gt;Node267 -->
<g id="edge36" class="edge">
<title>Node240&#45;&gt;Node267</title>
<path fill="none" stroke="#191970" d="M109.398,-300.7262C129.9379,-295.1987 153.022,-288.9864 172.609,-283.7153"/>
<polygon fill="#191970" stroke="#191970" points="173.754,-287.0318 182.5009,-281.0533 171.9349,-280.2723 173.754,-287.0318"/>
</g>
<!-- Node243&#45;&gt;Node242 -->
<g id="edge7" class="edge">
<title>Node243&#45;&gt;Node242</title>
<path fill="none" stroke="#191970" d="M423.1159,-396.4937C442.0985,-388.1032 466.2991,-377.5452 488,-368.5 496.8894,-364.7948 506.408,-360.9318 515.5877,-357.2589"/>
<polygon fill="#191970" stroke="#191970" points="516.9949,-360.4659 524.9907,-353.5147 514.4053,-353.9625 516.9949,-360.4659"/>
</g>
<!-- Node244 -->
<g id="node5" class="node">
<title>Node244</title>
<g id="a_node5"><a xlink:href="TooNetworking_8cpp.html#ac352268e177fa2ddf91c8afa5cd04bbf" target="_top" xlink:title="TooNetworking_connection\l_available">
<polygon fill="#ffffff" stroke="#000000" points="675,-361.5 675,-391.5 810,-391.5 810,-361.5 675,-361.5"/>
<text text-anchor="start" x="683" y="-379.5" font-family="Helvetica,sans-Serif" font-size="10.00" fill="#000000">TooNetworking_connection</text>
<text text-anchor="middle" x="742.5" y="-368.5" font-family="Helvetica,sans-Serif" font-size="10.00" fill="#000000">_available</text>
</a>
</g>
</g>
<!-- Node243&#45;&gt;Node244 -->
<g id="edge4" class="edge">
<title>Node243&#45;&gt;Node244</title>
<path fill="none" stroke="#191970" d="M444.2027,-405.9144C458.4592,-404.4675 473.8041,-402.9178 488,-401.5 547.3079,-395.5765 614.4027,-388.9904 664.8066,-384.0658"/>
<polygon fill="#191970" stroke="#191970" points="665.3661,-387.5279 674.9785,-383.0723 664.6856,-380.561 665.3661,-387.5279"/>
</g>
<!-- Node246 -->
<g id="node7" class="node">
<title>Node246</title>
<g id="a_node7"><a xlink:href="TooNetworking_8cpp.html#af4808c2c0857cde9a6721ad54f5ab42d" target="_top" xlink:title="TooNetworking_other\l_node_is_online">
<polygon fill="#ffffff" stroke="#000000" points="508.5,-235.5 508.5,-265.5 618.5,-265.5 618.5,-235.5 508.5,-235.5"/>
<text text-anchor="start" x="516.5" y="-253.5" font-family="Helvetica,sans-Serif" font-size="10.00" fill="#000000">TooNetworking_other</text>
<text text-anchor="middle" x="563.5" y="-242.5" font-family="Helvetica,sans-Serif" font-size="10.00" fill="#000000">_node_is_online</text>
</a>
</g>
</g>
<!-- Node243&#45;&gt;Node246 -->
<g id="edge6" class="edge">
<title>Node243&#45;&gt;Node246</title>
<path fill="none" stroke="#191970" d="M404.6831,-396.2428C418.0302,-382.3883 437.5282,-361.0391 452,-340.5 471.021,-313.5043 462.5807,-296.5815 488,-275.5 491.4408,-272.6463 495.2189,-270.1146 499.1938,-267.8691"/>
<polygon fill="#191970" stroke="#191970" points="500.7711,-270.9936 508.1557,-263.3963 497.6451,-264.7303 500.7711,-270.9936"/>
</g>
<!-- Node247 -->
<g id="node8" class="node">
<title>Node247</title>
<g id="a_node8"><a xlink:href="TooSigning_8cpp.html#a3994a32f8b2275d51b6832644f703bc7" target="_top" xlink:title="TooSigning_read_hmac\l_from_progmem">
<polygon fill="#ffffff" stroke="#000000" points="504,-563.5 504,-593.5 623,-593.5 623,-563.5 504,-563.5"/>
<text text-anchor="start" x="512" y="-581.5" font-family="Helvetica,sans-Serif" font-size="10.00" fill="#000000">TooSigning_read_hmac</text>
<text text-anchor="middle" x="563.5" y="-570.5" font-family="Helvetica,sans-Serif" font-size="10.00" fill="#000000">_from_progmem</text>
</a>
</g>
</g>
<!-- Node243&#45;&gt;Node247 -->
<g id="edge8" class="edge">
<title>Node243&#45;&gt;Node247</title>
<path fill="none" stroke="#191970" d="M396.0343,-426.7665C409.1897,-455.7235 441.6246,-518.8235 488,-553.5 490.5174,-555.3824 493.1842,-557.1277 495.9538,-558.7454"/>
<polygon fill="#191970" stroke="#191970" points="494.6044,-561.9883 505.0924,-563.4892 497.8295,-555.7755 494.6044,-561.9883"/>
</g>
<!-- Node248 -->
<g id="node9" class="node">
<title>Node248</title>
<g id="a_node9"><a xlink:href="TooSigning_8cpp.html#a1e2cd2b37702263e1fe166395350bf08" target="_top" xlink:title="TooSigning_init_hmac">
<polygon fill="#ffffff" stroke="#000000" points="507,-525 507,-544 620,-544 620,-525 507,-525"/>
<text text-anchor="middle" x="563.5" y="-532" font-family="Helvetica,sans-Serif" font-size="10.00" fill="#000000">TooSigning_init_hmac</text>
</a>
</g>
</g>
<!-- Node243&#45;&gt;Node248 -->
<g id="edge9" class="edge">
<title>Node243&#45;&gt;Node248</title>
<path fill="none" stroke="#191970" d="M399.6413,-426.8149C415.6325,-449.7175 448.9385,-492.6371 488,-515.5 491.844,-517.7499 495.9494,-519.7354 500.1852,-521.4873"/>
<polygon fill="#191970" stroke="#191970" points="499.0221,-524.7887 509.6156,-524.9613 501.4419,-518.2203 499.0221,-524.7887"/>
</g>
<!-- Node257 -->
<g id="node18" class="node">
<title>Node257</title>
<g id="a_node18"><a xlink:href="group__TOOSIGNING__HASHING.html#gafb2935303b05255e80a7a6fa4be7cf57" target="_top" xlink:title="TooSigning_hash_data">
<polygon fill="#ffffff" stroke="#000000" points="684.5,-588 684.5,-607 800.5,-607 800.5,-588 684.5,-588"/>
<text text-anchor="middle" x="742.5" y="-595" font-family="Helvetica,sans-Serif" font-size="10.00" fill="#000000">TooSigning_hash_data</text>
</a>
</g>
</g>
<!-- Node243&#45;&gt;Node257 -->
<g id="edge19" class="edge">
<title>Node243&#45;&gt;Node257</title>
<path fill="none" stroke="#191970" d="M391.8669,-426.5572C398.7236,-464.4274 422.4608,-563.4623 488,-603.5 555.4979,-644.7342 653.0015,-625.3836 705.5701,-610.0042"/>
<polygon fill="#191970" stroke="#191970" points="706.6005,-613.3492 715.1541,-607.0973 704.5687,-606.6505 706.6005,-613.3492"/>
</g>
<!-- Node258 -->
<g id="node19" class="node">
<title>Node258</title>
<g id="a_node19"><a xlink:href="group__TOOSIGNING__HASHING.html#gae743dd1289d92f915352e40b047b4cc8" target="_top" xlink:title="TooSigning_hash_store">
<polygon fill="#ffffff" stroke="#000000" points="504,-449 504,-468 623,-468 623,-449 504,-449"/>
<text text-anchor="middle" x="563.5" y="-456" font-family="Helvetica,sans-Serif" font-size="10.00" fill="#000000">TooSigning_hash_store</text>
</a>
</g>
</g>
<!-- Node243&#45;&gt;Node258 -->
<g id="edge21" class="edge">
<title>Node243&#45;&gt;Node258</title>
<path fill="none" stroke="#191970" d="M441.305,-426.5458C456.3405,-430.8259 472.8022,-435.4286 488,-439.5 496.6322,-441.8125 505.8417,-444.1979 514.7544,-446.4642"/>
<polygon fill="#191970" stroke="#191970" points="514.0918,-449.9067 524.6445,-448.9622 515.806,-443.1199 514.0918,-449.9067"/>
</g>
<!-- Node259 -->
<g id="node20" class="node">
<title>Node259</title>
<g id="a_node20"><a xlink:href="TooSigning_8cpp.html#ab8a2415b95a77c91ffbc6ebbde622f64" target="_top" xlink:title="TooSigning_get_hmac">
<polygon fill="#ffffff" stroke="#000000" points="507,-487 507,-506 620,-506 620,-487 507,-487"/>
<text text-anchor="middle" x="563.5" y="-494" font-family="Helvetica,sans-Serif" font-size="10.00" fill="#000000">TooSigning_get_hmac</text>
</a>
</g>
</g>
<!-- Node243&#45;&gt;Node259 -->
<g id="edge22" class="edge">
<title>Node243&#45;&gt;Node259</title>
<path fill="none" stroke="#191970" d="M407.9702,-426.7369C426.953,-441.6816 457.9061,-464.1172 488,-477.5 493.4592,-479.9277 499.2841,-482.0835 505.1857,-483.9889"/>
<polygon fill="#191970" stroke="#191970" points="504.5554,-487.4535 515.1389,-486.963 506.5596,-480.7465 504.5554,-487.4535"/>
</g>
<!-- Node261 -->
<g id="node22" class="node">
<title>Node261</title>
<g id="a_node22"><a xlink:href="TooNetworking_8cpp.html#a46674b3fdc9ee370b0839869aa145b75" target="_top" xlink:title="TooNetworking_send">
<polygon fill="#ffffff" stroke="#000000" points="509,-285 509,-304 618,-304 618,-285 509,-285"/>
<text text-anchor="middle" x="563.5" y="-292" font-family="Helvetica,sans-Serif" font-size="10.00" fill="#000000">TooNetworking_send</text>
</a>
</g>
</g>
<!-- Node243&#45;&gt;Node261 -->
<g id="edge27" class="edge">
<title>Node243&#45;&gt;Node261</title>
<path fill="none" stroke="#191970" d="M400.7447,-396.2292C417.3937,-374.728 450.6822,-335.7846 488,-314.5 492.7114,-311.8128 497.7938,-309.4771 503.0162,-307.4486"/>
<polygon fill="#191970" stroke="#191970" points="504.2375,-310.7293 512.5177,-304.1195 501.9229,-304.1231 504.2375,-310.7293"/>
</g>
<!-- Node262 -->
<g id="node23" class="node">
<title>Node262</title>
<g id="a_node23"><a xlink:href="TooNetworking_8cpp.html#aefc5dad88b637efb11a3a7b2f76a19b9" target="_top" xlink:title="TooNetworking_connection_fix">
<polygon fill="#ffffff" stroke="#000000" points="488,-411 488,-430 639,-430 639,-411 488,-411"/>
<text text-anchor="middle" x="563.5" y="-418" font-family="Helvetica,sans-Serif" font-size="10.00" fill="#000000">TooNetworking_connection_fix</text>
</a>
</g>
</g>
<!-- Node243&#45;&gt;Node262 -->
<g id="edge29" class="edge">
<title>Node243&#45;&gt;Node262</title>
<path fill="none" stroke="#191970" d="M444.0773,-414.323C454.7921,-414.8772 466.2725,-415.471 477.7246,-416.0633"/>
<polygon fill="#191970" stroke="#191970" points="477.5939,-419.5612 487.7614,-416.5825 477.9555,-412.5705 477.5939,-419.5612"/>
</g>
<!-- Node245 -->
<g id="node6" class="node">
<title>Node245</title>
<g id="a_node6"><a xlink:href="TooNetworking_8cpp.html#abdda8f09b9d475ed2c23a2376e2e0151" target="_top" xlink:title="mesh">
<polygon fill="#ffffff" stroke="#000000" points="878,-367 878,-386 919,-386 919,-367 878,-367"/>
<text text-anchor="middle" x="898.5" y="-374" font-family="Helvetica,sans-Serif" font-size="10.00" fill="#000000">mesh</text>
</a>
</g>
</g>
<!-- Node244&#45;&gt;Node245 -->
<g id="edge5" class="edge">
<title>Node244&#45;&gt;Node245</title>
<path fill="none" stroke="#191970" d="M810.0166,-376.5C830.1461,-376.5 851.2244,-376.5 867.7568,-376.5"/>
<polygon fill="#191970" stroke="#191970" points="867.9089,-380.0001 877.9089,-376.5 867.9089,-373.0001 867.9089,-380.0001"/>
</g>
<!-- Node249 -->
<g id="node10" class="node">
<title>Node249</title>
<g id="a_node10"><a xlink:href="classSha256Class.html#a73d3dcea6eb667fd146d12aa5d106939" target="_top" xlink:title="Sha256Class::initHmac">
<polygon fill="#ffffff" stroke="#000000" points="682.5,-525 682.5,-544 802.5,-544 802.5,-525 682.5,-525"/>
<text text-anchor="middle" x="742.5" y="-532" font-family="Helvetica,sans-Serif" font-size="10.00" fill="#000000">Sha256Class::initHmac</text>
</a>
</g>
</g>
<!-- Node248&#45;&gt;Node249 -->
<g id="edge10" class="edge">
<title>Node248&#45;&gt;Node249</title>
<path fill="none" stroke="#191970" d="M620.1367,-534.5C636.6615,-534.5 654.922,-534.5 672.1835,-534.5"/>
<polygon fill="#191970" stroke="#191970" points="672.2107,-538.0001 682.2107,-534.5 672.2106,-531.0001 672.2107,-538.0001"/>
</g>
<!-- Node250 -->
<g id="node11" class="node">
<title>Node250</title>
<g id="a_node11"><a xlink:href="classSha256Class.html#ac1025d69c51fcd1b882ee41114e58339" target="_top" xlink:title="Sha256Class::init">
<polygon fill="#ffffff" stroke="#000000" points="851.5,-487 851.5,-506 945.5,-506 945.5,-487 851.5,-487"/>
<text text-anchor="middle" x="898.5" y="-494" font-family="Helvetica,sans-Serif" font-size="10.00" fill="#000000">Sha256Class::init</text>
</a>
</g>
</g>
<!-- Node249&#45;&gt;Node250 -->
<g id="edge11" class="edge">
<title>Node249&#45;&gt;Node250</title>
<path fill="none" stroke="#191970" d="M781.8654,-524.911C802.4513,-519.8965 827.8405,-513.7119 849.669,-508.3947"/>
<polygon fill="#191970" stroke="#191970" points="850.5302,-511.7874 859.4177,-506.0201 848.8734,-504.9863 850.5302,-511.7874"/>
</g>
<!-- Node251 -->
<g id="node12" class="node">
<title>Node251</title>
<g id="a_node12"><a xlink:href="classSha256Class.html#a0f0fc4bd4d8c53d232df0d41d7ea25e0" target="_top" xlink:title="Sha256Class::write">
<polygon fill="#ffffff" stroke="#000000" points="847.5,-563 847.5,-582 949.5,-582 949.5,-563 847.5,-563"/>
<text text-anchor="middle" x="898.5" y="-570" font-family="Helvetica,sans-Serif" font-size="10.00" fill="#000000">Sha256Class::write</text>
</a>
</g>
</g>
<!-- Node249&#45;&gt;Node251 -->
<g id="edge12" class="edge">
<title>Node249&#45;&gt;Node251</title>
<path fill="none" stroke="#191970" d="M781.8654,-544.089C802.4513,-549.1035 827.8405,-555.2881 849.669,-560.6053"/>
<polygon fill="#191970" stroke="#191970" points="848.8734,-564.0137 859.4177,-562.9799 850.5302,-557.2126 848.8734,-564.0137"/>
</g>
<!-- Node255 -->
<g id="node16" class="node">
<title>Node255</title>
<g id="a_node16"><a xlink:href="classSha256Class.html#a0ca245a22f8b056a3d1902da3c64b705" target="_top" xlink:title="Sha256Class::result">
<polygon fill="#ffffff" stroke="#000000" points="846,-525 846,-544 951,-544 951,-525 846,-525"/>
<text text-anchor="middle" x="898.5" y="-532" font-family="Helvetica,sans-Serif" font-size="10.00" fill="#000000">Sha256Class::result</text>
</a>
</g>
</g>
<!-- Node249&#45;&gt;Node255 -->
<g id="edge16" class="edge">
<title>Node249&#45;&gt;Node255</title>
<path fill="none" stroke="#191970" d="M802.8137,-534.5C813.5994,-534.5 824.8613,-534.5 835.7144,-534.5"/>
<polygon fill="#191970" stroke="#191970" points="835.9659,-538.0001 845.9658,-534.5 835.9658,-531.0001 835.9659,-538.0001"/>
</g>
<!-- Node252 -->
<g id="node13" class="node">
<title>Node252</title>
<g id="a_node13"><a xlink:href="classSha256Class.html#ab0b46743e3d59b1c68f52ed89dfaff50" target="_top" xlink:title="Sha256Class::addUncounted">
<polygon fill="#ffffff" stroke="#000000" points="1120,-544 1120,-563 1264,-563 1264,-544 1120,-544"/>
<text text-anchor="middle" x="1192" y="-551" font-family="Helvetica,sans-Serif" font-size="10.00" fill="#000000">Sha256Class::addUncounted</text>
</a>
</g>
</g>
<!-- Node251&#45;&gt;Node252 -->
<g id="edge13" class="edge">
<title>Node251&#45;&gt;Node252</title>
<path fill="none" stroke="#191970" d="M949.6238,-569.1905C993.737,-566.3347 1058.2694,-562.1572 1109.6571,-558.8305"/>
<polygon fill="#191970" stroke="#191970" points="1109.9965,-562.316 1119.7495,-558.1772 1109.5442,-555.3306 1109.9965,-562.316"/>
</g>
<!-- Node253 -->
<g id="node14" class="node">
<title>Node253</title>
<g id="a_node14"><a xlink:href="classSha256Class.html#a399d2a23951e2130f54af8ac7712068f" target="_top" xlink:title="Sha256Class::hashBlock">
<polygon fill="#ffffff" stroke="#000000" points="1300,-544 1300,-563 1427,-563 1427,-544 1300,-544"/>
<text text-anchor="middle" x="1363.5" y="-551" font-family="Helvetica,sans-Serif" font-size="10.00" fill="#000000">Sha256Class::hashBlock</text>
</a>
</g>
</g>
<!-- Node252&#45;&gt;Node253 -->
<g id="edge14" class="edge">
<title>Node252&#45;&gt;Node253</title>
<path fill="none" stroke="#191970" d="M1264.2344,-553.5C1272.6298,-553.5 1281.2026,-553.5 1289.6198,-553.5"/>
<polygon fill="#191970" stroke="#191970" points="1289.7873,-557.0001 1299.7873,-553.5 1289.7873,-550.0001 1289.7873,-557.0001"/>
</g>
<!-- Node254 -->
<g id="node15" class="node">
<title>Node254</title>
<g id="a_node15"><a xlink:href="classSha256Class.html#ae275718ce9813bb33b2d8d8fbf018bd6" target="_top" xlink:title="Sha256Class::ror32">
<polygon fill="#ffffff" stroke="#000000" points="1463,-544 1463,-563 1566,-563 1566,-544 1463,-544"/>
<text text-anchor="middle" x="1514.5" y="-551" font-family="Helvetica,sans-Serif" font-size="10.00" fill="#000000">Sha256Class::ror32</text>
</a>
</g>
</g>
<!-- Node253&#45;&gt;Node254 -->
<g id="edge15" class="edge">
<title>Node253&#45;&gt;Node254</title>
<path fill="none" stroke="#191970" d="M1427.1,-553.5C1435.5806,-553.5 1444.2667,-553.5 1452.7157,-553.5"/>
<polygon fill="#191970" stroke="#191970" points="1452.8743,-557.0001 1462.8743,-553.5 1452.8742,-550.0001 1452.8743,-557.0001"/>
</g>
<!-- Node256 -->
<g id="node17" class="node">
<title>Node256</title>
<g id="a_node17"><a xlink:href="classSha256Class.html#a82049dae520ccf0bd8478f2aef639149" target="_top" xlink:title="Sha256Class::pad">
<polygon fill="#ffffff" stroke="#000000" points="987,-525 987,-544 1084,-544 1084,-525 987,-525"/>
<text text-anchor="middle" x="1035.5" y="-532" font-family="Helvetica,sans-Serif" font-size="10.00" fill="#000000">Sha256Class::pad</text>
</a>
</g>
</g>
<!-- Node255&#45;&gt;Node256 -->
<g id="edge17" class="edge">
<title>Node255&#45;&gt;Node256</title>
<path fill="none" stroke="#191970" d="M951.076,-534.5C959.4448,-534.5 968.1493,-534.5 976.6514,-534.5"/>
<polygon fill="#191970" stroke="#191970" points="976.8856,-538.0001 986.8856,-534.5 976.8855,-531.0001 976.8856,-538.0001"/>
</g>
<!-- Node256&#45;&gt;Node252 -->
<g id="edge18" class="edge">
<title>Node256&#45;&gt;Node252</title>
<path fill="none" stroke="#191970" d="M1084.1597,-540.4076C1092.3741,-541.4048 1101.0986,-542.464 1109.8883,-543.5312"/>
<polygon fill="#191970" stroke="#191970" points="1109.4671,-547.0056 1119.8161,-544.7365 1110.3108,-540.0567 1109.4671,-547.0056"/>
</g>
<!-- Node257&#45;&gt;Node251 -->
<g id="edge20" class="edge">
<title>Node257&#45;&gt;Node251</title>
<path fill="none" stroke="#191970" d="M800.5886,-588.1909C812.5675,-586.2712 825.2179,-584.2439 837.3032,-582.3072"/>
<polygon fill="#191970" stroke="#191970" points="837.9747,-585.7443 847.2949,-580.7059 836.867,-578.8325 837.9747,-585.7443"/>
</g>
<!-- Node260 -->
<g id="node21" class="node">
<title>Node260</title>
<g id="a_node21"><a xlink:href="classSha256Class.html#a7556f29cadf7eaca21a537df41318af3" target="_top" xlink:title="Sha256Class::resultHmac">
<polygon fill="#ffffff" stroke="#000000" points="677,-487 677,-506 808,-506 808,-487 677,-487"/>
<text text-anchor="middle" x="742.5" y="-494" font-family="Helvetica,sans-Serif" font-size="10.00" fill="#000000">Sha256Class::resultHmac</text>
</a>
</g>
</g>
<!-- Node259&#45;&gt;Node260 -->
<g id="edge23" class="edge">
<title>Node259&#45;&gt;Node260</title>
<path fill="none" stroke="#191970" d="M620.1367,-496.5C634.9243,-496.5 651.1018,-496.5 666.7095,-496.5"/>
<polygon fill="#191970" stroke="#191970" points="666.8635,-500.0001 676.8634,-496.5 666.8634,-493.0001 666.8635,-500.0001"/>
</g>
<!-- Node260&#45;&gt;Node250 -->
<g id="edge25" class="edge">
<title>Node260&#45;&gt;Node250</title>
<path fill="none" stroke="#191970" d="M808.2059,-496.5C819.1857,-496.5 830.4989,-496.5 841.2455,-496.5"/>
<polygon fill="#191970" stroke="#191970" points="841.346,-500.0001 851.346,-496.5 841.346,-493.0001 841.346,-500.0001"/>
</g>
<!-- Node260&#45;&gt;Node251 -->
<g id="edge26" class="edge">
<title>Node260&#45;&gt;Node251</title>
<path fill="none" stroke="#191970" d="M789.2644,-506.0942C796.4837,-508.5716 803.6435,-511.6603 810,-515.5 829.9133,-527.5289 826.538,-540.7538 846,-553.5 848.9686,-555.4442 852.1618,-557.2209 855.4546,-558.8383"/>
<polygon fill="#191970" stroke="#191970" points="854.3312,-562.1674 864.8947,-562.9811 857.1443,-555.7575 854.3312,-562.1674"/>
</g>
<!-- Node260&#45;&gt;Node255 -->
<g id="edge24" class="edge">
<title>Node260&#45;&gt;Node255</title>
<path fill="none" stroke="#191970" d="M781.8654,-506.089C802.4513,-511.1035 827.8405,-517.2881 849.669,-522.6053"/>
<polygon fill="#191970" stroke="#191970" points="848.8734,-526.0137 859.4177,-524.9799 850.5302,-519.2126 848.8734,-526.0137"/>
</g>
<!-- Node261&#45;&gt;Node245 -->
<g id="edge28" class="edge">
<title>Node261&#45;&gt;Node245</title>
<path fill="none" stroke="#191970" d="M605.9151,-304.0227C655.1147,-315.1744 738.6127,-334.4273 810,-352.5 829.2981,-357.3856 850.8592,-363.2246 867.868,-367.92"/>
<polygon fill="#191970" stroke="#191970" points="867.2375,-371.3772 877.8092,-370.677 869.1083,-364.6318 867.2375,-371.3772"/>
</g>
<!-- Node262&#45;&gt;Node244 -->
<g id="edge30" class="edge">
<title>Node262&#45;&gt;Node244</title>
<path fill="none" stroke="#191970" d="M602.3403,-410.9527C622.4936,-405.9988 647.7568,-399.7888 671.2643,-394.0105"/>
<polygon fill="#191970" stroke="#191970" points="672.3359,-397.3513 681.2114,-391.5654 670.6649,-390.5537 672.3359,-397.3513"/>
</g>
<!-- Node262&#45;&gt;Node245 -->
<g id="edge31" class="edge">
<title>Node262&#45;&gt;Node245</title>
<path fill="none" stroke="#191970" d="M639.2351,-418.5459C688.2486,-416.3284 753.2685,-411.5961 810,-401.5 829.5258,-398.0251 850.9397,-392.0363 867.8121,-386.7913"/>
<polygon fill="#191970" stroke="#191970" points="869.2069,-390.0204 877.6732,-383.6509 867.0826,-383.3505 869.2069,-390.0204"/>
</g>
<!-- Node264 -->
<g id="node25" class="node">
<title>Node264</title>
<g id="a_node25"><a xlink:href="group__TOOSIGNING__INITIALIZE.html#gafd247c5271ff63bfcde14ef94060002d" target="_top" xlink:title="TooSigning_requested\l_noncelist_initialize">
<polygon fill="#ffffff" stroke="#000000" points="507,-98.5 507,-128.5 620,-128.5 620,-98.5 507,-98.5"/>
<text text-anchor="start" x="515" y="-116.5" font-family="Helvetica,sans-Serif" font-size="10.00" fill="#000000">TooSigning_requested</text>
<text text-anchor="middle" x="563.5" y="-105.5" font-family="Helvetica,sans-Serif" font-size="10.00" fill="#000000">_noncelist_initialize</text>
</a>
</g>
</g>
<!-- Node263&#45;&gt;Node264 -->
<g id="edge33" class="edge">
<title>Node263&#45;&gt;Node264</title>
<path fill="none" stroke="#191970" d="M446.4741,-113.5C462.5614,-113.5 480.2098,-113.5 496.8128,-113.5"/>
<polygon fill="#191970" stroke="#191970" points="496.9922,-117.0001 506.9922,-113.5 496.9921,-110.0001 496.9922,-117.0001"/>
</g>
<!-- Node265 -->
<g id="node26" class="node">
<title>Node265</title>
<g id="a_node26"><a xlink:href="TooSigning_8cpp.html#a74e394128707e55045381d7c9ab6f6fd" target="_top" xlink:title="TooSigning_requested\l_noncelist_find_for_nodeID">
<polygon fill="#ffffff" stroke="#000000" points="496,-49.5 496,-79.5 631,-79.5 631,-49.5 496,-49.5"/>
<text text-anchor="start" x="504" y="-67.5" font-family="Helvetica,sans-Serif" font-size="10.00" fill="#000000">TooSigning_requested</text>
<text text-anchor="middle" x="563.5" y="-56.5" font-family="Helvetica,sans-Serif" font-size="10.00" fill="#000000">_noncelist_find_for_nodeID</text>
</a>
</g>
</g>
<!-- Node263&#45;&gt;Node265 -->
<g id="edge34" class="edge">
<title>Node263&#45;&gt;Node265</title>
<path fill="none" stroke="#191970" d="M443.1255,-98.3986C461.2374,-93.2981 481.6238,-87.5571 500.4001,-82.2695"/>
<polygon fill="#191970" stroke="#191970" points="501.3747,-85.6313 510.0515,-79.5516 499.4772,-78.8933 501.3747,-85.6313"/>
</g>
<!-- Node266 -->
<g id="node27" class="node">
<title>Node266</title>
<g id="a_node27"><a xlink:href="group__TOOSIGNING__DEBUGGING.html#gabb54a5e4968d69e35d665869d5c6588f" target="_top" xlink:title="TooSigning_requested\l_noncelist_print">
<polygon fill="#ffffff" stroke="#000000" points="507,-.5 507,-30.5 620,-30.5 620,-.5 507,-.5"/>
<text text-anchor="start" x="515" y="-18.5" font-family="Helvetica,sans-Serif" font-size="10.00" fill="#000000">TooSigning_requested</text>
<text text-anchor="middle" x="563.5" y="-7.5" font-family="Helvetica,sans-Serif" font-size="10.00" fill="#000000">_noncelist_print</text>
</a>
</g>
</g>
<!-- Node263&#45;&gt;Node266 -->
<g id="edge35" class="edge">
<title>Node263&#45;&gt;Node266</title>
<path fill="none" stroke="#191970" d="M406.0996,-98.2269C424.7806,-81.7392 456.6323,-55.6731 488,-39.5 491.5433,-37.6731 495.252,-35.9523 499.0433,-34.3368"/>
<polygon fill="#191970" stroke="#191970" points="500.5929,-37.4872 508.5904,-30.5382 498.005,-30.9832 500.5929,-37.4872"/>
</g>
<!-- Node267&#45;&gt;Node241 -->
<g id="edge43" class="edge">
<title>Node267&#45;&gt;Node241</title>
<path fill="none" stroke="#191970" d="M255.2129,-281.0473C274.4356,-285.9791 298.5105,-292.1558 320.9473,-297.9121"/>
<polygon fill="#191970" stroke="#191970" points="320.2232,-301.3397 330.7793,-300.4346 321.9628,-294.5592 320.2232,-301.3397"/>
</g>
<!-- Node267&#45;&gt;Node242 -->
<g id="edge44" class="edge">
<title>Node267&#45;&gt;Node242</title>
<path fill="none" stroke="#191970" d="M291.1448,-269.1936C338.1751,-269.7748 399.9878,-274.4421 452,-291.5 469.8174,-297.3434 470.9885,-305.6124 488,-313.5 492.7327,-315.6944 497.7129,-317.7855 502.7645,-319.7562"/>
<polygon fill="#191970" stroke="#191970" points="501.928,-323.1796 512.5207,-323.3928 504.3729,-316.6204 501.928,-323.1796"/>
</g>
<!-- Node267&#45;&gt;Node243 -->
<g id="edge45" class="edge">
<title>Node267&#45;&gt;Node243</title>
<path fill="none" stroke="#191970" d="M229.7879,-281.1228C257.0861,-303.407 325.1944,-359.0056 363.0592,-389.9157"/>
<polygon fill="#191970" stroke="#191970" points="361.1408,-392.8677 371.1007,-396.4802 365.5674,-387.4451 361.1408,-392.8677"/>
</g>
<!-- Node267&#45;&gt;Node263 -->
<g id="edge46" class="edge">
<title>Node267&#45;&gt;Node263</title>
<path fill="none" stroke="#191970" d="M227.6299,-261.8302C241.7697,-247.5527 268.8692,-219.8864 291,-195.5 307.5222,-177.2939 308.4477,-169.6324 327,-153.5 335.1036,-146.4534 344.5567,-139.7546 353.6212,-133.9244"/>
<polygon fill="#191970" stroke="#191970" points="355.5005,-136.8772 362.136,-128.6176 351.7981,-130.9365 355.5005,-136.8772"/>
</g>
<!-- Node268 -->
<g id="node29" class="node">
<title>Node268</title>
<g id="a_node29"><a xlink:href="TooNetworking_8cpp.html#aa8a4e879d4d71fed2a8940cf93b75ae4" target="_top" xlink:title="TooNetworking_bufferlist\l_initialize">
<polygon fill="#ffffff" stroke="#000000" points="327,-163.5 327,-193.5 452,-193.5 452,-163.5 327,-163.5"/>
<text text-anchor="start" x="335" y="-181.5" font-family="Helvetica,sans-Serif" font-size="10.00" fill="#000000">TooNetworking_bufferlist</text>
<text text-anchor="middle" x="389.5" y="-170.5" font-family="Helvetica,sans-Serif" font-size="10.00" fill="#000000">_initialize</text>
</a>
</g>
</g>
<!-- Node267&#45;&gt;Node268 -->
<g id="edge37" class="edge">
<title>Node267&#45;&gt;Node268</title>
<path fill="none" stroke="#191970" d="M231.2574,-261.8885C251.2864,-247.6543 290.7755,-220.6959 327,-202.5 330.4649,-200.7596 334.088,-199.0652 337.7694,-197.4344"/>
<polygon fill="#191970" stroke="#191970" points="339.1467,-200.6521 346.983,-193.5217 336.4105,-194.209 339.1467,-200.6521"/>
</g>
<!-- Node269 -->
<g id="node30" class="node">
<title>Node269</title>
<g id="a_node30"><a xlink:href="TooNetworking_8cpp.html#a0ad03a7efb42cf40ca3e20fb5df3a5db" target="_top" xlink:title="TooNetworking_bufferlist\l_send_">
<polygon fill="#ffffff" stroke="#000000" points="327,-212.5 327,-242.5 452,-242.5 452,-212.5 327,-212.5"/>
<text text-anchor="start" x="335" y="-230.5" font-family="Helvetica,sans-Serif" font-size="10.00" fill="#000000">TooNetworking_bufferlist</text>
<text text-anchor="middle" x="389.5" y="-219.5" font-family="Helvetica,sans-Serif" font-size="10.00" fill="#000000">_send_</text>
</a>
</g>
</g>
<!-- Node267&#45;&gt;Node269 -->
<g id="edge38" class="edge">
<title>Node267&#45;&gt;Node269</title>
<path fill="none" stroke="#191970" d="M255.2129,-261.9527C274.4356,-257.0209 298.5105,-250.8442 320.9473,-245.0879"/>
<polygon fill="#191970" stroke="#191970" points="321.9628,-248.4408 330.7793,-242.5654 320.2232,-241.6603 321.9628,-248.4408"/>
</g>
<!-- Node269&#45;&gt;Node244 -->
<g id="edge39" class="edge">
<title>Node269&#45;&gt;Node244</title>
<path fill="none" stroke="#191970" d="M446.3479,-212.4544C499.3904,-201.6567 579.1209,-193.948 639,-225.5 689.6711,-252.2001 720.2913,-316.1363 733.9804,-351.653"/>
<polygon fill="#191970" stroke="#191970" points="730.7889,-353.1134 737.5424,-361.2768 737.3537,-350.6837 730.7889,-353.1134"/>
</g>
<!-- Node269&#45;&gt;Node246 -->
<g id="edge40" class="edge">
<title>Node269&#45;&gt;Node246</title>
<path fill="none" stroke="#191970" d="M452.318,-235.8035C467.1873,-237.769 483.0804,-239.8698 498.0628,-241.8503"/>
<polygon fill="#191970" stroke="#191970" points="497.8936,-245.3583 508.266,-243.199 498.8109,-238.4186 497.8936,-245.3583"/>
</g>
<!-- Node269&#45;&gt;Node261 -->
<g id="edge41" class="edge">
<title>Node269&#45;&gt;Node261</title>
<path fill="none" stroke="#191970" d="M420.9804,-242.6059C449.1347,-256.1027 486.2437,-273.8548 488,-274.5 495.6915,-277.3257 503.9587,-279.9319 512.1013,-282.2646"/>
<polygon fill="#191970" stroke="#191970" points="511.3541,-285.6891 521.9245,-284.9708 513.2133,-278.9405 511.3541,-285.6891"/>
</g>
<!-- Node270 -->
<g id="node31" class="node">
<title>Node270</title>
<g id="a_node31"><a xlink:href="TooNetworking_8cpp.html#a3c91b7ab2f6500c287ecc7ab4a018ef6" target="_top" xlink:title="TooNetworking_bufferlist\l_remove">
<polygon fill="#ffffff" stroke="#000000" points="501,-147.5 501,-177.5 626,-177.5 626,-147.5 501,-147.5"/>
<text text-anchor="start" x="509" y="-165.5" font-family="Helvetica,sans-Serif" font-size="10.00" fill="#000000">TooNetworking_bufferlist</text>
<text text-anchor="middle" x="563.5" y="-154.5" font-family="Helvetica,sans-Serif" font-size="10.00" fill="#000000">_remove</text>
</a>
</g>
</g>
<!-- Node269&#45;&gt;Node270 -->
<g id="edge42" class="edge">
<title>Node269&#45;&gt;Node270</title>
<path fill="none" stroke="#191970" d="M429.8564,-212.4243C454.8026,-203.1053 487.0129,-191.0728 513.5607,-181.1555"/>
<polygon fill="#191970" stroke="#191970" points="514.9185,-184.3846 523.0614,-177.6064 512.4688,-177.8272 514.9185,-184.3846"/>
</g>
</g>
</svg>
        <g id="navigator" transform="translate(0 0)" fill="#404254">
                <rect fill="#f2f5e9" fill-opacity="0.5" stroke="#606060" stroke-width=".5" x="0" y="0" width="60" height="60"/>
                <use id="zoomplus" xlink:href="#zoomPlus" x="17" y="9" onmousedown="handleZoom(evt,'in')"/>
                <use id="zoomminus" xlink:href="#zoomMin" x="42" y="9" onmousedown="handleZoom(evt,'out')"/>
                <use id="reset" xlink:href="#resetDef" x="30" y="36" onmousedown="handleReset()"/>
                <g id="arrowUp" xlink:href="#dirArrow" transform="translate(30 24)" onmousedown="handlePan(0,-1)">
                  <use xlink:href="#rim" fill="#404040">
                        <set attributeName="fill" to="#808080" begin="arrowUp.mouseover" end="arrowUp.mouseout"/>
                  </use>
                  <path fill="none" stroke="white" stroke-width="1.5" d="M0,-3.0v7 M-2.5,-0.5L0,-3.0L2.5,-0.5"/>
                </g>
                <g id="arrowRight" xlink:href="#dirArrow" transform="rotate(90) translate(36 -43)" onmousedown="handlePan(1,0)">
                  <use xlink:href="#rim" fill="#404040">
                        <set attributeName="fill" to="#808080" begin="arrowRight.mouseover" end="arrowRight.mouseout"/>
                  </use>
                  <path fill="none" stroke="white" stroke-width="1.5" d="M0,-3.0v7 M-2.5,-0.5L0,-3.0L2.5,-0.5"/>
                </g>
                <g id="arrowDown" xlink:href="#dirArrow" transform="rotate(180) translate(-30 -48)" onmousedown="handlePan(0,1)">
                  <use xlink:href="#rim" fill="#404040">
                        <set attributeName="fill" to="#808080" begin="arrowDown.mouseover" end="arrowDown.mouseout"/>
                  </use>
                  <path fill="none" stroke="white" stroke-width="1.5" d="M0,-3.0v7 M-2.5,-0.5L0,-3.0L2.5,-0.5"/>
                </g>
                <g id="arrowLeft" xlink:href="#dirArrow" transform="rotate(270) translate(-36 17)" onmousedown="handlePan(-1,0)">
                  <use xlink:href="#rim" fill="#404040">
                        <set attributeName="fill" to="#808080" begin="arrowLeft.mouseover" end="arrowLeft.mouseout"/>
                  </use>
                  <path fill="none" stroke="white" stroke-width="1.5" d="M0,-3.0v7 M-2.5,-0.5L0,-3.0L2.5,-0.5"/>
                </g>
        </g>
        <svg viewBox="0 0 15 15" width="100%" height="30px" preserveAspectRatio="xMaxYMin meet">
         <g id="arrow_out" transform="scale(0.3 0.3)">
          <a xlink:href="TooNetworking_8h_a9209f3e1a2fdf0b3b88d49105b8fc359_cgraph_org.svg" target="_base">
           <rect id="button" ry="5" rx="5" y="6" x="6" height="38" width="38"
                fill="#f2f5e9" fill-opacity="0.5" stroke="#606060" stroke-width="1.0"/>
           <path id="arrow"
             d="M 11.500037,31.436501 C 11.940474,20.09759 22.043105,11.32322 32.158766,21.979434 L 37.068811,17.246167 C 37.068811,17.246167 37.088388,32 37.088388,32 L 22.160133,31.978069 C 22.160133,31.978069 26.997745,27.140456 26.997745,27.140456 C 18.528582,18.264221 13.291696,25.230495 11.500037,31.436501 z"
             style="fill:#404040;"/>
          </a>
         </g>
        </svg>
</svg>
