<?xml version="1.0" encoding="UTF-8" standalone="no"?>
<!DOCTYPE svg PUBLIC "-//W3C//DTD SVG 1.1//EN"
 "http://www.w3.org/Graphics/SVG/1.1/DTD/svg11.dtd">
<!-- Generated by graphviz version 2.40.1 (20161225.0304)
 -->
<!-- Title: TooNetworking_send Pages: 1 -->
<svg width="681pt" height="110pt"
 viewBox="0.00 0.00 681.00 110.00" xmlns="http://www.w3.org/2000/svg" xmlns:xlink="http://www.w3.org/1999/xlink">
<g id="graph0" class="graph" transform="scale(1 1) rotate(0) translate(4 106)">
<title>TooNetworking_send</title>
<polygon fill="#ffffff" stroke="transparent" points="-4,4 -4,-106 677,-106 677,4 -4,4"/>
<!-- Node199 -->
<g id="node1" class="node">
<title>Node199</title>
<polygon fill="#bfbfbf" stroke="#000000" points="0,-52 0,-71 109,-71 109,-52 0,-52"/>
<text text-anchor="middle" x="54.5" y="-59" font-family="Helvetica,sans-Serif" font-size="10.00" fill="#000000">TooNetworking_send</text>
</g>
<!-- Node200 -->
<g id="node2" class="node">
<title>Node200</title>
<g id="a_node2"><a xlink:href="TooNetworking_8h.html#a0ad03a7efb42cf40ca3e20fb5df3a5db" target="_top" xlink:title="TooNetworking_bufferlist\l_send_">
<polygon fill="#ffffff" stroke="#000000" points="145,-71.5 145,-101.5 270,-101.5 270,-71.5 145,-71.5"/>
<text text-anchor="start" x="153" y="-89.5" font-family="Helvetica,sans-Serif" font-size="10.00" fill="#000000">TooNetworking_bufferlist</text>
<text text-anchor="middle" x="207.5" y="-78.5" font-family="Helvetica,sans-Serif" font-size="10.00" fill="#000000">_send_</text>
</a>
</g>
</g>
<!-- Node199&#45;&gt;Node200 -->
<g id="edge1" class="edge">
<title>Node199&#45;&gt;Node200</title>
<path fill="none" stroke="#191970" d="M119.4187,-72.1076C127.811,-73.4789 136.3936,-74.8813 144.7499,-76.2467"/>
<polygon fill="#191970" stroke="#191970" points="119.7379,-68.6135 109.3044,-70.455 118.609,-75.5218 119.7379,-68.6135"/>
</g>
<!-- Node204 -->
<g id="node6" class="node">
<title>Node204</title>
<g id="a_node6"><a xlink:href="TooNetworking_8h.html#a9f893c3218491ee86282fdcd9f376500" target="_top" xlink:title="TooNetworking_send\l_signed_">
<polygon fill="#ffffff" stroke="#000000" points="153,-22.5 153,-52.5 262,-52.5 262,-22.5 153,-22.5"/>
<text text-anchor="start" x="161" y="-40.5" font-family="Helvetica,sans-Serif" font-size="10.00" fill="#000000">TooNetworking_send</text>
<text text-anchor="middle" x="207.5" y="-29.5" font-family="Helvetica,sans-Serif" font-size="10.00" fill="#000000">_signed_</text>
</a>
</g>
</g>
<!-- Node199&#45;&gt;Node204 -->
<g id="edge5" class="edge">
<title>Node199&#45;&gt;Node204</title>
<path fill="none" stroke="#191970" d="M119.4022,-51.3193C130.5305,-49.5736 141.9941,-47.7754 152.8213,-46.0771"/>
<polygon fill="#191970" stroke="#191970" points="118.6411,-47.8958 109.3044,-52.9032 119.726,-54.8112 118.6411,-47.8958"/>
</g>
<!-- Node201 -->
<g id="node3" class="node">
<title>Node201</title>
<g id="a_node3"><a xlink:href="TooNetworking_8h.html#ab58e06e0eb6f2f8ecbebeaf3c173fb22" target="_top" xlink:title="TooNetworking_bufferlist\l_send_all">
<polygon fill="#ffffff" stroke="#000000" points="306,-71.5 306,-101.5 431,-101.5 431,-71.5 306,-71.5"/>
<text text-anchor="start" x="314" y="-89.5" font-family="Helvetica,sans-Serif" font-size="10.00" fill="#000000">TooNetworking_bufferlist</text>
<text text-anchor="middle" x="368.5" y="-78.5" font-family="Helvetica,sans-Serif" font-size="10.00" fill="#000000">_send_all</text>
</a>
</g>
</g>
<!-- Node200&#45;&gt;Node201 -->
<g id="edge2" class="edge">
<title>Node200&#45;&gt;Node201</title>
<path fill="none" stroke="#191970" d="M280.2184,-86.5C288.8129,-86.5 297.5268,-86.5 305.9633,-86.5"/>
<polygon fill="#191970" stroke="#191970" points="280.2078,-83.0001 270.2078,-86.5 280.2078,-90.0001 280.2078,-83.0001"/>
</g>
<!-- Node202 -->
<g id="node4" class="node">
<title>Node202</title>
<g id="a_node4"><a xlink:href="TooNetworking_8h.html#a7382ba1aed5405c3adc02011ea6c45dd" target="_top" xlink:title="TooNetworking_connection\l_maintenance">
<polygon fill="#ffffff" stroke="#000000" points="467,-60.5 467,-90.5 602,-90.5 602,-60.5 467,-60.5"/>
<text text-anchor="start" x="475" y="-78.5" font-family="Helvetica,sans-Serif" font-size="10.00" fill="#000000">TooNetworking_connection</text>
<text text-anchor="middle" x="534.5" y="-67.5" font-family="Helvetica,sans-Serif" font-size="10.00" fill="#000000">_maintenance</text>
</a>
</g>
</g>
<!-- Node201&#45;&gt;Node202 -->
<g id="edge3" class="edge">
<title>Node201&#45;&gt;Node202</title>
<path fill="none" stroke="#191970" d="M441.4873,-81.6635C449.951,-81.1026 458.5556,-80.5325 466.9422,-79.9767"/>
<polygon fill="#191970" stroke="#191970" points="441.0041,-78.1877 431.2575,-82.3414 441.4671,-85.1724 441.0041,-78.1877"/>
</g>
<!-- Node203 -->
<g id="node5" class="node">
<title>Node203</title>
<g id="a_node5"><a xlink:href="NODE__SKETCH__TooAutomation__Node_8ino_8cpp.html#a0b33edabd7f1c4e4a0bf32c67269be2f" target="_top" xlink:title="loop">
<polygon fill="#ffffff" stroke="#000000" points="638,-30 638,-49 673,-49 673,-30 638,-30"/>
<text text-anchor="middle" x="655.5" y="-37" font-family="Helvetica,sans-Serif" font-size="10.00" fill="#000000">loop</text>
</a>
</g>
</g>
<!-- Node202&#45;&gt;Node203 -->
<g id="edge4" class="edge">
<title>Node202&#45;&gt;Node203</title>
<path fill="none" stroke="#191970" d="M594.8751,-57.5372C610.6159,-52.8539 626.368,-48.1674 637.8692,-44.7455"/>
<polygon fill="#191970" stroke="#191970" points="593.7005,-54.2349 585.1138,-60.4413 595.6967,-60.9443 593.7005,-54.2349"/>
</g>
<!-- Node204&#45;&gt;Node201 -->
<g id="edge9" class="edge">
<title>Node204&#45;&gt;Node201</title>
<path fill="none" stroke="#191970" d="M267.0139,-55.6129C284.1301,-60.8222 302.6072,-66.4457 319.0448,-71.4484"/>
<polygon fill="#191970" stroke="#191970" points="267.7049,-52.1648 257.119,-52.6014 265.6667,-58.8615 267.7049,-52.1648"/>
</g>
<!-- Node205 -->
<g id="node7" class="node">
<title>Node205</title>
<g id="a_node7"><a xlink:href="TooNetworking_8h.html#a9209f3e1a2fdf0b3b88d49105b8fc359" target="_top" xlink:title="TooNetworking_send\l_signed">
<polygon fill="#ffffff" stroke="#000000" points="314,-22.5 314,-52.5 423,-52.5 423,-22.5 314,-22.5"/>
<text text-anchor="start" x="322" y="-40.5" font-family="Helvetica,sans-Serif" font-size="10.00" fill="#000000">TooNetworking_send</text>
<text text-anchor="middle" x="368.5" y="-29.5" font-family="Helvetica,sans-Serif" font-size="10.00" fill="#000000">_signed</text>
</a>
</g>
</g>
<!-- Node204&#45;&gt;Node205 -->
<g id="edge6" class="edge">
<title>Node204&#45;&gt;Node205</title>
<path fill="none" stroke="#191970" d="M272.3592,-37.5C286.0939,-37.5 300.4604,-37.5 313.7751,-37.5"/>
<polygon fill="#191970" stroke="#191970" points="272.0073,-34.0001 262.0073,-37.5 272.0072,-41.0001 272.0073,-34.0001"/>
</g>
<!-- Node206 -->
<g id="node8" class="node">
<title>Node206</title>
<g id="a_node8"><a xlink:href="TooNetworking_8h.html#a085ff748b00f6be4ebafcae2bb0dded1" target="_top" xlink:title="TooNetworking_bufferlist\l_send_signed">
<polygon fill="#ffffff" stroke="#000000" points="472,-.5 472,-30.5 597,-30.5 597,-.5 472,-.5"/>
<text text-anchor="start" x="480" y="-18.5" font-family="Helvetica,sans-Serif" font-size="10.00" fill="#000000">TooNetworking_bufferlist</text>
<text text-anchor="middle" x="534.5" y="-7.5" font-family="Helvetica,sans-Serif" font-size="10.00" fill="#000000">_send_signed</text>
</a>
</g>
</g>
<!-- Node204&#45;&gt;Node206 -->
<g id="edge7" class="edge">
<title>Node204&#45;&gt;Node206</title>
<path fill="none" stroke="#191970" d="M266.3661,-20.0269C279.3087,-16.8983 293.0258,-14.1208 306,-12.5 361.7051,-5.5411 425.6402,-7.1916 471.6885,-10.0601"/>
<polygon fill="#191970" stroke="#191970" points="265.4876,-16.6388 256.6449,-22.4745 267.1968,-23.4269 265.4876,-16.6388"/>
</g>
<!-- Node206&#45;&gt;Node203 -->
<g id="edge8" class="edge">
<title>Node206&#45;&gt;Node203</title>
<path fill="none" stroke="#191970" d="M607.2474,-29.9292C618.636,-32.1881 629.4203,-34.3272 637.8934,-36.0078"/>
<polygon fill="#191970" stroke="#191970" points="607.6165,-26.4343 597.1266,-27.9218 606.2545,-33.3006 607.6165,-26.4343"/>
</g>
</g>
</svg>
