<?xml version="1.0" encoding="UTF-8" standalone="no"?>
<!DOCTYPE svg PUBLIC "-//W3C//DTD SVG 1.1//EN"
 "http://www.w3.org/Graphics/SVG/1.1/DTD/svg11.dtd">
<!-- Generated by graphviz version 2.40.1 (20161225.0304)
 -->
<!-- Title: mesh Pages: 1 -->
<!--zoomable 294 -->
<svg id="main" version="1.1" xmlns="http://www.w3.org/2000/svg" xmlns:xlink="http://www.w3.org/1999/xlink" xml:space="preserve" onload="init(evt)">
<style type="text/css"><![CDATA[
.edge:hover path { stroke: red; }
.edge:hover polygon { stroke: red; fill: red; }
]]></style>
<script type="text/javascript"><![CDATA[
var edges = document.getElementsByTagName('g');
if (edges && edges.length) {
  for (var i=0;i<edges.length;i++) {
    if (edges[i].id.substr(0,4)=='edge') {
      edges[i].setAttribute('class','edge');
    }
  }
}
]]></script>
        <defs>
                <circle id="rim" cx="0" cy="0" r="7"/>
                <circle id="rim2" cx="0" cy="0" r="3.5"/>
                <g id="zoomPlus">
                        <use xlink:href="#rim" fill="#404040">
                                <set attributeName="fill" to="#808080" begin="zoomplus.mouseover" end="zoomplus.mouseout"/>
                        </use>
                        <path d="M-4,0h8M0,-4v8" fill="none" stroke="white" stroke-width="1.5" pointer-events="none"/>
                </g>
                <g id="zoomMin">
                        <use xlink:href="#rim" fill="#404040">
                                <set attributeName="fill" to="#808080" begin="zoomminus.mouseover" end="zoomminus.mouseout"/>
                        </use>
                        <path d="M-4,0h8" fill="none" stroke="white" stroke-width="1.5" pointer-events="none"/>
                </g>
                <g id="dirArrow">
                        <path fill="none" stroke="white" stroke-width="1.5" d="M0,-3.0v7 M-2.5,-0.5L0,-3.0L2.5,-0.5"/>
                </g>
               <g id="resetDef">
                       <use xlink:href="#rim2" fill="#404040">
                               <set attributeName="fill" to="#808080" begin="reset.mouseover" end="reset.mouseout"/>
                       </use>
               </g>
        </defs>

<script type="text/javascript">
var viewWidth = 1316;
var viewHeight = 294;
var sectionId = 'dynsection-0';
</script>
<script xlink:href="svgpan.js"/>
<svg id="graph" class="graph">
<g id="viewport">
<title>mesh</title>
<polygon fill="#ffffff" stroke="transparent" points="-4,4 -4,-289.5 1312,-289.5 1312,4 -4,4"/>
<!-- Node1 -->
<g id="node1" class="node">
<title>Node1</title>
<polygon fill="#bfbfbf" stroke="#000000" points="0,-149 0,-168 41,-168 41,-149 0,-149"/>
<text text-anchor="middle" x="20.5" y="-156" font-family="Helvetica,sans-Serif" font-size="10.00" fill="#000000">mesh</text>
</g>
<!-- Node2 -->
<g id="node2" class="node">
<title>Node2</title>
<g id="a_node2"><a xlink:href="TooNetworking_8h.html#aec97902cf0d3ec10fd86927f3d1df0c6" target="_top" xlink:title="TooNetworking_connection\l_begin">
<polygon fill="#ffffff" stroke="#000000" points="77,-225.5 77,-255.5 212,-255.5 212,-225.5 77,-225.5"/>
<text text-anchor="start" x="85" y="-243.5" font-family="Helvetica,sans-Serif" font-size="10.00" fill="#000000">TooNetworking_connection</text>
<text text-anchor="middle" x="144.5" y="-232.5" font-family="Helvetica,sans-Serif" font-size="10.00" fill="#000000">_begin</text>
</a>
</g>
</g>
<!-- Node1&#45;&gt;Node2 -->
<g id="edge1" class="edge">
<title>Node1&#45;&gt;Node2</title>
<path fill="none" stroke="#191970" d="M36.3083,-175.7026C47.0261,-186.6617 61.936,-200.6072 77,-210.5 85.5754,-216.1316 95.3829,-221.1732 104.8151,-225.4435"/>
<polygon fill="#191970" stroke="#191970" points="38.7352,-173.1759 29.3027,-168.3511 33.6676,-178.005 38.7352,-173.1759"/>
</g>
<!-- Node5 -->
<g id="node5" class="node">
<title>Node5</title>
<g id="a_node5"><a xlink:href="TooNetworking_8h.html#a46674b3fdc9ee370b0839869aa145b75" target="_top" xlink:title="TooNetworking_send">
<polygon fill="#ffffff" stroke="#000000" points="90,-61 90,-80 199,-80 199,-61 90,-61"/>
<text text-anchor="middle" x="144.5" y="-68" font-family="Helvetica,sans-Serif" font-size="10.00" fill="#000000">TooNetworking_send</text>
</a>
</g>
</g>
<!-- Node1&#45;&gt;Node5 -->
<g id="edge4" class="edge">
<title>Node1&#45;&gt;Node5</title>
<path fill="none" stroke="#191970" d="M31.0749,-140.0863C41.0023,-124.4047 57.2601,-102.4196 77,-89.5 82.9081,-85.6332 89.6039,-82.5433 96.4272,-80.0766"/>
<polygon fill="#191970" stroke="#191970" points="27.9245,-138.5317 25.7372,-148.8983 33.9118,-142.1584 27.9245,-138.5317"/>
</g>
<!-- Node8 -->
<g id="node8" class="node">
<title>Node8</title>
<g id="a_node8"><a xlink:href="TooNetworking_8h.html#a7382ba1aed5405c3adc02011ea6c45dd" target="_top" xlink:title="TooNetworking_connection\l_maintenance">
<polygon fill="#ffffff" stroke="#000000" points="1102,-131.5 1102,-161.5 1237,-161.5 1237,-131.5 1102,-131.5"/>
<text text-anchor="start" x="1110" y="-149.5" font-family="Helvetica,sans-Serif" font-size="10.00" fill="#000000">TooNetworking_connection</text>
<text text-anchor="middle" x="1169.5" y="-138.5" font-family="Helvetica,sans-Serif" font-size="10.00" fill="#000000">_maintenance</text>
</a>
</g>
</g>
<!-- Node1&#45;&gt;Node8 -->
<g id="edge25" class="edge">
<title>Node1&#45;&gt;Node8</title>
<path fill="none" stroke="#191970" d="M51.3908,-164.9623C106.0147,-175.8083 223.349,-196.5 323.5,-196.5 323.5,-196.5 323.5,-196.5 828.5,-196.5 934.4674,-196.5 961.7578,-194.5432 1066,-175.5 1084.8159,-172.0627 1105.1567,-166.7288 1122.7849,-161.5682"/>
<polygon fill="#191970" stroke="#191970" points="51.8203,-161.4786 41.3259,-162.9335 50.4371,-168.3405 51.8203,-161.4786"/>
</g>
<!-- Node13 -->
<g id="node13" class="node">
<title>Node13</title>
<g id="a_node13"><a xlink:href="TooNetworking_8h.html#a48504aef69d9ac92e34269a64f7b518b" target="_top" xlink:title="TooNetworking_connection\l_check">
<polygon fill="#ffffff" stroke="#000000" points="77,-99.5 77,-129.5 212,-129.5 212,-99.5 77,-99.5"/>
<text text-anchor="start" x="85" y="-117.5" font-family="Helvetica,sans-Serif" font-size="10.00" fill="#000000">TooNetworking_connection</text>
<text text-anchor="middle" x="144.5" y="-106.5" font-family="Helvetica,sans-Serif" font-size="10.00" fill="#000000">_check</text>
</a>
</g>
</g>
<!-- Node1&#45;&gt;Node13 -->
<g id="edge14" class="edge">
<title>Node1&#45;&gt;Node13</title>
<path fill="none" stroke="#191970" d="M50.8093,-147.7451C66.223,-142.2757 85.2109,-135.5381 102.0539,-129.5615"/>
<polygon fill="#191970" stroke="#191970" points="49.5086,-144.4927 41.2548,-151.1354 51.8496,-151.0897 49.5086,-144.4927"/>
</g>
<!-- Node14 -->
<g id="node14" class="node">
<title>Node14</title>
<g id="a_node14"><a xlink:href="TooNetworking_8h.html#a99dc4950018bfd3e63ecb05f58082439" target="_top" xlink:title="TooNetworking_connection_fix">
<polygon fill="#ffffff" stroke="#000000" points="248,-143 248,-162 399,-162 399,-143 248,-143"/>
<text text-anchor="middle" x="323.5" y="-150" font-family="Helvetica,sans-Serif" font-size="10.00" fill="#000000">TooNetworking_connection_fix</text>
</a>
</g>
</g>
<!-- Node1&#45;&gt;Node14 -->
<g id="edge24" class="edge">
<title>Node1&#45;&gt;Node14</title>
<path fill="none" stroke="#191970" d="M51.508,-157.886C97.2932,-156.9793 184.3894,-155.2547 247.7213,-154.0006"/>
<polygon fill="#191970" stroke="#191970" points="51.2551,-154.3902 41.3264,-158.0876 51.3938,-161.3888 51.2551,-154.3902"/>
</g>
<!-- Node3 -->
<g id="node3" class="node">
<title>Node3</title>
<g id="a_node3"><a xlink:href="NODE__SKETCH__TooAutomation__Node_8ino_8cpp.html#a7dfd9b79bc5a37d7df40207afbc5431f" target="_top" xlink:title="setup">
<polygon fill="#ffffff" stroke="#000000" points="303,-228 303,-247 344,-247 344,-228 303,-228"/>
<text text-anchor="middle" x="323.5" y="-235" font-family="Helvetica,sans-Serif" font-size="10.00" fill="#000000">setup</text>
</a>
</g>
</g>
<!-- Node2&#45;&gt;Node3 -->
<g id="edge2" class="edge">
<title>Node2&#45;&gt;Node3</title>
<path fill="none" stroke="#191970" d="M222.4975,-239.1928C251.9482,-238.6992 283.0886,-238.1773 302.8763,-237.8456"/>
<polygon fill="#191970" stroke="#191970" points="222.1121,-235.6987 212.1722,-239.3658 222.2295,-242.6977 222.1121,-235.6987"/>
</g>
<!-- Node4 -->
<g id="node4" class="node">
<title>Node4</title>
<g id="a_node4"><a xlink:href="TooNetworking_8h.html#a2676204dee95da1ef337de95eb0e9bcb" target="_top" xlink:title="TooNetworking_begin">
<polygon fill="#ffffff" stroke="#000000" points="268,-266 268,-285 379,-285 379,-266 268,-266"/>
<text text-anchor="middle" x="323.5" y="-273" font-family="Helvetica,sans-Serif" font-size="10.00" fill="#000000">TooNetworking_begin</text>
</a>
</g>
</g>
<!-- Node2&#45;&gt;Node4 -->
<g id="edge3" class="edge">
<title>Node2&#45;&gt;Node4</title>
<path fill="none" stroke="#191970" d="M222.0219,-255.6579C239.905,-259.1546 258.4377,-262.7783 274.6946,-265.9571"/>
<polygon fill="#191970" stroke="#191970" points="222.658,-252.2161 212.1722,-253.732 221.3147,-259.086 222.658,-252.2161"/>
</g>
<!-- Node6 -->
<g id="node6" class="node">
<title>Node6</title>
<g id="a_node6"><a xlink:href="TooNetworking_8h.html#a0ad03a7efb42cf40ca3e20fb5df3a5db" target="_top" xlink:title="TooNetworking_bufferlist\l_send_">
<polygon fill="#ffffff" stroke="#000000" points="261,-55.5 261,-85.5 386,-85.5 386,-55.5 261,-55.5"/>
<text text-anchor="start" x="269" y="-73.5" font-family="Helvetica,sans-Serif" font-size="10.00" fill="#000000">TooNetworking_bufferlist</text>
<text text-anchor="middle" x="323.5" y="-62.5" font-family="Helvetica,sans-Serif" font-size="10.00" fill="#000000">_send_</text>
</a>
</g>
</g>
<!-- Node5&#45;&gt;Node6 -->
<g id="edge5" class="edge">
<title>Node5&#45;&gt;Node6</title>
<path fill="none" stroke="#191970" d="M209.4048,-70.5C226.1237,-70.5 244.084,-70.5 260.6941,-70.5"/>
<polygon fill="#191970" stroke="#191970" points="209.1786,-67.0001 199.1785,-70.5 209.1785,-74.0001 209.1786,-67.0001"/>
</g>
<!-- Node10 -->
<g id="node10" class="node">
<title>Node10</title>
<g id="a_node10"><a xlink:href="TooNetworking_8h.html#a9f893c3218491ee86282fdcd9f376500" target="_top" xlink:title="TooNetworking_send\l_signed_">
<polygon fill="#ffffff" stroke="#000000" points="447.5,-77.5 447.5,-107.5 556.5,-107.5 556.5,-77.5 447.5,-77.5"/>
<text text-anchor="start" x="455.5" y="-95.5" font-family="Helvetica,sans-Serif" font-size="10.00" fill="#000000">TooNetworking_send</text>
<text text-anchor="middle" x="502" y="-84.5" font-family="Helvetica,sans-Serif" font-size="10.00" fill="#000000">_signed_</text>
</a>
</g>
</g>
<!-- Node5&#45;&gt;Node10 -->
<g id="edge9" class="edge">
<title>Node5&#45;&gt;Node10</title>
<path fill="none" stroke="#191970" d="M185.597,-58.2022C204.4269,-53.1836 227.1503,-47.9824 248,-45.5 314.6404,-37.5657 333.4204,-31.2447 399,-45.5 427.0424,-51.5957 456.6003,-66.0255 476.8242,-77.3007"/>
<polygon fill="#191970" stroke="#191970" points="184.5736,-54.8535 175.8553,-60.8736 186.4249,-61.6043 184.5736,-54.8535"/>
</g>
<!-- Node7 -->
<g id="node7" class="node">
<title>Node7</title>
<g id="a_node7"><a xlink:href="TooNetworking_8h.html#ab58e06e0eb6f2f8ecbebeaf3c173fb22" target="_top" xlink:title="TooNetworking_bufferlist\l_send_all">
<polygon fill="#ffffff" stroke="#000000" points="605,-.5 605,-30.5 730,-30.5 730,-.5 605,-.5"/>
<text text-anchor="start" x="613" y="-18.5" font-family="Helvetica,sans-Serif" font-size="10.00" fill="#000000">TooNetworking_bufferlist</text>
<text text-anchor="middle" x="667.5" y="-7.5" font-family="Helvetica,sans-Serif" font-size="10.00" fill="#000000">_send_all</text>
</a>
</g>
</g>
<!-- Node6&#45;&gt;Node7 -->
<g id="edge6" class="edge">
<title>Node6&#45;&gt;Node7</title>
<path fill="none" stroke="#191970" d="M396.2823,-58.8633C458.1899,-48.9653 546.1575,-34.9007 604.9459,-25.5014"/>
<polygon fill="#191970" stroke="#191970" points="395.5169,-55.4411 386.1949,-60.4761 396.6221,-62.3533 395.5169,-55.4411"/>
</g>
<!-- Node7&#45;&gt;Node8 -->
<g id="edge7" class="edge">
<title>Node7&#45;&gt;Node8</title>
<path fill="none" stroke="#191970" d="M740.3362,-31.0516C784.1459,-40.6709 840.9404,-53.6092 891,-66.5 971.7479,-87.2934 1064.6823,-114.6974 1120.1727,-131.4351"/>
<polygon fill="#191970" stroke="#191970" points="740.8613,-27.5838 730.3443,-28.8657 739.3652,-34.4221 740.8613,-27.5838"/>
</g>
<!-- Node9 -->
<g id="node9" class="node">
<title>Node9</title>
<g id="a_node9"><a xlink:href="NODE__SKETCH__TooAutomation__Node_8ino_8cpp.html#a0b33edabd7f1c4e4a0bf32c67269be2f" target="_top" xlink:title="loop">
<polygon fill="#ffffff" stroke="#000000" points="1273,-108 1273,-127 1308,-127 1308,-108 1273,-108"/>
<text text-anchor="middle" x="1290.5" y="-115" font-family="Helvetica,sans-Serif" font-size="10.00" fill="#000000">loop</text>
</a>
</g>
</g>
<!-- Node8&#45;&gt;Node9 -->
<g id="edge8" class="edge">
<title>Node8&#45;&gt;Node9</title>
<path fill="none" stroke="#191970" d="M1241.9021,-129.1474C1253.4179,-126.3874 1264.3347,-123.771 1272.8934,-121.7198"/>
<polygon fill="#191970" stroke="#191970" points="1241.0354,-125.7559 1232.1266,-131.4903 1242.6669,-132.5632 1241.0354,-125.7559"/>
</g>
<!-- Node10&#45;&gt;Node7 -->
<g id="edge13" class="edge">
<title>Node10&#45;&gt;Node7</title>
<path fill="none" stroke="#191970" d="M543.5469,-73.17C571.8646,-59.995 608.8255,-42.7987 634.9961,-30.6226"/>
<polygon fill="#191970" stroke="#191970" points="541.8932,-70.0791 534.3029,-77.4708 544.8461,-76.4258 541.8932,-70.0791"/>
</g>
<!-- Node11 -->
<g id="node11" class="node">
<title>Node11</title>
<g id="a_node11"><a xlink:href="TooNetworking_8h.html#a9209f3e1a2fdf0b3b88d49105b8fc359" target="_top" xlink:title="TooNetworking_send\l_signed">
<polygon fill="#ffffff" stroke="#000000" points="613,-88.5 613,-118.5 722,-118.5 722,-88.5 613,-88.5"/>
<text text-anchor="start" x="621" y="-106.5" font-family="Helvetica,sans-Serif" font-size="10.00" fill="#000000">TooNetworking_send</text>
<text text-anchor="middle" x="667.5" y="-95.5" font-family="Helvetica,sans-Serif" font-size="10.00" fill="#000000">_signed</text>
</a>
</g>
</g>
<!-- Node10&#45;&gt;Node11 -->
<g id="edge10" class="edge">
<title>Node10&#45;&gt;Node11</title>
<path fill="none" stroke="#191970" d="M567.0055,-96.8206C582.1959,-97.8302 598.2234,-98.8955 612.9078,-99.8715"/>
<polygon fill="#191970" stroke="#191970" points="566.8597,-93.3033 556.6496,-96.1323 566.3954,-100.2879 566.8597,-93.3033"/>
</g>
<!-- Node12 -->
<g id="node12" class="node">
<title>Node12</title>
<g id="a_node12"><a xlink:href="TooNetworking_8h.html#a085ff748b00f6be4ebafcae2bb0dded1" target="_top" xlink:title="TooNetworking_bufferlist\l_send_signed">
<polygon fill="#ffffff" stroke="#000000" points="766,-76.5 766,-106.5 891,-106.5 891,-76.5 766,-76.5"/>
<text text-anchor="start" x="774" y="-94.5" font-family="Helvetica,sans-Serif" font-size="10.00" fill="#000000">TooNetworking_bufferlist</text>
<text text-anchor="middle" x="828.5" y="-83.5" font-family="Helvetica,sans-Serif" font-size="10.00" fill="#000000">_send_signed</text>
</a>
</g>
</g>
<!-- Node10&#45;&gt;Node12 -->
<g id="edge11" class="edge">
<title>Node10&#45;&gt;Node12</title>
<path fill="none" stroke="#191970" d="M566.6749,-82.3513C579.3508,-80.7467 592.5687,-79.341 605,-78.5 660.4289,-74.7502 674.564,-74.8576 730,-78.5 741.618,-79.2634 753.9573,-80.528 765.8299,-81.9764"/>
<polygon fill="#191970" stroke="#191970" points="566.1069,-78.8958 556.6506,-83.6738 567.0225,-85.8357 566.1069,-78.8958"/>
</g>
<!-- Node12&#45;&gt;Node9 -->
<g id="edge12" class="edge">
<title>Node12&#45;&gt;Node9</title>
<path fill="none" stroke="#191970" d="M901.2953,-95.5967C1011.0856,-101.7754 1212.6387,-113.1182 1272.9827,-116.5142"/>
<polygon fill="#191970" stroke="#191970" points="901.4691,-92.101 891.2882,-95.0335 901.0757,-99.09 901.4691,-92.101"/>
</g>
<!-- Node13&#45;&gt;Node6 -->
<g id="edge15" class="edge">
<title>Node13&#45;&gt;Node6</title>
<path fill="none" stroke="#191970" d="M215.634,-97.0145C231.1005,-93.2127 247.3316,-89.223 262.3707,-85.5262"/>
<polygon fill="#191970" stroke="#191970" points="214.4764,-93.6948 205.601,-99.4808 216.1474,-100.4925 214.4764,-93.6948"/>
</g>
<!-- Node13&#45;&gt;Node10 -->
<g id="edge23" class="edge">
<title>Node13&#45;&gt;Node10</title>
<path fill="none" stroke="#191970" d="M222.4031,-109.706C290.4385,-105.5192 387.4448,-99.5496 447.4748,-95.8554"/>
<polygon fill="#191970" stroke="#191970" points="221.9294,-106.2284 212.1633,-110.3361 222.3594,-113.2152 221.9294,-106.2284"/>
</g>
<!-- Node13&#45;&gt;Node14 -->
<g id="edge16" class="edge">
<title>Node13&#45;&gt;Node14</title>
<path fill="none" stroke="#191970" d="M222.1543,-130.9853C241.4097,-135.073 261.4096,-139.3188 278.5041,-142.9478"/>
<polygon fill="#191970" stroke="#191970" points="222.6811,-127.5192 212.1722,-128.8662 221.2274,-134.3666 222.6811,-127.5192"/>
</g>
<!-- Node14&#45;&gt;Node10 -->
<g id="edge17" class="edge">
<title>Node14&#45;&gt;Node10</title>
<path fill="none" stroke="#191970" d="M364.074,-139.8359C375.4,-136.2374 387.698,-132.2706 399,-128.5 419.0355,-121.8157 441.1574,-114.1248 459.7475,-107.5722"/>
<polygon fill="#191970" stroke="#191970" points="362.8996,-136.5364 354.4207,-142.8893 365.0106,-143.2105 362.8996,-136.5364"/>
</g>
<!-- Node15 -->
<g id="node15" class="node">
<title>Node15</title>
<g id="a_node15"><a xlink:href="TooSigning_8h.html#abf99e5d9b5ec252bfff3bf26c0ba9e37" target="_top" xlink:title="TooSigning_connection_fix">
<polygon fill="#ffffff" stroke="#000000" points="435,-143 435,-162 569,-162 569,-143 435,-143"/>
<text text-anchor="middle" x="502" y="-150" font-family="Helvetica,sans-Serif" font-size="10.00" fill="#000000">TooSigning_connection_fix</text>
</a>
</g>
</g>
<!-- Node14&#45;&gt;Node15 -->
<g id="edge18" class="edge">
<title>Node14&#45;&gt;Node15</title>
<path fill="none" stroke="#191970" d="M409.2802,-152.5C417.9003,-152.5 426.5636,-152.5 434.9479,-152.5"/>
<polygon fill="#191970" stroke="#191970" points="409.2001,-149.0001 399.2001,-152.5 409.2,-156.0001 409.2001,-149.0001"/>
</g>
<!-- Node16 -->
<g id="node16" class="node">
<title>Node16</title>
<g id="a_node16"><a xlink:href="TooSigning_8h.html#a58143364a83636a3d2df075a95cb2bfc" target="_top" xlink:title="TooSigning_request\l_nonce_from_node_id">
<polygon fill="#ffffff" stroke="#000000" points="611.5,-137.5 611.5,-167.5 723.5,-167.5 723.5,-137.5 611.5,-137.5"/>
<text text-anchor="start" x="619.5" y="-155.5" font-family="Helvetica,sans-Serif" font-size="10.00" fill="#000000">TooSigning_request</text>
<text text-anchor="middle" x="667.5" y="-144.5" font-family="Helvetica,sans-Serif" font-size="10.00" fill="#000000">_nonce_from_node_id</text>
</a>
</g>
</g>
<!-- Node15&#45;&gt;Node16 -->
<g id="edge19" class="edge">
<title>Node15&#45;&gt;Node16</title>
<path fill="none" stroke="#191970" d="M579.5417,-152.5C590.2703,-152.5 601.116,-152.5 611.3538,-152.5"/>
<polygon fill="#191970" stroke="#191970" points="579.3152,-149.0001 569.3152,-152.5 579.3152,-156.0001 579.3152,-149.0001"/>
</g>
<!-- Node17 -->
<g id="node17" class="node">
<title>Node17</title>
<g id="a_node17"><a xlink:href="TooSigning_8h.html#af7ec4002cf8cf81195f3745703e04b22" target="_top" xlink:title="TooSigning_requested\l_noncelist_retry_all">
<polygon fill="#ffffff" stroke="#000000" points="772,-136.5 772,-166.5 885,-166.5 885,-136.5 772,-136.5"/>
<text text-anchor="start" x="780" y="-154.5" font-family="Helvetica,sans-Serif" font-size="10.00" fill="#000000">TooSigning_requested</text>
<text text-anchor="middle" x="828.5" y="-143.5" font-family="Helvetica,sans-Serif" font-size="10.00" fill="#000000">_noncelist_retry_all</text>
</a>
</g>
</g>
<!-- Node16&#45;&gt;Node17 -->
<g id="edge20" class="edge">
<title>Node16&#45;&gt;Node17</title>
<path fill="none" stroke="#191970" d="M733.8332,-152.088C746.4913,-152.0094 759.632,-151.9278 771.9497,-151.8512"/>
<polygon fill="#191970" stroke="#191970" points="733.788,-148.5881 723.81,-152.1502 733.8316,-155.588 733.788,-148.5881"/>
</g>
<!-- Node18 -->
<g id="node18" class="node">
<title>Node18</title>
<g id="a_node18"><a xlink:href="TooSigning_8h.html#af68b8dda897cf488129c205ad532ca9e" target="_top" xlink:title="TooSigning_signed_network\l_update">
<polygon fill="#ffffff" stroke="#000000" points="927,-135.5 927,-165.5 1066,-165.5 1066,-135.5 927,-135.5"/>
<text text-anchor="start" x="935" y="-153.5" font-family="Helvetica,sans-Serif" font-size="10.00" fill="#000000">TooSigning_signed_network</text>
<text text-anchor="middle" x="996.5" y="-142.5" font-family="Helvetica,sans-Serif" font-size="10.00" fill="#000000">_update</text>
</a>
</g>
</g>
<!-- Node17&#45;&gt;Node18 -->
<g id="edge21" class="edge">
<title>Node17&#45;&gt;Node18</title>
<path fill="none" stroke="#191970" d="M895.5393,-151.101C905.8442,-151.0396 916.5044,-150.9762 926.8642,-150.9145"/>
<polygon fill="#191970" stroke="#191970" points="895.3561,-147.6019 885.3771,-151.1614 895.3978,-154.6018 895.3561,-147.6019"/>
</g>
<!-- Node18&#45;&gt;Node8 -->
<g id="edge22" class="edge">
<title>Node18&#45;&gt;Node8</title>
<path fill="none" stroke="#191970" d="M1076.6166,-148.6476C1085.0706,-148.4521 1093.6064,-148.2548 1101.8985,-148.063"/>
<polygon fill="#191970" stroke="#191970" points="1076.2834,-145.1543 1066.3671,-148.8846 1076.4453,-152.1524 1076.2834,-145.1543"/>
</g>
</g>
</svg>
        <g id="navigator" transform="translate(0 0)" fill="#404254">
                <rect fill="#f2f5e9" fill-opacity="0.5" stroke="#606060" stroke-width=".5" x="0" y="0" width="60" height="60"/>
                <use id="zoomplus" xlink:href="#zoomPlus" x="17" y="9" onmousedown="handleZoom(evt,'in')"/>
                <use id="zoomminus" xlink:href="#zoomMin" x="42" y="9" onmousedown="handleZoom(evt,'out')"/>
                <use id="reset" xlink:href="#resetDef" x="30" y="36" onmousedown="handleReset()"/>
                <g id="arrowUp" xlink:href="#dirArrow" transform="translate(30 24)" onmousedown="handlePan(0,-1)">
                  <use xlink:href="#rim" fill="#404040">
                        <set attributeName="fill" to="#808080" begin="arrowUp.mouseover" end="arrowUp.mouseout"/>
                  </use>
                  <path fill="none" stroke="white" stroke-width="1.5" d="M0,-3.0v7 M-2.5,-0.5L0,-3.0L2.5,-0.5"/>
                </g>
                <g id="arrowRight" xlink:href="#dirArrow" transform="rotate(90) translate(36 -43)" onmousedown="handlePan(1,0)">
                  <use xlink:href="#rim" fill="#404040">
                        <set attributeName="fill" to="#808080" begin="arrowRight.mouseover" end="arrowRight.mouseout"/>
                  </use>
                  <path fill="none" stroke="white" stroke-width="1.5" d="M0,-3.0v7 M-2.5,-0.5L0,-3.0L2.5,-0.5"/>
                </g>
                <g id="arrowDown" xlink:href="#dirArrow" transform="rotate(180) translate(-30 -48)" onmousedown="handlePan(0,1)">
                  <use xlink:href="#rim" fill="#404040">
                        <set attributeName="fill" to="#808080" begin="arrowDown.mouseover" end="arrowDown.mouseout"/>
                  </use>
                  <path fill="none" stroke="white" stroke-width="1.5" d="M0,-3.0v7 M-2.5,-0.5L0,-3.0L2.5,-0.5"/>
                </g>
                <g id="arrowLeft" xlink:href="#dirArrow" transform="rotate(270) translate(-36 17)" onmousedown="handlePan(-1,0)">
                  <use xlink:href="#rim" fill="#404040">
                        <set attributeName="fill" to="#808080" begin="arrowLeft.mouseover" end="arrowLeft.mouseout"/>
                  </use>
                  <path fill="none" stroke="white" stroke-width="1.5" d="M0,-3.0v7 M-2.5,-0.5L0,-3.0L2.5,-0.5"/>
                </g>
        </g>
        <svg viewBox="0 0 15 15" width="100%" height="30px" preserveAspectRatio="xMaxYMin meet">
         <g id="arrow_out" transform="scale(0.3 0.3)">
          <a xlink:href="TooNetworking_8cpp_abdda8f09b9d475ed2c23a2376e2e0151_icgraph_org.svg" target="_base">
           <rect id="button" ry="5" rx="5" y="6" x="6" height="38" width="38"
                fill="#f2f5e9" fill-opacity="0.5" stroke="#606060" stroke-width="1.0"/>
           <path id="arrow"
             d="M 11.500037,31.436501 C 11.940474,20.09759 22.043105,11.32322 32.158766,21.979434 L 37.068811,17.246167 C 37.068811,17.246167 37.088388,32 37.088388,32 L 22.160133,31.978069 C 22.160133,31.978069 26.997745,27.140456 26.997745,27.140456 C 18.528582,18.264221 13.291696,25.230495 11.500037,31.436501 z"
             style="fill:#404040;"/>
          </a>
         </g>
        </svg>
</svg>
