<?xml version="1.0" encoding="UTF-8" standalone="no"?>
<!DOCTYPE svg PUBLIC "-//W3C//DTD SVG 1.1//EN"
 "http://www.w3.org/Graphics/SVG/1.1/DTD/svg11.dtd">
<!-- Generated by graphviz version 2.40.1 (20161225.0304)
 -->
<!-- Title: TooNetworking_bufferlist_remove Pages: 1 -->
<svg width="853pt" height="132pt"
 viewBox="0.00 0.00 853.00 132.34" xmlns="http://www.w3.org/2000/svg" xmlns:xlink="http://www.w3.org/1999/xlink">
<g id="graph0" class="graph" transform="scale(1 1) rotate(0) translate(4 128.3423)">
<title>TooNetworking_bufferlist_remove</title>
<polygon fill="#ffffff" stroke="transparent" points="-4,4 -4,-128.3423 849,-128.3423 849,4 -4,4"/>
<!-- Node38 -->
<g id="node1" class="node">
<title>Node38</title>
<polygon fill="#bfbfbf" stroke="#000000" points="0,-.5 0,-30.5 125,-30.5 125,-.5 0,-.5"/>
<text text-anchor="start" x="8" y="-18.5" font-family="Helvetica,sans-Serif" font-size="10.00" fill="#000000">TooNetworking_bufferlist</text>
<text text-anchor="middle" x="62.5" y="-7.5" font-family="Helvetica,sans-Serif" font-size="10.00" fill="#000000">_remove</text>
</g>
<!-- Node39 -->
<g id="node2" class="node">
<title>Node39</title>
<g id="a_node2"><a xlink:href="TooNetworking_8h.html#a0ad03a7efb42cf40ca3e20fb5df3a5db" target="_top" xlink:title="TooNetworking_bufferlist\l_send_">
<polygon fill="#ffffff" stroke="#000000" points="161,-22.5 161,-52.5 286,-52.5 286,-22.5 161,-22.5"/>
<text text-anchor="start" x="169" y="-40.5" font-family="Helvetica,sans-Serif" font-size="10.00" fill="#000000">TooNetworking_bufferlist</text>
<text text-anchor="middle" x="223.5" y="-29.5" font-family="Helvetica,sans-Serif" font-size="10.00" fill="#000000">_send_</text>
</a>
</g>
</g>
<!-- Node38&#45;&gt;Node39 -->
<g id="edge1" class="edge">
<title>Node38&#45;&gt;Node39</title>
<path fill="none" stroke="#191970" d="M135.2184,-25.4367C143.8129,-26.6111 152.5268,-27.8018 160.9633,-28.9546"/>
<polygon fill="#191970" stroke="#191970" points="135.5896,-21.955 125.2078,-24.0688 134.6419,-28.8905 135.5896,-21.955"/>
</g>
<!-- Node44 -->
<g id="node7" class="node">
<title>Node44</title>
<g id="a_node7"><a xlink:href="TooNetworking_8h.html#ab58e06e0eb6f2f8ecbebeaf3c173fb22" target="_top" xlink:title="TooNetworking_bufferlist\l_send_all">
<polygon fill="#ffffff" stroke="#000000" points="649,-16.5 649,-46.5 774,-46.5 774,-16.5 649,-16.5"/>
<text text-anchor="start" x="657" y="-34.5" font-family="Helvetica,sans-Serif" font-size="10.00" fill="#000000">TooNetworking_bufferlist</text>
<text text-anchor="middle" x="711.5" y="-23.5" font-family="Helvetica,sans-Serif" font-size="10.00" fill="#000000">_send_all</text>
</a>
</g>
</g>
<!-- Node38&#45;&gt;Node44 -->
<g id="edge11" class="edge">
<title>Node38&#45;&gt;Node44</title>
<path fill="none" stroke="#191970" d="M135.1806,-13.0363C143.8804,-12.8153 152.6391,-12.6273 161,-12.5 216.5491,-11.6543 230.4583,-11.2606 286,-12.5 415.0021,-15.3788 565.8398,-23.161 648.8063,-27.8243"/>
<polygon fill="#191970" stroke="#191970" points="134.9245,-9.5418 125.0221,-13.3091 135.1125,-16.5393 134.9245,-9.5418"/>
</g>
<!-- Node40 -->
<g id="node3" class="node">
<title>Node40</title>
<g id="a_node3"><a xlink:href="TooNetworking_8h.html#a59be7e774988f57ab43c4c078c570c67" target="_top" xlink:title="TooNetworking_bufferlist_add">
<polygon fill="#ffffff" stroke="#000000" points="322,-66 322,-85 468,-85 468,-66 322,-66"/>
<text text-anchor="middle" x="395" y="-73" font-family="Helvetica,sans-Serif" font-size="10.00" fill="#000000">TooNetworking_bufferlist_add</text>
</a>
</g>
</g>
<!-- Node39&#45;&gt;Node40 -->
<g id="edge2" class="edge">
<title>Node39&#45;&gt;Node40</title>
<path fill="none" stroke="#191970" d="M296.2128,-53.6113C315.1946,-57.8172 335.049,-62.2164 351.9378,-65.9585"/>
<polygon fill="#191970" stroke="#191970" points="296.9068,-50.1803 286.3864,-51.434 295.3925,-57.0145 296.9068,-50.1803"/>
</g>
<!-- Node39&#45;&gt;Node44 -->
<g id="edge10" class="edge">
<title>Node39&#45;&gt;Node44</title>
<path fill="none" stroke="#191970" d="M296.4768,-36.6027C392.231,-35.4254 558.6699,-33.3791 648.9426,-32.2691"/>
<polygon fill="#191970" stroke="#191970" points="296.2546,-33.1051 286.2984,-36.7279 296.3407,-40.1046 296.2546,-33.1051"/>
</g>
<!-- Node41 -->
<g id="node4" class="node">
<title>Node41</title>
<g id="a_node4"><a xlink:href="TooNetworking_8h.html#a9209f3e1a2fdf0b3b88d49105b8fc359" target="_top" xlink:title="TooNetworking_send\l_signed">
<polygon fill="#ffffff" stroke="#000000" points="504,-60.5 504,-90.5 613,-90.5 613,-60.5 504,-60.5"/>
<text text-anchor="start" x="512" y="-78.5" font-family="Helvetica,sans-Serif" font-size="10.00" fill="#000000">TooNetworking_send</text>
<text text-anchor="middle" x="558.5" y="-67.5" font-family="Helvetica,sans-Serif" font-size="10.00" fill="#000000">_signed</text>
</a>
</g>
</g>
<!-- Node40&#45;&gt;Node41 -->
<g id="edge3" class="edge">
<title>Node40&#45;&gt;Node41</title>
<path fill="none" stroke="#191970" d="M478.2213,-68.751C486.8182,-68.7623 495.3934,-68.8732 503.5665,-69.0837"/>
<polygon fill="#191970" stroke="#191970" points="478.1308,-65.2511 468.1421,-68.7834 478.1534,-72.2511 478.1308,-65.2511"/>
</g>
<!-- Node42 -->
<g id="node5" class="node">
<title>Node42</title>
<g id="a_node5"><a xlink:href="TooNetworking_8h.html#a085ff748b00f6be4ebafcae2bb0dded1" target="_top" xlink:title="TooNetworking_bufferlist\l_send_signed">
<polygon fill="#ffffff" stroke="#000000" points="649,-93.5 649,-123.5 774,-123.5 774,-93.5 649,-93.5"/>
<text text-anchor="start" x="657" y="-111.5" font-family="Helvetica,sans-Serif" font-size="10.00" fill="#000000">TooNetworking_bufferlist</text>
<text text-anchor="middle" x="711.5" y="-100.5" font-family="Helvetica,sans-Serif" font-size="10.00" fill="#000000">_send_signed</text>
</a>
</g>
</g>
<!-- Node40&#45;&gt;Node42 -->
<g id="edge9" class="edge">
<title>Node40&#45;&gt;Node42</title>
<path fill="none" stroke="#191970" d="M422.4426,-89.673C443.9787,-99.9597 475.0578,-112.9976 504,-118.5 552.0096,-127.6275 607.3288,-124.2911 648.7695,-119.128"/>
<polygon fill="#191970" stroke="#191970" points="423.7814,-86.4315 413.261,-85.1772 420.703,-92.7183 423.7814,-86.4315"/>
</g>
<!-- Node41&#45;&gt;Node40 -->
<g id="edge4" class="edge">
<title>Node41&#45;&gt;Node40</title>
<path fill="none" stroke="#191970" d="M493.5351,-82.1219C485.1918,-82.2509 476.6048,-82.2825 468.1421,-82.2166"/>
<polygon fill="#191970" stroke="#191970" points="493.6403,-85.6206 503.5665,-81.9163 493.4968,-78.6221 493.6403,-85.6206"/>
</g>
<!-- Node41&#45;&gt;Node41 -->
<g id="edge5" class="edge">
<title>Node41&#45;&gt;Node41</title>
<path fill="none" stroke="#191970" d="M531.4914,-100.9579C534.8436,-105.679 543.8464,-109 558.5,-109 582.5469,-109 591.3766,-100.0566 584.9891,-90.659"/>
<polygon fill="#191970" stroke="#191970" points="535.0026,-100.8226 532.0109,-90.659 528.0115,-100.47 535.0026,-100.8226"/>
</g>
<!-- Node41&#45;&gt;Node42 -->
<g id="edge6" class="edge">
<title>Node41&#45;&gt;Node42</title>
<path fill="none" stroke="#191970" d="M623.1421,-89.4424C631.6223,-91.2715 640.3018,-93.1435 648.7499,-94.9657"/>
<polygon fill="#191970" stroke="#191970" points="623.8175,-86.0077 613.3044,-87.3205 622.3416,-92.8503 623.8175,-86.0077"/>
</g>
<!-- Node41&#45;&gt;Node44 -->
<g id="edge8" class="edge">
<title>Node41&#45;&gt;Node44</title>
<path fill="none" stroke="#191970" d="M620.4364,-57.6882C633.3136,-53.985 646.7624,-50.1173 659.2498,-46.5262"/>
<polygon fill="#191970" stroke="#191970" points="619.3691,-54.3532 610.726,-60.4808 621.3038,-61.0806 619.3691,-54.3532"/>
</g>
<!-- Node43 -->
<g id="node6" class="node">
<title>Node43</title>
<g id="a_node6"><a xlink:href="NODE__SKETCH__TooAutomation__Node_8ino_8cpp.html#a0b33edabd7f1c4e4a0bf32c67269be2f" target="_top" xlink:title="loop">
<polygon fill="#ffffff" stroke="#000000" points="810,-99 810,-118 845,-118 845,-99 810,-99"/>
<text text-anchor="middle" x="827.5" y="-106" font-family="Helvetica,sans-Serif" font-size="10.00" fill="#000000">loop</text>
</a>
</g>
</g>
<!-- Node42&#45;&gt;Node43 -->
<g id="edge7" class="edge">
<title>Node42&#45;&gt;Node43</title>
<path fill="none" stroke="#191970" d="M784.5149,-108.5C793.8175,-108.5 802.5667,-108.5 809.7123,-108.5"/>
<polygon fill="#191970" stroke="#191970" points="784.2531,-105.0001 774.2531,-108.5 784.253,-112.0001 784.2531,-105.0001"/>
</g>
</g>
</svg>
