<?xml version="1.0" encoding="UTF-8" standalone="no"?>
<!DOCTYPE svg PUBLIC "-//W3C//DTD SVG 1.1//EN"
 "http://www.w3.org/Graphics/SVG/1.1/DTD/svg11.dtd">
<!-- Generated by graphviz version 2.40.1 (20161225.0304)
 -->
<!-- Title: TooNetworking_other_node_is_online Pages: 1 -->
<svg width="838pt" height="154pt"
 viewBox="0.00 0.00 838.00 154.00" xmlns="http://www.w3.org/2000/svg" xmlns:xlink="http://www.w3.org/1999/xlink">
<g id="graph0" class="graph" transform="scale(1 1) rotate(0) translate(4 150)">
<title>TooNetworking_other_node_is_online</title>
<polygon fill="#ffffff" stroke="transparent" points="-4,4 -4,-150 834,-150 834,4 -4,4"/>
<!-- Node172 -->
<g id="node1" class="node">
<title>Node172</title>
<polygon fill="#bfbfbf" stroke="#000000" points="0,-24.5 0,-54.5 110,-54.5 110,-24.5 0,-24.5"/>
<text text-anchor="start" x="8" y="-42.5" font-family="Helvetica,sans-Serif" font-size="10.00" fill="#000000">TooNetworking_other</text>
<text text-anchor="middle" x="55" y="-31.5" font-family="Helvetica,sans-Serif" font-size="10.00" fill="#000000">_node_is_online</text>
</g>
<!-- Node173 -->
<g id="node2" class="node">
<title>Node173</title>
<g id="a_node2"><a xlink:href="TooNetworking_8h.html#a0ad03a7efb42cf40ca3e20fb5df3a5db" target="_top" xlink:title="TooNetworking_bufferlist\l_send_">
<polygon fill="#ffffff" stroke="#000000" points="146,-49.5 146,-79.5 271,-79.5 271,-49.5 146,-49.5"/>
<text text-anchor="start" x="154" y="-67.5" font-family="Helvetica,sans-Serif" font-size="10.00" fill="#000000">TooNetworking_bufferlist</text>
<text text-anchor="middle" x="208.5" y="-56.5" font-family="Helvetica,sans-Serif" font-size="10.00" fill="#000000">_send_</text>
</a>
</g>
</g>
<!-- Node172&#45;&gt;Node173 -->
<g id="edge1" class="edge">
<title>Node172&#45;&gt;Node173</title>
<path fill="none" stroke="#191970" d="M120.5424,-50.1747C128.9406,-51.5424 137.5218,-52.94 145.872,-54.3"/>
<polygon fill="#191970" stroke="#191970" points="120.8496,-46.6787 110.417,-48.5256 119.7243,-53.5876 120.8496,-46.6787"/>
</g>
<!-- Node179 -->
<g id="node8" class="node">
<title>Node179</title>
<g id="a_node8"><a xlink:href="TooNetworking_8h.html#ab5dfe46515ee5ca8f9893675df673d96" target="_top" xlink:title="TooNetworking_send\l_signed">
<polygon fill="#ffffff" stroke="#000000" points="154,-.5 154,-30.5 263,-30.5 263,-.5 154,-.5"/>
<text text-anchor="start" x="162" y="-18.5" font-family="Helvetica,sans-Serif" font-size="10.00" fill="#000000">TooNetworking_send</text>
<text text-anchor="middle" x="208.5" y="-7.5" font-family="Helvetica,sans-Serif" font-size="10.00" fill="#000000">_signed</text>
</a>
</g>
</g>
<!-- Node172&#45;&gt;Node179 -->
<g id="edge11" class="edge">
<title>Node172&#45;&gt;Node179</title>
<path fill="none" stroke="#191970" d="M120.5259,-29.2549C131.6621,-27.5137 143.1205,-25.7222 153.9359,-24.0312"/>
<polygon fill="#191970" stroke="#191970" points="119.7563,-25.8326 110.417,-30.8354 120.8377,-32.7486 119.7563,-25.8326"/>
</g>
<!-- Node174 -->
<g id="node3" class="node">
<title>Node174</title>
<g id="a_node3"><a xlink:href="TooNetworking_8h.html#a59be7e774988f57ab43c4c078c570c67" target="_top" xlink:title="TooNetworking_bufferlist_add">
<polygon fill="#ffffff" stroke="#000000" points="307,-77 307,-96 453,-96 453,-77 307,-77"/>
<text text-anchor="middle" x="380" y="-84" font-family="Helvetica,sans-Serif" font-size="10.00" fill="#000000">TooNetworking_bufferlist_add</text>
</a>
</g>
</g>
<!-- Node173&#45;&gt;Node174 -->
<g id="edge2" class="edge">
<title>Node173&#45;&gt;Node174</title>
<path fill="none" stroke="#191970" d="M281.5451,-73.8702C289.9597,-74.9496 298.5412,-76.0505 306.9558,-77.1299"/>
<polygon fill="#191970" stroke="#191970" points="281.7505,-70.368 271.3864,-72.5671 280.8598,-77.3111 281.7505,-70.368"/>
</g>
<!-- Node178 -->
<g id="node7" class="node">
<title>Node178</title>
<g id="a_node7"><a xlink:href="TooNetworking_8h.html#ab58e06e0eb6f2f8ecbebeaf3c173fb22" target="_top" xlink:title="TooNetworking_bufferlist\l_send_all">
<polygon fill="#ffffff" stroke="#000000" points="634,-49.5 634,-79.5 759,-79.5 759,-49.5 634,-49.5"/>
<text text-anchor="start" x="642" y="-67.5" font-family="Helvetica,sans-Serif" font-size="10.00" fill="#000000">TooNetworking_bufferlist</text>
<text text-anchor="middle" x="696.5" y="-56.5" font-family="Helvetica,sans-Serif" font-size="10.00" fill="#000000">_send_all</text>
</a>
</g>
</g>
<!-- Node173&#45;&gt;Node178 -->
<g id="edge10" class="edge">
<title>Node173&#45;&gt;Node178</title>
<path fill="none" stroke="#191970" d="M281.4768,-62.9402C359.7429,-61.5006 487.6689,-59.8202 598,-61.5 609.6325,-61.6771 622.0351,-61.9718 633.9779,-62.3091"/>
<polygon fill="#191970" stroke="#191970" points="281.1738,-59.4451 271.2412,-63.1323 281.3052,-66.4439 281.1738,-59.4451"/>
</g>
<!-- Node175 -->
<g id="node4" class="node">
<title>Node175</title>
<g id="a_node4"><a xlink:href="TooNetworking_8h.html#a9209f3e1a2fdf0b3b88d49105b8fc359" target="_top" xlink:title="TooNetworking_send\l_signed">
<polygon fill="#ffffff" stroke="#000000" points="489,-71.5 489,-101.5 598,-101.5 598,-71.5 489,-71.5"/>
<text text-anchor="start" x="497" y="-89.5" font-family="Helvetica,sans-Serif" font-size="10.00" fill="#000000">TooNetworking_send</text>
<text text-anchor="middle" x="543.5" y="-78.5" font-family="Helvetica,sans-Serif" font-size="10.00" fill="#000000">_signed</text>
</a>
</g>
</g>
<!-- Node174&#45;&gt;Node175 -->
<g id="edge3" class="edge">
<title>Node174&#45;&gt;Node175</title>
<path fill="none" stroke="#191970" d="M463.2213,-79.751C471.8182,-79.7623 480.3934,-79.8732 488.5665,-80.0837"/>
<polygon fill="#191970" stroke="#191970" points="463.1308,-76.2511 453.1421,-79.7834 463.1534,-83.2511 463.1308,-76.2511"/>
</g>
<!-- Node176 -->
<g id="node5" class="node">
<title>Node176</title>
<g id="a_node5"><a xlink:href="TooNetworking_8h.html#a085ff748b00f6be4ebafcae2bb0dded1" target="_top" xlink:title="TooNetworking_bufferlist\l_send_signed">
<polygon fill="#ffffff" stroke="#000000" points="634,-115.5 634,-145.5 759,-145.5 759,-115.5 634,-115.5"/>
<text text-anchor="start" x="642" y="-133.5" font-family="Helvetica,sans-Serif" font-size="10.00" fill="#000000">TooNetworking_bufferlist</text>
<text text-anchor="middle" x="696.5" y="-122.5" font-family="Helvetica,sans-Serif" font-size="10.00" fill="#000000">_send_signed</text>
</a>
</g>
</g>
<!-- Node174&#45;&gt;Node176 -->
<g id="edge9" class="edge">
<title>Node174&#45;&gt;Node176</title>
<path fill="none" stroke="#191970" d="M407.4501,-100.6335C428.9903,-110.8991 460.0711,-123.9278 489,-129.5 536.9324,-138.7326 592.2561,-138.4717 633.7181,-136.1806"/>
<polygon fill="#191970" stroke="#191970" points="408.7882,-97.3919 398.2666,-96.148 405.716,-103.6818 408.7882,-97.3919"/>
</g>
<!-- Node175&#45;&gt;Node174 -->
<g id="edge4" class="edge">
<title>Node175&#45;&gt;Node174</title>
<path fill="none" stroke="#191970" d="M478.5351,-93.1219C470.1918,-93.2509 461.6048,-93.2825 453.1421,-93.2166"/>
<polygon fill="#191970" stroke="#191970" points="478.6403,-96.6206 488.5665,-92.9163 478.4968,-89.6221 478.6403,-96.6206"/>
</g>
<!-- Node175&#45;&gt;Node175 -->
<g id="edge5" class="edge">
<title>Node175&#45;&gt;Node175</title>
<path fill="none" stroke="#191970" d="M516.4914,-111.9579C519.8436,-116.679 528.8464,-120 543.5,-120 567.5469,-120 576.3766,-111.0566 569.9891,-101.659"/>
<polygon fill="#191970" stroke="#191970" points="520.0026,-111.8226 517.0109,-101.659 513.0115,-111.47 520.0026,-111.8226"/>
</g>
<!-- Node175&#45;&gt;Node176 -->
<g id="edge6" class="edge">
<title>Node175&#45;&gt;Node176</title>
<path fill="none" stroke="#191970" d="M605.4364,-104.3118C618.3136,-108.015 631.7624,-111.8827 644.2498,-115.4738"/>
<polygon fill="#191970" stroke="#191970" points="606.3038,-100.9194 595.726,-101.5192 604.3691,-107.6468 606.3038,-100.9194"/>
</g>
<!-- Node175&#45;&gt;Node178 -->
<g id="edge8" class="edge">
<title>Node175&#45;&gt;Node178</title>
<path fill="none" stroke="#191970" d="M608.4187,-77.1653C616.811,-75.9586 625.3936,-74.7244 633.7499,-73.5229"/>
<polygon fill="#191970" stroke="#191970" points="607.7044,-73.7319 598.3044,-78.6196 608.7007,-80.6606 607.7044,-73.7319"/>
</g>
<!-- Node177 -->
<g id="node6" class="node">
<title>Node177</title>
<g id="a_node6"><a xlink:href="NODE__SKETCH__TooAutomation__Node_8ino_8cpp.html#a0b33edabd7f1c4e4a0bf32c67269be2f" target="_top" xlink:title="loop">
<polygon fill="#ffffff" stroke="#000000" points="795,-121 795,-140 830,-140 830,-121 795,-121"/>
<text text-anchor="middle" x="812.5" y="-128" font-family="Helvetica,sans-Serif" font-size="10.00" fill="#000000">loop</text>
</a>
</g>
</g>
<!-- Node176&#45;&gt;Node177 -->
<g id="edge7" class="edge">
<title>Node176&#45;&gt;Node177</title>
<path fill="none" stroke="#191970" d="M769.5149,-130.5C778.8175,-130.5 787.5667,-130.5 794.7123,-130.5"/>
<polygon fill="#191970" stroke="#191970" points="769.2531,-127.0001 759.2531,-130.5 769.253,-134.0001 769.2531,-127.0001"/>
</g>
</g>
</svg>
