<?xml version="1.0" encoding="UTF-8" standalone="no"?>
<!DOCTYPE svg PUBLIC "-//W3C//DTD SVG 1.1//EN"
 "http://www.w3.org/Graphics/SVG/1.1/DTD/svg11.dtd">
<!-- Generated by graphviz version 2.40.1 (20161225.0304)
 -->
<!-- Title: TooNetworking_bufferlist_remove Pages: 1 -->
<!--zoomable 132 -->
<svg id="main" version="1.1" xmlns="http://www.w3.org/2000/svg" xmlns:xlink="http://www.w3.org/1999/xlink" xml:space="preserve" onload="init(evt)">
<style type="text/css"><![CDATA[
.edge:hover path { stroke: red; }
.edge:hover polygon { stroke: red; fill: red; }
]]></style>
<script type="text/javascript"><![CDATA[
var edges = document.getElementsByTagName('g');
if (edges && edges.length) {
  for (var i=0;i<edges.length;i++) {
    if (edges[i].id.substr(0,4)=='edge') {
      edges[i].setAttribute('class','edge');
    }
  }
}
]]></script>
        <defs>
                <circle id="rim" cx="0" cy="0" r="7"/>
                <circle id="rim2" cx="0" cy="0" r="3.5"/>
                <g id="zoomPlus">
                        <use xlink:href="#rim" fill="#404040">
                                <set attributeName="fill" to="#808080" begin="zoomplus.mouseover" end="zoomplus.mouseout"/>
                        </use>
                        <path d="M-4,0h8M0,-4v8" fill="none" stroke="white" stroke-width="1.5" pointer-events="none"/>
                </g>
                <g id="zoomMin">
                        <use xlink:href="#rim" fill="#404040">
                                <set attributeName="fill" to="#808080" begin="zoomminus.mouseover" end="zoomminus.mouseout"/>
                        </use>
                        <path d="M-4,0h8" fill="none" stroke="white" stroke-width="1.5" pointer-events="none"/>
                </g>
                <g id="dirArrow">
                        <path fill="none" stroke="white" stroke-width="1.5" d="M0,-3.0v7 M-2.5,-0.5L0,-3.0L2.5,-0.5"/>
                </g>
               <g id="resetDef">
                       <use xlink:href="#rim2" fill="#404040">
                               <set attributeName="fill" to="#808080" begin="reset.mouseover" end="reset.mouseout"/>
                       </use>
               </g>
        </defs>

<script type="text/javascript">
var viewWidth = 853;
var viewHeight = 132;
var sectionId = 'dynsection-7';
</script>
<script xlink:href="svgpan.js"/>
<svg id="graph" class="graph">
<g id="viewport">
<title>TooNetworking_bufferlist_remove</title>
<polygon fill="#ffffff" stroke="transparent" points="-4,4 -4,-128.3423 849,-128.3423 849,4 -4,4"/>
<!-- Node68 -->
<g id="node1" class="node">
<title>Node68</title>
<polygon fill="#bfbfbf" stroke="#000000" points="0,-.5 0,-30.5 125,-30.5 125,-.5 0,-.5"/>
<text text-anchor="start" x="8" y="-18.5" font-family="Helvetica,sans-Serif" font-size="10.00" fill="#000000">TooNetworking_bufferlist</text>
<text text-anchor="middle" x="62.5" y="-7.5" font-family="Helvetica,sans-Serif" font-size="10.00" fill="#000000">_remove</text>
</g>
<!-- Node69 -->
<g id="node2" class="node">
<title>Node69</title>
<g id="a_node2"><a xlink:href="TooNetworking_8h.html#a0ad03a7efb42cf40ca3e20fb5df3a5db" target="_top" xlink:title="TooNetworking_bufferlist\l_send_">
<polygon fill="#ffffff" stroke="#000000" points="161,-22.5 161,-52.5 286,-52.5 286,-22.5 161,-22.5"/>
<text text-anchor="start" x="169" y="-40.5" font-family="Helvetica,sans-Serif" font-size="10.00" fill="#000000">TooNetworking_bufferlist</text>
<text text-anchor="middle" x="223.5" y="-29.5" font-family="Helvetica,sans-Serif" font-size="10.00" fill="#000000">_send_</text>
</a>
</g>
</g>
<!-- Node68&#45;&gt;Node69 -->
<g id="edge1" class="edge">
<title>Node68&#45;&gt;Node69</title>
<path fill="none" stroke="#191970" d="M135.2184,-25.4367C143.8129,-26.6111 152.5268,-27.8018 160.9633,-28.9546"/>
<polygon fill="#191970" stroke="#191970" points="135.5896,-21.955 125.2078,-24.0688 134.6419,-28.8905 135.5896,-21.955"/>
</g>
<!-- Node74 -->
<g id="node7" class="node">
<title>Node74</title>
<g id="a_node7"><a xlink:href="TooNetworking_8h.html#ab58e06e0eb6f2f8ecbebeaf3c173fb22" target="_top" xlink:title="TooNetworking_bufferlist\l_send_all">
<polygon fill="#ffffff" stroke="#000000" points="649,-16.5 649,-46.5 774,-46.5 774,-16.5 649,-16.5"/>
<text text-anchor="start" x="657" y="-34.5" font-family="Helvetica,sans-Serif" font-size="10.00" fill="#000000">TooNetworking_bufferlist</text>
<text text-anchor="middle" x="711.5" y="-23.5" font-family="Helvetica,sans-Serif" font-size="10.00" fill="#000000">_send_all</text>
</a>
</g>
</g>
<!-- Node68&#45;&gt;Node74 -->
<g id="edge11" class="edge">
<title>Node68&#45;&gt;Node74</title>
<path fill="none" stroke="#191970" d="M135.1806,-13.0363C143.8804,-12.8153 152.6391,-12.6273 161,-12.5 216.5491,-11.6543 230.4583,-11.2606 286,-12.5 415.0021,-15.3788 565.8398,-23.161 648.8063,-27.8243"/>
<polygon fill="#191970" stroke="#191970" points="134.9245,-9.5418 125.0221,-13.3091 135.1125,-16.5393 134.9245,-9.5418"/>
</g>
<!-- Node70 -->
<g id="node3" class="node">
<title>Node70</title>
<g id="a_node3"><a xlink:href="TooNetworking_8h.html#a59be7e774988f57ab43c4c078c570c67" target="_top" xlink:title="TooNetworking_bufferlist_add">
<polygon fill="#ffffff" stroke="#000000" points="322,-66 322,-85 468,-85 468,-66 322,-66"/>
<text text-anchor="middle" x="395" y="-73" font-family="Helvetica,sans-Serif" font-size="10.00" fill="#000000">TooNetworking_bufferlist_add</text>
</a>
</g>
</g>
<!-- Node69&#45;&gt;Node70 -->
<g id="edge2" class="edge">
<title>Node69&#45;&gt;Node70</title>
<path fill="none" stroke="#191970" d="M296.2128,-53.6113C315.1946,-57.8172 335.049,-62.2164 351.9378,-65.9585"/>
<polygon fill="#191970" stroke="#191970" points="296.9068,-50.1803 286.3864,-51.434 295.3925,-57.0145 296.9068,-50.1803"/>
</g>
<!-- Node69&#45;&gt;Node74 -->
<g id="edge10" class="edge">
<title>Node69&#45;&gt;Node74</title>
<path fill="none" stroke="#191970" d="M296.4768,-36.6027C392.231,-35.4254 558.6699,-33.3791 648.9426,-32.2691"/>
<polygon fill="#191970" stroke="#191970" points="296.2546,-33.1051 286.2984,-36.7279 296.3407,-40.1046 296.2546,-33.1051"/>
</g>
<!-- Node71 -->
<g id="node4" class="node">
<title>Node71</title>
<g id="a_node4"><a xlink:href="TooNetworking_8h.html#a9209f3e1a2fdf0b3b88d49105b8fc359" target="_top" xlink:title="TooNetworking_send\l_signed">
<polygon fill="#ffffff" stroke="#000000" points="504,-60.5 504,-90.5 613,-90.5 613,-60.5 504,-60.5"/>
<text text-anchor="start" x="512" y="-78.5" font-family="Helvetica,sans-Serif" font-size="10.00" fill="#000000">TooNetworking_send</text>
<text text-anchor="middle" x="558.5" y="-67.5" font-family="Helvetica,sans-Serif" font-size="10.00" fill="#000000">_signed</text>
</a>
</g>
</g>
<!-- Node70&#45;&gt;Node71 -->
<g id="edge3" class="edge">
<title>Node70&#45;&gt;Node71</title>
<path fill="none" stroke="#191970" d="M478.2213,-68.751C486.8182,-68.7623 495.3934,-68.8732 503.5665,-69.0837"/>
<polygon fill="#191970" stroke="#191970" points="478.1308,-65.2511 468.1421,-68.7834 478.1534,-72.2511 478.1308,-65.2511"/>
</g>
<!-- Node72 -->
<g id="node5" class="node">
<title>Node72</title>
<g id="a_node5"><a xlink:href="TooNetworking_8h.html#a085ff748b00f6be4ebafcae2bb0dded1" target="_top" xlink:title="TooNetworking_bufferlist\l_send_signed">
<polygon fill="#ffffff" stroke="#000000" points="649,-93.5 649,-123.5 774,-123.5 774,-93.5 649,-93.5"/>
<text text-anchor="start" x="657" y="-111.5" font-family="Helvetica,sans-Serif" font-size="10.00" fill="#000000">TooNetworking_bufferlist</text>
<text text-anchor="middle" x="711.5" y="-100.5" font-family="Helvetica,sans-Serif" font-size="10.00" fill="#000000">_send_signed</text>
</a>
</g>
</g>
<!-- Node70&#45;&gt;Node72 -->
<g id="edge9" class="edge">
<title>Node70&#45;&gt;Node72</title>
<path fill="none" stroke="#191970" d="M422.4426,-89.673C443.9787,-99.9597 475.0578,-112.9976 504,-118.5 552.0096,-127.6275 607.3288,-124.2911 648.7695,-119.128"/>
<polygon fill="#191970" stroke="#191970" points="423.7814,-86.4315 413.261,-85.1772 420.703,-92.7183 423.7814,-86.4315"/>
</g>
<!-- Node71&#45;&gt;Node70 -->
<g id="edge4" class="edge">
<title>Node71&#45;&gt;Node70</title>
<path fill="none" stroke="#191970" d="M493.5351,-82.1219C485.1918,-82.2509 476.6048,-82.2825 468.1421,-82.2166"/>
<polygon fill="#191970" stroke="#191970" points="493.6403,-85.6206 503.5665,-81.9163 493.4968,-78.6221 493.6403,-85.6206"/>
</g>
<!-- Node71&#45;&gt;Node71 -->
<g id="edge5" class="edge">
<title>Node71&#45;&gt;Node71</title>
<path fill="none" stroke="#191970" d="M531.4914,-100.9579C534.8436,-105.679 543.8464,-109 558.5,-109 582.5469,-109 591.3766,-100.0566 584.9891,-90.659"/>
<polygon fill="#191970" stroke="#191970" points="535.0026,-100.8226 532.0109,-90.659 528.0115,-100.47 535.0026,-100.8226"/>
</g>
<!-- Node71&#45;&gt;Node72 -->
<g id="edge6" class="edge">
<title>Node71&#45;&gt;Node72</title>
<path fill="none" stroke="#191970" d="M623.1421,-89.4424C631.6223,-91.2715 640.3018,-93.1435 648.7499,-94.9657"/>
<polygon fill="#191970" stroke="#191970" points="623.8175,-86.0077 613.3044,-87.3205 622.3416,-92.8503 623.8175,-86.0077"/>
</g>
<!-- Node71&#45;&gt;Node74 -->
<g id="edge8" class="edge">
<title>Node71&#45;&gt;Node74</title>
<path fill="none" stroke="#191970" d="M620.4364,-57.6882C633.3136,-53.985 646.7624,-50.1173 659.2498,-46.5262"/>
<polygon fill="#191970" stroke="#191970" points="619.3691,-54.3532 610.726,-60.4808 621.3038,-61.0806 619.3691,-54.3532"/>
</g>
<!-- Node73 -->
<g id="node6" class="node">
<title>Node73</title>
<g id="a_node6"><a xlink:href="NODE__SKETCH__TooAutomation__Node_8ino_8cpp.html#a0b33edabd7f1c4e4a0bf32c67269be2f" target="_top" xlink:title="loop">
<polygon fill="#ffffff" stroke="#000000" points="810,-99 810,-118 845,-118 845,-99 810,-99"/>
<text text-anchor="middle" x="827.5" y="-106" font-family="Helvetica,sans-Serif" font-size="10.00" fill="#000000">loop</text>
</a>
</g>
</g>
<!-- Node72&#45;&gt;Node73 -->
<g id="edge7" class="edge">
<title>Node72&#45;&gt;Node73</title>
<path fill="none" stroke="#191970" d="M784.5149,-108.5C793.8175,-108.5 802.5667,-108.5 809.7123,-108.5"/>
<polygon fill="#191970" stroke="#191970" points="784.2531,-105.0001 774.2531,-108.5 784.253,-112.0001 784.2531,-105.0001"/>
</g>
</g>
</svg>
        <g id="navigator" transform="translate(0 0)" fill="#404254">
                <rect fill="#f2f5e9" fill-opacity="0.5" stroke="#606060" stroke-width=".5" x="0" y="0" width="60" height="60"/>
                <use id="zoomplus" xlink:href="#zoomPlus" x="17" y="9" onmousedown="handleZoom(evt,'in')"/>
                <use id="zoomminus" xlink:href="#zoomMin" x="42" y="9" onmousedown="handleZoom(evt,'out')"/>
                <use id="reset" xlink:href="#resetDef" x="30" y="36" onmousedown="handleReset()"/>
                <g id="arrowUp" xlink:href="#dirArrow" transform="translate(30 24)" onmousedown="handlePan(0,-1)">
                  <use xlink:href="#rim" fill="#404040">
                        <set attributeName="fill" to="#808080" begin="arrowUp.mouseover" end="arrowUp.mouseout"/>
                  </use>
                  <path fill="none" stroke="white" stroke-width="1.5" d="M0,-3.0v7 M-2.5,-0.5L0,-3.0L2.5,-0.5"/>
                </g>
                <g id="arrowRight" xlink:href="#dirArrow" transform="rotate(90) translate(36 -43)" onmousedown="handlePan(1,0)">
                  <use xlink:href="#rim" fill="#404040">
                        <set attributeName="fill" to="#808080" begin="arrowRight.mouseover" end="arrowRight.mouseout"/>
                  </use>
                  <path fill="none" stroke="white" stroke-width="1.5" d="M0,-3.0v7 M-2.5,-0.5L0,-3.0L2.5,-0.5"/>
                </g>
                <g id="arrowDown" xlink:href="#dirArrow" transform="rotate(180) translate(-30 -48)" onmousedown="handlePan(0,1)">
                  <use xlink:href="#rim" fill="#404040">
                        <set attributeName="fill" to="#808080" begin="arrowDown.mouseover" end="arrowDown.mouseout"/>
                  </use>
                  <path fill="none" stroke="white" stroke-width="1.5" d="M0,-3.0v7 M-2.5,-0.5L0,-3.0L2.5,-0.5"/>
                </g>
                <g id="arrowLeft" xlink:href="#dirArrow" transform="rotate(270) translate(-36 17)" onmousedown="handlePan(-1,0)">
                  <use xlink:href="#rim" fill="#404040">
                        <set attributeName="fill" to="#808080" begin="arrowLeft.mouseover" end="arrowLeft.mouseout"/>
                  </use>
                  <path fill="none" stroke="white" stroke-width="1.5" d="M0,-3.0v7 M-2.5,-0.5L0,-3.0L2.5,-0.5"/>
                </g>
        </g>
        <svg viewBox="0 0 15 15" width="100%" height="30px" preserveAspectRatio="xMaxYMin meet">
         <g id="arrow_out" transform="scale(0.3 0.3)">
          <a xlink:href="TooNetworking_8cpp_a3c91b7ab2f6500c287ecc7ab4a018ef6_icgraph_org.svg" target="_base">
           <rect id="button" ry="5" rx="5" y="6" x="6" height="38" width="38"
                fill="#f2f5e9" fill-opacity="0.5" stroke="#606060" stroke-width="1.0"/>
           <path id="arrow"
             d="M 11.500037,31.436501 C 11.940474,20.09759 22.043105,11.32322 32.158766,21.979434 L 37.068811,17.246167 C 37.068811,17.246167 37.088388,32 37.088388,32 L 22.160133,31.978069 C 22.160133,31.978069 26.997745,27.140456 26.997745,27.140456 C 18.528582,18.264221 13.291696,25.230495 11.500037,31.436501 z"
             style="fill:#404040;"/>
          </a>
         </g>
        </svg>
</svg>
