<?xml version="1.0" encoding="UTF-8" standalone="no"?>
<!DOCTYPE svg PUBLIC "-//W3C//DTD SVG 1.1//EN"
 "http://www.w3.org/Graphics/SVG/1.1/DTD/svg11.dtd">
<!-- Generated by graphviz version 2.40.1 (20161225.0304)
 -->
<!-- Title: TooNetworking_other_node_is_online Pages: 1 -->
<svg width="767pt" height="155pt"
 viewBox="0.00 0.00 767.00 155.00" xmlns="http://www.w3.org/2000/svg" xmlns:xlink="http://www.w3.org/1999/xlink">
<g id="graph0" class="graph" transform="scale(1 1) rotate(0) translate(4 151)">
<title>TooNetworking_other_node_is_online</title>
<polygon fill="#ffffff" stroke="transparent" points="-4,4 -4,-151 763,-151 763,4 -4,4"/>
<!-- Node134 -->
<g id="node1" class="node">
<title>Node134</title>
<polygon fill="#bfbfbf" stroke="#000000" points="0,-49.5 0,-79.5 110,-79.5 110,-49.5 0,-49.5"/>
<text text-anchor="start" x="8" y="-67.5" font-family="Helvetica,sans-Serif" font-size="10.00" fill="#000000">TooNetworking_other</text>
<text text-anchor="middle" x="55" y="-56.5" font-family="Helvetica,sans-Serif" font-size="10.00" fill="#000000">_node_is_online</text>
</g>
<!-- Node135 -->
<g id="node2" class="node">
<title>Node135</title>
<g id="a_node2"><a xlink:href="TooNetworking_8h.html#a9f893c3218491ee86282fdcd9f376500" target="_top" xlink:title="TooNetworking_send\l_signed_">
<polygon fill="#ffffff" stroke="#000000" points="154,-98.5 154,-128.5 263,-128.5 263,-98.5 154,-98.5"/>
<text text-anchor="start" x="162" y="-116.5" font-family="Helvetica,sans-Serif" font-size="10.00" fill="#000000">TooNetworking_send</text>
<text text-anchor="middle" x="208.5" y="-105.5" font-family="Helvetica,sans-Serif" font-size="10.00" fill="#000000">_signed_</text>
</a>
</g>
</g>
<!-- Node134&#45;&gt;Node135 -->
<g id="edge1" class="edge">
<title>Node134&#45;&gt;Node135</title>
<path fill="none" stroke="#191970" d="M112.1994,-82.7591C128.3895,-87.9273 145.8232,-93.4924 161.3486,-98.4484"/>
<polygon fill="#191970" stroke="#191970" points="112.8984,-79.3083 102.3076,-79.6014 110.7696,-85.9767 112.8984,-79.3083"/>
</g>
<!-- Node140 -->
<g id="node7" class="node">
<title>Node140</title>
<g id="a_node7"><a xlink:href="TooNetworking_8h.html#a0ad03a7efb42cf40ca3e20fb5df3a5db" target="_top" xlink:title="TooNetworking_bufferlist\l_send_">
<polygon fill="#ffffff" stroke="#000000" points="146,-49.5 146,-79.5 271,-79.5 271,-49.5 146,-49.5"/>
<text text-anchor="start" x="154" y="-67.5" font-family="Helvetica,sans-Serif" font-size="10.00" fill="#000000">TooNetworking_bufferlist</text>
<text text-anchor="middle" x="208.5" y="-56.5" font-family="Helvetica,sans-Serif" font-size="10.00" fill="#000000">_send_</text>
</a>
</g>
</g>
<!-- Node134&#45;&gt;Node140 -->
<g id="edge8" class="edge">
<title>Node134&#45;&gt;Node140</title>
<path fill="none" stroke="#191970" d="M120.5424,-64.5C128.9406,-64.5 137.5218,-64.5 145.872,-64.5"/>
<polygon fill="#191970" stroke="#191970" points="120.4171,-61.0001 110.417,-64.5 120.417,-68.0001 120.4171,-61.0001"/>
</g>
<!-- Node141 -->
<g id="node8" class="node">
<title>Node141</title>
<g id="a_node8"><a xlink:href="TooNetworking_8h.html#ab5dfe46515ee5ca8f9893675df673d96" target="_top" xlink:title="TooNetworking_send\l_signed">
<polygon fill="#ffffff" stroke="#000000" points="154,-.5 154,-30.5 263,-30.5 263,-.5 154,-.5"/>
<text text-anchor="start" x="162" y="-18.5" font-family="Helvetica,sans-Serif" font-size="10.00" fill="#000000">TooNetworking_send</text>
<text text-anchor="middle" x="208.5" y="-7.5" font-family="Helvetica,sans-Serif" font-size="10.00" fill="#000000">_signed</text>
</a>
</g>
</g>
<!-- Node134&#45;&gt;Node141 -->
<g id="edge11" class="edge">
<title>Node134&#45;&gt;Node141</title>
<path fill="none" stroke="#191970" d="M112.1994,-46.2409C128.3895,-41.0727 145.8232,-35.5076 161.3486,-30.5516"/>
<polygon fill="#191970" stroke="#191970" points="110.7696,-43.0233 102.3076,-49.3986 112.8984,-49.6917 110.7696,-43.0233"/>
</g>
<!-- Node136 -->
<g id="node3" class="node">
<title>Node136</title>
<g id="a_node3"><a xlink:href="TooNetworking_8h.html#a59be7e774988f57ab43c4c078c570c67" target="_top" xlink:title="TooNetworking_bufferlist_add">
<polygon fill="#ffffff" stroke="#000000" points="307,-79 307,-98 453,-98 453,-79 307,-79"/>
<text text-anchor="middle" x="380" y="-86" font-family="Helvetica,sans-Serif" font-size="10.00" fill="#000000">TooNetworking_bufferlist_add</text>
</a>
</g>
</g>
<!-- Node135&#45;&gt;Node136 -->
<g id="edge2" class="edge">
<title>Node135&#45;&gt;Node136</title>
<path fill="none" stroke="#191970" d="M273.4028,-104.039C286.9178,-102.0688 301.1684,-99.9915 314.6979,-98.0193"/>
<polygon fill="#191970" stroke="#191970" points="272.6257,-100.6151 263.2352,-105.5211 273.6355,-107.5419 272.6257,-100.6151"/>
</g>
<!-- Node137 -->
<g id="node4" class="node">
<title>Node137</title>
<g id="a_node4"><a xlink:href="TooNetworking_8h.html#a9209f3e1a2fdf0b3b88d49105b8fc359" target="_top" xlink:title="TooNetworking_send\l_signed">
<polygon fill="#ffffff" stroke="#000000" points="489,-116.5 489,-146.5 598,-146.5 598,-116.5 489,-116.5"/>
<text text-anchor="start" x="497" y="-134.5" font-family="Helvetica,sans-Serif" font-size="10.00" fill="#000000">TooNetworking_send</text>
<text text-anchor="middle" x="543.5" y="-123.5" font-family="Helvetica,sans-Serif" font-size="10.00" fill="#000000">_signed</text>
</a>
</g>
</g>
<!-- Node135&#45;&gt;Node137 -->
<g id="edge7" class="edge">
<title>Node135&#45;&gt;Node137</title>
<path fill="none" stroke="#191970" d="M273.2384,-116.9785C335.9404,-120.3475 429.9533,-125.399 488.9542,-128.5692"/>
<polygon fill="#191970" stroke="#191970" points="273.2425,-113.4737 263.0691,-116.4321 272.8669,-120.4637 273.2425,-113.4737"/>
</g>
<!-- Node136&#45;&gt;Node137 -->
<g id="edge3" class="edge">
<title>Node136&#45;&gt;Node137</title>
<path fill="none" stroke="#191970" d="M426.1659,-100.6415C445.7064,-105.7806 468.6171,-111.806 488.9823,-117.162"/>
<polygon fill="#191970" stroke="#191970" points="426.8473,-97.2017 416.2859,-98.0431 425.0668,-103.9715 426.8473,-97.2017"/>
</g>
<!-- Node138 -->
<g id="node5" class="node">
<title>Node138</title>
<g id="a_node5"><a xlink:href="TooNetworking_8h.html#a085ff748b00f6be4ebafcae2bb0dded1" target="_top" xlink:title="TooNetworking_bufferlist\l_send_signed">
<polygon fill="#ffffff" stroke="#000000" points="634,-107.5 634,-137.5 759,-137.5 759,-107.5 634,-107.5"/>
<text text-anchor="start" x="642" y="-125.5" font-family="Helvetica,sans-Serif" font-size="10.00" fill="#000000">TooNetworking_bufferlist</text>
<text text-anchor="middle" x="696.5" y="-114.5" font-family="Helvetica,sans-Serif" font-size="10.00" fill="#000000">_send_signed</text>
</a>
</g>
</g>
<!-- Node136&#45;&gt;Node138 -->
<g id="edge6" class="edge">
<title>Node136&#45;&gt;Node138</title>
<path fill="none" stroke="#191970" d="M463.4215,-94.5084C504.0826,-97.7587 553.662,-102.1974 598,-107.5 609.5934,-108.8865 621.9211,-110.5847 633.7899,-112.3338"/>
<polygon fill="#191970" stroke="#191970" points="463.5293,-91.0061 453.2848,-93.7079 462.9781,-97.9844 463.5293,-91.0061"/>
</g>
<!-- Node137&#45;&gt;Node138 -->
<g id="edge4" class="edge">
<title>Node137&#45;&gt;Node138</title>
<path fill="none" stroke="#191970" d="M608.4187,-127.6813C616.811,-127.1876 625.3936,-126.6827 633.7499,-126.1912"/>
<polygon fill="#191970" stroke="#191970" points="608.0815,-124.1949 598.3044,-128.2762 608.4927,-131.1829 608.0815,-124.1949"/>
</g>
<!-- Node139 -->
<g id="node6" class="node">
<title>Node139</title>
<g id="a_node6"><a xlink:href="TooNetworking_8h.html#ab58e06e0eb6f2f8ecbebeaf3c173fb22" target="_top" xlink:title="TooNetworking_bufferlist\l_send_all">
<polygon fill="#ffffff" stroke="#000000" points="634,-50.5 634,-80.5 759,-80.5 759,-50.5 634,-50.5"/>
<text text-anchor="start" x="642" y="-68.5" font-family="Helvetica,sans-Serif" font-size="10.00" fill="#000000">TooNetworking_bufferlist</text>
<text text-anchor="middle" x="696.5" y="-57.5" font-family="Helvetica,sans-Serif" font-size="10.00" fill="#000000">_send_all</text>
</a>
</g>
</g>
<!-- Node137&#45;&gt;Node139 -->
<g id="edge5" class="edge">
<title>Node137&#45;&gt;Node139</title>
<path fill="none" stroke="#191970" d="M587.9775,-112.3136C611.4075,-102.2066 639.7278,-89.99 661.562,-80.5713"/>
<polygon fill="#191970" stroke="#191970" points="586.3971,-109.1836 578.6013,-116.3583 589.1698,-115.611 586.3971,-109.1836"/>
</g>
<!-- Node140&#45;&gt;Node136 -->
<g id="edge9" class="edge">
<title>Node140&#45;&gt;Node136</title>
<path fill="none" stroke="#191970" d="M281.4053,-74.7025C291.5271,-76.119 301.8933,-77.5696 311.9223,-78.9731"/>
<polygon fill="#191970" stroke="#191970" points="281.775,-71.2202 271.3864,-73.3004 280.8048,-78.1527 281.775,-71.2202"/>
</g>
<!-- Node140&#45;&gt;Node139 -->
<g id="edge10" class="edge">
<title>Node140&#45;&gt;Node139</title>
<path fill="none" stroke="#191970" d="M281.4768,-64.6495C377.231,-64.8458 543.6699,-65.1868 633.9426,-65.3718"/>
<polygon fill="#191970" stroke="#191970" points="281.3056,-61.1493 271.2984,-64.6287 281.2912,-68.1493 281.3056,-61.1493"/>
</g>
</g>
</svg>
