<?xml version="1.0" encoding="UTF-8" standalone="no"?>
<!DOCTYPE svg PUBLIC "-//W3C//DTD SVG 1.1//EN"
 "http://www.w3.org/Graphics/SVG/1.1/DTD/svg11.dtd">
<!-- Generated by graphviz version 2.40.1 (20161225.0304)
 -->
<!-- Title: TooNetworking_bufferlist_send_signed Pages: 1 -->
<!--zoomable 323 -->
<svg id="main" version="1.1" xmlns="http://www.w3.org/2000/svg" xmlns:xlink="http://www.w3.org/1999/xlink" xml:space="preserve" onload="init(evt)">
<style type="text/css"><![CDATA[
.edge:hover path { stroke: red; }
.edge:hover polygon { stroke: red; fill: red; }
]]></style>
<script type="text/javascript"><![CDATA[
var edges = document.getElementsByTagName('g');
if (edges && edges.length) {
  for (var i=0;i<edges.length;i++) {
    if (edges[i].id.substr(0,4)=='edge') {
      edges[i].setAttribute('class','edge');
    }
  }
}
]]></script>
        <defs>
                <circle id="rim" cx="0" cy="0" r="7"/>
                <circle id="rim2" cx="0" cy="0" r="3.5"/>
                <g id="zoomPlus">
                        <use xlink:href="#rim" fill="#404040">
                                <set attributeName="fill" to="#808080" begin="zoomplus.mouseover" end="zoomplus.mouseout"/>
                        </use>
                        <path d="M-4,0h8M0,-4v8" fill="none" stroke="white" stroke-width="1.5" pointer-events="none"/>
                </g>
                <g id="zoomMin">
                        <use xlink:href="#rim" fill="#404040">
                                <set attributeName="fill" to="#808080" begin="zoomminus.mouseover" end="zoomminus.mouseout"/>
                        </use>
                        <path d="M-4,0h8" fill="none" stroke="white" stroke-width="1.5" pointer-events="none"/>
                </g>
                <g id="dirArrow">
                        <path fill="none" stroke="white" stroke-width="1.5" d="M0,-3.0v7 M-2.5,-0.5L0,-3.0L2.5,-0.5"/>
                </g>
               <g id="resetDef">
                       <use xlink:href="#rim2" fill="#404040">
                               <set attributeName="fill" to="#808080" begin="reset.mouseover" end="reset.mouseout"/>
                       </use>
               </g>
        </defs>

<script type="text/javascript">
var viewWidth = 871;
var viewHeight = 323;
var sectionId = 'dynsection-11';
</script>
<script xlink:href="svgpan.js"/>
<svg id="graph" class="graph">
<g id="viewport">
<title>TooNetworking_bufferlist_send_signed</title>
<polygon fill="#ffffff" stroke="transparent" points="-4,4 -4,-319 867,-319 867,4 -4,4"/>
<!-- Node105 -->
<g id="node1" class="node">
<title>Node105</title>
<polygon fill="#bfbfbf" stroke="#000000" points="0,-164.5 0,-194.5 125,-194.5 125,-164.5 0,-164.5"/>
<text text-anchor="start" x="8" y="-182.5" font-family="Helvetica,sans-Serif" font-size="10.00" fill="#000000">TooNetworking_bufferlist</text>
<text text-anchor="middle" x="62.5" y="-171.5" font-family="Helvetica,sans-Serif" font-size="10.00" fill="#000000">_send_signed</text>
</g>
<!-- Node106 -->
<g id="node2" class="node">
<title>Node106</title>
<g id="a_node2"><a xlink:href="TooSigning_8cpp.html#a729dc41cfb692fb0aea083c38c5f3577" target="_top" xlink:title="TooSigning_received\l_noncelist_find_from_ID">
<polygon fill="#ffffff" stroke="#000000" points="490.5,-284.5 490.5,-314.5 612.5,-314.5 612.5,-284.5 490.5,-284.5"/>
<text text-anchor="start" x="498.5" y="-302.5" font-family="Helvetica,sans-Serif" font-size="10.00" fill="#000000">TooSigning_received</text>
<text text-anchor="middle" x="551.5" y="-291.5" font-family="Helvetica,sans-Serif" font-size="10.00" fill="#000000">_noncelist_find_from_ID</text>
</a>
</g>
</g>
<!-- Node105&#45;&gt;Node106 -->
<g id="edge1" class="edge">
<title>Node105&#45;&gt;Node106</title>
<path fill="none" stroke="#191970" d="M73.8758,-194.7116C90.4388,-215.5377 123.3541,-252.1973 161,-268.5 265.1358,-313.5964 399.4244,-313.0748 480.3153,-307.2442"/>
<polygon fill="#191970" stroke="#191970" points="480.6922,-310.7257 490.3948,-306.4701 480.1561,-303.7462 480.6922,-310.7257"/>
</g>
<!-- Node107 -->
<g id="node3" class="node">
<title>Node107</title>
<g id="a_node3"><a xlink:href="group__TOOSIGNING__DEBUGGING.html#ga974dd51d29b9bd928de51c481289aad7" target="_top" xlink:title="TooSigning_random_data\l_print">
<polygon fill="#ffffff" stroke="#000000" points="488,-235.5 488,-265.5 615,-265.5 615,-235.5 488,-235.5"/>
<text text-anchor="start" x="496" y="-253.5" font-family="Helvetica,sans-Serif" font-size="10.00" fill="#000000">TooSigning_random_data</text>
<text text-anchor="middle" x="551.5" y="-242.5" font-family="Helvetica,sans-Serif" font-size="10.00" fill="#000000">_print</text>
</a>
</g>
</g>
<!-- Node105&#45;&gt;Node107 -->
<g id="edge2" class="edge">
<title>Node105&#45;&gt;Node107</title>
<path fill="none" stroke="#191970" d="M78.7451,-194.5218C97.1158,-210.4105 128.6972,-234.5312 161,-244.5 267.3991,-277.3353 397.9899,-270.5116 477.9474,-261.3992"/>
<polygon fill="#191970" stroke="#191970" points="478.4029,-264.8698 487.923,-260.2204 477.5813,-257.9182 478.4029,-264.8698"/>
</g>
<!-- Node108 -->
<g id="node4" class="node">
<title>Node108</title>
<g id="a_node4"><a xlink:href="TooNetworking_8cpp.html#a9209f3e1a2fdf0b3b88d49105b8fc359" target="_top" xlink:title="TooNetworking_send\l_signed">
<polygon fill="#ffffff" stroke="#000000" points="161,-186.5 161,-216.5 270,-216.5 270,-186.5 161,-186.5"/>
<text text-anchor="start" x="169" y="-204.5" font-family="Helvetica,sans-Serif" font-size="10.00" fill="#000000">TooNetworking_send</text>
<text text-anchor="middle" x="215.5" y="-193.5" font-family="Helvetica,sans-Serif" font-size="10.00" fill="#000000">_signed</text>
</a>
</g>
</g>
<!-- Node105&#45;&gt;Node108 -->
<g id="edge3" class="edge">
<title>Node105&#45;&gt;Node108</title>
<path fill="none" stroke="#191970" d="M125.1724,-188.5117C133.5036,-189.7097 142.0611,-190.9402 150.4319,-192.1438"/>
<polygon fill="#191970" stroke="#191970" points="150.1255,-195.6357 160.5218,-193.5946 151.1218,-188.7069 150.1255,-195.6357"/>
</g>
<!-- Node109 -->
<g id="node5" class="node">
<title>Node109</title>
<g id="a_node5"><a xlink:href="TooSigning_8cpp.html#a53b55547df3d4276f3ca6a74d601549a" target="_top" xlink:title="TooSigning_requested\l_noncelist_add">
<polygon fill="#ffffff" stroke="#000000" points="495,-88.5 495,-118.5 608,-118.5 608,-88.5 495,-88.5"/>
<text text-anchor="start" x="503" y="-106.5" font-family="Helvetica,sans-Serif" font-size="10.00" fill="#000000">TooSigning_requested</text>
<text text-anchor="middle" x="551.5" y="-95.5" font-family="Helvetica,sans-Serif" font-size="10.00" fill="#000000">_noncelist_add</text>
</a>
</g>
</g>
<!-- Node105&#45;&gt;Node109 -->
<g id="edge24" class="edge">
<title>Node105&#45;&gt;Node109</title>
<path fill="none" stroke="#191970" d="M111.3898,-164.4191C160.1722,-150.0467 237.5188,-129.0772 306,-118.5 365.8853,-109.2505 434.8145,-105.6463 484.3601,-104.2709"/>
<polygon fill="#191970" stroke="#191970" points="484.7203,-107.763 494.6281,-104.01 484.5424,-100.7652 484.7203,-107.763"/>
</g>
<!-- Node113 -->
<g id="node9" class="node">
<title>Node113</title>
<g id="a_node9"><a xlink:href="TooNetworking_8cpp.html#aa8040740e6ffca2f68beb7f8e57d63fc" target="_top" xlink:title="TooNetworking_bufferlist_add">
<polygon fill="#ffffff" stroke="#000000" points="306,-170 306,-189 452,-189 452,-170 306,-170"/>
<text text-anchor="middle" x="379" y="-177" font-family="Helvetica,sans-Serif" font-size="10.00" fill="#000000">TooNetworking_bufferlist_add</text>
</a>
</g>
</g>
<!-- Node105&#45;&gt;Node113 -->
<g id="edge25" class="edge">
<title>Node105&#45;&gt;Node113</title>
<path fill="none" stroke="#191970" d="M125.0221,-177.3091C136.9649,-176.9718 149.3675,-176.6771 161,-176.5 209.4388,-175.7625 221.5601,-175.8335 270,-176.5 278.2992,-176.6142 286.9528,-176.7773 295.596,-176.9691"/>
<polygon fill="#191970" stroke="#191970" points="295.6364,-180.4709 305.7157,-177.2064 295.8005,-173.4729 295.6364,-180.4709"/>
</g>
<!-- Node121 -->
<g id="node17" class="node">
<title>Node121</title>
<g id="a_node17"><a xlink:href="TooNetworking_8cpp.html#a86fb32acfc42a498be62a3236c778454" target="_top" xlink:title="TooNetworking_send\l_encrypted">
<polygon fill="#ffffff" stroke="#000000" points="161,-44.5 161,-74.5 270,-74.5 270,-44.5 161,-44.5"/>
<text text-anchor="start" x="169" y="-62.5" font-family="Helvetica,sans-Serif" font-size="10.00" fill="#000000">TooNetworking_send</text>
<text text-anchor="middle" x="215.5" y="-51.5" font-family="Helvetica,sans-Serif" font-size="10.00" fill="#000000">_encrypted</text>
</a>
</g>
</g>
<!-- Node105&#45;&gt;Node121 -->
<g id="edge26" class="edge">
<title>Node105&#45;&gt;Node121</title>
<path fill="none" stroke="#191970" d="M76.8952,-164.285C95.2823,-145.357 128.6142,-112.7069 161,-89.5 165.7806,-86.0743 170.9933,-82.7487 176.2379,-79.6355"/>
<polygon fill="#191970" stroke="#191970" points="178.0768,-82.6159 185.0238,-74.6165 174.6046,-76.5377 178.0768,-82.6159"/>
</g>
<!-- Node108&#45;&gt;Node106 -->
<g id="edge4" class="edge">
<title>Node108&#45;&gt;Node106</title>
<path fill="none" stroke="#191970" d="M249.0182,-216.5576C265.8945,-223.7901 286.7997,-232.2261 306,-238.5 363.8011,-257.387 430.8941,-273.688 480.3189,-284.6752"/>
<polygon fill="#191970" stroke="#191970" points="479.7547,-288.1348 490.2737,-286.8695 481.2615,-281.2989 479.7547,-288.1348"/>
</g>
<!-- Node108&#45;&gt;Node107 -->
<g id="edge5" class="edge">
<title>Node108&#45;&gt;Node107</title>
<path fill="none" stroke="#191970" d="M270.232,-209.4818C326.6881,-217.7149 415.0874,-230.6065 477.6969,-239.7371"/>
<polygon fill="#191970" stroke="#191970" points="477.5032,-243.2457 487.9036,-241.2255 478.5134,-236.319 477.5032,-243.2457"/>
</g>
<!-- Node108&#45;&gt;Node108 -->
<g id="edge6" class="edge">
<title>Node108&#45;&gt;Node108</title>
<path fill="none" stroke="#191970" d="M189.0109,-216.659C182.6234,-226.0566 191.4531,-235 215.5,-235 230.1536,-235 239.1564,-231.679 242.5086,-226.9579"/>
<polygon fill="#191970" stroke="#191970" points="245.9885,-226.47 241.9891,-216.659 238.9974,-226.8226 245.9885,-226.47"/>
</g>
<!-- Node108&#45;&gt;Node109 -->
<g id="edge7" class="edge">
<title>Node108&#45;&gt;Node109</title>
<path fill="none" stroke="#191970" d="M245.0671,-186.315C262.4645,-177.8367 285.0895,-167.5867 306,-160.5 365.1229,-140.4629 434.5969,-125.0557 484.5214,-115.3412"/>
<polygon fill="#191970" stroke="#191970" points="485.3913,-118.7382 494.5516,-113.4148 484.0709,-111.8638 485.3913,-118.7382"/>
</g>
<!-- Node108&#45;&gt;Node113 -->
<g id="edge11" class="edge">
<title>Node108&#45;&gt;Node113</title>
<path fill="none" stroke="#191970" d="M270.398,-187.6978C278.5995,-186.3827 287.2066,-185.1133 295.8347,-183.9413"/>
<polygon fill="#191970" stroke="#191970" points="296.4907,-187.3853 305.95,-182.6134 295.5795,-180.4449 296.4907,-187.3853"/>
</g>
<!-- Node110 -->
<g id="node6" class="node">
<title>Node110</title>
<g id="a_node6"><a xlink:href="group__TOOSIGNING__INITIALIZE.html#gafd247c5271ff63bfcde14ef94060002d" target="_top" xlink:title="TooSigning_requested\l_noncelist_initialize">
<polygon fill="#ffffff" stroke="#000000" points="662,-98.5 662,-128.5 775,-128.5 775,-98.5 662,-98.5"/>
<text text-anchor="start" x="670" y="-116.5" font-family="Helvetica,sans-Serif" font-size="10.00" fill="#000000">TooSigning_requested</text>
<text text-anchor="middle" x="718.5" y="-105.5" font-family="Helvetica,sans-Serif" font-size="10.00" fill="#000000">_noncelist_initialize</text>
</a>
</g>
</g>
<!-- Node109&#45;&gt;Node110 -->
<g id="edge8" class="edge">
<title>Node109&#45;&gt;Node110</title>
<path fill="none" stroke="#191970" d="M608.0386,-106.8855C621.9728,-107.7199 637.0293,-108.6215 651.4097,-109.4826"/>
<polygon fill="#191970" stroke="#191970" points="651.5443,-112.9969 661.7357,-110.1009 651.9628,-106.0094 651.5443,-112.9969"/>
</g>
<!-- Node111 -->
<g id="node7" class="node">
<title>Node111</title>
<g id="a_node7"><a xlink:href="TooSigning_8cpp.html#a74e394128707e55045381d7c9ab6f6fd" target="_top" xlink:title="TooSigning_requested\l_noncelist_find_for_nodeID">
<polygon fill="#ffffff" stroke="#000000" points="651,-49.5 651,-79.5 786,-79.5 786,-49.5 651,-49.5"/>
<text text-anchor="start" x="659" y="-67.5" font-family="Helvetica,sans-Serif" font-size="10.00" fill="#000000">TooSigning_requested</text>
<text text-anchor="middle" x="718.5" y="-56.5" font-family="Helvetica,sans-Serif" font-size="10.00" fill="#000000">_noncelist_find_for_nodeID</text>
</a>
</g>
</g>
<!-- Node109&#45;&gt;Node111 -->
<g id="edge9" class="edge">
<title>Node109&#45;&gt;Node111</title>
<path fill="none" stroke="#191970" d="M608.0386,-90.2964C619.6449,-87.5859 632.0298,-84.6936 644.1541,-81.8622"/>
<polygon fill="#191970" stroke="#191970" points="645.3124,-85.186 654.2544,-79.5035 643.7204,-78.3694 645.3124,-85.186"/>
</g>
<!-- Node112 -->
<g id="node8" class="node">
<title>Node112</title>
<g id="a_node8"><a xlink:href="group__TOOSIGNING__DEBUGGING.html#gabb54a5e4968d69e35d665869d5c6588f" target="_top" xlink:title="TooSigning_requested\l_noncelist_print">
<polygon fill="#ffffff" stroke="#000000" points="662,-.5 662,-30.5 775,-30.5 775,-.5 662,-.5"/>
<text text-anchor="start" x="670" y="-18.5" font-family="Helvetica,sans-Serif" font-size="10.00" fill="#000000">TooSigning_requested</text>
<text text-anchor="middle" x="718.5" y="-7.5" font-family="Helvetica,sans-Serif" font-size="10.00" fill="#000000">_noncelist_print</text>
</a>
</g>
</g>
<!-- Node109&#45;&gt;Node112 -->
<g id="edge10" class="edge">
<title>Node109&#45;&gt;Node112</title>
<path fill="none" stroke="#191970" d="M572.0215,-88.2993C591.5842,-74.3023 622.2413,-53.627 651,-39.5 654.7048,-37.6801 658.5835,-35.9287 662.5286,-34.2586"/>
<polygon fill="#191970" stroke="#191970" points="663.8407,-37.5035 671.8042,-30.5155 661.221,-31.0121 663.8407,-37.5035"/>
</g>
<!-- Node113&#45;&gt;Node106 -->
<g id="edge20" class="edge">
<title>Node113&#45;&gt;Node106</title>
<path fill="none" stroke="#191970" d="M390.7947,-189.1921C405.3645,-201.2386 430.821,-222.5287 452,-241.5 468.3929,-256.184 469.3432,-263.8266 488,-275.5 490.5649,-277.1048 493.2539,-278.6291 496.0164,-280.0729"/>
<polygon fill="#191970" stroke="#191970" points="494.4985,-283.2266 505.0271,-284.41 497.5345,-276.9192 494.4985,-283.2266"/>
</g>
<!-- Node113&#45;&gt;Node107 -->
<g id="edge21" class="edge">
<title>Node113&#45;&gt;Node107</title>
<path fill="none" stroke="#191970" d="M413.4269,-189.0214C425.827,-192.9165 439.7697,-197.8451 452,-203.5 469.0199,-211.3695 471.2131,-217.1451 488,-225.5 492.0472,-227.5143 496.2986,-229.4835 500.6034,-231.3763"/>
<polygon fill="#191970" stroke="#191970" points="499.4815,-234.7023 510.0543,-235.3859 502.2155,-228.2582 499.4815,-234.7023"/>
</g>
<!-- Node113&#45;&gt;Node108 -->
<g id="edge22" class="edge">
<title>Node113&#45;&gt;Node108</title>
<path fill="none" stroke="#191970" d="M348.3129,-189.0366C329.2407,-192.7718 303.9841,-196.5758 280.6199,-199.362"/>
<polygon fill="#191970" stroke="#191970" points="279.9366,-195.9172 270.398,-200.5285 280.7304,-202.872 279.9366,-195.9172"/>
</g>
<!-- Node113&#45;&gt;Node109 -->
<g id="edge23" class="edge">
<title>Node113&#45;&gt;Node109</title>
<path fill="none" stroke="#191970" d="M416.4034,-169.9127C428.1487,-166.1962 440.9312,-161.3946 452,-155.5 469.891,-145.9723 470.3215,-137.4165 488,-127.5 491.021,-125.8054 494.1853,-124.1836 497.4202,-122.6402"/>
<polygon fill="#191970" stroke="#191970" points="498.9659,-125.783 506.6633,-118.5027 496.106,-119.3939 498.9659,-125.783"/>
</g>
<!-- Node114 -->
<g id="node10" class="node">
<title>Node114</title>
<g id="a_node10"><a xlink:href="TooNetworking_8cpp.html#aa8a4e879d4d71fed2a8940cf93b75ae4" target="_top" xlink:title="TooNetworking_bufferlist\l_initialize">
<polygon fill="#ffffff" stroke="#000000" points="489,-137.5 489,-167.5 614,-167.5 614,-137.5 489,-137.5"/>
<text text-anchor="start" x="497" y="-155.5" font-family="Helvetica,sans-Serif" font-size="10.00" fill="#000000">TooNetworking_bufferlist</text>
<text text-anchor="middle" x="551.5" y="-144.5" font-family="Helvetica,sans-Serif" font-size="10.00" fill="#000000">_initialize</text>
</a>
</g>
</g>
<!-- Node113&#45;&gt;Node114 -->
<g id="edge12" class="edge">
<title>Node113&#45;&gt;Node114</title>
<path fill="none" stroke="#191970" d="M439.817,-169.9808C452.3694,-168.0161 465.711,-165.9278 478.6411,-163.904"/>
<polygon fill="#191970" stroke="#191970" points="479.5611,-167.3027 488.8996,-162.2983 478.4786,-160.3869 479.5611,-167.3027"/>
</g>
<!-- Node115 -->
<g id="node11" class="node">
<title>Node115</title>
<g id="a_node11"><a xlink:href="TooNetworking_8cpp.html#a0ad03a7efb42cf40ca3e20fb5df3a5db" target="_top" xlink:title="TooNetworking_bufferlist\l_send_">
<polygon fill="#ffffff" stroke="#000000" points="489,-186.5 489,-216.5 614,-216.5 614,-186.5 489,-186.5"/>
<text text-anchor="start" x="497" y="-204.5" font-family="Helvetica,sans-Serif" font-size="10.00" fill="#000000">TooNetworking_bufferlist</text>
<text text-anchor="middle" x="551.5" y="-193.5" font-family="Helvetica,sans-Serif" font-size="10.00" fill="#000000">_send_</text>
</a>
</g>
</g>
<!-- Node113&#45;&gt;Node115 -->
<g id="edge13" class="edge">
<title>Node113&#45;&gt;Node115</title>
<path fill="none" stroke="#191970" d="M452.1555,-188.83C460.9335,-189.9495 469.8968,-191.0926 478.6701,-192.2116"/>
<polygon fill="#191970" stroke="#191970" points="478.4971,-195.7177 488.8595,-193.5111 479.3827,-188.774 478.4971,-195.7177"/>
</g>
<!-- Node116 -->
<g id="node12" class="node">
<title>Node116</title>
<g id="a_node12"><a xlink:href="TooNetworking_8cpp.html#ac352268e177fa2ddf91c8afa5cd04bbf" target="_top" xlink:title="TooNetworking_connection\l_available">
<polygon fill="#ffffff" stroke="#000000" points="651,-284.5 651,-314.5 786,-314.5 786,-284.5 651,-284.5"/>
<text text-anchor="start" x="659" y="-302.5" font-family="Helvetica,sans-Serif" font-size="10.00" fill="#000000">TooNetworking_connection</text>
<text text-anchor="middle" x="718.5" y="-291.5" font-family="Helvetica,sans-Serif" font-size="10.00" fill="#000000">_available</text>
</a>
</g>
</g>
<!-- Node115&#45;&gt;Node116 -->
<g id="edge14" class="edge">
<title>Node115&#45;&gt;Node116</title>
<path fill="none" stroke="#191970" d="M598.5758,-216.5028C604.3873,-219.3532 610.0244,-222.6693 615,-226.5 636.4126,-242.9855 629.3147,-259.3749 651,-275.5 652.8651,-276.8869 654.8176,-278.1992 656.8348,-279.4404"/>
<polygon fill="#191970" stroke="#191970" points="655.5661,-282.7345 666.0232,-284.438 658.9108,-276.5853 655.5661,-282.7345"/>
</g>
<!-- Node118 -->
<g id="node14" class="node">
<title>Node118</title>
<g id="a_node14"><a xlink:href="TooNetworking_8cpp.html#af4808c2c0857cde9a6721ad54f5ab42d" target="_top" xlink:title="TooNetworking_other\l_node_is_online">
<polygon fill="#ffffff" stroke="#000000" points="663.5,-235.5 663.5,-265.5 773.5,-265.5 773.5,-235.5 663.5,-235.5"/>
<text text-anchor="start" x="671.5" y="-253.5" font-family="Helvetica,sans-Serif" font-size="10.00" fill="#000000">TooNetworking_other</text>
<text text-anchor="middle" x="718.5" y="-242.5" font-family="Helvetica,sans-Serif" font-size="10.00" fill="#000000">_node_is_online</text>
</a>
</g>
</g>
<!-- Node115&#45;&gt;Node118 -->
<g id="edge16" class="edge">
<title>Node115&#45;&gt;Node118</title>
<path fill="none" stroke="#191970" d="M602.9682,-216.6014C620.1919,-221.6551 639.5588,-227.3376 657.4422,-232.5848"/>
<polygon fill="#191970" stroke="#191970" points="656.6209,-235.9913 667.2018,-235.4484 658.5917,-229.2745 656.6209,-235.9913"/>
</g>
<!-- Node119 -->
<g id="node15" class="node">
<title>Node119</title>
<g id="a_node15"><a xlink:href="TooNetworking_8cpp.html#a46674b3fdc9ee370b0839869aa145b75" target="_top" xlink:title="TooNetworking_send">
<polygon fill="#ffffff" stroke="#000000" points="664,-148 664,-167 773,-167 773,-148 664,-148"/>
<text text-anchor="middle" x="718.5" y="-155" font-family="Helvetica,sans-Serif" font-size="10.00" fill="#000000">TooNetworking_send</text>
</a>
</g>
</g>
<!-- Node115&#45;&gt;Node119 -->
<g id="edge17" class="edge">
<title>Node115&#45;&gt;Node119</title>
<path fill="none" stroke="#191970" d="M608.5048,-186.4808C629.3597,-180.9861 652.6745,-174.8432 672.4531,-169.6321"/>
<polygon fill="#191970" stroke="#191970" points="673.3678,-173.0106 682.1461,-167.0783 671.5843,-166.2416 673.3678,-173.0106"/>
</g>
<!-- Node120 -->
<g id="node16" class="node">
<title>Node120</title>
<g id="a_node16"><a xlink:href="TooNetworking_8cpp.html#a3c91b7ab2f6500c287ecc7ab4a018ef6" target="_top" xlink:title="TooNetworking_bufferlist\l_remove">
<polygon fill="#ffffff" stroke="#000000" points="656,-186.5 656,-216.5 781,-216.5 781,-186.5 656,-186.5"/>
<text text-anchor="start" x="664" y="-204.5" font-family="Helvetica,sans-Serif" font-size="10.00" fill="#000000">TooNetworking_bufferlist</text>
<text text-anchor="middle" x="718.5" y="-193.5" font-family="Helvetica,sans-Serif" font-size="10.00" fill="#000000">_remove</text>
</a>
</g>
</g>
<!-- Node115&#45;&gt;Node120 -->
<g id="edge19" class="edge">
<title>Node115&#45;&gt;Node120</title>
<path fill="none" stroke="#191970" d="M614.1598,-201.5C624.47,-201.5 635.2331,-201.5 645.7639,-201.5"/>
<polygon fill="#191970" stroke="#191970" points="645.7669,-205.0001 655.7669,-201.5 645.7668,-198.0001 645.7669,-205.0001"/>
</g>
<!-- Node117 -->
<g id="node13" class="node">
<title>Node117</title>
<g id="a_node13"><a xlink:href="TooNetworking_8cpp.html#abdda8f09b9d475ed2c23a2376e2e0151" target="_top" xlink:title="mesh">
<polygon fill="#ffffff" stroke="#000000" points="822,-219 822,-238 863,-238 863,-219 822,-219"/>
<text text-anchor="middle" x="842.5" y="-226" font-family="Helvetica,sans-Serif" font-size="10.00" fill="#000000">mesh</text>
</a>
</g>
</g>
<!-- Node116&#45;&gt;Node117 -->
<g id="edge15" class="edge">
<title>Node116&#45;&gt;Node117</title>
<path fill="none" stroke="#191970" d="M767.3561,-284.4618C773.7867,-281.8135 780.164,-278.824 786,-275.5 800.4893,-267.2474 814.9095,-255.1721 825.555,-245.3277"/>
<polygon fill="#191970" stroke="#191970" points="828.0704,-247.7655 832.8986,-238.3348 823.2431,-242.6962 828.0704,-247.7655"/>
</g>
<!-- Node119&#45;&gt;Node117 -->
<g id="edge18" class="edge">
<title>Node119&#45;&gt;Node117</title>
<path fill="none" stroke="#191970" d="M763.6164,-167.0058C771.3382,-169.5193 779.0906,-172.6427 786,-176.5 802.1106,-185.4939 817.3159,-199.9624 827.8856,-211.3569"/>
<polygon fill="#191970" stroke="#191970" points="825.4347,-213.8668 834.7094,-218.9883 830.6528,-209.2008 825.4347,-213.8668"/>
</g>
</g>
</svg>
        <g id="navigator" transform="translate(0 0)" fill="#404254">
                <rect fill="#f2f5e9" fill-opacity="0.5" stroke="#606060" stroke-width=".5" x="0" y="0" width="60" height="60"/>
                <use id="zoomplus" xlink:href="#zoomPlus" x="17" y="9" onmousedown="handleZoom(evt,'in')"/>
                <use id="zoomminus" xlink:href="#zoomMin" x="42" y="9" onmousedown="handleZoom(evt,'out')"/>
                <use id="reset" xlink:href="#resetDef" x="30" y="36" onmousedown="handleReset()"/>
                <g id="arrowUp" xlink:href="#dirArrow" transform="translate(30 24)" onmousedown="handlePan(0,-1)">
                  <use xlink:href="#rim" fill="#404040">
                        <set attributeName="fill" to="#808080" begin="arrowUp.mouseover" end="arrowUp.mouseout"/>
                  </use>
                  <path fill="none" stroke="white" stroke-width="1.5" d="M0,-3.0v7 M-2.5,-0.5L0,-3.0L2.5,-0.5"/>
                </g>
                <g id="arrowRight" xlink:href="#dirArrow" transform="rotate(90) translate(36 -43)" onmousedown="handlePan(1,0)">
                  <use xlink:href="#rim" fill="#404040">
                        <set attributeName="fill" to="#808080" begin="arrowRight.mouseover" end="arrowRight.mouseout"/>
                  </use>
                  <path fill="none" stroke="white" stroke-width="1.5" d="M0,-3.0v7 M-2.5,-0.5L0,-3.0L2.5,-0.5"/>
                </g>
                <g id="arrowDown" xlink:href="#dirArrow" transform="rotate(180) translate(-30 -48)" onmousedown="handlePan(0,1)">
                  <use xlink:href="#rim" fill="#404040">
                        <set attributeName="fill" to="#808080" begin="arrowDown.mouseover" end="arrowDown.mouseout"/>
                  </use>
                  <path fill="none" stroke="white" stroke-width="1.5" d="M0,-3.0v7 M-2.5,-0.5L0,-3.0L2.5,-0.5"/>
                </g>
                <g id="arrowLeft" xlink:href="#dirArrow" transform="rotate(270) translate(-36 17)" onmousedown="handlePan(-1,0)">
                  <use xlink:href="#rim" fill="#404040">
                        <set attributeName="fill" to="#808080" begin="arrowLeft.mouseover" end="arrowLeft.mouseout"/>
                  </use>
                  <path fill="none" stroke="white" stroke-width="1.5" d="M0,-3.0v7 M-2.5,-0.5L0,-3.0L2.5,-0.5"/>
                </g>
        </g>
        <svg viewBox="0 0 15 15" width="100%" height="30px" preserveAspectRatio="xMaxYMin meet">
         <g id="arrow_out" transform="scale(0.3 0.3)">
          <a xlink:href="TooNetworking_8cpp_a085ff748b00f6be4ebafcae2bb0dded1_cgraph_org.svg" target="_base">
           <rect id="button" ry="5" rx="5" y="6" x="6" height="38" width="38"
                fill="#f2f5e9" fill-opacity="0.5" stroke="#606060" stroke-width="1.0"/>
           <path id="arrow"
             d="M 11.500037,31.436501 C 11.940474,20.09759 22.043105,11.32322 32.158766,21.979434 L 37.068811,17.246167 C 37.068811,17.246167 37.088388,32 37.088388,32 L 22.160133,31.978069 C 22.160133,31.978069 26.997745,27.140456 26.997745,27.140456 C 18.528582,18.264221 13.291696,25.230495 11.500037,31.436501 z"
             style="fill:#404040;"/>
          </a>
         </g>
        </svg>
</svg>
