<?xml version="1.0" encoding="UTF-8" standalone="no"?>
<!DOCTYPE svg PUBLIC "-//W3C//DTD SVG 1.1//EN"
 "http://www.w3.org/Graphics/SVG/1.1/DTD/svg11.dtd">
<!-- Generated by graphviz version 2.40.1 (20161225.0304)
 -->
<!-- Title: TooNetworking_bufferlist_initialize Pages: 1 -->
<svg width="547pt" height="88pt"
 viewBox="0.00 0.00 547.00 88.00" xmlns="http://www.w3.org/2000/svg" xmlns:xlink="http://www.w3.org/1999/xlink">
<g id="graph0" class="graph" transform="scale(1 1) rotate(0) translate(4 84)">
<title>TooNetworking_bufferlist_initialize</title>
<polygon fill="#ffffff" stroke="transparent" points="-4,4 -4,-84 543,-84 543,4 -4,4"/>
<!-- Node44 -->
<g id="node1" class="node">
<title>Node44</title>
<polygon fill="#bfbfbf" stroke="#000000" points="0,-24.5 0,-54.5 125,-54.5 125,-24.5 0,-24.5"/>
<text text-anchor="start" x="8" y="-42.5" font-family="Helvetica,sans-Serif" font-size="10.00" fill="#000000">TooNetworking_bufferlist</text>
<text text-anchor="middle" x="62.5" y="-31.5" font-family="Helvetica,sans-Serif" font-size="10.00" fill="#000000">_initialize</text>
</g>
<!-- Node45 -->
<g id="node2" class="node">
<title>Node45</title>
<g id="a_node2"><a xlink:href="TooNetworking_8h.html#a59be7e774988f57ab43c4c078c570c67" target="_top" xlink:title="TooNetworking_bufferlist_add">
<polygon fill="#ffffff" stroke="#000000" points="161,-30 161,-49 307,-49 307,-30 161,-30"/>
<text text-anchor="middle" x="234" y="-37" font-family="Helvetica,sans-Serif" font-size="10.00" fill="#000000">TooNetworking_bufferlist_add</text>
</a>
</g>
</g>
<!-- Node44&#45;&gt;Node45 -->
<g id="edge1" class="edge">
<title>Node44&#45;&gt;Node45</title>
<path fill="none" stroke="#191970" d="M135.5451,-39.5C143.9597,-39.5 152.5412,-39.5 160.9558,-39.5"/>
<polygon fill="#191970" stroke="#191970" points="135.3865,-36.0001 125.3864,-39.5 135.3864,-43.0001 135.3865,-36.0001"/>
</g>
<!-- Node46 -->
<g id="node3" class="node">
<title>Node46</title>
<g id="a_node3"><a xlink:href="TooNetworking_8h.html#a9209f3e1a2fdf0b3b88d49105b8fc359" target="_top" xlink:title="TooNetworking_send\l_signed">
<polygon fill="#ffffff" stroke="#000000" points="351,-49.5 351,-79.5 460,-79.5 460,-49.5 351,-49.5"/>
<text text-anchor="start" x="359" y="-67.5" font-family="Helvetica,sans-Serif" font-size="10.00" fill="#000000">TooNetworking_send</text>
<text text-anchor="middle" x="405.5" y="-56.5" font-family="Helvetica,sans-Serif" font-size="10.00" fill="#000000">_signed</text>
</a>
</g>
</g>
<!-- Node45&#45;&gt;Node46 -->
<g id="edge2" class="edge">
<title>Node45&#45;&gt;Node46</title>
<path fill="none" stroke="#191970" d="M309.4187,-50.494C323.3994,-52.532 337.7518,-54.6242 350.9602,-56.5496"/>
<polygon fill="#191970" stroke="#191970" points="309.7263,-47.0019 299.326,-49.0227 308.7166,-53.9287 309.7263,-47.0019"/>
</g>
<!-- Node47 -->
<g id="node4" class="node">
<title>Node47</title>
<g id="a_node4"><a xlink:href="TooNetworking_8h.html#a085ff748b00f6be4ebafcae2bb0dded1" target="_top" xlink:title="TooNetworking_bufferlist\l_send_signed">
<polygon fill="#ffffff" stroke="#000000" points="343,-.5 343,-30.5 468,-30.5 468,-.5 343,-.5"/>
<text text-anchor="start" x="351" y="-18.5" font-family="Helvetica,sans-Serif" font-size="10.00" fill="#000000">TooNetworking_bufferlist</text>
<text text-anchor="middle" x="405.5" y="-7.5" font-family="Helvetica,sans-Serif" font-size="10.00" fill="#000000">_send_signed</text>
</a>
</g>
</g>
<!-- Node45&#45;&gt;Node47 -->
<g id="edge3" class="edge">
<title>Node45&#45;&gt;Node47</title>
<path fill="none" stroke="#191970" d="M312.3817,-28.5311C322.5571,-27.1072 332.872,-25.6637 342.7474,-24.2817"/>
<polygon fill="#191970" stroke="#191970" points="311.6925,-25.0934 302.2741,-29.9456 312.6627,-32.0258 311.6925,-25.0934"/>
</g>
<!-- Node48 -->
<g id="node5" class="node">
<title>Node48</title>
<g id="a_node5"><a xlink:href="NODE__SKETCH__TooAutomation__Node_8ino_8cpp.html#a0b33edabd7f1c4e4a0bf32c67269be2f" target="_top" xlink:title="loop">
<polygon fill="#ffffff" stroke="#000000" points="504,-6 504,-25 539,-25 539,-6 504,-6"/>
<text text-anchor="middle" x="521.5" y="-13" font-family="Helvetica,sans-Serif" font-size="10.00" fill="#000000">loop</text>
</a>
</g>
</g>
<!-- Node47&#45;&gt;Node48 -->
<g id="edge4" class="edge">
<title>Node47&#45;&gt;Node48</title>
<path fill="none" stroke="#191970" d="M478.5149,-15.5C487.8175,-15.5 496.5667,-15.5 503.7123,-15.5"/>
<polygon fill="#191970" stroke="#191970" points="478.2531,-12.0001 468.2531,-15.5 478.253,-19.0001 478.2531,-12.0001"/>
</g>
</g>
</svg>
