<?xml version="1.0" encoding="UTF-8" standalone="no"?>
<!DOCTYPE svg PUBLIC "-//W3C//DTD SVG 1.1//EN"
 "http://www.w3.org/Graphics/SVG/1.1/DTD/svg11.dtd">
<!-- Generated by graphviz version 2.40.1 (20161225.0304)
 -->
<!-- Title: TooNetworking_send_signed_ Pages: 1 -->
<svg width="520pt" height="130pt"
 viewBox="0.00 0.00 520.00 130.00" xmlns="http://www.w3.org/2000/svg" xmlns:xlink="http://www.w3.org/1999/xlink">
<g id="graph0" class="graph" transform="scale(1 1) rotate(0) translate(4 126)">
<title>TooNetworking_send_signed_</title>
<polygon fill="#ffffff" stroke="transparent" points="-4,4 -4,-126 516,-126 516,4 -4,4"/>
<!-- Node258 -->
<g id="node1" class="node">
<title>Node258</title>
<polygon fill="#bfbfbf" stroke="#000000" points="0,-47.5 0,-77.5 109,-77.5 109,-47.5 0,-47.5"/>
<text text-anchor="start" x="8" y="-65.5" font-family="Helvetica,sans-Serif" font-size="10.00" fill="#000000">TooNetworking_send</text>
<text text-anchor="middle" x="54.5" y="-54.5" font-family="Helvetica,sans-Serif" font-size="10.00" fill="#000000">_signed_</text>
</g>
<!-- Node259 -->
<g id="node2" class="node">
<title>Node259</title>
<g id="a_node2"><a xlink:href="TooNetworking_8h.html#a9209f3e1a2fdf0b3b88d49105b8fc359" target="_top" xlink:title="TooNetworking_send\l_signed">
<polygon fill="#ffffff" stroke="#000000" points="153,-91.5 153,-121.5 262,-121.5 262,-91.5 153,-91.5"/>
<text text-anchor="start" x="161" y="-109.5" font-family="Helvetica,sans-Serif" font-size="10.00" fill="#000000">TooNetworking_send</text>
<text text-anchor="middle" x="207.5" y="-98.5" font-family="Helvetica,sans-Serif" font-size="10.00" fill="#000000">_signed</text>
</a>
</g>
</g>
<!-- Node258&#45;&gt;Node259 -->
<g id="edge1" class="edge">
<title>Node258&#45;&gt;Node259</title>
<path fill="none" stroke="#191970" d="M116.4364,-80.3118C129.3136,-84.015 142.7624,-87.8827 155.2498,-91.4738"/>
<polygon fill="#191970" stroke="#191970" points="117.3038,-76.9194 106.726,-77.5192 115.3691,-83.6468 117.3038,-76.9194"/>
</g>
<!-- Node260 -->
<g id="node3" class="node">
<title>Node260</title>
<g id="a_node3"><a xlink:href="TooNetworking_8h.html#a085ff748b00f6be4ebafcae2bb0dded1" target="_top" xlink:title="TooNetworking_bufferlist\l_send_signed">
<polygon fill="#ffffff" stroke="#000000" points="311,-49.5 311,-79.5 436,-79.5 436,-49.5 311,-49.5"/>
<text text-anchor="start" x="319" y="-67.5" font-family="Helvetica,sans-Serif" font-size="10.00" fill="#000000">TooNetworking_bufferlist</text>
<text text-anchor="middle" x="373.5" y="-56.5" font-family="Helvetica,sans-Serif" font-size="10.00" fill="#000000">_send_signed</text>
</a>
</g>
</g>
<!-- Node258&#45;&gt;Node260 -->
<g id="edge2" class="edge">
<title>Node258&#45;&gt;Node260</title>
<path fill="none" stroke="#191970" d="M119.4919,-62.9075C175.4458,-63.2583 255.6701,-63.7613 310.9137,-64.1076"/>
<polygon fill="#191970" stroke="#191970" points="119.3598,-59.4067 109.3381,-62.8438 119.3159,-66.4065 119.3598,-59.4067"/>
</g>
<!-- Node262 -->
<g id="node5" class="node">
<title>Node262</title>
<g id="a_node5"><a xlink:href="TooNetworking_8h.html#ab58e06e0eb6f2f8ecbebeaf3c173fb22" target="_top" xlink:title="TooNetworking_bufferlist\l_send_all">
<polygon fill="#ffffff" stroke="#000000" points="145,-2.5 145,-32.5 270,-32.5 270,-2.5 145,-2.5"/>
<text text-anchor="start" x="153" y="-20.5" font-family="Helvetica,sans-Serif" font-size="10.00" fill="#000000">TooNetworking_bufferlist</text>
<text text-anchor="middle" x="207.5" y="-9.5" font-family="Helvetica,sans-Serif" font-size="10.00" fill="#000000">_send_all</text>
</a>
</g>
</g>
<!-- Node258&#45;&gt;Node262 -->
<g id="edge4" class="edge">
<title>Node258&#45;&gt;Node262</title>
<path fill="none" stroke="#191970" d="M115.5535,-44.5431C129.046,-40.5747 143.2075,-36.4096 156.2632,-32.5697"/>
<polygon fill="#191970" stroke="#191970" points="114.4785,-41.211 105.8724,-47.3905 116.4537,-47.9265 114.4785,-41.211"/>
</g>
<!-- Node261 -->
<g id="node4" class="node">
<title>Node261</title>
<g id="a_node4"><a xlink:href="NODE__SKETCH__TooAutomation__Node_8ino_8cpp.html#a0b33edabd7f1c4e4a0bf32c67269be2f" target="_top" xlink:title="loop">
<polygon fill="#ffffff" stroke="#000000" points="477,-30 477,-49 512,-49 512,-30 477,-30"/>
<text text-anchor="middle" x="494.5" y="-37" font-family="Helvetica,sans-Serif" font-size="10.00" fill="#000000">loop</text>
</a>
</g>
</g>
<!-- Node260&#45;&gt;Node261 -->
<g id="edge3" class="edge">
<title>Node260&#45;&gt;Node261</title>
<path fill="none" stroke="#191970" d="M446.2474,-49.4695C457.636,-47.1165 468.4203,-44.8884 476.8934,-43.1377"/>
<polygon fill="#191970" stroke="#191970" points="445.2115,-46.1096 436.1266,-51.5606 446.6279,-52.9648 445.2115,-46.1096"/>
</g>
<!-- Node263 -->
<g id="node6" class="node">
<title>Node263</title>
<g id="a_node6"><a xlink:href="TooNetworking_8h.html#a7382ba1aed5405c3adc02011ea6c45dd" target="_top" xlink:title="TooNetworking_connection\l_maintenance">
<polygon fill="#ffffff" stroke="#000000" points="306,-.5 306,-30.5 441,-30.5 441,-.5 306,-.5"/>
<text text-anchor="start" x="314" y="-18.5" font-family="Helvetica,sans-Serif" font-size="10.00" fill="#000000">TooNetworking_connection</text>
<text text-anchor="middle" x="373.5" y="-7.5" font-family="Helvetica,sans-Serif" font-size="10.00" fill="#000000">_maintenance</text>
</a>
</g>
</g>
<!-- Node262&#45;&gt;Node263 -->
<g id="edge5" class="edge">
<title>Node262&#45;&gt;Node263</title>
<path fill="none" stroke="#191970" d="M280.4873,-16.6206C288.951,-16.5187 297.5556,-16.415 305.9422,-16.3139"/>
<polygon fill="#191970" stroke="#191970" points="280.2146,-13.1236 270.2575,-16.7439 280.299,-20.1231 280.2146,-13.1236"/>
</g>
<!-- Node263&#45;&gt;Node261 -->
<g id="edge6" class="edge">
<title>Node263&#45;&gt;Node261</title>
<path fill="none" stroke="#191970" d="M451.1566,-30.903C460.6588,-32.7877 469.5454,-34.5503 476.7679,-35.9829"/>
<polygon fill="#191970" stroke="#191970" points="451.5653,-27.4159 441.0754,-28.9034 450.2034,-34.2822 451.5653,-27.4159"/>
</g>
</g>
</svg>
