<?xml version="1.0" encoding="UTF-8" standalone="no"?>
<!DOCTYPE svg PUBLIC "-//W3C//DTD SVG 1.1//EN"
 "http://www.w3.org/Graphics/SVG/1.1/DTD/svg11.dtd">
<!-- Generated by graphviz version 2.40.1 (20161225.0304)
 -->
<!-- Title: TooNetworking_bufferlist_send_signed Pages: 1 -->
<svg width="879pt" height="372pt"
 viewBox="0.00 0.00 879.00 372.00" xmlns="http://www.w3.org/2000/svg" xmlns:xlink="http://www.w3.org/1999/xlink">
<g id="graph0" class="graph" transform="scale(1 1) rotate(0) translate(4 368)">
<title>TooNetworking_bufferlist_send_signed</title>
<polygon fill="#ffffff" stroke="transparent" points="-4,4 -4,-368 875,-368 875,4 -4,4"/>
<!-- Node101 -->
<g id="node1" class="node">
<title>Node101</title>
<polygon fill="#bfbfbf" stroke="#000000" points="0,-166.5 0,-196.5 125,-196.5 125,-166.5 0,-166.5"/>
<text text-anchor="start" x="8" y="-184.5" font-family="Helvetica,sans-Serif" font-size="10.00" fill="#000000">TooNetworking_bufferlist</text>
<text text-anchor="middle" x="62.5" y="-173.5" font-family="Helvetica,sans-Serif" font-size="10.00" fill="#000000">_send_signed</text>
</g>
<!-- Node102 -->
<g id="node2" class="node">
<title>Node102</title>
<g id="a_node2"><a xlink:href="TooSigning_8cpp.html#a729dc41cfb692fb0aea083c38c5f3577" target="_top" xlink:title="TooSigning_received\l_noncelist_find_from_ID">
<polygon fill="#ffffff" stroke="#000000" points="489.5,-294.5 489.5,-324.5 611.5,-324.5 611.5,-294.5 489.5,-294.5"/>
<text text-anchor="start" x="497.5" y="-312.5" font-family="Helvetica,sans-Serif" font-size="10.00" fill="#000000">TooSigning_received</text>
<text text-anchor="middle" x="550.5" y="-301.5" font-family="Helvetica,sans-Serif" font-size="10.00" fill="#000000">_noncelist_find_from_ID</text>
</a>
</g>
</g>
<!-- Node101&#45;&gt;Node102 -->
<g id="edge1" class="edge">
<title>Node101&#45;&gt;Node102</title>
<path fill="none" stroke="#191970" d="M79.8081,-196.5797C98.5957,-212.2085 130.0718,-236.2987 161,-250.5 264.563,-298.053 398.3194,-308.6986 479.0921,-310.3357"/>
<polygon fill="#191970" stroke="#191970" points="479.1034,-313.8362 489.1587,-310.4985 479.2167,-306.8371 479.1034,-313.8362"/>
</g>
<!-- Node103 -->
<g id="node3" class="node">
<title>Node103</title>
<g id="a_node3"><a xlink:href="TooNetworking_8cpp.html#a9209f3e1a2fdf0b3b88d49105b8fc359" target="_top" xlink:title="TooNetworking_send\l_signed">
<polygon fill="#ffffff" stroke="#000000" points="161,-210.5 161,-240.5 270,-240.5 270,-210.5 161,-210.5"/>
<text text-anchor="start" x="169" y="-228.5" font-family="Helvetica,sans-Serif" font-size="10.00" fill="#000000">TooNetworking_send</text>
<text text-anchor="middle" x="215.5" y="-217.5" font-family="Helvetica,sans-Serif" font-size="10.00" fill="#000000">_signed</text>
</a>
</g>
</g>
<!-- Node101&#45;&gt;Node103 -->
<g id="edge2" class="edge">
<title>Node101&#45;&gt;Node103</title>
<path fill="none" stroke="#191970" d="M114.726,-196.5192C127.2121,-200.11 140.6607,-203.9776 153.5386,-207.681"/>
<polygon fill="#191970" stroke="#191970" points="152.6719,-211.0736 163.2498,-210.4738 154.6067,-204.3463 152.6719,-211.0736"/>
</g>
<!-- Node107 -->
<g id="node7" class="node">
<title>Node107</title>
<g id="a_node7"><a xlink:href="TooSigning_8cpp.html#a53b55547df3d4276f3ca6a74d601549a" target="_top" xlink:title="TooSigning_requested\l_noncelist_add">
<polygon fill="#ffffff" stroke="#000000" points="494,-98.5 494,-128.5 607,-128.5 607,-98.5 494,-98.5"/>
<text text-anchor="start" x="502" y="-116.5" font-family="Helvetica,sans-Serif" font-size="10.00" fill="#000000">TooSigning_requested</text>
<text text-anchor="middle" x="550.5" y="-105.5" font-family="Helvetica,sans-Serif" font-size="10.00" fill="#000000">_noncelist_add</text>
</a>
</g>
</g>
<!-- Node101&#45;&gt;Node107 -->
<g id="edge23" class="edge">
<title>Node101&#45;&gt;Node107</title>
<path fill="none" stroke="#191970" d="M125.1832,-170.3392C174.2862,-161.8057 244.3688,-150.0859 306,-141.5 365.8525,-133.1619 434.2028,-125.4903 483.3907,-120.2939"/>
<polygon fill="#191970" stroke="#191970" points="484.0063,-123.7486 493.586,-119.2232 483.2752,-116.7868 484.0063,-123.7486"/>
</g>
<!-- Node111 -->
<g id="node11" class="node">
<title>Node111</title>
<g id="a_node11"><a xlink:href="TooNetworking_8cpp.html#aa8040740e6ffca2f68beb7f8e57d63fc" target="_top" xlink:title="TooNetworking_bufferlist_add">
<polygon fill="#ffffff" stroke="#000000" points="306,-194 306,-213 452,-213 452,-194 306,-194"/>
<text text-anchor="middle" x="379" y="-201" font-family="Helvetica,sans-Serif" font-size="10.00" fill="#000000">TooNetworking_bufferlist_add</text>
</a>
</g>
</g>
<!-- Node101&#45;&gt;Node111 -->
<g id="edge24" class="edge">
<title>Node101&#45;&gt;Node111</title>
<path fill="none" stroke="#191970" d="M125.0302,-185.8465C173.8572,-189.2405 242.158,-193.9881 295.6329,-197.7051"/>
<polygon fill="#191970" stroke="#191970" points="295.5595,-201.2084 305.7782,-198.4103 296.045,-194.2252 295.5595,-201.2084"/>
</g>
<!-- Node119 -->
<g id="node19" class="node">
<title>Node119</title>
<g id="a_node19"><a xlink:href="TooNetworking_8cpp.html#a86fb32acfc42a498be62a3236c778454" target="_top" xlink:title="TooNetworking_send\l_encrypted">
<polygon fill="#ffffff" stroke="#000000" points="161,-68.5 161,-98.5 270,-98.5 270,-68.5 161,-68.5"/>
<text text-anchor="start" x="169" y="-86.5" font-family="Helvetica,sans-Serif" font-size="10.00" fill="#000000">TooNetworking_send</text>
<text text-anchor="middle" x="215.5" y="-75.5" font-family="Helvetica,sans-Serif" font-size="10.00" fill="#000000">_encrypted</text>
</a>
</g>
</g>
<!-- Node101&#45;&gt;Node119 -->
<g id="edge25" class="edge">
<title>Node101&#45;&gt;Node119</title>
<path fill="none" stroke="#191970" d="M83.2257,-166.2814C102.8818,-152.0683 133.427,-130.5462 161,-113.5 166.4259,-110.1456 172.2491,-106.7421 177.9975,-103.4908"/>
<polygon fill="#191970" stroke="#191970" points="179.8652,-106.4569 186.9012,-98.5357 176.4612,-100.3403 179.8652,-106.4569"/>
</g>
<!-- Node103&#45;&gt;Node102 -->
<g id="edge3" class="edge">
<title>Node103&#45;&gt;Node102</title>
<path fill="none" stroke="#191970" d="M256.1802,-240.5632C271.6528,-245.9935 289.5215,-251.9085 306,-256.5 363.8341,-272.6145 430.4961,-286.7789 479.5915,-296.401"/>
<polygon fill="#191970" stroke="#191970" points="478.9955,-299.8505 489.4798,-298.3241 480.3319,-292.9793 478.9955,-299.8505"/>
</g>
<!-- Node104 -->
<g id="node4" class="node">
<title>Node104</title>
<g id="a_node4"><a xlink:href="TooNetworking_8cpp.html#a9f893c3218491ee86282fdcd9f376500" target="_top" xlink:title="TooNetworking_send\l_signed_">
<polygon fill="#ffffff" stroke="#000000" points="496,-245.5 496,-275.5 605,-275.5 605,-245.5 496,-245.5"/>
<text text-anchor="start" x="504" y="-263.5" font-family="Helvetica,sans-Serif" font-size="10.00" fill="#000000">TooNetworking_send</text>
<text text-anchor="middle" x="550.5" y="-252.5" font-family="Helvetica,sans-Serif" font-size="10.00" fill="#000000">_signed_</text>
</a>
</g>
</g>
<!-- Node103&#45;&gt;Node104 -->
<g id="edge4" class="edge">
<title>Node103&#45;&gt;Node104</title>
<path fill="none" stroke="#191970" d="M270.0691,-231.2013C329.0793,-237.3665 423.0927,-247.1888 485.7864,-253.7389"/>
<polygon fill="#191970" stroke="#191970" points="485.6446,-257.243 495.9542,-254.8012 486.3721,-250.2809 485.6446,-257.243"/>
</g>
<!-- Node103&#45;&gt;Node107 -->
<g id="edge7" class="edge">
<title>Node103&#45;&gt;Node107</title>
<path fill="none" stroke="#191970" d="M246.0393,-210.348C263.3719,-202.0839 285.6139,-192.034 306,-184.5 314.7555,-181.2643 418.4358,-151.3784 487.9409,-131.4259"/>
<polygon fill="#191970" stroke="#191970" points="489.2858,-134.6813 497.9324,-128.5586 487.3549,-127.9529 489.2858,-134.6813"/>
</g>
<!-- Node103&#45;&gt;Node111 -->
<g id="edge11" class="edge">
<title>Node103&#45;&gt;Node111</title>
<path fill="none" stroke="#191970" d="M270.398,-218.1131C279.3228,-216.9122 288.7279,-215.6467 298.1178,-214.3832"/>
<polygon fill="#191970" stroke="#191970" points="298.8334,-217.8186 308.2773,-213.0162 297.8999,-210.8811 298.8334,-217.8186"/>
</g>
<!-- Node105 -->
<g id="node5" class="node">
<title>Node105</title>
<g id="a_node5"><a xlink:href="TooNetworking_8cpp.html#aa7771141375a0a88ce46bb99ab56ee51" target="_top" xlink:title="TooNetworking_this\l_node_is_online">
<polygon fill="#ffffff" stroke="#000000" points="664.5,-333.5 664.5,-363.5 768.5,-363.5 768.5,-333.5 664.5,-333.5"/>
<text text-anchor="start" x="672.5" y="-351.5" font-family="Helvetica,sans-Serif" font-size="10.00" fill="#000000">TooNetworking_this</text>
<text text-anchor="middle" x="716.5" y="-340.5" font-family="Helvetica,sans-Serif" font-size="10.00" fill="#000000">_node_is_online</text>
</a>
</g>
</g>
<!-- Node104&#45;&gt;Node105 -->
<g id="edge5" class="edge">
<title>Node104&#45;&gt;Node105</title>
<path fill="none" stroke="#191970" d="M595.466,-275.6392C601.5866,-278.505 607.6095,-281.7888 613,-285.5 632.4296,-298.8766 629.3139,-311.5037 649,-324.5 651.3841,-326.0739 653.8837,-327.5586 656.459,-328.9574"/>
<polygon fill="#191970" stroke="#191970" points="654.9311,-332.1063 665.4482,-333.3872 658.0253,-325.8273 654.9311,-332.1063"/>
</g>
<!-- Node106 -->
<g id="node6" class="node">
<title>Node106</title>
<g id="a_node6"><a xlink:href="TooNetworking_8cpp.html#af4808c2c0857cde9a6721ad54f5ab42d" target="_top" xlink:title="TooNetworking_other\l_node_is_online">
<polygon fill="#ffffff" stroke="#000000" points="661.5,-284.5 661.5,-314.5 771.5,-314.5 771.5,-284.5 661.5,-284.5"/>
<text text-anchor="start" x="669.5" y="-302.5" font-family="Helvetica,sans-Serif" font-size="10.00" fill="#000000">TooNetworking_other</text>
<text text-anchor="middle" x="716.5" y="-291.5" font-family="Helvetica,sans-Serif" font-size="10.00" fill="#000000">_node_is_online</text>
</a>
</g>
</g>
<!-- Node104&#45;&gt;Node106 -->
<g id="edge6" class="edge">
<title>Node104&#45;&gt;Node106</title>
<path fill="none" stroke="#191970" d="M605.3147,-273.3781C620.1111,-276.8544 636.2637,-280.6493 651.5568,-284.2423"/>
<polygon fill="#191970" stroke="#191970" points="650.924,-287.6888 661.4595,-286.5688 652.5251,-280.8744 650.924,-287.6888"/>
</g>
<!-- Node108 -->
<g id="node8" class="node">
<title>Node108</title>
<g id="a_node8"><a xlink:href="group__TOOSIGNING__INITIALIZE.html#gafd247c5271ff63bfcde14ef94060002d" target="_top" xlink:title="TooSigning_requested\l_noncelist_initialize">
<polygon fill="#ffffff" stroke="#000000" points="660,-98.5 660,-128.5 773,-128.5 773,-98.5 660,-98.5"/>
<text text-anchor="start" x="668" y="-116.5" font-family="Helvetica,sans-Serif" font-size="10.00" fill="#000000">TooSigning_requested</text>
<text text-anchor="middle" x="716.5" y="-105.5" font-family="Helvetica,sans-Serif" font-size="10.00" fill="#000000">_noncelist_initialize</text>
</a>
</g>
</g>
<!-- Node107&#45;&gt;Node108 -->
<g id="edge8" class="edge">
<title>Node107&#45;&gt;Node108</title>
<path fill="none" stroke="#191970" d="M607.1635,-113.5C620.8433,-113.5 635.588,-113.5 649.6847,-113.5"/>
<polygon fill="#191970" stroke="#191970" points="649.8103,-117.0001 659.8102,-113.5 649.8102,-110.0001 649.8103,-117.0001"/>
</g>
<!-- Node109 -->
<g id="node9" class="node">
<title>Node109</title>
<g id="a_node9"><a xlink:href="TooSigning_8cpp.html#a58143364a83636a3d2df075a95cb2bfc" target="_top" xlink:title="TooSigning_request\l_nonce_from_node_id">
<polygon fill="#ffffff" stroke="#000000" points="660.5,-49.5 660.5,-79.5 772.5,-79.5 772.5,-49.5 660.5,-49.5"/>
<text text-anchor="start" x="668.5" y="-67.5" font-family="Helvetica,sans-Serif" font-size="10.00" fill="#000000">TooSigning_request</text>
<text text-anchor="middle" x="716.5" y="-56.5" font-family="Helvetica,sans-Serif" font-size="10.00" fill="#000000">_nonce_from_node_id</text>
</a>
</g>
</g>
<!-- Node107&#45;&gt;Node109 -->
<g id="edge9" class="edge">
<title>Node107&#45;&gt;Node109</title>
<path fill="none" stroke="#191970" d="M601.66,-98.3986C618.7806,-93.3449 638.0315,-87.6624 655.8078,-82.4152"/>
<polygon fill="#191970" stroke="#191970" points="656.9089,-85.7395 665.5089,-79.5516 654.9272,-79.0259 656.9089,-85.7395"/>
</g>
<!-- Node110 -->
<g id="node10" class="node">
<title>Node110</title>
<g id="a_node10"><a xlink:href="group__TOOSIGNING__DEBUGGING.html#gabb54a5e4968d69e35d665869d5c6588f" target="_top" xlink:title="TooSigning_requested\l_noncelist_print">
<polygon fill="#ffffff" stroke="#000000" points="660,-.5 660,-30.5 773,-30.5 773,-.5 660,-.5"/>
<text text-anchor="start" x="668" y="-18.5" font-family="Helvetica,sans-Serif" font-size="10.00" fill="#000000">TooSigning_requested</text>
<text text-anchor="middle" x="716.5" y="-7.5" font-family="Helvetica,sans-Serif" font-size="10.00" fill="#000000">_noncelist_print</text>
</a>
</g>
</g>
<!-- Node107&#45;&gt;Node110 -->
<g id="edge10" class="edge">
<title>Node107&#45;&gt;Node110</title>
<path fill="none" stroke="#191970" d="M567.205,-98.4272C585.9783,-82.1148 617.9104,-56.2014 649,-39.5 652.2596,-37.7489 655.6732,-36.0808 659.1609,-34.4998"/>
<polygon fill="#191970" stroke="#191970" points="660.6799,-37.6572 668.5116,-30.5218 657.9395,-31.2159 660.6799,-37.6572"/>
</g>
<!-- Node111&#45;&gt;Node102 -->
<g id="edge20" class="edge">
<title>Node111&#45;&gt;Node102</title>
<path fill="none" stroke="#191970" d="M389.7429,-213.2176C408.526,-229.8177 449.055,-263.9299 488,-285.5 491.0408,-287.1842 494.2241,-288.8024 497.4751,-290.3471"/>
<polygon fill="#191970" stroke="#191970" points="496.1968,-293.6095 506.7542,-294.4993 499.056,-287.22 496.1968,-293.6095"/>
</g>
<!-- Node111&#45;&gt;Node104 -->
<g id="edge21" class="edge">
<title>Node111&#45;&gt;Node104</title>
<path fill="none" stroke="#191970" d="M408.1409,-213.0389C421.5106,-217.426 437.5655,-222.7093 452,-227.5 466.3246,-232.2542 481.81,-237.4267 496.1664,-242.2359"/>
<polygon fill="#191970" stroke="#191970" points="495.3031,-245.6378 505.897,-245.4977 497.5279,-239.0008 495.3031,-245.6378"/>
</g>
<!-- Node111&#45;&gt;Node107 -->
<g id="edge22" class="edge">
<title>Node111&#45;&gt;Node107</title>
<path fill="none" stroke="#191970" d="M420.9175,-193.9231C431.577,-190.386 442.6505,-185.6783 452,-179.5 472.2315,-166.1308 468.1987,-152.4985 488,-138.5 490.672,-136.6111 493.5071,-134.8362 496.4378,-133.1732"/>
<polygon fill="#191970" stroke="#191970" points="498.1715,-136.2171 505.4488,-128.517 494.958,-129.9983 498.1715,-136.2171"/>
</g>
<!-- Node112 -->
<g id="node12" class="node">
<title>Node112</title>
<g id="a_node12"><a xlink:href="TooNetworking_8cpp.html#aa8a4e879d4d71fed2a8940cf93b75ae4" target="_top" xlink:title="TooNetworking_bufferlist\l_initialize">
<polygon fill="#ffffff" stroke="#000000" points="488,-147.5 488,-177.5 613,-177.5 613,-147.5 488,-147.5"/>
<text text-anchor="start" x="496" y="-165.5" font-family="Helvetica,sans-Serif" font-size="10.00" fill="#000000">TooNetworking_bufferlist</text>
<text text-anchor="middle" x="550.5" y="-154.5" font-family="Helvetica,sans-Serif" font-size="10.00" fill="#000000">_initialize</text>
</a>
</g>
</g>
<!-- Node111&#45;&gt;Node112 -->
<g id="edge12" class="edge">
<title>Node111&#45;&gt;Node112</title>
<path fill="none" stroke="#191970" d="M418.7766,-193.9907C436.379,-189.7826 457.651,-184.6971 477.9176,-179.8521"/>
<polygon fill="#191970" stroke="#191970" points="478.8534,-183.2271 487.7655,-177.4978 477.2257,-176.4189 478.8534,-183.2271"/>
</g>
<!-- Node113 -->
<g id="node13" class="node">
<title>Node113</title>
<g id="a_node13"><a xlink:href="TooNetworking_8cpp.html#a0ad03a7efb42cf40ca3e20fb5df3a5db" target="_top" xlink:title="TooNetworking_bufferlist\l_send_">
<polygon fill="#ffffff" stroke="#000000" points="488,-196.5 488,-226.5 613,-226.5 613,-196.5 488,-196.5"/>
<text text-anchor="start" x="496" y="-214.5" font-family="Helvetica,sans-Serif" font-size="10.00" fill="#000000">TooNetworking_bufferlist</text>
<text text-anchor="middle" x="550.5" y="-203.5" font-family="Helvetica,sans-Serif" font-size="10.00" fill="#000000">_send_</text>
</a>
</g>
</g>
<!-- Node111&#45;&gt;Node113 -->
<g id="edge13" class="edge">
<title>Node111&#45;&gt;Node113</title>
<path fill="none" stroke="#191970" d="M452.2289,-206.9159C460.6431,-207.3084 469.2217,-207.7086 477.6312,-208.1009"/>
<polygon fill="#191970" stroke="#191970" points="477.6303,-211.6045 487.7826,-208.5744 477.9565,-204.6121 477.6303,-211.6045"/>
</g>
<!-- Node113&#45;&gt;Node106 -->
<g id="edge16" class="edge">
<title>Node113&#45;&gt;Node106</title>
<path fill="none" stroke="#191970" d="M595.466,-226.6392C601.5866,-229.505 607.6095,-232.7888 613,-236.5 632.4296,-249.8766 629.3139,-262.5037 649,-275.5 651.3841,-277.0739 653.8837,-278.5586 656.459,-279.9574"/>
<polygon fill="#191970" stroke="#191970" points="654.9311,-283.1063 665.4482,-284.3872 658.0253,-276.8273 654.9311,-283.1063"/>
</g>
<!-- Node114 -->
<g id="node14" class="node">
<title>Node114</title>
<g id="a_node14"><a xlink:href="TooNetworking_8cpp.html#ac352268e177fa2ddf91c8afa5cd04bbf" target="_top" xlink:title="TooNetworking_connection\l_available">
<polygon fill="#ffffff" stroke="#000000" points="649,-235.5 649,-265.5 784,-265.5 784,-235.5 649,-235.5"/>
<text text-anchor="start" x="657" y="-253.5" font-family="Helvetica,sans-Serif" font-size="10.00" fill="#000000">TooNetworking_connection</text>
<text text-anchor="middle" x="716.5" y="-242.5" font-family="Helvetica,sans-Serif" font-size="10.00" fill="#000000">_available</text>
</a>
</g>
</g>
<!-- Node113&#45;&gt;Node114 -->
<g id="edge14" class="edge">
<title>Node113&#45;&gt;Node114</title>
<path fill="none" stroke="#191970" d="M613.2575,-226.2442C622.8979,-228.5091 632.9262,-230.8652 642.7781,-233.1798"/>
<polygon fill="#191970" stroke="#191970" points="642.0146,-236.5957 652.5501,-235.4756 643.6157,-229.7812 642.0146,-236.5957"/>
</g>
<!-- Node116 -->
<g id="node16" class="node">
<title>Node116</title>
<g id="a_node16"><a xlink:href="TooNetworking_8cpp.html#a46674b3fdc9ee370b0839869aa145b75" target="_top" xlink:title="TooNetworking_send">
<polygon fill="#ffffff" stroke="#000000" points="662,-197 662,-216 771,-216 771,-197 662,-197"/>
<text text-anchor="middle" x="716.5" y="-204" font-family="Helvetica,sans-Serif" font-size="10.00" fill="#000000">TooNetworking_send</text>
</a>
</g>
</g>
<!-- Node113&#45;&gt;Node116 -->
<g id="edge17" class="edge">
<title>Node113&#45;&gt;Node116</title>
<path fill="none" stroke="#191970" d="M613.2575,-209.6097C625.8631,-209.23 639.1322,-208.8304 651.8024,-208.4487"/>
<polygon fill="#191970" stroke="#191970" points="651.9212,-211.9468 661.8112,-208.1473 651.7103,-204.95 651.9212,-211.9468"/>
</g>
<!-- Node118 -->
<g id="node18" class="node">
<title>Node118</title>
<g id="a_node18"><a xlink:href="TooNetworking_8cpp.html#a3c91b7ab2f6500c287ecc7ab4a018ef6" target="_top" xlink:title="TooNetworking_bufferlist\l_remove">
<polygon fill="#ffffff" stroke="#000000" points="654,-147.5 654,-177.5 779,-177.5 779,-147.5 654,-147.5"/>
<text text-anchor="start" x="662" y="-165.5" font-family="Helvetica,sans-Serif" font-size="10.00" fill="#000000">TooNetworking_bufferlist</text>
<text text-anchor="middle" x="716.5" y="-154.5" font-family="Helvetica,sans-Serif" font-size="10.00" fill="#000000">_remove</text>
</a>
</g>
</g>
<!-- Node113&#45;&gt;Node118 -->
<g id="edge19" class="edge">
<title>Node113&#45;&gt;Node118</title>
<path fill="none" stroke="#191970" d="M601.66,-196.3986C618.7806,-191.3449 638.0315,-185.6624 655.8078,-180.4152"/>
<polygon fill="#191970" stroke="#191970" points="656.9089,-183.7395 665.5089,-177.5516 654.9272,-177.0259 656.9089,-183.7395"/>
</g>
<!-- Node115 -->
<g id="node15" class="node">
<title>Node115</title>
<g id="a_node15"><a xlink:href="TooNetworking_8cpp.html#aa7924d94ea32c8d33a81ff41f8678320" target="_top" xlink:title="network">
<polygon fill="#ffffff" stroke="#000000" points="820,-241 820,-260 871,-260 871,-241 820,-241"/>
<text text-anchor="middle" x="845.5" y="-248" font-family="Helvetica,sans-Serif" font-size="10.00" fill="#000000">network</text>
</a>
</g>
</g>
<!-- Node114&#45;&gt;Node115 -->
<g id="edge15" class="edge">
<title>Node114&#45;&gt;Node115</title>
<path fill="none" stroke="#191970" d="M784.0225,-250.5C792.9236,-250.5 801.7478,-250.5 809.8151,-250.5"/>
<polygon fill="#191970" stroke="#191970" points="809.9271,-254.0001 819.927,-250.5 809.927,-247.0001 809.9271,-254.0001"/>
</g>
<!-- Node117 -->
<g id="node17" class="node">
<title>Node117</title>
<g id="a_node17"><a xlink:href="TooNetworking_8cpp.html#abdda8f09b9d475ed2c23a2376e2e0151" target="_top" xlink:title="mesh">
<polygon fill="#ffffff" stroke="#000000" points="825,-197 825,-216 866,-216 866,-197 825,-197"/>
<text text-anchor="middle" x="845.5" y="-204" font-family="Helvetica,sans-Serif" font-size="10.00" fill="#000000">mesh</text>
</a>
</g>
</g>
<!-- Node116&#45;&gt;Node117 -->
<g id="edge18" class="edge">
<title>Node116&#45;&gt;Node117</title>
<path fill="none" stroke="#191970" d="M771.2076,-206.5C786.0145,-206.5 801.5264,-206.5 814.5232,-206.5"/>
<polygon fill="#191970" stroke="#191970" points="814.7784,-210.0001 824.7784,-206.5 814.7784,-203.0001 814.7784,-210.0001"/>
</g>
</g>
</svg>
