<?xml version="1.0" encoding="UTF-8" standalone="no"?>
<!DOCTYPE svg PUBLIC "-//W3C//DTD SVG 1.1//EN"
 "http://www.w3.org/Graphics/SVG/1.1/DTD/svg11.dtd">
<!-- Generated by graphviz version 2.40.1 (20161225.0304)
 -->
<!-- Title: network Pages: 1 -->
<svg width="905pt" height="216pt"
 viewBox="0.00 0.00 905.00 215.50" xmlns="http://www.w3.org/2000/svg" xmlns:xlink="http://www.w3.org/1999/xlink">
<g id="graph0" class="graph" transform="scale(1 1) rotate(0) translate(4 211.5)">
<title>network</title>
<polygon fill="#ffffff" stroke="transparent" points="-4,4 -4,-211.5 901,-211.5 901,4 -4,4"/>
<!-- Node15 -->
<g id="node1" class="node">
<title>Node15</title>
<polygon fill="#bfbfbf" stroke="#000000" points="0,-38.5 0,-57.5 51,-57.5 51,-38.5 0,-38.5"/>
<text text-anchor="middle" x="25.5" y="-45.5" font-family="Helvetica,sans-Serif" font-size="10.00" fill="#000000">network</text>
</g>
<!-- Node16 -->
<g id="node2" class="node">
<title>Node16</title>
<g id="a_node2"><a xlink:href="TooNetworking_8h.html#ac352268e177fa2ddf91c8afa5cd04bbf" target="_top" xlink:title="TooNetworking_connection\l_available">
<polygon fill="#ffffff" stroke="#000000" points="87,-77 87,-107 222,-107 222,-77 87,-77"/>
<text text-anchor="start" x="95" y="-95" font-family="Helvetica,sans-Serif" font-size="10.00" fill="#000000">TooNetworking_connection</text>
<text text-anchor="middle" x="154.5" y="-84" font-family="Helvetica,sans-Serif" font-size="10.00" fill="#000000">_available</text>
</a>
</g>
</g>
<!-- Node15&#45;&gt;Node16 -->
<g id="edge1" class="edge">
<title>Node15&#45;&gt;Node16</title>
<path fill="none" stroke="#191970" d="M60.9076,-60.077C76.2161,-65.2985 94.2906,-71.4635 110.4536,-76.9764"/>
<polygon fill="#191970" stroke="#191970" points="61.8895,-56.714 51.295,-56.7983 59.6297,-63.3392 61.8895,-56.714"/>
</g>
<!-- Node24 -->
<g id="node10" class="node">
<title>Node24</title>
<g id="a_node10"><a xlink:href="TooNetworking_8h.html#ae40e5f0c9496fa804d00c5fe275ade4f" target="_top" xlink:title="TooNetworking_peek">
<polygon fill="#ffffff" stroke="#000000" points="100,-38.5 100,-57.5 209,-57.5 209,-38.5 100,-38.5"/>
<text text-anchor="middle" x="154.5" y="-45.5" font-family="Helvetica,sans-Serif" font-size="10.00" fill="#000000">TooNetworking_peek</text>
</a>
</g>
</g>
<!-- Node15&#45;&gt;Node24 -->
<g id="edge11" class="edge">
<title>Node15&#45;&gt;Node24</title>
<path fill="none" stroke="#191970" d="M61.3267,-48C73.2892,-48 86.9038,-48 99.9604,-48"/>
<polygon fill="#191970" stroke="#191970" points="61.2951,-44.5001 51.295,-48 61.295,-51.5001 61.2951,-44.5001"/>
</g>
<!-- Node25 -->
<g id="node11" class="node">
<title>Node25</title>
<g id="a_node11"><a xlink:href="TooNetworking_8h.html#a9cd17becc197be8de7befa25116c3a67" target="_top" xlink:title="TooNetworking_read">
<polygon fill="#ffffff" stroke="#000000" points="101,-.5 101,-19.5 208,-19.5 208,-.5 101,-.5"/>
<text text-anchor="middle" x="154.5" y="-7.5" font-family="Helvetica,sans-Serif" font-size="10.00" fill="#000000">TooNetworking_read</text>
</a>
</g>
</g>
<!-- Node15&#45;&gt;Node25 -->
<g id="edge12" class="edge">
<title>Node15&#45;&gt;Node25</title>
<path fill="none" stroke="#191970" d="M60.8815,-36.9018C69.4205,-34.2696 78.5262,-31.5011 87,-29 97.6253,-25.8638 109.2258,-22.5565 119.7657,-19.5959"/>
<polygon fill="#191970" stroke="#191970" points="59.7056,-33.6019 51.1896,-39.9048 61.7775,-40.2883 59.7056,-33.6019"/>
</g>
<!-- Node17 -->
<g id="node3" class="node">
<title>Node17</title>
<g id="a_node3"><a xlink:href="TooNetworking_8h.html#a0ad03a7efb42cf40ca3e20fb5df3a5db" target="_top" xlink:title="TooNetworking_bufferlist\l_send_">
<polygon fill="#ffffff" stroke="#000000" points="271,-121 271,-151 396,-151 396,-121 271,-121"/>
<text text-anchor="start" x="279" y="-139" font-family="Helvetica,sans-Serif" font-size="10.00" fill="#000000">TooNetworking_bufferlist</text>
<text text-anchor="middle" x="333.5" y="-128" font-family="Helvetica,sans-Serif" font-size="10.00" fill="#000000">_send_</text>
</a>
</g>
</g>
<!-- Node16&#45;&gt;Node17 -->
<g id="edge2" class="edge">
<title>Node16&#45;&gt;Node17</title>
<path fill="none" stroke="#191970" d="M225.634,-109.4855C241.1005,-113.2873 257.3316,-117.277 272.3707,-120.9738"/>
<polygon fill="#191970" stroke="#191970" points="226.1474,-106.0075 215.601,-107.0192 224.4764,-112.8052 226.1474,-106.0075"/>
</g>
<!-- Node22 -->
<g id="node8" class="node">
<title>Node22</title>
<g id="a_node8"><a xlink:href="TooNetworking_8h.html#aefc5dad88b637efb11a3a7b2f76a19b9" target="_top" xlink:title="TooNetworking_connection_fix">
<polygon fill="#ffffff" stroke="#000000" points="258,-82.5 258,-101.5 409,-101.5 409,-82.5 258,-82.5"/>
<text text-anchor="middle" x="333.5" y="-89.5" font-family="Helvetica,sans-Serif" font-size="10.00" fill="#000000">TooNetworking_connection_fix</text>
</a>
</g>
</g>
<!-- Node16&#45;&gt;Node22 -->
<g id="edge9" class="edge">
<title>Node16&#45;&gt;Node22</title>
<path fill="none" stroke="#191970" d="M232.4146,-92C240.8859,-92 249.4981,-92 257.9405,-92"/>
<polygon fill="#191970" stroke="#191970" points="232.1723,-88.5001 222.1722,-92 232.1722,-95.5001 232.1723,-88.5001"/>
</g>
<!-- Node23 -->
<g id="node9" class="node">
<title>Node23</title>
<g id="a_node9"><a xlink:href="TooNetworking_8h.html#ab5dfe46515ee5ca8f9893675df673d96" target="_top" xlink:title="TooNetworking_send\l_signed">
<polygon fill="#ffffff" stroke="#000000" points="279,-33 279,-63 388,-63 388,-33 279,-33"/>
<text text-anchor="start" x="287" y="-51" font-family="Helvetica,sans-Serif" font-size="10.00" fill="#000000">TooNetworking_send</text>
<text text-anchor="middle" x="333.5" y="-40" font-family="Helvetica,sans-Serif" font-size="10.00" fill="#000000">_signed</text>
</a>
</g>
</g>
<!-- Node16&#45;&gt;Node23 -->
<g id="edge10" class="edge">
<title>Node16&#45;&gt;Node23</title>
<path fill="none" stroke="#191970" d="M225.3826,-74.5763C243.215,-70.193 262.079,-65.556 278.9709,-61.4038"/>
<polygon fill="#191970" stroke="#191970" points="224.4764,-71.1948 215.601,-76.9808 226.1474,-77.9925 224.4764,-71.1948"/>
</g>
<!-- Node18 -->
<g id="node4" class="node">
<title>Node18</title>
<g id="a_node4"><a xlink:href="TooNetworking_8h.html#a59be7e774988f57ab43c4c078c570c67" target="_top" xlink:title="TooNetworking_bufferlist_add">
<polygon fill="#ffffff" stroke="#000000" points="445,-148.5 445,-167.5 591,-167.5 591,-148.5 445,-148.5"/>
<text text-anchor="middle" x="518" y="-155.5" font-family="Helvetica,sans-Serif" font-size="10.00" fill="#000000">TooNetworking_bufferlist_add</text>
</a>
</g>
</g>
<!-- Node17&#45;&gt;Node18 -->
<g id="edge3" class="edge">
<title>Node17&#45;&gt;Node18</title>
<path fill="none" stroke="#191970" d="M406.2869,-144.6792C419.0011,-146.1953 432.2322,-147.7729 444.9534,-149.2898"/>
<polygon fill="#191970" stroke="#191970" points="406.5648,-141.1876 396.2207,-143.4789 405.7359,-148.1384 406.5648,-141.1876"/>
</g>
<!-- Node21 -->
<g id="node7" class="node">
<title>Node21</title>
<g id="a_node7"><a xlink:href="TooNetworking_8h.html#ab58e06e0eb6f2f8ecbebeaf3c173fb22" target="_top" xlink:title="TooNetworking_bufferlist\l_send_all">
<polygon fill="#ffffff" stroke="#000000" points="772,-118 772,-148 897,-148 897,-118 772,-118"/>
<text text-anchor="start" x="780" y="-136" font-family="Helvetica,sans-Serif" font-size="10.00" fill="#000000">TooNetworking_bufferlist</text>
<text text-anchor="middle" x="834.5" y="-125" font-family="Helvetica,sans-Serif" font-size="10.00" fill="#000000">_send_all</text>
</a>
</g>
</g>
<!-- Node17&#45;&gt;Node21 -->
<g id="edge8" class="edge">
<title>Node17&#45;&gt;Node21</title>
<path fill="none" stroke="#191970" d="M406.2235,-135.0501C465.6155,-134.3241 551.7341,-133.3847 627,-133 675.6322,-132.7515 730.6766,-132.7651 771.8461,-132.8334"/>
<polygon fill="#191970" stroke="#191970" points="406.1474,-131.5507 396.1914,-135.1739 406.2338,-138.5502 406.1474,-131.5507"/>
</g>
<!-- Node19 -->
<g id="node5" class="node">
<title>Node19</title>
<g id="a_node5"><a xlink:href="TooNetworking_8h.html#a9209f3e1a2fdf0b3b88d49105b8fc359" target="_top" xlink:title="TooNetworking_send\l_signed">
<polygon fill="#ffffff" stroke="#000000" points="627,-143 627,-173 736,-173 736,-143 627,-143"/>
<text text-anchor="start" x="635" y="-161" font-family="Helvetica,sans-Serif" font-size="10.00" fill="#000000">TooNetworking_send</text>
<text text-anchor="middle" x="681.5" y="-150" font-family="Helvetica,sans-Serif" font-size="10.00" fill="#000000">_signed</text>
</a>
</g>
</g>
<!-- Node18&#45;&gt;Node19 -->
<g id="edge4" class="edge">
<title>Node18&#45;&gt;Node19</title>
<path fill="none" stroke="#191970" d="M601.2213,-158C609.8182,-158 618.3934,-158 626.5665,-158"/>
<polygon fill="#191970" stroke="#191970" points="601.1422,-154.5001 591.1421,-158 601.1421,-161.5001 601.1422,-154.5001"/>
</g>
<!-- Node20 -->
<g id="node6" class="node">
<title>Node20</title>
<g id="a_node6"><a xlink:href="TooNetworking_8h.html#a085ff748b00f6be4ebafcae2bb0dded1" target="_top" xlink:title="TooNetworking_bufferlist\l_send_signed">
<polygon fill="#ffffff" stroke="#000000" points="772,-177 772,-207 897,-207 897,-177 772,-177"/>
<text text-anchor="start" x="780" y="-195" font-family="Helvetica,sans-Serif" font-size="10.00" fill="#000000">TooNetworking_bufferlist</text>
<text text-anchor="middle" x="834.5" y="-184" font-family="Helvetica,sans-Serif" font-size="10.00" fill="#000000">_send_signed</text>
</a>
</g>
</g>
<!-- Node18&#45;&gt;Node20 -->
<g id="edge7" class="edge">
<title>Node18&#45;&gt;Node20</title>
<path fill="none" stroke="#191970" d="M562.4461,-170.1239C582.0818,-174.9778 605.537,-180.0978 627,-183 675.2395,-189.5228 730.3054,-191.6689 771.583,-192.2405"/>
<polygon fill="#191970" stroke="#191970" points="563.1098,-166.6816 552.5569,-167.623 561.3935,-173.468 563.1098,-166.6816"/>
</g>
<!-- Node19&#45;&gt;Node20 -->
<g id="edge5" class="edge">
<title>Node19&#45;&gt;Node20</title>
<path fill="none" stroke="#191970" d="M746.1421,-172.3649C754.6223,-174.2494 763.3018,-176.1782 771.7499,-178.0555"/>
<polygon fill="#191970" stroke="#191970" points="746.8255,-168.9315 736.3044,-170.1787 745.3069,-175.7648 746.8255,-168.9315"/>
</g>
<!-- Node19&#45;&gt;Node21 -->
<g id="edge6" class="edge">
<title>Node19&#45;&gt;Node21</title>
<path fill="none" stroke="#191970" d="M746.4187,-147.3924C754.811,-146.0211 763.3936,-144.6187 771.7499,-143.2533"/>
<polygon fill="#191970" stroke="#191970" points="745.609,-143.9782 736.3044,-149.045 746.7379,-150.8865 745.609,-143.9782"/>
</g>
</g>
</svg>
