<?xml version="1.0" encoding="UTF-8" standalone="no"?>
<!DOCTYPE svg PUBLIC "-//W3C//DTD SVG 1.1//EN"
 "http://www.w3.org/Graphics/SVG/1.1/DTD/svg11.dtd">
<!-- Generated by graphviz version 2.40.1 (20161225.0304)
 -->
<!-- Title: TooNetworking_connection_begin Pages: 1 -->
<svg width="488pt" height="137pt"
 viewBox="0.00 0.00 488.00 137.00" xmlns="http://www.w3.org/2000/svg" xmlns:xlink="http://www.w3.org/1999/xlink">
<g id="graph0" class="graph" transform="scale(1 1) rotate(0) translate(4 133)">
<title>TooNetworking_connection_begin</title>
<polygon fill="#ffffff" stroke="transparent" points="-4,4 -4,-133 484,-133 484,4 -4,4"/>
<!-- Node103 -->
<g id="node1" class="node">
<title>Node103</title>
<polygon fill="#bfbfbf" stroke="#000000" points="0,-71.5 0,-101.5 135,-101.5 135,-71.5 0,-71.5"/>
<text text-anchor="start" x="8" y="-89.5" font-family="Helvetica,sans-Serif" font-size="10.00" fill="#000000">TooNetworking_connection</text>
<text text-anchor="middle" x="67.5" y="-78.5" font-family="Helvetica,sans-Serif" font-size="10.00" fill="#000000">_begin</text>
</g>
<!-- Node104 -->
<g id="node2" class="node">
<title>Node104</title>
<g id="a_node2"><a xlink:href="TooNetworking_8cpp.html#abdda8f09b9d475ed2c23a2376e2e0151" target="_top" xlink:title="mesh">
<polygon fill="#ffffff" stroke="#000000" points="220,-99 220,-118 261,-118 261,-99 220,-99"/>
<text text-anchor="middle" x="240.5" y="-106" font-family="Helvetica,sans-Serif" font-size="10.00" fill="#000000">mesh</text>
</a>
</g>
</g>
<!-- Node103&#45;&gt;Node104 -->
<g id="edge1" class="edge">
<title>Node103&#45;&gt;Node104</title>
<path fill="none" stroke="#191970" d="M135.3776,-95.1318C161.0118,-98.3917 188.9366,-101.9428 209.5582,-104.5652"/>
<polygon fill="#191970" stroke="#191970" points="209.2638,-108.0559 219.6254,-105.8454 210.1469,-101.1118 209.2638,-108.0559"/>
</g>
<!-- Node105 -->
<g id="node3" class="node">
<title>Node105</title>
<g id="a_node3"><a xlink:href="TooSigning_8cpp.html#ad5ac4cd2c5bebd755a11b7d68da10bb5" target="_top" xlink:title="TooSigning_signed_network\l_begin">
<polygon fill="#ffffff" stroke="#000000" points="171,-49.5 171,-79.5 310,-79.5 310,-49.5 171,-49.5"/>
<text text-anchor="start" x="179" y="-67.5" font-family="Helvetica,sans-Serif" font-size="10.00" fill="#000000">TooSigning_signed_network</text>
<text text-anchor="middle" x="240.5" y="-56.5" font-family="Helvetica,sans-Serif" font-size="10.00" fill="#000000">_begin</text>
</a>
</g>
</g>
<!-- Node103&#45;&gt;Node105 -->
<g id="edge2" class="edge">
<title>Node103&#45;&gt;Node105</title>
<path fill="none" stroke="#191970" d="M135.3776,-77.8682C143.7464,-76.8039 152.3592,-75.7087 160.8824,-74.6248"/>
<polygon fill="#191970" stroke="#191970" points="161.3481,-78.0938 170.8266,-73.3602 160.465,-71.1498 161.3481,-78.0938"/>
</g>
<!-- Node106 -->
<g id="node4" class="node">
<title>Node106</title>
<g id="a_node4"><a xlink:href="group__TOOSIGNING__INITIALIZE.html#ga24011c99b90b9070adb424cee01a3fc2" target="_top" xlink:title="TooSigning_received\l_noncelist_initialize">
<polygon fill="#ffffff" stroke="#000000" points="359.5,-98.5 359.5,-128.5 466.5,-128.5 466.5,-98.5 359.5,-98.5"/>
<text text-anchor="start" x="367.5" y="-116.5" font-family="Helvetica,sans-Serif" font-size="10.00" fill="#000000">TooSigning_received</text>
<text text-anchor="middle" x="413" y="-105.5" font-family="Helvetica,sans-Serif" font-size="10.00" fill="#000000">_noncelist_initialize</text>
</a>
</g>
</g>
<!-- Node105&#45;&gt;Node106 -->
<g id="edge3" class="edge">
<title>Node105&#45;&gt;Node106</title>
<path fill="none" stroke="#191970" d="M293.6632,-79.6014C311.5366,-84.6785 331.6442,-90.3902 350.1878,-95.6577"/>
<polygon fill="#191970" stroke="#191970" points="349.4365,-99.0827 360.0123,-98.4484 351.3493,-92.3491 349.4365,-99.0827"/>
</g>
<!-- Node107 -->
<g id="node5" class="node">
<title>Node107</title>
<g id="a_node5"><a xlink:href="group__TOOSIGNING__INITIALIZE.html#gafd247c5271ff63bfcde14ef94060002d" target="_top" xlink:title="TooSigning_requested\l_noncelist_initialize">
<polygon fill="#ffffff" stroke="#000000" points="356.5,-49.5 356.5,-79.5 469.5,-79.5 469.5,-49.5 356.5,-49.5"/>
<text text-anchor="start" x="364.5" y="-67.5" font-family="Helvetica,sans-Serif" font-size="10.00" fill="#000000">TooSigning_requested</text>
<text text-anchor="middle" x="413" y="-56.5" font-family="Helvetica,sans-Serif" font-size="10.00" fill="#000000">_noncelist_initialize</text>
</a>
</g>
</g>
<!-- Node105&#45;&gt;Node107 -->
<g id="edge4" class="edge">
<title>Node105&#45;&gt;Node107</title>
<path fill="none" stroke="#191970" d="M310.1651,-64.5C322.0258,-64.5 334.3213,-64.5 346.1082,-64.5"/>
<polygon fill="#191970" stroke="#191970" points="346.3118,-68.0001 356.3117,-64.5 346.3117,-61.0001 346.3118,-68.0001"/>
</g>
<!-- Node108 -->
<g id="node6" class="node">
<title>Node108</title>
<g id="a_node6"><a xlink:href="group__TOOSIGNING__INITIALIZE.html#ga0ad0c6af4c20b80f75ccf3d4a2804a0c" target="_top" xlink:title="TooSigning_sent_noncelist\l_initialize">
<polygon fill="#ffffff" stroke="#000000" points="346,-.5 346,-30.5 480,-30.5 480,-.5 346,-.5"/>
<text text-anchor="start" x="354" y="-18.5" font-family="Helvetica,sans-Serif" font-size="10.00" fill="#000000">TooSigning_sent_noncelist</text>
<text text-anchor="middle" x="413" y="-7.5" font-family="Helvetica,sans-Serif" font-size="10.00" fill="#000000">_initialize</text>
</a>
</g>
</g>
<!-- Node105&#45;&gt;Node108 -->
<g id="edge5" class="edge">
<title>Node105&#45;&gt;Node108</title>
<path fill="none" stroke="#191970" d="M293.6632,-49.3986C311.5366,-44.3215 331.6442,-38.6098 350.1878,-33.3423"/>
<polygon fill="#191970" stroke="#191970" points="351.3493,-36.6509 360.0123,-30.5516 349.4365,-29.9173 351.3493,-36.6509"/>
</g>
</g>
</svg>
