<?xml version="1.0" encoding="UTF-8" standalone="no"?>
<!DOCTYPE svg PUBLIC "-//W3C//DTD SVG 1.1//EN"
 "http://www.w3.org/Graphics/SVG/1.1/DTD/svg11.dtd">
<!-- Generated by graphviz version 2.40.1 (20161225.0304)
 -->
<!-- Title: TooNetworking_send_signed Pages: 1 -->
<!--zoomable 123 -->
<svg id="main" version="1.1" xmlns="http://www.w3.org/2000/svg" xmlns:xlink="http://www.w3.org/1999/xlink" xml:space="preserve" onload="init(evt)">
<style type="text/css"><![CDATA[
.edge:hover path { stroke: red; }
.edge:hover polygon { stroke: red; fill: red; }
]]></style>
<script type="text/javascript"><![CDATA[
var edges = document.getElementsByTagName('g');
if (edges && edges.length) {
  for (var i=0;i<edges.length;i++) {
    if (edges[i].id.substr(0,4)=='edge') {
      edges[i].setAttribute('class','edge');
    }
  }
}
]]></script>
        <defs>
                <circle id="rim" cx="0" cy="0" r="7"/>
                <circle id="rim2" cx="0" cy="0" r="3.5"/>
                <g id="zoomPlus">
                        <use xlink:href="#rim" fill="#404040">
                                <set attributeName="fill" to="#808080" begin="zoomplus.mouseover" end="zoomplus.mouseout"/>
                        </use>
                        <path d="M-4,0h8M0,-4v8" fill="none" stroke="white" stroke-width="1.5" pointer-events="none"/>
                </g>
                <g id="zoomMin">
                        <use xlink:href="#rim" fill="#404040">
                                <set attributeName="fill" to="#808080" begin="zoomminus.mouseover" end="zoomminus.mouseout"/>
                        </use>
                        <path d="M-4,0h8" fill="none" stroke="white" stroke-width="1.5" pointer-events="none"/>
                </g>
                <g id="dirArrow">
                        <path fill="none" stroke="white" stroke-width="1.5" d="M0,-3.0v7 M-2.5,-0.5L0,-3.0L2.5,-0.5"/>
                </g>
               <g id="resetDef">
                       <use xlink:href="#rim2" fill="#404040">
                               <set attributeName="fill" to="#808080" begin="reset.mouseover" end="reset.mouseout"/>
                       </use>
               </g>
        </defs>

<script type="text/javascript">
var viewWidth = 676;
var viewHeight = 123;
var sectionId = 'dynsection-29';
</script>
<script xlink:href="svgpan.js"/>
<svg id="graph" class="graph">
<g id="viewport">
<title>TooNetworking_send_signed</title>
<polygon fill="#ffffff" stroke="transparent" points="-4,4 -4,-119 672,-119 672,4 -4,4"/>
<!-- Node245 -->
<g id="node1" class="node">
<title>Node245</title>
<polygon fill="#bfbfbf" stroke="#000000" points="0,-38.5 0,-68.5 109,-68.5 109,-38.5 0,-38.5"/>
<text text-anchor="start" x="8" y="-56.5" font-family="Helvetica,sans-Serif" font-size="10.00" fill="#000000">TooNetworking_send</text>
<text text-anchor="middle" x="54.5" y="-45.5" font-family="Helvetica,sans-Serif" font-size="10.00" fill="#000000">_signed</text>
</g>
<!-- Node246 -->
<g id="node2" class="node">
<title>Node246</title>
<g id="a_node2"><a xlink:href="TooNetworking_8h.html#a59be7e774988f57ab43c4c078c570c67" target="_top" xlink:title="TooNetworking_bufferlist_add">
<polygon fill="#ffffff" stroke="#000000" points="145,-63 145,-82 291,-82 291,-63 145,-63"/>
<text text-anchor="middle" x="218" y="-70" font-family="Helvetica,sans-Serif" font-size="10.00" fill="#000000">TooNetworking_bufferlist_add</text>
</a>
</g>
</g>
<!-- Node245&#45;&gt;Node246 -->
<g id="edge1" class="edge">
<title>Node245&#45;&gt;Node246</title>
<path fill="none" stroke="#191970" d="M119.465,-61.0495C127.8386,-62.0225 136.4576,-63.0241 144.95,-64.011"/>
<polygon fill="#191970" stroke="#191970" points="119.7352,-57.5574 109.398,-59.8796 118.9271,-64.5106 119.7352,-57.5574"/>
</g>
<!-- Node247 -->
<g id="node3" class="node">
<title>Node247</title>
<g id="a_node3"><a xlink:href="TooNetworking_8h.html#a9209f3e1a2fdf0b3b88d49105b8fc359" target="_top" xlink:title="TooNetworking_send\l_signed">
<polygon fill="#ffffff" stroke="#000000" points="327,-22.5 327,-52.5 436,-52.5 436,-22.5 327,-22.5"/>
<text text-anchor="start" x="335" y="-40.5" font-family="Helvetica,sans-Serif" font-size="10.00" fill="#000000">TooNetworking_send</text>
<text text-anchor="middle" x="381.5" y="-29.5" font-family="Helvetica,sans-Serif" font-size="10.00" fill="#000000">_signed</text>
</a>
</g>
</g>
<!-- Node245&#45;&gt;Node247 -->
<g id="edge9" class="edge">
<title>Node245&#45;&gt;Node247</title>
<path fill="none" stroke="#191970" d="M119.4644,-50.3213C180.1602,-47.3515 269.7503,-42.9679 326.8618,-40.1734"/>
<polygon fill="#191970" stroke="#191970" points="119.0494,-46.8373 109.2324,-50.822 119.3916,-53.829 119.0494,-46.8373"/>
</g>
<!-- Node248 -->
<g id="node4" class="node">
<title>Node248</title>
<g id="a_node4"><a xlink:href="TooNetworking_8h.html#a085ff748b00f6be4ebafcae2bb0dded1" target="_top" xlink:title="TooNetworking_bufferlist\l_send_signed">
<polygon fill="#ffffff" stroke="#000000" points="472,-84.5 472,-114.5 597,-114.5 597,-84.5 472,-84.5"/>
<text text-anchor="start" x="480" y="-102.5" font-family="Helvetica,sans-Serif" font-size="10.00" fill="#000000">TooNetworking_bufferlist</text>
<text text-anchor="middle" x="534.5" y="-91.5" font-family="Helvetica,sans-Serif" font-size="10.00" fill="#000000">_send_signed</text>
</a>
</g>
</g>
<!-- Node245&#45;&gt;Node248 -->
<g id="edge10" class="edge">
<title>Node245&#45;&gt;Node248</title>
<path fill="none" stroke="#191970" d="M92.4151,-72.9454C108.2501,-80.1248 127.0998,-87.4834 145,-91.5 258.0161,-116.8593 394.1255,-111.8706 471.8586,-105.7881"/>
<polygon fill="#191970" stroke="#191970" points="93.5214,-69.5989 82.9807,-68.5299 90.5541,-75.9389 93.5214,-69.5989"/>
</g>
<!-- Node250 -->
<g id="node6" class="node">
<title>Node250</title>
<g id="a_node6"><a xlink:href="TooNetworking_8h.html#ab58e06e0eb6f2f8ecbebeaf3c173fb22" target="_top" xlink:title="TooNetworking_bufferlist\l_send_all">
<polygon fill="#ffffff" stroke="#000000" points="472,-.5 472,-30.5 597,-30.5 597,-.5 472,-.5"/>
<text text-anchor="start" x="480" y="-18.5" font-family="Helvetica,sans-Serif" font-size="10.00" fill="#000000">TooNetworking_bufferlist</text>
<text text-anchor="middle" x="534.5" y="-7.5" font-family="Helvetica,sans-Serif" font-size="10.00" fill="#000000">_send_all</text>
</a>
</g>
</g>
<!-- Node245&#45;&gt;Node250 -->
<g id="edge11" class="edge">
<title>Node245&#45;&gt;Node250</title>
<path fill="none" stroke="#191970" d="M119.464,-41.661C128.0423,-40.2015 136.7262,-38.7763 145,-37.5 225.6354,-25.0615 245.5861,-18.8448 327,-13.5 375.3404,-10.3265 387.5581,-13.0083 436,-13.5 447.6303,-13.6181 460.0318,-13.8145 471.9742,-14.0394"/>
<polygon fill="#191970" stroke="#191970" points="118.7332,-38.2353 109.4732,-43.3832 119.9224,-45.1335 118.7332,-38.2353"/>
</g>
<!-- Node246&#45;&gt;Node247 -->
<g id="edge2" class="edge">
<title>Node246&#45;&gt;Node247</title>
<path fill="none" stroke="#191970" d="M249.805,-60.217C271.6565,-54.25 301.2271,-47.6081 326.8118,-42.797"/>
<polygon fill="#191970" stroke="#191970" points="248.7114,-56.8891 240.0503,-62.9912 250.6264,-63.6221 248.7114,-56.8891"/>
</g>
<!-- Node246&#45;&gt;Node248 -->
<g id="edge8" class="edge">
<title>Node246&#45;&gt;Node248</title>
<path fill="none" stroke="#191970" d="M301.144,-79.5929C354.5688,-84.1504 422.8624,-89.9764 471.7419,-94.1462"/>
<polygon fill="#191970" stroke="#191970" points="301.2702,-76.091 291.0089,-78.7282 300.6752,-83.0657 301.2702,-76.091"/>
</g>
<!-- Node247&#45;&gt;Node246 -->
<g id="edge3" class="edge">
<title>Node247&#45;&gt;Node246</title>
<path fill="none" stroke="#191970" d="M329.3674,-54.9997C317.2038,-57.955 304.0287,-60.9009 291.1421,-63.5593"/>
<polygon fill="#191970" stroke="#191970" points="330.4607,-58.3344 339.3183,-52.5211 328.7688,-51.5419 330.4607,-58.3344"/>
</g>
<!-- Node247&#45;&gt;Node247 -->
<g id="edge4" class="edge">
<title>Node247&#45;&gt;Node247</title>
<path fill="none" stroke="#191970" d="M354.4914,-62.9579C357.8436,-67.679 366.8464,-71 381.5,-71 405.5469,-71 414.3766,-62.0566 407.9891,-52.659"/>
<polygon fill="#191970" stroke="#191970" points="358.0026,-62.8226 355.0109,-52.659 351.0115,-62.47 358.0026,-62.8226"/>
</g>
<!-- Node247&#45;&gt;Node248 -->
<g id="edge5" class="edge">
<title>Node247&#45;&gt;Node248</title>
<path fill="none" stroke="#191970" d="M428.0933,-56.3809C450.2762,-65.3701 476.4409,-75.9728 497.2737,-84.4149"/>
<polygon fill="#191970" stroke="#191970" points="429.1195,-53.0204 418.537,-52.5085 426.4905,-59.508 429.1195,-53.0204"/>
</g>
<!-- Node247&#45;&gt;Node250 -->
<g id="edge7" class="edge">
<title>Node247&#45;&gt;Node250</title>
<path fill="none" stroke="#191970" d="M446.4187,-28.1653C454.811,-26.9586 463.3936,-25.7244 471.7499,-24.5229"/>
<polygon fill="#191970" stroke="#191970" points="445.7044,-24.7319 436.3044,-29.6196 446.7007,-31.6606 445.7044,-24.7319"/>
</g>
<!-- Node249 -->
<g id="node5" class="node">
<title>Node249</title>
<g id="a_node5"><a xlink:href="NODE__SKETCH__TooAutomation__Node_8ino_8cpp.html#a0b33edabd7f1c4e4a0bf32c67269be2f" target="_top" xlink:title="loop">
<polygon fill="#ffffff" stroke="#000000" points="633,-90 633,-109 668,-109 668,-90 633,-90"/>
<text text-anchor="middle" x="650.5" y="-97" font-family="Helvetica,sans-Serif" font-size="10.00" fill="#000000">loop</text>
</a>
</g>
</g>
<!-- Node248&#45;&gt;Node249 -->
<g id="edge6" class="edge">
<title>Node248&#45;&gt;Node249</title>
<path fill="none" stroke="#191970" d="M607.5149,-99.5C616.8175,-99.5 625.5667,-99.5 632.7123,-99.5"/>
<polygon fill="#191970" stroke="#191970" points="607.2531,-96.0001 597.2531,-99.5 607.253,-103.0001 607.2531,-96.0001"/>
</g>
</g>
</svg>
        <g id="navigator" transform="translate(0 0)" fill="#404254">
                <rect fill="#f2f5e9" fill-opacity="0.5" stroke="#606060" stroke-width=".5" x="0" y="0" width="60" height="60"/>
                <use id="zoomplus" xlink:href="#zoomPlus" x="17" y="9" onmousedown="handleZoom(evt,'in')"/>
                <use id="zoomminus" xlink:href="#zoomMin" x="42" y="9" onmousedown="handleZoom(evt,'out')"/>
                <use id="reset" xlink:href="#resetDef" x="30" y="36" onmousedown="handleReset()"/>
                <g id="arrowUp" xlink:href="#dirArrow" transform="translate(30 24)" onmousedown="handlePan(0,-1)">
                  <use xlink:href="#rim" fill="#404040">
                        <set attributeName="fill" to="#808080" begin="arrowUp.mouseover" end="arrowUp.mouseout"/>
                  </use>
                  <path fill="none" stroke="white" stroke-width="1.5" d="M0,-3.0v7 M-2.5,-0.5L0,-3.0L2.5,-0.5"/>
                </g>
                <g id="arrowRight" xlink:href="#dirArrow" transform="rotate(90) translate(36 -43)" onmousedown="handlePan(1,0)">
                  <use xlink:href="#rim" fill="#404040">
                        <set attributeName="fill" to="#808080" begin="arrowRight.mouseover" end="arrowRight.mouseout"/>
                  </use>
                  <path fill="none" stroke="white" stroke-width="1.5" d="M0,-3.0v7 M-2.5,-0.5L0,-3.0L2.5,-0.5"/>
                </g>
                <g id="arrowDown" xlink:href="#dirArrow" transform="rotate(180) translate(-30 -48)" onmousedown="handlePan(0,1)">
                  <use xlink:href="#rim" fill="#404040">
                        <set attributeName="fill" to="#808080" begin="arrowDown.mouseover" end="arrowDown.mouseout"/>
                  </use>
                  <path fill="none" stroke="white" stroke-width="1.5" d="M0,-3.0v7 M-2.5,-0.5L0,-3.0L2.5,-0.5"/>
                </g>
                <g id="arrowLeft" xlink:href="#dirArrow" transform="rotate(270) translate(-36 17)" onmousedown="handlePan(-1,0)">
                  <use xlink:href="#rim" fill="#404040">
                        <set attributeName="fill" to="#808080" begin="arrowLeft.mouseover" end="arrowLeft.mouseout"/>
                  </use>
                  <path fill="none" stroke="white" stroke-width="1.5" d="M0,-3.0v7 M-2.5,-0.5L0,-3.0L2.5,-0.5"/>
                </g>
        </g>
        <svg viewBox="0 0 15 15" width="100%" height="30px" preserveAspectRatio="xMaxYMin meet">
         <g id="arrow_out" transform="scale(0.3 0.3)">
          <a xlink:href="TooNetworking_8cpp_a9209f3e1a2fdf0b3b88d49105b8fc359_icgraph_org.svg" target="_base">
           <rect id="button" ry="5" rx="5" y="6" x="6" height="38" width="38"
                fill="#f2f5e9" fill-opacity="0.5" stroke="#606060" stroke-width="1.0"/>
           <path id="arrow"
             d="M 11.500037,31.436501 C 11.940474,20.09759 22.043105,11.32322 32.158766,21.979434 L 37.068811,17.246167 C 37.068811,17.246167 37.088388,32 37.088388,32 L 22.160133,31.978069 C 22.160133,31.978069 26.997745,27.140456 26.997745,27.140456 C 18.528582,18.264221 13.291696,25.230495 11.500037,31.436501 z"
             style="fill:#404040;"/>
          </a>
         </g>
        </svg>
</svg>
