<?xml version="1.0" encoding="UTF-8" standalone="no"?>
<!DOCTYPE svg PUBLIC "-//W3C//DTD SVG 1.1//EN"
 "http://www.w3.org/Graphics/SVG/1.1/DTD/svg11.dtd">
<!-- Generated by graphviz version 2.40.1 (20161225.0304)
 -->
<!-- Title: network Pages: 1 -->
<svg width="204pt" height="66pt"
 viewBox="0.00 0.00 204.00 66.00" xmlns="http://www.w3.org/2000/svg" xmlns:xlink="http://www.w3.org/1999/xlink">
<g id="graph0" class="graph" transform="scale(1 1) rotate(0) translate(4 62)">
<title>network</title>
<polygon fill="#ffffff" stroke="transparent" points="-4,4 -4,-62 200,-62 200,4 -4,4"/>
<!-- Node20 -->
<g id="node1" class="node">
<title>Node20</title>
<polygon fill="#bfbfbf" stroke="#000000" points="0,-19.5 0,-38.5 51,-38.5 51,-19.5 0,-19.5"/>
<text text-anchor="middle" x="25.5" y="-26.5" font-family="Helvetica,sans-Serif" font-size="10.00" fill="#000000">network</text>
</g>
<!-- Node21 -->
<g id="node2" class="node">
<title>Node21</title>
<g id="a_node2"><a xlink:href="TooNetworking_8h.html#ae40e5f0c9496fa804d00c5fe275ade4f" target="_top" xlink:title="TooNetworking_peek">
<polygon fill="#ffffff" stroke="#000000" points="87,-38.5 87,-57.5 196,-57.5 196,-38.5 87,-38.5"/>
<text text-anchor="middle" x="141.5" y="-45.5" font-family="Helvetica,sans-Serif" font-size="10.00" fill="#000000">TooNetworking_peek</text>
</a>
</g>
</g>
<!-- Node20&#45;&gt;Node21 -->
<g id="edge1" class="edge">
<title>Node20&#45;&gt;Node21</title>
<path fill="none" stroke="#191970" d="M61.1284,-34.8357C69.2725,-36.1696 78.1116,-37.6174 86.849,-39.0485"/>
<polygon fill="#191970" stroke="#191970" points="61.6784,-31.3792 51.2442,-33.2167 60.5469,-38.2872 61.6784,-31.3792"/>
</g>
<!-- Node22 -->
<g id="node3" class="node">
<title>Node22</title>
<g id="a_node3"><a xlink:href="TooNetworking_8h.html#a9cd17becc197be8de7befa25116c3a67" target="_top" xlink:title="TooNetworking_read">
<polygon fill="#ffffff" stroke="#000000" points="88,-.5 88,-19.5 195,-19.5 195,-.5 88,-.5"/>
<text text-anchor="middle" x="141.5" y="-7.5" font-family="Helvetica,sans-Serif" font-size="10.00" fill="#000000">TooNetworking_read</text>
</a>
</g>
</g>
<!-- Node20&#45;&gt;Node22 -->
<g id="edge2" class="edge">
<title>Node20&#45;&gt;Node22</title>
<path fill="none" stroke="#191970" d="M61.3898,-23.1215C69.7552,-21.7513 78.8423,-20.2629 87.7923,-18.7969"/>
<polygon fill="#191970" stroke="#191970" points="60.5469,-19.7128 51.2442,-24.7833 61.6784,-26.6208 60.5469,-19.7128"/>
</g>
</g>
</svg>
