<?xml version="1.0" encoding="UTF-8" standalone="no"?>
<!DOCTYPE svg PUBLIC "-//W3C//DTD SVG 1.1//EN"
 "http://www.w3.org/Graphics/SVG/1.1/DTD/svg11.dtd">
<!-- Generated by graphviz version 2.40.1 (20161225.0304)
 -->
<!-- Title: mesh Pages: 1 -->
<svg width="1337pt" height="320pt"
 viewBox="0.00 0.00 1337.00 319.50" xmlns="http://www.w3.org/2000/svg" xmlns:xlink="http://www.w3.org/1999/xlink">
<g id="graph0" class="graph" transform="scale(1 1) rotate(0) translate(4 315.5)">
<title>mesh</title>
<polygon fill="#ffffff" stroke="transparent" points="-4,4 -4,-315.5 1333,-315.5 1333,4 -4,4"/>
<!-- Node1 -->
<g id="node1" class="node">
<title>Node1</title>
<polygon fill="#bfbfbf" stroke="#000000" points="0,-120 0,-139 41,-139 41,-120 0,-120"/>
<text text-anchor="middle" x="20.5" y="-127" font-family="Helvetica,sans-Serif" font-size="10.00" fill="#000000">mesh</text>
</g>
<!-- Node2 -->
<g id="node2" class="node">
<title>Node2</title>
<g id="a_node2"><a xlink:href="TooNetworking_8h.html#aec97902cf0d3ec10fd86927f3d1df0c6" target="_top" xlink:title="TooNetworking_connection\l_begin">
<polygon fill="#ffffff" stroke="#000000" points="77,-248.5 77,-278.5 212,-278.5 212,-248.5 77,-248.5"/>
<text text-anchor="start" x="85" y="-266.5" font-family="Helvetica,sans-Serif" font-size="10.00" fill="#000000">TooNetworking_connection</text>
<text text-anchor="middle" x="144.5" y="-255.5" font-family="Helvetica,sans-Serif" font-size="10.00" fill="#000000">_begin</text>
</a>
</g>
</g>
<!-- Node1&#45;&gt;Node2 -->
<g id="edge1" class="edge">
<title>Node1&#45;&gt;Node2</title>
<path fill="none" stroke="#191970" d="M28.7438,-148.597C38.1691,-168.7821 55.1577,-200.6596 77,-222.5 87.2774,-232.7765 100.6166,-241.5722 112.7199,-248.3514"/>
<polygon fill="#191970" stroke="#191970" points="31.8186,-146.9011 24.5188,-139.2224 25.4368,-149.7774 31.8186,-146.9011"/>
</g>
<!-- Node5 -->
<g id="node5" class="node">
<title>Node5</title>
<g id="a_node5"><a xlink:href="TooNetworking_8h.html#a46674b3fdc9ee370b0839869aa145b75" target="_top" xlink:title="TooNetworking_send">
<polygon fill="#ffffff" stroke="#000000" points="269,-216 269,-235 378,-235 378,-216 269,-216"/>
<text text-anchor="middle" x="323.5" y="-223" font-family="Helvetica,sans-Serif" font-size="10.00" fill="#000000">TooNetworking_send</text>
</a>
</g>
</g>
<!-- Node1&#45;&gt;Node5 -->
<g id="edge4" class="edge">
<title>Node1&#45;&gt;Node5</title>
<path fill="none" stroke="#191970" d="M36.7348,-146.3347C47.2941,-156.3042 61.8738,-168.3471 77,-175.5 138.779,-204.7143 217.146,-216.8956 268.7314,-221.9515"/>
<polygon fill="#191970" stroke="#191970" points="39.0883,-143.7404 29.5013,-139.2304 34.1834,-148.7346 39.0883,-143.7404"/>
</g>
<!-- Node13 -->
<g id="node13" class="node">
<title>Node13</title>
<g id="a_node13"><a xlink:href="TooNetworking_8h.html#ac352268e177fa2ddf91c8afa5cd04bbf" target="_top" xlink:title="TooNetworking_connection\l_available">
<polygon fill="#ffffff" stroke="#000000" points="77,-136.5 77,-166.5 212,-166.5 212,-136.5 77,-136.5"/>
<text text-anchor="start" x="85" y="-154.5" font-family="Helvetica,sans-Serif" font-size="10.00" fill="#000000">TooNetworking_connection</text>
<text text-anchor="middle" x="144.5" y="-143.5" font-family="Helvetica,sans-Serif" font-size="10.00" fill="#000000">_available</text>
</a>
</g>
</g>
<!-- Node1&#45;&gt;Node13 -->
<g id="edge16" class="edge">
<title>Node1&#45;&gt;Node13</title>
<path fill="none" stroke="#191970" d="M51.3244,-134.9688C59.169,-136.3606 67.9136,-137.9121 76.8159,-139.4915"/>
<polygon fill="#191970" stroke="#191970" points="51.7125,-131.4831 41.2548,-133.1823 50.4896,-138.3755 51.7125,-131.4831"/>
</g>
<!-- Node14 -->
<g id="node14" class="node">
<title>Node14</title>
<g id="a_node14"><a xlink:href="TooNetworking_8h.html#a99dc4950018bfd3e63ecb05f58082439" target="_top" xlink:title="TooNetworking_connection_fix">
<polygon fill="#ffffff" stroke="#000000" points="248,-99 248,-118 399,-118 399,-99 248,-99"/>
<text text-anchor="middle" x="323.5" y="-106" font-family="Helvetica,sans-Serif" font-size="10.00" fill="#000000">TooNetworking_connection_fix</text>
</a>
</g>
</g>
<!-- Node1&#45;&gt;Node14 -->
<g id="edge28" class="edge">
<title>Node1&#45;&gt;Node14</title>
<path fill="none" stroke="#191970" d="M51.508,-127.3509C97.2932,-124.1777 184.3894,-118.1413 247.7213,-113.752"/>
<polygon fill="#191970" stroke="#191970" points="51.0605,-123.8735 41.3264,-128.0566 51.5445,-130.8567 51.0605,-123.8735"/>
</g>
<!-- Node19 -->
<g id="node19" class="node">
<title>Node19</title>
<g id="a_node19"><a xlink:href="TooNetworking_8h.html#a7382ba1aed5405c3adc02011ea6c45dd" target="_top" xlink:title="TooNetworking_connection\l_maintenance">
<polygon fill="#ffffff" stroke="#000000" points="1123,-88.5 1123,-118.5 1258,-118.5 1258,-88.5 1123,-88.5"/>
<text text-anchor="start" x="1131" y="-106.5" font-family="Helvetica,sans-Serif" font-size="10.00" fill="#000000">TooNetworking_connection</text>
<text text-anchor="middle" x="1190.5" y="-95.5" font-family="Helvetica,sans-Serif" font-size="10.00" fill="#000000">_maintenance</text>
</a>
</g>
</g>
<!-- Node1&#45;&gt;Node19 -->
<g id="edge29" class="edge">
<title>Node1&#45;&gt;Node19</title>
<path fill="none" stroke="#191970" d="M50.675,-117.7204C104.5655,-97.7753 221.2976,-59.5 323.5,-59.5 323.5,-59.5 323.5,-59.5 849.5,-59.5 955.3928,-59.5 982.4332,-61.7947 1087,-78.5 1102.7897,-81.0225 1119.7257,-84.6946 1135.2305,-88.4514"/>
<polygon fill="#191970" stroke="#191970" points="49.1893,-114.5396 41.0592,-121.3331 51.6513,-121.0924 49.1893,-114.5396"/>
</g>
<!-- Node20 -->
<g id="node20" class="node">
<title>Node20</title>
<g id="a_node20"><a xlink:href="TooNetworking_8h.html#a48504aef69d9ac92e34269a64f7b518b" target="_top" xlink:title="TooNetworking_connection\l_check">
<polygon fill="#ffffff" stroke="#000000" points="77,-.5 77,-30.5 212,-30.5 212,-.5 77,-.5"/>
<text text-anchor="start" x="85" y="-18.5" font-family="Helvetica,sans-Serif" font-size="10.00" fill="#000000">TooNetworking_connection</text>
<text text-anchor="middle" x="144.5" y="-7.5" font-family="Helvetica,sans-Serif" font-size="10.00" fill="#000000">_check</text>
</a>
</g>
</g>
<!-- Node1&#45;&gt;Node20 -->
<g id="edge27" class="edge">
<title>Node1&#45;&gt;Node20</title>
<path fill="none" stroke="#191970" d="M29.2361,-110.6597C38.7128,-91.9849 55.4223,-63.6177 77,-45.5 84.0712,-39.5627 92.5042,-34.592 100.9737,-30.514"/>
<polygon fill="#191970" stroke="#191970" points="25.9625,-109.3879 24.7304,-119.9108 32.2558,-112.453 25.9625,-109.3879"/>
</g>
<!-- Node3 -->
<g id="node3" class="node">
<title>Node3</title>
<g id="a_node3"><a xlink:href="NODE__SKETCH__TooAutomation__Node_8ino_8cpp.html#a7dfd9b79bc5a37d7df40207afbc5431f" target="_top" xlink:title="setup">
<polygon fill="#ffffff" stroke="#000000" points="303,-254 303,-273 344,-273 344,-254 303,-254"/>
<text text-anchor="middle" x="323.5" y="-261" font-family="Helvetica,sans-Serif" font-size="10.00" fill="#000000">setup</text>
</a>
</g>
</g>
<!-- Node2&#45;&gt;Node3 -->
<g id="edge2" class="edge">
<title>Node2&#45;&gt;Node3</title>
<path fill="none" stroke="#191970" d="M222.4975,-263.5C251.9482,-263.5 283.0886,-263.5 302.8763,-263.5"/>
<polygon fill="#191970" stroke="#191970" points="222.1723,-260.0001 212.1722,-263.5 222.1722,-267.0001 222.1723,-260.0001"/>
</g>
<!-- Node4 -->
<g id="node4" class="node">
<title>Node4</title>
<g id="a_node4"><a xlink:href="TooNetworking_8h.html#a2676204dee95da1ef337de95eb0e9bcb" target="_top" xlink:title="TooNetworking_begin">
<polygon fill="#ffffff" stroke="#000000" points="268,-292 268,-311 379,-311 379,-292 268,-292"/>
<text text-anchor="middle" x="323.5" y="-299" font-family="Helvetica,sans-Serif" font-size="10.00" fill="#000000">TooNetworking_begin</text>
</a>
</g>
</g>
<!-- Node2&#45;&gt;Node4 -->
<g id="edge3" class="edge">
<title>Node2&#45;&gt;Node4</title>
<path fill="none" stroke="#191970" d="M222.1543,-279.9853C241.4097,-284.073 261.4096,-288.3188 278.5041,-291.9478"/>
<polygon fill="#191970" stroke="#191970" points="222.6811,-276.5192 212.1722,-277.8662 221.2274,-283.3666 222.6811,-276.5192"/>
</g>
<!-- Node6 -->
<g id="node6" class="node">
<title>Node6</title>
<g id="a_node6"><a xlink:href="TooNetworking_8h.html#a0ad03a7efb42cf40ca3e20fb5df3a5db" target="_top" xlink:title="TooNetworking_bufferlist\l_send_">
<polygon fill="#ffffff" stroke="#000000" points="439.5,-214.5 439.5,-244.5 564.5,-244.5 564.5,-214.5 439.5,-214.5"/>
<text text-anchor="start" x="447.5" y="-232.5" font-family="Helvetica,sans-Serif" font-size="10.00" fill="#000000">TooNetworking_bufferlist</text>
<text text-anchor="middle" x="502" y="-221.5" font-family="Helvetica,sans-Serif" font-size="10.00" fill="#000000">_send_</text>
</a>
</g>
</g>
<!-- Node5&#45;&gt;Node6 -->
<g id="edge5" class="edge">
<title>Node5&#45;&gt;Node6</title>
<path fill="none" stroke="#191970" d="M388.2235,-226.9504C404.8957,-227.324 422.8058,-227.7253 439.3695,-228.0965"/>
<polygon fill="#191970" stroke="#191970" points="388.1017,-223.4469 378.0258,-226.7219 387.9448,-230.4451 388.1017,-223.4469"/>
</g>
<!-- Node12 -->
<g id="node12" class="node">
<title>Node12</title>
<g id="a_node12"><a xlink:href="TooNetworking_8h.html#a9f893c3218491ee86282fdcd9f376500" target="_top" xlink:title="TooNetworking_send\l_signed_">
<polygon fill="#ffffff" stroke="#000000" points="447.5,-165.5 447.5,-195.5 556.5,-195.5 556.5,-165.5 447.5,-165.5"/>
<text text-anchor="start" x="455.5" y="-183.5" font-family="Helvetica,sans-Serif" font-size="10.00" fill="#000000">TooNetworking_send</text>
<text text-anchor="middle" x="502" y="-172.5" font-family="Helvetica,sans-Serif" font-size="10.00" fill="#000000">_signed_</text>
</a>
</g>
</g>
<!-- Node5&#45;&gt;Node12 -->
<g id="edge11" class="edge">
<title>Node5&#45;&gt;Node12</title>
<path fill="none" stroke="#191970" d="M371.0746,-213.5064C394.5212,-207.5955 422.9162,-200.4371 447.2615,-194.2996"/>
<polygon fill="#191970" stroke="#191970" points="370.1963,-210.1182 361.3553,-215.9567 371.9075,-216.9059 370.1963,-210.1182"/>
</g>
<!-- Node7 -->
<g id="node7" class="node">
<title>Node7</title>
<g id="a_node7"><a xlink:href="TooNetworking_8h.html#a59be7e774988f57ab43c4c078c570c67" target="_top" xlink:title="TooNetworking_bufferlist_add">
<polygon fill="#ffffff" stroke="#000000" points="605,-264 605,-283 751,-283 751,-264 605,-264"/>
<text text-anchor="middle" x="678" y="-271" font-family="Helvetica,sans-Serif" font-size="10.00" fill="#000000">TooNetworking_bufferlist_add</text>
</a>
</g>
</g>
<!-- Node6&#45;&gt;Node7 -->
<g id="edge6" class="edge">
<title>Node6&#45;&gt;Node7</title>
<path fill="none" stroke="#191970" d="M571.8962,-246.9741C595.1053,-252.7763 620.0704,-259.0176 639.9503,-263.9876"/>
<polygon fill="#191970" stroke="#191970" points="572.6273,-243.5492 562.077,-244.5192 570.9295,-250.3402 572.6273,-243.5492"/>
</g>
<!-- Node11 -->
<g id="node11" class="node">
<title>Node11</title>
<g id="a_node11"><a xlink:href="TooNetworking_8h.html#ab58e06e0eb6f2f8ecbebeaf3c173fb22" target="_top" xlink:title="TooNetworking_bufferlist\l_send_all">
<polygon fill="#ffffff" stroke="#000000" points="615.5,-214.5 615.5,-244.5 740.5,-244.5 740.5,-214.5 615.5,-214.5"/>
<text text-anchor="start" x="623.5" y="-232.5" font-family="Helvetica,sans-Serif" font-size="10.00" fill="#000000">TooNetworking_bufferlist</text>
<text text-anchor="middle" x="678" y="-221.5" font-family="Helvetica,sans-Serif" font-size="10.00" fill="#000000">_send_all</text>
</a>
</g>
</g>
<!-- Node6&#45;&gt;Node11 -->
<g id="edge10" class="edge">
<title>Node6&#45;&gt;Node11</title>
<path fill="none" stroke="#191970" d="M574.7412,-229.5C588.227,-229.5 602.2059,-229.5 615.3585,-229.5"/>
<polygon fill="#191970" stroke="#191970" points="574.5466,-226.0001 564.5466,-229.5 574.5465,-233.0001 574.5466,-226.0001"/>
</g>
<!-- Node8 -->
<g id="node8" class="node">
<title>Node8</title>
<g id="a_node8"><a xlink:href="TooNetworking_8h.html#a9209f3e1a2fdf0b3b88d49105b8fc359" target="_top" xlink:title="TooNetworking_send\l_signed">
<polygon fill="#ffffff" stroke="#000000" points="795,-222.5 795,-252.5 904,-252.5 904,-222.5 795,-222.5"/>
<text text-anchor="start" x="803" y="-240.5" font-family="Helvetica,sans-Serif" font-size="10.00" fill="#000000">TooNetworking_send</text>
<text text-anchor="middle" x="849.5" y="-229.5" font-family="Helvetica,sans-Serif" font-size="10.00" fill="#000000">_signed</text>
</a>
</g>
</g>
<!-- Node7&#45;&gt;Node8 -->
<g id="edge7" class="edge">
<title>Node7&#45;&gt;Node8</title>
<path fill="none" stroke="#191970" d="M733.5486,-261.8396C753.2219,-257.71 775.3267,-253.0699 794.9187,-248.9573"/>
<polygon fill="#191970" stroke="#191970" points="732.5763,-258.4674 723.5086,-263.9472 734.0144,-265.3181 732.5763,-258.4674"/>
</g>
<!-- Node9 -->
<g id="node9" class="node">
<title>Node9</title>
<g id="a_node9"><a xlink:href="TooNetworking_8h.html#a085ff748b00f6be4ebafcae2bb0dded1" target="_top" xlink:title="TooNetworking_bufferlist\l_send_signed">
<polygon fill="#ffffff" stroke="#000000" points="787,-137.5 787,-167.5 912,-167.5 912,-137.5 787,-137.5"/>
<text text-anchor="start" x="795" y="-155.5" font-family="Helvetica,sans-Serif" font-size="10.00" fill="#000000">TooNetworking_bufferlist</text>
<text text-anchor="middle" x="849.5" y="-144.5" font-family="Helvetica,sans-Serif" font-size="10.00" fill="#000000">_send_signed</text>
</a>
</g>
</g>
<!-- Node7&#45;&gt;Node9 -->
<g id="edge8" class="edge">
<title>Node7&#45;&gt;Node9</title>
<path fill="none" stroke="#191970" d="M740.1777,-260.1442C743.9441,-258.4776 747.586,-256.6046 751,-254.5 771.6426,-241.7747 770.3106,-231.093 787,-213.5 802.2352,-197.44 820.4213,-179.8578 833.237,-167.7133"/>
<polygon fill="#191970" stroke="#191970" points="738.6603,-256.9793 730.6179,-263.8764 741.206,-263.5 738.6603,-256.9793"/>
</g>
<!-- Node10 -->
<g id="node10" class="node">
<title>Node10</title>
<g id="a_node10"><a xlink:href="NODE__SKETCH__TooAutomation__Node_8ino_8cpp.html#a0b33edabd7f1c4e4a0bf32c67269be2f" target="_top" xlink:title="loop">
<polygon fill="#ffffff" stroke="#000000" points="1294,-116 1294,-135 1329,-135 1329,-116 1294,-116"/>
<text text-anchor="middle" x="1311.5" y="-123" font-family="Helvetica,sans-Serif" font-size="10.00" fill="#000000">loop</text>
</a>
</g>
</g>
<!-- Node9&#45;&gt;Node10 -->
<g id="edge9" class="edge">
<title>Node9&#45;&gt;Node10</title>
<path fill="none" stroke="#191970" d="M922.2953,-148.2457C1032.0856,-141.8294 1233.6387,-130.0503 1293.9827,-126.5237"/>
<polygon fill="#191970" stroke="#191970" points="922.0669,-144.753 912.2882,-148.8306 922.4754,-151.7411 922.0669,-144.753"/>
</g>
<!-- Node12&#45;&gt;Node7 -->
<g id="edge12" class="edge">
<title>Node12&#45;&gt;Node7</title>
<path fill="none" stroke="#191970" d="M561.2566,-200.3181C563.9547,-201.9258 566.5532,-203.6509 569,-205.5 590.5595,-221.7929 582.634,-239.3331 605,-254.5 610.7445,-258.3955 617.2394,-261.4924 623.9277,-263.9544"/>
<polygon fill="#191970" stroke="#191970" points="562.8347,-197.1932 552.3642,-195.5747 559.5401,-203.3694 562.8347,-197.1932"/>
</g>
<!-- Node12&#45;&gt;Node8 -->
<g id="edge13" class="edge">
<title>Node12&#45;&gt;Node8</title>
<path fill="none" stroke="#191970" d="M567.0609,-183.2181C617.6439,-186.2459 689.3445,-192.5459 751,-205.5 770.7079,-209.6407 792.0249,-216.2833 809.7708,-222.4461"/>
<polygon fill="#191970" stroke="#191970" points="567.1008,-179.7147 556.9172,-182.6377 566.7009,-186.7033 567.1008,-179.7147"/>
</g>
<!-- Node12&#45;&gt;Node9 -->
<g id="edge14" class="edge">
<title>Node12&#45;&gt;Node9</title>
<path fill="none" stroke="#191970" d="M566.5859,-174.7608C579.3171,-173.6566 592.5782,-172.5253 605,-171.5 666.844,-166.3953 737.5211,-160.9444 786.9269,-157.1962"/>
<polygon fill="#191970" stroke="#191970" points="566.1741,-171.2834 556.5156,-175.6381 566.7816,-178.257 566.1741,-171.2834"/>
</g>
<!-- Node12&#45;&gt;Node11 -->
<g id="edge15" class="edge">
<title>Node12&#45;&gt;Node11</title>
<path fill="none" stroke="#191970" d="M566.011,-198.3212C585.0137,-203.6118 605.6322,-209.3522 623.9372,-214.4484"/>
<polygon fill="#191970" stroke="#191970" points="566.8143,-194.9118 556.2419,-195.6014 564.9368,-201.6554 566.8143,-194.9118"/>
</g>
<!-- Node13&#45;&gt;Node6 -->
<g id="edge17" class="edge">
<title>Node13&#45;&gt;Node6</title>
<path fill="none" stroke="#191970" d="M221.9014,-168.0831C272.3502,-178.9272 339.6031,-193.4503 399,-206.5 412.0637,-209.3701 426.0524,-212.4736 439.3763,-215.444"/>
<polygon fill="#191970" stroke="#191970" points="222.5552,-164.6438 212.043,-165.9649 221.0846,-171.4876 222.5552,-164.6438"/>
</g>
<!-- Node13&#45;&gt;Node12 -->
<g id="edge26" class="edge">
<title>Node13&#45;&gt;Node12</title>
<path fill="none" stroke="#191970" d="M222.4031,-157.8194C290.4385,-163.3384 387.4448,-171.2074 447.4748,-176.077"/>
<polygon fill="#191970" stroke="#191970" points="222.4136,-154.3089 212.1633,-156.9888 221.8475,-161.2859 222.4136,-154.3089"/>
</g>
<!-- Node13&#45;&gt;Node14 -->
<g id="edge18" class="edge">
<title>Node13&#45;&gt;Node14</title>
<path fill="none" stroke="#191970" d="M217.1095,-134.0575C239.9137,-128.5794 264.2359,-122.7366 283.8609,-118.0223"/>
<polygon fill="#191970" stroke="#191970" points="216.0113,-130.7216 207.1055,-136.4607 217.6464,-137.528 216.0113,-130.7216"/>
</g>
<!-- Node14&#45;&gt;Node12 -->
<g id="edge19" class="edge">
<title>Node14&#45;&gt;Node12</title>
<path fill="none" stroke="#191970" d="M361.4216,-121.4898C373.4979,-125.7788 386.8692,-130.6875 399,-135.5 422.5805,-144.8548 448.773,-156.3129 468.8439,-165.3258"/>
<polygon fill="#191970" stroke="#191970" points="362.2325,-118.0649 351.6377,-118.0484 359.9098,-124.6683 362.2325,-118.0649"/>
</g>
<!-- Node15 -->
<g id="node15" class="node">
<title>Node15</title>
<g id="a_node15"><a xlink:href="TooSigning_8h.html#abf99e5d9b5ec252bfff3bf26c0ba9e37" target="_top" xlink:title="TooSigning_connection_fix">
<polygon fill="#ffffff" stroke="#000000" points="435,-96 435,-115 569,-115 569,-96 435,-96"/>
<text text-anchor="middle" x="502" y="-103" font-family="Helvetica,sans-Serif" font-size="10.00" fill="#000000">TooSigning_connection_fix</text>
</a>
</g>
</g>
<!-- Node14&#45;&gt;Node15 -->
<g id="edge20" class="edge">
<title>Node14&#45;&gt;Node15</title>
<path fill="none" stroke="#191970" d="M409.2802,-107.0583C417.9003,-106.9134 426.5636,-106.7678 434.9479,-106.6269"/>
<polygon fill="#191970" stroke="#191970" points="409.1398,-103.5601 399.2001,-107.2277 409.2575,-110.5591 409.1398,-103.5601"/>
</g>
<!-- Node16 -->
<g id="node16" class="node">
<title>Node16</title>
<g id="a_node16"><a xlink:href="TooSigning_8h.html#a58143364a83636a3d2df075a95cb2bfc" target="_top" xlink:title="TooSigning_request\l_nonce_from_node_id">
<polygon fill="#ffffff" stroke="#000000" points="622,-88.5 622,-118.5 734,-118.5 734,-88.5 622,-88.5"/>
<text text-anchor="start" x="630" y="-106.5" font-family="Helvetica,sans-Serif" font-size="10.00" fill="#000000">TooSigning_request</text>
<text text-anchor="middle" x="678" y="-95.5" font-family="Helvetica,sans-Serif" font-size="10.00" fill="#000000">_nonce_from_node_id</text>
</a>
</g>
</g>
<!-- Node15&#45;&gt;Node16 -->
<g id="edge21" class="edge">
<title>Node15&#45;&gt;Node16</title>
<path fill="none" stroke="#191970" d="M579.3396,-104.6211C593.6064,-104.459 608.2525,-104.2926 621.7482,-104.1392"/>
<polygon fill="#191970" stroke="#191970" points="578.9997,-101.1247 569.0401,-104.7382 579.0793,-108.1242 578.9997,-101.1247"/>
</g>
<!-- Node17 -->
<g id="node17" class="node">
<title>Node17</title>
<g id="a_node17"><a xlink:href="TooSigning_8h.html#af7ec4002cf8cf81195f3745703e04b22" target="_top" xlink:title="TooSigning_requested\l_noncelist_retry_all">
<polygon fill="#ffffff" stroke="#000000" points="793,-88.5 793,-118.5 906,-118.5 906,-88.5 793,-88.5"/>
<text text-anchor="start" x="801" y="-106.5" font-family="Helvetica,sans-Serif" font-size="10.00" fill="#000000">TooSigning_requested</text>
<text text-anchor="middle" x="849.5" y="-95.5" font-family="Helvetica,sans-Serif" font-size="10.00" fill="#000000">_noncelist_retry_all</text>
</a>
</g>
</g>
<!-- Node16&#45;&gt;Node17 -->
<g id="edge22" class="edge">
<title>Node16&#45;&gt;Node17</title>
<path fill="none" stroke="#191970" d="M744.5046,-103.5C760.4977,-103.5 777.4326,-103.5 792.9249,-103.5"/>
<polygon fill="#191970" stroke="#191970" points="744.1555,-100.0001 734.1555,-103.5 744.1555,-107.0001 744.1555,-100.0001"/>
</g>
<!-- Node18 -->
<g id="node18" class="node">
<title>Node18</title>
<g id="a_node18"><a xlink:href="TooSigning_8h.html#af68b8dda897cf488129c205ad532ca9e" target="_top" xlink:title="TooSigning_signed_network\l_update">
<polygon fill="#ffffff" stroke="#000000" points="948,-88.5 948,-118.5 1087,-118.5 1087,-88.5 948,-88.5"/>
<text text-anchor="start" x="956" y="-106.5" font-family="Helvetica,sans-Serif" font-size="10.00" fill="#000000">TooSigning_signed_network</text>
<text text-anchor="middle" x="1017.5" y="-95.5" font-family="Helvetica,sans-Serif" font-size="10.00" fill="#000000">_update</text>
</a>
</g>
</g>
<!-- Node17&#45;&gt;Node18 -->
<g id="edge23" class="edge">
<title>Node17&#45;&gt;Node18</title>
<path fill="none" stroke="#191970" d="M916.5393,-103.5C926.8442,-103.5 937.5044,-103.5 947.8642,-103.5"/>
<polygon fill="#191970" stroke="#191970" points="916.3772,-100.0001 906.3771,-103.5 916.3771,-107.0001 916.3772,-100.0001"/>
</g>
<!-- Node18&#45;&gt;Node19 -->
<g id="edge24" class="edge">
<title>Node18&#45;&gt;Node19</title>
<path fill="none" stroke="#191970" d="M1097.6166,-103.5C1106.0706,-103.5 1114.6064,-103.5 1122.8985,-103.5"/>
<polygon fill="#191970" stroke="#191970" points="1097.3671,-100.0001 1087.3671,-103.5 1097.367,-107.0001 1097.3671,-100.0001"/>
</g>
<!-- Node19&#45;&gt;Node10 -->
<g id="edge25" class="edge">
<title>Node19&#45;&gt;Node10</title>
<path fill="none" stroke="#191970" d="M1268.1566,-117.6194C1277.6588,-119.347 1286.5454,-120.9628 1293.7679,-122.276"/>
<polygon fill="#191970" stroke="#191970" points="1268.5402,-114.1318 1258.0754,-115.7864 1267.288,-121.0189 1268.5402,-114.1318"/>
</g>
</g>
</svg>
