<?xml version="1.0" encoding="UTF-8" standalone="no"?>
<!DOCTYPE svg PUBLIC "-//W3C//DTD SVG 1.1//EN"
 "http://www.w3.org/Graphics/SVG/1.1/DTD/svg11.dtd">
<!-- Generated by graphviz version 2.40.1 (20161225.0304)
 -->
<!-- Title: TooNetworking_bufferlist_send_signed Pages: 1 -->
<svg width="1590pt" height="640pt"
 viewBox="0.00 0.00 1590.00 639.50" xmlns="http://www.w3.org/2000/svg" xmlns:xlink="http://www.w3.org/1999/xlink">
<g id="graph0" class="graph" transform="scale(1 1) rotate(0) translate(4 635.5)">
<title>TooNetworking_bufferlist_send_signed</title>
<polygon fill="#ffffff" stroke="transparent" points="-4,4 -4,-635.5 1586,-635.5 1586,4 -4,4"/>
<!-- Node96 -->
<g id="node1" class="node">
<title>Node96</title>
<polygon fill="#bfbfbf" stroke="#000000" points="0,-185.5 0,-215.5 125,-215.5 125,-185.5 0,-185.5"/>
<text text-anchor="start" x="8" y="-203.5" font-family="Helvetica,sans-Serif" font-size="10.00" fill="#000000">TooNetworking_bufferlist</text>
<text text-anchor="middle" x="62.5" y="-192.5" font-family="Helvetica,sans-Serif" font-size="10.00" fill="#000000">_send_signed</text>
</g>
<!-- Node97 -->
<g id="node2" class="node">
<title>Node97</title>
<g id="a_node2"><a xlink:href="TooSigning_8cpp.html#a729dc41cfb692fb0aea083c38c5f3577" target="_top" xlink:title="TooSigning_received\l_noncelist_find_from_ID">
<polygon fill="#ffffff" stroke="#000000" points="344.5,-324.5 344.5,-354.5 466.5,-354.5 466.5,-324.5 344.5,-324.5"/>
<text text-anchor="start" x="352.5" y="-342.5" font-family="Helvetica,sans-Serif" font-size="10.00" fill="#000000">TooSigning_received</text>
<text text-anchor="middle" x="405.5" y="-331.5" font-family="Helvetica,sans-Serif" font-size="10.00" fill="#000000">_noncelist_find_from_ID</text>
</a>
</g>
</g>
<!-- Node96&#45;&gt;Node97 -->
<g id="edge1" class="edge">
<title>Node96&#45;&gt;Node97</title>
<path fill="none" stroke="#191970" d="M83.9799,-215.6229C103.4064,-228.7957 133.1506,-247.7339 161,-260.5 218.1202,-286.6837 286.4053,-307.9709 336.2753,-321.8227"/>
<polygon fill="#191970" stroke="#191970" points="335.4251,-325.2187 345.995,-324.4932 337.2796,-318.4688 335.4251,-325.2187"/>
</g>
<!-- Node98 -->
<g id="node3" class="node">
<title>Node98</title>
<g id="a_node3"><a xlink:href="group__TOOSIGNING__DEBUGGING.html#ga974dd51d29b9bd928de51c481289aad7" target="_top" xlink:title="TooSigning_random_data\l_print">
<polygon fill="#ffffff" stroke="#000000" points="516,-147.5 516,-177.5 643,-177.5 643,-147.5 516,-147.5"/>
<text text-anchor="start" x="524" y="-165.5" font-family="Helvetica,sans-Serif" font-size="10.00" fill="#000000">TooSigning_random_data</text>
<text text-anchor="middle" x="579.5" y="-154.5" font-family="Helvetica,sans-Serif" font-size="10.00" fill="#000000">_print</text>
</a>
</g>
</g>
<!-- Node96&#45;&gt;Node98 -->
<g id="edge2" class="edge">
<title>Node96&#45;&gt;Node98</title>
<path fill="none" stroke="#191970" d="M125.1197,-195.8974C220.8965,-188.8577 403.3859,-175.4446 505.5404,-167.9361"/>
<polygon fill="#191970" stroke="#191970" points="506.0579,-171.4076 515.7744,-167.1839 505.5447,-164.4264 506.0579,-171.4076"/>
</g>
<!-- Node99 -->
<g id="node4" class="node">
<title>Node99</title>
<g id="a_node4"><a xlink:href="TooNetworking_8cpp.html#a9f893c3218491ee86282fdcd9f376500" target="_top" xlink:title="TooNetworking_send\l_signed_">
<polygon fill="#ffffff" stroke="#000000" points="351,-388.5 351,-418.5 460,-418.5 460,-388.5 351,-388.5"/>
<text text-anchor="start" x="359" y="-406.5" font-family="Helvetica,sans-Serif" font-size="10.00" fill="#000000">TooNetworking_send</text>
<text text-anchor="middle" x="405.5" y="-395.5" font-family="Helvetica,sans-Serif" font-size="10.00" fill="#000000">_signed_</text>
</a>
</g>
</g>
<!-- Node96&#45;&gt;Node99 -->
<g id="edge3" class="edge">
<title>Node96&#45;&gt;Node99</title>
<path fill="none" stroke="#191970" d="M74.0742,-215.5546C91.124,-236.8834 124.8962,-276.0205 161,-300.5 218.3046,-339.3544 292.608,-368.0912 344.1922,-385.1964"/>
<polygon fill="#191970" stroke="#191970" points="343.2796,-388.5802 353.8722,-388.3583 345.4532,-381.9262 343.2796,-388.5802"/>
</g>
<!-- Node119 -->
<g id="node24" class="node">
<title>Node119</title>
<g id="a_node24"><a xlink:href="TooSigning_8cpp.html#a53b55547df3d4276f3ca6a74d601549a" target="_top" xlink:title="TooSigning_requested\l_noncelist_add">
<polygon fill="#ffffff" stroke="#000000" points="349,-98.5 349,-128.5 462,-128.5 462,-98.5 349,-98.5"/>
<text text-anchor="start" x="357" y="-116.5" font-family="Helvetica,sans-Serif" font-size="10.00" fill="#000000">TooSigning_requested</text>
<text text-anchor="middle" x="405.5" y="-105.5" font-family="Helvetica,sans-Serif" font-size="10.00" fill="#000000">_noncelist_add</text>
</a>
</g>
</g>
<!-- Node96&#45;&gt;Node119 -->
<g id="edge32" class="edge">
<title>Node96&#45;&gt;Node119</title>
<path fill="none" stroke="#191970" d="M84.0677,-185.2762C103.3119,-172.4916 132.7378,-154.8562 161,-145.5 219.1727,-126.2419 288.7312,-118.5153 338.7564,-115.4456"/>
<polygon fill="#191970" stroke="#191970" points="339.0218,-118.9363 348.8074,-114.8752 338.6251,-111.9475 339.0218,-118.9363"/>
</g>
<!-- Node123 -->
<g id="node28" class="node">
<title>Node123</title>
<g id="a_node28"><a xlink:href="TooNetworking_8cpp.html#aa8040740e6ffca2f68beb7f8e57d63fc" target="_top" xlink:title="TooNetworking_bufferlist_add">
<polygon fill="#ffffff" stroke="#000000" points="161,-232 161,-251 307,-251 307,-232 161,-232"/>
<text text-anchor="middle" x="234" y="-239" font-family="Helvetica,sans-Serif" font-size="10.00" fill="#000000">TooNetworking_bufferlist_add</text>
</a>
</g>
</g>
<!-- Node96&#45;&gt;Node123 -->
<g id="edge36" class="edge">
<title>Node96&#45;&gt;Node123</title>
<path fill="none" stroke="#191970" d="M125.3864,-215.5341C144.745,-220.1621 165.7806,-225.191 184.1386,-229.5798"/>
<polygon fill="#191970" stroke="#191970" points="183.4946,-233.0244 194.0343,-231.9455 185.1222,-226.2162 183.4946,-233.0244"/>
</g>
<!-- Node127 -->
<g id="node32" class="node">
<title>Node127</title>
<g id="a_node32"><a xlink:href="TooNetworking_8cpp.html#a86fb32acfc42a498be62a3236c778454" target="_top" xlink:title="TooNetworking_send\l_encrypted">
<polygon fill="#ffffff" stroke="#000000" points="179.5,-62.5 179.5,-92.5 288.5,-92.5 288.5,-62.5 179.5,-62.5"/>
<text text-anchor="start" x="187.5" y="-80.5" font-family="Helvetica,sans-Serif" font-size="10.00" fill="#000000">TooNetworking_send</text>
<text text-anchor="middle" x="234" y="-69.5" font-family="Helvetica,sans-Serif" font-size="10.00" fill="#000000">_encrypted</text>
</a>
</g>
</g>
<!-- Node96&#45;&gt;Node127 -->
<g id="edge47" class="edge">
<title>Node96&#45;&gt;Node127</title>
<path fill="none" stroke="#191970" d="M75.4583,-185.1651C93.0902,-165.0859 126.423,-129.8242 161,-107.5 167.0938,-103.5656 173.7889,-99.9756 180.5761,-96.7557"/>
<polygon fill="#191970" stroke="#191970" points="182.151,-99.8852 189.8405,-92.5968 179.2842,-93.4992 182.151,-99.8852"/>
</g>
<!-- Node99&#45;&gt;Node98 -->
<g id="edge7" class="edge">
<title>Node99&#45;&gt;Node98</title>
<path fill="none" stroke="#191970" d="M440.3525,-388.4742C450.6852,-382.4302 461.077,-374.4852 468,-364.5 513.9884,-298.1703 450.0977,-246.5759 504,-186.5 505.1683,-185.1979 506.4068,-183.966 507.7057,-182.8005"/>
<polygon fill="#191970" stroke="#191970" points="509.8034,-185.6023 515.737,-176.8249 505.6248,-179.9863 509.8034,-185.6023"/>
</g>
<!-- Node100 -->
<g id="node5" class="node">
<title>Node100</title>
<g id="a_node5"><a xlink:href="TooNetworking_8cpp.html#ac352268e177fa2ddf91c8afa5cd04bbf" target="_top" xlink:title="TooNetworking_connection\l_available">
<polygon fill="#ffffff" stroke="#000000" points="691,-366.5 691,-396.5 826,-396.5 826,-366.5 691,-366.5"/>
<text text-anchor="start" x="699" y="-384.5" font-family="Helvetica,sans-Serif" font-size="10.00" fill="#000000">TooNetworking_connection</text>
<text text-anchor="middle" x="758.5" y="-373.5" font-family="Helvetica,sans-Serif" font-size="10.00" fill="#000000">_available</text>
</a>
</g>
</g>
<!-- Node99&#45;&gt;Node100 -->
<g id="edge4" class="edge">
<title>Node99&#45;&gt;Node100</title>
<path fill="none" stroke="#191970" d="M460.2689,-400.0866C519.3967,-396.4016 614.0614,-390.5018 680.8517,-386.3393"/>
<polygon fill="#191970" stroke="#191970" points="681.1458,-389.8278 690.9087,-385.7125 680.7103,-382.8414 681.1458,-389.8278"/>
</g>
<!-- Node102 -->
<g id="node7" class="node">
<title>Node102</title>
<g id="a_node7"><a xlink:href="TooNetworking_8cpp.html#af4808c2c0857cde9a6721ad54f5ab42d" target="_top" xlink:title="TooNetworking_other\l_node_is_online">
<polygon fill="#ffffff" stroke="#000000" points="524.5,-284.5 524.5,-314.5 634.5,-314.5 634.5,-284.5 524.5,-284.5"/>
<text text-anchor="start" x="532.5" y="-302.5" font-family="Helvetica,sans-Serif" font-size="10.00" fill="#000000">TooNetworking_other</text>
<text text-anchor="middle" x="579.5" y="-291.5" font-family="Helvetica,sans-Serif" font-size="10.00" fill="#000000">_node_is_online</text>
</a>
</g>
</g>
<!-- Node99&#45;&gt;Node102 -->
<g id="edge6" class="edge">
<title>Node99&#45;&gt;Node102</title>
<path fill="none" stroke="#191970" d="M433.403,-388.3675C444.6395,-381.7049 457.4168,-373.3768 468,-364.5 486.325,-349.1298 483.9791,-337.5848 504,-324.5 507.5107,-322.2055 511.2513,-320.1036 515.1177,-318.1808"/>
<polygon fill="#191970" stroke="#191970" points="516.6538,-321.3274 524.3187,-314.0131 513.7655,-314.951 516.6538,-321.3274"/>
</g>
<!-- Node103 -->
<g id="node8" class="node">
<title>Node103</title>
<g id="a_node8"><a xlink:href="TooSigning_8cpp.html#a3994a32f8b2275d51b6832644f703bc7" target="_top" xlink:title="TooSigning_read_hmac\l_from_progmem">
<polygon fill="#ffffff" stroke="#000000" points="520,-562.5 520,-592.5 639,-592.5 639,-562.5 520,-562.5"/>
<text text-anchor="start" x="528" y="-580.5" font-family="Helvetica,sans-Serif" font-size="10.00" fill="#000000">TooSigning_read_hmac</text>
<text text-anchor="middle" x="579.5" y="-569.5" font-family="Helvetica,sans-Serif" font-size="10.00" fill="#000000">_from_progmem</text>
</a>
</g>
</g>
<!-- Node99&#45;&gt;Node103 -->
<g id="edge8" class="edge">
<title>Node99&#45;&gt;Node103</title>
<path fill="none" stroke="#191970" d="M411.4332,-418.5884C423.9643,-448.5345 455.98,-515.7505 504,-552.5 506.4431,-554.3697 509.0329,-556.1034 511.7253,-557.7104"/>
<polygon fill="#191970" stroke="#191970" points="510.1446,-560.8338 520.6194,-562.424 513.4225,-554.6487 510.1446,-560.8338"/>
</g>
<!-- Node104 -->
<g id="node9" class="node">
<title>Node104</title>
<g id="a_node9"><a xlink:href="TooSigning_8cpp.html#a1e2cd2b37702263e1fe166395350bf08" target="_top" xlink:title="TooSigning_init_hmac">
<polygon fill="#ffffff" stroke="#000000" points="523,-612 523,-631 636,-631 636,-612 523,-612"/>
<text text-anchor="middle" x="579.5" y="-619" font-family="Helvetica,sans-Serif" font-size="10.00" fill="#000000">TooSigning_init_hmac</text>
</a>
</g>
</g>
<!-- Node99&#45;&gt;Node104 -->
<g id="edge9" class="edge">
<title>Node99&#45;&gt;Node104</title>
<path fill="none" stroke="#191970" d="M408.4653,-418.6844C416.587,-456.073 442.7949,-553.1214 504,-602.5 506.9619,-604.8896 510.1856,-606.9834 513.5777,-608.8176"/>
<polygon fill="#191970" stroke="#191970" points="512.3374,-612.0993 522.8857,-613.0911 515.2582,-605.7378 512.3374,-612.0993"/>
</g>
<!-- Node113 -->
<g id="node18" class="node">
<title>Node113</title>
<g id="a_node18"><a xlink:href="group__TOOSIGNING__HASHING.html#gafb2935303b05255e80a7a6fa4be7cf57" target="_top" xlink:title="TooSigning_hash_data">
<polygon fill="#ffffff" stroke="#000000" points="700.5,-486 700.5,-505 816.5,-505 816.5,-486 700.5,-486"/>
<text text-anchor="middle" x="758.5" y="-493" font-family="Helvetica,sans-Serif" font-size="10.00" fill="#000000">TooSigning_hash_data</text>
</a>
</g>
</g>
<!-- Node99&#45;&gt;Node113 -->
<g id="edge19" class="edge">
<title>Node99&#45;&gt;Node113</title>
<path fill="none" stroke="#191970" d="M420.2148,-418.717C438.1579,-436.1612 470.2857,-463.9576 504,-476.5 564.1485,-498.8764 637.7053,-502.0142 690.2426,-500.5204"/>
<polygon fill="#191970" stroke="#191970" points="690.5876,-504.0106 700.4596,-500.1643 690.3437,-497.0149 690.5876,-504.0106"/>
</g>
<!-- Node114 -->
<g id="node19" class="node">
<title>Node114</title>
<g id="a_node19"><a xlink:href="group__TOOSIGNING__HASHING.html#gae743dd1289d92f915352e40b047b4cc8" target="_top" xlink:title="TooSigning_hash_store">
<polygon fill="#ffffff" stroke="#000000" points="520,-448 520,-467 639,-467 639,-448 520,-448"/>
<text text-anchor="middle" x="579.5" y="-455" font-family="Helvetica,sans-Serif" font-size="10.00" fill="#000000">TooSigning_hash_store</text>
</a>
</g>
</g>
<!-- Node99&#45;&gt;Node114 -->
<g id="edge21" class="edge">
<title>Node99&#45;&gt;Node114</title>
<path fill="none" stroke="#191970" d="M445.4702,-418.6736C463.2608,-425.1749 484.546,-432.6104 504,-438.5 511.9094,-440.8946 520.3474,-443.2291 528.6102,-445.3957"/>
<polygon fill="#191970" stroke="#191970" points="527.9987,-448.8521 538.5549,-447.9479 529.7389,-442.0718 527.9987,-448.8521"/>
</g>
<!-- Node115 -->
<g id="node20" class="node">
<title>Node115</title>
<g id="a_node20"><a xlink:href="TooSigning_8cpp.html#ab8a2415b95a77c91ffbc6ebbde622f64" target="_top" xlink:title="TooSigning_get_hmac">
<polygon fill="#ffffff" stroke="#000000" points="523,-524 523,-543 636,-543 636,-524 523,-524"/>
<text text-anchor="middle" x="579.5" y="-531" font-family="Helvetica,sans-Serif" font-size="10.00" fill="#000000">TooSigning_get_hmac</text>
</a>
</g>
</g>
<!-- Node99&#45;&gt;Node115 -->
<g id="edge22" class="edge">
<title>Node99&#45;&gt;Node115</title>
<path fill="none" stroke="#191970" d="M415.7526,-418.8151C431.8891,-441.7736 465.3823,-485.0232 504,-509.5 510.9376,-513.8972 518.7469,-517.5489 526.6438,-520.5636"/>
<polygon fill="#191970" stroke="#191970" points="525.6722,-523.9316 536.267,-523.9323 527.985,-517.3248 525.6722,-523.9316"/>
</g>
<!-- Node117 -->
<g id="node22" class="node">
<title>Node117</title>
<g id="a_node22"><a xlink:href="TooNetworking_8cpp.html#a46674b3fdc9ee370b0839869aa145b75" target="_top" xlink:title="TooNetworking_send">
<polygon fill="#ffffff" stroke="#000000" points="525,-334 525,-353 634,-353 634,-334 525,-334"/>
<text text-anchor="middle" x="579.5" y="-341" font-family="Helvetica,sans-Serif" font-size="10.00" fill="#000000">TooNetworking_send</text>
</a>
</g>
</g>
<!-- Node99&#45;&gt;Node117 -->
<g id="edge27" class="edge">
<title>Node99&#45;&gt;Node117</title>
<path fill="none" stroke="#191970" d="M445.6186,-388.3982C463.4367,-381.8047 484.7024,-374.0903 504,-367.5 515.275,-363.6495 527.5643,-359.6568 538.8905,-356.0591"/>
<polygon fill="#191970" stroke="#191970" points="540.0628,-359.3594 548.5462,-353.0127 537.9565,-352.6838 540.0628,-359.3594"/>
</g>
<!-- Node118 -->
<g id="node23" class="node">
<title>Node118</title>
<g id="a_node23"><a xlink:href="TooNetworking_8cpp.html#aefc5dad88b637efb11a3a7b2f76a19b9" target="_top" xlink:title="TooNetworking_connection_fix">
<polygon fill="#ffffff" stroke="#000000" points="504,-410 504,-429 655,-429 655,-410 504,-410"/>
<text text-anchor="middle" x="579.5" y="-417" font-family="Helvetica,sans-Serif" font-size="10.00" fill="#000000">TooNetworking_connection_fix</text>
</a>
</g>
</g>
<!-- Node99&#45;&gt;Node118 -->
<g id="edge29" class="edge">
<title>Node99&#45;&gt;Node118</title>
<path fill="none" stroke="#191970" d="M460.0773,-408.5186C470.7921,-409.5039 482.2725,-410.5595 493.7246,-411.6126"/>
<polygon fill="#191970" stroke="#191970" points="493.4828,-415.1051 503.7614,-412.5355 494.1239,-408.1345 493.4828,-415.1051"/>
</g>
<!-- Node101 -->
<g id="node6" class="node">
<title>Node101</title>
<g id="a_node6"><a xlink:href="TooNetworking_8cpp.html#abdda8f09b9d475ed2c23a2376e2e0151" target="_top" xlink:title="mesh">
<polygon fill="#ffffff" stroke="#000000" points="894,-372 894,-391 935,-391 935,-372 894,-372"/>
<text text-anchor="middle" x="914.5" y="-379" font-family="Helvetica,sans-Serif" font-size="10.00" fill="#000000">mesh</text>
</a>
</g>
</g>
<!-- Node100&#45;&gt;Node101 -->
<g id="edge5" class="edge">
<title>Node100&#45;&gt;Node101</title>
<path fill="none" stroke="#191970" d="M826.0166,-381.5C846.1461,-381.5 867.2244,-381.5 883.7568,-381.5"/>
<polygon fill="#191970" stroke="#191970" points="883.9089,-385.0001 893.9089,-381.5 883.9089,-378.0001 883.9089,-385.0001"/>
</g>
<!-- Node105 -->
<g id="node10" class="node">
<title>Node105</title>
<g id="a_node10"><a xlink:href="classSha256Class.html#a73d3dcea6eb667fd146d12aa5d106939" target="_top" xlink:title="Sha256Class::initHmac">
<polygon fill="#ffffff" stroke="#000000" points="698.5,-562 698.5,-581 818.5,-581 818.5,-562 698.5,-562"/>
<text text-anchor="middle" x="758.5" y="-569" font-family="Helvetica,sans-Serif" font-size="10.00" fill="#000000">Sha256Class::initHmac</text>
</a>
</g>
</g>
<!-- Node104&#45;&gt;Node105 -->
<g id="edge10" class="edge">
<title>Node104&#45;&gt;Node105</title>
<path fill="none" stroke="#191970" d="M618.7729,-611.9686C630.4588,-609.0377 643.2721,-605.7303 655,-602.5 675.9435,-596.7313 699.1199,-589.8376 718.2225,-584.0174"/>
<polygon fill="#191970" stroke="#191970" points="719.2698,-587.3572 727.8073,-581.0833 717.2207,-580.6638 719.2698,-587.3572"/>
</g>
<!-- Node106 -->
<g id="node11" class="node">
<title>Node106</title>
<g id="a_node11"><a xlink:href="classSha256Class.html#ac1025d69c51fcd1b882ee41114e58339" target="_top" xlink:title="Sha256Class::init">
<polygon fill="#ffffff" stroke="#000000" points="867.5,-524 867.5,-543 961.5,-543 961.5,-524 867.5,-524"/>
<text text-anchor="middle" x="914.5" y="-531" font-family="Helvetica,sans-Serif" font-size="10.00" fill="#000000">Sha256Class::init</text>
</a>
</g>
</g>
<!-- Node105&#45;&gt;Node106 -->
<g id="edge11" class="edge">
<title>Node105&#45;&gt;Node106</title>
<path fill="none" stroke="#191970" d="M797.8654,-561.911C818.4513,-556.8965 843.8405,-550.7119 865.669,-545.3947"/>
<polygon fill="#191970" stroke="#191970" points="866.5302,-548.7874 875.4177,-543.0201 864.8734,-541.9863 866.5302,-548.7874"/>
</g>
<!-- Node107 -->
<g id="node12" class="node">
<title>Node107</title>
<g id="a_node12"><a xlink:href="classSha256Class.html#a0f0fc4bd4d8c53d232df0d41d7ea25e0" target="_top" xlink:title="Sha256Class::write">
<polygon fill="#ffffff" stroke="#000000" points="863.5,-486 863.5,-505 965.5,-505 965.5,-486 863.5,-486"/>
<text text-anchor="middle" x="914.5" y="-493" font-family="Helvetica,sans-Serif" font-size="10.00" fill="#000000">Sha256Class::write</text>
</a>
</g>
</g>
<!-- Node105&#45;&gt;Node107 -->
<g id="edge12" class="edge">
<title>Node105&#45;&gt;Node107</title>
<path fill="none" stroke="#191970" d="M805.2644,-561.9058C812.4837,-559.4284 819.6435,-556.3397 826,-552.5 845.9133,-540.4711 842.538,-527.2462 862,-514.5 864.9686,-512.5558 868.1618,-510.7791 871.4546,-509.1617"/>
<polygon fill="#191970" stroke="#191970" points="873.1443,-512.2425 880.8947,-505.0189 870.3312,-505.8326 873.1443,-512.2425"/>
</g>
<!-- Node111 -->
<g id="node16" class="node">
<title>Node111</title>
<g id="a_node16"><a xlink:href="classSha256Class.html#a0ca245a22f8b056a3d1902da3c64b705" target="_top" xlink:title="Sha256Class::result">
<polygon fill="#ffffff" stroke="#000000" points="862,-562 862,-581 967,-581 967,-562 862,-562"/>
<text text-anchor="middle" x="914.5" y="-569" font-family="Helvetica,sans-Serif" font-size="10.00" fill="#000000">Sha256Class::result</text>
</a>
</g>
</g>
<!-- Node105&#45;&gt;Node111 -->
<g id="edge16" class="edge">
<title>Node105&#45;&gt;Node111</title>
<path fill="none" stroke="#191970" d="M818.8137,-571.5C829.5994,-571.5 840.8613,-571.5 851.7144,-571.5"/>
<polygon fill="#191970" stroke="#191970" points="851.9659,-575.0001 861.9658,-571.5 851.9658,-568.0001 851.9659,-575.0001"/>
</g>
<!-- Node108 -->
<g id="node13" class="node">
<title>Node108</title>
<g id="a_node13"><a xlink:href="classSha256Class.html#ab0b46743e3d59b1c68f52ed89dfaff50" target="_top" xlink:title="Sha256Class::addUncounted">
<polygon fill="#ffffff" stroke="#000000" points="1136,-524 1136,-543 1280,-543 1280,-524 1136,-524"/>
<text text-anchor="middle" x="1208" y="-531" font-family="Helvetica,sans-Serif" font-size="10.00" fill="#000000">Sha256Class::addUncounted</text>
</a>
</g>
</g>
<!-- Node107&#45;&gt;Node108 -->
<g id="edge13" class="edge">
<title>Node107&#45;&gt;Node108</title>
<path fill="none" stroke="#191970" d="M965.6238,-502.1191C1009.737,-507.8305 1074.2694,-516.1856 1125.6571,-522.8389"/>
<polygon fill="#191970" stroke="#191970" points="1125.3828,-526.3325 1135.7495,-524.1456 1126.2817,-519.3905 1125.3828,-526.3325"/>
</g>
<!-- Node109 -->
<g id="node14" class="node">
<title>Node109</title>
<g id="a_node14"><a xlink:href="classSha256Class.html#a399d2a23951e2130f54af8ac7712068f" target="_top" xlink:title="Sha256Class::hashBlock">
<polygon fill="#ffffff" stroke="#000000" points="1316,-524 1316,-543 1443,-543 1443,-524 1316,-524"/>
<text text-anchor="middle" x="1379.5" y="-531" font-family="Helvetica,sans-Serif" font-size="10.00" fill="#000000">Sha256Class::hashBlock</text>
</a>
</g>
</g>
<!-- Node108&#45;&gt;Node109 -->
<g id="edge14" class="edge">
<title>Node108&#45;&gt;Node109</title>
<path fill="none" stroke="#191970" d="M1280.2344,-533.5C1288.6298,-533.5 1297.2026,-533.5 1305.6198,-533.5"/>
<polygon fill="#191970" stroke="#191970" points="1305.7873,-537.0001 1315.7873,-533.5 1305.7873,-530.0001 1305.7873,-537.0001"/>
</g>
<!-- Node110 -->
<g id="node15" class="node">
<title>Node110</title>
<g id="a_node15"><a xlink:href="classSha256Class.html#ae275718ce9813bb33b2d8d8fbf018bd6" target="_top" xlink:title="Sha256Class::ror32">
<polygon fill="#ffffff" stroke="#000000" points="1479,-524 1479,-543 1582,-543 1582,-524 1479,-524"/>
<text text-anchor="middle" x="1530.5" y="-531" font-family="Helvetica,sans-Serif" font-size="10.00" fill="#000000">Sha256Class::ror32</text>
</a>
</g>
</g>
<!-- Node109&#45;&gt;Node110 -->
<g id="edge15" class="edge">
<title>Node109&#45;&gt;Node110</title>
<path fill="none" stroke="#191970" d="M1443.1,-533.5C1451.5806,-533.5 1460.2667,-533.5 1468.7157,-533.5"/>
<polygon fill="#191970" stroke="#191970" points="1468.8743,-537.0001 1478.8743,-533.5 1468.8742,-530.0001 1468.8743,-537.0001"/>
</g>
<!-- Node112 -->
<g id="node17" class="node">
<title>Node112</title>
<g id="a_node17"><a xlink:href="classSha256Class.html#a82049dae520ccf0bd8478f2aef639149" target="_top" xlink:title="Sha256Class::pad">
<polygon fill="#ffffff" stroke="#000000" points="1003,-552 1003,-571 1100,-571 1100,-552 1003,-552"/>
<text text-anchor="middle" x="1051.5" y="-559" font-family="Helvetica,sans-Serif" font-size="10.00" fill="#000000">Sha256Class::pad</text>
</a>
</g>
</g>
<!-- Node111&#45;&gt;Node112 -->
<g id="edge17" class="edge">
<title>Node111&#45;&gt;Node112</title>
<path fill="none" stroke="#191970" d="M967.076,-567.6623C975.4448,-567.0515 984.1493,-566.4161 992.6514,-565.7955"/>
<polygon fill="#191970" stroke="#191970" points="993.1669,-569.2673 1002.8856,-565.0485 992.6573,-562.2859 993.1669,-569.2673"/>
</g>
<!-- Node112&#45;&gt;Node108 -->
<g id="edge18" class="edge">
<title>Node112&#45;&gt;Node108</title>
<path fill="none" stroke="#191970" d="M1100.1597,-552.7941C1114.2302,-550.2767 1129.7977,-547.4915 1144.6254,-544.8386"/>
<polygon fill="#191970" stroke="#191970" points="1145.5177,-548.2346 1154.7449,-543.0281 1144.2848,-541.344 1145.5177,-548.2346"/>
</g>
<!-- Node113&#45;&gt;Node107 -->
<g id="edge20" class="edge">
<title>Node113&#45;&gt;Node107</title>
<path fill="none" stroke="#191970" d="M816.5886,-495.5C828.4477,-495.5 840.9649,-495.5 852.9405,-495.5"/>
<polygon fill="#191970" stroke="#191970" points="853.2949,-499.0001 863.2949,-495.5 853.2948,-492.0001 853.2949,-499.0001"/>
</g>
<!-- Node116 -->
<g id="node21" class="node">
<title>Node116</title>
<g id="a_node21"><a xlink:href="classSha256Class.html#a7556f29cadf7eaca21a537df41318af3" target="_top" xlink:title="Sha256Class::resultHmac">
<polygon fill="#ffffff" stroke="#000000" points="693,-524 693,-543 824,-543 824,-524 693,-524"/>
<text text-anchor="middle" x="758.5" y="-531" font-family="Helvetica,sans-Serif" font-size="10.00" fill="#000000">Sha256Class::resultHmac</text>
</a>
</g>
</g>
<!-- Node115&#45;&gt;Node116 -->
<g id="edge23" class="edge">
<title>Node115&#45;&gt;Node116</title>
<path fill="none" stroke="#191970" d="M636.1367,-533.5C650.9243,-533.5 667.1018,-533.5 682.7095,-533.5"/>
<polygon fill="#191970" stroke="#191970" points="682.8635,-537.0001 692.8634,-533.5 682.8634,-530.0001 682.8635,-537.0001"/>
</g>
<!-- Node116&#45;&gt;Node106 -->
<g id="edge25" class="edge">
<title>Node116&#45;&gt;Node106</title>
<path fill="none" stroke="#191970" d="M824.2059,-533.5C835.1857,-533.5 846.4989,-533.5 857.2455,-533.5"/>
<polygon fill="#191970" stroke="#191970" points="857.346,-537.0001 867.346,-533.5 857.346,-530.0001 857.346,-537.0001"/>
</g>
<!-- Node116&#45;&gt;Node107 -->
<g id="edge26" class="edge">
<title>Node116&#45;&gt;Node107</title>
<path fill="none" stroke="#191970" d="M797.8654,-523.911C818.4513,-518.8965 843.8405,-512.7119 865.669,-507.3947"/>
<polygon fill="#191970" stroke="#191970" points="866.5302,-510.7874 875.4177,-505.0201 864.8734,-503.9863 866.5302,-510.7874"/>
</g>
<!-- Node116&#45;&gt;Node111 -->
<g id="edge24" class="edge">
<title>Node116&#45;&gt;Node111</title>
<path fill="none" stroke="#191970" d="M797.8654,-543.089C818.4513,-548.1035 843.8405,-554.2881 865.669,-559.6053"/>
<polygon fill="#191970" stroke="#191970" points="864.8734,-563.0137 875.4177,-561.9799 866.5302,-556.2126 864.8734,-563.0137"/>
</g>
<!-- Node117&#45;&gt;Node101 -->
<g id="edge28" class="edge">
<title>Node117&#45;&gt;Node101</title>
<path fill="none" stroke="#191970" d="M634.193,-343.3575C684.3799,-343.9941 760.629,-346.8984 826,-357.5 845.52,-360.6657 866.9338,-366.4099 883.8075,-371.485"/>
<polygon fill="#191970" stroke="#191970" points="883.0821,-374.924 893.6696,-374.5295 885.147,-368.2354 883.0821,-374.924"/>
</g>
<!-- Node118&#45;&gt;Node100 -->
<g id="edge30" class="edge">
<title>Node118&#45;&gt;Node100</title>
<path fill="none" stroke="#191970" d="M624.6693,-409.911C641.691,-406.2974 661.5747,-402.0763 680.7292,-398.01"/>
<polygon fill="#191970" stroke="#191970" points="681.6051,-401.4021 690.6603,-395.9017 680.1514,-394.5547 681.6051,-401.4021"/>
</g>
<!-- Node118&#45;&gt;Node101 -->
<g id="edge31" class="edge">
<title>Node118&#45;&gt;Node101</title>
<path fill="none" stroke="#191970" d="M655.2156,-419.8494C704.2212,-419.0096 769.2397,-415.8931 826,-406.5 845.5665,-403.262 866.9816,-397.2802 883.8445,-391.9796"/>
<polygon fill="#191970" stroke="#191970" points="885.2577,-395.2013 893.6985,-388.798 883.1068,-388.54 885.2577,-395.2013"/>
</g>
<!-- Node120 -->
<g id="node25" class="node">
<title>Node120</title>
<g id="a_node25"><a xlink:href="group__TOOSIGNING__INITIALIZE.html#gafd247c5271ff63bfcde14ef94060002d" target="_top" xlink:title="TooSigning_requested\l_noncelist_initialize">
<polygon fill="#ffffff" stroke="#000000" points="523,-98.5 523,-128.5 636,-128.5 636,-98.5 523,-98.5"/>
<text text-anchor="start" x="531" y="-116.5" font-family="Helvetica,sans-Serif" font-size="10.00" fill="#000000">TooSigning_requested</text>
<text text-anchor="middle" x="579.5" y="-105.5" font-family="Helvetica,sans-Serif" font-size="10.00" fill="#000000">_noncelist_initialize</text>
</a>
</g>
</g>
<!-- Node119&#45;&gt;Node120 -->
<g id="edge33" class="edge">
<title>Node119&#45;&gt;Node120</title>
<path fill="none" stroke="#191970" d="M462.4741,-113.5C478.5614,-113.5 496.2098,-113.5 512.8128,-113.5"/>
<polygon fill="#191970" stroke="#191970" points="512.9922,-117.0001 522.9922,-113.5 512.9921,-110.0001 512.9922,-117.0001"/>
</g>
<!-- Node121 -->
<g id="node26" class="node">
<title>Node121</title>
<g id="a_node26"><a xlink:href="TooSigning_8cpp.html#a74e394128707e55045381d7c9ab6f6fd" target="_top" xlink:title="TooSigning_requested\l_noncelist_find_for_nodeID">
<polygon fill="#ffffff" stroke="#000000" points="512,-49.5 512,-79.5 647,-79.5 647,-49.5 512,-49.5"/>
<text text-anchor="start" x="520" y="-67.5" font-family="Helvetica,sans-Serif" font-size="10.00" fill="#000000">TooSigning_requested</text>
<text text-anchor="middle" x="579.5" y="-56.5" font-family="Helvetica,sans-Serif" font-size="10.00" fill="#000000">_noncelist_find_for_nodeID</text>
</a>
</g>
</g>
<!-- Node119&#45;&gt;Node121 -->
<g id="edge34" class="edge">
<title>Node119&#45;&gt;Node121</title>
<path fill="none" stroke="#191970" d="M459.1255,-98.3986C477.2374,-93.2981 497.6238,-87.5571 516.4001,-82.2695"/>
<polygon fill="#191970" stroke="#191970" points="517.3747,-85.6313 526.0515,-79.5516 515.4772,-78.8933 517.3747,-85.6313"/>
</g>
<!-- Node122 -->
<g id="node27" class="node">
<title>Node122</title>
<g id="a_node27"><a xlink:href="group__TOOSIGNING__DEBUGGING.html#gabb54a5e4968d69e35d665869d5c6588f" target="_top" xlink:title="TooSigning_requested\l_noncelist_print">
<polygon fill="#ffffff" stroke="#000000" points="523,-.5 523,-30.5 636,-30.5 636,-.5 523,-.5"/>
<text text-anchor="start" x="531" y="-18.5" font-family="Helvetica,sans-Serif" font-size="10.00" fill="#000000">TooSigning_requested</text>
<text text-anchor="middle" x="579.5" y="-7.5" font-family="Helvetica,sans-Serif" font-size="10.00" fill="#000000">_noncelist_print</text>
</a>
</g>
</g>
<!-- Node119&#45;&gt;Node122 -->
<g id="edge35" class="edge">
<title>Node119&#45;&gt;Node122</title>
<path fill="none" stroke="#191970" d="M422.0996,-98.2269C440.7806,-81.7392 472.6323,-55.6731 504,-39.5 507.5433,-37.6731 511.252,-35.9523 515.0433,-34.3368"/>
<polygon fill="#191970" stroke="#191970" points="516.5929,-37.4872 524.5904,-30.5382 514.005,-30.9832 516.5929,-37.4872"/>
</g>
<!-- Node123&#45;&gt;Node97 -->
<g id="edge43" class="edge">
<title>Node123&#45;&gt;Node97</title>
<path fill="none" stroke="#191970" d="M246.1649,-251.1426C265.7093,-266.3076 305.7001,-296.0087 343,-315.5 346.2289,-317.1873 349.604,-318.8212 353.0412,-320.3894"/>
<polygon fill="#191970" stroke="#191970" points="351.66,-323.6054 362.2266,-324.3791 354.4488,-317.1849 351.66,-323.6054"/>
</g>
<!-- Node123&#45;&gt;Node98 -->
<g id="edge44" class="edge">
<title>Node123&#45;&gt;Node98</title>
<path fill="none" stroke="#191970" d="M275.4052,-231.9934C295.7644,-227.3215 320.6676,-221.6106 343,-216.5 397.5034,-204.0272 459.0801,-189.9685 505.736,-179.3231"/>
<polygon fill="#191970" stroke="#191970" points="506.7855,-182.6736 515.7564,-177.0368 505.2284,-175.849 506.7855,-182.6736"/>
</g>
<!-- Node123&#45;&gt;Node99 -->
<g id="edge45" class="edge">
<title>Node123&#45;&gt;Node99</title>
<path fill="none" stroke="#191970" d="M241.1094,-251.2937C257.4053,-273.3094 299.4196,-327.6603 343,-364.5 350.9118,-371.188 360.0739,-377.5482 368.9032,-383.1184"/>
<polygon fill="#191970" stroke="#191970" points="367.2044,-386.1821 377.5627,-388.4082 370.8535,-380.2084 367.2044,-386.1821"/>
</g>
<!-- Node123&#45;&gt;Node119 -->
<g id="edge46" class="edge">
<title>Node123&#45;&gt;Node119</title>
<path fill="none" stroke="#191970" d="M246.8904,-231.8792C274.4106,-211.3393 339.4674,-162.7838 377.1576,-134.6535"/>
<polygon fill="#191970" stroke="#191970" points="379.2909,-137.4287 385.2115,-128.6425 375.104,-131.8189 379.2909,-137.4287"/>
</g>
<!-- Node124 -->
<g id="node29" class="node">
<title>Node124</title>
<g id="a_node29"><a xlink:href="TooNetworking_8cpp.html#aa8a4e879d4d71fed2a8940cf93b75ae4" target="_top" xlink:title="TooNetworking_bufferlist\l_initialize">
<polygon fill="#ffffff" stroke="#000000" points="343,-226.5 343,-256.5 468,-256.5 468,-226.5 343,-226.5"/>
<text text-anchor="start" x="351" y="-244.5" font-family="Helvetica,sans-Serif" font-size="10.00" fill="#000000">TooNetworking_bufferlist</text>
<text text-anchor="middle" x="405.5" y="-233.5" font-family="Helvetica,sans-Serif" font-size="10.00" fill="#000000">_initialize</text>
</a>
</g>
</g>
<!-- Node123&#45;&gt;Node124 -->
<g id="edge37" class="edge">
<title>Node123&#45;&gt;Node124</title>
<path fill="none" stroke="#191970" d="M307.2289,-241.5C315.6431,-241.5 324.2217,-241.5 332.6312,-241.5"/>
<polygon fill="#191970" stroke="#191970" points="332.7826,-245.0001 342.7826,-241.5 332.7825,-238.0001 332.7826,-245.0001"/>
</g>
<!-- Node125 -->
<g id="node30" class="node">
<title>Node125</title>
<g id="a_node30"><a xlink:href="TooNetworking_8cpp.html#a0ad03a7efb42cf40ca3e20fb5df3a5db" target="_top" xlink:title="TooNetworking_bufferlist\l_send_">
<polygon fill="#ffffff" stroke="#000000" points="343,-275.5 343,-305.5 468,-305.5 468,-275.5 343,-275.5"/>
<text text-anchor="start" x="351" y="-293.5" font-family="Helvetica,sans-Serif" font-size="10.00" fill="#000000">TooNetworking_bufferlist</text>
<text text-anchor="middle" x="405.5" y="-282.5" font-family="Helvetica,sans-Serif" font-size="10.00" fill="#000000">_send_</text>
</a>
</g>
</g>
<!-- Node123&#45;&gt;Node125 -->
<g id="edge38" class="edge">
<title>Node123&#45;&gt;Node125</title>
<path fill="none" stroke="#191970" d="M267.4741,-251.064C288.9969,-257.2134 317.6248,-265.3928 343.2274,-272.7078"/>
<polygon fill="#191970" stroke="#191970" points="342.2938,-276.0811 352.8706,-275.463 344.2169,-269.3504 342.2938,-276.0811"/>
</g>
<!-- Node125&#45;&gt;Node100 -->
<g id="edge39" class="edge">
<title>Node125&#45;&gt;Node100</title>
<path fill="none" stroke="#191970" d="M453.5976,-275.3769C505.4655,-261.7998 589.4144,-247.874 655,-275.5 694.4384,-292.1123 726.3319,-331.9066 743.8286,-357.7321"/>
<polygon fill="#191970" stroke="#191970" points="740.9904,-359.7866 749.4057,-366.2235 746.8413,-355.9437 740.9904,-359.7866"/>
</g>
<!-- Node125&#45;&gt;Node102 -->
<g id="edge40" class="edge">
<title>Node125&#45;&gt;Node102</title>
<path fill="none" stroke="#191970" d="M468.318,-293.7492C483.1873,-294.5183 499.0804,-295.3404 514.0628,-296.1153"/>
<polygon fill="#191970" stroke="#191970" points="514.0986,-299.6218 524.266,-296.6431 514.4602,-292.6311 514.0986,-299.6218"/>
</g>
<!-- Node125&#45;&gt;Node117 -->
<g id="edge41" class="edge">
<title>Node125&#45;&gt;Node117</title>
<path fill="none" stroke="#191970" d="M446.4603,-305.5199C464.0598,-311.7438 484.928,-318.82 504,-324.5 512.1003,-326.9124 520.7481,-329.2799 529.1926,-331.4806"/>
<polygon fill="#191970" stroke="#191970" points="528.4119,-334.8935 538.9672,-333.9799 530.146,-328.1117 528.4119,-334.8935"/>
</g>
<!-- Node126 -->
<g id="node31" class="node">
<title>Node126</title>
<g id="a_node31"><a xlink:href="TooNetworking_8cpp.html#a3c91b7ab2f6500c287ecc7ab4a018ef6" target="_top" xlink:title="TooNetworking_bufferlist\l_remove">
<polygon fill="#ffffff" stroke="#000000" points="517,-196.5 517,-226.5 642,-226.5 642,-196.5 517,-196.5"/>
<text text-anchor="start" x="525" y="-214.5" font-family="Helvetica,sans-Serif" font-size="10.00" fill="#000000">TooNetworking_bufferlist</text>
<text text-anchor="middle" x="579.5" y="-203.5" font-family="Helvetica,sans-Serif" font-size="10.00" fill="#000000">_remove</text>
</a>
</g>
</g>
<!-- Node125&#45;&gt;Node126 -->
<g id="edge42" class="edge">
<title>Node125&#45;&gt;Node126</title>
<path fill="none" stroke="#191970" d="M446.7313,-275.4224C453.939,-272.3887 461.2771,-269.0364 468,-265.5 485.0186,-256.5477 486.9711,-250.4329 504,-241.5 511.4512,-237.5913 519.5297,-233.8752 527.5384,-230.4741"/>
<polygon fill="#191970" stroke="#191970" points="528.9517,-233.6774 536.8661,-226.6337 526.2866,-227.2045 528.9517,-233.6774"/>
</g>
</g>
</svg>
