<?xml version="1.0" encoding="UTF-8" standalone="no"?>
<!DOCTYPE svg PUBLIC "-//W3C//DTD SVG 1.1//EN"
 "http://www.w3.org/Graphics/SVG/1.1/DTD/svg11.dtd">
<!-- Generated by graphviz version 2.40.1 (20161225.0304)
 -->
<!-- Title: TooNetworking_send_signed Pages: 1 -->
<svg width="718pt" height="374pt"
 viewBox="0.00 0.00 718.00 374.00" xmlns="http://www.w3.org/2000/svg" xmlns:xlink="http://www.w3.org/1999/xlink">
<g id="graph0" class="graph" transform="scale(1 1) rotate(0) translate(4 370)">
<title>TooNetworking_send_signed</title>
<polygon fill="#ffffff" stroke="transparent" points="-4,4 -4,-370 714,-370 714,4 -4,4"/>
<!-- Node160 -->
<g id="node1" class="node">
<title>Node160</title>
<polygon fill="#bfbfbf" stroke="#000000" points="0,-259.5 0,-289.5 109,-289.5 109,-259.5 0,-259.5"/>
<text text-anchor="start" x="8" y="-277.5" font-family="Helvetica,sans-Serif" font-size="10.00" fill="#000000">TooNetworking_send</text>
<text text-anchor="middle" x="54.5" y="-266.5" font-family="Helvetica,sans-Serif" font-size="10.00" fill="#000000">_signed</text>
</g>
<!-- Node161 -->
<g id="node2" class="node">
<title>Node161</title>
<g id="a_node2"><a xlink:href="TooSigning_8cpp.html#a729dc41cfb692fb0aea083c38c5f3577" target="_top" xlink:title="TooSigning_received\l_noncelist_find_from_ID">
<polygon fill="#ffffff" stroke="#000000" points="328.5,-335.5 328.5,-365.5 450.5,-365.5 450.5,-335.5 328.5,-335.5"/>
<text text-anchor="start" x="336.5" y="-353.5" font-family="Helvetica,sans-Serif" font-size="10.00" fill="#000000">TooSigning_received</text>
<text text-anchor="middle" x="389.5" y="-342.5" font-family="Helvetica,sans-Serif" font-size="10.00" fill="#000000">_noncelist_find_from_ID</text>
</a>
</g>
</g>
<!-- Node160&#45;&gt;Node161 -->
<g id="edge1" class="edge">
<title>Node160&#45;&gt;Node161</title>
<path fill="none" stroke="#191970" d="M102.1804,-289.6211C115.9289,-293.7371 130.9983,-298.0162 145,-301.5 202.9724,-315.9243 269.4882,-329.0356 318.4926,-338.0583"/>
<polygon fill="#191970" stroke="#191970" points="317.8964,-341.5072 328.363,-339.864 319.1561,-334.6215 317.8964,-341.5072"/>
</g>
<!-- Node162 -->
<g id="node3" class="node">
<title>Node162</title>
<g id="a_node3"><a xlink:href="TooNetworking_8cpp.html#a9f893c3218491ee86282fdcd9f376500" target="_top" xlink:title="TooNetworking_send\l_signed_">
<polygon fill="#ffffff" stroke="#000000" points="335,-286.5 335,-316.5 444,-316.5 444,-286.5 335,-286.5"/>
<text text-anchor="start" x="343" y="-304.5" font-family="Helvetica,sans-Serif" font-size="10.00" fill="#000000">TooNetworking_send</text>
<text text-anchor="middle" x="389.5" y="-293.5" font-family="Helvetica,sans-Serif" font-size="10.00" fill="#000000">_signed_</text>
</a>
</g>
</g>
<!-- Node160&#45;&gt;Node162 -->
<g id="edge2" class="edge">
<title>Node160&#45;&gt;Node162</title>
<path fill="none" stroke="#191970" d="M109.0691,-278.8981C168.0793,-283.6542 262.0927,-291.2314 324.7864,-296.2843"/>
<polygon fill="#191970" stroke="#191970" points="324.7053,-299.789 334.9542,-297.1038 325.2678,-292.8116 324.7053,-299.789"/>
</g>
<!-- Node165 -->
<g id="node6" class="node">
<title>Node165</title>
<g id="a_node6"><a xlink:href="TooSigning_8cpp.html#a53b55547df3d4276f3ca6a74d601549a" target="_top" xlink:title="TooSigning_requested\l_noncelist_add">
<polygon fill="#ffffff" stroke="#000000" points="333,-98.5 333,-128.5 446,-128.5 446,-98.5 333,-98.5"/>
<text text-anchor="start" x="341" y="-116.5" font-family="Helvetica,sans-Serif" font-size="10.00" fill="#000000">TooSigning_requested</text>
<text text-anchor="middle" x="389.5" y="-105.5" font-family="Helvetica,sans-Serif" font-size="10.00" fill="#000000">_noncelist_add</text>
</a>
</g>
</g>
<!-- Node160&#45;&gt;Node165 -->
<g id="edge5" class="edge">
<title>Node160&#45;&gt;Node165</title>
<path fill="none" stroke="#191970" d="M85.7152,-259.4981C146.6823,-230.1975 281.5233,-165.3933 349.159,-132.8877"/>
<polygon fill="#191970" stroke="#191970" points="350.745,-136.0088 358.242,-128.5225 347.7128,-129.6996 350.745,-136.0088"/>
</g>
<!-- Node169 -->
<g id="node10" class="node">
<title>Node169</title>
<g id="a_node10"><a xlink:href="TooNetworking_8cpp.html#aa8040740e6ffca2f68beb7f8e57d63fc" target="_top" xlink:title="TooNetworking_bufferlist_add">
<polygon fill="#ffffff" stroke="#000000" points="145,-246 145,-265 291,-265 291,-246 145,-246"/>
<text text-anchor="middle" x="218" y="-253" font-family="Helvetica,sans-Serif" font-size="10.00" fill="#000000">TooNetworking_bufferlist_add</text>
</a>
</g>
</g>
<!-- Node160&#45;&gt;Node169 -->
<g id="edge9" class="edge">
<title>Node160&#45;&gt;Node169</title>
<path fill="none" stroke="#191970" d="M109.398,-268.1204C117.5995,-267.1673 126.2066,-266.1671 134.8347,-265.1645"/>
<polygon fill="#191970" stroke="#191970" points="135.4209,-268.62 144.95,-263.989 134.6128,-261.6668 135.4209,-268.62"/>
</g>
<!-- Node163 -->
<g id="node4" class="node">
<title>Node163</title>
<g id="a_node4"><a xlink:href="TooNetworking_8cpp.html#aa7771141375a0a88ce46bb99ab56ee51" target="_top" xlink:title="TooNetworking_this\l_node_is_online">
<polygon fill="#ffffff" stroke="#000000" points="503.5,-333.5 503.5,-363.5 607.5,-363.5 607.5,-333.5 503.5,-333.5"/>
<text text-anchor="start" x="511.5" y="-351.5" font-family="Helvetica,sans-Serif" font-size="10.00" fill="#000000">TooNetworking_this</text>
<text text-anchor="middle" x="555.5" y="-340.5" font-family="Helvetica,sans-Serif" font-size="10.00" fill="#000000">_node_is_online</text>
</a>
</g>
</g>
<!-- Node162&#45;&gt;Node163 -->
<g id="edge3" class="edge">
<title>Node162&#45;&gt;Node163</title>
<path fill="none" stroke="#191970" d="M442.4798,-316.5003C458.74,-321.1041 476.7766,-326.2109 493.5791,-330.9682"/>
<polygon fill="#191970" stroke="#191970" points="492.7314,-334.3657 503.3067,-333.7224 494.6384,-327.6304 492.7314,-334.3657"/>
</g>
<!-- Node164 -->
<g id="node5" class="node">
<title>Node164</title>
<g id="a_node5"><a xlink:href="TooNetworking_8cpp.html#af4808c2c0857cde9a6721ad54f5ab42d" target="_top" xlink:title="TooNetworking_other\l_node_is_online">
<polygon fill="#ffffff" stroke="#000000" points="500.5,-284.5 500.5,-314.5 610.5,-314.5 610.5,-284.5 500.5,-284.5"/>
<text text-anchor="start" x="508.5" y="-302.5" font-family="Helvetica,sans-Serif" font-size="10.00" fill="#000000">TooNetworking_other</text>
<text text-anchor="middle" x="555.5" y="-291.5" font-family="Helvetica,sans-Serif" font-size="10.00" fill="#000000">_node_is_online</text>
</a>
</g>
</g>
<!-- Node162&#45;&gt;Node164 -->
<g id="edge4" class="edge">
<title>Node162&#45;&gt;Node164</title>
<path fill="none" stroke="#191970" d="M444.3147,-300.8396C458.9702,-300.663 474.9562,-300.4704 490.1196,-300.2877"/>
<polygon fill="#191970" stroke="#191970" points="490.5024,-303.7835 500.4595,-300.1631 490.418,-296.784 490.5024,-303.7835"/>
</g>
<!-- Node166 -->
<g id="node7" class="node">
<title>Node166</title>
<g id="a_node7"><a xlink:href="group__TOOSIGNING__INITIALIZE.html#gafd247c5271ff63bfcde14ef94060002d" target="_top" xlink:title="TooSigning_requested\l_noncelist_initialize">
<polygon fill="#ffffff" stroke="#000000" points="499,-98.5 499,-128.5 612,-128.5 612,-98.5 499,-98.5"/>
<text text-anchor="start" x="507" y="-116.5" font-family="Helvetica,sans-Serif" font-size="10.00" fill="#000000">TooSigning_requested</text>
<text text-anchor="middle" x="555.5" y="-105.5" font-family="Helvetica,sans-Serif" font-size="10.00" fill="#000000">_noncelist_initialize</text>
</a>
</g>
</g>
<!-- Node165&#45;&gt;Node166 -->
<g id="edge6" class="edge">
<title>Node165&#45;&gt;Node166</title>
<path fill="none" stroke="#191970" d="M446.1635,-113.5C459.8433,-113.5 474.588,-113.5 488.6847,-113.5"/>
<polygon fill="#191970" stroke="#191970" points="488.8103,-117.0001 498.8102,-113.5 488.8102,-110.0001 488.8103,-117.0001"/>
</g>
<!-- Node167 -->
<g id="node8" class="node">
<title>Node167</title>
<g id="a_node8"><a xlink:href="TooSigning_8cpp.html#a58143364a83636a3d2df075a95cb2bfc" target="_top" xlink:title="TooSigning_request\l_nonce_from_node_id">
<polygon fill="#ffffff" stroke="#000000" points="499.5,-49.5 499.5,-79.5 611.5,-79.5 611.5,-49.5 499.5,-49.5"/>
<text text-anchor="start" x="507.5" y="-67.5" font-family="Helvetica,sans-Serif" font-size="10.00" fill="#000000">TooSigning_request</text>
<text text-anchor="middle" x="555.5" y="-56.5" font-family="Helvetica,sans-Serif" font-size="10.00" fill="#000000">_nonce_from_node_id</text>
</a>
</g>
</g>
<!-- Node165&#45;&gt;Node167 -->
<g id="edge7" class="edge">
<title>Node165&#45;&gt;Node167</title>
<path fill="none" stroke="#191970" d="M440.66,-98.3986C457.7806,-93.3449 477.0315,-87.6624 494.8078,-82.4152"/>
<polygon fill="#191970" stroke="#191970" points="495.9089,-85.7395 504.5089,-79.5516 493.9272,-79.0259 495.9089,-85.7395"/>
</g>
<!-- Node168 -->
<g id="node9" class="node">
<title>Node168</title>
<g id="a_node9"><a xlink:href="group__TOOSIGNING__DEBUGGING.html#gabb54a5e4968d69e35d665869d5c6588f" target="_top" xlink:title="TooSigning_requested\l_noncelist_print">
<polygon fill="#ffffff" stroke="#000000" points="499,-.5 499,-30.5 612,-30.5 612,-.5 499,-.5"/>
<text text-anchor="start" x="507" y="-18.5" font-family="Helvetica,sans-Serif" font-size="10.00" fill="#000000">TooSigning_requested</text>
<text text-anchor="middle" x="555.5" y="-7.5" font-family="Helvetica,sans-Serif" font-size="10.00" fill="#000000">_noncelist_print</text>
</a>
</g>
</g>
<!-- Node165&#45;&gt;Node168 -->
<g id="edge8" class="edge">
<title>Node165&#45;&gt;Node168</title>
<path fill="none" stroke="#191970" d="M406.205,-98.4272C424.9783,-82.1148 456.9104,-56.2014 488,-39.5 491.2596,-37.7489 494.6732,-36.0808 498.1609,-34.4998"/>
<polygon fill="#191970" stroke="#191970" points="499.6799,-37.6572 507.5116,-30.5218 496.9395,-31.2159 499.6799,-37.6572"/>
</g>
<!-- Node169&#45;&gt;Node161 -->
<g id="edge18" class="edge">
<title>Node169&#45;&gt;Node161</title>
<path fill="none" stroke="#191970" d="M230.8809,-265.1834C250.7432,-279.8104 290.3909,-307.8121 327,-326.5 330.2998,-328.1845 333.7469,-329.8215 337.2533,-331.3969"/>
<polygon fill="#191970" stroke="#191970" points="336.0435,-334.6864 346.6134,-335.413 338.8037,-328.2535 336.0435,-334.6864"/>
</g>
<!-- Node169&#45;&gt;Node162 -->
<g id="edge19" class="edge">
<title>Node169&#45;&gt;Node162</title>
<path fill="none" stroke="#191970" d="M253.5349,-265.0312C274.1442,-270.5591 300.7286,-277.6896 324.9164,-284.1773"/>
<polygon fill="#191970" stroke="#191970" points="324.1902,-287.6062 334.7556,-286.8164 326.0037,-280.8451 324.1902,-287.6062"/>
</g>
<!-- Node169&#45;&gt;Node165 -->
<g id="edge20" class="edge">
<title>Node169&#45;&gt;Node165</title>
<path fill="none" stroke="#191970" d="M229.5189,-245.9625C256.6796,-223.4738 325.2889,-166.6661 363.2417,-135.2416"/>
<polygon fill="#191970" stroke="#191970" points="365.8253,-137.6465 371.2956,-128.5731 361.361,-132.2548 365.8253,-137.6465"/>
</g>
<!-- Node170 -->
<g id="node11" class="node">
<title>Node170</title>
<g id="a_node11"><a xlink:href="TooNetworking_8cpp.html#aa8a4e879d4d71fed2a8940cf93b75ae4" target="_top" xlink:title="TooNetworking_bufferlist\l_initialize">
<polygon fill="#ffffff" stroke="#000000" points="327,-237.5 327,-267.5 452,-267.5 452,-237.5 327,-237.5"/>
<text text-anchor="start" x="335" y="-255.5" font-family="Helvetica,sans-Serif" font-size="10.00" fill="#000000">TooNetworking_bufferlist</text>
<text text-anchor="middle" x="389.5" y="-244.5" font-family="Helvetica,sans-Serif" font-size="10.00" fill="#000000">_initialize</text>
</a>
</g>
</g>
<!-- Node169&#45;&gt;Node170 -->
<g id="edge10" class="edge">
<title>Node169&#45;&gt;Node170</title>
<path fill="none" stroke="#191970" d="M291.2289,-254.219C299.6431,-254.0718 308.2217,-253.9218 316.6312,-253.7747"/>
<polygon fill="#191970" stroke="#191970" points="316.8453,-257.2716 326.7826,-253.5971 316.7228,-250.2726 316.8453,-257.2716"/>
</g>
<!-- Node171 -->
<g id="node12" class="node">
<title>Node171</title>
<g id="a_node12"><a xlink:href="TooNetworking_8cpp.html#a0ad03a7efb42cf40ca3e20fb5df3a5db" target="_top" xlink:title="TooNetworking_bufferlist\l_send_">
<polygon fill="#ffffff" stroke="#000000" points="327,-188.5 327,-218.5 452,-218.5 452,-188.5 327,-188.5"/>
<text text-anchor="start" x="335" y="-206.5" font-family="Helvetica,sans-Serif" font-size="10.00" fill="#000000">TooNetworking_bufferlist</text>
<text text-anchor="middle" x="389.5" y="-195.5" font-family="Helvetica,sans-Serif" font-size="10.00" fill="#000000">_send_</text>
</a>
</g>
</g>
<!-- Node169&#45;&gt;Node171 -->
<g id="edge11" class="edge">
<title>Node169&#45;&gt;Node171</title>
<path fill="none" stroke="#191970" d="M249.4557,-245.9624C271.934,-239.1468 302.8682,-229.7674 329.9469,-221.5569"/>
<polygon fill="#191970" stroke="#191970" points="331.1718,-224.843 339.7259,-218.5918 329.1406,-218.1441 331.1718,-224.843"/>
</g>
<!-- Node171&#45;&gt;Node164 -->
<g id="edge14" class="edge">
<title>Node171&#45;&gt;Node164</title>
<path fill="none" stroke="#191970" d="M435.4382,-218.5095C441.2838,-221.3698 446.9717,-224.6867 452,-228.5 472.9655,-244.3995 466.7293,-260.0112 488,-275.5 489.8789,-276.8682 491.8432,-278.1645 493.8703,-279.3921"/>
<polygon fill="#191970" stroke="#191970" points="492.6258,-282.6965 503.0916,-284.3449 495.938,-276.5298 492.6258,-282.6965"/>
</g>
<!-- Node172 -->
<g id="node13" class="node">
<title>Node172</title>
<g id="a_node13"><a xlink:href="TooNetworking_8cpp.html#ac352268e177fa2ddf91c8afa5cd04bbf" target="_top" xlink:title="TooNetworking_connection\l_available">
<polygon fill="#ffffff" stroke="#000000" points="488,-235.5 488,-265.5 623,-265.5 623,-235.5 488,-235.5"/>
<text text-anchor="start" x="496" y="-253.5" font-family="Helvetica,sans-Serif" font-size="10.00" fill="#000000">TooNetworking_connection</text>
<text text-anchor="middle" x="555.5" y="-242.5" font-family="Helvetica,sans-Serif" font-size="10.00" fill="#000000">_available</text>
</a>
</g>
</g>
<!-- Node171&#45;&gt;Node172 -->
<g id="edge12" class="edge">
<title>Node171&#45;&gt;Node172</title>
<path fill="none" stroke="#191970" d="M442.4798,-218.5003C458.3523,-222.9943 475.9176,-227.9676 492.3751,-232.6273"/>
<polygon fill="#191970" stroke="#191970" points="491.8788,-236.1243 502.4541,-235.481 493.7858,-229.3891 491.8788,-236.1243"/>
</g>
<!-- Node174 -->
<g id="node15" class="node">
<title>Node174</title>
<g id="a_node15"><a xlink:href="TooNetworking_8cpp.html#a46674b3fdc9ee370b0839869aa145b75" target="_top" xlink:title="TooNetworking_send">
<polygon fill="#ffffff" stroke="#000000" points="501,-197 501,-216 610,-216 610,-197 501,-197"/>
<text text-anchor="middle" x="555.5" y="-204" font-family="Helvetica,sans-Serif" font-size="10.00" fill="#000000">TooNetworking_send</text>
</a>
</g>
</g>
<!-- Node171&#45;&gt;Node174 -->
<g id="edge15" class="edge">
<title>Node171&#45;&gt;Node174</title>
<path fill="none" stroke="#191970" d="M452.2575,-204.6342C464.8631,-204.862 478.1322,-205.1018 490.8024,-205.3308"/>
<polygon fill="#191970" stroke="#191970" points="490.7496,-208.8303 500.8112,-205.5116 490.8761,-201.8314 490.7496,-208.8303"/>
</g>
<!-- Node176 -->
<g id="node17" class="node">
<title>Node176</title>
<g id="a_node17"><a xlink:href="TooNetworking_8cpp.html#a3c91b7ab2f6500c287ecc7ab4a018ef6" target="_top" xlink:title="TooNetworking_bufferlist\l_remove">
<polygon fill="#ffffff" stroke="#000000" points="493,-147.5 493,-177.5 618,-177.5 618,-147.5 493,-147.5"/>
<text text-anchor="start" x="501" y="-165.5" font-family="Helvetica,sans-Serif" font-size="10.00" fill="#000000">TooNetworking_bufferlist</text>
<text text-anchor="middle" x="555.5" y="-154.5" font-family="Helvetica,sans-Serif" font-size="10.00" fill="#000000">_remove</text>
</a>
</g>
</g>
<!-- Node171&#45;&gt;Node176 -->
<g id="edge17" class="edge">
<title>Node171&#45;&gt;Node176</title>
<path fill="none" stroke="#191970" d="M450.3697,-188.4659C461.5342,-185.7084 473.2751,-182.8086 484.7006,-179.9866"/>
<polygon fill="#191970" stroke="#191970" points="485.7687,-183.3281 494.6377,-177.5323 484.0901,-176.5323 485.7687,-183.3281"/>
</g>
<!-- Node173 -->
<g id="node14" class="node">
<title>Node173</title>
<g id="a_node14"><a xlink:href="TooNetworking_8cpp.html#aa7924d94ea32c8d33a81ff41f8678320" target="_top" xlink:title="network">
<polygon fill="#ffffff" stroke="#000000" points="659,-241 659,-260 710,-260 710,-241 659,-241"/>
<text text-anchor="middle" x="684.5" y="-248" font-family="Helvetica,sans-Serif" font-size="10.00" fill="#000000">network</text>
</a>
</g>
</g>
<!-- Node172&#45;&gt;Node173 -->
<g id="edge13" class="edge">
<title>Node172&#45;&gt;Node173</title>
<path fill="none" stroke="#191970" d="M623.0225,-250.5C631.9236,-250.5 640.7478,-250.5 648.8151,-250.5"/>
<polygon fill="#191970" stroke="#191970" points="648.9271,-254.0001 658.927,-250.5 648.927,-247.0001 648.9271,-254.0001"/>
</g>
<!-- Node175 -->
<g id="node16" class="node">
<title>Node175</title>
<g id="a_node16"><a xlink:href="TooNetworking_8cpp.html#abdda8f09b9d475ed2c23a2376e2e0151" target="_top" xlink:title="mesh">
<polygon fill="#ffffff" stroke="#000000" points="664,-197 664,-216 705,-216 705,-197 664,-197"/>
<text text-anchor="middle" x="684.5" y="-204" font-family="Helvetica,sans-Serif" font-size="10.00" fill="#000000">mesh</text>
</a>
</g>
</g>
<!-- Node174&#45;&gt;Node175 -->
<g id="edge16" class="edge">
<title>Node174&#45;&gt;Node175</title>
<path fill="none" stroke="#191970" d="M610.2076,-206.5C625.0145,-206.5 640.5264,-206.5 653.5232,-206.5"/>
<polygon fill="#191970" stroke="#191970" points="653.7784,-210.0001 663.7784,-206.5 653.7784,-203.0001 653.7784,-210.0001"/>
</g>
</g>
</svg>
