<?xml version="1.0" encoding="UTF-8" standalone="no"?>
<!DOCTYPE svg PUBLIC "-//W3C//DTD SVG 1.1//EN"
 "http://www.w3.org/Graphics/SVG/1.1/DTD/svg11.dtd">
<!-- Generated by graphviz version 2.40.1 (20161225.0304)
 -->
<!-- Title: mesh Pages: 1 -->
<!--zoomable 321 -->
<svg id="main" version="1.1" xmlns="http://www.w3.org/2000/svg" xmlns:xlink="http://www.w3.org/1999/xlink" xml:space="preserve" onload="init(evt)">
<style type="text/css"><![CDATA[
.edge:hover path { stroke: red; }
.edge:hover polygon { stroke: red; fill: red; }
]]></style>
<script type="text/javascript"><![CDATA[
var edges = document.getElementsByTagName('g');
if (edges && edges.length) {
  for (var i=0;i<edges.length;i++) {
    if (edges[i].id.substr(0,4)=='edge') {
      edges[i].setAttribute('class','edge');
    }
  }
}
]]></script>
        <defs>
                <circle id="rim" cx="0" cy="0" r="7"/>
                <circle id="rim2" cx="0" cy="0" r="3.5"/>
                <g id="zoomPlus">
                        <use xlink:href="#rim" fill="#404040">
                                <set attributeName="fill" to="#808080" begin="zoomplus.mouseover" end="zoomplus.mouseout"/>
                        </use>
                        <path d="M-4,0h8M0,-4v8" fill="none" stroke="white" stroke-width="1.5" pointer-events="none"/>
                </g>
                <g id="zoomMin">
                        <use xlink:href="#rim" fill="#404040">
                                <set attributeName="fill" to="#808080" begin="zoomminus.mouseover" end="zoomminus.mouseout"/>
                        </use>
                        <path d="M-4,0h8" fill="none" stroke="white" stroke-width="1.5" pointer-events="none"/>
                </g>
                <g id="dirArrow">
                        <path fill="none" stroke="white" stroke-width="1.5" d="M0,-3.0v7 M-2.5,-0.5L0,-3.0L2.5,-0.5"/>
                </g>
               <g id="resetDef">
                       <use xlink:href="#rim2" fill="#404040">
                               <set attributeName="fill" to="#808080" begin="reset.mouseover" end="reset.mouseout"/>
                       </use>
               </g>
        </defs>

<script type="text/javascript">
var viewWidth = 1315;
var viewHeight = 321;
var sectionId = 'dynsection-0';
</script>
<script xlink:href="svgpan.js"/>
<svg id="graph" class="graph">
<g id="viewport">
<title>mesh</title>
<polygon fill="#ffffff" stroke="transparent" points="-4,4 -4,-316.5 1311,-316.5 1311,4 -4,4"/>
<!-- Node1 -->
<g id="node1" class="node">
<title>Node1</title>
<polygon fill="#bfbfbf" stroke="#000000" points="0,-110 0,-129 41,-129 41,-110 0,-110"/>
<text text-anchor="middle" x="20.5" y="-117" font-family="Helvetica,sans-Serif" font-size="10.00" fill="#000000">mesh</text>
</g>
<!-- Node2 -->
<g id="node2" class="node">
<title>Node2</title>
<g id="a_node2"><a xlink:href="TooNetworking_8h.html#aec97902cf0d3ec10fd86927f3d1df0c6" target="_top" xlink:title="TooNetworking_connection\l_begin">
<polygon fill="#ffffff" stroke="#000000" points="77,-249.5 77,-279.5 212,-279.5 212,-249.5 77,-249.5"/>
<text text-anchor="start" x="85" y="-267.5" font-family="Helvetica,sans-Serif" font-size="10.00" fill="#000000">TooNetworking_connection</text>
<text text-anchor="middle" x="144.5" y="-256.5" font-family="Helvetica,sans-Serif" font-size="10.00" fill="#000000">_begin</text>
</a>
</g>
</g>
<!-- Node1&#45;&gt;Node2 -->
<g id="edge1" class="edge">
<title>Node1&#45;&gt;Node2</title>
<path fill="none" stroke="#191970" d="M30.9705,-138.1157C41.4659,-156.0177 58.6617,-183.3963 77,-204.5 91.6036,-221.3059 110.7746,-237.9284 124.9529,-249.4002"/>
<polygon fill="#191970" stroke="#191970" points="33.8865,-136.1658 25.8643,-129.2452 27.8198,-139.658 33.8865,-136.1658"/>
</g>
<!-- Node5 -->
<g id="node5" class="node">
<title>Node5</title>
<g id="a_node5"><a xlink:href="TooNetworking_8h.html#a46674b3fdc9ee370b0839869aa145b75" target="_top" xlink:title="TooNetworking_send">
<polygon fill="#ffffff" stroke="#000000" points="90,-176 90,-195 199,-195 199,-176 90,-176"/>
<text text-anchor="middle" x="144.5" y="-183" font-family="Helvetica,sans-Serif" font-size="10.00" fill="#000000">TooNetworking_send</text>
</a>
</g>
</g>
<!-- Node1&#45;&gt;Node5 -->
<g id="edge4" class="edge">
<title>Node1&#45;&gt;Node5</title>
<path fill="none" stroke="#191970" d="M37.3518,-136.2287C47.9637,-145.9573 62.3811,-157.7833 77,-165.5 84.9986,-169.7221 94.0131,-173.1745 102.7878,-175.9493"/>
<polygon fill="#191970" stroke="#191970" points="39.7052,-133.637 30.0384,-129.3008 34.8912,-138.7189 39.7052,-133.637"/>
</g>
<!-- Node13 -->
<g id="node13" class="node">
<title>Node13</title>
<g id="a_node13"><a xlink:href="TooNetworking_8h.html#ac352268e177fa2ddf91c8afa5cd04bbf" target="_top" xlink:title="TooNetworking_connection\l_available">
<polygon fill="#ffffff" stroke="#000000" points="77,-126.5 77,-156.5 212,-156.5 212,-126.5 77,-126.5"/>
<text text-anchor="start" x="85" y="-144.5" font-family="Helvetica,sans-Serif" font-size="10.00" fill="#000000">TooNetworking_connection</text>
<text text-anchor="middle" x="144.5" y="-133.5" font-family="Helvetica,sans-Serif" font-size="10.00" fill="#000000">_available</text>
</a>
</g>
</g>
<!-- Node1&#45;&gt;Node13 -->
<g id="edge16" class="edge">
<title>Node1&#45;&gt;Node13</title>
<path fill="none" stroke="#191970" d="M51.3244,-124.9688C59.169,-126.3606 67.9136,-127.9121 76.8159,-129.4915"/>
<polygon fill="#191970" stroke="#191970" points="51.7125,-121.4831 41.2548,-123.1823 50.4896,-128.3755 51.7125,-121.4831"/>
</g>
<!-- Node14 -->
<g id="node14" class="node">
<title>Node14</title>
<g id="a_node14"><a xlink:href="TooNetworking_8h.html#a99dc4950018bfd3e63ecb05f58082439" target="_top" xlink:title="TooNetworking_connection_fix">
<polygon fill="#ffffff" stroke="#000000" points="248,-91 248,-110 399,-110 399,-91 248,-91"/>
<text text-anchor="middle" x="323.5" y="-98" font-family="Helvetica,sans-Serif" font-size="10.00" fill="#000000">TooNetworking_connection_fix</text>
</a>
</g>
</g>
<!-- Node1&#45;&gt;Node14 -->
<g id="edge28" class="edge">
<title>Node1&#45;&gt;Node14</title>
<path fill="none" stroke="#191970" d="M51.508,-117.5556C97.2932,-114.6846 184.3894,-109.2231 247.7213,-105.2518"/>
<polygon fill="#191970" stroke="#191970" points="51.0877,-114.075 41.3264,-118.1941 51.5259,-121.0613 51.0877,-114.075"/>
</g>
<!-- Node19 -->
<g id="node19" class="node">
<title>Node19</title>
<g id="a_node19"><a xlink:href="TooNetworking_8h.html#a7382ba1aed5405c3adc02011ea6c45dd" target="_top" xlink:title="TooNetworking_connection\l_maintenance">
<polygon fill="#ffffff" stroke="#000000" points="1101,-88.5 1101,-118.5 1236,-118.5 1236,-88.5 1101,-88.5"/>
<text text-anchor="start" x="1109" y="-106.5" font-family="Helvetica,sans-Serif" font-size="10.00" fill="#000000">TooNetworking_connection</text>
<text text-anchor="middle" x="1168.5" y="-95.5" font-family="Helvetica,sans-Serif" font-size="10.00" fill="#000000">_maintenance</text>
</a>
</g>
</g>
<!-- Node1&#45;&gt;Node19 -->
<g id="edge29" class="edge">
<title>Node1&#45;&gt;Node19</title>
<path fill="none" stroke="#191970" d="M50.8153,-109.4032C104.9247,-92.3074 221.9868,-59.5 323.5,-59.5 323.5,-59.5 323.5,-59.5 827.5,-59.5 933.3928,-59.5 960.4332,-61.7947 1065,-78.5 1080.7897,-81.0225 1097.7257,-84.6946 1113.2305,-88.4514"/>
<polygon fill="#191970" stroke="#191970" points="49.6125,-106.1133 41.1589,-112.4998 51.7501,-112.7789 49.6125,-106.1133"/>
</g>
<!-- Node20 -->
<g id="node20" class="node">
<title>Node20</title>
<g id="a_node20"><a xlink:href="TooNetworking_8h.html#a48504aef69d9ac92e34269a64f7b518b" target="_top" xlink:title="TooNetworking_connection\l_check">
<polygon fill="#ffffff" stroke="#000000" points="77,-.5 77,-30.5 212,-30.5 212,-.5 77,-.5"/>
<text text-anchor="start" x="85" y="-18.5" font-family="Helvetica,sans-Serif" font-size="10.00" fill="#000000">TooNetworking_connection</text>
<text text-anchor="middle" x="144.5" y="-7.5" font-family="Helvetica,sans-Serif" font-size="10.00" fill="#000000">_check</text>
</a>
</g>
</g>
<!-- Node1&#45;&gt;Node20 -->
<g id="edge27" class="edge">
<title>Node1&#45;&gt;Node20</title>
<path fill="none" stroke="#191970" d="M30.994,-100.9061C41.0273,-84.5153 57.489,-60.9089 77,-45.5 84.4473,-39.6184 93.2293,-34.6304 101.952,-30.5108"/>
<polygon fill="#191970" stroke="#191970" points="27.9273,-99.2161 25.855,-109.6063 33.9544,-102.7762 27.9273,-99.2161"/>
</g>
<!-- Node3 -->
<g id="node3" class="node">
<title>Node3</title>
<g id="a_node3"><a xlink:href="NODE__SKETCH__TooAutomation__Node_8ino_8cpp.html#a7dfd9b79bc5a37d7df40207afbc5431f" target="_top" xlink:title="setup">
<polygon fill="#ffffff" stroke="#000000" points="303,-255 303,-274 344,-274 344,-255 303,-255"/>
<text text-anchor="middle" x="323.5" y="-262" font-family="Helvetica,sans-Serif" font-size="10.00" fill="#000000">setup</text>
</a>
</g>
</g>
<!-- Node2&#45;&gt;Node3 -->
<g id="edge2" class="edge">
<title>Node2&#45;&gt;Node3</title>
<path fill="none" stroke="#191970" d="M222.4975,-264.5C251.9482,-264.5 283.0886,-264.5 302.8763,-264.5"/>
<polygon fill="#191970" stroke="#191970" points="222.1723,-261.0001 212.1722,-264.5 222.1722,-268.0001 222.1723,-261.0001"/>
</g>
<!-- Node4 -->
<g id="node4" class="node">
<title>Node4</title>
<g id="a_node4"><a xlink:href="TooNetworking_8h.html#a2676204dee95da1ef337de95eb0e9bcb" target="_top" xlink:title="TooNetworking_begin">
<polygon fill="#ffffff" stroke="#000000" points="268,-293 268,-312 379,-312 379,-293 268,-293"/>
<text text-anchor="middle" x="323.5" y="-300" font-family="Helvetica,sans-Serif" font-size="10.00" fill="#000000">TooNetworking_begin</text>
</a>
</g>
</g>
<!-- Node2&#45;&gt;Node4 -->
<g id="edge3" class="edge">
<title>Node2&#45;&gt;Node4</title>
<path fill="none" stroke="#191970" d="M222.1543,-280.9853C241.4097,-285.073 261.4096,-289.3188 278.5041,-292.9478"/>
<polygon fill="#191970" stroke="#191970" points="222.6811,-277.5192 212.1722,-278.8662 221.2274,-284.3666 222.6811,-277.5192"/>
</g>
<!-- Node6 -->
<g id="node6" class="node">
<title>Node6</title>
<g id="a_node6"><a xlink:href="TooNetworking_8h.html#a0ad03a7efb42cf40ca3e20fb5df3a5db" target="_top" xlink:title="TooNetworking_bufferlist\l_send_">
<polygon fill="#ffffff" stroke="#000000" points="261,-205.5 261,-235.5 386,-235.5 386,-205.5 261,-205.5"/>
<text text-anchor="start" x="269" y="-223.5" font-family="Helvetica,sans-Serif" font-size="10.00" fill="#000000">TooNetworking_bufferlist</text>
<text text-anchor="middle" x="323.5" y="-212.5" font-family="Helvetica,sans-Serif" font-size="10.00" fill="#000000">_send_</text>
</a>
</g>
</g>
<!-- Node5&#45;&gt;Node6 -->
<g id="edge5" class="edge">
<title>Node5&#45;&gt;Node6</title>
<path fill="none" stroke="#191970" d="M203.414,-197.0195C221.8219,-200.6188 242.1921,-204.6018 260.8473,-208.2495"/>
<polygon fill="#191970" stroke="#191970" points="203.8984,-193.548 193.4125,-195.0639 202.555,-200.4179 203.8984,-193.548"/>
</g>
<!-- Node12 -->
<g id="node12" class="node">
<title>Node12</title>
<g id="a_node12"><a xlink:href="TooNetworking_8h.html#ab5dfe46515ee5ca8f9893675df673d96" target="_top" xlink:title="TooNetworking_send\l_signed">
<polygon fill="#ffffff" stroke="#000000" points="453.5,-129.5 453.5,-159.5 562.5,-159.5 562.5,-129.5 453.5,-129.5"/>
<text text-anchor="start" x="461.5" y="-147.5" font-family="Helvetica,sans-Serif" font-size="10.00" fill="#000000">TooNetworking_send</text>
<text text-anchor="middle" x="508" y="-136.5" font-family="Helvetica,sans-Serif" font-size="10.00" fill="#000000">_signed</text>
</a>
</g>
</g>
<!-- Node5&#45;&gt;Node12 -->
<g id="edge15" class="edge">
<title>Node5&#45;&gt;Node12</title>
<path fill="none" stroke="#191970" d="M209.1084,-178.5564C260.5611,-172.9869 334.414,-164.9042 399,-157.5 416.703,-155.4705 436.0147,-153.1894 453.3985,-151.1111"/>
<polygon fill="#191970" stroke="#191970" points="208.6917,-175.0809 199.1259,-179.6358 209.4443,-182.0404 208.6917,-175.0809"/>
</g>
<!-- Node7 -->
<g id="node7" class="node">
<title>Node7</title>
<g id="a_node7"><a xlink:href="TooNetworking_8h.html#a59be7e774988f57ab43c4c078c570c67" target="_top" xlink:title="TooNetworking_bufferlist_add">
<polygon fill="#ffffff" stroke="#000000" points="435,-184 435,-203 581,-203 581,-184 435,-184"/>
<text text-anchor="middle" x="508" y="-191" font-family="Helvetica,sans-Serif" font-size="10.00" fill="#000000">TooNetworking_bufferlist_add</text>
</a>
</g>
</g>
<!-- Node6&#45;&gt;Node7 -->
<g id="edge6" class="edge">
<title>Node6&#45;&gt;Node7</title>
<path fill="none" stroke="#191970" d="M396.224,-209.8575C411.6426,-207.6011 427.824,-205.2331 442.9365,-203.0215"/>
<polygon fill="#191970" stroke="#191970" points="395.6085,-206.4102 386.2207,-211.3214 396.6222,-213.3364 395.6085,-206.4102"/>
</g>
<!-- Node11 -->
<g id="node11" class="node">
<title>Node11</title>
<g id="a_node11"><a xlink:href="TooNetworking_8h.html#ab58e06e0eb6f2f8ecbebeaf3c173fb22" target="_top" xlink:title="TooNetworking_bufferlist\l_send_all">
<polygon fill="#ffffff" stroke="#000000" points="765,-213.5 765,-243.5 890,-243.5 890,-213.5 765,-213.5"/>
<text text-anchor="start" x="773" y="-231.5" font-family="Helvetica,sans-Serif" font-size="10.00" fill="#000000">TooNetworking_bufferlist</text>
<text text-anchor="middle" x="827.5" y="-220.5" font-family="Helvetica,sans-Serif" font-size="10.00" fill="#000000">_send_all</text>
</a>
</g>
</g>
<!-- Node6&#45;&gt;Node11 -->
<g id="edge14" class="edge">
<title>Node6&#45;&gt;Node11</title>
<path fill="none" stroke="#191970" d="M396.1303,-226.8644C477.2742,-233.1599 612.5471,-241.2213 729,-236.5 740.5715,-236.0309 752.8888,-235.2529 764.7542,-234.3617"/>
<polygon fill="#191970" stroke="#191970" points="396.2657,-223.3643 386.0215,-226.0675 395.7155,-230.3427 396.2657,-223.3643"/>
</g>
<!-- Node8 -->
<g id="node8" class="node">
<title>Node8</title>
<g id="a_node8"><a xlink:href="TooNetworking_8h.html#a9209f3e1a2fdf0b3b88d49105b8fc359" target="_top" xlink:title="TooNetworking_send\l_signed">
<polygon fill="#ffffff" stroke="#000000" points="618.5,-178.5 618.5,-208.5 727.5,-208.5 727.5,-178.5 618.5,-178.5"/>
<text text-anchor="start" x="626.5" y="-196.5" font-family="Helvetica,sans-Serif" font-size="10.00" fill="#000000">TooNetworking_send</text>
<text text-anchor="middle" x="673" y="-185.5" font-family="Helvetica,sans-Serif" font-size="10.00" fill="#000000">_signed</text>
</a>
</g>
</g>
<!-- Node7&#45;&gt;Node8 -->
<g id="edge7" class="edge">
<title>Node7&#45;&gt;Node8</title>
<path fill="none" stroke="#191970" d="M591.5386,-186.7505C600.5929,-186.7588 609.6304,-186.8755 618.215,-187.1006"/>
<polygon fill="#191970" stroke="#191970" points="591.3196,-183.2511 581.3323,-186.7872 591.3449,-190.2511 591.3196,-183.2511"/>
</g>
<!-- Node9 -->
<g id="node9" class="node">
<title>Node9</title>
<g id="a_node9"><a xlink:href="TooNetworking_8h.html#a085ff748b00f6be4ebafcae2bb0dded1" target="_top" xlink:title="TooNetworking_bufferlist\l_send_signed">
<polygon fill="#ffffff" stroke="#000000" points="765,-137.5 765,-167.5 890,-167.5 890,-137.5 765,-137.5"/>
<text text-anchor="start" x="773" y="-155.5" font-family="Helvetica,sans-Serif" font-size="10.00" fill="#000000">TooNetworking_bufferlist</text>
<text text-anchor="middle" x="827.5" y="-144.5" font-family="Helvetica,sans-Serif" font-size="10.00" fill="#000000">_send_signed</text>
</a>
</g>
</g>
<!-- Node7&#45;&gt;Node9 -->
<g id="edge13" class="edge">
<title>Node7&#45;&gt;Node9</title>
<path fill="none" stroke="#191970" d="M553.3963,-181.4892C572.8537,-176.7583 595.9139,-171.7011 617,-168.5 666.2801,-161.0187 722.6088,-156.9707 764.5888,-154.8195"/>
<polygon fill="#191970" stroke="#191970" points="552.4437,-178.1193 543.5792,-183.9219 554.1275,-184.9138 552.4437,-178.1193"/>
</g>
<!-- Node8&#45;&gt;Node7 -->
<g id="edge8" class="edge">
<title>Node8&#45;&gt;Node7</title>
<path fill="none" stroke="#191970" d="M608.0675,-200.1121C599.293,-200.2518 590.2405,-200.2853 581.3323,-200.2128"/>
<polygon fill="#191970" stroke="#191970" points="608.2906,-203.6083 618.215,-199.8994 608.1438,-196.6098 608.2906,-203.6083"/>
</g>
<!-- Node8&#45;&gt;Node8 -->
<g id="edge9" class="edge">
<title>Node8&#45;&gt;Node8</title>
<path fill="none" stroke="#191970" d="M645.6361,-218.9579C649.0323,-223.679 658.1536,-227 673,-227 697.3633,-227 706.3092,-218.0566 699.8377,-208.659"/>
<polygon fill="#191970" stroke="#191970" points="649.1473,-218.8246 646.1623,-208.659 642.1565,-218.4673 649.1473,-218.8246"/>
</g>
<!-- Node8&#45;&gt;Node9 -->
<g id="edge10" class="edge">
<title>Node8&#45;&gt;Node9</title>
<path fill="none" stroke="#191970" d="M737.8737,-176.2843C748.8613,-173.3685 760.1918,-170.3617 770.9447,-167.5082"/>
<polygon fill="#191970" stroke="#191970" points="736.6736,-172.9816 727.9059,-178.9295 738.4692,-179.7474 736.6736,-172.9816"/>
</g>
<!-- Node8&#45;&gt;Node11 -->
<g id="edge12" class="edge">
<title>Node8&#45;&gt;Node11</title>
<path fill="none" stroke="#191970" d="M737.8737,-208.1963C746.8111,-210.221 755.9754,-212.297 764.8712,-214.3123"/>
<polygon fill="#191970" stroke="#191970" points="738.4321,-204.7342 727.9059,-205.9382 736.8855,-211.5612 738.4321,-204.7342"/>
</g>
<!-- Node10 -->
<g id="node10" class="node">
<title>Node10</title>
<g id="a_node10"><a xlink:href="NODE__SKETCH__TooAutomation__Node_8ino_8cpp.html#a0b33edabd7f1c4e4a0bf32c67269be2f" target="_top" xlink:title="loop">
<polygon fill="#ffffff" stroke="#000000" points="1272,-116 1272,-135 1307,-135 1307,-116 1272,-116"/>
<text text-anchor="middle" x="1289.5" y="-123" font-family="Helvetica,sans-Serif" font-size="10.00" fill="#000000">loop</text>
</a>
</g>
</g>
<!-- Node9&#45;&gt;Node10 -->
<g id="edge11" class="edge">
<title>Node9&#45;&gt;Node10</title>
<path fill="none" stroke="#191970" d="M900.2953,-148.2457C1010.0856,-141.8294 1211.6387,-130.0503 1271.9827,-126.5237"/>
<polygon fill="#191970" stroke="#191970" points="900.0669,-144.753 890.2882,-148.8306 900.4754,-151.7411 900.0669,-144.753"/>
</g>
<!-- Node13&#45;&gt;Node6 -->
<g id="edge17" class="edge">
<title>Node13&#45;&gt;Node6</title>
<path fill="none" stroke="#191970" d="M196.6145,-160.2278C201.8393,-162.2767 207.0422,-164.3872 212,-166.5 240.2946,-178.5583 271.7699,-193.9946 294.0437,-205.2726"/>
<polygon fill="#191970" stroke="#191970" points="197.8244,-156.9433 187.2345,-156.6191 195.3109,-163.4764 197.8244,-156.9433"/>
</g>
<!-- Node13&#45;&gt;Node12 -->
<g id="edge26" class="edge">
<title>Node13&#45;&gt;Node12</title>
<path fill="none" stroke="#191970" d="M222.0469,-142.14C291.5767,-142.7138 391.8327,-143.5413 453.2991,-144.0485"/>
<polygon fill="#191970" stroke="#191970" points="222.0482,-138.64 212.0197,-142.0572 221.9904,-145.6398 222.0482,-138.64"/>
</g>
<!-- Node13&#45;&gt;Node14 -->
<g id="edge18" class="edge">
<title>Node13&#45;&gt;Node14</title>
<path fill="none" stroke="#191970" d="M220.0771,-124.1891C241.2082,-119.349 263.4008,-114.2657 281.7866,-110.0545"/>
<polygon fill="#191970" stroke="#191970" points="219.1027,-120.8215 210.1366,-126.4659 220.6656,-127.6448 219.1027,-120.8215"/>
</g>
<!-- Node14&#45;&gt;Node12 -->
<g id="edge19" class="edge">
<title>Node14&#45;&gt;Node12</title>
<path fill="none" stroke="#191970" d="M373.4276,-112.4068C398.1386,-118.3 428.0223,-125.4267 453.3461,-131.466"/>
<polygon fill="#191970" stroke="#191970" points="374.0729,-108.9627 363.5338,-110.0473 372.449,-115.7717 374.0729,-108.9627"/>
</g>
<!-- Node15 -->
<g id="node15" class="node">
<title>Node15</title>
<g id="a_node15"><a xlink:href="TooSigning_8h.html#abf99e5d9b5ec252bfff3bf26c0ba9e37" target="_top" xlink:title="TooSigning_connection_fix">
<polygon fill="#ffffff" stroke="#000000" points="441,-91 441,-110 575,-110 575,-91 441,-91"/>
<text text-anchor="middle" x="508" y="-98" font-family="Helvetica,sans-Serif" font-size="10.00" fill="#000000">TooSigning_connection_fix</text>
</a>
</g>
</g>
<!-- Node14&#45;&gt;Node15 -->
<g id="edge20" class="edge">
<title>Node14&#45;&gt;Node15</title>
<path fill="none" stroke="#191970" d="M409.1985,-100.5C419.8132,-100.5 430.5442,-100.5 440.8255,-100.5"/>
<polygon fill="#191970" stroke="#191970" points="409.0756,-97.0001 399.0756,-100.5 409.0755,-104.0001 409.0756,-97.0001"/>
</g>
<!-- Node16 -->
<g id="node16" class="node">
<title>Node16</title>
<g id="a_node16"><a xlink:href="TooSigning_8h.html#a58143364a83636a3d2df075a95cb2bfc" target="_top" xlink:title="TooSigning_request\l_nonce_from_node_id">
<polygon fill="#ffffff" stroke="#000000" points="617,-88.5 617,-118.5 729,-118.5 729,-88.5 617,-88.5"/>
<text text-anchor="start" x="625" y="-106.5" font-family="Helvetica,sans-Serif" font-size="10.00" fill="#000000">TooSigning_request</text>
<text text-anchor="middle" x="673" y="-95.5" font-family="Helvetica,sans-Serif" font-size="10.00" fill="#000000">_nonce_from_node_id</text>
</a>
</g>
</g>
<!-- Node15&#45;&gt;Node16 -->
<g id="edge21" class="edge">
<title>Node15&#45;&gt;Node16</title>
<path fill="none" stroke="#191970" d="M585.2417,-101.9044C595.8688,-102.0976 606.6127,-102.293 616.7643,-102.4775"/>
<polygon fill="#191970" stroke="#191970" points="585.1738,-98.4027 575.1118,-101.7202 585.0465,-105.4015 585.1738,-98.4027"/>
</g>
<!-- Node17 -->
<g id="node17" class="node">
<title>Node17</title>
<g id="a_node17"><a xlink:href="TooSigning_8h.html#af7ec4002cf8cf81195f3745703e04b22" target="_top" xlink:title="TooSigning_requested\l_noncelist_retry_all">
<polygon fill="#ffffff" stroke="#000000" points="771,-88.5 771,-118.5 884,-118.5 884,-88.5 771,-88.5"/>
<text text-anchor="start" x="779" y="-106.5" font-family="Helvetica,sans-Serif" font-size="10.00" fill="#000000">TooSigning_requested</text>
<text text-anchor="middle" x="827.5" y="-95.5" font-family="Helvetica,sans-Serif" font-size="10.00" fill="#000000">_noncelist_retry_all</text>
</a>
</g>
</g>
<!-- Node16&#45;&gt;Node17 -->
<g id="edge22" class="edge">
<title>Node16&#45;&gt;Node17</title>
<path fill="none" stroke="#191970" d="M739.5209,-103.5C749.9441,-103.5 760.633,-103.5 770.8087,-103.5"/>
<polygon fill="#191970" stroke="#191970" points="739.2151,-100.0001 729.2151,-103.5 739.2151,-107.0001 739.2151,-100.0001"/>
</g>
<!-- Node18 -->
<g id="node18" class="node">
<title>Node18</title>
<g id="a_node18"><a xlink:href="TooSigning_8h.html#af68b8dda897cf488129c205ad532ca9e" target="_top" xlink:title="TooSigning_signed_network\l_update">
<polygon fill="#ffffff" stroke="#000000" points="926,-88.5 926,-118.5 1065,-118.5 1065,-88.5 926,-88.5"/>
<text text-anchor="start" x="934" y="-106.5" font-family="Helvetica,sans-Serif" font-size="10.00" fill="#000000">TooSigning_signed_network</text>
<text text-anchor="middle" x="995.5" y="-95.5" font-family="Helvetica,sans-Serif" font-size="10.00" fill="#000000">_update</text>
</a>
</g>
</g>
<!-- Node17&#45;&gt;Node18 -->
<g id="edge23" class="edge">
<title>Node17&#45;&gt;Node18</title>
<path fill="none" stroke="#191970" d="M894.5393,-103.5C904.8442,-103.5 915.5044,-103.5 925.8642,-103.5"/>
<polygon fill="#191970" stroke="#191970" points="894.3772,-100.0001 884.3771,-103.5 894.3771,-107.0001 894.3772,-100.0001"/>
</g>
<!-- Node18&#45;&gt;Node19 -->
<g id="edge24" class="edge">
<title>Node18&#45;&gt;Node19</title>
<path fill="none" stroke="#191970" d="M1075.6166,-103.5C1084.0706,-103.5 1092.6064,-103.5 1100.8985,-103.5"/>
<polygon fill="#191970" stroke="#191970" points="1075.3671,-100.0001 1065.3671,-103.5 1075.367,-107.0001 1075.3671,-100.0001"/>
</g>
<!-- Node19&#45;&gt;Node10 -->
<g id="edge25" class="edge">
<title>Node19&#45;&gt;Node10</title>
<path fill="none" stroke="#191970" d="M1246.1566,-117.6194C1255.6588,-119.347 1264.5454,-120.9628 1271.7679,-122.276"/>
<polygon fill="#191970" stroke="#191970" points="1246.5402,-114.1318 1236.0754,-115.7864 1245.288,-121.0189 1246.5402,-114.1318"/>
</g>
</g>
</svg>
        <g id="navigator" transform="translate(0 0)" fill="#404254">
                <rect fill="#f2f5e9" fill-opacity="0.5" stroke="#606060" stroke-width=".5" x="0" y="0" width="60" height="60"/>
                <use id="zoomplus" xlink:href="#zoomPlus" x="17" y="9" onmousedown="handleZoom(evt,'in')"/>
                <use id="zoomminus" xlink:href="#zoomMin" x="42" y="9" onmousedown="handleZoom(evt,'out')"/>
                <use id="reset" xlink:href="#resetDef" x="30" y="36" onmousedown="handleReset()"/>
                <g id="arrowUp" xlink:href="#dirArrow" transform="translate(30 24)" onmousedown="handlePan(0,-1)">
                  <use xlink:href="#rim" fill="#404040">
                        <set attributeName="fill" to="#808080" begin="arrowUp.mouseover" end="arrowUp.mouseout"/>
                  </use>
                  <path fill="none" stroke="white" stroke-width="1.5" d="M0,-3.0v7 M-2.5,-0.5L0,-3.0L2.5,-0.5"/>
                </g>
                <g id="arrowRight" xlink:href="#dirArrow" transform="rotate(90) translate(36 -43)" onmousedown="handlePan(1,0)">
                  <use xlink:href="#rim" fill="#404040">
                        <set attributeName="fill" to="#808080" begin="arrowRight.mouseover" end="arrowRight.mouseout"/>
                  </use>
                  <path fill="none" stroke="white" stroke-width="1.5" d="M0,-3.0v7 M-2.5,-0.5L0,-3.0L2.5,-0.5"/>
                </g>
                <g id="arrowDown" xlink:href="#dirArrow" transform="rotate(180) translate(-30 -48)" onmousedown="handlePan(0,1)">
                  <use xlink:href="#rim" fill="#404040">
                        <set attributeName="fill" to="#808080" begin="arrowDown.mouseover" end="arrowDown.mouseout"/>
                  </use>
                  <path fill="none" stroke="white" stroke-width="1.5" d="M0,-3.0v7 M-2.5,-0.5L0,-3.0L2.5,-0.5"/>
                </g>
                <g id="arrowLeft" xlink:href="#dirArrow" transform="rotate(270) translate(-36 17)" onmousedown="handlePan(-1,0)">
                  <use xlink:href="#rim" fill="#404040">
                        <set attributeName="fill" to="#808080" begin="arrowLeft.mouseover" end="arrowLeft.mouseout"/>
                  </use>
                  <path fill="none" stroke="white" stroke-width="1.5" d="M0,-3.0v7 M-2.5,-0.5L0,-3.0L2.5,-0.5"/>
                </g>
        </g>
        <svg viewBox="0 0 15 15" width="100%" height="30px" preserveAspectRatio="xMaxYMin meet">
         <g id="arrow_out" transform="scale(0.3 0.3)">
          <a xlink:href="TooNetworking_8cpp_abdda8f09b9d475ed2c23a2376e2e0151_icgraph_org.svg" target="_base">
           <rect id="button" ry="5" rx="5" y="6" x="6" height="38" width="38"
                fill="#f2f5e9" fill-opacity="0.5" stroke="#606060" stroke-width="1.0"/>
           <path id="arrow"
             d="M 11.500037,31.436501 C 11.940474,20.09759 22.043105,11.32322 32.158766,21.979434 L 37.068811,17.246167 C 37.068811,17.246167 37.088388,32 37.088388,32 L 22.160133,31.978069 C 22.160133,31.978069 26.997745,27.140456 26.997745,27.140456 C 18.528582,18.264221 13.291696,25.230495 11.500037,31.436501 z"
             style="fill:#404040;"/>
          </a>
         </g>
        </svg>
</svg>
