<?xml version="1.0" encoding="UTF-8" standalone="no"?>
<!DOCTYPE svg PUBLIC "-//W3C//DTD SVG 1.1//EN"
 "http://www.w3.org/Graphics/SVG/1.1/DTD/svg11.dtd">
<!-- Generated by graphviz version 2.40.1 (20161225.0304)
 -->
<!-- Title: TooNetworking_connection_fix Pages: 1 -->
<svg width="407pt" height="56pt"
 viewBox="0.00 0.00 407.00 55.50" xmlns="http://www.w3.org/2000/svg" xmlns:xlink="http://www.w3.org/1999/xlink">
<g id="graph0" class="graph" transform="scale(1 1) rotate(0) translate(4 51.5)">
<title>TooNetworking_connection_fix</title>
<polygon fill="#ffffff" stroke="transparent" points="-4,4 -4,-51.5 403,-51.5 403,4 -4,4"/>
<!-- Node159 -->
<g id="node1" class="node">
<title>Node159</title>
<polygon fill="#bfbfbf" stroke="#000000" points="0,-.5 0,-19.5 151,-19.5 151,-.5 0,-.5"/>
<text text-anchor="middle" x="75.5" y="-7.5" font-family="Helvetica,sans-Serif" font-size="10.00" fill="#000000">TooNetworking_connection_fix</text>
</g>
<!-- Node160 -->
<g id="node2" class="node">
<title>Node160</title>
<g id="a_node2"><a xlink:href="TooNetworking_8cpp.html#ac352268e177fa2ddf91c8afa5cd04bbf" target="_top" xlink:title="TooNetworking_connection\l_available">
<polygon fill="#ffffff" stroke="#000000" points="187,-17 187,-47 322,-47 322,-17 187,-17"/>
<text text-anchor="start" x="195" y="-35" font-family="Helvetica,sans-Serif" font-size="10.00" fill="#000000">TooNetworking_connection</text>
<text text-anchor="middle" x="254.5" y="-24" font-family="Helvetica,sans-Serif" font-size="10.00" fill="#000000">_available</text>
</a>
</g>
</g>
<!-- Node159&#45;&gt;Node160 -->
<g id="edge1" class="edge">
<title>Node159&#45;&gt;Node160</title>
<path fill="none" stroke="#191970" d="M151.1527,-19.2981C159.6566,-20.3433 168.3316,-21.4095 176.8602,-22.4577"/>
<polygon fill="#191970" stroke="#191970" points="176.4336,-25.9315 186.7859,-23.6776 177.2876,-18.9838 176.4336,-25.9315"/>
</g>
<!-- Node161 -->
<g id="node3" class="node">
<title>Node161</title>
<g id="a_node3"><a xlink:href="TooNetworking_8cpp.html#abdda8f09b9d475ed2c23a2376e2e0151" target="_top" xlink:title="mesh">
<polygon fill="#ffffff" stroke="#000000" points="358,-.5 358,-19.5 399,-19.5 399,-.5 358,-.5"/>
<text text-anchor="middle" x="378.5" y="-7.5" font-family="Helvetica,sans-Serif" font-size="10.00" fill="#000000">mesh</text>
</a>
</g>
</g>
<!-- Node159&#45;&gt;Node161 -->
<g id="edge3" class="edge">
<title>Node159&#45;&gt;Node161</title>
<path fill="none" stroke="#191970" d="M151.0236,-8.379C199.8116,-7.581 264.6616,-6.9855 322,-8 330.3493,-8.1477 339.3893,-8.4182 347.7388,-8.7134"/>
<polygon fill="#191970" stroke="#191970" points="347.717,-12.215 357.8415,-9.0933 347.9801,-5.2199 347.717,-12.215"/>
</g>
<!-- Node160&#45;&gt;Node161 -->
<g id="edge2" class="edge">
<title>Node160&#45;&gt;Node161</title>
<path fill="none" stroke="#191970" d="M322.3049,-19.9701C331.2455,-18.3839 340.0236,-16.8265 347.8869,-15.4314"/>
<polygon fill="#191970" stroke="#191970" points="348.737,-18.8353 357.9718,-13.6421 347.5141,-11.9429 348.737,-18.8353"/>
</g>
</g>
</svg>
