<?xml version="1.0" encoding="UTF-8" standalone="no"?>
<!DOCTYPE svg PUBLIC "-//W3C//DTD SVG 1.1//EN"
 "http://www.w3.org/Graphics/SVG/1.1/DTD/svg11.dtd">
<!-- Generated by graphviz version 2.40.1 (20161225.0304)
 -->
<!-- Title: TooNetworking_bufferlist_send_all Pages: 1 -->
<!--zoomable 372 -->
<svg id="main" version="1.1" xmlns="http://www.w3.org/2000/svg" xmlns:xlink="http://www.w3.org/1999/xlink" xml:space="preserve" onload="init(evt)">
<style type="text/css"><![CDATA[
.edge:hover path { stroke: red; }
.edge:hover polygon { stroke: red; fill: red; }
]]></style>
<script type="text/javascript"><![CDATA[
var edges = document.getElementsByTagName('g');
if (edges && edges.length) {
  for (var i=0;i<edges.length;i++) {
    if (edges[i].id.substr(0,4)=='edge') {
      edges[i].setAttribute('class','edge');
    }
  }
}
]]></script>
        <defs>
                <circle id="rim" cx="0" cy="0" r="7"/>
                <circle id="rim2" cx="0" cy="0" r="3.5"/>
                <g id="zoomPlus">
                        <use xlink:href="#rim" fill="#404040">
                                <set attributeName="fill" to="#808080" begin="zoomplus.mouseover" end="zoomplus.mouseout"/>
                        </use>
                        <path d="M-4,0h8M0,-4v8" fill="none" stroke="white" stroke-width="1.5" pointer-events="none"/>
                </g>
                <g id="zoomMin">
                        <use xlink:href="#rim" fill="#404040">
                                <set attributeName="fill" to="#808080" begin="zoomminus.mouseover" end="zoomminus.mouseout"/>
                        </use>
                        <path d="M-4,0h8" fill="none" stroke="white" stroke-width="1.5" pointer-events="none"/>
                </g>
                <g id="dirArrow">
                        <path fill="none" stroke="white" stroke-width="1.5" d="M0,-3.0v7 M-2.5,-0.5L0,-3.0L2.5,-0.5"/>
                </g>
               <g id="resetDef">
                       <use xlink:href="#rim2" fill="#404040">
                               <set attributeName="fill" to="#808080" begin="reset.mouseover" end="reset.mouseout"/>
                       </use>
               </g>
        </defs>

<script type="text/javascript">
var viewWidth = 895;
var viewHeight = 372;
var sectionId = 'dynsection-7';
</script>
<script xlink:href="svgpan.js"/>
<svg id="graph" class="graph">
<g id="viewport">
<title>TooNetworking_bufferlist_send_all</title>
<polygon fill="#ffffff" stroke="transparent" points="-4,4 -4,-368 891,-368 891,4 -4,4"/>
<!-- Node53 -->
<g id="node1" class="node">
<title>Node53</title>
<polygon fill="#bfbfbf" stroke="#000000" points="0,-245.5 0,-275.5 125,-275.5 125,-245.5 0,-245.5"/>
<text text-anchor="start" x="8" y="-263.5" font-family="Helvetica,sans-Serif" font-size="10.00" fill="#000000">TooNetworking_bufferlist</text>
<text text-anchor="middle" x="62.5" y="-252.5" font-family="Helvetica,sans-Serif" font-size="10.00" fill="#000000">_send_all</text>
</g>
<!-- Node54 -->
<g id="node2" class="node">
<title>Node54</title>
<g id="a_node2"><a xlink:href="group__TOONETWORKING__SIMPLE__BUFFER.html#ga2b5485b317146ce7c14bbad26172d796" target="_top" xlink:title="TooNetworking_bufferlist\l_print">
<polygon fill="#ffffff" stroke="#000000" points="161,-333.5 161,-363.5 286,-363.5 286,-333.5 161,-333.5"/>
<text text-anchor="start" x="169" y="-351.5" font-family="Helvetica,sans-Serif" font-size="10.00" fill="#000000">TooNetworking_bufferlist</text>
<text text-anchor="middle" x="223.5" y="-340.5" font-family="Helvetica,sans-Serif" font-size="10.00" fill="#000000">_print</text>
</a>
</g>
</g>
<!-- Node53&#45;&gt;Node54 -->
<g id="edge1" class="edge">
<title>Node53&#45;&gt;Node54</title>
<path fill="none" stroke="#191970" d="M86.8645,-275.6257C106.6011,-287.688 135.2582,-304.7748 161,-318.5 167.5715,-322.0038 174.6175,-325.5665 181.5247,-328.9548"/>
<polygon fill="#191970" stroke="#191970" points="180.2743,-332.238 190.8001,-333.4453 183.3246,-325.9375 180.2743,-332.238"/>
</g>
<!-- Node55 -->
<g id="node3" class="node">
<title>Node55</title>
<g id="a_node3"><a xlink:href="TooNetworking_8cpp.html#a0ad03a7efb42cf40ca3e20fb5df3a5db" target="_top" xlink:title="TooNetworking_bufferlist\l_send_">
<polygon fill="#ffffff" stroke="#000000" points="504,-245.5 504,-275.5 629,-275.5 629,-245.5 504,-245.5"/>
<text text-anchor="start" x="512" y="-263.5" font-family="Helvetica,sans-Serif" font-size="10.00" fill="#000000">TooNetworking_bufferlist</text>
<text text-anchor="middle" x="566.5" y="-252.5" font-family="Helvetica,sans-Serif" font-size="10.00" fill="#000000">_send_</text>
</a>
</g>
</g>
<!-- Node53&#45;&gt;Node55 -->
<g id="edge2" class="edge">
<title>Node53&#45;&gt;Node55</title>
<path fill="none" stroke="#191970" d="M125.0591,-260.5C218.5027,-260.5 394.1365,-260.5 493.3752,-260.5"/>
<polygon fill="#191970" stroke="#191970" points="493.6172,-264.0001 503.6171,-260.5 493.6171,-257.0001 493.6172,-264.0001"/>
</g>
<!-- Node61 -->
<g id="node9" class="node">
<title>Node61</title>
<g id="a_node9"><a xlink:href="TooNetworking_8cpp.html#a3c91b7ab2f6500c287ecc7ab4a018ef6" target="_top" xlink:title="TooNetworking_bufferlist\l_remove">
<polygon fill="#ffffff" stroke="#000000" points="670,-333.5 670,-363.5 795,-363.5 795,-333.5 670,-333.5"/>
<text text-anchor="start" x="678" y="-351.5" font-family="Helvetica,sans-Serif" font-size="10.00" fill="#000000">TooNetworking_bufferlist</text>
<text text-anchor="middle" x="732.5" y="-340.5" font-family="Helvetica,sans-Serif" font-size="10.00" fill="#000000">_remove</text>
</a>
</g>
</g>
<!-- Node53&#45;&gt;Node61 -->
<g id="edge9" class="edge">
<title>Node53&#45;&gt;Node61</title>
<path fill="none" stroke="#191970" d="M125.0124,-269.5042C136.9561,-271.1908 149.3615,-272.9195 161,-274.5 340.1128,-298.824 551.0621,-325.6728 659.6978,-339.3673"/>
<polygon fill="#191970" stroke="#191970" points="659.528,-342.8735 669.8871,-340.651 660.403,-335.9284 659.528,-342.8735"/>
</g>
<!-- Node62 -->
<g id="node10" class="node">
<title>Node62</title>
<g id="a_node10"><a xlink:href="TooSigning_8cpp.html#a729dc41cfb692fb0aea083c38c5f3577" target="_top" xlink:title="TooSigning_received\l_noncelist_find_from_ID">
<polygon fill="#ffffff" stroke="#000000" points="505.5,-49.5 505.5,-79.5 627.5,-79.5 627.5,-49.5 505.5,-49.5"/>
<text text-anchor="start" x="513.5" y="-67.5" font-family="Helvetica,sans-Serif" font-size="10.00" fill="#000000">TooSigning_received</text>
<text text-anchor="middle" x="566.5" y="-56.5" font-family="Helvetica,sans-Serif" font-size="10.00" fill="#000000">_noncelist_find_from_ID</text>
</a>
</g>
</g>
<!-- Node53&#45;&gt;Node62 -->
<g id="edge10" class="edge">
<title>Node53&#45;&gt;Node62</title>
<path fill="none" stroke="#191970" d="M72.3021,-245.4922C88.3318,-221.9729 122.2748,-176.2573 161,-148.5 261.0504,-76.7863 408.6614,-63.4251 495.457,-62.4406"/>
<polygon fill="#191970" stroke="#191970" points="495.4958,-65.9405 505.474,-62.379 495.4527,-58.9407 495.4958,-65.9405"/>
</g>
<!-- Node63 -->
<g id="node11" class="node">
<title>Node63</title>
<g id="a_node11"><a xlink:href="TooNetworking_8cpp.html#a9209f3e1a2fdf0b3b88d49105b8fc359" target="_top" xlink:title="TooNetworking_send\l_signed">
<polygon fill="#ffffff" stroke="#000000" points="169,-158.5 169,-188.5 278,-188.5 278,-158.5 169,-158.5"/>
<text text-anchor="start" x="177" y="-176.5" font-family="Helvetica,sans-Serif" font-size="10.00" fill="#000000">TooNetworking_send</text>
<text text-anchor="middle" x="223.5" y="-165.5" font-family="Helvetica,sans-Serif" font-size="10.00" fill="#000000">_signed</text>
</a>
</g>
</g>
<!-- Node53&#45;&gt;Node63 -->
<g id="edge11" class="edge">
<title>Node53&#45;&gt;Node63</title>
<path fill="none" stroke="#191970" d="M90.5441,-245.3458C117.1275,-230.9808 157.2285,-209.3113 186.4378,-193.5274"/>
<polygon fill="#191970" stroke="#191970" points="188.3739,-196.4596 195.5077,-188.6263 185.0461,-190.3012 188.3739,-196.4596"/>
</g>
<!-- Node56 -->
<g id="node4" class="node">
<title>Node56</title>
<g id="a_node4"><a xlink:href="TooNetworking_8cpp.html#ac352268e177fa2ddf91c8afa5cd04bbf" target="_top" xlink:title="TooNetworking_connection\l_available">
<polygon fill="#ffffff" stroke="#000000" points="665,-245.5 665,-275.5 800,-275.5 800,-245.5 665,-245.5"/>
<text text-anchor="start" x="673" y="-263.5" font-family="Helvetica,sans-Serif" font-size="10.00" fill="#000000">TooNetworking_connection</text>
<text text-anchor="middle" x="732.5" y="-252.5" font-family="Helvetica,sans-Serif" font-size="10.00" fill="#000000">_available</text>
</a>
</g>
</g>
<!-- Node55&#45;&gt;Node56 -->
<g id="edge3" class="edge">
<title>Node55&#45;&gt;Node56</title>
<path fill="none" stroke="#191970" d="M629.2575,-260.5C637.6383,-260.5 646.3124,-260.5 654.9087,-260.5"/>
<polygon fill="#191970" stroke="#191970" points="654.9422,-264.0001 664.9422,-260.5 654.9421,-257.0001 654.9422,-264.0001"/>
</g>
<!-- Node58 -->
<g id="node6" class="node">
<title>Node58</title>
<g id="a_node6"><a xlink:href="TooNetworking_8cpp.html#af4808c2c0857cde9a6721ad54f5ab42d" target="_top" xlink:title="TooNetworking_other\l_node_is_online">
<polygon fill="#ffffff" stroke="#000000" points="677.5,-196.5 677.5,-226.5 787.5,-226.5 787.5,-196.5 677.5,-196.5"/>
<text text-anchor="start" x="685.5" y="-214.5" font-family="Helvetica,sans-Serif" font-size="10.00" fill="#000000">TooNetworking_other</text>
<text text-anchor="middle" x="732.5" y="-203.5" font-family="Helvetica,sans-Serif" font-size="10.00" fill="#000000">_node_is_online</text>
</a>
</g>
</g>
<!-- Node55&#45;&gt;Node58 -->
<g id="edge5" class="edge">
<title>Node55&#45;&gt;Node58</title>
<path fill="none" stroke="#191970" d="M617.66,-245.3986C634.7806,-240.3449 654.0315,-234.6624 671.8078,-229.4152"/>
<polygon fill="#191970" stroke="#191970" points="672.9089,-232.7395 681.5089,-226.5516 670.9272,-226.0259 672.9089,-232.7395"/>
</g>
<!-- Node59 -->
<g id="node7" class="node">
<title>Node59</title>
<g id="a_node7"><a xlink:href="TooNetworking_8cpp.html#a46674b3fdc9ee370b0839869aa145b75" target="_top" xlink:title="TooNetworking_send">
<polygon fill="#ffffff" stroke="#000000" points="678,-295 678,-314 787,-314 787,-295 678,-295"/>
<text text-anchor="middle" x="732.5" y="-302" font-family="Helvetica,sans-Serif" font-size="10.00" fill="#000000">TooNetworking_send</text>
</a>
</g>
</g>
<!-- Node55&#45;&gt;Node59 -->
<g id="edge6" class="edge">
<title>Node55&#45;&gt;Node59</title>
<path fill="none" stroke="#191970" d="M623.1635,-275.5192C643.7988,-280.9888 666.8571,-287.1007 686.4593,-292.2964"/>
<polygon fill="#191970" stroke="#191970" points="685.8008,-295.7427 696.3637,-294.9217 687.5943,-288.9763 685.8008,-295.7427"/>
</g>
<!-- Node55&#45;&gt;Node61 -->
<g id="edge8" class="edge">
<title>Node55&#45;&gt;Node61</title>
<path fill="none" stroke="#191970" d="M602.5407,-275.574C611.4748,-279.905 620.8251,-284.9702 629,-290.5 646.9783,-302.6611 646.4769,-312.186 665,-323.5 668.3244,-325.5305 671.84,-327.4373 675.4509,-329.2202"/>
<polygon fill="#191970" stroke="#191970" points="674.0195,-332.4142 684.5686,-333.3971 676.9349,-326.0502 674.0195,-332.4142"/>
</g>
<!-- Node57 -->
<g id="node5" class="node">
<title>Node57</title>
<g id="a_node5"><a xlink:href="TooNetworking_8cpp.html#aa7924d94ea32c8d33a81ff41f8678320" target="_top" xlink:title="network">
<polygon fill="#ffffff" stroke="#000000" points="836,-251 836,-270 887,-270 887,-251 836,-251"/>
<text text-anchor="middle" x="861.5" y="-258" font-family="Helvetica,sans-Serif" font-size="10.00" fill="#000000">network</text>
</a>
</g>
</g>
<!-- Node56&#45;&gt;Node57 -->
<g id="edge4" class="edge">
<title>Node56&#45;&gt;Node57</title>
<path fill="none" stroke="#191970" d="M800.0225,-260.5C808.9236,-260.5 817.7478,-260.5 825.8151,-260.5"/>
<polygon fill="#191970" stroke="#191970" points="825.9271,-264.0001 835.927,-260.5 825.927,-257.0001 825.9271,-264.0001"/>
</g>
<!-- Node60 -->
<g id="node8" class="node">
<title>Node60</title>
<g id="a_node8"><a xlink:href="TooNetworking_8cpp.html#abdda8f09b9d475ed2c23a2376e2e0151" target="_top" xlink:title="mesh">
<polygon fill="#ffffff" stroke="#000000" points="841,-295 841,-314 882,-314 882,-295 841,-295"/>
<text text-anchor="middle" x="861.5" y="-302" font-family="Helvetica,sans-Serif" font-size="10.00" fill="#000000">mesh</text>
</a>
</g>
</g>
<!-- Node59&#45;&gt;Node60 -->
<g id="edge7" class="edge">
<title>Node59&#45;&gt;Node60</title>
<path fill="none" stroke="#191970" d="M787.2076,-304.5C802.0145,-304.5 817.5264,-304.5 830.5232,-304.5"/>
<polygon fill="#191970" stroke="#191970" points="830.7784,-308.0001 840.7784,-304.5 830.7784,-301.0001 830.7784,-308.0001"/>
</g>
<!-- Node63&#45;&gt;Node62 -->
<g id="edge12" class="edge">
<title>Node63&#45;&gt;Node62</title>
<path fill="none" stroke="#191970" d="M251.316,-158.4126C270.7069,-148.3502 297.4087,-135.3868 322,-126.5 379.121,-105.8577 446.1145,-89.3841 495.5168,-78.6211"/>
<polygon fill="#191970" stroke="#191970" points="496.4286,-82.0051 505.4678,-76.4784 494.9551,-75.1619 496.4286,-82.0051"/>
</g>
<!-- Node64 -->
<g id="node12" class="node">
<title>Node64</title>
<g id="a_node12"><a xlink:href="TooNetworking_8cpp.html#a9f893c3218491ee86282fdcd9f376500" target="_top" xlink:title="TooNetworking_send\l_signed_">
<polygon fill="#ffffff" stroke="#000000" points="512,-196.5 512,-226.5 621,-226.5 621,-196.5 512,-196.5"/>
<text text-anchor="start" x="520" y="-214.5" font-family="Helvetica,sans-Serif" font-size="10.00" fill="#000000">TooNetworking_send</text>
<text text-anchor="middle" x="566.5" y="-203.5" font-family="Helvetica,sans-Serif" font-size="10.00" fill="#000000">_signed_</text>
</a>
</g>
</g>
<!-- Node63&#45;&gt;Node64 -->
<g id="edge13" class="edge">
<title>Node63&#45;&gt;Node64</title>
<path fill="none" stroke="#191970" d="M278.0251,-185.1565C292.284,-187.8916 307.6745,-190.568 322,-192.5 382.6636,-200.6812 452.3061,-205.6659 501.7082,-208.464"/>
<polygon fill="#191970" stroke="#191970" points="501.7546,-211.9718 511.9323,-209.0282 502.1404,-204.9824 501.7546,-211.9718"/>
</g>
<!-- Node66 -->
<g id="node14" class="node">
<title>Node66</title>
<g id="a_node14"><a xlink:href="TooSigning_8cpp.html#a53b55547df3d4276f3ca6a74d601549a" target="_top" xlink:title="TooSigning_requested\l_noncelist_add">
<polygon fill="#ffffff" stroke="#000000" points="510,-98.5 510,-128.5 623,-128.5 623,-98.5 510,-98.5"/>
<text text-anchor="start" x="518" y="-116.5" font-family="Helvetica,sans-Serif" font-size="10.00" fill="#000000">TooSigning_requested</text>
<text text-anchor="middle" x="566.5" y="-105.5" font-family="Helvetica,sans-Serif" font-size="10.00" fill="#000000">_noncelist_add</text>
</a>
</g>
</g>
<!-- Node63&#45;&gt;Node66 -->
<g id="edge16" class="edge">
<title>Node63&#45;&gt;Node66</title>
<path fill="none" stroke="#191970" d="M278.1616,-162.71C292.4187,-159.9632 307.7741,-157.0644 322,-154.5 382.0361,-143.6777 450.541,-132.2712 499.734,-124.2447"/>
<polygon fill="#191970" stroke="#191970" points="500.3099,-127.6972 509.6172,-122.6352 499.1847,-120.7882 500.3099,-127.6972"/>
</g>
<!-- Node70 -->
<g id="node18" class="node">
<title>Node70</title>
<g id="a_node18"><a xlink:href="TooNetworking_8cpp.html#aa8040740e6ffca2f68beb7f8e57d63fc" target="_top" xlink:title="TooNetworking_bufferlist_add">
<polygon fill="#ffffff" stroke="#000000" points="322,-164 322,-183 468,-183 468,-164 322,-164"/>
<text text-anchor="middle" x="395" y="-171" font-family="Helvetica,sans-Serif" font-size="10.00" fill="#000000">TooNetworking_bufferlist_add</text>
</a>
</g>
</g>
<!-- Node63&#45;&gt;Node70 -->
<g id="edge20" class="edge">
<title>Node63&#45;&gt;Node70</title>
<path fill="none" stroke="#191970" d="M278.2352,-173.5C288.8177,-173.5 300.1285,-173.5 311.3901,-173.5"/>
<polygon fill="#191970" stroke="#191970" points="311.6963,-177.0001 321.6963,-173.5 311.6962,-170.0001 311.6963,-177.0001"/>
</g>
<!-- Node64&#45;&gt;Node58 -->
<g id="edge15" class="edge">
<title>Node64&#45;&gt;Node58</title>
<path fill="none" stroke="#191970" d="M621.3147,-211.5C635.9702,-211.5 651.9562,-211.5 667.1196,-211.5"/>
<polygon fill="#191970" stroke="#191970" points="667.4595,-215.0001 677.4595,-211.5 667.4594,-208.0001 667.4595,-215.0001"/>
</g>
<!-- Node65 -->
<g id="node13" class="node">
<title>Node65</title>
<g id="a_node13"><a xlink:href="TooNetworking_8cpp.html#aa7771141375a0a88ce46bb99ab56ee51" target="_top" xlink:title="TooNetworking_this\l_node_is_online">
<polygon fill="#ffffff" stroke="#000000" points="680.5,-147.5 680.5,-177.5 784.5,-177.5 784.5,-147.5 680.5,-147.5"/>
<text text-anchor="start" x="688.5" y="-165.5" font-family="Helvetica,sans-Serif" font-size="10.00" fill="#000000">TooNetworking_this</text>
<text text-anchor="middle" x="732.5" y="-154.5" font-family="Helvetica,sans-Serif" font-size="10.00" fill="#000000">_node_is_online</text>
</a>
</g>
</g>
<!-- Node64&#45;&gt;Node65 -->
<g id="edge14" class="edge">
<title>Node64&#45;&gt;Node65</title>
<path fill="none" stroke="#191970" d="M617.66,-196.3986C634.7806,-191.3449 654.0315,-185.6624 671.8078,-180.4152"/>
<polygon fill="#191970" stroke="#191970" points="672.9089,-183.7395 681.5089,-177.5516 670.9272,-177.0259 672.9089,-183.7395"/>
</g>
<!-- Node67 -->
<g id="node15" class="node">
<title>Node67</title>
<g id="a_node15"><a xlink:href="group__TOOSIGNING__INITIALIZE.html#gafd247c5271ff63bfcde14ef94060002d" target="_top" xlink:title="TooSigning_requested\l_noncelist_initialize">
<polygon fill="#ffffff" stroke="#000000" points="676,-.5 676,-30.5 789,-30.5 789,-.5 676,-.5"/>
<text text-anchor="start" x="684" y="-18.5" font-family="Helvetica,sans-Serif" font-size="10.00" fill="#000000">TooSigning_requested</text>
<text text-anchor="middle" x="732.5" y="-7.5" font-family="Helvetica,sans-Serif" font-size="10.00" fill="#000000">_noncelist_initialize</text>
</a>
</g>
</g>
<!-- Node66&#45;&gt;Node67 -->
<g id="edge17" class="edge">
<title>Node66&#45;&gt;Node67</title>
<path fill="none" stroke="#191970" d="M612.8339,-98.4239C618.5539,-95.5852 624.1025,-92.2919 629,-88.5 650.3677,-71.9563 643.3147,-55.6251 665,-39.5 666.8651,-38.1131 668.8176,-36.8008 670.8348,-35.5596"/>
<polygon fill="#191970" stroke="#191970" points="672.9108,-38.4147 680.0232,-30.562 669.5661,-32.2655 672.9108,-38.4147"/>
</g>
<!-- Node68 -->
<g id="node16" class="node">
<title>Node68</title>
<g id="a_node16"><a xlink:href="TooSigning_8cpp.html#a58143364a83636a3d2df075a95cb2bfc" target="_top" xlink:title="TooSigning_request\l_nonce_from_node_id">
<polygon fill="#ffffff" stroke="#000000" points="676.5,-49.5 676.5,-79.5 788.5,-79.5 788.5,-49.5 676.5,-49.5"/>
<text text-anchor="start" x="684.5" y="-67.5" font-family="Helvetica,sans-Serif" font-size="10.00" fill="#000000">TooSigning_request</text>
<text text-anchor="middle" x="732.5" y="-56.5" font-family="Helvetica,sans-Serif" font-size="10.00" fill="#000000">_nonce_from_node_id</text>
</a>
</g>
</g>
<!-- Node66&#45;&gt;Node68 -->
<g id="edge18" class="edge">
<title>Node66&#45;&gt;Node68</title>
<path fill="none" stroke="#191970" d="M617.66,-98.3986C634.7806,-93.3449 654.0315,-87.6624 671.8078,-82.4152"/>
<polygon fill="#191970" stroke="#191970" points="672.9089,-85.7395 681.5089,-79.5516 670.9272,-79.0259 672.9089,-85.7395"/>
</g>
<!-- Node69 -->
<g id="node17" class="node">
<title>Node69</title>
<g id="a_node17"><a xlink:href="group__TOOSIGNING__DEBUGGING.html#gabb54a5e4968d69e35d665869d5c6588f" target="_top" xlink:title="TooSigning_requested\l_noncelist_print">
<polygon fill="#ffffff" stroke="#000000" points="676,-98.5 676,-128.5 789,-128.5 789,-98.5 676,-98.5"/>
<text text-anchor="start" x="684" y="-116.5" font-family="Helvetica,sans-Serif" font-size="10.00" fill="#000000">TooSigning_requested</text>
<text text-anchor="middle" x="732.5" y="-105.5" font-family="Helvetica,sans-Serif" font-size="10.00" fill="#000000">_noncelist_print</text>
</a>
</g>
</g>
<!-- Node66&#45;&gt;Node69 -->
<g id="edge19" class="edge">
<title>Node66&#45;&gt;Node69</title>
<path fill="none" stroke="#191970" d="M623.1635,-113.5C636.8433,-113.5 651.588,-113.5 665.6847,-113.5"/>
<polygon fill="#191970" stroke="#191970" points="665.8103,-117.0001 675.8102,-113.5 665.8102,-110.0001 665.8103,-117.0001"/>
</g>
<!-- Node70&#45;&gt;Node55 -->
<g id="edge22" class="edge">
<title>Node70&#45;&gt;Node55</title>
<path fill="none" stroke="#191970" d="M410.1671,-183.0089C430.9046,-195.8039 469.4787,-218.8738 504,-235.5 508.2511,-237.5474 512.7159,-239.5709 517.2212,-241.527"/>
<polygon fill="#191970" stroke="#191970" points="515.8967,-244.7669 526.4706,-245.4337 518.6204,-238.3185 515.8967,-244.7669"/>
</g>
<!-- Node70&#45;&gt;Node62 -->
<g id="edge23" class="edge">
<title>Node70&#45;&gt;Node62</title>
<path fill="none" stroke="#191970" d="M405.0843,-163.9378C423.4917,-146.8903 464.3073,-110.9362 504,-88.5 506.8838,-86.8699 509.9001,-85.3054 512.9837,-83.8119"/>
<polygon fill="#191970" stroke="#191970" points="514.7122,-86.8711 522.3711,-79.5505 511.8186,-80.4971 514.7122,-86.8711"/>
</g>
<!-- Node70&#45;&gt;Node64 -->
<g id="edge24" class="edge">
<title>Node70&#45;&gt;Node64</title>
<path fill="none" stroke="#191970" d="M438.2767,-183.089C457.5508,-187.3597 480.6551,-192.479 501.9095,-197.1884"/>
<polygon fill="#191970" stroke="#191970" points="501.3255,-200.6438 511.8459,-199.3901 502.8399,-193.8096 501.3255,-200.6438"/>
</g>
<!-- Node70&#45;&gt;Node66 -->
<g id="edge25" class="edge">
<title>Node70&#45;&gt;Node66</title>
<path fill="none" stroke="#191970" d="M424.9088,-163.9115C438.1467,-159.6046 453.8839,-154.3986 468,-149.5 483.9537,-143.9637 501.2768,-137.7136 516.8828,-131.9935"/>
<polygon fill="#191970" stroke="#191970" points="518.173,-135.2483 526.3503,-128.5116 515.7568,-128.6785 518.173,-135.2483"/>
</g>
<!-- Node71 -->
<g id="node19" class="node">
<title>Node71</title>
<g id="a_node19"><a xlink:href="TooNetworking_8cpp.html#aa8a4e879d4d71fed2a8940cf93b75ae4" target="_top" xlink:title="TooNetworking_bufferlist\l_initialize">
<polygon fill="#ffffff" stroke="#000000" points="504,-147.5 504,-177.5 629,-177.5 629,-147.5 504,-147.5"/>
<text text-anchor="start" x="512" y="-165.5" font-family="Helvetica,sans-Serif" font-size="10.00" fill="#000000">TooNetworking_bufferlist</text>
<text text-anchor="middle" x="566.5" y="-154.5" font-family="Helvetica,sans-Serif" font-size="10.00" fill="#000000">_initialize</text>
</a>
</g>
</g>
<!-- Node70&#45;&gt;Node71 -->
<g id="edge21" class="edge">
<title>Node70&#45;&gt;Node71</title>
<path fill="none" stroke="#191970" d="M468.2289,-168.8031C476.6431,-168.2634 485.2217,-167.7132 493.6312,-167.1738"/>
<polygon fill="#191970" stroke="#191970" points="494.0271,-170.6557 503.7826,-166.5227 493.579,-163.67 494.0271,-170.6557"/>
</g>
</g>
</svg>
        <g id="navigator" transform="translate(0 0)" fill="#404254">
                <rect fill="#f2f5e9" fill-opacity="0.5" stroke="#606060" stroke-width=".5" x="0" y="0" width="60" height="60"/>
                <use id="zoomplus" xlink:href="#zoomPlus" x="17" y="9" onmousedown="handleZoom(evt,'in')"/>
                <use id="zoomminus" xlink:href="#zoomMin" x="42" y="9" onmousedown="handleZoom(evt,'out')"/>
                <use id="reset" xlink:href="#resetDef" x="30" y="36" onmousedown="handleReset()"/>
                <g id="arrowUp" xlink:href="#dirArrow" transform="translate(30 24)" onmousedown="handlePan(0,-1)">
                  <use xlink:href="#rim" fill="#404040">
                        <set attributeName="fill" to="#808080" begin="arrowUp.mouseover" end="arrowUp.mouseout"/>
                  </use>
                  <path fill="none" stroke="white" stroke-width="1.5" d="M0,-3.0v7 M-2.5,-0.5L0,-3.0L2.5,-0.5"/>
                </g>
                <g id="arrowRight" xlink:href="#dirArrow" transform="rotate(90) translate(36 -43)" onmousedown="handlePan(1,0)">
                  <use xlink:href="#rim" fill="#404040">
                        <set attributeName="fill" to="#808080" begin="arrowRight.mouseover" end="arrowRight.mouseout"/>
                  </use>
                  <path fill="none" stroke="white" stroke-width="1.5" d="M0,-3.0v7 M-2.5,-0.5L0,-3.0L2.5,-0.5"/>
                </g>
                <g id="arrowDown" xlink:href="#dirArrow" transform="rotate(180) translate(-30 -48)" onmousedown="handlePan(0,1)">
                  <use xlink:href="#rim" fill="#404040">
                        <set attributeName="fill" to="#808080" begin="arrowDown.mouseover" end="arrowDown.mouseout"/>
                  </use>
                  <path fill="none" stroke="white" stroke-width="1.5" d="M0,-3.0v7 M-2.5,-0.5L0,-3.0L2.5,-0.5"/>
                </g>
                <g id="arrowLeft" xlink:href="#dirArrow" transform="rotate(270) translate(-36 17)" onmousedown="handlePan(-1,0)">
                  <use xlink:href="#rim" fill="#404040">
                        <set attributeName="fill" to="#808080" begin="arrowLeft.mouseover" end="arrowLeft.mouseout"/>
                  </use>
                  <path fill="none" stroke="white" stroke-width="1.5" d="M0,-3.0v7 M-2.5,-0.5L0,-3.0L2.5,-0.5"/>
                </g>
        </g>
        <svg viewBox="0 0 15 15" width="100%" height="30px" preserveAspectRatio="xMaxYMin meet">
         <g id="arrow_out" transform="scale(0.3 0.3)">
          <a xlink:href="TooNetworking_8h_ab58e06e0eb6f2f8ecbebeaf3c173fb22_cgraph_org.svg" target="_base">
           <rect id="button" ry="5" rx="5" y="6" x="6" height="38" width="38"
                fill="#f2f5e9" fill-opacity="0.5" stroke="#606060" stroke-width="1.0"/>
           <path id="arrow"
             d="M 11.500037,31.436501 C 11.940474,20.09759 22.043105,11.32322 32.158766,21.979434 L 37.068811,17.246167 C 37.068811,17.246167 37.088388,32 37.088388,32 L 22.160133,31.978069 C 22.160133,31.978069 26.997745,27.140456 26.997745,27.140456 C 18.528582,18.264221 13.291696,25.230495 11.500037,31.436501 z"
             style="fill:#404040;"/>
          </a>
         </g>
        </svg>
</svg>
