<?xml version="1.0" encoding="UTF-8" standalone="no"?>
<!DOCTYPE svg PUBLIC "-//W3C//DTD SVG 1.1//EN"
 "http://www.w3.org/Graphics/SVG/1.1/DTD/svg11.dtd">
<!-- Generated by graphviz version 2.40.1 (20161225.0304)
 -->
<!-- Title: TooNetworking_bufferlist_initialize Pages: 1 -->
<svg width="692pt" height="94pt"
 viewBox="0.00 0.00 692.00 94.00" xmlns="http://www.w3.org/2000/svg" xmlns:xlink="http://www.w3.org/1999/xlink">
<g id="graph0" class="graph" transform="scale(1 1) rotate(0) translate(4 90)">
<title>TooNetworking_bufferlist_initialize</title>
<polygon fill="#ffffff" stroke="transparent" points="-4,4 -4,-90 688,-90 688,4 -4,4"/>
<!-- Node31 -->
<g id="node1" class="node">
<title>Node31</title>
<polygon fill="#bfbfbf" stroke="#000000" points="0,-.5 0,-30.5 125,-30.5 125,-.5 0,-.5"/>
<text text-anchor="start" x="8" y="-18.5" font-family="Helvetica,sans-Serif" font-size="10.00" fill="#000000">TooNetworking_bufferlist</text>
<text text-anchor="middle" x="62.5" y="-7.5" font-family="Helvetica,sans-Serif" font-size="10.00" fill="#000000">_initialize</text>
</g>
<!-- Node32 -->
<g id="node2" class="node">
<title>Node32</title>
<g id="a_node2"><a xlink:href="TooNetworking_8h.html#a59be7e774988f57ab43c4c078c570c67" target="_top" xlink:title="TooNetworking_bufferlist_add">
<polygon fill="#ffffff" stroke="#000000" points="161,-6 161,-25 307,-25 307,-6 161,-6"/>
<text text-anchor="middle" x="234" y="-13" font-family="Helvetica,sans-Serif" font-size="10.00" fill="#000000">TooNetworking_bufferlist_add</text>
</a>
</g>
</g>
<!-- Node31&#45;&gt;Node32 -->
<g id="edge1" class="edge">
<title>Node31&#45;&gt;Node32</title>
<path fill="none" stroke="#191970" d="M135.5451,-15.5C143.9597,-15.5 152.5412,-15.5 160.9558,-15.5"/>
<polygon fill="#191970" stroke="#191970" points="135.3865,-12.0001 125.3864,-15.5 135.3864,-19.0001 135.3865,-12.0001"/>
</g>
<!-- Node33 -->
<g id="node3" class="node">
<title>Node33</title>
<g id="a_node3"><a xlink:href="TooNetworking_8h.html#a9209f3e1a2fdf0b3b88d49105b8fc359" target="_top" xlink:title="TooNetworking_send\l_signed">
<polygon fill="#ffffff" stroke="#000000" points="343,-.5 343,-30.5 452,-30.5 452,-.5 343,-.5"/>
<text text-anchor="start" x="351" y="-18.5" font-family="Helvetica,sans-Serif" font-size="10.00" fill="#000000">TooNetworking_send</text>
<text text-anchor="middle" x="397.5" y="-7.5" font-family="Helvetica,sans-Serif" font-size="10.00" fill="#000000">_signed</text>
</a>
</g>
</g>
<!-- Node32&#45;&gt;Node33 -->
<g id="edge2" class="edge">
<title>Node32&#45;&gt;Node33</title>
<path fill="none" stroke="#191970" d="M317.2213,-8.751C325.8182,-8.7623 334.3934,-8.8732 342.5665,-9.0837"/>
<polygon fill="#191970" stroke="#191970" points="317.1308,-5.2511 307.1421,-8.7834 317.1534,-12.2511 317.1308,-5.2511"/>
</g>
<!-- Node34 -->
<g id="node4" class="node">
<title>Node34</title>
<g id="a_node4"><a xlink:href="TooNetworking_8h.html#a085ff748b00f6be4ebafcae2bb0dded1" target="_top" xlink:title="TooNetworking_bufferlist\l_send_signed">
<polygon fill="#ffffff" stroke="#000000" points="488,-55.5 488,-85.5 613,-85.5 613,-55.5 488,-55.5"/>
<text text-anchor="start" x="496" y="-73.5" font-family="Helvetica,sans-Serif" font-size="10.00" fill="#000000">TooNetworking_bufferlist</text>
<text text-anchor="middle" x="550.5" y="-62.5" font-family="Helvetica,sans-Serif" font-size="10.00" fill="#000000">_send_signed</text>
</a>
</g>
</g>
<!-- Node32&#45;&gt;Node34 -->
<g id="edge8" class="edge">
<title>Node32&#45;&gt;Node34</title>
<path fill="none" stroke="#191970" d="M262.758,-29.3656C284.3131,-39.0634 314.8234,-51.3417 343,-57.5 390.7807,-67.9431 446.1133,-70.9732 487.6173,-71.512"/>
<polygon fill="#191970" stroke="#191970" points="264.073,-26.1181 253.525,-25.1227 261.15,-32.4787 264.073,-26.1181"/>
</g>
<!-- Node33&#45;&gt;Node32 -->
<g id="edge3" class="edge">
<title>Node33&#45;&gt;Node32</title>
<path fill="none" stroke="#191970" d="M332.5351,-22.1219C324.1918,-22.2509 315.6048,-22.2825 307.1421,-22.2166"/>
<polygon fill="#191970" stroke="#191970" points="332.6403,-25.6206 342.5665,-21.9163 332.4968,-18.6221 332.6403,-25.6206"/>
</g>
<!-- Node33&#45;&gt;Node33 -->
<g id="edge4" class="edge">
<title>Node33&#45;&gt;Node33</title>
<path fill="none" stroke="#191970" d="M370.4914,-40.9579C373.8436,-45.679 382.8464,-49 397.5,-49 421.5469,-49 430.3766,-40.0566 423.9891,-30.659"/>
<polygon fill="#191970" stroke="#191970" points="374.0026,-40.8226 371.0109,-30.659 367.0115,-40.47 374.0026,-40.8226"/>
</g>
<!-- Node33&#45;&gt;Node34 -->
<g id="edge5" class="edge">
<title>Node33&#45;&gt;Node34</title>
<path fill="none" stroke="#191970" d="M448.9334,-33.9891C468.3908,-40.9836 490.2806,-48.8525 508.7426,-55.4892"/>
<polygon fill="#191970" stroke="#191970" points="449.9024,-30.6182 439.3079,-30.529 447.5344,-37.2056 449.9024,-30.6182"/>
</g>
<!-- Node36 -->
<g id="node6" class="node">
<title>Node36</title>
<g id="a_node6"><a xlink:href="TooNetworking_8h.html#ab58e06e0eb6f2f8ecbebeaf3c173fb22" target="_top" xlink:title="TooNetworking_bufferlist\l_send_all">
<polygon fill="#ffffff" stroke="#000000" points="488,-.5 488,-30.5 613,-30.5 613,-.5 488,-.5"/>
<text text-anchor="start" x="496" y="-18.5" font-family="Helvetica,sans-Serif" font-size="10.00" fill="#000000">TooNetworking_bufferlist</text>
<text text-anchor="middle" x="550.5" y="-7.5" font-family="Helvetica,sans-Serif" font-size="10.00" fill="#000000">_send_all</text>
</a>
</g>
</g>
<!-- Node33&#45;&gt;Node36 -->
<g id="edge7" class="edge">
<title>Node33&#45;&gt;Node36</title>
<path fill="none" stroke="#191970" d="M462.4187,-15.5C470.811,-15.5 479.3936,-15.5 487.7499,-15.5"/>
<polygon fill="#191970" stroke="#191970" points="462.3044,-12.0001 452.3044,-15.5 462.3043,-19.0001 462.3044,-12.0001"/>
</g>
<!-- Node35 -->
<g id="node5" class="node">
<title>Node35</title>
<g id="a_node5"><a xlink:href="NODE__SKETCH__TooAutomation__Node_8ino_8cpp.html#a0b33edabd7f1c4e4a0bf32c67269be2f" target="_top" xlink:title="loop">
<polygon fill="#ffffff" stroke="#000000" points="649,-61 649,-80 684,-80 684,-61 649,-61"/>
<text text-anchor="middle" x="666.5" y="-68" font-family="Helvetica,sans-Serif" font-size="10.00" fill="#000000">loop</text>
</a>
</g>
</g>
<!-- Node34&#45;&gt;Node35 -->
<g id="edge6" class="edge">
<title>Node34&#45;&gt;Node35</title>
<path fill="none" stroke="#191970" d="M623.5149,-70.5C632.8175,-70.5 641.5667,-70.5 648.7123,-70.5"/>
<polygon fill="#191970" stroke="#191970" points="623.2531,-67.0001 613.2531,-70.5 623.253,-74.0001 623.2531,-67.0001"/>
</g>
</g>
</svg>
