<?xml version="1.0" encoding="UTF-8" standalone="no"?>
<!DOCTYPE svg PUBLIC "-//W3C//DTD SVG 1.1//EN"
 "http://www.w3.org/Graphics/SVG/1.1/DTD/svg11.dtd">
<!-- Generated by graphviz version 2.40.1 (20161225.0304)
 -->
<!-- Title: TooNetworking_begin Pages: 1 -->
<svg width="635pt" height="137pt"
 viewBox="0.00 0.00 635.00 137.00" xmlns="http://www.w3.org/2000/svg" xmlns:xlink="http://www.w3.org/1999/xlink">
<g id="graph0" class="graph" transform="scale(1 1) rotate(0) translate(4 133)">
<title>TooNetworking_begin</title>
<polygon fill="#ffffff" stroke="transparent" points="-4,4 -4,-133 631,-133 631,4 -4,4"/>
<!-- Node28 -->
<g id="node1" class="node">
<title>Node28</title>
<polygon fill="#bfbfbf" stroke="#000000" points="0,-55 0,-74 111,-74 111,-55 0,-55"/>
<text text-anchor="middle" x="55.5" y="-62" font-family="Helvetica,sans-Serif" font-size="10.00" fill="#000000">TooNetworking_begin</text>
</g>
<!-- Node29 -->
<g id="node2" class="node">
<title>Node29</title>
<g id="a_node2"><a xlink:href="TooNetworking_8cpp.html#aec97902cf0d3ec10fd86927f3d1df0c6" target="_top" xlink:title="TooNetworking_connection\l_begin">
<polygon fill="#ffffff" stroke="#000000" points="147,-49.5 147,-79.5 282,-79.5 282,-49.5 147,-49.5"/>
<text text-anchor="start" x="155" y="-67.5" font-family="Helvetica,sans-Serif" font-size="10.00" fill="#000000">TooNetworking_connection</text>
<text text-anchor="middle" x="214.5" y="-56.5" font-family="Helvetica,sans-Serif" font-size="10.00" fill="#000000">_begin</text>
</a>
</g>
</g>
<!-- Node28&#45;&gt;Node29 -->
<g id="edge1" class="edge">
<title>Node28&#45;&gt;Node29</title>
<path fill="none" stroke="#191970" d="M111.1105,-64.5C119.4137,-64.5 128.1002,-64.5 136.7589,-64.5"/>
<polygon fill="#191970" stroke="#191970" points="136.886,-68.0001 146.886,-64.5 136.8859,-61.0001 136.886,-68.0001"/>
</g>
<!-- Node30 -->
<g id="node3" class="node">
<title>Node30</title>
<g id="a_node3"><a xlink:href="TooNetworking_8cpp.html#abdda8f09b9d475ed2c23a2376e2e0151" target="_top" xlink:title="mesh">
<polygon fill="#ffffff" stroke="#000000" points="367,-99 367,-118 408,-118 408,-99 367,-99"/>
<text text-anchor="middle" x="387.5" y="-106" font-family="Helvetica,sans-Serif" font-size="10.00" fill="#000000">mesh</text>
</a>
</g>
</g>
<!-- Node29&#45;&gt;Node30 -->
<g id="edge2" class="edge">
<title>Node29&#45;&gt;Node30</title>
<path fill="none" stroke="#191970" d="M273.5529,-79.5192C301.5647,-86.6436 333.8605,-94.8576 356.9006,-100.7175"/>
<polygon fill="#191970" stroke="#191970" points="356.2324,-104.1589 366.7866,-103.2318 357.9578,-97.3749 356.2324,-104.1589"/>
</g>
<!-- Node31 -->
<g id="node4" class="node">
<title>Node31</title>
<g id="a_node4"><a xlink:href="TooSigning_8cpp.html#ad5ac4cd2c5bebd755a11b7d68da10bb5" target="_top" xlink:title="TooSigning_signed_network\l_begin">
<polygon fill="#ffffff" stroke="#000000" points="318,-49.5 318,-79.5 457,-79.5 457,-49.5 318,-49.5"/>
<text text-anchor="start" x="326" y="-67.5" font-family="Helvetica,sans-Serif" font-size="10.00" fill="#000000">TooSigning_signed_network</text>
<text text-anchor="middle" x="387.5" y="-56.5" font-family="Helvetica,sans-Serif" font-size="10.00" fill="#000000">_begin</text>
</a>
</g>
</g>
<!-- Node29&#45;&gt;Node31 -->
<g id="edge3" class="edge">
<title>Node29&#45;&gt;Node31</title>
<path fill="none" stroke="#191970" d="M282.3776,-64.5C290.6554,-64.5 299.172,-64.5 307.6044,-64.5"/>
<polygon fill="#191970" stroke="#191970" points="307.8267,-68.0001 317.8266,-64.5 307.8266,-61.0001 307.8267,-68.0001"/>
</g>
<!-- Node35 -->
<g id="node8" class="node">
<title>Node35</title>
<g id="a_node8"><a xlink:href="TooNetworking_8cpp.html#a173f695381b08642c89a68cdcd76a5d4" target="_top" xlink:title="radio">
<polygon fill="#ffffff" stroke="#000000" points="368.5,-11 368.5,-30 406.5,-30 406.5,-11 368.5,-11"/>
<text text-anchor="middle" x="387.5" y="-18" font-family="Helvetica,sans-Serif" font-size="10.00" fill="#000000">radio</text>
</a>
</g>
</g>
<!-- Node29&#45;&gt;Node35 -->
<g id="edge7" class="edge">
<title>Node29&#45;&gt;Node35</title>
<path fill="none" stroke="#191970" d="M273.5529,-49.4808C302.2437,-42.1837 335.4289,-33.7435 358.5597,-27.8605"/>
<polygon fill="#191970" stroke="#191970" points="359.5988,-31.2078 368.4276,-25.3508 357.8734,-24.4237 359.5988,-31.2078"/>
</g>
<!-- Node32 -->
<g id="node5" class="node">
<title>Node32</title>
<g id="a_node5"><a xlink:href="group__TOOSIGNING__INITIALIZE.html#ga24011c99b90b9070adb424cee01a3fc2" target="_top" xlink:title="TooSigning_received\l_noncelist_initialize">
<polygon fill="#ffffff" stroke="#000000" points="506.5,-98.5 506.5,-128.5 613.5,-128.5 613.5,-98.5 506.5,-98.5"/>
<text text-anchor="start" x="514.5" y="-116.5" font-family="Helvetica,sans-Serif" font-size="10.00" fill="#000000">TooSigning_received</text>
<text text-anchor="middle" x="560" y="-105.5" font-family="Helvetica,sans-Serif" font-size="10.00" fill="#000000">_noncelist_initialize</text>
</a>
</g>
</g>
<!-- Node31&#45;&gt;Node32 -->
<g id="edge4" class="edge">
<title>Node31&#45;&gt;Node32</title>
<path fill="none" stroke="#191970" d="M440.6632,-79.6014C458.5366,-84.6785 478.6442,-90.3902 497.1878,-95.6577"/>
<polygon fill="#191970" stroke="#191970" points="496.4365,-99.0827 507.0123,-98.4484 498.3493,-92.3491 496.4365,-99.0827"/>
</g>
<!-- Node33 -->
<g id="node6" class="node">
<title>Node33</title>
<g id="a_node6"><a xlink:href="group__TOOSIGNING__INITIALIZE.html#gafd247c5271ff63bfcde14ef94060002d" target="_top" xlink:title="TooSigning_requested\l_noncelist_initialize">
<polygon fill="#ffffff" stroke="#000000" points="503.5,-49.5 503.5,-79.5 616.5,-79.5 616.5,-49.5 503.5,-49.5"/>
<text text-anchor="start" x="511.5" y="-67.5" font-family="Helvetica,sans-Serif" font-size="10.00" fill="#000000">TooSigning_requested</text>
<text text-anchor="middle" x="560" y="-56.5" font-family="Helvetica,sans-Serif" font-size="10.00" fill="#000000">_noncelist_initialize</text>
</a>
</g>
</g>
<!-- Node31&#45;&gt;Node33 -->
<g id="edge5" class="edge">
<title>Node31&#45;&gt;Node33</title>
<path fill="none" stroke="#191970" d="M457.1651,-64.5C469.0258,-64.5 481.3213,-64.5 493.1082,-64.5"/>
<polygon fill="#191970" stroke="#191970" points="493.3118,-68.0001 503.3117,-64.5 493.3117,-61.0001 493.3118,-68.0001"/>
</g>
<!-- Node34 -->
<g id="node7" class="node">
<title>Node34</title>
<g id="a_node7"><a xlink:href="group__TOOSIGNING__INITIALIZE.html#ga0ad0c6af4c20b80f75ccf3d4a2804a0c" target="_top" xlink:title="TooSigning_sent_noncelist\l_initialize">
<polygon fill="#ffffff" stroke="#000000" points="493,-.5 493,-30.5 627,-30.5 627,-.5 493,-.5"/>
<text text-anchor="start" x="501" y="-18.5" font-family="Helvetica,sans-Serif" font-size="10.00" fill="#000000">TooSigning_sent_noncelist</text>
<text text-anchor="middle" x="560" y="-7.5" font-family="Helvetica,sans-Serif" font-size="10.00" fill="#000000">_initialize</text>
</a>
</g>
</g>
<!-- Node31&#45;&gt;Node34 -->
<g id="edge6" class="edge">
<title>Node31&#45;&gt;Node34</title>
<path fill="none" stroke="#191970" d="M440.6632,-49.3986C458.5366,-44.3215 478.6442,-38.6098 497.1878,-33.3423"/>
<polygon fill="#191970" stroke="#191970" points="498.3493,-36.6509 507.0123,-30.5516 496.4365,-29.9173 498.3493,-36.6509"/>
</g>
</g>
</svg>
