<?xml version="1.0" encoding="UTF-8" standalone="no"?>
<!DOCTYPE svg PUBLIC "-//W3C//DTD SVG 1.1//EN"
 "http://www.w3.org/Graphics/SVG/1.1/DTD/svg11.dtd">
<!-- Generated by graphviz version 2.40.1 (20161225.0304)
 -->
<!-- Title: TooNetworking_bufferlist_add Pages: 1 -->
<!--zoomable 144 -->
<svg id="main" version="1.1" xmlns="http://www.w3.org/2000/svg" xmlns:xlink="http://www.w3.org/1999/xlink" xml:space="preserve" onload="init(evt)">
<style type="text/css"><![CDATA[
.edge:hover path { stroke: red; }
.edge:hover polygon { stroke: red; fill: red; }
]]></style>
<script type="text/javascript"><![CDATA[
var edges = document.getElementsByTagName('g');
if (edges && edges.length) {
  for (var i=0;i<edges.length;i++) {
    if (edges[i].id.substr(0,4)=='edge') {
      edges[i].setAttribute('class','edge');
    }
  }
}
]]></script>
        <defs>
                <circle id="rim" cx="0" cy="0" r="7"/>
                <circle id="rim2" cx="0" cy="0" r="3.5"/>
                <g id="zoomPlus">
                        <use xlink:href="#rim" fill="#404040">
                                <set attributeName="fill" to="#808080" begin="zoomplus.mouseover" end="zoomplus.mouseout"/>
                        </use>
                        <path d="M-4,0h8M0,-4v8" fill="none" stroke="white" stroke-width="1.5" pointer-events="none"/>
                </g>
                <g id="zoomMin">
                        <use xlink:href="#rim" fill="#404040">
                                <set attributeName="fill" to="#808080" begin="zoomminus.mouseover" end="zoomminus.mouseout"/>
                        </use>
                        <path d="M-4,0h8" fill="none" stroke="white" stroke-width="1.5" pointer-events="none"/>
                </g>
                <g id="dirArrow">
                        <path fill="none" stroke="white" stroke-width="1.5" d="M0,-3.0v7 M-2.5,-0.5L0,-3.0L2.5,-0.5"/>
                </g>
               <g id="resetDef">
                       <use xlink:href="#rim2" fill="#404040">
                               <set attributeName="fill" to="#808080" begin="reset.mouseover" end="reset.mouseout"/>
                       </use>
               </g>
        </defs>

<script type="text/javascript">
var viewWidth = 713;
var viewHeight = 144;
var sectionId = 'dynsection-5';
</script>
<script xlink:href="svgpan.js"/>
<svg id="graph" class="graph">
<g id="viewport">
<title>TooNetworking_bufferlist_add</title>
<polygon fill="#ffffff" stroke="transparent" points="-4,4 -4,-139.9057 709,-139.9057 709,4 -4,4"/>
<!-- Node54 -->
<g id="node1" class="node">
<title>Node54</title>
<polygon fill="#bfbfbf" stroke="#000000" points="0,-34.4057 0,-53.4057 146,-53.4057 146,-34.4057 0,-34.4057"/>
<text text-anchor="middle" x="73" y="-41.4057" font-family="Helvetica,sans-Serif" font-size="10.00" fill="#000000">TooNetworking_bufferlist_add</text>
</g>
<!-- Node55 -->
<g id="node2" class="node">
<title>Node55</title>
<g id="a_node2"><a xlink:href="TooNetworking_8h.html#a9209f3e1a2fdf0b3b88d49105b8fc359" target="_top" xlink:title="TooNetworking_send\l_signed">
<polygon fill="#ffffff" stroke="#000000" points="182,-72.9057 182,-102.9057 291,-102.9057 291,-72.9057 182,-72.9057"/>
<text text-anchor="start" x="190" y="-90.9057" font-family="Helvetica,sans-Serif" font-size="10.00" fill="#000000">TooNetworking_send</text>
<text text-anchor="middle" x="236.5" y="-79.9057" font-family="Helvetica,sans-Serif" font-size="10.00" fill="#000000">_signed</text>
</a>
</g>
</g>
<!-- Node54&#45;&gt;Node55 -->
<g id="edge1" class="edge">
<title>Node54&#45;&gt;Node55</title>
<path fill="none" stroke="#191970" d="M118.398,-56.1229C138.0445,-61.4101 161.2084,-67.6438 181.794,-73.1836"/>
<polygon fill="#191970" stroke="#191970" points="119.0431,-52.6721 108.4771,-53.4531 117.2239,-59.4316 119.0431,-52.6721"/>
</g>
<!-- Node57 -->
<g id="node4" class="node">
<title>Node57</title>
<g id="a_node4"><a xlink:href="TooNetworking_8h.html#a085ff748b00f6be4ebafcae2bb0dded1" target="_top" xlink:title="TooNetworking_bufferlist\l_send_signed">
<polygon fill="#ffffff" stroke="#000000" points="509,-72.9057 509,-102.9057 634,-102.9057 634,-72.9057 509,-72.9057"/>
<text text-anchor="start" x="517" y="-90.9057" font-family="Helvetica,sans-Serif" font-size="10.00" fill="#000000">TooNetworking_bufferlist</text>
<text text-anchor="middle" x="571.5" y="-79.9057" font-family="Helvetica,sans-Serif" font-size="10.00" fill="#000000">_send_signed</text>
</a>
</g>
</g>
<!-- Node54&#45;&gt;Node57 -->
<g id="edge9" class="edge">
<title>Node54&#45;&gt;Node57</title>
<path fill="none" stroke="#191970" d="M114.3982,-31.7182C188.3524,-12.0275 347.1975,20.7736 473,-18.9057 506.4523,-29.4569 538.4188,-55.8755 556.443,-72.7915"/>
<polygon fill="#191970" stroke="#191970" points="113.269,-28.3981 104.5386,-34.4007 115.1067,-35.1526 113.269,-28.3981"/>
</g>
<!-- Node55&#45;&gt;Node55 -->
<g id="edge6" class="edge">
<title>Node55&#45;&gt;Node55</title>
<path fill="none" stroke="#191970" d="M207.7146,-113.3636C211.2872,-118.0847 220.8824,-121.4057 236.5,-121.4057 262.1289,-121.4057 271.5395,-112.4623 264.7318,-103.0647"/>
<polygon fill="#191970" stroke="#191970" points="211.2263,-113.2382 208.2682,-103.0647 204.2364,-112.8624 211.2263,-113.2382"/>
</g>
<!-- Node56 -->
<g id="node3" class="node">
<title>Node56</title>
<g id="a_node3"><a xlink:href="TooNetworking_8h.html#a59be7e774988f57ab43c4c078c570c67" target="_top" xlink:title="TooNetworking_bufferlist_add">
<polygon fill="#ffffff" stroke="#000000" points="327,-116.4057 327,-135.4057 473,-135.4057 473,-116.4057 327,-116.4057"/>
<text text-anchor="middle" x="400" y="-123.4057" font-family="Helvetica,sans-Serif" font-size="10.00" fill="#000000">TooNetworking_bufferlist_add</text>
</a>
</g>
</g>
<!-- Node55&#45;&gt;Node56 -->
<g id="edge2" class="edge">
<title>Node55&#45;&gt;Node56</title>
<path fill="none" stroke="#191970" d="M301.4314,-96.3754C329.0612,-102.369 359.3701,-110.0536 378.9834,-116.3209"/>
<polygon fill="#191970" stroke="#191970" points="301.9063,-92.8984 291.398,-94.2495 300.4553,-99.7464 301.9063,-92.8984"/>
</g>
<!-- Node55&#45;&gt;Node57 -->
<g id="edge7" class="edge">
<title>Node55&#45;&gt;Node57</title>
<path fill="none" stroke="#191970" d="M301.1738,-87.9057C361.1187,-87.9057 449.722,-87.9057 508.971,-87.9057"/>
<polygon fill="#191970" stroke="#191970" points="301.0692,-84.4058 291.0691,-87.9057 301.0691,-91.4058 301.0692,-84.4058"/>
</g>
<!-- Node59 -->
<g id="node6" class="node">
<title>Node59</title>
<g id="a_node6"><a xlink:href="TooNetworking_8h.html#ab58e06e0eb6f2f8ecbebeaf3c173fb22" target="_top" xlink:title="TooNetworking_bufferlist\l_send_all">
<polygon fill="#ffffff" stroke="#000000" points="337.5,-28.9057 337.5,-58.9057 462.5,-58.9057 462.5,-28.9057 337.5,-28.9057"/>
<text text-anchor="start" x="345.5" y="-46.9057" font-family="Helvetica,sans-Serif" font-size="10.00" fill="#000000">TooNetworking_bufferlist</text>
<text text-anchor="middle" x="400" y="-35.9057" font-family="Helvetica,sans-Serif" font-size="10.00" fill="#000000">_send_all</text>
</a>
</g>
</g>
<!-- Node55&#45;&gt;Node59 -->
<g id="edge8" class="edge">
<title>Node55&#45;&gt;Node59</title>
<path fill="none" stroke="#191970" d="M301.1084,-70.5188C315.3343,-66.6904 330.2854,-62.6669 344.1319,-58.9406"/>
<polygon fill="#191970" stroke="#191970" points="300.1449,-67.1535 291.398,-73.132 301.964,-73.913 300.1449,-67.1535"/>
</g>
<!-- Node56&#45;&gt;Node55 -->
<g id="edge3" class="edge">
<title>Node56&#45;&gt;Node55</title>
<path fill="none" stroke="#191970" d="M320.1178,-114.0883C304.8093,-110.556 289.4133,-106.6877 276.0788,-102.9827"/>
<polygon fill="#191970" stroke="#191970" points="319.6167,-117.5633 330.1425,-116.3558 321.1612,-110.7358 319.6167,-117.5633"/>
</g>
<!-- Node56&#45;&gt;Node57 -->
<g id="edge4" class="edge">
<title>Node56&#45;&gt;Node57</title>
<path fill="none" stroke="#191970" d="M453.3451,-114.0858C470.9093,-110.194 490.6003,-105.831 508.7958,-101.7994"/>
<polygon fill="#191970" stroke="#191970" points="452.2827,-110.7362 443.2767,-116.3167 453.7971,-117.5705 452.2827,-110.7362"/>
</g>
<!-- Node58 -->
<g id="node5" class="node">
<title>Node58</title>
<g id="a_node5"><a xlink:href="NODE__SKETCH__TooAutomation__Node_8ino_8cpp.html#a0b33edabd7f1c4e4a0bf32c67269be2f" target="_top" xlink:title="loop">
<polygon fill="#ffffff" stroke="#000000" points="670,-78.4057 670,-97.4057 705,-97.4057 705,-78.4057 670,-78.4057"/>
<text text-anchor="middle" x="687.5" y="-85.4057" font-family="Helvetica,sans-Serif" font-size="10.00" fill="#000000">loop</text>
</a>
</g>
</g>
<!-- Node57&#45;&gt;Node58 -->
<g id="edge5" class="edge">
<title>Node57&#45;&gt;Node58</title>
<path fill="none" stroke="#191970" d="M644.5149,-87.9057C653.8175,-87.9057 662.5667,-87.9057 669.7123,-87.9057"/>
<polygon fill="#191970" stroke="#191970" points="644.2531,-84.4058 634.2531,-87.9057 644.253,-91.4058 644.2531,-84.4058"/>
</g>
</g>
</svg>
        <g id="navigator" transform="translate(0 0)" fill="#404254">
                <rect fill="#f2f5e9" fill-opacity="0.5" stroke="#606060" stroke-width=".5" x="0" y="0" width="60" height="60"/>
                <use id="zoomplus" xlink:href="#zoomPlus" x="17" y="9" onmousedown="handleZoom(evt,'in')"/>
                <use id="zoomminus" xlink:href="#zoomMin" x="42" y="9" onmousedown="handleZoom(evt,'out')"/>
                <use id="reset" xlink:href="#resetDef" x="30" y="36" onmousedown="handleReset()"/>
                <g id="arrowUp" xlink:href="#dirArrow" transform="translate(30 24)" onmousedown="handlePan(0,-1)">
                  <use xlink:href="#rim" fill="#404040">
                        <set attributeName="fill" to="#808080" begin="arrowUp.mouseover" end="arrowUp.mouseout"/>
                  </use>
                  <path fill="none" stroke="white" stroke-width="1.5" d="M0,-3.0v7 M-2.5,-0.5L0,-3.0L2.5,-0.5"/>
                </g>
                <g id="arrowRight" xlink:href="#dirArrow" transform="rotate(90) translate(36 -43)" onmousedown="handlePan(1,0)">
                  <use xlink:href="#rim" fill="#404040">
                        <set attributeName="fill" to="#808080" begin="arrowRight.mouseover" end="arrowRight.mouseout"/>
                  </use>
                  <path fill="none" stroke="white" stroke-width="1.5" d="M0,-3.0v7 M-2.5,-0.5L0,-3.0L2.5,-0.5"/>
                </g>
                <g id="arrowDown" xlink:href="#dirArrow" transform="rotate(180) translate(-30 -48)" onmousedown="handlePan(0,1)">
                  <use xlink:href="#rim" fill="#404040">
                        <set attributeName="fill" to="#808080" begin="arrowDown.mouseover" end="arrowDown.mouseout"/>
                  </use>
                  <path fill="none" stroke="white" stroke-width="1.5" d="M0,-3.0v7 M-2.5,-0.5L0,-3.0L2.5,-0.5"/>
                </g>
                <g id="arrowLeft" xlink:href="#dirArrow" transform="rotate(270) translate(-36 17)" onmousedown="handlePan(-1,0)">
                  <use xlink:href="#rim" fill="#404040">
                        <set attributeName="fill" to="#808080" begin="arrowLeft.mouseover" end="arrowLeft.mouseout"/>
                  </use>
                  <path fill="none" stroke="white" stroke-width="1.5" d="M0,-3.0v7 M-2.5,-0.5L0,-3.0L2.5,-0.5"/>
                </g>
        </g>
        <svg viewBox="0 0 15 15" width="100%" height="30px" preserveAspectRatio="xMaxYMin meet">
         <g id="arrow_out" transform="scale(0.3 0.3)">
          <a xlink:href="TooNetworking_8cpp_aa8040740e6ffca2f68beb7f8e57d63fc_icgraph_org.svg" target="_base">
           <rect id="button" ry="5" rx="5" y="6" x="6" height="38" width="38"
                fill="#f2f5e9" fill-opacity="0.5" stroke="#606060" stroke-width="1.0"/>
           <path id="arrow"
             d="M 11.500037,31.436501 C 11.940474,20.09759 22.043105,11.32322 32.158766,21.979434 L 37.068811,17.246167 C 37.068811,17.246167 37.088388,32 37.088388,32 L 22.160133,31.978069 C 22.160133,31.978069 26.997745,27.140456 26.997745,27.140456 C 18.528582,18.264221 13.291696,25.230495 11.500037,31.436501 z"
             style="fill:#404040;"/>
          </a>
         </g>
        </svg>
</svg>
