<?xml version="1.0" encoding="UTF-8" standalone="no"?>
<!DOCTYPE svg PUBLIC "-//W3C//DTD SVG 1.1//EN"
 "http://www.w3.org/Graphics/SVG/1.1/DTD/svg11.dtd">
<!-- Generated by graphviz version 2.40.1 (20161225.0304)
 -->
<!-- Title: TooNetworking_bufferlist_send_ Pages: 1 -->
<svg width="547pt" height="108pt"
 viewBox="0.00 0.00 547.00 108.00" xmlns="http://www.w3.org/2000/svg" xmlns:xlink="http://www.w3.org/1999/xlink">
<g id="graph0" class="graph" transform="scale(1 1) rotate(0) translate(4 104)">
<title>TooNetworking_bufferlist_send_</title>
<polygon fill="#ffffff" stroke="transparent" points="-4,4 -4,-104 543,-104 543,4 -4,4"/>
<!-- Node93 -->
<g id="node1" class="node">
<title>Node93</title>
<polygon fill="#bfbfbf" stroke="#000000" points="0,-22.5 0,-52.5 125,-52.5 125,-22.5 0,-22.5"/>
<text text-anchor="start" x="8" y="-40.5" font-family="Helvetica,sans-Serif" font-size="10.00" fill="#000000">TooNetworking_bufferlist</text>
<text text-anchor="middle" x="62.5" y="-29.5" font-family="Helvetica,sans-Serif" font-size="10.00" fill="#000000">_send_</text>
</g>
<!-- Node94 -->
<g id="node2" class="node">
<title>Node94</title>
<g id="a_node2"><a xlink:href="TooNetworking_8h.html#a59be7e774988f57ab43c4c078c570c67" target="_top" xlink:title="TooNetworking_bufferlist_add">
<polygon fill="#ffffff" stroke="#000000" points="161,-50 161,-69 307,-69 307,-50 161,-50"/>
<text text-anchor="middle" x="234" y="-57" font-family="Helvetica,sans-Serif" font-size="10.00" fill="#000000">TooNetworking_bufferlist_add</text>
</a>
</g>
</g>
<!-- Node93&#45;&gt;Node94 -->
<g id="edge1" class="edge">
<title>Node93&#45;&gt;Node94</title>
<path fill="none" stroke="#191970" d="M135.5451,-46.8702C143.9597,-47.9496 152.5412,-49.0505 160.9558,-50.1299"/>
<polygon fill="#191970" stroke="#191970" points="135.7505,-43.368 125.3864,-45.5671 134.8598,-50.3111 135.7505,-43.368"/>
</g>
<!-- Node98 -->
<g id="node6" class="node">
<title>Node98</title>
<g id="a_node6"><a xlink:href="TooNetworking_8h.html#ab58e06e0eb6f2f8ecbebeaf3c173fb22" target="_top" xlink:title="TooNetworking_bufferlist\l_send_all">
<polygon fill="#ffffff" stroke="#000000" points="171.5,-.5 171.5,-30.5 296.5,-30.5 296.5,-.5 171.5,-.5"/>
<text text-anchor="start" x="179.5" y="-18.5" font-family="Helvetica,sans-Serif" font-size="10.00" fill="#000000">TooNetworking_bufferlist</text>
<text text-anchor="middle" x="234" y="-7.5" font-family="Helvetica,sans-Serif" font-size="10.00" fill="#000000">_send_all</text>
</a>
</g>
</g>
<!-- Node93&#45;&gt;Node98 -->
<g id="edge5" class="edge">
<title>Node93&#45;&gt;Node98</title>
<path fill="none" stroke="#191970" d="M135.3595,-28.1536C147.3538,-26.615 159.6925,-25.0322 171.4078,-23.5293"/>
<polygon fill="#191970" stroke="#191970" points="134.8598,-24.6889 125.3864,-29.4329 135.7505,-31.632 134.8598,-24.6889"/>
</g>
<!-- Node95 -->
<g id="node3" class="node">
<title>Node95</title>
<g id="a_node3"><a xlink:href="TooNetworking_8h.html#a9209f3e1a2fdf0b3b88d49105b8fc359" target="_top" xlink:title="TooNetworking_send\l_signed">
<polygon fill="#ffffff" stroke="#000000" points="351,-69.5 351,-99.5 460,-99.5 460,-69.5 351,-69.5"/>
<text text-anchor="start" x="359" y="-87.5" font-family="Helvetica,sans-Serif" font-size="10.00" fill="#000000">TooNetworking_send</text>
<text text-anchor="middle" x="405.5" y="-76.5" font-family="Helvetica,sans-Serif" font-size="10.00" fill="#000000">_signed</text>
</a>
</g>
</g>
<!-- Node94&#45;&gt;Node95 -->
<g id="edge2" class="edge">
<title>Node94&#45;&gt;Node95</title>
<path fill="none" stroke="#191970" d="M309.4187,-70.494C323.3994,-72.532 337.7518,-74.6242 350.9602,-76.5496"/>
<polygon fill="#191970" stroke="#191970" points="309.7263,-67.0019 299.326,-69.0227 308.7166,-73.9287 309.7263,-67.0019"/>
</g>
<!-- Node96 -->
<g id="node4" class="node">
<title>Node96</title>
<g id="a_node4"><a xlink:href="TooNetworking_8h.html#a085ff748b00f6be4ebafcae2bb0dded1" target="_top" xlink:title="TooNetworking_bufferlist\l_send_signed">
<polygon fill="#ffffff" stroke="#000000" points="343,-20.5 343,-50.5 468,-50.5 468,-20.5 343,-20.5"/>
<text text-anchor="start" x="351" y="-38.5" font-family="Helvetica,sans-Serif" font-size="10.00" fill="#000000">TooNetworking_bufferlist</text>
<text text-anchor="middle" x="405.5" y="-27.5" font-family="Helvetica,sans-Serif" font-size="10.00" fill="#000000">_send_signed</text>
</a>
</g>
</g>
<!-- Node94&#45;&gt;Node96 -->
<g id="edge3" class="edge">
<title>Node94&#45;&gt;Node96</title>
<path fill="none" stroke="#191970" d="M312.3817,-48.5311C322.5571,-47.1072 332.872,-45.6637 342.7474,-44.2817"/>
<polygon fill="#191970" stroke="#191970" points="311.6925,-45.0934 302.2741,-49.9456 312.6627,-52.0258 311.6925,-45.0934"/>
</g>
<!-- Node97 -->
<g id="node5" class="node">
<title>Node97</title>
<g id="a_node5"><a xlink:href="NODE__SKETCH__TooAutomation__Node_8ino_8cpp.html#a0b33edabd7f1c4e4a0bf32c67269be2f" target="_top" xlink:title="loop">
<polygon fill="#ffffff" stroke="#000000" points="504,-26 504,-45 539,-45 539,-26 504,-26"/>
<text text-anchor="middle" x="521.5" y="-33" font-family="Helvetica,sans-Serif" font-size="10.00" fill="#000000">loop</text>
</a>
</g>
</g>
<!-- Node96&#45;&gt;Node97 -->
<g id="edge4" class="edge">
<title>Node96&#45;&gt;Node97</title>
<path fill="none" stroke="#191970" d="M478.5149,-35.5C487.8175,-35.5 496.5667,-35.5 503.7123,-35.5"/>
<polygon fill="#191970" stroke="#191970" points="478.2531,-32.0001 468.2531,-35.5 478.253,-39.0001 478.2531,-32.0001"/>
</g>
</g>
</svg>
