<?xml version="1.0" encoding="UTF-8" standalone="no"?>
<!DOCTYPE svg PUBLIC "-//W3C//DTD SVG 1.1//EN"
 "http://www.w3.org/Graphics/SVG/1.1/DTD/svg11.dtd">
<!-- Generated by graphviz version 2.40.1 (20161225.0304)
 -->
<!-- Title: TooNetworking_bufferlist_send_ Pages: 1 -->
<!--zoomable 98 -->
<svg id="main" version="1.1" xmlns="http://www.w3.org/2000/svg" xmlns:xlink="http://www.w3.org/1999/xlink" xml:space="preserve" onload="init(evt)">
<style type="text/css"><![CDATA[
.edge:hover path { stroke: red; }
.edge:hover polygon { stroke: red; fill: red; }
]]></style>
<script type="text/javascript"><![CDATA[
var edges = document.getElementsByTagName('g');
if (edges && edges.length) {
  for (var i=0;i<edges.length;i++) {
    if (edges[i].id.substr(0,4)=='edge') {
      edges[i].setAttribute('class','edge');
    }
  }
}
]]></script>
        <defs>
                <circle id="rim" cx="0" cy="0" r="7"/>
                <circle id="rim2" cx="0" cy="0" r="3.5"/>
                <g id="zoomPlus">
                        <use xlink:href="#rim" fill="#404040">
                                <set attributeName="fill" to="#808080" begin="zoomplus.mouseover" end="zoomplus.mouseout"/>
                        </use>
                        <path d="M-4,0h8M0,-4v8" fill="none" stroke="white" stroke-width="1.5" pointer-events="none"/>
                </g>
                <g id="zoomMin">
                        <use xlink:href="#rim" fill="#404040">
                                <set attributeName="fill" to="#808080" begin="zoomminus.mouseover" end="zoomminus.mouseout"/>
                        </use>
                        <path d="M-4,0h8" fill="none" stroke="white" stroke-width="1.5" pointer-events="none"/>
                </g>
                <g id="dirArrow">
                        <path fill="none" stroke="white" stroke-width="1.5" d="M0,-3.0v7 M-2.5,-0.5L0,-3.0L2.5,-0.5"/>
                </g>
               <g id="resetDef">
                       <use xlink:href="#rim2" fill="#404040">
                               <set attributeName="fill" to="#808080" begin="reset.mouseover" end="reset.mouseout"/>
                       </use>
               </g>
        </defs>

<script type="text/javascript">
var viewWidth = 621;
var viewHeight = 98;
var sectionId = 'dynsection-8';
</script>
<script xlink:href="svgpan.js"/>
<svg id="graph" class="graph">
<g id="viewport">
<title>TooNetworking_bufferlist_send_</title>
<polygon fill="#ffffff" stroke="transparent" points="-4,4 -4,-94 617,-94 617,4 -4,4"/>
<!-- Node76 -->
<g id="node1" class="node">
<title>Node76</title>
<polygon fill="#bfbfbf" stroke="#000000" points="0,-3.5 0,-33.5 125,-33.5 125,-3.5 0,-3.5"/>
<text text-anchor="start" x="8" y="-21.5" font-family="Helvetica,sans-Serif" font-size="10.00" fill="#000000">TooNetworking_bufferlist</text>
<text text-anchor="middle" x="62.5" y="-10.5" font-family="Helvetica,sans-Serif" font-size="10.00" fill="#000000">_send_</text>
</g>
<!-- Node77 -->
<g id="node2" class="node">
<title>Node77</title>
<g id="a_node2"><a xlink:href="TooNetworking_8h.html#a59be7e774988f57ab43c4c078c570c67" target="_top" xlink:title="TooNetworking_bufferlist_add">
<polygon fill="#ffffff" stroke="#000000" points="161,-31 161,-50 307,-50 307,-31 161,-31"/>
<text text-anchor="middle" x="234" y="-38" font-family="Helvetica,sans-Serif" font-size="10.00" fill="#000000">TooNetworking_bufferlist_add</text>
</a>
</g>
</g>
<!-- Node76&#45;&gt;Node77 -->
<g id="edge1" class="edge">
<title>Node76&#45;&gt;Node77</title>
<path fill="none" stroke="#191970" d="M135.5451,-27.8702C143.9597,-28.9496 152.5412,-30.0505 160.9558,-31.1299"/>
<polygon fill="#191970" stroke="#191970" points="135.7505,-24.368 125.3864,-26.5671 134.8598,-31.3111 135.7505,-24.368"/>
</g>
<!-- Node80 -->
<g id="node5" class="node">
<title>Node80</title>
<g id="a_node5"><a xlink:href="TooNetworking_8h.html#ab58e06e0eb6f2f8ecbebeaf3c173fb22" target="_top" xlink:title="TooNetworking_bufferlist\l_send_all">
<polygon fill="#ffffff" stroke="#000000" points="488,-.5 488,-30.5 613,-30.5 613,-.5 488,-.5"/>
<text text-anchor="start" x="496" y="-18.5" font-family="Helvetica,sans-Serif" font-size="10.00" fill="#000000">TooNetworking_bufferlist</text>
<text text-anchor="middle" x="550.5" y="-7.5" font-family="Helvetica,sans-Serif" font-size="10.00" fill="#000000">_send_all</text>
</a>
</g>
</g>
<!-- Node76&#45;&gt;Node80 -->
<g id="edge6" class="edge">
<title>Node76&#45;&gt;Node80</title>
<path fill="none" stroke="#191970" d="M135.4497,-17.5062C192.0624,-16.7867 272.511,-15.8769 343,-15.5 391.6321,-15.2399 446.6765,-15.2542 487.8461,-15.3257"/>
<polygon fill="#191970" stroke="#191970" points="135.1182,-14.0101 125.164,-17.6382 135.2081,-21.0095 135.1182,-14.0101"/>
</g>
<!-- Node78 -->
<g id="node3" class="node">
<title>Node78</title>
<g id="a_node3"><a xlink:href="TooNetworking_8h.html#a9209f3e1a2fdf0b3b88d49105b8fc359" target="_top" xlink:title="TooNetworking_send\l_signed">
<polygon fill="#ffffff" stroke="#000000" points="343,-25.5 343,-55.5 452,-55.5 452,-25.5 343,-25.5"/>
<text text-anchor="start" x="351" y="-43.5" font-family="Helvetica,sans-Serif" font-size="10.00" fill="#000000">TooNetworking_send</text>
<text text-anchor="middle" x="397.5" y="-32.5" font-family="Helvetica,sans-Serif" font-size="10.00" fill="#000000">_signed</text>
</a>
</g>
</g>
<!-- Node77&#45;&gt;Node78 -->
<g id="edge2" class="edge">
<title>Node77&#45;&gt;Node78</title>
<path fill="none" stroke="#191970" d="M317.2213,-40.5C325.8182,-40.5 334.3934,-40.5 342.5665,-40.5"/>
<polygon fill="#191970" stroke="#191970" points="317.1422,-37.0001 307.1421,-40.5 317.1421,-44.0001 317.1422,-37.0001"/>
</g>
<!-- Node79 -->
<g id="node4" class="node">
<title>Node79</title>
<g id="a_node4"><a xlink:href="TooNetworking_8h.html#a085ff748b00f6be4ebafcae2bb0dded1" target="_top" xlink:title="TooNetworking_bufferlist\l_send_signed">
<polygon fill="#ffffff" stroke="#000000" points="488,-59.5 488,-89.5 613,-89.5 613,-59.5 488,-59.5"/>
<text text-anchor="start" x="496" y="-77.5" font-family="Helvetica,sans-Serif" font-size="10.00" fill="#000000">TooNetworking_bufferlist</text>
<text text-anchor="middle" x="550.5" y="-66.5" font-family="Helvetica,sans-Serif" font-size="10.00" fill="#000000">_send_signed</text>
</a>
</g>
</g>
<!-- Node77&#45;&gt;Node79 -->
<g id="edge5" class="edge">
<title>Node77&#45;&gt;Node79</title>
<path fill="none" stroke="#191970" d="M278.4461,-52.6239C298.0818,-57.4778 321.537,-62.5978 343,-65.5 391.2395,-72.0228 446.3054,-74.1689 487.583,-74.7405"/>
<polygon fill="#191970" stroke="#191970" points="279.1098,-49.1816 268.5569,-50.123 277.3935,-55.968 279.1098,-49.1816"/>
</g>
<!-- Node78&#45;&gt;Node79 -->
<g id="edge3" class="edge">
<title>Node78&#45;&gt;Node79</title>
<path fill="none" stroke="#191970" d="M462.1421,-54.8649C470.6223,-56.7494 479.3018,-58.6782 487.7499,-60.5555"/>
<polygon fill="#191970" stroke="#191970" points="462.8255,-51.4315 452.3044,-52.6787 461.3069,-58.2648 462.8255,-51.4315"/>
</g>
<!-- Node78&#45;&gt;Node80 -->
<g id="edge4" class="edge">
<title>Node78&#45;&gt;Node80</title>
<path fill="none" stroke="#191970" d="M462.4187,-29.8924C470.811,-28.5211 479.3936,-27.1187 487.7499,-25.7533"/>
<polygon fill="#191970" stroke="#191970" points="461.609,-26.4782 452.3044,-31.545 462.7379,-33.3865 461.609,-26.4782"/>
</g>
</g>
</svg>
        <g id="navigator" transform="translate(0 0)" fill="#404254">
                <rect fill="#f2f5e9" fill-opacity="0.5" stroke="#606060" stroke-width=".5" x="0" y="0" width="60" height="60"/>
                <use id="zoomplus" xlink:href="#zoomPlus" x="17" y="9" onmousedown="handleZoom(evt,'in')"/>
                <use id="zoomminus" xlink:href="#zoomMin" x="42" y="9" onmousedown="handleZoom(evt,'out')"/>
                <use id="reset" xlink:href="#resetDef" x="30" y="36" onmousedown="handleReset()"/>
                <g id="arrowUp" xlink:href="#dirArrow" transform="translate(30 24)" onmousedown="handlePan(0,-1)">
                  <use xlink:href="#rim" fill="#404040">
                        <set attributeName="fill" to="#808080" begin="arrowUp.mouseover" end="arrowUp.mouseout"/>
                  </use>
                  <path fill="none" stroke="white" stroke-width="1.5" d="M0,-3.0v7 M-2.5,-0.5L0,-3.0L2.5,-0.5"/>
                </g>
                <g id="arrowRight" xlink:href="#dirArrow" transform="rotate(90) translate(36 -43)" onmousedown="handlePan(1,0)">
                  <use xlink:href="#rim" fill="#404040">
                        <set attributeName="fill" to="#808080" begin="arrowRight.mouseover" end="arrowRight.mouseout"/>
                  </use>
                  <path fill="none" stroke="white" stroke-width="1.5" d="M0,-3.0v7 M-2.5,-0.5L0,-3.0L2.5,-0.5"/>
                </g>
                <g id="arrowDown" xlink:href="#dirArrow" transform="rotate(180) translate(-30 -48)" onmousedown="handlePan(0,1)">
                  <use xlink:href="#rim" fill="#404040">
                        <set attributeName="fill" to="#808080" begin="arrowDown.mouseover" end="arrowDown.mouseout"/>
                  </use>
                  <path fill="none" stroke="white" stroke-width="1.5" d="M0,-3.0v7 M-2.5,-0.5L0,-3.0L2.5,-0.5"/>
                </g>
                <g id="arrowLeft" xlink:href="#dirArrow" transform="rotate(270) translate(-36 17)" onmousedown="handlePan(-1,0)">
                  <use xlink:href="#rim" fill="#404040">
                        <set attributeName="fill" to="#808080" begin="arrowLeft.mouseover" end="arrowLeft.mouseout"/>
                  </use>
                  <path fill="none" stroke="white" stroke-width="1.5" d="M0,-3.0v7 M-2.5,-0.5L0,-3.0L2.5,-0.5"/>
                </g>
        </g>
        <svg viewBox="0 0 15 15" width="100%" height="30px" preserveAspectRatio="xMaxYMin meet">
         <g id="arrow_out" transform="scale(0.3 0.3)">
          <a xlink:href="TooNetworking_8cpp_a0ad03a7efb42cf40ca3e20fb5df3a5db_icgraph_org.svg" target="_base">
           <rect id="button" ry="5" rx="5" y="6" x="6" height="38" width="38"
                fill="#f2f5e9" fill-opacity="0.5" stroke="#606060" stroke-width="1.0"/>
           <path id="arrow"
             d="M 11.500037,31.436501 C 11.940474,20.09759 22.043105,11.32322 32.158766,21.979434 L 37.068811,17.246167 C 37.068811,17.246167 37.088388,32 37.088388,32 L 22.160133,31.978069 C 22.160133,31.978069 26.997745,27.140456 26.997745,27.140456 C 18.528582,18.264221 13.291696,25.230495 11.500037,31.436501 z"
             style="fill:#404040;"/>
          </a>
         </g>
        </svg>
</svg>
