<?xml version="1.0" encoding="UTF-8" standalone="no"?>
<!DOCTYPE svg PUBLIC "-//W3C//DTD SVG 1.1//EN"
 "http://www.w3.org/Graphics/SVG/1.1/DTD/svg11.dtd">
<!-- Generated by graphviz version 2.40.1 (20161225.0304)
 -->
<!-- Title: TooNetworking_other_node_is_online Pages: 1 -->
<svg width="682pt" height="110pt"
 viewBox="0.00 0.00 682.00 110.00" xmlns="http://www.w3.org/2000/svg" xmlns:xlink="http://www.w3.org/1999/xlink">
<g id="graph0" class="graph" transform="scale(1 1) rotate(0) translate(4 106)">
<title>TooNetworking_other_node_is_online</title>
<polygon fill="#ffffff" stroke="transparent" points="-4,4 -4,-106 678,-106 678,4 -4,4"/>
<!-- Node214 -->
<g id="node1" class="node">
<title>Node214</title>
<polygon fill="#bfbfbf" stroke="#000000" points="0,-46.5 0,-76.5 110,-76.5 110,-46.5 0,-46.5"/>
<text text-anchor="start" x="8" y="-64.5" font-family="Helvetica,sans-Serif" font-size="10.00" fill="#000000">TooNetworking_other</text>
<text text-anchor="middle" x="55" y="-53.5" font-family="Helvetica,sans-Serif" font-size="10.00" fill="#000000">_node_is_online</text>
</g>
<!-- Node215 -->
<g id="node2" class="node">
<title>Node215</title>
<g id="a_node2"><a xlink:href="TooNetworking_8h.html#a0ad03a7efb42cf40ca3e20fb5df3a5db" target="_top" xlink:title="TooNetworking_bufferlist\l_send_">
<polygon fill="#ffffff" stroke="#000000" points="146,-71.5 146,-101.5 271,-101.5 271,-71.5 146,-71.5"/>
<text text-anchor="start" x="154" y="-89.5" font-family="Helvetica,sans-Serif" font-size="10.00" fill="#000000">TooNetworking_bufferlist</text>
<text text-anchor="middle" x="208.5" y="-78.5" font-family="Helvetica,sans-Serif" font-size="10.00" fill="#000000">_send_</text>
</a>
</g>
</g>
<!-- Node214&#45;&gt;Node215 -->
<g id="edge1" class="edge">
<title>Node214&#45;&gt;Node215</title>
<path fill="none" stroke="#191970" d="M120.5424,-72.1747C128.9406,-73.5424 137.5218,-74.94 145.872,-76.3"/>
<polygon fill="#191970" stroke="#191970" points="120.8496,-68.6787 110.417,-70.5256 119.7243,-75.5876 120.8496,-68.6787"/>
</g>
<!-- Node219 -->
<g id="node6" class="node">
<title>Node219</title>
<g id="a_node6"><a xlink:href="TooNetworking_8h.html#a9f893c3218491ee86282fdcd9f376500" target="_top" xlink:title="TooNetworking_send\l_signed_">
<polygon fill="#ffffff" stroke="#000000" points="154,-22.5 154,-52.5 263,-52.5 263,-22.5 154,-22.5"/>
<text text-anchor="start" x="162" y="-40.5" font-family="Helvetica,sans-Serif" font-size="10.00" fill="#000000">TooNetworking_send</text>
<text text-anchor="middle" x="208.5" y="-29.5" font-family="Helvetica,sans-Serif" font-size="10.00" fill="#000000">_signed_</text>
</a>
</g>
</g>
<!-- Node214&#45;&gt;Node219 -->
<g id="edge5" class="edge">
<title>Node214&#45;&gt;Node219</title>
<path fill="none" stroke="#191970" d="M120.5259,-51.2549C131.6621,-49.5137 143.1205,-47.7222 153.9359,-46.0312"/>
<polygon fill="#191970" stroke="#191970" points="119.7563,-47.8326 110.417,-52.8354 120.8377,-54.7486 119.7563,-47.8326"/>
</g>
<!-- Node216 -->
<g id="node3" class="node">
<title>Node216</title>
<g id="a_node3"><a xlink:href="TooNetworking_8h.html#ab58e06e0eb6f2f8ecbebeaf3c173fb22" target="_top" xlink:title="TooNetworking_bufferlist\l_send_all">
<polygon fill="#ffffff" stroke="#000000" points="307,-71.5 307,-101.5 432,-101.5 432,-71.5 307,-71.5"/>
<text text-anchor="start" x="315" y="-89.5" font-family="Helvetica,sans-Serif" font-size="10.00" fill="#000000">TooNetworking_bufferlist</text>
<text text-anchor="middle" x="369.5" y="-78.5" font-family="Helvetica,sans-Serif" font-size="10.00" fill="#000000">_send_all</text>
</a>
</g>
</g>
<!-- Node215&#45;&gt;Node216 -->
<g id="edge2" class="edge">
<title>Node215&#45;&gt;Node216</title>
<path fill="none" stroke="#191970" d="M281.2184,-86.5C289.8129,-86.5 298.5268,-86.5 306.9633,-86.5"/>
<polygon fill="#191970" stroke="#191970" points="281.2078,-83.0001 271.2078,-86.5 281.2078,-90.0001 281.2078,-83.0001"/>
</g>
<!-- Node217 -->
<g id="node4" class="node">
<title>Node217</title>
<g id="a_node4"><a xlink:href="TooNetworking_8h.html#a7382ba1aed5405c3adc02011ea6c45dd" target="_top" xlink:title="TooNetworking_connection\l_maintenance">
<polygon fill="#ffffff" stroke="#000000" points="468,-60.5 468,-90.5 603,-90.5 603,-60.5 468,-60.5"/>
<text text-anchor="start" x="476" y="-78.5" font-family="Helvetica,sans-Serif" font-size="10.00" fill="#000000">TooNetworking_connection</text>
<text text-anchor="middle" x="535.5" y="-67.5" font-family="Helvetica,sans-Serif" font-size="10.00" fill="#000000">_maintenance</text>
</a>
</g>
</g>
<!-- Node216&#45;&gt;Node217 -->
<g id="edge3" class="edge">
<title>Node216&#45;&gt;Node217</title>
<path fill="none" stroke="#191970" d="M442.4873,-81.6635C450.951,-81.1026 459.5556,-80.5325 467.9422,-79.9767"/>
<polygon fill="#191970" stroke="#191970" points="442.0041,-78.1877 432.2575,-82.3414 442.4671,-85.1724 442.0041,-78.1877"/>
</g>
<!-- Node218 -->
<g id="node5" class="node">
<title>Node218</title>
<g id="a_node5"><a xlink:href="NODE__SKETCH__TooAutomation__Node_8ino_8cpp.html#a0b33edabd7f1c4e4a0bf32c67269be2f" target="_top" xlink:title="loop">
<polygon fill="#ffffff" stroke="#000000" points="639,-30 639,-49 674,-49 674,-30 639,-30"/>
<text text-anchor="middle" x="656.5" y="-37" font-family="Helvetica,sans-Serif" font-size="10.00" fill="#000000">loop</text>
</a>
</g>
</g>
<!-- Node217&#45;&gt;Node218 -->
<g id="edge4" class="edge">
<title>Node217&#45;&gt;Node218</title>
<path fill="none" stroke="#191970" d="M595.8751,-57.5372C611.6159,-52.8539 627.368,-48.1674 638.8692,-44.7455"/>
<polygon fill="#191970" stroke="#191970" points="594.7005,-54.2349 586.1138,-60.4413 596.6967,-60.9443 594.7005,-54.2349"/>
</g>
<!-- Node219&#45;&gt;Node216 -->
<g id="edge9" class="edge">
<title>Node219&#45;&gt;Node216</title>
<path fill="none" stroke="#191970" d="M268.0139,-55.6129C285.1301,-60.8222 303.6072,-66.4457 320.0448,-71.4484"/>
<polygon fill="#191970" stroke="#191970" points="268.7049,-52.1648 258.119,-52.6014 266.6667,-58.8615 268.7049,-52.1648"/>
</g>
<!-- Node220 -->
<g id="node7" class="node">
<title>Node220</title>
<g id="a_node7"><a xlink:href="TooNetworking_8h.html#a9209f3e1a2fdf0b3b88d49105b8fc359" target="_top" xlink:title="TooNetworking_send\l_signed">
<polygon fill="#ffffff" stroke="#000000" points="315,-22.5 315,-52.5 424,-52.5 424,-22.5 315,-22.5"/>
<text text-anchor="start" x="323" y="-40.5" font-family="Helvetica,sans-Serif" font-size="10.00" fill="#000000">TooNetworking_send</text>
<text text-anchor="middle" x="369.5" y="-29.5" font-family="Helvetica,sans-Serif" font-size="10.00" fill="#000000">_signed</text>
</a>
</g>
</g>
<!-- Node219&#45;&gt;Node220 -->
<g id="edge6" class="edge">
<title>Node219&#45;&gt;Node220</title>
<path fill="none" stroke="#191970" d="M273.3592,-37.5C287.0939,-37.5 301.4604,-37.5 314.7751,-37.5"/>
<polygon fill="#191970" stroke="#191970" points="273.0073,-34.0001 263.0073,-37.5 273.0072,-41.0001 273.0073,-34.0001"/>
</g>
<!-- Node221 -->
<g id="node8" class="node">
<title>Node221</title>
<g id="a_node8"><a xlink:href="TooNetworking_8h.html#a085ff748b00f6be4ebafcae2bb0dded1" target="_top" xlink:title="TooNetworking_bufferlist\l_send_signed">
<polygon fill="#ffffff" stroke="#000000" points="473,-.5 473,-30.5 598,-30.5 598,-.5 473,-.5"/>
<text text-anchor="start" x="481" y="-18.5" font-family="Helvetica,sans-Serif" font-size="10.00" fill="#000000">TooNetworking_bufferlist</text>
<text text-anchor="middle" x="535.5" y="-7.5" font-family="Helvetica,sans-Serif" font-size="10.00" fill="#000000">_send_signed</text>
</a>
</g>
</g>
<!-- Node219&#45;&gt;Node221 -->
<g id="edge7" class="edge">
<title>Node219&#45;&gt;Node221</title>
<path fill="none" stroke="#191970" d="M267.3661,-20.0269C280.3087,-16.8983 294.0258,-14.1208 307,-12.5 362.7051,-5.5411 426.6402,-7.1916 472.6885,-10.0601"/>
<polygon fill="#191970" stroke="#191970" points="266.4876,-16.6388 257.6449,-22.4745 268.1968,-23.4269 266.4876,-16.6388"/>
</g>
<!-- Node221&#45;&gt;Node218 -->
<g id="edge8" class="edge">
<title>Node221&#45;&gt;Node218</title>
<path fill="none" stroke="#191970" d="M608.2474,-29.9292C619.636,-32.1881 630.4203,-34.3272 638.8934,-36.0078"/>
<polygon fill="#191970" stroke="#191970" points="608.6165,-26.4343 598.1266,-27.9218 607.2545,-33.3006 608.6165,-26.4343"/>
</g>
</g>
</svg>
