<?xml version="1.0" encoding="UTF-8" standalone="no"?>
<!DOCTYPE svg PUBLIC "-//W3C//DTD SVG 1.1//EN"
 "http://www.w3.org/Graphics/SVG/1.1/DTD/svg11.dtd">
<!-- Generated by graphviz version 2.40.1 (20161225.0304)
 -->
<!-- Title: TooNetworking_send_signed_ Pages: 1 -->
<svg width="605pt" height="88pt"
 viewBox="0.00 0.00 605.00 88.00" xmlns="http://www.w3.org/2000/svg" xmlns:xlink="http://www.w3.org/1999/xlink">
<g id="graph0" class="graph" transform="scale(1 1) rotate(0) translate(4 84)">
<title>TooNetworking_send_signed_</title>
<polygon fill="#ffffff" stroke="transparent" points="-4,4 -4,-84 601,-84 601,4 -4,4"/>
<!-- Node205 -->
<g id="node1" class="node">
<title>Node205</title>
<polygon fill="#bfbfbf" stroke="#000000" points="0,-25.5 0,-55.5 109,-55.5 109,-25.5 0,-25.5"/>
<text text-anchor="start" x="8" y="-43.5" font-family="Helvetica,sans-Serif" font-size="10.00" fill="#000000">TooNetworking_send</text>
<text text-anchor="middle" x="54.5" y="-32.5" font-family="Helvetica,sans-Serif" font-size="10.00" fill="#000000">_signed_</text>
</g>
<!-- Node206 -->
<g id="node2" class="node">
<title>Node206</title>
<g id="a_node2"><a xlink:href="TooNetworking_8h.html#a59be7e774988f57ab43c4c078c570c67" target="_top" xlink:title="TooNetworking_bufferlist_add">
<polygon fill="#ffffff" stroke="#000000" points="145,-12 145,-31 291,-31 291,-12 145,-12"/>
<text text-anchor="middle" x="218" y="-19" font-family="Helvetica,sans-Serif" font-size="10.00" fill="#000000">TooNetworking_bufferlist_add</text>
</a>
</g>
</g>
<!-- Node205&#45;&gt;Node206 -->
<g id="edge1" class="edge">
<title>Node205&#45;&gt;Node206</title>
<path fill="none" stroke="#191970" d="M119.465,-32.9505C127.8386,-31.9775 136.4576,-30.9759 144.95,-29.989"/>
<polygon fill="#191970" stroke="#191970" points="118.9271,-29.4894 109.398,-34.1204 119.7352,-36.4426 118.9271,-29.4894"/>
</g>
<!-- Node207 -->
<g id="node3" class="node">
<title>Node207</title>
<g id="a_node3"><a xlink:href="TooNetworking_8h.html#a9209f3e1a2fdf0b3b88d49105b8fc359" target="_top" xlink:title="TooNetworking_send\l_signed">
<polygon fill="#ffffff" stroke="#000000" points="327,-44.5 327,-74.5 436,-74.5 436,-44.5 327,-44.5"/>
<text text-anchor="start" x="335" y="-62.5" font-family="Helvetica,sans-Serif" font-size="10.00" fill="#000000">TooNetworking_send</text>
<text text-anchor="middle" x="381.5" y="-51.5" font-family="Helvetica,sans-Serif" font-size="10.00" fill="#000000">_signed</text>
</a>
</g>
</g>
<!-- Node205&#45;&gt;Node207 -->
<g id="edge6" class="edge">
<title>Node205&#45;&gt;Node207</title>
<path fill="none" stroke="#191970" d="M119.4644,-44.2747C180.1602,-47.8014 269.7503,-53.0069 326.8618,-56.3253"/>
<polygon fill="#191970" stroke="#191970" points="119.4187,-40.7662 109.2324,-43.6802 119.0126,-47.7544 119.4187,-40.7662"/>
</g>
<!-- Node206&#45;&gt;Node207 -->
<g id="edge2" class="edge">
<title>Node206&#45;&gt;Node207</title>
<path fill="none" stroke="#191970" d="M269.1856,-33.3963C287.5525,-37.6651 308.324,-42.4927 326.9645,-46.8251"/>
<polygon fill="#191970" stroke="#191970" points="269.7907,-29.9438 259.258,-31.089 268.206,-36.762 269.7907,-29.9438"/>
</g>
<!-- Node208 -->
<g id="node4" class="node">
<title>Node208</title>
<g id="a_node4"><a xlink:href="TooNetworking_8h.html#a085ff748b00f6be4ebafcae2bb0dded1" target="_top" xlink:title="TooNetworking_bufferlist\l_send_signed">
<polygon fill="#ffffff" stroke="#000000" points="472,-.5 472,-30.5 597,-30.5 597,-.5 472,-.5"/>
<text text-anchor="start" x="480" y="-18.5" font-family="Helvetica,sans-Serif" font-size="10.00" fill="#000000">TooNetworking_bufferlist</text>
<text text-anchor="middle" x="534.5" y="-7.5" font-family="Helvetica,sans-Serif" font-size="10.00" fill="#000000">_send_signed</text>
</a>
</g>
</g>
<!-- Node206&#45;&gt;Node208 -->
<g id="edge5" class="edge">
<title>Node206&#45;&gt;Node208</title>
<path fill="none" stroke="#191970" d="M301.144,-19.9238C354.5688,-18.911 422.8624,-17.6164 471.7419,-16.6897"/>
<polygon fill="#191970" stroke="#191970" points="300.9407,-16.4269 291.0089,-20.1159 301.0735,-23.4257 300.9407,-16.4269"/>
</g>
<!-- Node207&#45;&gt;Node208 -->
<g id="edge3" class="edge">
<title>Node207&#45;&gt;Node208</title>
<path fill="none" stroke="#191970" d="M443.4364,-41.6882C456.3136,-37.985 469.7624,-34.1173 482.2498,-30.5262"/>
<polygon fill="#191970" stroke="#191970" points="442.3691,-38.3532 433.726,-44.4808 444.3038,-45.0806 442.3691,-38.3532"/>
</g>
<!-- Node209 -->
<g id="node5" class="node">
<title>Node209</title>
<g id="a_node5"><a xlink:href="TooNetworking_8h.html#ab58e06e0eb6f2f8ecbebeaf3c173fb22" target="_top" xlink:title="TooNetworking_bufferlist\l_send_all">
<polygon fill="#ffffff" stroke="#000000" points="472,-49.5 472,-79.5 597,-79.5 597,-49.5 472,-49.5"/>
<text text-anchor="start" x="480" y="-67.5" font-family="Helvetica,sans-Serif" font-size="10.00" fill="#000000">TooNetworking_bufferlist</text>
<text text-anchor="middle" x="534.5" y="-56.5" font-family="Helvetica,sans-Serif" font-size="10.00" fill="#000000">_send_all</text>
</a>
</g>
</g>
<!-- Node207&#45;&gt;Node209 -->
<g id="edge4" class="edge">
<title>Node207&#45;&gt;Node209</title>
<path fill="none" stroke="#191970" d="M446.4187,-61.6215C454.811,-61.8958 463.3936,-62.1763 471.7499,-62.4493"/>
<polygon fill="#191970" stroke="#191970" points="446.4134,-58.1196 436.3044,-61.291 446.1847,-65.1158 446.4134,-58.1196"/>
</g>
</g>
</svg>
