<?xml version="1.0" encoding="UTF-8" standalone="no"?>
<!DOCTYPE svg PUBLIC "-//W3C//DTD SVG 1.1//EN"
 "http://www.w3.org/Graphics/SVG/1.1/DTD/svg11.dtd">
<!-- Generated by graphviz version 2.40.1 (20161225.0304)
 -->
<!-- Title: TooNetworking_bufferlist_add Pages: 1 -->
<svg width="1288pt" height="641pt"
 viewBox="0.00 0.00 1288.00 641.00" xmlns="http://www.w3.org/2000/svg" xmlns:xlink="http://www.w3.org/1999/xlink">
<g id="graph0" class="graph" transform="scale(1 1) rotate(0) translate(4 637)">
<title>TooNetworking_bufferlist_add</title>
<polygon fill="#ffffff" stroke="transparent" points="-4,4 -4,-637 1284,-637 1284,4 -4,4"/>
<!-- Node9 -->
<g id="node1" class="node">
<title>Node9</title>
<polygon fill="#bfbfbf" stroke="#000000" points="0,-449 0,-468 146,-468 146,-449 0,-449"/>
<text text-anchor="middle" x="73" y="-456" font-family="Helvetica,sans-Serif" font-size="10.00" fill="#000000">TooNetworking_bufferlist_add</text>
</g>
<!-- Node10 -->
<g id="node2" class="node">
<title>Node10</title>
<g id="a_node2"><a xlink:href="TooNetworking_8cpp.html#aa8a4e879d4d71fed2a8940cf93b75ae4" target="_top" xlink:title="TooNetworking_bufferlist\l_initialize">
<polygon fill="#ffffff" stroke="#000000" points="182,-563.5 182,-593.5 307,-593.5 307,-563.5 182,-563.5"/>
<text text-anchor="start" x="190" y="-581.5" font-family="Helvetica,sans-Serif" font-size="10.00" fill="#000000">TooNetworking_bufferlist</text>
<text text-anchor="middle" x="244.5" y="-570.5" font-family="Helvetica,sans-Serif" font-size="10.00" fill="#000000">_initialize</text>
</a>
</g>
</g>
<!-- Node9&#45;&gt;Node10 -->
<g id="edge1" class="edge">
<title>Node9&#45;&gt;Node10</title>
<path fill="none" stroke="#191970" d="M81.7193,-468.2072C99.1326,-487.0979 140.1505,-529.1659 182,-554.5 184.6489,-556.1036 187.4234,-557.6333 190.2686,-559.0872"/>
<polygon fill="#191970" stroke="#191970" points="188.9929,-562.3556 199.529,-563.47 191.9875,-556.0285 188.9929,-562.3556"/>
</g>
<!-- Node11 -->
<g id="node3" class="node">
<title>Node11</title>
<g id="a_node3"><a xlink:href="TooNetworking_8cpp.html#a0ad03a7efb42cf40ca3e20fb5df3a5db" target="_top" xlink:title="TooNetworking_bufferlist\l_send_">
<polygon fill="#ffffff" stroke="#000000" points="182,-514.5 182,-544.5 307,-544.5 307,-514.5 182,-514.5"/>
<text text-anchor="start" x="190" y="-532.5" font-family="Helvetica,sans-Serif" font-size="10.00" fill="#000000">TooNetworking_bufferlist</text>
<text text-anchor="middle" x="244.5" y="-521.5" font-family="Helvetica,sans-Serif" font-size="10.00" fill="#000000">_send_</text>
</a>
</g>
</g>
<!-- Node9&#45;&gt;Node11 -->
<g id="edge2" class="edge">
<title>Node9&#45;&gt;Node11</title>
<path fill="none" stroke="#191970" d="M94.606,-468.1228C116.5201,-477.8104 151.4643,-493.0597 182,-505.5 186.1694,-507.1986 190.508,-508.9327 194.869,-510.6526"/>
<polygon fill="#191970" stroke="#191970" points="193.8072,-513.9953 204.3952,-514.3757 196.3554,-507.4756 193.8072,-513.9953"/>
</g>
<!-- Node17 -->
<g id="node9" class="node">
<title>Node17</title>
<g id="a_node9"><a xlink:href="TooSigning_8cpp.html#a729dc41cfb692fb0aea083c38c5f3577" target="_top" xlink:title="TooSigning_received\l_noncelist_find_from_ID">
<polygon fill="#ffffff" stroke="#000000" points="183.5,-465.5 183.5,-495.5 305.5,-495.5 305.5,-465.5 183.5,-465.5"/>
<text text-anchor="start" x="191.5" y="-483.5" font-family="Helvetica,sans-Serif" font-size="10.00" fill="#000000">TooSigning_received</text>
<text text-anchor="middle" x="244.5" y="-472.5" font-family="Helvetica,sans-Serif" font-size="10.00" fill="#000000">_noncelist_find_from_ID</text>
</a>
</g>
</g>
<!-- Node9&#45;&gt;Node17 -->
<g id="edge9" class="edge">
<title>Node9&#45;&gt;Node17</title>
<path fill="none" stroke="#191970" d="M146.2289,-467.8938C155.2249,-469.0478 164.4088,-470.2259 173.3731,-471.3758"/>
<polygon fill="#191970" stroke="#191970" points="173.0148,-474.8585 183.3789,-472.6594 173.9055,-467.9154 173.0148,-474.8585"/>
</g>
<!-- Node18 -->
<g id="node10" class="node">
<title>Node18</title>
<g id="a_node10"><a xlink:href="group__TOOSIGNING__DEBUGGING.html#ga974dd51d29b9bd928de51c481289aad7" target="_top" xlink:title="TooSigning_random_data\l_print">
<polygon fill="#ffffff" stroke="#000000" points="355,-426.5 355,-456.5 482,-456.5 482,-426.5 355,-426.5"/>
<text text-anchor="start" x="363" y="-444.5" font-family="Helvetica,sans-Serif" font-size="10.00" fill="#000000">TooSigning_random_data</text>
<text text-anchor="middle" x="418.5" y="-433.5" font-family="Helvetica,sans-Serif" font-size="10.00" fill="#000000">_print</text>
</a>
</g>
</g>
<!-- Node9&#45;&gt;Node18 -->
<g id="edge10" class="edge">
<title>Node9&#45;&gt;Node18</title>
<path fill="none" stroke="#191970" d="M146.2717,-454.8947C204.6664,-452.0215 286.0661,-448.0163 344.6199,-445.1352"/>
<polygon fill="#191970" stroke="#191970" points="345.094,-448.6162 354.9099,-444.6289 344.7499,-441.6247 345.094,-448.6162"/>
</g>
<!-- Node19 -->
<g id="node11" class="node">
<title>Node19</title>
<g id="a_node11"><a xlink:href="TooNetworking_8cpp.html#a9f893c3218491ee86282fdcd9f376500" target="_top" xlink:title="TooNetworking_send\l_signed_">
<polygon fill="#ffffff" stroke="#000000" points="190,-344.5 190,-374.5 299,-374.5 299,-344.5 190,-344.5"/>
<text text-anchor="start" x="198" y="-362.5" font-family="Helvetica,sans-Serif" font-size="10.00" fill="#000000">TooNetworking_send</text>
<text text-anchor="middle" x="244.5" y="-351.5" font-family="Helvetica,sans-Serif" font-size="10.00" fill="#000000">_signed_</text>
</a>
</g>
</g>
<!-- Node9&#45;&gt;Node19 -->
<g id="edge11" class="edge">
<title>Node9&#45;&gt;Node19</title>
<path fill="none" stroke="#191970" d="M89.7564,-448.8272C117.4176,-432.8595 173.1971,-400.6603 209.6826,-379.5987"/>
<polygon fill="#191970" stroke="#191970" points="211.6032,-382.5313 218.514,-374.5007 208.1036,-376.4689 211.6032,-382.5313"/>
</g>
<!-- Node33 -->
<g id="node25" class="node">
<title>Node33</title>
<g id="a_node25"><a xlink:href="TooSigning_8cpp.html#a53b55547df3d4276f3ca6a74d601549a" target="_top" xlink:title="TooSigning_requested\l_noncelist_add">
<polygon fill="#ffffff" stroke="#000000" points="188,-74.5 188,-104.5 301,-104.5 301,-74.5 188,-74.5"/>
<text text-anchor="start" x="196" y="-92.5" font-family="Helvetica,sans-Serif" font-size="10.00" fill="#000000">TooSigning_requested</text>
<text text-anchor="middle" x="244.5" y="-81.5" font-family="Helvetica,sans-Serif" font-size="10.00" fill="#000000">_noncelist_add</text>
</a>
</g>
</g>
<!-- Node9&#45;&gt;Node33 -->
<g id="edge36" class="edge">
<title>Node9&#45;&gt;Node33</title>
<path fill="none" stroke="#191970" d="M77.5872,-448.6301C100.125,-400.1378 199.3955,-186.547 233.1894,-113.8359"/>
<polygon fill="#191970" stroke="#191970" points="236.4677,-115.0865 237.5085,-104.5429 230.1198,-112.1362 236.4677,-115.0865"/>
</g>
<!-- Node12 -->
<g id="node4" class="node">
<title>Node12</title>
<g id="a_node4"><a xlink:href="TooNetworking_8cpp.html#ac352268e177fa2ddf91c8afa5cd04bbf" target="_top" xlink:title="TooNetworking_connection\l_available">
<polygon fill="#ffffff" stroke="#000000" points="530,-350.5 530,-380.5 665,-380.5 665,-350.5 530,-350.5"/>
<text text-anchor="start" x="538" y="-368.5" font-family="Helvetica,sans-Serif" font-size="10.00" fill="#000000">TooNetworking_connection</text>
<text text-anchor="middle" x="597.5" y="-357.5" font-family="Helvetica,sans-Serif" font-size="10.00" fill="#000000">_available</text>
</a>
</g>
</g>
<!-- Node11&#45;&gt;Node12 -->
<g id="edge3" class="edge">
<title>Node11&#45;&gt;Node12</title>
<path fill="none" stroke="#191970" d="M293.6449,-544.5255C309.2674,-548.6106 326.7187,-552.4661 343,-554.5 409.5935,-562.8191 436.2627,-588.7097 494,-554.5 554.6763,-518.5489 582.1157,-433.0506 592.3651,-390.477"/>
<polygon fill="#191970" stroke="#191970" points="595.7987,-391.1623 594.6103,-380.6343 588.974,-389.6055 595.7987,-391.1623"/>
</g>
<!-- Node14 -->
<g id="node6" class="node">
<title>Node14</title>
<g id="a_node6"><a xlink:href="TooNetworking_8cpp.html#af4808c2c0857cde9a6721ad54f5ab42d" target="_top" xlink:title="TooNetworking_other\l_node_is_online">
<polygon fill="#ffffff" stroke="#000000" points="363.5,-514.5 363.5,-544.5 473.5,-544.5 473.5,-514.5 363.5,-514.5"/>
<text text-anchor="start" x="371.5" y="-532.5" font-family="Helvetica,sans-Serif" font-size="10.00" fill="#000000">TooNetworking_other</text>
<text text-anchor="middle" x="418.5" y="-521.5" font-family="Helvetica,sans-Serif" font-size="10.00" fill="#000000">_node_is_online</text>
</a>
</g>
</g>
<!-- Node11&#45;&gt;Node14 -->
<g id="edge5" class="edge">
<title>Node11&#45;&gt;Node14</title>
<path fill="none" stroke="#191970" d="M307.318,-529.5C322.1873,-529.5 338.0804,-529.5 353.0628,-529.5"/>
<polygon fill="#191970" stroke="#191970" points="353.2661,-533.0001 363.266,-529.5 353.266,-526.0001 353.2661,-533.0001"/>
</g>
<!-- Node15 -->
<g id="node7" class="node">
<title>Node15</title>
<g id="a_node7"><a xlink:href="TooNetworking_8cpp.html#a46674b3fdc9ee370b0839869aa145b75" target="_top" xlink:title="TooNetworking_send">
<polygon fill="#ffffff" stroke="#000000" points="364,-476 364,-495 473,-495 473,-476 364,-476"/>
<text text-anchor="middle" x="418.5" y="-483" font-family="Helvetica,sans-Serif" font-size="10.00" fill="#000000">TooNetworking_send</text>
</a>
</g>
</g>
<!-- Node11&#45;&gt;Node15 -->
<g id="edge6" class="edge">
<title>Node11&#45;&gt;Node15</title>
<path fill="none" stroke="#191970" d="M303.8943,-514.4808C325.8071,-508.9396 350.3266,-502.7393 371.0452,-497.5001"/>
<polygon fill="#191970" stroke="#191970" points="372.0459,-500.8573 380.8827,-495.0124 370.3298,-494.0709 372.0459,-500.8573"/>
</g>
<!-- Node16 -->
<g id="node8" class="node">
<title>Node16</title>
<g id="a_node8"><a xlink:href="TooNetworking_8cpp.html#a3c91b7ab2f6500c287ecc7ab4a018ef6" target="_top" xlink:title="TooNetworking_bufferlist\l_remove">
<polygon fill="#ffffff" stroke="#000000" points="356,-602.5 356,-632.5 481,-632.5 481,-602.5 356,-602.5"/>
<text text-anchor="start" x="364" y="-620.5" font-family="Helvetica,sans-Serif" font-size="10.00" fill="#000000">TooNetworking_bufferlist</text>
<text text-anchor="middle" x="418.5" y="-609.5" font-family="Helvetica,sans-Serif" font-size="10.00" fill="#000000">_remove</text>
</a>
</g>
</g>
<!-- Node11&#45;&gt;Node16 -->
<g id="edge8" class="edge">
<title>Node11&#45;&gt;Node16</title>
<path fill="none" stroke="#191970" d="M288.2007,-544.609C294.6962,-547.5242 301.1626,-550.8303 307,-554.5 325.3756,-566.052 324.6112,-575.969 343,-587.5 349.3258,-591.4667 356.2638,-595.0757 363.2904,-598.3053"/>
<polygon fill="#191970" stroke="#191970" points="362.3114,-601.696 372.8778,-602.4721 365.1016,-595.2761 362.3114,-601.696"/>
</g>
<!-- Node13 -->
<g id="node5" class="node">
<title>Node13</title>
<g id="a_node5"><a xlink:href="TooNetworking_8cpp.html#abdda8f09b9d475ed2c23a2376e2e0151" target="_top" xlink:title="mesh">
<polygon fill="#ffffff" stroke="#000000" points="729,-356 729,-375 770,-375 770,-356 729,-356"/>
<text text-anchor="middle" x="749.5" y="-363" font-family="Helvetica,sans-Serif" font-size="10.00" fill="#000000">mesh</text>
</a>
</g>
</g>
<!-- Node12&#45;&gt;Node13 -->
<g id="edge4" class="edge">
<title>Node12&#45;&gt;Node13</title>
<path fill="none" stroke="#191970" d="M665.0546,-365.5C683.8657,-365.5 703.3756,-365.5 718.8975,-365.5"/>
<polygon fill="#191970" stroke="#191970" points="718.9488,-369.0001 728.9487,-365.5 718.9487,-362.0001 718.9488,-369.0001"/>
</g>
<!-- Node15&#45;&gt;Node13 -->
<g id="edge7" class="edge">
<title>Node15&#45;&gt;Node13</title>
<path fill="none" stroke="#191970" d="M460.7068,-475.9072C471.6307,-473.1443 483.3213,-469.9383 494,-466.5 577.291,-439.6823 672.4138,-399.4341 719.639,-378.7757"/>
<polygon fill="#191970" stroke="#191970" points="721.2206,-381.9038 728.9678,-374.6766 718.4046,-375.4951 721.2206,-381.9038"/>
</g>
<!-- Node19&#45;&gt;Node12 -->
<g id="edge12" class="edge">
<title>Node19&#45;&gt;Node12</title>
<path fill="none" stroke="#191970" d="M299.2689,-360.4309C358.3967,-361.4359 453.0614,-363.045 519.8517,-364.1802"/>
<polygon fill="#191970" stroke="#191970" points="519.8506,-367.6806 529.9087,-364.3511 519.9696,-360.6816 519.8506,-367.6806"/>
</g>
<!-- Node19&#45;&gt;Node14 -->
<g id="edge13" class="edge">
<title>Node19&#45;&gt;Node14</title>
<path fill="none" stroke="#191970" d="M253.997,-374.6348C276.2297,-409.8914 330.7065,-495.2139 343,-504.5 346.4086,-507.0747 350.0959,-509.3922 353.9449,-511.4771"/>
<polygon fill="#191970" stroke="#191970" points="352.6373,-514.7324 363.1642,-515.9313 355.6826,-508.4295 352.6373,-514.7324"/>
</g>
<!-- Node19&#45;&gt;Node15 -->
<g id="edge32" class="edge">
<title>Node19&#45;&gt;Node15</title>
<path fill="none" stroke="#191970" d="M254.2733,-374.8772C270.0188,-398.3505 303.2892,-442.8774 343,-466.5 346.6592,-468.6767 350.5609,-470.6054 354.5902,-472.3142"/>
<polygon fill="#191970" stroke="#191970" points="353.5771,-475.6724 364.1691,-475.9154 356.0404,-469.1202 353.5771,-475.6724"/>
</g>
<!-- Node19&#45;&gt;Node18 -->
<g id="edge14" class="edge">
<title>Node19&#45;&gt;Node18</title>
<path fill="none" stroke="#191970" d="M267.6646,-374.7274C287.1838,-387.1072 316.146,-404.4375 343,-416.5 347.9594,-418.7277 353.1793,-420.8615 358.4622,-422.8777"/>
<polygon fill="#191970" stroke="#191970" points="357.4033,-426.2172 367.997,-426.3745 359.8136,-419.6453 357.4033,-426.2172"/>
</g>
<!-- Node20 -->
<g id="node12" class="node">
<title>Node20</title>
<g id="a_node12"><a xlink:href="TooSigning_8cpp.html#a3994a32f8b2275d51b6832644f703bc7" target="_top" xlink:title="TooSigning_read_hmac\l_from_progmem">
<polygon fill="#ffffff" stroke="#000000" points="359,-224.5 359,-254.5 478,-254.5 478,-224.5 359,-224.5"/>
<text text-anchor="start" x="367" y="-242.5" font-family="Helvetica,sans-Serif" font-size="10.00" fill="#000000">TooSigning_read_hmac</text>
<text text-anchor="middle" x="418.5" y="-231.5" font-family="Helvetica,sans-Serif" font-size="10.00" fill="#000000">_from_progmem</text>
</a>
</g>
</g>
<!-- Node19&#45;&gt;Node20 -->
<g id="edge15" class="edge">
<title>Node19&#45;&gt;Node20</title>
<path fill="none" stroke="#191970" d="M256.5687,-344.1562C273.6991,-323.3366 307.0082,-286.248 343,-264.5 346.4253,-262.4303 350.0428,-260.5088 353.765,-258.7284"/>
<polygon fill="#191970" stroke="#191970" points="355.4364,-261.817 363.1835,-254.5897 352.6203,-255.4084 355.4364,-261.817"/>
</g>
<!-- Node21 -->
<g id="node13" class="node">
<title>Node21</title>
<g id="a_node13"><a xlink:href="classSha256Class.html#a73d3dcea6eb667fd146d12aa5d106939" target="_top" xlink:title="Sha256Class::initHmac">
<polygon fill="#ffffff" stroke="#000000" points="358.5,-274 358.5,-293 478.5,-293 478.5,-274 358.5,-274"/>
<text text-anchor="middle" x="418.5" y="-281" font-family="Helvetica,sans-Serif" font-size="10.00" fill="#000000">Sha256Class::initHmac</text>
</a>
</g>
</g>
<!-- Node19&#45;&gt;Node21 -->
<g id="edge16" class="edge">
<title>Node19&#45;&gt;Node21</title>
<path fill="none" stroke="#191970" d="M266.6671,-344.2616C286.0538,-331.5351 315.3563,-313.72 343,-302.5 349.1426,-300.0068 355.7029,-297.7715 362.2953,-295.7869"/>
<polygon fill="#191970" stroke="#191970" points="363.2642,-299.1502 371.9319,-293.0576 361.3566,-292.4151 363.2642,-299.1502"/>
</g>
<!-- Node29 -->
<g id="node21" class="node">
<title>Node29</title>
<g id="a_node21"><a xlink:href="group__TOOSIGNING__HASHING.html#gafb2935303b05255e80a7a6fa4be7cf57" target="_top" xlink:title="TooSigning_hash_data">
<polygon fill="#ffffff" stroke="#000000" points="360.5,-148 360.5,-167 476.5,-167 476.5,-148 360.5,-148"/>
<text text-anchor="middle" x="418.5" y="-155" font-family="Helvetica,sans-Serif" font-size="10.00" fill="#000000">TooSigning_hash_data</text>
</a>
</g>
</g>
<!-- Node19&#45;&gt;Node29 -->
<g id="edge25" class="edge">
<title>Node19&#45;&gt;Node29</title>
<path fill="none" stroke="#191970" d="M248.1242,-344.4861C257.4152,-309.3344 285.5024,-221.2881 343,-176.5 345.6124,-174.465 348.4164,-172.6455 351.3512,-171.0189"/>
<polygon fill="#191970" stroke="#191970" points="352.946,-174.1364 360.4877,-166.6951 349.9516,-167.8091 352.946,-174.1364"/>
</g>
<!-- Node30 -->
<g id="node22" class="node">
<title>Node30</title>
<g id="a_node22"><a xlink:href="group__TOOSIGNING__HASHING.html#gae743dd1289d92f915352e40b047b4cc8" target="_top" xlink:title="TooSigning_hash_store">
<polygon fill="#ffffff" stroke="#000000" points="359,-388 359,-407 478,-407 478,-388 359,-388"/>
<text text-anchor="middle" x="418.5" y="-395" font-family="Helvetica,sans-Serif" font-size="10.00" fill="#000000">TooSigning_hash_store</text>
</a>
</g>
</g>
<!-- Node19&#45;&gt;Node30 -->
<g id="edge27" class="edge">
<title>Node19&#45;&gt;Node30</title>
<path fill="none" stroke="#191970" d="M299.0773,-371.4192C320.0614,-376.0019 343.9822,-381.226 364.8759,-385.789"/>
<polygon fill="#191970" stroke="#191970" points="364.347,-389.2559 374.8635,-387.9702 365.8406,-382.4171 364.347,-389.2559"/>
</g>
<!-- Node31 -->
<g id="node23" class="node">
<title>Node31</title>
<g id="a_node23"><a xlink:href="classSha256Class.html#a7556f29cadf7eaca21a537df41318af3" target="_top" xlink:title="Sha256Class::resultHmac">
<polygon fill="#ffffff" stroke="#000000" points="353,-186 353,-205 484,-205 484,-186 353,-186"/>
<text text-anchor="middle" x="418.5" y="-193" font-family="Helvetica,sans-Serif" font-size="10.00" fill="#000000">Sha256Class::resultHmac</text>
</a>
</g>
</g>
<!-- Node19&#45;&gt;Node31 -->
<g id="edge28" class="edge">
<title>Node19&#45;&gt;Node31</title>
<path fill="none" stroke="#191970" d="M250.5207,-344.0588C262.999,-314.1603 294.6192,-248.3369 343,-214.5 345.8556,-212.5028 348.9017,-210.7152 352.0711,-209.1153"/>
<polygon fill="#191970" stroke="#191970" points="353.5177,-212.3027 361.2734,-205.0847 350.7092,-205.8908 353.5177,-212.3027"/>
</g>
<!-- Node32 -->
<g id="node24" class="node">
<title>Node32</title>
<g id="a_node24"><a xlink:href="TooNetworking_8cpp.html#aefc5dad88b637efb11a3a7b2f76a19b9" target="_top" xlink:title="TooNetworking_connection_fix">
<polygon fill="#ffffff" stroke="#000000" points="343,-312 343,-331 494,-331 494,-312 343,-312"/>
<text text-anchor="middle" x="418.5" y="-319" font-family="Helvetica,sans-Serif" font-size="10.00" fill="#000000">TooNetworking_connection_fix</text>
</a>
</g>
</g>
<!-- Node19&#45;&gt;Node32 -->
<g id="edge33" class="edge">
<title>Node19&#45;&gt;Node32</title>
<path fill="none" stroke="#191970" d="M299.0773,-347.5808C320.0614,-342.9981 343.9822,-337.774 364.8759,-333.211"/>
<polygon fill="#191970" stroke="#191970" points="365.8406,-336.5829 374.8635,-331.0298 364.347,-329.7441 365.8406,-336.5829"/>
</g>
<!-- Node22 -->
<g id="node14" class="node">
<title>Node22</title>
<g id="a_node14"><a xlink:href="classSha256Class.html#ac1025d69c51fcd1b882ee41114e58339" target="_top" xlink:title="Sha256Class::init">
<polygon fill="#ffffff" stroke="#000000" points="550.5,-268 550.5,-287 644.5,-287 644.5,-268 550.5,-268"/>
<text text-anchor="middle" x="597.5" y="-275" font-family="Helvetica,sans-Serif" font-size="10.00" fill="#000000">Sha256Class::init</text>
</a>
</g>
</g>
<!-- Node21&#45;&gt;Node22 -->
<g id="edge17" class="edge">
<title>Node21&#45;&gt;Node22</title>
<path fill="none" stroke="#191970" d="M478.6024,-281.4854C498.4949,-280.8186 520.567,-280.0788 540.2402,-279.4193"/>
<polygon fill="#191970" stroke="#191970" points="540.408,-282.9158 550.2851,-279.0826 540.1735,-275.9197 540.408,-282.9158"/>
</g>
<!-- Node23 -->
<g id="node15" class="node">
<title>Node23</title>
<g id="a_node15"><a xlink:href="classSha256Class.html#a0f0fc4bd4d8c53d232df0d41d7ea25e0" target="_top" xlink:title="Sha256Class::write">
<polygon fill="#ffffff" stroke="#000000" points="546.5,-186 546.5,-205 648.5,-205 648.5,-186 546.5,-186"/>
<text text-anchor="middle" x="597.5" y="-193" font-family="Helvetica,sans-Serif" font-size="10.00" fill="#000000">Sha256Class::write</text>
</a>
</g>
</g>
<!-- Node21&#45;&gt;Node23 -->
<g id="edge18" class="edge">
<title>Node21&#45;&gt;Node23</title>
<path fill="none" stroke="#191970" d="M475.2347,-273.9129C481.871,-271.4573 488.2977,-268.3732 494,-264.5 516.6517,-249.1141 507.5647,-230.1998 530,-214.5 532.8801,-212.4845 535.9693,-210.682 539.1837,-209.07"/>
<polygon fill="#191970" stroke="#191970" points="540.7323,-212.2132 548.5046,-205.0131 537.9386,-205.7949 540.7323,-212.2132"/>
</g>
<!-- Node27 -->
<g id="node19" class="node">
<title>Node27</title>
<g id="a_node19"><a xlink:href="classSha256Class.html#a0ca245a22f8b056a3d1902da3c64b705" target="_top" xlink:title="Sha256Class::result">
<polygon fill="#ffffff" stroke="#000000" points="545,-224 545,-243 650,-243 650,-224 545,-224"/>
<text text-anchor="middle" x="597.5" y="-231" font-family="Helvetica,sans-Serif" font-size="10.00" fill="#000000">Sha256Class::result</text>
</a>
</g>
</g>
<!-- Node21&#45;&gt;Node27 -->
<g id="edge22" class="edge">
<title>Node21&#45;&gt;Node27</title>
<path fill="none" stroke="#191970" d="M457.7729,-273.9686C469.4588,-271.0377 482.2721,-267.7303 494,-264.5 514.9435,-258.7313 538.1199,-251.8376 557.2225,-246.0174"/>
<polygon fill="#191970" stroke="#191970" points="558.2698,-249.3572 566.8073,-243.0833 556.2207,-242.6638 558.2698,-249.3572"/>
</g>
<!-- Node24 -->
<g id="node16" class="node">
<title>Node24</title>
<g id="a_node16"><a xlink:href="classSha256Class.html#ab0b46743e3d59b1c68f52ed89dfaff50" target="_top" xlink:title="Sha256Class::addUncounted">
<polygon fill="#ffffff" stroke="#000000" points="834,-205 834,-224 978,-224 978,-205 834,-205"/>
<text text-anchor="middle" x="906" y="-212" font-family="Helvetica,sans-Serif" font-size="10.00" fill="#000000">Sha256Class::addUncounted</text>
</a>
</g>
</g>
<!-- Node23&#45;&gt;Node24 -->
<g id="edge19" class="edge">
<title>Node23&#45;&gt;Node24</title>
<path fill="none" stroke="#191970" d="M648.7888,-198.6588C696.3709,-201.5893 768.0091,-206.0014 823.6076,-209.4256"/>
<polygon fill="#191970" stroke="#191970" points="823.5967,-212.9315 833.793,-210.0529 824.0271,-205.9447 823.5967,-212.9315"/>
</g>
<!-- Node25 -->
<g id="node17" class="node">
<title>Node25</title>
<g id="a_node17"><a xlink:href="classSha256Class.html#a399d2a23951e2130f54af8ac7712068f" target="_top" xlink:title="Sha256Class::hashBlock">
<polygon fill="#ffffff" stroke="#000000" points="1014,-205 1014,-224 1141,-224 1141,-205 1014,-205"/>
<text text-anchor="middle" x="1077.5" y="-212" font-family="Helvetica,sans-Serif" font-size="10.00" fill="#000000">Sha256Class::hashBlock</text>
</a>
</g>
</g>
<!-- Node24&#45;&gt;Node25 -->
<g id="edge20" class="edge">
<title>Node24&#45;&gt;Node25</title>
<path fill="none" stroke="#191970" d="M978.2344,-214.5C986.6298,-214.5 995.2026,-214.5 1003.6198,-214.5"/>
<polygon fill="#191970" stroke="#191970" points="1003.7873,-218.0001 1013.7873,-214.5 1003.7873,-211.0001 1003.7873,-218.0001"/>
</g>
<!-- Node26 -->
<g id="node18" class="node">
<title>Node26</title>
<g id="a_node18"><a xlink:href="classSha256Class.html#ae275718ce9813bb33b2d8d8fbf018bd6" target="_top" xlink:title="Sha256Class::ror32">
<polygon fill="#ffffff" stroke="#000000" points="1177,-205 1177,-224 1280,-224 1280,-205 1177,-205"/>
<text text-anchor="middle" x="1228.5" y="-212" font-family="Helvetica,sans-Serif" font-size="10.00" fill="#000000">Sha256Class::ror32</text>
</a>
</g>
</g>
<!-- Node25&#45;&gt;Node26 -->
<g id="edge21" class="edge">
<title>Node25&#45;&gt;Node26</title>
<path fill="none" stroke="#191970" d="M1141.1,-214.5C1149.5806,-214.5 1158.2667,-214.5 1166.7157,-214.5"/>
<polygon fill="#191970" stroke="#191970" points="1166.8743,-218.0001 1176.8743,-214.5 1166.8742,-211.0001 1166.8743,-218.0001"/>
</g>
<!-- Node28 -->
<g id="node20" class="node">
<title>Node28</title>
<g id="a_node20"><a xlink:href="classSha256Class.html#a82049dae520ccf0bd8478f2aef639149" target="_top" xlink:title="Sha256Class::pad">
<polygon fill="#ffffff" stroke="#000000" points="701,-224 701,-243 798,-243 798,-224 701,-224"/>
<text text-anchor="middle" x="749.5" y="-231" font-family="Helvetica,sans-Serif" font-size="10.00" fill="#000000">Sha256Class::pad</text>
</a>
</g>
</g>
<!-- Node27&#45;&gt;Node28 -->
<g id="edge23" class="edge">
<title>Node27&#45;&gt;Node28</title>
<path fill="none" stroke="#191970" d="M650.2356,-233.5C663.3546,-233.5 677.497,-233.5 690.8798,-233.5"/>
<polygon fill="#191970" stroke="#191970" points="690.9361,-237.0001 700.936,-233.5 690.936,-230.0001 690.9361,-237.0001"/>
</g>
<!-- Node28&#45;&gt;Node24 -->
<g id="edge24" class="edge">
<title>Node28&#45;&gt;Node24</title>
<path fill="none" stroke="#191970" d="M798.1597,-227.5924C806.3741,-226.5952 815.0986,-225.536 823.8883,-224.4688"/>
<polygon fill="#191970" stroke="#191970" points="824.3108,-227.9433 833.8161,-223.2635 823.4671,-220.9944 824.3108,-227.9433"/>
</g>
<!-- Node29&#45;&gt;Node23 -->
<g id="edge26" class="edge">
<title>Node29&#45;&gt;Node23</title>
<path fill="none" stroke="#191970" d="M463.6693,-167.089C487.7159,-172.1939 517.4744,-178.5113 542.8194,-183.8918"/>
<polygon fill="#191970" stroke="#191970" points="542.1467,-187.3269 552.6556,-185.9799 543.6004,-180.4795 542.1467,-187.3269"/>
</g>
<!-- Node31&#45;&gt;Node22 -->
<g id="edge30" class="edge">
<title>Node31&#45;&gt;Node22</title>
<path fill="none" stroke="#191970" d="M472.384,-205.0395C479.9193,-207.5083 487.3506,-210.6087 494,-214.5 514.0789,-226.2505 510.5857,-239.6813 530,-252.5 536.9692,-257.1016 544.8997,-261.0043 552.8146,-264.2595"/>
<polygon fill="#191970" stroke="#191970" points="551.8049,-267.6203 562.3957,-267.9125 554.2987,-261.0795 551.8049,-267.6203"/>
</g>
<!-- Node31&#45;&gt;Node23 -->
<g id="edge31" class="edge">
<title>Node31&#45;&gt;Node23</title>
<path fill="none" stroke="#191970" d="M484.1366,-195.5C501.1581,-195.5 519.422,-195.5 536.2107,-195.5"/>
<polygon fill="#191970" stroke="#191970" points="536.4491,-199.0001 546.4491,-195.5 536.449,-192.0001 536.4491,-199.0001"/>
</g>
<!-- Node31&#45;&gt;Node27 -->
<g id="edge29" class="edge">
<title>Node31&#45;&gt;Node27</title>
<path fill="none" stroke="#191970" d="M463.6693,-205.089C487.7159,-210.1939 517.4744,-216.5113 542.8194,-221.8918"/>
<polygon fill="#191970" stroke="#191970" points="542.1467,-225.3269 552.6556,-223.9799 543.6004,-218.4795 542.1467,-225.3269"/>
</g>
<!-- Node32&#45;&gt;Node12 -->
<g id="edge34" class="edge">
<title>Node32&#45;&gt;Node12</title>
<path fill="none" stroke="#191970" d="M457.3403,-331.0473C477.4936,-336.0012 502.7568,-342.2112 526.2643,-347.9895"/>
<polygon fill="#191970" stroke="#191970" points="525.6649,-351.4463 536.2114,-350.4346 527.3359,-344.6487 525.6649,-351.4463"/>
</g>
<!-- Node32&#45;&gt;Node13 -->
<g id="edge35" class="edge">
<title>Node32&#45;&gt;Node13</title>
<path fill="none" stroke="#191970" d="M494.2417,-323.8103C543.2578,-326.2464 608.2781,-331.2459 665,-341.5 683.2196,-344.7937 703.1628,-350.3611 719.097,-355.3049"/>
<polygon fill="#191970" stroke="#191970" points="718.3403,-358.737 728.9308,-358.4335 720.4625,-352.0664 718.3403,-358.737"/>
</g>
<!-- Node34 -->
<g id="node26" class="node">
<title>Node34</title>
<g id="a_node26"><a xlink:href="group__TOOSIGNING__INITIALIZE.html#gafd247c5271ff63bfcde14ef94060002d" target="_top" xlink:title="TooSigning_requested\l_noncelist_initialize">
<polygon fill="#ffffff" stroke="#000000" points="362,-98.5 362,-128.5 475,-128.5 475,-98.5 362,-98.5"/>
<text text-anchor="start" x="370" y="-116.5" font-family="Helvetica,sans-Serif" font-size="10.00" fill="#000000">TooSigning_requested</text>
<text text-anchor="middle" x="418.5" y="-105.5" font-family="Helvetica,sans-Serif" font-size="10.00" fill="#000000">_noncelist_initialize</text>
</a>
</g>
</g>
<!-- Node33&#45;&gt;Node34 -->
<g id="edge37" class="edge">
<title>Node33&#45;&gt;Node34</title>
<path fill="none" stroke="#191970" d="M301.4741,-97.3585C317.5614,-99.5774 335.2098,-102.0117 351.8128,-104.3018"/>
<polygon fill="#191970" stroke="#191970" points="351.6077,-107.8065 361.9922,-105.7058 352.5642,-100.8722 351.6077,-107.8065"/>
</g>
<!-- Node35 -->
<g id="node27" class="node">
<title>Node35</title>
<g id="a_node27"><a xlink:href="TooSigning_8cpp.html#a74e394128707e55045381d7c9ab6f6fd" target="_top" xlink:title="TooSigning_requested\l_noncelist_find_for_nodeID">
<polygon fill="#ffffff" stroke="#000000" points="351,-49.5 351,-79.5 486,-79.5 486,-49.5 351,-49.5"/>
<text text-anchor="start" x="359" y="-67.5" font-family="Helvetica,sans-Serif" font-size="10.00" fill="#000000">TooSigning_requested</text>
<text text-anchor="middle" x="418.5" y="-56.5" font-family="Helvetica,sans-Serif" font-size="10.00" fill="#000000">_noncelist_find_for_nodeID</text>
</a>
</g>
</g>
<!-- Node33&#45;&gt;Node35 -->
<g id="edge38" class="edge">
<title>Node33&#45;&gt;Node35</title>
<path fill="none" stroke="#191970" d="M301.4741,-81.3141C314.032,-79.5098 327.5412,-77.5688 340.7619,-75.6693"/>
<polygon fill="#191970" stroke="#191970" points="341.3945,-79.1144 350.795,-74.2277 340.3989,-72.1856 341.3945,-79.1144"/>
</g>
<!-- Node36 -->
<g id="node28" class="node">
<title>Node36</title>
<g id="a_node28"><a xlink:href="group__TOOSIGNING__DEBUGGING.html#gabb54a5e4968d69e35d665869d5c6588f" target="_top" xlink:title="TooSigning_requested\l_noncelist_print">
<polygon fill="#ffffff" stroke="#000000" points="362,-.5 362,-30.5 475,-30.5 475,-.5 362,-.5"/>
<text text-anchor="start" x="370" y="-18.5" font-family="Helvetica,sans-Serif" font-size="10.00" fill="#000000">TooSigning_requested</text>
<text text-anchor="middle" x="418.5" y="-7.5" font-family="Helvetica,sans-Serif" font-size="10.00" fill="#000000">_noncelist_print</text>
</a>
</g>
</g>
<!-- Node33&#45;&gt;Node36 -->
<g id="edge39" class="edge">
<title>Node33&#45;&gt;Node36</title>
<path fill="none" stroke="#191970" d="M271.5405,-74.2738C291.0252,-63.6761 318.1545,-49.6766 343,-39.5 347.7311,-37.5622 352.6801,-35.6811 357.684,-33.8811"/>
<polygon fill="#191970" stroke="#191970" points="359.036,-37.1166 367.3315,-30.5261 356.7367,-30.505 359.036,-37.1166"/>
</g>
</g>
</svg>
