<?xml version="1.0" encoding="UTF-8" standalone="no"?>
<!DOCTYPE svg PUBLIC "-//W3C//DTD SVG 1.1//EN"
 "http://www.w3.org/Graphics/SVG/1.1/DTD/svg11.dtd">
<!-- Generated by graphviz version 2.40.1 (20161225.0304)
 -->
<!-- Title: TooNetworking_connection_fix Pages: 1 -->
<svg width="1089pt" height="194pt"
 viewBox="0.00 0.00 1089.00 194.00" xmlns="http://www.w3.org/2000/svg" xmlns:xlink="http://www.w3.org/1999/xlink">
<g id="graph0" class="graph" transform="scale(1 1) rotate(0) translate(4 190)">
<title>TooNetworking_connection_fix</title>
<polygon fill="#ffffff" stroke="transparent" points="-4,4 -4,-190 1085,-190 1085,4 -4,4"/>
<!-- Node162 -->
<g id="node1" class="node">
<title>Node162</title>
<polygon fill="#bfbfbf" stroke="#000000" points="0,-53 0,-72 151,-72 151,-53 0,-53"/>
<text text-anchor="middle" x="75.5" y="-60" font-family="Helvetica,sans-Serif" font-size="10.00" fill="#000000">TooNetworking_connection_fix</text>
</g>
<!-- Node163 -->
<g id="node2" class="node">
<title>Node163</title>
<g id="a_node2"><a xlink:href="TooNetworking_8h.html#a9f893c3218491ee86282fdcd9f376500" target="_top" xlink:title="TooNetworking_send\l_signed_">
<polygon fill="#ffffff" stroke="#000000" points="199.5,-93.5 199.5,-123.5 308.5,-123.5 308.5,-93.5 199.5,-93.5"/>
<text text-anchor="start" x="207.5" y="-111.5" font-family="Helvetica,sans-Serif" font-size="10.00" fill="#000000">TooNetworking_send</text>
<text text-anchor="middle" x="254" y="-100.5" font-family="Helvetica,sans-Serif" font-size="10.00" fill="#000000">_signed_</text>
</a>
</g>
</g>
<!-- Node162&#45;&gt;Node163 -->
<g id="edge1" class="edge">
<title>Node162&#45;&gt;Node163</title>
<path fill="none" stroke="#191970" d="M122.2781,-74.5548C145.9331,-80.6508 174.779,-88.0845 199.44,-94.4397"/>
<polygon fill="#191970" stroke="#191970" points="123.0424,-71.1375 112.4853,-72.0312 121.2955,-77.9161 123.0424,-71.1375"/>
</g>
<!-- Node169 -->
<g id="node8" class="node">
<title>Node169</title>
<g id="a_node8"><a xlink:href="TooSigning_8h.html#abf99e5d9b5ec252bfff3bf26c0ba9e37" target="_top" xlink:title="TooSigning_connection_fix">
<polygon fill="#ffffff" stroke="#000000" points="187,-31 187,-50 321,-50 321,-31 187,-31"/>
<text text-anchor="middle" x="254" y="-38" font-family="Helvetica,sans-Serif" font-size="10.00" fill="#000000">TooSigning_connection_fix</text>
</a>
</g>
</g>
<!-- Node162&#45;&gt;Node169 -->
<g id="edge9" class="edge">
<title>Node162&#45;&gt;Node169</title>
<path fill="none" stroke="#191970" d="M161.2802,-51.9277C169.9003,-50.8652 178.5636,-49.7975 186.9479,-48.7641"/>
<polygon fill="#191970" stroke="#191970" points="160.6968,-48.473 151.2001,-53.17 161.5531,-55.4204 160.6968,-48.473"/>
</g>
<!-- Node164 -->
<g id="node3" class="node">
<title>Node164</title>
<g id="a_node3"><a xlink:href="TooNetworking_8h.html#a59be7e774988f57ab43c4c078c570c67" target="_top" xlink:title="TooNetworking_bufferlist_add">
<polygon fill="#ffffff" stroke="#000000" points="357,-137 357,-156 503,-156 503,-137 357,-137"/>
<text text-anchor="middle" x="430" y="-144" font-family="Helvetica,sans-Serif" font-size="10.00" fill="#000000">TooNetworking_bufferlist_add</text>
</a>
</g>
</g>
<!-- Node163&#45;&gt;Node164 -->
<g id="edge2" class="edge">
<title>Node163&#45;&gt;Node164</title>
<path fill="none" stroke="#191970" d="M318.5082,-122.4279C340.9217,-127.2672 365.5289,-132.5801 385.9107,-136.9807"/>
<polygon fill="#191970" stroke="#191970" points="319.2362,-119.0045 308.7227,-120.3151 317.7588,-125.8468 319.2362,-119.0045"/>
</g>
<!-- Node165 -->
<g id="node4" class="node">
<title>Node165</title>
<g id="a_node4"><a xlink:href="TooNetworking_8h.html#a9209f3e1a2fdf0b3b88d49105b8fc359" target="_top" xlink:title="TooNetworking_send\l_signed">
<polygon fill="#ffffff" stroke="#000000" points="547,-155.5 547,-185.5 656,-185.5 656,-155.5 547,-155.5"/>
<text text-anchor="start" x="555" y="-173.5" font-family="Helvetica,sans-Serif" font-size="10.00" fill="#000000">TooNetworking_send</text>
<text text-anchor="middle" x="601.5" y="-162.5" font-family="Helvetica,sans-Serif" font-size="10.00" fill="#000000">_signed</text>
</a>
</g>
</g>
<!-- Node163&#45;&gt;Node165 -->
<g id="edge6" class="edge">
<title>Node163&#45;&gt;Node165</title>
<path fill="none" stroke="#191970" d="M282.9213,-129.5264C302.7087,-142.6058 330.1311,-158.2674 357,-165.5 420.3411,-182.5502 496.282,-180.8414 546.5436,-176.8061"/>
<polygon fill="#191970" stroke="#191970" points="284.6357,-126.46 274.3964,-123.7383 280.7036,-132.2512 284.6357,-126.46"/>
</g>
<!-- Node166 -->
<g id="node5" class="node">
<title>Node166</title>
<g id="a_node5"><a xlink:href="TooNetworking_8h.html#a085ff748b00f6be4ebafcae2bb0dded1" target="_top" xlink:title="TooNetworking_bufferlist\l_send_signed">
<polygon fill="#ffffff" stroke="#000000" points="539,-93.5 539,-123.5 664,-123.5 664,-93.5 539,-93.5"/>
<text text-anchor="start" x="547" y="-111.5" font-family="Helvetica,sans-Serif" font-size="10.00" fill="#000000">TooNetworking_bufferlist</text>
<text text-anchor="middle" x="601.5" y="-100.5" font-family="Helvetica,sans-Serif" font-size="10.00" fill="#000000">_send_signed</text>
</a>
</g>
</g>
<!-- Node163&#45;&gt;Node166 -->
<g id="edge7" class="edge">
<title>Node163&#45;&gt;Node166</title>
<path fill="none" stroke="#191970" d="M318.8863,-108.5C381.8478,-108.5 476.7489,-108.5 538.9169,-108.5"/>
<polygon fill="#191970" stroke="#191970" points="318.6792,-105.0001 308.6791,-108.5 318.6791,-112.0001 318.6792,-105.0001"/>
</g>
<!-- Node168 -->
<g id="node7" class="node">
<title>Node168</title>
<g id="a_node7"><a xlink:href="TooNetworking_8h.html#ab58e06e0eb6f2f8ecbebeaf3c173fb22" target="_top" xlink:title="TooNetworking_bufferlist\l_send_all">
<polygon fill="#ffffff" stroke="#000000" points="367.5,-49.5 367.5,-79.5 492.5,-79.5 492.5,-49.5 367.5,-49.5"/>
<text text-anchor="start" x="375.5" y="-67.5" font-family="Helvetica,sans-Serif" font-size="10.00" fill="#000000">TooNetworking_bufferlist</text>
<text text-anchor="middle" x="430" y="-56.5" font-family="Helvetica,sans-Serif" font-size="10.00" fill="#000000">_send_all</text>
</a>
</g>
</g>
<!-- Node163&#45;&gt;Node168 -->
<g id="edge8" class="edge">
<title>Node163&#45;&gt;Node168</title>
<path fill="none" stroke="#191970" d="M318.442,-92.3895C335.2262,-88.1935 353.2446,-83.6888 369.8001,-79.55"/>
<polygon fill="#191970" stroke="#191970" points="317.5753,-88.9984 308.7227,-94.8193 319.2731,-95.7894 317.5753,-88.9984"/>
</g>
<!-- Node164&#45;&gt;Node165 -->
<g id="edge3" class="edge">
<title>Node164&#45;&gt;Node165</title>
<path fill="none" stroke="#191970" d="M508.2082,-157.4446C521.2857,-159.2747 534.599,-161.1378 546.9187,-162.8618"/>
<polygon fill="#191970" stroke="#191970" points="508.6627,-153.9742 498.2741,-156.0544 507.6925,-160.9066 508.6627,-153.9742"/>
</g>
<!-- Node164&#45;&gt;Node166 -->
<g id="edge4" class="edge">
<title>Node164&#45;&gt;Node166</title>
<path fill="none" stroke="#191970" d="M483.3451,-134.6801C500.9093,-130.7883 520.6003,-126.4253 538.7958,-122.3936"/>
<polygon fill="#191970" stroke="#191970" points="482.2827,-131.3305 473.2767,-136.911 483.7971,-138.1648 482.2827,-131.3305"/>
</g>
<!-- Node167 -->
<g id="node6" class="node">
<title>Node167</title>
<g id="a_node6"><a xlink:href="NODE__SKETCH__TooAutomation__Node_8ino_8cpp.html#a0b33edabd7f1c4e4a0bf32c67269be2f" target="_top" xlink:title="loop">
<polygon fill="#ffffff" stroke="#000000" points="1046,-53 1046,-72 1081,-72 1081,-53 1046,-53"/>
<text text-anchor="middle" x="1063.5" y="-60" font-family="Helvetica,sans-Serif" font-size="10.00" fill="#000000">loop</text>
</a>
</g>
</g>
<!-- Node166&#45;&gt;Node167 -->
<g id="edge5" class="edge">
<title>Node166&#45;&gt;Node167</title>
<path fill="none" stroke="#191970" d="M674.2953,-101.252C784.0856,-90.3205 985.6387,-70.2524 1045.9827,-64.2441"/>
<polygon fill="#191970" stroke="#191970" points="673.8922,-97.7747 664.2882,-102.2484 674.5858,-104.7403 673.8922,-97.7747"/>
</g>
<!-- Node170 -->
<g id="node9" class="node">
<title>Node170</title>
<g id="a_node9"><a xlink:href="TooSigning_8h.html#a58143364a83636a3d2df075a95cb2bfc" target="_top" xlink:title="TooSigning_request\l_nonce_from_node_id">
<polygon fill="#ffffff" stroke="#000000" points="374,-.5 374,-30.5 486,-30.5 486,-.5 374,-.5"/>
<text text-anchor="start" x="382" y="-18.5" font-family="Helvetica,sans-Serif" font-size="10.00" fill="#000000">TooSigning_request</text>
<text text-anchor="middle" x="430" y="-7.5" font-family="Helvetica,sans-Serif" font-size="10.00" fill="#000000">_nonce_from_node_id</text>
</a>
</g>
</g>
<!-- Node169&#45;&gt;Node170 -->
<g id="edge10" class="edge">
<title>Node169&#45;&gt;Node170</title>
<path fill="none" stroke="#191970" d="M331.3396,-29.5143C345.6064,-27.4877 360.2525,-25.4073 373.7482,-23.4903"/>
<polygon fill="#191970" stroke="#191970" points="330.4485,-26.1056 321.0401,-30.9773 331.433,-33.0361 330.4485,-26.1056"/>
</g>
<!-- Node171 -->
<g id="node10" class="node">
<title>Node171</title>
<g id="a_node10"><a xlink:href="TooSigning_8h.html#af7ec4002cf8cf81195f3745703e04b22" target="_top" xlink:title="TooSigning_requested\l_noncelist_retry_all">
<polygon fill="#ffffff" stroke="#000000" points="545,-22.5 545,-52.5 658,-52.5 658,-22.5 545,-22.5"/>
<text text-anchor="start" x="553" y="-40.5" font-family="Helvetica,sans-Serif" font-size="10.00" fill="#000000">TooSigning_requested</text>
<text text-anchor="middle" x="601.5" y="-29.5" font-family="Helvetica,sans-Serif" font-size="10.00" fill="#000000">_noncelist_retry_all</text>
</a>
</g>
</g>
<!-- Node170&#45;&gt;Node171 -->
<g id="edge11" class="edge">
<title>Node170&#45;&gt;Node171</title>
<path fill="none" stroke="#191970" d="M496.5046,-24.0312C512.4977,-26.0828 529.4326,-28.2552 544.9249,-30.2426"/>
<polygon fill="#191970" stroke="#191970" points="496.5196,-20.5045 486.1555,-22.7036 495.6289,-27.4476 496.5196,-20.5045"/>
</g>
<!-- Node172 -->
<g id="node11" class="node">
<title>Node172</title>
<g id="a_node11"><a xlink:href="TooSigning_8h.html#af68b8dda897cf488129c205ad532ca9e" target="_top" xlink:title="TooSigning_signed_network\l_update">
<polygon fill="#ffffff" stroke="#000000" points="700,-24.5 700,-54.5 839,-54.5 839,-24.5 700,-24.5"/>
<text text-anchor="start" x="708" y="-42.5" font-family="Helvetica,sans-Serif" font-size="10.00" fill="#000000">TooSigning_signed_network</text>
<text text-anchor="middle" x="769.5" y="-31.5" font-family="Helvetica,sans-Serif" font-size="10.00" fill="#000000">_update</text>
</a>
</g>
</g>
<!-- Node171&#45;&gt;Node172 -->
<g id="edge12" class="edge">
<title>Node171&#45;&gt;Node172</title>
<path fill="none" stroke="#191970" d="M668.5393,-38.2981C678.8442,-38.4208 689.5044,-38.5477 699.8642,-38.671"/>
<polygon fill="#191970" stroke="#191970" points="668.4181,-34.7965 658.3771,-38.1771 668.3347,-41.796 668.4181,-34.7965"/>
</g>
<!-- Node173 -->
<g id="node12" class="node">
<title>Node173</title>
<g id="a_node12"><a xlink:href="TooNetworking_8h.html#a7382ba1aed5405c3adc02011ea6c45dd" target="_top" xlink:title="TooNetworking_connection\l_maintenance">
<polygon fill="#ffffff" stroke="#000000" points="875,-25.5 875,-55.5 1010,-55.5 1010,-25.5 875,-25.5"/>
<text text-anchor="start" x="883" y="-43.5" font-family="Helvetica,sans-Serif" font-size="10.00" fill="#000000">TooNetworking_connection</text>
<text text-anchor="middle" x="942.5" y="-32.5" font-family="Helvetica,sans-Serif" font-size="10.00" fill="#000000">_maintenance</text>
</a>
</g>
</g>
<!-- Node172&#45;&gt;Node173 -->
<g id="edge13" class="edge">
<title>Node172&#45;&gt;Node173</title>
<path fill="none" stroke="#191970" d="M849.6166,-39.9631C858.0706,-40.012 866.6064,-40.0613 874.8985,-40.1092"/>
<polygon fill="#191970" stroke="#191970" points="849.3872,-36.4618 839.3671,-39.9039 849.3466,-43.4617 849.3872,-36.4618"/>
</g>
<!-- Node173&#45;&gt;Node167 -->
<g id="edge14" class="edge">
<title>Node173&#45;&gt;Node167</title>
<path fill="none" stroke="#191970" d="M1020.1566,-54.6194C1029.6588,-56.347 1038.5454,-57.9628 1045.7679,-59.276"/>
<polygon fill="#191970" stroke="#191970" points="1020.5402,-51.1318 1010.0754,-52.7864 1019.288,-58.0189 1020.5402,-51.1318"/>
</g>
</g>
</svg>
