<?xml version="1.0" encoding="UTF-8" standalone="no"?>
<!DOCTYPE svg PUBLIC "-//W3C//DTD SVG 1.1//EN"
 "http://www.w3.org/Graphics/SVG/1.1/DTD/svg11.dtd">
<!-- Generated by graphviz version 2.40.1 (20161225.0304)
 -->
<!-- Title: TooNetworking_bufferlist_add Pages: 1 -->
<svg width="460pt" height="88pt"
 viewBox="0.00 0.00 460.00 88.00" xmlns="http://www.w3.org/2000/svg" xmlns:xlink="http://www.w3.org/1999/xlink">
<g id="graph0" class="graph" transform="scale(1 1) rotate(0) translate(4 84)">
<title>TooNetworking_bufferlist_add</title>
<polygon fill="#ffffff" stroke="transparent" points="-4,4 -4,-84 456,-84 456,4 -4,4"/>
<!-- Node52 -->
<g id="node1" class="node">
<title>Node52</title>
<polygon fill="#bfbfbf" stroke="#000000" points="0,-33 0,-52 146,-52 146,-33 0,-33"/>
<text text-anchor="middle" x="73" y="-40" font-family="Helvetica,sans-Serif" font-size="10.00" fill="#000000">TooNetworking_bufferlist_add</text>
</g>
<!-- Node53 -->
<g id="node2" class="node">
<title>Node53</title>
<g id="a_node2"><a xlink:href="TooNetworking_8h.html#a9209f3e1a2fdf0b3b88d49105b8fc359" target="_top" xlink:title="TooNetworking_send\l_signed">
<polygon fill="#ffffff" stroke="#000000" points="182,-5.5 182,-35.5 291,-35.5 291,-5.5 182,-5.5"/>
<text text-anchor="start" x="190" y="-23.5" font-family="Helvetica,sans-Serif" font-size="10.00" fill="#000000">TooNetworking_send</text>
<text text-anchor="middle" x="236.5" y="-12.5" font-family="Helvetica,sans-Serif" font-size="10.00" fill="#000000">_signed</text>
</a>
</g>
</g>
<!-- Node52&#45;&gt;Node53 -->
<g id="edge1" class="edge">
<title>Node52&#45;&gt;Node53</title>
<path fill="none" stroke="#191970" d="M153.6925,-31.6423C163.2489,-30.3564 172.8246,-29.0679 181.8971,-27.8472"/>
<polygon fill="#191970" stroke="#191970" points="153.2065,-28.1761 143.7626,-32.9784 154.14,-35.1135 153.2065,-28.1761"/>
</g>
<!-- Node54 -->
<g id="node3" class="node">
<title>Node54</title>
<g id="a_node3"><a xlink:href="TooNetworking_8h.html#a085ff748b00f6be4ebafcae2bb0dded1" target="_top" xlink:title="TooNetworking_bufferlist\l_send_signed">
<polygon fill="#ffffff" stroke="#000000" points="327,-49.5 327,-79.5 452,-79.5 452,-49.5 327,-49.5"/>
<text text-anchor="start" x="335" y="-67.5" font-family="Helvetica,sans-Serif" font-size="10.00" fill="#000000">TooNetworking_bufferlist</text>
<text text-anchor="middle" x="389.5" y="-56.5" font-family="Helvetica,sans-Serif" font-size="10.00" fill="#000000">_send_signed</text>
</a>
</g>
</g>
<!-- Node52&#45;&gt;Node54 -->
<g id="edge4" class="edge">
<title>Node52&#45;&gt;Node54</title>
<path fill="none" stroke="#191970" d="M156.144,-48.2794C209.5688,-51.9929 277.8624,-56.74 326.7419,-60.1377"/>
<polygon fill="#191970" stroke="#191970" points="156.2276,-44.7768 146.0089,-47.5749 155.7421,-51.76 156.2276,-44.7768"/>
</g>
<!-- Node53&#45;&gt;Node54 -->
<g id="edge2" class="edge">
<title>Node53&#45;&gt;Node54</title>
<path fill="none" stroke="#191970" d="M298.4364,-38.3118C311.3136,-42.015 324.7624,-45.8827 337.2498,-49.4738"/>
<polygon fill="#191970" stroke="#191970" points="299.3038,-34.9194 288.726,-35.5192 297.3691,-41.6468 299.3038,-34.9194"/>
</g>
<!-- Node55 -->
<g id="node4" class="node">
<title>Node55</title>
<g id="a_node4"><a xlink:href="TooNetworking_8h.html#ab58e06e0eb6f2f8ecbebeaf3c173fb22" target="_top" xlink:title="TooNetworking_bufferlist\l_send_all">
<polygon fill="#ffffff" stroke="#000000" points="327,-.5 327,-30.5 452,-30.5 452,-.5 327,-.5"/>
<text text-anchor="start" x="335" y="-18.5" font-family="Helvetica,sans-Serif" font-size="10.00" fill="#000000">TooNetworking_bufferlist</text>
<text text-anchor="middle" x="389.5" y="-7.5" font-family="Helvetica,sans-Serif" font-size="10.00" fill="#000000">_send_all</text>
</a>
</g>
</g>
<!-- Node53&#45;&gt;Node55 -->
<g id="edge3" class="edge">
<title>Node53&#45;&gt;Node55</title>
<path fill="none" stroke="#191970" d="M301.4187,-18.3785C309.811,-18.1042 318.3936,-17.8237 326.7499,-17.5507"/>
<polygon fill="#191970" stroke="#191970" points="301.1847,-14.8842 291.3044,-18.709 301.4134,-21.8804 301.1847,-14.8842"/>
</g>
</g>
</svg>
