<?xml version="1.0" encoding="UTF-8" standalone="no"?>
<!DOCTYPE svg PUBLIC "-//W3C//DTD SVG 1.1//EN"
 "http://www.w3.org/Graphics/SVG/1.1/DTD/svg11.dtd">
<!-- Generated by graphviz version 2.40.1 (20161225.0304)
 -->
<!-- Title: TooNetworking_bufferlist_add Pages: 1 -->
<svg width="573pt" height="372pt"
 viewBox="0.00 0.00 573.00 372.00" xmlns="http://www.w3.org/2000/svg" xmlns:xlink="http://www.w3.org/1999/xlink">
<g id="graph0" class="graph" transform="scale(1 1) rotate(0) translate(4 368)">
<title>TooNetworking_bufferlist_add</title>
<polygon fill="#ffffff" stroke="transparent" points="-4,4 -4,-368 569,-368 569,4 -4,4"/>
<!-- Node36 -->
<g id="node1" class="node">
<title>Node36</title>
<polygon fill="#bfbfbf" stroke="#000000" points="0,-202 0,-221 146,-221 146,-202 0,-202"/>
<text text-anchor="middle" x="73" y="-209" font-family="Helvetica,sans-Serif" font-size="10.00" fill="#000000">TooNetworking_bufferlist_add</text>
</g>
<!-- Node37 -->
<g id="node2" class="node">
<title>Node37</title>
<g id="a_node2"><a xlink:href="TooNetworking_8cpp.html#aa8a4e879d4d71fed2a8940cf93b75ae4" target="_top" xlink:title="TooNetworking_bufferlist\l_initialize">
<polygon fill="#ffffff" stroke="#000000" points="182,-294.5 182,-324.5 307,-324.5 307,-294.5 182,-294.5"/>
<text text-anchor="start" x="190" y="-312.5" font-family="Helvetica,sans-Serif" font-size="10.00" fill="#000000">TooNetworking_bufferlist</text>
<text text-anchor="middle" x="244.5" y="-301.5" font-family="Helvetica,sans-Serif" font-size="10.00" fill="#000000">_initialize</text>
</a>
</g>
</g>
<!-- Node36&#45;&gt;Node37 -->
<g id="edge1" class="edge">
<title>Node36&#45;&gt;Node37</title>
<path fill="none" stroke="#191970" d="M85.5416,-221.1796C105.2754,-236.1085 145.1335,-265.0573 182,-284.5 185.7795,-286.4932 189.7543,-288.4271 193.7915,-290.2778"/>
<polygon fill="#191970" stroke="#191970" points="192.6989,-293.6205 203.2624,-294.4343 195.512,-287.2106 192.6989,-293.6205"/>
</g>
<!-- Node38 -->
<g id="node3" class="node">
<title>Node38</title>
<g id="a_node3"><a xlink:href="TooNetworking_8cpp.html#a0ad03a7efb42cf40ca3e20fb5df3a5db" target="_top" xlink:title="TooNetworking_bufferlist\l_send_">
<polygon fill="#ffffff" stroke="#000000" points="182,-245.5 182,-275.5 307,-275.5 307,-245.5 182,-245.5"/>
<text text-anchor="start" x="190" y="-263.5" font-family="Helvetica,sans-Serif" font-size="10.00" fill="#000000">TooNetworking_bufferlist</text>
<text text-anchor="middle" x="244.5" y="-252.5" font-family="Helvetica,sans-Serif" font-size="10.00" fill="#000000">_send_</text>
</a>
</g>
</g>
<!-- Node36&#45;&gt;Node38 -->
<g id="edge2" class="edge">
<title>Node36&#45;&gt;Node38</title>
<path fill="none" stroke="#191970" d="M106.4741,-221.064C127.9969,-227.2134 156.6248,-235.3928 182.2274,-242.7078"/>
<polygon fill="#191970" stroke="#191970" points="181.2938,-246.0811 191.8706,-245.463 183.2169,-239.3504 181.2938,-246.0811"/>
</g>
<!-- Node45 -->
<g id="node10" class="node">
<title>Node45</title>
<g id="a_node10"><a xlink:href="TooSigning_8cpp.html#a729dc41cfb692fb0aea083c38c5f3577" target="_top" xlink:title="TooSigning_received\l_noncelist_find_from_ID">
<polygon fill="#ffffff" stroke="#000000" points="183.5,-196.5 183.5,-226.5 305.5,-226.5 305.5,-196.5 183.5,-196.5"/>
<text text-anchor="start" x="191.5" y="-214.5" font-family="Helvetica,sans-Serif" font-size="10.00" fill="#000000">TooSigning_received</text>
<text text-anchor="middle" x="244.5" y="-203.5" font-family="Helvetica,sans-Serif" font-size="10.00" fill="#000000">_noncelist_find_from_ID</text>
</a>
</g>
</g>
<!-- Node36&#45;&gt;Node45 -->
<g id="edge9" class="edge">
<title>Node36&#45;&gt;Node45</title>
<path fill="none" stroke="#191970" d="M146.2289,-211.5C155.2249,-211.5 164.4088,-211.5 173.3731,-211.5"/>
<polygon fill="#191970" stroke="#191970" points="173.3789,-215.0001 183.3789,-211.5 173.3789,-208.0001 173.3789,-215.0001"/>
</g>
<!-- Node46 -->
<g id="node11" class="node">
<title>Node46</title>
<g id="a_node11"><a xlink:href="TooNetworking_8cpp.html#a9f893c3218491ee86282fdcd9f376500" target="_top" xlink:title="TooNetworking_send\l_signed_">
<polygon fill="#ffffff" stroke="#000000" points="190,-147.5 190,-177.5 299,-177.5 299,-147.5 190,-147.5"/>
<text text-anchor="start" x="198" y="-165.5" font-family="Helvetica,sans-Serif" font-size="10.00" fill="#000000">TooNetworking_send</text>
<text text-anchor="middle" x="244.5" y="-154.5" font-family="Helvetica,sans-Serif" font-size="10.00" fill="#000000">_signed_</text>
</a>
</g>
</g>
<!-- Node36&#45;&gt;Node46 -->
<g id="edge10" class="edge">
<title>Node36&#45;&gt;Node46</title>
<path fill="none" stroke="#191970" d="M106.4741,-201.936C127.9969,-195.7866 156.6248,-187.6072 182.2274,-180.2922"/>
<polygon fill="#191970" stroke="#191970" points="183.2169,-183.6496 191.8706,-177.537 181.2938,-176.9189 183.2169,-183.6496"/>
</g>
<!-- Node48 -->
<g id="node13" class="node">
<title>Node48</title>
<g id="a_node13"><a xlink:href="TooSigning_8cpp.html#a53b55547df3d4276f3ca6a74d601549a" target="_top" xlink:title="TooSigning_requested\l_noncelist_add">
<polygon fill="#ffffff" stroke="#000000" points="188,-74.5 188,-104.5 301,-104.5 301,-74.5 188,-74.5"/>
<text text-anchor="start" x="196" y="-92.5" font-family="Helvetica,sans-Serif" font-size="10.00" fill="#000000">TooSigning_requested</text>
<text text-anchor="middle" x="244.5" y="-81.5" font-family="Helvetica,sans-Serif" font-size="10.00" fill="#000000">_noncelist_add</text>
</a>
</g>
</g>
<!-- Node36&#45;&gt;Node48 -->
<g id="edge13" class="edge">
<title>Node36&#45;&gt;Node48</title>
<path fill="none" stroke="#191970" d="M86.4573,-201.9269C113.9442,-182.3735 177.1071,-137.4413 214.7309,-110.6769"/>
<polygon fill="#191970" stroke="#191970" points="217.1359,-113.2613 223.2556,-104.6126 213.0782,-107.5573 217.1359,-113.2613"/>
</g>
<!-- Node39 -->
<g id="node4" class="node">
<title>Node39</title>
<g id="a_node4"><a xlink:href="TooNetworking_8cpp.html#ac352268e177fa2ddf91c8afa5cd04bbf" target="_top" xlink:title="TooNetworking_connection\l_available">
<polygon fill="#ffffff" stroke="#000000" points="343,-333.5 343,-363.5 478,-363.5 478,-333.5 343,-333.5"/>
<text text-anchor="start" x="351" y="-351.5" font-family="Helvetica,sans-Serif" font-size="10.00" fill="#000000">TooNetworking_connection</text>
<text text-anchor="middle" x="410.5" y="-340.5" font-family="Helvetica,sans-Serif" font-size="10.00" fill="#000000">_available</text>
</a>
</g>
</g>
<!-- Node38&#45;&gt;Node39 -->
<g id="edge3" class="edge">
<title>Node38&#45;&gt;Node39</title>
<path fill="none" stroke="#191970" d="M291.1093,-275.6206C296.6626,-278.2182 302.0942,-281.1725 307,-284.5 326.5219,-297.7416 323.3994,-310.3751 343,-323.5 345.8912,-325.436 348.952,-327.2466 352.1113,-328.9362"/>
<polygon fill="#191970" stroke="#191970" points="350.6947,-332.1394 361.2166,-333.381 353.7655,-325.8489 350.6947,-332.1394"/>
</g>
<!-- Node41 -->
<g id="node6" class="node">
<title>Node41</title>
<g id="a_node6"><a xlink:href="TooNetworking_8cpp.html#af4808c2c0857cde9a6721ad54f5ab42d" target="_top" xlink:title="TooNetworking_other\l_node_is_online">
<polygon fill="#ffffff" stroke="#000000" points="355.5,-196.5 355.5,-226.5 465.5,-226.5 465.5,-196.5 355.5,-196.5"/>
<text text-anchor="start" x="363.5" y="-214.5" font-family="Helvetica,sans-Serif" font-size="10.00" fill="#000000">TooNetworking_other</text>
<text text-anchor="middle" x="410.5" y="-203.5" font-family="Helvetica,sans-Serif" font-size="10.00" fill="#000000">_node_is_online</text>
</a>
</g>
</g>
<!-- Node38&#45;&gt;Node41 -->
<g id="edge5" class="edge">
<title>Node38&#45;&gt;Node41</title>
<path fill="none" stroke="#191970" d="M295.66,-245.3986C312.7806,-240.3449 332.0315,-234.6624 349.8078,-229.4152"/>
<polygon fill="#191970" stroke="#191970" points="350.9089,-232.7395 359.5089,-226.5516 348.9272,-226.0259 350.9089,-232.7395"/>
</g>
<!-- Node42 -->
<g id="node7" class="node">
<title>Node42</title>
<g id="a_node7"><a xlink:href="TooNetworking_8cpp.html#a46674b3fdc9ee370b0839869aa145b75" target="_top" xlink:title="TooNetworking_send">
<polygon fill="#ffffff" stroke="#000000" points="356,-295 356,-314 465,-314 465,-295 356,-295"/>
<text text-anchor="middle" x="410.5" y="-302" font-family="Helvetica,sans-Serif" font-size="10.00" fill="#000000">TooNetworking_send</text>
</a>
</g>
</g>
<!-- Node38&#45;&gt;Node42 -->
<g id="edge6" class="edge">
<title>Node38&#45;&gt;Node42</title>
<path fill="none" stroke="#191970" d="M301.1635,-275.5192C321.7988,-280.9888 344.8571,-287.1007 364.4593,-292.2964"/>
<polygon fill="#191970" stroke="#191970" points="363.8008,-295.7427 374.3637,-294.9217 365.5943,-288.9763 363.8008,-295.7427"/>
</g>
<!-- Node44 -->
<g id="node9" class="node">
<title>Node44</title>
<g id="a_node9"><a xlink:href="TooNetworking_8cpp.html#a3c91b7ab2f6500c287ecc7ab4a018ef6" target="_top" xlink:title="TooNetworking_bufferlist\l_remove">
<polygon fill="#ffffff" stroke="#000000" points="348,-245.5 348,-275.5 473,-275.5 473,-245.5 348,-245.5"/>
<text text-anchor="start" x="356" y="-263.5" font-family="Helvetica,sans-Serif" font-size="10.00" fill="#000000">TooNetworking_bufferlist</text>
<text text-anchor="middle" x="410.5" y="-252.5" font-family="Helvetica,sans-Serif" font-size="10.00" fill="#000000">_remove</text>
</a>
</g>
</g>
<!-- Node38&#45;&gt;Node44 -->
<g id="edge8" class="edge">
<title>Node38&#45;&gt;Node44</title>
<path fill="none" stroke="#191970" d="M307.2575,-260.5C317.2422,-260.5 327.6431,-260.5 337.8329,-260.5"/>
<polygon fill="#191970" stroke="#191970" points="337.9292,-264.0001 347.9292,-260.5 337.9291,-257.0001 337.9292,-264.0001"/>
</g>
<!-- Node40 -->
<g id="node5" class="node">
<title>Node40</title>
<g id="a_node5"><a xlink:href="TooNetworking_8cpp.html#aa7924d94ea32c8d33a81ff41f8678320" target="_top" xlink:title="network">
<polygon fill="#ffffff" stroke="#000000" points="514,-339 514,-358 565,-358 565,-339 514,-339"/>
<text text-anchor="middle" x="539.5" y="-346" font-family="Helvetica,sans-Serif" font-size="10.00" fill="#000000">network</text>
</a>
</g>
</g>
<!-- Node39&#45;&gt;Node40 -->
<g id="edge4" class="edge">
<title>Node39&#45;&gt;Node40</title>
<path fill="none" stroke="#191970" d="M478.0225,-348.5C486.9236,-348.5 495.7478,-348.5 503.8151,-348.5"/>
<polygon fill="#191970" stroke="#191970" points="503.9271,-352.0001 513.927,-348.5 503.927,-345.0001 503.9271,-352.0001"/>
</g>
<!-- Node43 -->
<g id="node8" class="node">
<title>Node43</title>
<g id="a_node8"><a xlink:href="TooNetworking_8cpp.html#abdda8f09b9d475ed2c23a2376e2e0151" target="_top" xlink:title="mesh">
<polygon fill="#ffffff" stroke="#000000" points="519,-295 519,-314 560,-314 560,-295 519,-295"/>
<text text-anchor="middle" x="539.5" y="-302" font-family="Helvetica,sans-Serif" font-size="10.00" fill="#000000">mesh</text>
</a>
</g>
</g>
<!-- Node42&#45;&gt;Node43 -->
<g id="edge7" class="edge">
<title>Node42&#45;&gt;Node43</title>
<path fill="none" stroke="#191970" d="M465.2076,-304.5C480.0145,-304.5 495.5264,-304.5 508.5232,-304.5"/>
<polygon fill="#191970" stroke="#191970" points="508.7784,-308.0001 518.7784,-304.5 508.7784,-301.0001 508.7784,-308.0001"/>
</g>
<!-- Node46&#45;&gt;Node41 -->
<g id="edge12" class="edge">
<title>Node46&#45;&gt;Node41</title>
<path fill="none" stroke="#191970" d="M295.66,-177.6014C312.7806,-182.6551 332.0315,-188.3376 349.8078,-193.5848"/>
<polygon fill="#191970" stroke="#191970" points="348.9272,-196.9741 359.5089,-196.4484 350.9089,-190.2605 348.9272,-196.9741"/>
</g>
<!-- Node47 -->
<g id="node12" class="node">
<title>Node47</title>
<g id="a_node12"><a xlink:href="TooNetworking_8cpp.html#aa7771141375a0a88ce46bb99ab56ee51" target="_top" xlink:title="TooNetworking_this\l_node_is_online">
<polygon fill="#ffffff" stroke="#000000" points="358.5,-147.5 358.5,-177.5 462.5,-177.5 462.5,-147.5 358.5,-147.5"/>
<text text-anchor="start" x="366.5" y="-165.5" font-family="Helvetica,sans-Serif" font-size="10.00" fill="#000000">TooNetworking_this</text>
<text text-anchor="middle" x="410.5" y="-154.5" font-family="Helvetica,sans-Serif" font-size="10.00" fill="#000000">_node_is_online</text>
</a>
</g>
</g>
<!-- Node46&#45;&gt;Node47 -->
<g id="edge11" class="edge">
<title>Node46&#45;&gt;Node47</title>
<path fill="none" stroke="#191970" d="M299.3147,-162.5C314.8858,-162.5 331.9588,-162.5 347.9514,-162.5"/>
<polygon fill="#191970" stroke="#191970" points="348.2783,-166.0001 358.2782,-162.5 348.2782,-159.0001 348.2783,-166.0001"/>
</g>
<!-- Node49 -->
<g id="node14" class="node">
<title>Node49</title>
<g id="a_node14"><a xlink:href="group__TOOSIGNING__INITIALIZE.html#gafd247c5271ff63bfcde14ef94060002d" target="_top" xlink:title="TooSigning_requested\l_noncelist_initialize">
<polygon fill="#ffffff" stroke="#000000" points="354,-98.5 354,-128.5 467,-128.5 467,-98.5 354,-98.5"/>
<text text-anchor="start" x="362" y="-116.5" font-family="Helvetica,sans-Serif" font-size="10.00" fill="#000000">TooSigning_requested</text>
<text text-anchor="middle" x="410.5" y="-105.5" font-family="Helvetica,sans-Serif" font-size="10.00" fill="#000000">_noncelist_initialize</text>
</a>
</g>
</g>
<!-- Node48&#45;&gt;Node49 -->
<g id="edge14" class="edge">
<title>Node48&#45;&gt;Node49</title>
<path fill="none" stroke="#191970" d="M301.1635,-97.6923C314.8433,-99.6701 329.588,-101.8019 343.6847,-103.84"/>
<polygon fill="#191970" stroke="#191970" points="343.4123,-107.3369 353.8102,-105.3039 344.414,-100.4089 343.4123,-107.3369"/>
</g>
<!-- Node50 -->
<g id="node15" class="node">
<title>Node50</title>
<g id="a_node15"><a xlink:href="TooSigning_8cpp.html#a58143364a83636a3d2df075a95cb2bfc" target="_top" xlink:title="TooSigning_request\l_nonce_from_node_id">
<polygon fill="#ffffff" stroke="#000000" points="354.5,-49.5 354.5,-79.5 466.5,-79.5 466.5,-49.5 354.5,-49.5"/>
<text text-anchor="start" x="362.5" y="-67.5" font-family="Helvetica,sans-Serif" font-size="10.00" fill="#000000">TooSigning_request</text>
<text text-anchor="middle" x="410.5" y="-56.5" font-family="Helvetica,sans-Serif" font-size="10.00" fill="#000000">_nonce_from_node_id</text>
</a>
</g>
</g>
<!-- Node48&#45;&gt;Node50 -->
<g id="edge15" class="edge">
<title>Node48&#45;&gt;Node50</title>
<path fill="none" stroke="#191970" d="M301.1635,-80.9663C314.9945,-78.8834 329.914,-76.6364 344.1517,-74.4922"/>
<polygon fill="#191970" stroke="#191970" points="345.006,-77.9031 354.3732,-72.9528 343.9635,-70.9812 345.006,-77.9031"/>
</g>
<!-- Node51 -->
<g id="node16" class="node">
<title>Node51</title>
<g id="a_node16"><a xlink:href="group__TOOSIGNING__DEBUGGING.html#gabb54a5e4968d69e35d665869d5c6588f" target="_top" xlink:title="TooSigning_requested\l_noncelist_print">
<polygon fill="#ffffff" stroke="#000000" points="354,-.5 354,-30.5 467,-30.5 467,-.5 354,-.5"/>
<text text-anchor="start" x="362" y="-18.5" font-family="Helvetica,sans-Serif" font-size="10.00" fill="#000000">TooSigning_requested</text>
<text text-anchor="middle" x="410.5" y="-7.5" font-family="Helvetica,sans-Serif" font-size="10.00" fill="#000000">_noncelist_print</text>
</a>
</g>
</g>
<!-- Node48&#45;&gt;Node51 -->
<g id="edge16" class="edge">
<title>Node48&#45;&gt;Node51</title>
<path fill="none" stroke="#191970" d="M272.0685,-74.3067C291.5721,-63.8565 318.5065,-50.0197 343,-39.5 347.1623,-37.7123 351.5065,-35.9475 355.8967,-34.2353"/>
<polygon fill="#191970" stroke="#191970" points="357.4192,-37.4012 365.5281,-30.5824 354.9368,-30.8561 357.4192,-37.4012"/>
</g>
</g>
</svg>
