<?xml version="1.0" encoding="UTF-8" standalone="no"?>
<!DOCTYPE svg PUBLIC "-//W3C//DTD SVG 1.1//EN"
 "http://www.w3.org/Graphics/SVG/1.1/DTD/svg11.dtd">
<!-- Generated by graphviz version 2.40.1 (20161225.0304)
 -->
<!-- Title: TooNetworking_send_signed Pages: 1 -->
<svg width="710pt" height="333pt"
 viewBox="0.00 0.00 710.00 333.00" xmlns="http://www.w3.org/2000/svg" xmlns:xlink="http://www.w3.org/1999/xlink">
<g id="graph0" class="graph" transform="scale(1 1) rotate(0) translate(4 329)">
<title>TooNetworking_send_signed</title>
<polygon fill="#ffffff" stroke="transparent" points="-4,4 -4,-329 706,-329 706,4 -4,4"/>
<!-- Node230 -->
<g id="node1" class="node">
<title>Node230</title>
<polygon fill="#bfbfbf" stroke="#000000" points="0,-199.5 0,-229.5 109,-229.5 109,-199.5 0,-199.5"/>
<text text-anchor="start" x="8" y="-217.5" font-family="Helvetica,sans-Serif" font-size="10.00" fill="#000000">TooNetworking_send</text>
<text text-anchor="middle" x="54.5" y="-206.5" font-family="Helvetica,sans-Serif" font-size="10.00" fill="#000000">_signed</text>
</g>
<!-- Node230&#45;&gt;Node230 -->
<g id="edge3" class="edge">
<title>Node230&#45;&gt;Node230</title>
<path fill="none" stroke="#191970" d="M26.2682,-229.659C19.4605,-239.0566 28.8711,-248 54.5,-248 70.1176,-248 79.7128,-244.679 83.2854,-239.9579"/>
<polygon fill="#191970" stroke="#191970" points="86.7636,-239.4567 82.7318,-229.659 79.7737,-239.8325 86.7636,-239.4567"/>
</g>
<!-- Node231 -->
<g id="node2" class="node">
<title>Node231</title>
<g id="a_node2"><a xlink:href="TooSigning_8cpp.html#a729dc41cfb692fb0aea083c38c5f3577" target="_top" xlink:title="TooSigning_received\l_noncelist_find_from_ID">
<polygon fill="#ffffff" stroke="#000000" points="329.5,-294.5 329.5,-324.5 451.5,-324.5 451.5,-294.5 329.5,-294.5"/>
<text text-anchor="start" x="337.5" y="-312.5" font-family="Helvetica,sans-Serif" font-size="10.00" fill="#000000">TooSigning_received</text>
<text text-anchor="middle" x="390.5" y="-301.5" font-family="Helvetica,sans-Serif" font-size="10.00" fill="#000000">_noncelist_find_from_ID</text>
</a>
</g>
</g>
<!-- Node230&#45;&gt;Node231 -->
<g id="edge1" class="edge">
<title>Node230&#45;&gt;Node231</title>
<path fill="none" stroke="#191970" d="M82.7718,-229.6016C100.2928,-238.4566 123.4865,-249.2854 145,-256.5 202.4342,-275.7606 269.8333,-289.7253 319.4665,-298.4697"/>
<polygon fill="#191970" stroke="#191970" points="319.0118,-301.943 329.4627,-300.2027 320.2075,-295.0458 319.0118,-301.943"/>
</g>
<!-- Node232 -->
<g id="node3" class="node">
<title>Node232</title>
<g id="a_node3"><a xlink:href="group__TOOSIGNING__DEBUGGING.html#ga974dd51d29b9bd928de51c481289aad7" target="_top" xlink:title="TooSigning_random_data\l_print">
<polygon fill="#ffffff" stroke="#000000" points="327,-245.5 327,-275.5 454,-275.5 454,-245.5 327,-245.5"/>
<text text-anchor="start" x="335" y="-263.5" font-family="Helvetica,sans-Serif" font-size="10.00" fill="#000000">TooSigning_random_data</text>
<text text-anchor="middle" x="390.5" y="-252.5" font-family="Helvetica,sans-Serif" font-size="10.00" fill="#000000">_print</text>
</a>
</g>
</g>
<!-- Node230&#45;&gt;Node232 -->
<g id="edge2" class="edge">
<title>Node230&#45;&gt;Node232</title>
<path fill="none" stroke="#191970" d="M109.3783,-226.9151C121.095,-229.3147 133.4268,-231.6532 145,-233.5 202.4187,-242.6625 267.8917,-249.694 316.7752,-254.2813"/>
<polygon fill="#191970" stroke="#191970" points="316.6656,-257.786 326.9457,-255.2229 317.311,-250.8158 316.6656,-257.786"/>
</g>
<!-- Node233 -->
<g id="node4" class="node">
<title>Node233</title>
<g id="a_node4"><a xlink:href="TooSigning_8cpp.html#a53b55547df3d4276f3ca6a74d601549a" target="_top" xlink:title="TooSigning_requested\l_noncelist_add">
<polygon fill="#ffffff" stroke="#000000" points="334,-98.5 334,-128.5 447,-128.5 447,-98.5 334,-98.5"/>
<text text-anchor="start" x="342" y="-116.5" font-family="Helvetica,sans-Serif" font-size="10.00" fill="#000000">TooSigning_requested</text>
<text text-anchor="middle" x="390.5" y="-105.5" font-family="Helvetica,sans-Serif" font-size="10.00" fill="#000000">_noncelist_add</text>
</a>
</g>
</g>
<!-- Node230&#45;&gt;Node233 -->
<g id="edge4" class="edge">
<title>Node230&#45;&gt;Node233</title>
<path fill="none" stroke="#191970" d="M104.4398,-199.4883C164.8647,-181.3249 266.4914,-150.7764 330.9398,-131.4035"/>
<polygon fill="#191970" stroke="#191970" points="331.9914,-134.7422 340.5606,-128.5116 329.9763,-128.0385 331.9914,-134.7422"/>
</g>
<!-- Node237 -->
<g id="node8" class="node">
<title>Node237</title>
<g id="a_node8"><a xlink:href="TooNetworking_8cpp.html#aa8040740e6ffca2f68beb7f8e57d63fc" target="_top" xlink:title="TooNetworking_bufferlist_add">
<polygon fill="#ffffff" stroke="#000000" points="145,-205 145,-224 291,-224 291,-205 145,-205"/>
<text text-anchor="middle" x="218" y="-212" font-family="Helvetica,sans-Serif" font-size="10.00" fill="#000000">TooNetworking_bufferlist_add</text>
</a>
</g>
</g>
<!-- Node230&#45;&gt;Node237 -->
<g id="edge8" class="edge">
<title>Node230&#45;&gt;Node237</title>
<path fill="none" stroke="#191970" d="M109.398,-208.0846C117.5995,-207.8731 126.2066,-207.7619 134.8347,-207.7509"/>
<polygon fill="#191970" stroke="#191970" points="134.9386,-211.2512 144.95,-207.7841 134.9616,-204.2512 134.9386,-211.2512"/>
</g>
<!-- Node234 -->
<g id="node5" class="node">
<title>Node234</title>
<g id="a_node5"><a xlink:href="group__TOOSIGNING__INITIALIZE.html#gafd247c5271ff63bfcde14ef94060002d" target="_top" xlink:title="TooSigning_requested\l_noncelist_initialize">
<polygon fill="#ffffff" stroke="#000000" points="501,-.5 501,-30.5 614,-30.5 614,-.5 501,-.5"/>
<text text-anchor="start" x="509" y="-18.5" font-family="Helvetica,sans-Serif" font-size="10.00" fill="#000000">TooSigning_requested</text>
<text text-anchor="middle" x="557.5" y="-7.5" font-family="Helvetica,sans-Serif" font-size="10.00" fill="#000000">_noncelist_initialize</text>
</a>
</g>
</g>
<!-- Node233&#45;&gt;Node234 -->
<g id="edge5" class="edge">
<title>Node233&#45;&gt;Node234</title>
<path fill="none" stroke="#191970" d="M407.4022,-98.4396C426.3903,-82.1381 458.6676,-56.2341 490,-39.5 493.2638,-37.7568 496.6806,-36.0947 500.1708,-34.5183"/>
<polygon fill="#191970" stroke="#191970" points="501.6875,-37.6769 509.5262,-30.549 498.9534,-31.2329 501.6875,-37.6769"/>
</g>
<!-- Node235 -->
<g id="node6" class="node">
<title>Node235</title>
<g id="a_node6"><a xlink:href="TooSigning_8cpp.html#a74e394128707e55045381d7c9ab6f6fd" target="_top" xlink:title="TooSigning_requested\l_noncelist_find_for_nodeID">
<polygon fill="#ffffff" stroke="#000000" points="490,-98.5 490,-128.5 625,-128.5 625,-98.5 490,-98.5"/>
<text text-anchor="start" x="498" y="-116.5" font-family="Helvetica,sans-Serif" font-size="10.00" fill="#000000">TooSigning_requested</text>
<text text-anchor="middle" x="557.5" y="-105.5" font-family="Helvetica,sans-Serif" font-size="10.00" fill="#000000">_noncelist_find_for_nodeID</text>
</a>
</g>
</g>
<!-- Node233&#45;&gt;Node235 -->
<g id="edge6" class="edge">
<title>Node233&#45;&gt;Node235</title>
<path fill="none" stroke="#191970" d="M447.0386,-113.5C457.5434,-113.5 468.6861,-113.5 479.696,-113.5"/>
<polygon fill="#191970" stroke="#191970" points="479.7478,-117.0001 489.7478,-113.5 479.7477,-110.0001 479.7478,-117.0001"/>
</g>
<!-- Node236 -->
<g id="node7" class="node">
<title>Node236</title>
<g id="a_node7"><a xlink:href="group__TOOSIGNING__DEBUGGING.html#gabb54a5e4968d69e35d665869d5c6588f" target="_top" xlink:title="TooSigning_requested\l_noncelist_print">
<polygon fill="#ffffff" stroke="#000000" points="501,-49.5 501,-79.5 614,-79.5 614,-49.5 501,-49.5"/>
<text text-anchor="start" x="509" y="-67.5" font-family="Helvetica,sans-Serif" font-size="10.00" fill="#000000">TooSigning_requested</text>
<text text-anchor="middle" x="557.5" y="-56.5" font-family="Helvetica,sans-Serif" font-size="10.00" fill="#000000">_noncelist_print</text>
</a>
</g>
</g>
<!-- Node233&#45;&gt;Node236 -->
<g id="edge7" class="edge">
<title>Node233&#45;&gt;Node236</title>
<path fill="none" stroke="#191970" d="M441.9682,-98.3986C459.1919,-93.3449 478.5588,-87.6624 496.4422,-82.4152"/>
<polygon fill="#191970" stroke="#191970" points="497.5917,-85.7255 506.2018,-79.5516 495.6209,-79.0087 497.5917,-85.7255"/>
</g>
<!-- Node237&#45;&gt;Node230 -->
<g id="edge19" class="edge">
<title>Node237&#45;&gt;Node230</title>
<path fill="none" stroke="#191970" d="M144.95,-221.2159C136.4576,-221.2827 127.8386,-221.2514 119.465,-221.1219"/>
<polygon fill="#191970" stroke="#191970" points="119.4677,-217.6213 109.398,-220.9154 119.324,-224.6199 119.4677,-217.6213"/>
</g>
<!-- Node237&#45;&gt;Node231 -->
<g id="edge17" class="edge">
<title>Node237&#45;&gt;Node231</title>
<path fill="none" stroke="#191970" d="M230.8686,-224.2076C250.7148,-238.8663 290.3417,-266.9088 327,-285.5 330.3504,-287.1991 333.8509,-288.8472 337.4122,-290.4306"/>
<polygon fill="#191970" stroke="#191970" points="336.3469,-293.7805 346.9198,-294.4616 339.0793,-287.3358 336.3469,-293.7805"/>
</g>
<!-- Node237&#45;&gt;Node232 -->
<g id="edge18" class="edge">
<title>Node237&#45;&gt;Node232</title>
<path fill="none" stroke="#191970" d="M253.7421,-224.0312C274.1246,-229.4666 300.3177,-236.4514 324.3163,-242.851"/>
<polygon fill="#191970" stroke="#191970" points="323.5256,-246.2624 334.0898,-245.4573 325.3293,-239.4988 323.5256,-246.2624"/>
</g>
<!-- Node237&#45;&gt;Node233 -->
<g id="edge20" class="edge">
<title>Node237&#45;&gt;Node233</title>
<path fill="none" stroke="#191970" d="M230.9897,-204.8678C255.3896,-186.8722 307.3782,-149.0157 327,-138.5 330.7594,-136.4853 334.7172,-134.5428 338.7433,-132.6921"/>
<polygon fill="#191970" stroke="#191970" points="340.4447,-135.7679 348.2001,-128.5495 337.636,-129.3561 340.4447,-135.7679"/>
</g>
<!-- Node238 -->
<g id="node9" class="node">
<title>Node238</title>
<g id="a_node9"><a xlink:href="TooNetworking_8cpp.html#aa8a4e879d4d71fed2a8940cf93b75ae4" target="_top" xlink:title="TooNetworking_bufferlist\l_initialize">
<polygon fill="#ffffff" stroke="#000000" points="328,-147.5 328,-177.5 453,-177.5 453,-147.5 328,-147.5"/>
<text text-anchor="start" x="336" y="-165.5" font-family="Helvetica,sans-Serif" font-size="10.00" fill="#000000">TooNetworking_bufferlist</text>
<text text-anchor="middle" x="390.5" y="-154.5" font-family="Helvetica,sans-Serif" font-size="10.00" fill="#000000">_initialize</text>
</a>
</g>
</g>
<!-- Node237&#45;&gt;Node238 -->
<g id="edge9" class="edge">
<title>Node237&#45;&gt;Node238</title>
<path fill="none" stroke="#191970" d="M249.6392,-204.9624C272.2485,-198.1468 303.3631,-188.7674 330.5996,-180.5569"/>
<polygon fill="#191970" stroke="#191970" points="331.8715,-183.8292 340.4357,-177.5918 329.8511,-177.1271 331.8715,-183.8292"/>
</g>
<!-- Node239 -->
<g id="node10" class="node">
<title>Node239</title>
<g id="a_node10"><a xlink:href="TooNetworking_8cpp.html#a0ad03a7efb42cf40ca3e20fb5df3a5db" target="_top" xlink:title="TooNetworking_bufferlist\l_send_">
<polygon fill="#ffffff" stroke="#000000" points="328,-196.5 328,-226.5 453,-226.5 453,-196.5 328,-196.5"/>
<text text-anchor="start" x="336" y="-214.5" font-family="Helvetica,sans-Serif" font-size="10.00" fill="#000000">TooNetworking_bufferlist</text>
<text text-anchor="middle" x="390.5" y="-203.5" font-family="Helvetica,sans-Serif" font-size="10.00" fill="#000000">_send_</text>
</a>
</g>
</g>
<!-- Node237&#45;&gt;Node239 -->
<g id="edge10" class="edge">
<title>Node237&#45;&gt;Node239</title>
<path fill="none" stroke="#191970" d="M291.1555,-213.2277C299.9335,-213.0751 308.8968,-212.9192 317.6701,-212.7666"/>
<polygon fill="#191970" stroke="#191970" points="317.9219,-216.2629 327.8595,-212.5894 317.8002,-209.2639 317.9219,-216.2629"/>
</g>
<!-- Node240 -->
<g id="node11" class="node">
<title>Node240</title>
<g id="a_node11"><a xlink:href="TooNetworking_8cpp.html#ac352268e177fa2ddf91c8afa5cd04bbf" target="_top" xlink:title="TooNetworking_connection\l_available">
<polygon fill="#ffffff" stroke="#000000" points="490,-196.5 490,-226.5 625,-226.5 625,-196.5 490,-196.5"/>
<text text-anchor="start" x="498" y="-214.5" font-family="Helvetica,sans-Serif" font-size="10.00" fill="#000000">TooNetworking_connection</text>
<text text-anchor="middle" x="557.5" y="-203.5" font-family="Helvetica,sans-Serif" font-size="10.00" fill="#000000">_available</text>
</a>
</g>
</g>
<!-- Node239&#45;&gt;Node240 -->
<g id="edge11" class="edge">
<title>Node239&#45;&gt;Node240</title>
<path fill="none" stroke="#191970" d="M453.1598,-211.5C461.7411,-211.5 470.6362,-211.5 479.45,-211.5"/>
<polygon fill="#191970" stroke="#191970" points="479.7356,-215.0001 489.7355,-211.5 479.7355,-208.0001 479.7356,-215.0001"/>
</g>
<!-- Node242 -->
<g id="node13" class="node">
<title>Node242</title>
<g id="a_node13"><a xlink:href="TooNetworking_8cpp.html#af4808c2c0857cde9a6721ad54f5ab42d" target="_top" xlink:title="TooNetworking_other\l_node_is_online">
<polygon fill="#ffffff" stroke="#000000" points="502.5,-147.5 502.5,-177.5 612.5,-177.5 612.5,-147.5 502.5,-147.5"/>
<text text-anchor="start" x="510.5" y="-165.5" font-family="Helvetica,sans-Serif" font-size="10.00" fill="#000000">TooNetworking_other</text>
<text text-anchor="middle" x="557.5" y="-154.5" font-family="Helvetica,sans-Serif" font-size="10.00" fill="#000000">_node_is_online</text>
</a>
</g>
</g>
<!-- Node239&#45;&gt;Node242 -->
<g id="edge13" class="edge">
<title>Node239&#45;&gt;Node242</title>
<path fill="none" stroke="#191970" d="M441.9682,-196.3986C459.1919,-191.3449 478.5588,-185.6624 496.4422,-180.4152"/>
<polygon fill="#191970" stroke="#191970" points="497.5917,-183.7255 506.2018,-177.5516 495.6209,-177.0087 497.5917,-183.7255"/>
</g>
<!-- Node243 -->
<g id="node14" class="node">
<title>Node243</title>
<g id="a_node14"><a xlink:href="TooNetworking_8cpp.html#a46674b3fdc9ee370b0839869aa145b75" target="_top" xlink:title="TooNetworking_send">
<polygon fill="#ffffff" stroke="#000000" points="503,-246 503,-265 612,-265 612,-246 503,-246"/>
<text text-anchor="middle" x="557.5" y="-253" font-family="Helvetica,sans-Serif" font-size="10.00" fill="#000000">TooNetworking_send</text>
</a>
</g>
</g>
<!-- Node239&#45;&gt;Node243 -->
<g id="edge14" class="edge">
<title>Node239&#45;&gt;Node243</title>
<path fill="none" stroke="#191970" d="M447.5048,-226.5192C468.3597,-232.0139 491.6745,-238.1568 511.4531,-243.3679"/>
<polygon fill="#191970" stroke="#191970" points="510.5843,-246.7584 521.1461,-245.9217 512.3678,-239.9894 510.5843,-246.7584"/>
</g>
<!-- Node244 -->
<g id="node15" class="node">
<title>Node244</title>
<g id="a_node15"><a xlink:href="TooNetworking_8cpp.html#a3c91b7ab2f6500c287ecc7ab4a018ef6" target="_top" xlink:title="TooNetworking_bufferlist\l_remove">
<polygon fill="#ffffff" stroke="#000000" points="495,-284.5 495,-314.5 620,-314.5 620,-284.5 495,-284.5"/>
<text text-anchor="start" x="503" y="-302.5" font-family="Helvetica,sans-Serif" font-size="10.00" fill="#000000">TooNetworking_bufferlist</text>
<text text-anchor="middle" x="557.5" y="-291.5" font-family="Helvetica,sans-Serif" font-size="10.00" fill="#000000">_remove</text>
</a>
</g>
</g>
<!-- Node239&#45;&gt;Node244 -->
<g id="edge16" class="edge">
<title>Node239&#45;&gt;Node244</title>
<path fill="none" stroke="#191970" d="M436.1441,-226.6377C442.3688,-229.5038 448.5007,-232.788 454,-236.5 473.2828,-249.5157 470.5857,-261.6813 490,-274.5 492.9575,-276.4527 496.088,-278.2796 499.3171,-279.9846"/>
<polygon fill="#191970" stroke="#191970" points="498.0883,-283.2777 508.6159,-284.4699 501.1296,-276.9729 498.0883,-283.2777"/>
</g>
<!-- Node241 -->
<g id="node12" class="node">
<title>Node241</title>
<g id="a_node12"><a xlink:href="TooNetworking_8cpp.html#abdda8f09b9d475ed2c23a2376e2e0151" target="_top" xlink:title="mesh">
<polygon fill="#ffffff" stroke="#000000" points="661,-224 661,-243 702,-243 702,-224 661,-224"/>
<text text-anchor="middle" x="681.5" y="-231" font-family="Helvetica,sans-Serif" font-size="10.00" fill="#000000">mesh</text>
</a>
</g>
</g>
<!-- Node240&#45;&gt;Node241 -->
<g id="edge12" class="edge">
<title>Node240&#45;&gt;Node241</title>
<path fill="none" stroke="#191970" d="M625.3049,-223.5299C634.2455,-225.1161 643.0236,-226.6735 650.8869,-228.0686"/>
<polygon fill="#191970" stroke="#191970" points="650.5141,-231.5571 660.9718,-229.8579 651.737,-224.6647 650.5141,-231.5571"/>
</g>
<!-- Node243&#45;&gt;Node241 -->
<g id="edge15" class="edge">
<title>Node243&#45;&gt;Node241</title>
<path fill="none" stroke="#191970" d="M611.167,-245.9784C624.7344,-243.5713 638.844,-241.068 650.8331,-238.9409"/>
<polygon fill="#191970" stroke="#191970" points="651.5213,-242.3735 660.7561,-237.1804 650.2984,-235.4812 651.5213,-242.3735"/>
</g>
</g>
</svg>
