<?xml version="1.0" encoding="UTF-8" standalone="no"?>
<!DOCTYPE svg PUBLIC "-//W3C//DTD SVG 1.1//EN"
 "http://www.w3.org/Graphics/SVG/1.1/DTD/svg11.dtd">
<!-- Generated by graphviz version 2.40.1 (20161225.0304)
 -->
<!-- Title: TooNetworking_other_node_is_online Pages: 1 -->
<svg width="693pt" height="125pt"
 viewBox="0.00 0.00 693.00 125.47" xmlns="http://www.w3.org/2000/svg" xmlns:xlink="http://www.w3.org/1999/xlink">
<g id="graph0" class="graph" transform="scale(1 1) rotate(0) translate(4 121.4731)">
<title>TooNetworking_other_node_is_online</title>
<polygon fill="#ffffff" stroke="transparent" points="-4,4 -4,-121.4731 689,-121.4731 689,4 -4,4"/>
<!-- Node242 -->
<g id="node1" class="node">
<title>Node242</title>
<polygon fill="#bfbfbf" stroke="#000000" points="0,-47.4731 0,-77.4731 110,-77.4731 110,-47.4731 0,-47.4731"/>
<text text-anchor="start" x="8" y="-65.4731" font-family="Helvetica,sans-Serif" font-size="10.00" fill="#000000">TooNetworking_other</text>
<text text-anchor="middle" x="55" y="-54.4731" font-family="Helvetica,sans-Serif" font-size="10.00" fill="#000000">_node_is_online</text>
</g>
<!-- Node243 -->
<g id="node2" class="node">
<title>Node243</title>
<g id="a_node2"><a xlink:href="TooNetworking_8h.html#a0ad03a7efb42cf40ca3e20fb5df3a5db" target="_top" xlink:title="TooNetworking_bufferlist\l_send_">
<polygon fill="#ffffff" stroke="#000000" points="146,-72.4731 146,-102.4731 271,-102.4731 271,-72.4731 146,-72.4731"/>
<text text-anchor="start" x="154" y="-90.4731" font-family="Helvetica,sans-Serif" font-size="10.00" fill="#000000">TooNetworking_bufferlist</text>
<text text-anchor="middle" x="208.5" y="-79.4731" font-family="Helvetica,sans-Serif" font-size="10.00" fill="#000000">_send_</text>
</a>
</g>
</g>
<!-- Node242&#45;&gt;Node243 -->
<g id="edge1" class="edge">
<title>Node242&#45;&gt;Node243</title>
<path fill="none" stroke="#191970" d="M120.5424,-73.1477C128.9406,-74.5155 137.5218,-75.9131 145.872,-77.2731"/>
<polygon fill="#191970" stroke="#191970" points="120.8496,-69.6517 110.417,-71.4986 119.7243,-76.5607 120.8496,-69.6517"/>
</g>
<!-- Node249 -->
<g id="node8" class="node">
<title>Node249</title>
<g id="a_node8"><a xlink:href="TooNetworking_8h.html#a9f893c3218491ee86282fdcd9f376500" target="_top" xlink:title="TooNetworking_send\l_signed_">
<polygon fill="#ffffff" stroke="#000000" points="154,-23.4731 154,-53.4731 263,-53.4731 263,-23.4731 154,-23.4731"/>
<text text-anchor="start" x="162" y="-41.4731" font-family="Helvetica,sans-Serif" font-size="10.00" fill="#000000">TooNetworking_send</text>
<text text-anchor="middle" x="208.5" y="-30.4731" font-family="Helvetica,sans-Serif" font-size="10.00" fill="#000000">_signed_</text>
</a>
</g>
</g>
<!-- Node242&#45;&gt;Node249 -->
<g id="edge7" class="edge">
<title>Node242&#45;&gt;Node249</title>
<path fill="none" stroke="#191970" d="M120.5259,-52.228C131.6621,-50.4868 143.1205,-48.6953 153.9359,-47.0043"/>
<polygon fill="#191970" stroke="#191970" points="119.7563,-48.8057 110.417,-53.8085 120.8377,-55.7217 119.7563,-48.8057"/>
</g>
<!-- Node244 -->
<g id="node3" class="node">
<title>Node244</title>
<g id="a_node3"><a xlink:href="TooNetworking_8h.html#a59be7e774988f57ab43c4c078c570c67" target="_top" xlink:title="TooNetworking_bufferlist_add">
<polygon fill="#ffffff" stroke="#000000" points="307,-97.9731 307,-116.9731 453,-116.9731 453,-97.9731 307,-97.9731"/>
<text text-anchor="middle" x="380" y="-104.9731" font-family="Helvetica,sans-Serif" font-size="10.00" fill="#000000">TooNetworking_bufferlist_add</text>
</a>
</g>
</g>
<!-- Node243&#45;&gt;Node244 -->
<g id="edge2" class="edge">
<title>Node243&#45;&gt;Node244</title>
<path fill="none" stroke="#191970" d="M281.5451,-95.9914C289.9597,-96.9727 298.5412,-97.9735 306.9558,-98.9548"/>
<polygon fill="#191970" stroke="#191970" points="281.7246,-92.4887 271.3864,-94.8068 280.9137,-99.4416 281.7246,-92.4887"/>
</g>
<!-- Node248 -->
<g id="node7" class="node">
<title>Node248</title>
<g id="a_node7"><a xlink:href="TooNetworking_8h.html#ab58e06e0eb6f2f8ecbebeaf3c173fb22" target="_top" xlink:title="TooNetworking_bufferlist\l_send_all">
<polygon fill="#ffffff" stroke="#000000" points="317.5,-48.4731 317.5,-78.4731 442.5,-78.4731 442.5,-48.4731 317.5,-48.4731"/>
<text text-anchor="start" x="325.5" y="-66.4731" font-family="Helvetica,sans-Serif" font-size="10.00" fill="#000000">TooNetworking_bufferlist</text>
<text text-anchor="middle" x="380" y="-55.4731" font-family="Helvetica,sans-Serif" font-size="10.00" fill="#000000">_send_all</text>
</a>
</g>
</g>
<!-- Node243&#45;&gt;Node248 -->
<g id="edge6" class="edge">
<title>Node243&#45;&gt;Node248</title>
<path fill="none" stroke="#191970" d="M281.3595,-77.277C293.3538,-75.5985 305.6925,-73.8718 317.4078,-72.2323"/>
<polygon fill="#191970" stroke="#191970" points="280.8048,-73.8204 271.3864,-78.6726 281.775,-80.7529 280.8048,-73.8204"/>
</g>
<!-- Node245 -->
<g id="node4" class="node">
<title>Node245</title>
<g id="a_node4"><a xlink:href="TooNetworking_8h.html#a9209f3e1a2fdf0b3b88d49105b8fc359" target="_top" xlink:title="TooNetworking_send\l_signed">
<polygon fill="#ffffff" stroke="#000000" points="497,-72.4731 497,-102.4731 606,-102.4731 606,-72.4731 497,-72.4731"/>
<text text-anchor="start" x="505" y="-90.4731" font-family="Helvetica,sans-Serif" font-size="10.00" fill="#000000">TooNetworking_send</text>
<text text-anchor="middle" x="551.5" y="-79.4731" font-family="Helvetica,sans-Serif" font-size="10.00" fill="#000000">_signed</text>
</a>
</g>
</g>
<!-- Node244&#45;&gt;Node245 -->
<g id="edge3" class="edge">
<title>Node244&#45;&gt;Node245</title>
<path fill="none" stroke="#191970" d="M463.2478,-97.7649C474.6894,-96.4306 486.1905,-95.0893 496.9353,-93.8363"/>
<polygon fill="#191970" stroke="#191970" points="462.7561,-94.2984 453.2289,-98.9332 463.567,-101.2513 462.7561,-94.2984"/>
</g>
<!-- Node246 -->
<g id="node5" class="node">
<title>Node246</title>
<g id="a_node5"><a xlink:href="TooNetworking_8h.html#a085ff748b00f6be4ebafcae2bb0dded1" target="_top" xlink:title="TooNetworking_bufferlist\l_send_signed">
<polygon fill="#ffffff" stroke="#000000" points="489,-4.4731 489,-34.4731 614,-34.4731 614,-4.4731 489,-4.4731"/>
<text text-anchor="start" x="497" y="-22.4731" font-family="Helvetica,sans-Serif" font-size="10.00" fill="#000000">TooNetworking_bufferlist</text>
<text text-anchor="middle" x="551.5" y="-11.4731" font-family="Helvetica,sans-Serif" font-size="10.00" fill="#000000">_send_signed</text>
</a>
</g>
</g>
<!-- Node244&#45;&gt;Node246 -->
<g id="edge4" class="edge">
<title>Node244&#45;&gt;Node246</title>
<path fill="none" stroke="#191970" d="M436.4317,-94.9629C442.1284,-93.0573 447.7451,-90.9012 453,-88.4731 454.0543,-87.9859 501.2632,-54.8175 529.9333,-34.6507"/>
<polygon fill="#191970" stroke="#191970" points="435.3371,-91.6377 426.8184,-97.9371 437.4062,-98.325 435.3371,-91.6377"/>
</g>
<!-- Node247 -->
<g id="node6" class="node">
<title>Node247</title>
<g id="a_node6"><a xlink:href="NODE__SKETCH__TooAutomation__Node_8ino_8cpp.html#a0b33edabd7f1c4e4a0bf32c67269be2f" target="_top" xlink:title="loop">
<polygon fill="#ffffff" stroke="#000000" points="650,-9.9731 650,-28.9731 685,-28.9731 685,-9.9731 650,-9.9731"/>
<text text-anchor="middle" x="667.5" y="-16.9731" font-family="Helvetica,sans-Serif" font-size="10.00" fill="#000000">loop</text>
</a>
</g>
</g>
<!-- Node246&#45;&gt;Node247 -->
<g id="edge5" class="edge">
<title>Node246&#45;&gt;Node247</title>
<path fill="none" stroke="#191970" d="M624.5149,-19.4731C633.8175,-19.4731 642.5667,-19.4731 649.7123,-19.4731"/>
<polygon fill="#191970" stroke="#191970" points="624.2531,-15.9732 614.2531,-19.4731 624.253,-22.9732 624.2531,-15.9732"/>
</g>
<!-- Node249&#45;&gt;Node244 -->
<g id="edge8" class="edge">
<title>Node249&#45;&gt;Node244</title>
<path fill="none" stroke="#191970" d="M259.4317,-57.7113C263.3966,-59.5517 267.2953,-61.4792 271,-63.4731 288.1531,-72.705 289.3002,-80.3383 307,-88.4731 315.2105,-92.2466 324.2983,-95.3662 333.1939,-97.9104"/>
<polygon fill="#191970" stroke="#191970" points="260.6809,-54.4367 250.1204,-53.5851 257.8449,-60.8365 260.6809,-54.4367"/>
</g>
<!-- Node249&#45;&gt;Node245 -->
<g id="edge9" class="edge">
<title>Node249&#45;&gt;Node245</title>
<path fill="none" stroke="#191970" d="M273.2178,-30.4912C323.0461,-26.2512 393.272,-24.4372 453,-38.4731 480.704,-44.9834 509.5267,-60.5145 528.7809,-72.3603"/>
<polygon fill="#191970" stroke="#191970" points="272.8628,-27.009 263.2198,-31.3978 273.495,-33.9804 272.8628,-27.009"/>
</g>
<!-- Node249&#45;&gt;Node246 -->
<g id="edge10" class="edge">
<title>Node249&#45;&gt;Node246</title>
<path fill="none" stroke="#191970" d="M253.669,-19.9334C270.1583,-14.0812 289.1446,-8.3845 307,-5.4731 368.2663,4.517 439.1759,-1.4415 488.8022,-8.4065"/>
<polygon fill="#191970" stroke="#191970" points="252.4603,-16.6486 244.2763,-23.3771 254.87,-23.2208 252.4603,-16.6486"/>
</g>
<!-- Node249&#45;&gt;Node248 -->
<g id="edge11" class="edge">
<title>Node249&#45;&gt;Node248</title>
<path fill="none" stroke="#191970" d="M273.5408,-47.9542C287.9292,-50.0517 303.145,-52.2697 317.4325,-54.3524"/>
<polygon fill="#191970" stroke="#191970" points="273.6355,-44.4311 263.2352,-46.452 272.6257,-51.3579 273.6355,-44.4311"/>
</g>
</g>
</svg>
