<?xml version="1.0" encoding="UTF-8" standalone="no"?>
<!DOCTYPE svg PUBLIC "-//W3C//DTD SVG 1.1//EN"
 "http://www.w3.org/Graphics/SVG/1.1/DTD/svg11.dtd">
<!-- Generated by graphviz version 2.40.1 (20161225.0304)
 -->
<!-- Title: TooNetworking_bufferlist_send_all Pages: 1 -->
<svg width="1408pt" height="494pt"
 viewBox="0.00 0.00 1408.00 493.50" xmlns="http://www.w3.org/2000/svg" xmlns:xlink="http://www.w3.org/1999/xlink">
<g id="graph0" class="graph" transform="scale(1 1) rotate(0) translate(4 489.5)">
<title>TooNetworking_bufferlist_send_all</title>
<polygon fill="#ffffff" stroke="transparent" points="-4,4 -4,-489.5 1404,-489.5 1404,4 -4,4"/>
<!-- Node99 -->
<g id="node1" class="node">
<title>Node99</title>
<polygon fill="#bfbfbf" stroke="#000000" points="0,-312 0,-342 125,-342 125,-312 0,-312"/>
<text text-anchor="start" x="8" y="-330" font-family="Helvetica,sans-Serif" font-size="10.00" fill="#000000">TooNetworking_bufferlist</text>
<text text-anchor="middle" x="62.5" y="-319" font-family="Helvetica,sans-Serif" font-size="10.00" fill="#000000">_send_all</text>
</g>
<!-- Node100 -->
<g id="node2" class="node">
<title>Node100</title>
<g id="a_node2"><a xlink:href="group__TOONETWORKING__SIMPLE__BUFFER.html#ga2b5485b317146ce7c14bbad26172d796" target="_top" xlink:title="TooNetworking_bufferlist\l_print">
<polygon fill="#ffffff" stroke="#000000" points="161,-433 161,-463 286,-463 286,-433 161,-433"/>
<text text-anchor="start" x="169" y="-451" font-family="Helvetica,sans-Serif" font-size="10.00" fill="#000000">TooNetworking_bufferlist</text>
<text text-anchor="middle" x="223.5" y="-440" font-family="Helvetica,sans-Serif" font-size="10.00" fill="#000000">_print</text>
</a>
</g>
</g>
<!-- Node99&#45;&gt;Node100 -->
<g id="edge1" class="edge">
<title>Node99&#45;&gt;Node100</title>
<path fill="none" stroke="#191970" d="M76.0297,-342.0223C94.0281,-361.3781 127.49,-395.2375 161,-418 166.3577,-421.6393 172.2246,-425.0742 178.1499,-428.2299"/>
<polygon fill="#191970" stroke="#191970" points="176.9431,-431.5424 187.4443,-432.948 180.1117,-425.3006 176.9431,-431.5424"/>
</g>
<!-- Node101 -->
<g id="node3" class="node">
<title>Node101</title>
<g id="a_node3"><a xlink:href="TooNetworking_8cpp.html#a0ad03a7efb42cf40ca3e20fb5df3a5db" target="_top" xlink:title="TooNetworking_bufferlist\l_send_">
<polygon fill="#ffffff" stroke="#000000" points="161,-345 161,-375 286,-375 286,-345 161,-345"/>
<text text-anchor="start" x="169" y="-363" font-family="Helvetica,sans-Serif" font-size="10.00" fill="#000000">TooNetworking_bufferlist</text>
<text text-anchor="middle" x="223.5" y="-352" font-family="Helvetica,sans-Serif" font-size="10.00" fill="#000000">_send_</text>
</a>
</g>
</g>
<!-- Node99&#45;&gt;Node101 -->
<g id="edge2" class="edge">
<title>Node99&#45;&gt;Node101</title>
<path fill="none" stroke="#191970" d="M125.2078,-339.8532C133.6481,-341.5831 142.3631,-343.3694 150.9559,-345.1307"/>
<polygon fill="#191970" stroke="#191970" points="150.4642,-348.6026 160.9633,-347.1819 151.8698,-341.7452 150.4642,-348.6026"/>
</g>
<!-- Node106 -->
<g id="node8" class="node">
<title>Node106</title>
<g id="a_node8"><a xlink:href="TooNetworking_8cpp.html#a3c91b7ab2f6500c287ecc7ab4a018ef6" target="_top" xlink:title="TooNetworking_bufferlist\l_remove">
<polygon fill="#ffffff" stroke="#000000" points="335,-455 335,-485 460,-485 460,-455 335,-455"/>
<text text-anchor="start" x="343" y="-473" font-family="Helvetica,sans-Serif" font-size="10.00" fill="#000000">TooNetworking_bufferlist</text>
<text text-anchor="middle" x="397.5" y="-462" font-family="Helvetica,sans-Serif" font-size="10.00" fill="#000000">_remove</text>
</a>
</g>
</g>
<!-- Node99&#45;&gt;Node106 -->
<g id="edge9" class="edge">
<title>Node99&#45;&gt;Node106</title>
<path fill="none" stroke="#191970" d="M85.2417,-342.0488C104.7447,-354.487 133.905,-371.9927 161,-384 214.3287,-407.633 231.2156,-403.9715 286,-424 308.5812,-432.2554 333.3356,-442.3587 353.7716,-450.9918"/>
<polygon fill="#191970" stroke="#191970" points="352.5579,-454.279 363.1303,-454.9697 355.2962,-447.8368 352.5579,-454.279"/>
</g>
<!-- Node107 -->
<g id="node9" class="node">
<title>Node107</title>
<g id="a_node9"><a xlink:href="TooSigning_8cpp.html#a729dc41cfb692fb0aea083c38c5f3577" target="_top" xlink:title="TooSigning_received\l_noncelist_find_from_ID">
<polygon fill="#ffffff" stroke="#000000" points="162.5,-167 162.5,-197 284.5,-197 284.5,-167 162.5,-167"/>
<text text-anchor="start" x="170.5" y="-185" font-family="Helvetica,sans-Serif" font-size="10.00" fill="#000000">TooSigning_received</text>
<text text-anchor="middle" x="223.5" y="-174" font-family="Helvetica,sans-Serif" font-size="10.00" fill="#000000">_noncelist_find_from_ID</text>
</a>
</g>
</g>
<!-- Node99&#45;&gt;Node107 -->
<g id="edge10" class="edge">
<title>Node99&#45;&gt;Node107</title>
<path fill="none" stroke="#191970" d="M71.1708,-311.8455C86.3318,-286.5863 119.9841,-235.723 161,-206 162.8735,-204.6423 164.8336,-203.3507 166.8554,-202.123"/>
<polygon fill="#191970" stroke="#191970" points="168.9161,-204.9871 176.0386,-197.1435 165.5794,-198.8335 168.9161,-204.9871"/>
</g>
<!-- Node108 -->
<g id="node10" class="node">
<title>Node108</title>
<g id="a_node10"><a xlink:href="group__TOOSIGNING__DEBUGGING.html#ga974dd51d29b9bd928de51c481289aad7" target="_top" xlink:title="TooSigning_random_data\l_print">
<polygon fill="#ffffff" stroke="#000000" points="334,-279 334,-309 461,-309 461,-279 334,-279"/>
<text text-anchor="start" x="342" y="-297" font-family="Helvetica,sans-Serif" font-size="10.00" fill="#000000">TooSigning_random_data</text>
<text text-anchor="middle" x="397.5" y="-286" font-family="Helvetica,sans-Serif" font-size="10.00" fill="#000000">_print</text>
</a>
</g>
</g>
<!-- Node99&#45;&gt;Node108 -->
<g id="edge11" class="edge">
<title>Node99&#45;&gt;Node108</title>
<path fill="none" stroke="#191970" d="M125.118,-320.8317C181.42,-315.2855 264.1764,-307.1334 323.6815,-301.2717"/>
<polygon fill="#191970" stroke="#191970" points="324.1571,-304.7419 333.7657,-300.2783 323.4708,-297.7756 324.1571,-304.7419"/>
</g>
<!-- Node109 -->
<g id="node11" class="node">
<title>Node109</title>
<g id="a_node11"><a xlink:href="TooNetworking_8cpp.html#a9f893c3218491ee86282fdcd9f376500" target="_top" xlink:title="TooNetworking_send\l_signed_">
<polygon fill="#ffffff" stroke="#000000" points="169,-216 169,-246 278,-246 278,-216 169,-216"/>
<text text-anchor="start" x="177" y="-234" font-family="Helvetica,sans-Serif" font-size="10.00" fill="#000000">TooNetworking_send</text>
<text text-anchor="middle" x="223.5" y="-223" font-family="Helvetica,sans-Serif" font-size="10.00" fill="#000000">_signed_</text>
</a>
</g>
</g>
<!-- Node99&#45;&gt;Node109 -->
<g id="edge12" class="edge">
<title>Node99&#45;&gt;Node109</title>
<path fill="none" stroke="#191970" d="M88.0109,-311.7885C115.3315,-295.498 158.8389,-269.5557 189.1558,-251.4786"/>
<polygon fill="#191970" stroke="#191970" points="191.3119,-254.2679 198.1084,-246.1403 187.7269,-248.2556 191.3119,-254.2679"/>
</g>
<!-- Node102 -->
<g id="node4" class="node">
<title>Node102</title>
<g id="a_node4"><a xlink:href="TooNetworking_8cpp.html#ac352268e177fa2ddf91c8afa5cd04bbf" target="_top" xlink:title="TooNetworking_connection\l_available">
<polygon fill="#ffffff" stroke="#000000" points="509,-241 509,-271 644,-271 644,-241 509,-241"/>
<text text-anchor="start" x="517" y="-259" font-family="Helvetica,sans-Serif" font-size="10.00" fill="#000000">TooNetworking_connection</text>
<text text-anchor="middle" x="576.5" y="-248" font-family="Helvetica,sans-Serif" font-size="10.00" fill="#000000">_available</text>
</a>
</g>
</g>
<!-- Node101&#45;&gt;Node102 -->
<g id="edge3" class="edge">
<title>Node101&#45;&gt;Node102</title>
<path fill="none" stroke="#191970" d="M254.8127,-375.0403C283.307,-388.7119 321.0818,-406.7922 322,-407 387.4552,-421.8161 413.6272,-438.2853 473,-407 523.6711,-380.2999 554.2913,-316.3637 567.9804,-280.847"/>
<polygon fill="#191970" stroke="#191970" points="571.3537,-281.8163 571.5424,-271.2232 564.7889,-279.3866 571.3537,-281.8163"/>
</g>
<!-- Node104 -->
<g id="node6" class="node">
<title>Node104</title>
<g id="a_node6"><a xlink:href="TooNetworking_8cpp.html#af4808c2c0857cde9a6721ad54f5ab42d" target="_top" xlink:title="TooNetworking_other\l_node_is_online">
<polygon fill="#ffffff" stroke="#000000" points="342.5,-367 342.5,-397 452.5,-397 452.5,-367 342.5,-367"/>
<text text-anchor="start" x="350.5" y="-385" font-family="Helvetica,sans-Serif" font-size="10.00" fill="#000000">TooNetworking_other</text>
<text text-anchor="middle" x="397.5" y="-374" font-family="Helvetica,sans-Serif" font-size="10.00" fill="#000000">_node_is_online</text>
</a>
</g>
</g>
<!-- Node101&#45;&gt;Node104 -->
<g id="edge5" class="edge">
<title>Node101&#45;&gt;Node104</title>
<path fill="none" stroke="#191970" d="M286.318,-367.9425C301.1873,-369.8225 317.0804,-371.832 332.0628,-373.7263"/>
<polygon fill="#191970" stroke="#191970" points="331.9059,-377.2343 342.266,-375.0164 332.7841,-370.2896 331.9059,-377.2343"/>
</g>
<!-- Node105 -->
<g id="node7" class="node">
<title>Node105</title>
<g id="a_node7"><a xlink:href="TooNetworking_8cpp.html#a46674b3fdc9ee370b0839869aa145b75" target="_top" xlink:title="TooNetworking_send">
<polygon fill="#ffffff" stroke="#000000" points="343,-328.5 343,-347.5 452,-347.5 452,-328.5 343,-328.5"/>
<text text-anchor="middle" x="397.5" y="-335.5" font-family="Helvetica,sans-Serif" font-size="10.00" fill="#000000">TooNetworking_send</text>
</a>
</g>
</g>
<!-- Node101&#45;&gt;Node105 -->
<g id="edge6" class="edge">
<title>Node101&#45;&gt;Node105</title>
<path fill="none" stroke="#191970" d="M286.318,-352.0575C301.3455,-350.1575 317.4186,-348.1252 332.5407,-346.2132"/>
<polygon fill="#191970" stroke="#191970" points="333.3513,-349.6387 342.8333,-344.9119 332.4732,-342.694 333.3513,-349.6387"/>
</g>
<!-- Node101&#45;&gt;Node106 -->
<g id="edge8" class="edge">
<title>Node101&#45;&gt;Node106</title>
<path fill="none" stroke="#191970" d="M262.671,-375.0924C270.8492,-379.2297 279.0792,-384.2044 286,-390 306.9939,-407.5808 300.4097,-423.1571 322,-440 327.0356,-443.9284 332.652,-447.4056 338.4861,-450.4685"/>
<polygon fill="#191970" stroke="#191970" points="337.2528,-453.7593 347.7811,-454.9457 340.2906,-447.4527 337.2528,-453.7593"/>
</g>
<!-- Node103 -->
<g id="node5" class="node">
<title>Node103</title>
<g id="a_node5"><a xlink:href="TooNetworking_8cpp.html#abdda8f09b9d475ed2c23a2376e2e0151" target="_top" xlink:title="mesh">
<polygon fill="#ffffff" stroke="#000000" points="712,-246.5 712,-265.5 753,-265.5 753,-246.5 712,-246.5"/>
<text text-anchor="middle" x="732.5" y="-253.5" font-family="Helvetica,sans-Serif" font-size="10.00" fill="#000000">mesh</text>
</a>
</g>
</g>
<!-- Node102&#45;&gt;Node103 -->
<g id="edge4" class="edge">
<title>Node102&#45;&gt;Node103</title>
<path fill="none" stroke="#191970" d="M644.0166,-256C664.1461,-256 685.2244,-256 701.7568,-256"/>
<polygon fill="#191970" stroke="#191970" points="701.9089,-259.5001 711.9089,-256 701.9089,-252.5001 701.9089,-259.5001"/>
</g>
<!-- Node105&#45;&gt;Node103 -->
<g id="edge7" class="edge">
<title>Node105&#45;&gt;Node103</title>
<path fill="none" stroke="#191970" d="M439.9151,-328.4773C489.1147,-317.3256 572.6127,-298.0727 644,-280 663.2981,-275.1144 684.8592,-269.2754 701.868,-264.58"/>
<polygon fill="#191970" stroke="#191970" points="703.1083,-267.8682 711.8092,-261.823 701.2375,-261.1228 703.1083,-267.8682"/>
</g>
<!-- Node109&#45;&gt;Node102 -->
<g id="edge13" class="edge">
<title>Node109&#45;&gt;Node102</title>
<path fill="none" stroke="#191970" d="M278.2689,-234.8788C337.3967,-239.0663 432.0614,-245.7706 498.8517,-250.5008"/>
<polygon fill="#191970" stroke="#191970" points="498.6864,-253.9978 508.9087,-251.2131 499.181,-247.0153 498.6864,-253.9978"/>
</g>
<!-- Node109&#45;&gt;Node104 -->
<g id="edge14" class="edge">
<title>Node109&#45;&gt;Node104</title>
<path fill="none" stroke="#191970" d="M231.3922,-246.1655C245.8525,-272.5073 279.093,-326.7858 322,-357 325.4927,-359.4594 329.2438,-361.6896 333.1399,-363.7099"/>
<polygon fill="#191970" stroke="#191970" points="331.8988,-366.9931 342.4406,-368.0523 334.8603,-360.6503 331.8988,-366.9931"/>
</g>
<!-- Node109&#45;&gt;Node105 -->
<g id="edge35" class="edge">
<title>Node109&#45;&gt;Node105</title>
<path fill="none" stroke="#191970" d="M236.5693,-246.2963C254.0699,-265.8116 286.9943,-299.2736 322,-318 327.1319,-320.7453 332.6654,-323.1323 338.3214,-325.2039"/>
<polygon fill="#191970" stroke="#191970" points="337.313,-328.557 347.9066,-328.4001 339.5273,-321.9165 337.313,-328.557"/>
</g>
<!-- Node109&#45;&gt;Node108 -->
<g id="edge15" class="edge">
<title>Node109&#45;&gt;Node108</title>
<path fill="none" stroke="#191970" d="M265.1773,-246.0901C289.5154,-254.9021 320.4189,-266.0913 346.2389,-275.44"/>
<polygon fill="#191970" stroke="#191970" points="345.2673,-278.8105 355.8615,-278.924 347.6505,-272.2286 345.2673,-278.8105"/>
</g>
<!-- Node110 -->
<g id="node12" class="node">
<title>Node110</title>
<g id="a_node12"><a xlink:href="TooSigning_8cpp.html#a3994a32f8b2275d51b6832644f703bc7" target="_top" xlink:title="TooSigning_read_hmac\l_from_progmem">
<polygon fill="#ffffff" stroke="#000000" points="338,-115 338,-145 457,-145 457,-115 338,-115"/>
<text text-anchor="start" x="346" y="-133" font-family="Helvetica,sans-Serif" font-size="10.00" fill="#000000">TooSigning_read_hmac</text>
<text text-anchor="middle" x="397.5" y="-122" font-family="Helvetica,sans-Serif" font-size="10.00" fill="#000000">_from_progmem</text>
</a>
</g>
</g>
<!-- Node109&#45;&gt;Node110 -->
<g id="edge16" class="edge">
<title>Node109&#45;&gt;Node110</title>
<path fill="none" stroke="#191970" d="M270.2251,-215.8493C275.8197,-213.0331 281.2304,-209.7657 286,-206 307.7759,-188.8074 299.712,-171.5234 322,-155 324.5251,-153.128 327.1982,-151.3912 329.973,-149.7804"/>
<polygon fill="#191970" stroke="#191970" points="331.8457,-152.7525 339.1242,-145.0535 328.6332,-146.5332 331.8457,-152.7525"/>
</g>
<!-- Node111 -->
<g id="node13" class="node">
<title>Node111</title>
<g id="a_node13"><a xlink:href="TooSigning_8cpp.html#a1e2cd2b37702263e1fe166395350bf08" target="_top" xlink:title="TooSigning_init_hmac">
<polygon fill="#ffffff" stroke="#000000" points="341,-38.5 341,-57.5 454,-57.5 454,-38.5 341,-38.5"/>
<text text-anchor="middle" x="397.5" y="-45.5" font-family="Helvetica,sans-Serif" font-size="10.00" fill="#000000">TooSigning_init_hmac</text>
</a>
</g>
</g>
<!-- Node109&#45;&gt;Node111 -->
<g id="edge17" class="edge">
<title>Node109&#45;&gt;Node111</title>
<path fill="none" stroke="#191970" d="M274.0694,-215.8706C278.4973,-213.1054 282.5848,-209.8442 286,-206 326.9572,-159.8983 279.3938,-116.5822 322,-72 325.8011,-68.0226 330.2576,-64.7023 335.0719,-61.9307"/>
<polygon fill="#191970" stroke="#191970" points="336.6304,-65.0646 344.0597,-57.5111 333.5415,-58.783 336.6304,-65.0646"/>
</g>
<!-- Node120 -->
<g id="node22" class="node">
<title>Node120</title>
<g id="a_node22"><a xlink:href="group__TOOSIGNING__HASHING.html#gafb2935303b05255e80a7a6fa4be7cf57" target="_top" xlink:title="TooSigning_hash_data">
<polygon fill="#ffffff" stroke="#000000" points="518.5,-76.5 518.5,-95.5 634.5,-95.5 634.5,-76.5 518.5,-76.5"/>
<text text-anchor="middle" x="576.5" y="-83.5" font-family="Helvetica,sans-Serif" font-size="10.00" fill="#000000">TooSigning_hash_data</text>
</a>
</g>
</g>
<!-- Node109&#45;&gt;Node120 -->
<g id="edge27" class="edge">
<title>Node109&#45;&gt;Node120</title>
<path fill="none" stroke="#191970" d="M273.1451,-215.9501C277.8655,-213.1614 282.2718,-209.873 286,-206 319.0491,-171.6668 284.1046,-133.8956 322,-105 380.2107,-60.6138 469.2881,-65.6056 525.1453,-74.7279"/>
<polygon fill="#191970" stroke="#191970" points="524.7223,-78.2067 535.1736,-76.4683 525.9194,-71.3098 524.7223,-78.2067"/>
</g>
<!-- Node121 -->
<g id="node23" class="node">
<title>Node121</title>
<g id="a_node23"><a xlink:href="group__TOOSIGNING__HASHING.html#gae743dd1289d92f915352e40b047b4cc8" target="_top" xlink:title="TooSigning_hash_store">
<polygon fill="#ffffff" stroke="#000000" points="338,-164.5 338,-183.5 457,-183.5 457,-164.5 338,-164.5"/>
<text text-anchor="middle" x="397.5" y="-171.5" font-family="Helvetica,sans-Serif" font-size="10.00" fill="#000000">TooSigning_hash_store</text>
</a>
</g>
</g>
<!-- Node109&#45;&gt;Node121 -->
<g id="edge29" class="edge">
<title>Node109&#45;&gt;Node121</title>
<path fill="none" stroke="#191970" d="M261.0625,-215.9662C283.6585,-207.0293 310.2513,-196.7293 322,-193 329.6935,-190.5579 337.9061,-188.2212 345.977,-186.0737"/>
<polygon fill="#191970" stroke="#191970" points="346.904,-189.4492 355.707,-183.5536 345.1488,-182.6728 346.904,-189.4492"/>
</g>
<!-- Node122 -->
<g id="node24" class="node">
<title>Node122</title>
<g id="a_node24"><a xlink:href="TooSigning_8cpp.html#ab8a2415b95a77c91ffbc6ebbde622f64" target="_top" xlink:title="TooSigning_get_hmac">
<polygon fill="#ffffff" stroke="#000000" points="341,-.5 341,-19.5 454,-19.5 454,-.5 341,-.5"/>
<text text-anchor="middle" x="397.5" y="-7.5" font-family="Helvetica,sans-Serif" font-size="10.00" fill="#000000">TooSigning_get_hmac</text>
</a>
</g>
</g>
<!-- Node109&#45;&gt;Node122 -->
<g id="edge30" class="edge">
<title>Node109&#45;&gt;Node122</title>
<path fill="none" stroke="#191970" d="M274.6152,-215.8917C278.8785,-213.1255 282.7801,-209.8581 286,-206 337.4375,-144.367 266.5525,-87.0518 322,-29 324.8591,-26.0066 328.1146,-23.4576 331.6307,-21.2893"/>
<polygon fill="#191970" stroke="#191970" points="333.479,-24.2771 340.8305,-16.6478 330.3259,-18.0274 333.479,-24.2771"/>
</g>
<!-- Node124 -->
<g id="node26" class="node">
<title>Node124</title>
<g id="a_node26"><a xlink:href="TooNetworking_8cpp.html#aefc5dad88b637efb11a3a7b2f76a19b9" target="_top" xlink:title="TooNetworking_connection_fix">
<polygon fill="#ffffff" stroke="#000000" points="322,-202.5 322,-221.5 473,-221.5 473,-202.5 322,-202.5"/>
<text text-anchor="middle" x="397.5" y="-209.5" font-family="Helvetica,sans-Serif" font-size="10.00" fill="#000000">TooNetworking_connection_fix</text>
</a>
</g>
</g>
<!-- Node109&#45;&gt;Node124 -->
<g id="edge36" class="edge">
<title>Node109&#45;&gt;Node124</title>
<path fill="none" stroke="#191970" d="M278.0773,-225.0404C288.7921,-223.8704 300.2725,-222.6168 311.7246,-221.3663"/>
<polygon fill="#191970" stroke="#191970" points="312.2004,-224.8352 321.7614,-220.2703 311.4405,-217.8766 312.2004,-224.8352"/>
</g>
<!-- Node112 -->
<g id="node14" class="node">
<title>Node112</title>
<g id="a_node14"><a xlink:href="classSha256Class.html#a73d3dcea6eb667fd146d12aa5d106939" target="_top" xlink:title="Sha256Class::initHmac">
<polygon fill="#ffffff" stroke="#000000" points="516.5,-38.5 516.5,-57.5 636.5,-57.5 636.5,-38.5 516.5,-38.5"/>
<text text-anchor="middle" x="576.5" y="-45.5" font-family="Helvetica,sans-Serif" font-size="10.00" fill="#000000">Sha256Class::initHmac</text>
</a>
</g>
</g>
<!-- Node111&#45;&gt;Node112 -->
<g id="edge18" class="edge">
<title>Node111&#45;&gt;Node112</title>
<path fill="none" stroke="#191970" d="M454.1367,-48C470.6615,-48 488.922,-48 506.1835,-48"/>
<polygon fill="#191970" stroke="#191970" points="506.2107,-51.5001 516.2107,-48 506.2106,-44.5001 506.2107,-51.5001"/>
</g>
<!-- Node113 -->
<g id="node15" class="node">
<title>Node113</title>
<g id="a_node15"><a xlink:href="classSha256Class.html#ac1025d69c51fcd1b882ee41114e58339" target="_top" xlink:title="Sha256Class::init">
<polygon fill="#ffffff" stroke="#000000" points="685.5,-38.5 685.5,-57.5 779.5,-57.5 779.5,-38.5 685.5,-38.5"/>
<text text-anchor="middle" x="732.5" y="-45.5" font-family="Helvetica,sans-Serif" font-size="10.00" fill="#000000">Sha256Class::init</text>
</a>
</g>
</g>
<!-- Node112&#45;&gt;Node113 -->
<g id="edge19" class="edge">
<title>Node112&#45;&gt;Node113</title>
<path fill="none" stroke="#191970" d="M636.8137,-48C649.4066,-48 662.6488,-48 675.1314,-48"/>
<polygon fill="#191970" stroke="#191970" points="675.4073,-51.5001 685.4072,-48 675.4072,-44.5001 675.4073,-51.5001"/>
</g>
<!-- Node114 -->
<g id="node16" class="node">
<title>Node114</title>
<g id="a_node16"><a xlink:href="classSha256Class.html#a0f0fc4bd4d8c53d232df0d41d7ea25e0" target="_top" xlink:title="Sha256Class::write">
<polygon fill="#ffffff" stroke="#000000" points="681.5,-76.5 681.5,-95.5 783.5,-95.5 783.5,-76.5 681.5,-76.5"/>
<text text-anchor="middle" x="732.5" y="-83.5" font-family="Helvetica,sans-Serif" font-size="10.00" fill="#000000">Sha256Class::write</text>
</a>
</g>
</g>
<!-- Node112&#45;&gt;Node114 -->
<g id="edge20" class="edge">
<title>Node112&#45;&gt;Node114</title>
<path fill="none" stroke="#191970" d="M615.8654,-57.589C636.4513,-62.6035 661.8405,-68.7881 683.669,-74.1053"/>
<polygon fill="#191970" stroke="#191970" points="682.8734,-77.5137 693.4177,-76.4799 684.5302,-70.7126 682.8734,-77.5137"/>
</g>
<!-- Node118 -->
<g id="node20" class="node">
<title>Node118</title>
<g id="a_node20"><a xlink:href="classSha256Class.html#a0ca245a22f8b056a3d1902da3c64b705" target="_top" xlink:title="Sha256Class::result">
<polygon fill="#ffffff" stroke="#000000" points="680,-.5 680,-19.5 785,-19.5 785,-.5 680,-.5"/>
<text text-anchor="middle" x="732.5" y="-7.5" font-family="Helvetica,sans-Serif" font-size="10.00" fill="#000000">Sha256Class::result</text>
</a>
</g>
</g>
<!-- Node112&#45;&gt;Node118 -->
<g id="edge24" class="edge">
<title>Node112&#45;&gt;Node118</title>
<path fill="none" stroke="#191970" d="M615.8654,-38.411C636.4513,-33.3965 661.8405,-27.2119 683.669,-21.8947"/>
<polygon fill="#191970" stroke="#191970" points="684.5302,-25.2874 693.4177,-19.5201 682.8734,-18.4863 684.5302,-25.2874"/>
</g>
<!-- Node115 -->
<g id="node17" class="node">
<title>Node115</title>
<g id="a_node17"><a xlink:href="classSha256Class.html#ab0b46743e3d59b1c68f52ed89dfaff50" target="_top" xlink:title="Sha256Class::addUncounted">
<polygon fill="#ffffff" stroke="#000000" points="954,-38.5 954,-57.5 1098,-57.5 1098,-38.5 954,-38.5"/>
<text text-anchor="middle" x="1026" y="-45.5" font-family="Helvetica,sans-Serif" font-size="10.00" fill="#000000">Sha256Class::addUncounted</text>
</a>
</g>
</g>
<!-- Node114&#45;&gt;Node115 -->
<g id="edge21" class="edge">
<title>Node114&#45;&gt;Node115</title>
<path fill="none" stroke="#191970" d="M783.6238,-79.3809C827.737,-73.6695 892.2694,-65.3144 943.6571,-58.6611"/>
<polygon fill="#191970" stroke="#191970" points="944.2817,-62.1095 953.7495,-57.3544 943.3828,-55.1675 944.2817,-62.1095"/>
</g>
<!-- Node116 -->
<g id="node18" class="node">
<title>Node116</title>
<g id="a_node18"><a xlink:href="classSha256Class.html#a399d2a23951e2130f54af8ac7712068f" target="_top" xlink:title="Sha256Class::hashBlock">
<polygon fill="#ffffff" stroke="#000000" points="1134,-38.5 1134,-57.5 1261,-57.5 1261,-38.5 1134,-38.5"/>
<text text-anchor="middle" x="1197.5" y="-45.5" font-family="Helvetica,sans-Serif" font-size="10.00" fill="#000000">Sha256Class::hashBlock</text>
</a>
</g>
</g>
<!-- Node115&#45;&gt;Node116 -->
<g id="edge22" class="edge">
<title>Node115&#45;&gt;Node116</title>
<path fill="none" stroke="#191970" d="M1098.2344,-48C1106.6298,-48 1115.2026,-48 1123.6198,-48"/>
<polygon fill="#191970" stroke="#191970" points="1123.7873,-51.5001 1133.7873,-48 1123.7873,-44.5001 1123.7873,-51.5001"/>
</g>
<!-- Node117 -->
<g id="node19" class="node">
<title>Node117</title>
<g id="a_node19"><a xlink:href="classSha256Class.html#ae275718ce9813bb33b2d8d8fbf018bd6" target="_top" xlink:title="Sha256Class::ror32">
<polygon fill="#ffffff" stroke="#000000" points="1297,-38.5 1297,-57.5 1400,-57.5 1400,-38.5 1297,-38.5"/>
<text text-anchor="middle" x="1348.5" y="-45.5" font-family="Helvetica,sans-Serif" font-size="10.00" fill="#000000">Sha256Class::ror32</text>
</a>
</g>
</g>
<!-- Node116&#45;&gt;Node117 -->
<g id="edge23" class="edge">
<title>Node116&#45;&gt;Node117</title>
<path fill="none" stroke="#191970" d="M1261.1,-48C1269.5806,-48 1278.2667,-48 1286.7157,-48"/>
<polygon fill="#191970" stroke="#191970" points="1286.8743,-51.5001 1296.8743,-48 1286.8742,-44.5001 1286.8743,-51.5001"/>
</g>
<!-- Node119 -->
<g id="node21" class="node">
<title>Node119</title>
<g id="a_node21"><a xlink:href="classSha256Class.html#a82049dae520ccf0bd8478f2aef639149" target="_top" xlink:title="Sha256Class::pad">
<polygon fill="#ffffff" stroke="#000000" points="821,-19.5 821,-38.5 918,-38.5 918,-19.5 821,-19.5"/>
<text text-anchor="middle" x="869.5" y="-26.5" font-family="Helvetica,sans-Serif" font-size="10.00" fill="#000000">Sha256Class::pad</text>
</a>
</g>
</g>
<!-- Node118&#45;&gt;Node119 -->
<g id="edge25" class="edge">
<title>Node118&#45;&gt;Node119</title>
<path fill="none" stroke="#191970" d="M785.076,-17.2916C793.5367,-18.465 802.3406,-19.6859 810.9316,-20.8774"/>
<polygon fill="#191970" stroke="#191970" points="810.4995,-24.3509 820.8856,-22.2579 811.4612,-17.4172 810.4995,-24.3509"/>
</g>
<!-- Node119&#45;&gt;Node115 -->
<g id="edge26" class="edge">
<title>Node119&#45;&gt;Node115</title>
<path fill="none" stroke="#191970" d="M918.1597,-34.9076C926.3741,-35.9048 935.0986,-36.964 943.8883,-38.0312"/>
<polygon fill="#191970" stroke="#191970" points="943.4671,-41.5056 953.8161,-39.2365 944.3108,-34.5567 943.4671,-41.5056"/>
</g>
<!-- Node120&#45;&gt;Node114 -->
<g id="edge28" class="edge">
<title>Node120&#45;&gt;Node114</title>
<path fill="none" stroke="#191970" d="M634.5886,-86C646.4477,-86 658.9649,-86 670.9405,-86"/>
<polygon fill="#191970" stroke="#191970" points="671.2949,-89.5001 681.2949,-86 671.2948,-82.5001 671.2949,-89.5001"/>
</g>
<!-- Node123 -->
<g id="node25" class="node">
<title>Node123</title>
<g id="a_node25"><a xlink:href="classSha256Class.html#a7556f29cadf7eaca21a537df41318af3" target="_top" xlink:title="Sha256Class::resultHmac">
<polygon fill="#ffffff" stroke="#000000" points="511,-.5 511,-19.5 642,-19.5 642,-.5 511,-.5"/>
<text text-anchor="middle" x="576.5" y="-7.5" font-family="Helvetica,sans-Serif" font-size="10.00" fill="#000000">Sha256Class::resultHmac</text>
</a>
</g>
</g>
<!-- Node122&#45;&gt;Node123 -->
<g id="edge31" class="edge">
<title>Node122&#45;&gt;Node123</title>
<path fill="none" stroke="#191970" d="M454.1367,-10C468.9243,-10 485.1018,-10 500.7095,-10"/>
<polygon fill="#191970" stroke="#191970" points="500.8635,-13.5001 510.8634,-10 500.8634,-6.5001 500.8635,-13.5001"/>
</g>
<!-- Node123&#45;&gt;Node113 -->
<g id="edge33" class="edge">
<title>Node123&#45;&gt;Node113</title>
<path fill="none" stroke="#191970" d="M615.8654,-19.589C636.4513,-24.6035 661.8405,-30.7881 683.669,-36.1053"/>
<polygon fill="#191970" stroke="#191970" points="682.8734,-39.5137 693.4177,-38.4799 684.5302,-32.7126 682.8734,-39.5137"/>
</g>
<!-- Node123&#45;&gt;Node114 -->
<g id="edge34" class="edge">
<title>Node123&#45;&gt;Node114</title>
<path fill="none" stroke="#191970" d="M623.2644,-19.5942C630.4837,-22.0716 637.6435,-25.1603 644,-29 663.9133,-41.0289 660.538,-54.2538 680,-67 682.9686,-68.9442 686.1618,-70.7209 689.4546,-72.3383"/>
<polygon fill="#191970" stroke="#191970" points="688.3312,-75.6674 698.8947,-76.4811 691.1443,-69.2575 688.3312,-75.6674"/>
</g>
<!-- Node123&#45;&gt;Node118 -->
<g id="edge32" class="edge">
<title>Node123&#45;&gt;Node118</title>
<path fill="none" stroke="#191970" d="M642.2059,-10C651.2809,-10 660.5837,-10 669.6061,-10"/>
<polygon fill="#191970" stroke="#191970" points="669.6465,-13.5001 679.6464,-10 669.6464,-6.5001 669.6465,-13.5001"/>
</g>
<!-- Node124&#45;&gt;Node102 -->
<g id="edge37" class="edge">
<title>Node124&#45;&gt;Node102</title>
<path fill="none" stroke="#191970" d="M436.3403,-221.5473C456.4936,-226.5012 481.7568,-232.7112 505.2643,-238.4895"/>
<polygon fill="#191970" stroke="#191970" points="504.6649,-241.9463 515.2114,-240.9346 506.3359,-235.1487 504.6649,-241.9463"/>
</g>
<!-- Node124&#45;&gt;Node103 -->
<g id="edge38" class="edge">
<title>Node124&#45;&gt;Node103</title>
<path fill="none" stroke="#191970" d="M473.2351,-213.9541C522.2486,-216.1716 587.2685,-220.9039 644,-231 663.5258,-234.4749 684.9397,-240.4637 701.8121,-245.7087"/>
<polygon fill="#191970" stroke="#191970" points="701.0826,-249.1495 711.6732,-248.8491 703.2069,-242.4796 701.0826,-249.1495"/>
</g>
</g>
</svg>
