<?xml version="1.0" encoding="UTF-8" standalone="no"?>
<!DOCTYPE svg PUBLIC "-//W3C//DTD SVG 1.1//EN"
 "http://www.w3.org/Graphics/SVG/1.1/DTD/svg11.dtd">
<!-- Generated by graphviz version 2.40.1 (20161225.0304)
 -->
<!-- Title: TooNetworking_send_encrypted Pages: 1 -->
<svg width="349pt" height="39pt"
 viewBox="0.00 0.00 349.00 39.00" xmlns="http://www.w3.org/2000/svg" xmlns:xlink="http://www.w3.org/1999/xlink">
<g id="graph0" class="graph" transform="scale(1 1) rotate(0) translate(4 35)">
<title>TooNetworking_send_encrypted</title>
<polygon fill="#ffffff" stroke="transparent" points="-4,4 -4,-35 345,-35 345,4 -4,4"/>
<!-- Node227 -->
<g id="node1" class="node">
<title>Node227</title>
<polygon fill="#bfbfbf" stroke="#000000" points="0,-.5 0,-30.5 109,-30.5 109,-.5 0,-.5"/>
<text text-anchor="start" x="8" y="-18.5" font-family="Helvetica,sans-Serif" font-size="10.00" fill="#000000">TooNetworking_send</text>
<text text-anchor="middle" x="54.5" y="-7.5" font-family="Helvetica,sans-Serif" font-size="10.00" fill="#000000">_encrypted</text>
</g>
<!-- Node228 -->
<g id="node2" class="node">
<title>Node228</title>
<g id="a_node2"><a xlink:href="TooNetworking_8h.html#a085ff748b00f6be4ebafcae2bb0dded1" target="_top" xlink:title="TooNetworking_bufferlist\l_send_signed">
<polygon fill="#ffffff" stroke="#000000" points="145,-.5 145,-30.5 270,-30.5 270,-.5 145,-.5"/>
<text text-anchor="start" x="153" y="-18.5" font-family="Helvetica,sans-Serif" font-size="10.00" fill="#000000">TooNetworking_bufferlist</text>
<text text-anchor="middle" x="207.5" y="-7.5" font-family="Helvetica,sans-Serif" font-size="10.00" fill="#000000">_send_signed</text>
</a>
</g>
</g>
<!-- Node227&#45;&gt;Node228 -->
<g id="edge1" class="edge">
<title>Node227&#45;&gt;Node228</title>
<path fill="none" stroke="#191970" d="M119.4187,-15.5C127.811,-15.5 136.3936,-15.5 144.7499,-15.5"/>
<polygon fill="#191970" stroke="#191970" points="119.3044,-12.0001 109.3044,-15.5 119.3043,-19.0001 119.3044,-12.0001"/>
</g>
<!-- Node229 -->
<g id="node3" class="node">
<title>Node229</title>
<g id="a_node3"><a xlink:href="NODE__SKETCH__TooAutomation__Node_8ino_8cpp.html#a0b33edabd7f1c4e4a0bf32c67269be2f" target="_top" xlink:title="loop">
<polygon fill="#ffffff" stroke="#000000" points="306,-6 306,-25 341,-25 341,-6 306,-6"/>
<text text-anchor="middle" x="323.5" y="-13" font-family="Helvetica,sans-Serif" font-size="10.00" fill="#000000">loop</text>
</a>
</g>
</g>
<!-- Node228&#45;&gt;Node229 -->
<g id="edge2" class="edge">
<title>Node228&#45;&gt;Node229</title>
<path fill="none" stroke="#191970" d="M280.5149,-15.5C289.8175,-15.5 298.5667,-15.5 305.7123,-15.5"/>
<polygon fill="#191970" stroke="#191970" points="280.2531,-12.0001 270.2531,-15.5 280.253,-19.0001 280.2531,-12.0001"/>
</g>
</g>
</svg>
