<?xml version="1.0" encoding="UTF-8" standalone="no"?>
<!DOCTYPE svg PUBLIC "-//W3C//DTD SVG 1.1//EN"
 "http://www.w3.org/Graphics/SVG/1.1/DTD/svg11.dtd">
<!-- Generated by graphviz version 2.40.1 (20161225.0304)
 -->
<!-- Title: TooNetworking_connection_maintenance Pages: 1 -->
<!--zoomable 575 -->
<svg id="main" version="1.1" xmlns="http://www.w3.org/2000/svg" xmlns:xlink="http://www.w3.org/1999/xlink" xml:space="preserve" onload="init(evt)">
<style type="text/css"><![CDATA[
.edge:hover path { stroke: red; }
.edge:hover polygon { stroke: red; fill: red; }
]]></style>
<script type="text/javascript"><![CDATA[
var edges = document.getElementsByTagName('g');
if (edges && edges.length) {
  for (var i=0;i<edges.length;i++) {
    if (edges[i].id.substr(0,4)=='edge') {
      edges[i].setAttribute('class','edge');
    }
  }
}
]]></script>
        <defs>
                <circle id="rim" cx="0" cy="0" r="7"/>
                <circle id="rim2" cx="0" cy="0" r="3.5"/>
                <g id="zoomPlus">
                        <use xlink:href="#rim" fill="#404040">
                                <set attributeName="fill" to="#808080" begin="zoomplus.mouseover" end="zoomplus.mouseout"/>
                        </use>
                        <path d="M-4,0h8M0,-4v8" fill="none" stroke="white" stroke-width="1.5" pointer-events="none"/>
                </g>
                <g id="zoomMin">
                        <use xlink:href="#rim" fill="#404040">
                                <set attributeName="fill" to="#808080" begin="zoomminus.mouseover" end="zoomminus.mouseout"/>
                        </use>
                        <path d="M-4,0h8" fill="none" stroke="white" stroke-width="1.5" pointer-events="none"/>
                </g>
                <g id="dirArrow">
                        <path fill="none" stroke="white" stroke-width="1.5" d="M0,-3.0v7 M-2.5,-0.5L0,-3.0L2.5,-0.5"/>
                </g>
               <g id="resetDef">
                       <use xlink:href="#rim2" fill="#404040">
                               <set attributeName="fill" to="#808080" begin="reset.mouseover" end="reset.mouseout"/>
                       </use>
               </g>
        </defs>

<script type="text/javascript">
var viewWidth = 1346;
var viewHeight = 575;
var sectionId = 'dynsection-20';
</script>
<script xlink:href="svgpan.js"/>
<svg id="graph" class="graph">
<g id="viewport">
<title>TooNetworking_connection_maintenance</title>
<polygon fill="#ffffff" stroke="transparent" points="-4,4 -4,-571 1342,-571 1342,4 -4,4"/>
<!-- Node164 -->
<g id="node1" class="node">
<title>Node164</title>
<polygon fill="#bfbfbf" stroke="#000000" points="0,-505 0,-535 135,-535 135,-505 0,-505"/>
<text text-anchor="start" x="8" y="-523" font-family="Helvetica,sans-Serif" font-size="10.00" fill="#000000">TooNetworking_connection</text>
<text text-anchor="middle" x="67.5" y="-512" font-family="Helvetica,sans-Serif" font-size="10.00" fill="#000000">_maintenance</text>
</g>
<!-- Node165 -->
<g id="node2" class="node">
<title>Node165</title>
<g id="a_node2"><a xlink:href="TooNetworking_8cpp.html#abdda8f09b9d475ed2c23a2376e2e0151" target="_top" xlink:title="mesh">
<polygon fill="#ffffff" stroke="#000000" points="1266,-513.5 1266,-532.5 1307,-532.5 1307,-513.5 1266,-513.5"/>
<text text-anchor="middle" x="1286.5" y="-520.5" font-family="Helvetica,sans-Serif" font-size="10.00" fill="#000000">mesh</text>
</a>
</g>
</g>
<!-- Node164&#45;&gt;Node165 -->
<g id="edge1" class="edge">
<title>Node164&#45;&gt;Node165</title>
<path fill="none" stroke="#191970" d="M126.0636,-535.0511C140.6649,-538.3964 156.3395,-541.6439 171,-544 282.2592,-561.8805 310.8132,-567 423.5,-567 423.5,-567 423.5,-567 952.5,-567 1062.4156,-567 1090.7504,-566.0647 1199,-547 1218.2704,-543.6061 1239.4413,-537.8551 1256.1313,-532.8336"/>
<polygon fill="#191970" stroke="#191970" points="1257.3603,-536.1174 1265.887,-529.8288 1255.2997,-529.4275 1257.3603,-536.1174"/>
</g>
<!-- Node166 -->
<g id="node3" class="node">
<title>Node166</title>
<g id="a_node3"><a xlink:href="TooSigning_8cpp.html#a5aa7bcb2f78251191ee1de5472a36ada" target="_top" xlink:title="TooSigning_signed_network\l_update">
<polygon fill="#ffffff" stroke="#000000" points="171,-505 171,-535 310,-535 310,-505 171,-505"/>
<text text-anchor="start" x="179" y="-523" font-family="Helvetica,sans-Serif" font-size="10.00" fill="#000000">TooSigning_signed_network</text>
<text text-anchor="middle" x="240.5" y="-512" font-family="Helvetica,sans-Serif" font-size="10.00" fill="#000000">_update</text>
</a>
</g>
</g>
<!-- Node164&#45;&gt;Node166 -->
<g id="edge2" class="edge">
<title>Node164&#45;&gt;Node166</title>
<path fill="none" stroke="#191970" d="M135.3776,-520C143.6554,-520 152.172,-520 160.6044,-520"/>
<polygon fill="#191970" stroke="#191970" points="160.8267,-523.5001 170.8266,-520 160.8266,-516.5001 160.8267,-523.5001"/>
</g>
<!-- Node173 -->
<g id="node10" class="node">
<title>Node173</title>
<g id="a_node10"><a xlink:href="TooSigning_8cpp.html#a03df9fd005c518d1114f912ae7da9f06" target="_top" xlink:title="TooSigning_unsigned\l_network_available">
<polygon fill="#ffffff" stroke="#000000" points="185.5,-262 185.5,-292 295.5,-292 295.5,-262 185.5,-262"/>
<text text-anchor="start" x="193.5" y="-280" font-family="Helvetica,sans-Serif" font-size="10.00" fill="#000000">TooSigning_unsigned</text>
<text text-anchor="middle" x="240.5" y="-269" font-family="Helvetica,sans-Serif" font-size="10.00" fill="#000000">_network_available</text>
</a>
</g>
</g>
<!-- Node164&#45;&gt;Node173 -->
<g id="edge11" class="edge">
<title>Node164&#45;&gt;Node173</title>
<path fill="none" stroke="#191970" d="M78.3219,-504.7993C107.6306,-463.6315 188.6975,-349.7631 223.8652,-300.3657"/>
<polygon fill="#191970" stroke="#191970" points="226.7337,-302.3713 229.6822,-292.195 221.0312,-298.3115 226.7337,-302.3713"/>
</g>
<!-- Node167 -->
<g id="node4" class="node">
<title>Node167</title>
<g id="a_node4"><a xlink:href="TooSigning_8cpp.html#a8890d5d49f39fc0a0e92f1f4910e543e" target="_top" xlink:title="TooSigning_requested\l_noncelist_retry_all">
<polygon fill="#ffffff" stroke="#000000" points="367,-505 367,-535 480,-535 480,-505 367,-505"/>
<text text-anchor="start" x="375" y="-523" font-family="Helvetica,sans-Serif" font-size="10.00" fill="#000000">TooSigning_requested</text>
<text text-anchor="middle" x="423.5" y="-512" font-family="Helvetica,sans-Serif" font-size="10.00" fill="#000000">_noncelist_retry_all</text>
</a>
</g>
</g>
<!-- Node166&#45;&gt;Node167 -->
<g id="edge3" class="edge">
<title>Node166&#45;&gt;Node167</title>
<path fill="none" stroke="#191970" d="M310.2065,-520C325.3892,-520 341.4218,-520 356.4968,-520"/>
<polygon fill="#191970" stroke="#191970" points="356.7582,-523.5001 366.7581,-520 356.7581,-516.5001 356.7582,-523.5001"/>
</g>
<!-- Node168 -->
<g id="node5" class="node">
<title>Node168</title>
<g id="a_node5"><a xlink:href="group__TOOSIGNING__DEBUGGING.html#gabb54a5e4968d69e35d665869d5c6588f" target="_top" xlink:title="TooSigning_requested\l_noncelist_print">
<polygon fill="#ffffff" stroke="#000000" points="717.5,-363 717.5,-393 830.5,-393 830.5,-363 717.5,-363"/>
<text text-anchor="start" x="725.5" y="-381" font-family="Helvetica,sans-Serif" font-size="10.00" fill="#000000">TooSigning_requested</text>
<text text-anchor="middle" x="774" y="-370" font-family="Helvetica,sans-Serif" font-size="10.00" fill="#000000">_noncelist_print</text>
</a>
</g>
</g>
<!-- Node167&#45;&gt;Node168 -->
<g id="edge4" class="edge">
<title>Node167&#45;&gt;Node168</title>
<path fill="none" stroke="#191970" d="M480.1221,-508.9414C542.3,-496.2905 637.7414,-475.2311 671,-459 701.7264,-444.0047 731.8755,-418.6985 751.5348,-400.3564"/>
<polygon fill="#191970" stroke="#191970" points="754.206,-402.6459 759.0373,-393.2168 749.3804,-397.575 754.206,-402.6459"/>
</g>
<!-- Node169 -->
<g id="node6" class="node">
<title>Node169</title>
<g id="a_node6"><a xlink:href="TooSigning_8cpp.html#a58143364a83636a3d2df075a95cb2bfc" target="_top" xlink:title="TooSigning_request\l_nonce_from_node_id">
<polygon fill="#ffffff" stroke="#000000" points="548,-508 548,-538 660,-538 660,-508 548,-508"/>
<text text-anchor="start" x="556" y="-526" font-family="Helvetica,sans-Serif" font-size="10.00" fill="#000000">TooSigning_request</text>
<text text-anchor="middle" x="604" y="-515" font-family="Helvetica,sans-Serif" font-size="10.00" fill="#000000">_nonce_from_node_id</text>
</a>
</g>
</g>
<!-- Node167&#45;&gt;Node169 -->
<g id="edge5" class="edge">
<title>Node167&#45;&gt;Node169</title>
<path fill="none" stroke="#191970" d="M480.1161,-520.941C498.4324,-521.2454 518.9054,-521.5857 537.8498,-521.9006"/>
<polygon fill="#191970" stroke="#191970" points="537.8377,-525.4007 547.8945,-522.0675 537.9541,-518.4017 537.8377,-525.4007"/>
</g>
<!-- Node170 -->
<g id="node7" class="node">
<title>Node170</title>
<g id="a_node7"><a xlink:href="TooSigning_8cpp.html#a7c4b40a9376e0044a89b8abe3a83c970" target="_top" xlink:title="TooSigning_connection_fix">
<polygon fill="#ffffff" stroke="#000000" points="707,-513.5 707,-532.5 841,-532.5 841,-513.5 707,-513.5"/>
<text text-anchor="middle" x="774" y="-520.5" font-family="Helvetica,sans-Serif" font-size="10.00" fill="#000000">TooSigning_connection_fix</text>
</a>
</g>
</g>
<!-- Node169&#45;&gt;Node170 -->
<g id="edge6" class="edge">
<title>Node169&#45;&gt;Node170</title>
<path fill="none" stroke="#191970" d="M660.1355,-523C671.8469,-523 684.3878,-523 696.7108,-523"/>
<polygon fill="#191970" stroke="#191970" points="696.9879,-526.5001 706.9879,-523 696.9878,-519.5001 696.9879,-526.5001"/>
</g>
<!-- Node171 -->
<g id="node8" class="node">
<title>Node171</title>
<g id="a_node8"><a xlink:href="TooNetworking_8cpp.html#aefc5dad88b637efb11a3a7b2f76a19b9" target="_top" xlink:title="TooNetworking_connection_fix">
<polygon fill="#ffffff" stroke="#000000" points="877,-513.5 877,-532.5 1028,-532.5 1028,-513.5 877,-513.5"/>
<text text-anchor="middle" x="952.5" y="-520.5" font-family="Helvetica,sans-Serif" font-size="10.00" fill="#000000">TooNetworking_connection_fix</text>
</a>
</g>
</g>
<!-- Node170&#45;&gt;Node171 -->
<g id="edge7" class="edge">
<title>Node170&#45;&gt;Node171</title>
<path fill="none" stroke="#191970" d="M841.2288,-523C849.6106,-523 858.2687,-523 866.8817,-523"/>
<polygon fill="#191970" stroke="#191970" points="866.9526,-526.5001 876.9526,-523 866.9525,-519.5001 866.9526,-526.5001"/>
</g>
<!-- Node171&#45;&gt;Node165 -->
<g id="edge10" class="edge">
<title>Node171&#45;&gt;Node165</title>
<path fill="none" stroke="#191970" d="M985.841,-513.4999C1007.8296,-507.7387 1037.3811,-500.9476 1064,-498 1123.6355,-491.3964 1139.5799,-489.6779 1199,-498 1218.4354,-500.722 1239.6113,-506.6886 1256.2625,-512.1102"/>
<polygon fill="#191970" stroke="#191970" points="1255.3954,-515.5112 1265.9895,-515.3816 1257.6269,-508.8764 1255.3954,-515.5112"/>
</g>
<!-- Node172 -->
<g id="node9" class="node">
<title>Node172</title>
<g id="a_node9"><a xlink:href="TooNetworking_8cpp.html#ac352268e177fa2ddf91c8afa5cd04bbf" target="_top" xlink:title="TooNetworking_connection\l_available">
<polygon fill="#ffffff" stroke="#000000" points="1064,-508 1064,-538 1199,-538 1199,-508 1064,-508"/>
<text text-anchor="start" x="1072" y="-526" font-family="Helvetica,sans-Serif" font-size="10.00" fill="#000000">TooNetworking_connection</text>
<text text-anchor="middle" x="1131.5" y="-515" font-family="Helvetica,sans-Serif" font-size="10.00" fill="#000000">_available</text>
</a>
</g>
</g>
<!-- Node171&#45;&gt;Node172 -->
<g id="edge8" class="edge">
<title>Node171&#45;&gt;Node172</title>
<path fill="none" stroke="#191970" d="M1028.1527,-523C1036.5642,-523 1045.143,-523 1053.582,-523"/>
<polygon fill="#191970" stroke="#191970" points="1053.7859,-526.5001 1063.7859,-523 1053.7859,-519.5001 1053.7859,-526.5001"/>
</g>
<!-- Node172&#45;&gt;Node165 -->
<g id="edge9" class="edge">
<title>Node172&#45;&gt;Node165</title>
<path fill="none" stroke="#191970" d="M1199.0344,-523C1218.8432,-523 1239.5352,-523 1255.8176,-523"/>
<polygon fill="#191970" stroke="#191970" points="1255.8271,-526.5001 1265.8271,-523 1255.827,-519.5001 1255.8271,-526.5001"/>
</g>
<!-- Node174 -->
<g id="node11" class="node">
<title>Node174</title>
<g id="a_node11"><a xlink:href="TooSigning_8cpp.html#a3994a32f8b2275d51b6832644f703bc7" target="_top" xlink:title="TooSigning_read_hmac\l_from_progmem">
<polygon fill="#ffffff" stroke="#000000" points="364,-164 364,-194 483,-194 483,-164 364,-164"/>
<text text-anchor="start" x="372" y="-182" font-family="Helvetica,sans-Serif" font-size="10.00" fill="#000000">TooSigning_read_hmac</text>
<text text-anchor="middle" x="423.5" y="-171" font-family="Helvetica,sans-Serif" font-size="10.00" fill="#000000">_from_progmem</text>
</a>
</g>
</g>
<!-- Node173&#45;&gt;Node174 -->
<g id="edge12" class="edge">
<title>Node173&#45;&gt;Node174</title>
<path fill="none" stroke="#191970" d="M258.4514,-261.7582C278.6107,-245.2978 312.8573,-219.2555 346,-203 349.7701,-201.1509 353.7132,-199.4069 357.7377,-197.7688"/>
<polygon fill="#191970" stroke="#191970" points="359.1425,-200.9789 367.2334,-194.1386 356.6428,-194.4404 359.1425,-200.9789"/>
</g>
<!-- Node175 -->
<g id="node12" class="node">
<title>Node175</title>
<g id="a_node12"><a xlink:href="group__TOOSIGNING__DEBUGGING.html#ga974dd51d29b9bd928de51c481289aad7" target="_top" xlink:title="TooSigning_random_data\l_print">
<polygon fill="#ffffff" stroke="#000000" points="360,-115 360,-145 487,-145 487,-115 360,-115"/>
<text text-anchor="start" x="368" y="-133" font-family="Helvetica,sans-Serif" font-size="10.00" fill="#000000">TooSigning_random_data</text>
<text text-anchor="middle" x="423.5" y="-122" font-family="Helvetica,sans-Serif" font-size="10.00" fill="#000000">_print</text>
</a>
</g>
</g>
<!-- Node173&#45;&gt;Node175 -->
<g id="edge13" class="edge">
<title>Node173&#45;&gt;Node175</title>
<path fill="none" stroke="#191970" d="M249.5188,-261.7204C265.6168,-235.7583 301.7903,-183.0327 346,-154 348.4283,-152.4053 350.9683,-150.9118 353.5864,-149.5136"/>
<polygon fill="#191970" stroke="#191970" points="355.2402,-152.6021 362.7392,-145.1177 352.2096,-146.2921 355.2402,-152.6021"/>
</g>
<!-- Node176 -->
<g id="node13" class="node">
<title>Node176</title>
<g id="a_node13"><a xlink:href="classSha256Class.html#a73d3dcea6eb667fd146d12aa5d106939" target="_top" xlink:title="Sha256Class::initHmac">
<polygon fill="#ffffff" stroke="#000000" points="363.5,-76.5 363.5,-95.5 483.5,-95.5 483.5,-76.5 363.5,-76.5"/>
<text text-anchor="middle" x="423.5" y="-83.5" font-family="Helvetica,sans-Serif" font-size="10.00" fill="#000000">Sha256Class::initHmac</text>
</a>
</g>
</g>
<!-- Node173&#45;&gt;Node176 -->
<g id="edge14" class="edge">
<title>Node173&#45;&gt;Node176</title>
<path fill="none" stroke="#191970" d="M245.3125,-261.839C256.8495,-228.0516 289.4093,-146.3054 346,-105 348.5474,-103.1407 351.2546,-101.4618 354.0731,-99.9459"/>
<polygon fill="#191970" stroke="#191970" points="355.7845,-103.0107 363.3936,-95.6383 352.8478,-96.6565 355.7845,-103.0107"/>
</g>
<!-- Node184 -->
<g id="node21" class="node">
<title>Node184</title>
<g id="a_node21"><a xlink:href="group__TOOSIGNING__HASHING.html#gafb2935303b05255e80a7a6fa4be7cf57" target="_top" xlink:title="TooSigning_hash_data">
<polygon fill="#ffffff" stroke="#000000" points="365.5,-.5 365.5,-19.5 481.5,-19.5 481.5,-.5 365.5,-.5"/>
<text text-anchor="middle" x="423.5" y="-7.5" font-family="Helvetica,sans-Serif" font-size="10.00" fill="#000000">TooSigning_hash_data</text>
</a>
</g>
</g>
<!-- Node173&#45;&gt;Node184 -->
<g id="edge23" class="edge">
<title>Node173&#45;&gt;Node184</title>
<path fill="none" stroke="#191970" d="M242.2853,-261.7093C248.2127,-218.1517 271.3122,-92.4856 346,-29 349.0594,-26.3995 352.4195,-24.1443 355.9729,-22.1895"/>
<polygon fill="#191970" stroke="#191970" points="357.5523,-25.315 365.1431,-17.9238 354.5998,-18.9681 357.5523,-25.315"/>
</g>
<!-- Node185 -->
<g id="node22" class="node">
<title>Node185</title>
<g id="a_node22"><a xlink:href="TooSigning_8cpp.html#a015bd663d5920097e8dc755de8471dc1" target="_top" xlink:title="TooSigning_sent_noncelist\l_find_from_ID">
<polygon fill="#ffffff" stroke="#000000" points="537,-420 537,-450 671,-450 671,-420 537,-420"/>
<text text-anchor="start" x="545" y="-438" font-family="Helvetica,sans-Serif" font-size="10.00" fill="#000000">TooSigning_sent_noncelist</text>
<text text-anchor="middle" x="604" y="-427" font-family="Helvetica,sans-Serif" font-size="10.00" fill="#000000">_find_from_ID</text>
</a>
</g>
</g>
<!-- Node173&#45;&gt;Node185 -->
<g id="edge25" class="edge">
<title>Node173&#45;&gt;Node185</title>
<path fill="none" stroke="#191970" d="M244.0742,-292.0057C253.5168,-327.8492 282.8578,-418.1279 346,-454 375.8397,-470.9524 461.9968,-460.8936 526.5976,-450.0319"/>
<polygon fill="#191970" stroke="#191970" points="527.5051,-453.4274 536.7687,-448.2858 526.3206,-446.5283 527.5051,-453.4274"/>
</g>
<!-- Node186 -->
<g id="node23" class="node">
<title>Node186</title>
<g id="a_node23"><a xlink:href="group__TOOSIGNING__HASHING.html#gae743dd1289d92f915352e40b047b4cc8" target="_top" xlink:title="TooSigning_hash_store">
<polygon fill="#ffffff" stroke="#000000" points="364,-387.5 364,-406.5 483,-406.5 483,-387.5 364,-387.5"/>
<text text-anchor="middle" x="423.5" y="-394.5" font-family="Helvetica,sans-Serif" font-size="10.00" fill="#000000">TooSigning_hash_store</text>
</a>
</g>
</g>
<!-- Node173&#45;&gt;Node186 -->
<g id="edge26" class="edge">
<title>Node173&#45;&gt;Node186</title>
<path fill="none" stroke="#191970" d="M252.0002,-292.2407C269.6878,-314.5708 305.7679,-355.9157 346,-378 350.1821,-380.2956 354.6415,-382.3175 359.2278,-384.0976"/>
<polygon fill="#191970" stroke="#191970" points="358.1774,-387.4379 368.7722,-387.4225 360.4802,-380.8276 358.1774,-387.4379"/>
</g>
<!-- Node187 -->
<g id="node24" class="node">
<title>Node187</title>
<g id="a_node24"><a xlink:href="classSha256Class.html#a7556f29cadf7eaca21a537df41318af3" target="_top" xlink:title="Sha256Class::resultHmac">
<polygon fill="#ffffff" stroke="#000000" points="358,-38.5 358,-57.5 489,-57.5 489,-38.5 358,-38.5"/>
<text text-anchor="middle" x="423.5" y="-45.5" font-family="Helvetica,sans-Serif" font-size="10.00" fill="#000000">Sha256Class::resultHmac</text>
</a>
</g>
</g>
<!-- Node173&#45;&gt;Node187 -->
<g id="edge27" class="edge">
<title>Node173&#45;&gt;Node187</title>
<path fill="none" stroke="#191970" d="M243.5415,-261.8084C252.1475,-222.9356 280.4281,-119.2526 346,-67 348.2853,-65.1789 350.7202,-63.5289 353.2645,-62.0342"/>
<polygon fill="#191970" stroke="#191970" points="354.8991,-65.13 362.2782,-57.5274 351.7686,-58.869 354.8991,-65.13"/>
</g>
<!-- Node188 -->
<g id="node25" class="node">
<title>Node188</title>
<g id="a_node25"><a xlink:href="group__TOOSIGNING__HASHING.html#ga7696a20bc1d03d129afbdc8d6e446aa2" target="_top" xlink:title="TooSigning_hash_print">
<polygon fill="#ffffff" stroke="#000000" points="365.5,-349.5 365.5,-368.5 481.5,-368.5 481.5,-349.5 365.5,-349.5"/>
<text text-anchor="middle" x="423.5" y="-356.5" font-family="Helvetica,sans-Serif" font-size="10.00" fill="#000000">TooSigning_hash_print</text>
</a>
</g>
</g>
<!-- Node173&#45;&gt;Node188 -->
<g id="edge31" class="edge">
<title>Node173&#45;&gt;Node188</title>
<path fill="none" stroke="#191970" d="M261.3353,-292.0033C281.9381,-306.2057 314.8166,-327.2048 346,-340 351.9716,-342.4503 358.3368,-344.638 364.7544,-346.5777"/>
<polygon fill="#191970" stroke="#191970" points="364.2587,-350.0744 374.8335,-349.4234 366.1608,-343.3378 364.2587,-350.0744"/>
</g>
<!-- Node189 -->
<g id="node26" class="node">
<title>Node189</title>
<g id="a_node26"><a xlink:href="group__TOOSIGNING__HASHING.html#ga3a6687a23b6971e4053bef8328e347dd" target="_top" xlink:title="TooSigning_hash_compare">
<polygon fill="#ffffff" stroke="#000000" points="356.5,-311.5 356.5,-330.5 490.5,-330.5 490.5,-311.5 356.5,-311.5"/>
<text text-anchor="middle" x="423.5" y="-318.5" font-family="Helvetica,sans-Serif" font-size="10.00" fill="#000000">TooSigning_hash_compare</text>
</a>
</g>
</g>
<!-- Node173&#45;&gt;Node189 -->
<g id="edge32" class="edge">
<title>Node173&#45;&gt;Node189</title>
<path fill="none" stroke="#191970" d="M295.9027,-290.3209C320.7558,-296.2965 349.8404,-303.2895 373.9599,-309.0887"/>
<polygon fill="#191970" stroke="#191970" points="373.4249,-312.5598 383.966,-311.4946 375.0613,-305.7537 373.4249,-312.5598"/>
</g>
<!-- Node190 -->
<g id="node27" class="node">
<title>Node190</title>
<g id="a_node27"><a xlink:href="TooSigning_8cpp.html#a15dc10b22577187e282a5b1da9ffec08" target="_top" xlink:title="TooSigning_sent_noncelist_add">
<polygon fill="#ffffff" stroke="#000000" points="346,-425.5 346,-444.5 501,-444.5 501,-425.5 346,-425.5"/>
<text text-anchor="middle" x="423.5" y="-432.5" font-family="Helvetica,sans-Serif" font-size="10.00" fill="#000000">TooSigning_sent_noncelist_add</text>
</a>
</g>
</g>
<!-- Node173&#45;&gt;Node190 -->
<g id="edge33" class="edge">
<title>Node173&#45;&gt;Node190</title>
<path fill="none" stroke="#191970" d="M247.643,-292.2805C261.98,-321.2008 297.1234,-383.9082 346,-416 349.1375,-418.0601 352.479,-419.8969 355.9461,-421.5346"/>
<polygon fill="#191970" stroke="#191970" points="354.7845,-424.8416 365.3635,-425.4216 357.4552,-418.371 354.7845,-424.8416"/>
</g>
<!-- Node192 -->
<g id="node29" class="node">
<title>Node192</title>
<g id="a_node29"><a xlink:href="group__TOOSIGNING__DEBUGGING.html#gab35891e0905f1ddec2ff8b649f63d5e5" target="_top" xlink:title="TooSigning_sent_noncelist\l_print">
<polygon fill="#ffffff" stroke="#000000" points="356.5,-262 356.5,-292 490.5,-292 490.5,-262 356.5,-262"/>
<text text-anchor="start" x="364.5" y="-280" font-family="Helvetica,sans-Serif" font-size="10.00" fill="#000000">TooSigning_sent_noncelist</text>
<text text-anchor="middle" x="423.5" y="-269" font-family="Helvetica,sans-Serif" font-size="10.00" fill="#000000">_print</text>
</a>
</g>
</g>
<!-- Node173&#45;&gt;Node192 -->
<g id="edge36" class="edge">
<title>Node173&#45;&gt;Node192</title>
<path fill="none" stroke="#191970" d="M295.9027,-277C311.6709,-277 329.1425,-277 345.9687,-277"/>
<polygon fill="#191970" stroke="#191970" points="346.341,-280.5001 356.3409,-277 346.3409,-273.5001 346.341,-280.5001"/>
</g>
<!-- Node193 -->
<g id="node30" class="node">
<title>Node193</title>
<g id="a_node30"><a xlink:href="TooSigning_8cpp.html#a062eebefb7be0142400108d4b75c566a" target="_top" xlink:title="TooSigning_received\l_noncelist_add">
<polygon fill="#ffffff" stroke="#000000" points="370,-213 370,-243 477,-243 477,-213 370,-213"/>
<text text-anchor="start" x="378" y="-231" font-family="Helvetica,sans-Serif" font-size="10.00" fill="#000000">TooSigning_received</text>
<text text-anchor="middle" x="423.5" y="-220" font-family="Helvetica,sans-Serif" font-size="10.00" fill="#000000">_noncelist_add</text>
</a>
</g>
</g>
<!-- Node173&#45;&gt;Node193 -->
<g id="edge37" class="edge">
<title>Node173&#45;&gt;Node193</title>
<path fill="none" stroke="#191970" d="M295.9027,-262.1654C316.1546,-256.7428 339.2163,-250.5678 360.1116,-244.9729"/>
<polygon fill="#191970" stroke="#191970" points="361.102,-248.331 369.8565,-242.3636 359.2915,-241.5692 361.102,-248.331"/>
</g>
<!-- Node177 -->
<g id="node14" class="node">
<title>Node177</title>
<g id="a_node14"><a xlink:href="classSha256Class.html#ac1025d69c51fcd1b882ee41114e58339" target="_top" xlink:title="Sha256Class::init">
<polygon fill="#ffffff" stroke="#000000" points="557,-76.5 557,-95.5 651,-95.5 651,-76.5 557,-76.5"/>
<text text-anchor="middle" x="604" y="-83.5" font-family="Helvetica,sans-Serif" font-size="10.00" fill="#000000">Sha256Class::init</text>
</a>
</g>
</g>
<!-- Node176&#45;&gt;Node177 -->
<g id="edge15" class="edge">
<title>Node176&#45;&gt;Node177</title>
<path fill="none" stroke="#191970" d="M483.6039,-86C503.952,-86 526.61,-86 546.7318,-86"/>
<polygon fill="#191970" stroke="#191970" points="546.9973,-89.5001 556.9973,-86 546.9973,-82.5001 546.9973,-89.5001"/>
</g>
<!-- Node178 -->
<g id="node15" class="node">
<title>Node178</title>
<g id="a_node15"><a xlink:href="classSha256Class.html#a0f0fc4bd4d8c53d232df0d41d7ea25e0" target="_top" xlink:title="Sha256Class::write">
<polygon fill="#ffffff" stroke="#000000" points="553,-.5 553,-19.5 655,-19.5 655,-.5 553,-.5"/>
<text text-anchor="middle" x="604" y="-7.5" font-family="Helvetica,sans-Serif" font-size="10.00" fill="#000000">Sha256Class::write</text>
</a>
</g>
</g>
<!-- Node176&#45;&gt;Node178 -->
<g id="edge16" class="edge">
<title>Node176&#45;&gt;Node178</title>
<path fill="none" stroke="#191970" d="M479.2151,-76.467C486.811,-73.9996 494.2925,-70.8979 501,-67 521.1147,-55.311 517.0984,-41.0482 537,-29 540.6071,-26.8163 544.4748,-24.875 548.4653,-23.1505"/>
<polygon fill="#191970" stroke="#191970" points="549.8573,-26.3651 557.934,-19.5082 547.3441,-19.8318 549.8573,-26.3651"/>
</g>
<!-- Node182 -->
<g id="node19" class="node">
<title>Node182</title>
<g id="a_node19"><a xlink:href="classSha256Class.html#a0ca245a22f8b056a3d1902da3c64b705" target="_top" xlink:title="Sha256Class::result">
<polygon fill="#ffffff" stroke="#000000" points="551.5,-38.5 551.5,-57.5 656.5,-57.5 656.5,-38.5 551.5,-38.5"/>
<text text-anchor="middle" x="604" y="-45.5" font-family="Helvetica,sans-Serif" font-size="10.00" fill="#000000">Sha256Class::result</text>
</a>
</g>
</g>
<!-- Node176&#45;&gt;Node182 -->
<g id="edge20" class="edge">
<title>Node176&#45;&gt;Node182</title>
<path fill="none" stroke="#191970" d="M469.0478,-76.411C493.2959,-71.3061 523.3037,-64.9887 548.8612,-59.6082"/>
<polygon fill="#191970" stroke="#191970" points="549.7153,-63.0052 558.7798,-57.5201 548.2732,-56.1553 549.7153,-63.0052"/>
</g>
<!-- Node179 -->
<g id="node16" class="node">
<title>Node179</title>
<g id="a_node16"><a xlink:href="classSha256Class.html#ab0b46743e3d59b1c68f52ed89dfaff50" target="_top" xlink:title="Sha256Class::addUncounted">
<polygon fill="#ffffff" stroke="#000000" points="880.5,-19.5 880.5,-38.5 1024.5,-38.5 1024.5,-19.5 880.5,-19.5"/>
<text text-anchor="middle" x="952.5" y="-26.5" font-family="Helvetica,sans-Serif" font-size="10.00" fill="#000000">Sha256Class::addUncounted</text>
</a>
</g>
</g>
<!-- Node178&#45;&gt;Node179 -->
<g id="edge17" class="edge">
<title>Node178&#45;&gt;Node179</title>
<path fill="none" stroke="#191970" d="M655.0481,-12.7831C711.6045,-15.8665 803.6128,-20.8828 870.3401,-24.5207"/>
<polygon fill="#191970" stroke="#191970" points="870.2325,-28.0199 880.4083,-25.0696 870.6137,-21.0303 870.2325,-28.0199"/>
</g>
<!-- Node180 -->
<g id="node17" class="node">
<title>Node180</title>
<g id="a_node17"><a xlink:href="classSha256Class.html#a399d2a23951e2130f54af8ac7712068f" target="_top" xlink:title="Sha256Class::hashBlock">
<polygon fill="#ffffff" stroke="#000000" points="1068,-19.5 1068,-38.5 1195,-38.5 1195,-19.5 1068,-19.5"/>
<text text-anchor="middle" x="1131.5" y="-26.5" font-family="Helvetica,sans-Serif" font-size="10.00" fill="#000000">Sha256Class::hashBlock</text>
</a>
</g>
</g>
<!-- Node179&#45;&gt;Node180 -->
<g id="edge18" class="edge">
<title>Node179&#45;&gt;Node180</title>
<path fill="none" stroke="#191970" d="M1024.5324,-29C1035.5404,-29 1046.9152,-29 1057.9553,-29"/>
<polygon fill="#191970" stroke="#191970" points="1057.9799,-32.5001 1067.9799,-29 1057.9798,-25.5001 1057.9799,-32.5001"/>
</g>
<!-- Node181 -->
<g id="node18" class="node">
<title>Node181</title>
<g id="a_node18"><a xlink:href="classSha256Class.html#ae275718ce9813bb33b2d8d8fbf018bd6" target="_top" xlink:title="Sha256Class::ror32">
<polygon fill="#ffffff" stroke="#000000" points="1235,-19.5 1235,-38.5 1338,-38.5 1338,-19.5 1235,-19.5"/>
<text text-anchor="middle" x="1286.5" y="-26.5" font-family="Helvetica,sans-Serif" font-size="10.00" fill="#000000">Sha256Class::ror32</text>
</a>
</g>
</g>
<!-- Node180&#45;&gt;Node181 -->
<g id="edge19" class="edge">
<title>Node180&#45;&gt;Node181</title>
<path fill="none" stroke="#191970" d="M1195.4393,-29C1205.1153,-29 1215.0825,-29 1224.7118,-29"/>
<polygon fill="#191970" stroke="#191970" points="1224.9983,-32.5001 1234.9983,-29 1224.9982,-25.5001 1224.9983,-32.5001"/>
</g>
<!-- Node183 -->
<g id="node20" class="node">
<title>Node183</title>
<g id="a_node20"><a xlink:href="classSha256Class.html#a82049dae520ccf0bd8478f2aef639149" target="_top" xlink:title="Sha256Class::pad">
<polygon fill="#ffffff" stroke="#000000" points="725.5,-38.5 725.5,-57.5 822.5,-57.5 822.5,-38.5 725.5,-38.5"/>
<text text-anchor="middle" x="774" y="-45.5" font-family="Helvetica,sans-Serif" font-size="10.00" fill="#000000">Sha256Class::pad</text>
</a>
</g>
</g>
<!-- Node182&#45;&gt;Node183 -->
<g id="edge21" class="edge">
<title>Node182&#45;&gt;Node183</title>
<path fill="none" stroke="#191970" d="M656.8572,-48C675.364,-48 696.2549,-48 715.2164,-48"/>
<polygon fill="#191970" stroke="#191970" points="715.2279,-51.5001 725.2279,-48 715.2279,-44.5001 715.2279,-51.5001"/>
</g>
<!-- Node183&#45;&gt;Node179 -->
<g id="edge22" class="edge">
<title>Node183&#45;&gt;Node179</title>
<path fill="none" stroke="#191970" d="M822.7759,-42.8082C837.4788,-41.2431 854.041,-39.4802 870.29,-37.7506"/>
<polygon fill="#191970" stroke="#191970" points="870.7741,-41.219 880.3475,-36.6801 870.0331,-34.2583 870.7741,-41.219"/>
</g>
<!-- Node184&#45;&gt;Node178 -->
<g id="edge24" class="edge">
<title>Node184&#45;&gt;Node178</title>
<path fill="none" stroke="#191970" d="M481.6049,-10C501.0878,-10 522.8696,-10 542.5966,-10"/>
<polygon fill="#191970" stroke="#191970" points="542.7023,-13.5001 552.7022,-10 542.7022,-6.5001 542.7023,-13.5001"/>
</g>
<!-- Node187&#45;&gt;Node177 -->
<g id="edge29" class="edge">
<title>Node187&#45;&gt;Node177</title>
<path fill="none" stroke="#191970" d="M469.0478,-57.589C493.2959,-62.6939 523.3037,-69.0113 548.8612,-74.3918"/>
<polygon fill="#191970" stroke="#191970" points="548.2732,-77.8447 558.7798,-76.4799 549.7153,-70.9948 548.2732,-77.8447"/>
</g>
<!-- Node187&#45;&gt;Node178 -->
<g id="edge30" class="edge">
<title>Node187&#45;&gt;Node178</title>
<path fill="none" stroke="#191970" d="M469.0478,-38.411C493.2959,-33.3061 523.3037,-26.9887 548.8612,-21.6082"/>
<polygon fill="#191970" stroke="#191970" points="549.7153,-25.0052 558.7798,-19.5201 548.2732,-18.1553 549.7153,-25.0052"/>
</g>
<!-- Node187&#45;&gt;Node182 -->
<g id="edge28" class="edge">
<title>Node187&#45;&gt;Node182</title>
<path fill="none" stroke="#191970" d="M489.1752,-48C506.1206,-48 524.3172,-48 541.1165,-48"/>
<polygon fill="#191970" stroke="#191970" points="541.3722,-51.5001 551.3722,-48 541.3721,-44.5001 541.3722,-51.5001"/>
</g>
<!-- Node190&#45;&gt;Node185 -->
<g id="edge35" class="edge">
<title>Node190&#45;&gt;Node185</title>
<path fill="none" stroke="#191970" d="M501.0958,-435C509.587,-435 518.2308,-435 526.7183,-435"/>
<polygon fill="#191970" stroke="#191970" points="526.9729,-438.5001 536.9728,-435 526.9728,-431.5001 526.9729,-438.5001"/>
</g>
<!-- Node191 -->
<g id="node28" class="node">
<title>Node191</title>
<g id="a_node28"><a xlink:href="group__TOOSIGNING__INITIALIZE.html#ga0ad0c6af4c20b80f75ccf3d4a2804a0c" target="_top" xlink:title="TooSigning_sent_noncelist\l_initialize">
<polygon fill="#ffffff" stroke="#000000" points="537,-371 537,-401 671,-401 671,-371 537,-371"/>
<text text-anchor="start" x="545" y="-389" font-family="Helvetica,sans-Serif" font-size="10.00" fill="#000000">TooSigning_sent_noncelist</text>
<text text-anchor="middle" x="604" y="-378" font-family="Helvetica,sans-Serif" font-size="10.00" fill="#000000">_initialize</text>
</a>
</g>
</g>
<!-- Node190&#45;&gt;Node191 -->
<g id="edge34" class="edge">
<title>Node190&#45;&gt;Node191</title>
<path fill="none" stroke="#191970" d="M463.808,-425.4662C475.8034,-422.5352 488.9572,-419.2284 501,-416 515.1051,-412.2187 530.232,-407.9395 544.4316,-403.8221"/>
<polygon fill="#191970" stroke="#191970" points="545.4697,-407.1653 554.09,-401.0056 543.51,-400.4452 545.4697,-407.1653"/>
</g>
<!-- Node194 -->
<g id="node31" class="node">
<title>Node194</title>
<g id="a_node31"><a xlink:href="group__TOOSIGNING__DEBUGGING.html#gaba98f230fad779da673a83370ad7de5d" target="_top" xlink:title="TooSigning_received\l_noncelist_print">
<polygon fill="#ffffff" stroke="#000000" points="550.5,-164 550.5,-194 657.5,-194 657.5,-164 550.5,-164"/>
<text text-anchor="start" x="558.5" y="-182" font-family="Helvetica,sans-Serif" font-size="10.00" fill="#000000">TooSigning_received</text>
<text text-anchor="middle" x="604" y="-171" font-family="Helvetica,sans-Serif" font-size="10.00" fill="#000000">_noncelist_print</text>
</a>
</g>
</g>
<!-- Node193&#45;&gt;Node194 -->
<g id="edge38" class="edge">
<title>Node193&#45;&gt;Node194</title>
<path fill="none" stroke="#191970" d="M477.1672,-213.4311C497.0831,-208.0245 519.8601,-201.8413 540.5658,-196.2204"/>
<polygon fill="#191970" stroke="#191970" points="541.4941,-199.5951 550.2279,-193.5974 539.6602,-192.8396 541.4941,-199.5951"/>
</g>
<!-- Node195 -->
<g id="node32" class="node">
<title>Node195</title>
<g id="a_node32"><a xlink:href="group__TOOSIGNING__INITIALIZE.html#ga24011c99b90b9070adb424cee01a3fc2" target="_top" xlink:title="TooSigning_received\l_noncelist_initialize">
<polygon fill="#ffffff" stroke="#000000" points="550.5,-311 550.5,-341 657.5,-341 657.5,-311 550.5,-311"/>
<text text-anchor="start" x="558.5" y="-329" font-family="Helvetica,sans-Serif" font-size="10.00" fill="#000000">TooSigning_received</text>
<text text-anchor="middle" x="604" y="-318" font-family="Helvetica,sans-Serif" font-size="10.00" fill="#000000">_noncelist_initialize</text>
</a>
</g>
</g>
<!-- Node193&#45;&gt;Node195 -->
<g id="edge39" class="edge">
<title>Node193&#45;&gt;Node195</title>
<path fill="none" stroke="#191970" d="M477.3085,-239.7323C485.6723,-242.9155 493.8861,-246.9349 501,-252 523.0137,-267.6738 515.4405,-284.7071 537,-301 539.4468,-302.8491 542.0453,-304.5742 544.7434,-306.1819"/>
<polygon fill="#191970" stroke="#191970" points="543.1653,-309.3068 553.6358,-310.9253 546.4599,-303.1306 543.1653,-309.3068"/>
</g>
<!-- Node196 -->
<g id="node33" class="node">
<title>Node196</title>
<g id="a_node33"><a xlink:href="TooSigning_8cpp.html#a729dc41cfb692fb0aea083c38c5f3577" target="_top" xlink:title="TooSigning_received\l_noncelist_find_from_ID">
<polygon fill="#ffffff" stroke="#000000" points="543,-262 543,-292 665,-292 665,-262 543,-262"/>
<text text-anchor="start" x="551" y="-280" font-family="Helvetica,sans-Serif" font-size="10.00" fill="#000000">TooSigning_received</text>
<text text-anchor="middle" x="604" y="-269" font-family="Helvetica,sans-Serif" font-size="10.00" fill="#000000">_noncelist_find_from_ID</text>
</a>
</g>
</g>
<!-- Node193&#45;&gt;Node196 -->
<g id="edge40" class="edge">
<title>Node193&#45;&gt;Node196</title>
<path fill="none" stroke="#191970" d="M477.1672,-242.5689C496.5465,-247.8298 518.6347,-253.826 538.8876,-259.324"/>
<polygon fill="#191970" stroke="#191970" points="538.0949,-262.7355 548.6625,-261.9776 539.9288,-255.98 538.0949,-262.7355"/>
</g>
<!-- Node197 -->
<g id="node34" class="node">
<title>Node197</title>
<g id="a_node34"><a xlink:href="TooSigning_8cpp.html#a451535471c647e6bb93141cc8e321432" target="_top" xlink:title="TooSigning_requested\l_noncelist_received">
<polygon fill="#ffffff" stroke="#000000" points="547.5,-213 547.5,-243 660.5,-243 660.5,-213 547.5,-213"/>
<text text-anchor="start" x="555.5" y="-231" font-family="Helvetica,sans-Serif" font-size="10.00" fill="#000000">TooSigning_requested</text>
<text text-anchor="middle" x="604" y="-220" font-family="Helvetica,sans-Serif" font-size="10.00" fill="#000000">_noncelist_received</text>
</a>
</g>
</g>
<!-- Node193&#45;&gt;Node197 -->
<g id="edge41" class="edge">
<title>Node193&#45;&gt;Node197</title>
<path fill="none" stroke="#191970" d="M477.1672,-228C496.0164,-228 517.4282,-228 537.2214,-228"/>
<polygon fill="#191970" stroke="#191970" points="537.4023,-231.5001 547.4023,-228 537.4022,-224.5001 537.4023,-231.5001"/>
</g>
<!-- Node197&#45;&gt;Node168 -->
<g id="edge42" class="edge">
<title>Node197&#45;&gt;Node168</title>
<path fill="none" stroke="#191970" d="M655.2216,-243.011C660.7714,-245.5979 666.155,-248.5795 671,-252 710.1932,-279.6699 742.7092,-326.0687 760.1624,-354.1768"/>
<polygon fill="#191970" stroke="#191970" points="757.3101,-356.223 765.4917,-362.9545 763.2936,-352.5901 757.3101,-356.223"/>
</g>
<!-- Node198 -->
<g id="node35" class="node">
<title>Node198</title>
<g id="a_node35"><a xlink:href="TooSigning_8cpp.html#a2b55d98ebd75cdee560a9587339d8f35" target="_top" xlink:title="TooSigning_requested\l_noncelist_delete">
<polygon fill="#ffffff" stroke="#000000" points="717.5,-213 717.5,-243 830.5,-243 830.5,-213 717.5,-213"/>
<text text-anchor="start" x="725.5" y="-231" font-family="Helvetica,sans-Serif" font-size="10.00" fill="#000000">TooSigning_requested</text>
<text text-anchor="middle" x="774" y="-220" font-family="Helvetica,sans-Serif" font-size="10.00" fill="#000000">_noncelist_delete</text>
</a>
</g>
</g>
<!-- Node197&#45;&gt;Node198 -->
<g id="edge43" class="edge">
<title>Node197&#45;&gt;Node198</title>
<path fill="none" stroke="#191970" d="M660.6075,-228C675.5825,-228 691.8857,-228 707.3397,-228"/>
<polygon fill="#191970" stroke="#191970" points="707.35,-231.5001 717.35,-228 707.35,-224.5001 707.35,-231.5001"/>
</g>
</g>
</svg>
        <g id="navigator" transform="translate(0 0)" fill="#404254">
                <rect fill="#f2f5e9" fill-opacity="0.5" stroke="#606060" stroke-width=".5" x="0" y="0" width="60" height="60"/>
                <use id="zoomplus" xlink:href="#zoomPlus" x="17" y="9" onmousedown="handleZoom(evt,'in')"/>
                <use id="zoomminus" xlink:href="#zoomMin" x="42" y="9" onmousedown="handleZoom(evt,'out')"/>
                <use id="reset" xlink:href="#resetDef" x="30" y="36" onmousedown="handleReset()"/>
                <g id="arrowUp" xlink:href="#dirArrow" transform="translate(30 24)" onmousedown="handlePan(0,-1)">
                  <use xlink:href="#rim" fill="#404040">
                        <set attributeName="fill" to="#808080" begin="arrowUp.mouseover" end="arrowUp.mouseout"/>
                  </use>
                  <path fill="none" stroke="white" stroke-width="1.5" d="M0,-3.0v7 M-2.5,-0.5L0,-3.0L2.5,-0.5"/>
                </g>
                <g id="arrowRight" xlink:href="#dirArrow" transform="rotate(90) translate(36 -43)" onmousedown="handlePan(1,0)">
                  <use xlink:href="#rim" fill="#404040">
                        <set attributeName="fill" to="#808080" begin="arrowRight.mouseover" end="arrowRight.mouseout"/>
                  </use>
                  <path fill="none" stroke="white" stroke-width="1.5" d="M0,-3.0v7 M-2.5,-0.5L0,-3.0L2.5,-0.5"/>
                </g>
                <g id="arrowDown" xlink:href="#dirArrow" transform="rotate(180) translate(-30 -48)" onmousedown="handlePan(0,1)">
                  <use xlink:href="#rim" fill="#404040">
                        <set attributeName="fill" to="#808080" begin="arrowDown.mouseover" end="arrowDown.mouseout"/>
                  </use>
                  <path fill="none" stroke="white" stroke-width="1.5" d="M0,-3.0v7 M-2.5,-0.5L0,-3.0L2.5,-0.5"/>
                </g>
                <g id="arrowLeft" xlink:href="#dirArrow" transform="rotate(270) translate(-36 17)" onmousedown="handlePan(-1,0)">
                  <use xlink:href="#rim" fill="#404040">
                        <set attributeName="fill" to="#808080" begin="arrowLeft.mouseover" end="arrowLeft.mouseout"/>
                  </use>
                  <path fill="none" stroke="white" stroke-width="1.5" d="M0,-3.0v7 M-2.5,-0.5L0,-3.0L2.5,-0.5"/>
                </g>
        </g>
        <svg viewBox="0 0 15 15" width="100%" height="30px" preserveAspectRatio="xMaxYMin meet">
         <g id="arrow_out" transform="scale(0.3 0.3)">
          <a xlink:href="TooNetworking_8cpp_a7382ba1aed5405c3adc02011ea6c45dd_cgraph_org.svg" target="_base">
           <rect id="button" ry="5" rx="5" y="6" x="6" height="38" width="38"
                fill="#f2f5e9" fill-opacity="0.5" stroke="#606060" stroke-width="1.0"/>
           <path id="arrow"
             d="M 11.500037,31.436501 C 11.940474,20.09759 22.043105,11.32322 32.158766,21.979434 L 37.068811,17.246167 C 37.068811,17.246167 37.088388,32 37.088388,32 L 22.160133,31.978069 C 22.160133,31.978069 26.997745,27.140456 26.997745,27.140456 C 18.528582,18.264221 13.291696,25.230495 11.500037,31.436501 z"
             style="fill:#404040;"/>
          </a>
         </g>
        </svg>
</svg>
