<?xml version="1.0" encoding="UTF-8" standalone="no"?>
<!DOCTYPE svg PUBLIC "-//W3C//DTD SVG 1.1//EN"
 "http://www.w3.org/Graphics/SVG/1.1/DTD/svg11.dtd">
<!-- Generated by graphviz version 2.40.1 (20161225.0304)
 -->
<!-- Title: TooNetworking_bufferlist_send_signed Pages: 1 -->
<!--zoomable 600 -->
<svg id="main" version="1.1" xmlns="http://www.w3.org/2000/svg" xmlns:xlink="http://www.w3.org/1999/xlink" xml:space="preserve" onload="init(evt)">
<style type="text/css"><![CDATA[
.edge:hover path { stroke: red; }
.edge:hover polygon { stroke: red; fill: red; }
]]></style>
<script type="text/javascript"><![CDATA[
var edges = document.getElementsByTagName('g');
if (edges && edges.length) {
  for (var i=0;i<edges.length;i++) {
    if (edges[i].id.substr(0,4)=='edge') {
      edges[i].setAttribute('class','edge');
    }
  }
}
]]></script>
        <defs>
                <circle id="rim" cx="0" cy="0" r="7"/>
                <circle id="rim2" cx="0" cy="0" r="3.5"/>
                <g id="zoomPlus">
                        <use xlink:href="#rim" fill="#404040">
                                <set attributeName="fill" to="#808080" begin="zoomplus.mouseover" end="zoomplus.mouseout"/>
                        </use>
                        <path d="M-4,0h8M0,-4v8" fill="none" stroke="white" stroke-width="1.5" pointer-events="none"/>
                </g>
                <g id="zoomMin">
                        <use xlink:href="#rim" fill="#404040">
                                <set attributeName="fill" to="#808080" begin="zoomminus.mouseover" end="zoomminus.mouseout"/>
                        </use>
                        <path d="M-4,0h8" fill="none" stroke="white" stroke-width="1.5" pointer-events="none"/>
                </g>
                <g id="dirArrow">
                        <path fill="none" stroke="white" stroke-width="1.5" d="M0,-3.0v7 M-2.5,-0.5L0,-3.0L2.5,-0.5"/>
                </g>
               <g id="resetDef">
                       <use xlink:href="#rim2" fill="#404040">
                               <set attributeName="fill" to="#808080" begin="reset.mouseover" end="reset.mouseout"/>
                       </use>
               </g>
        </defs>

<script type="text/javascript">
var viewWidth = 1288;
var viewHeight = 600;
var sectionId = 'dynsection-13';
</script>
<script xlink:href="svgpan.js"/>
<svg id="graph" class="graph">
<g id="viewport">
<title>TooNetworking_bufferlist_send_signed</title>
<polygon fill="#ffffff" stroke="transparent" points="-4,4 -4,-596 1284,-596 1284,4 -4,4"/>
<!-- Node95 -->
<g id="node1" class="node">
<title>Node95</title>
<polygon fill="#bfbfbf" stroke="#000000" points="0,-226.5 0,-256.5 125,-256.5 125,-226.5 0,-226.5"/>
<text text-anchor="start" x="8" y="-244.5" font-family="Helvetica,sans-Serif" font-size="10.00" fill="#000000">TooNetworking_bufferlist</text>
<text text-anchor="middle" x="62.5" y="-233.5" font-family="Helvetica,sans-Serif" font-size="10.00" fill="#000000">_send_signed</text>
</g>
<!-- Node96 -->
<g id="node2" class="node">
<title>Node96</title>
<g id="a_node2"><a xlink:href="TooSigning_8cpp.html#a729dc41cfb692fb0aea083c38c5f3577" target="_top" xlink:title="TooSigning_received\l_noncelist_find_from_ID">
<polygon fill="#ffffff" stroke="#000000" points="173,-412.5 173,-442.5 295,-442.5 295,-412.5 173,-412.5"/>
<text text-anchor="start" x="181" y="-430.5" font-family="Helvetica,sans-Serif" font-size="10.00" fill="#000000">TooSigning_received</text>
<text text-anchor="middle" x="234" y="-419.5" font-family="Helvetica,sans-Serif" font-size="10.00" fill="#000000">_noncelist_find_from_ID</text>
</a>
</g>
</g>
<!-- Node95&#45;&gt;Node96 -->
<g id="edge1" class="edge">
<title>Node95&#45;&gt;Node96</title>
<path fill="none" stroke="#191970" d="M68.2749,-256.5361C80.7299,-287.1257 112.9335,-357.116 161,-397.5 165.5701,-401.3396 170.6987,-404.7412 176.0633,-407.7427"/>
<polygon fill="#191970" stroke="#191970" points="174.7579,-411.0055 185.2575,-412.4228 177.9334,-404.7672 174.7579,-411.0055"/>
</g>
<!-- Node97 -->
<g id="node3" class="node">
<title>Node97</title>
<g id="a_node3"><a xlink:href="group__TOOSIGNING__DEBUGGING.html#ga974dd51d29b9bd928de51c481289aad7" target="_top" xlink:title="TooSigning_random_data\l_print">
<polygon fill="#ffffff" stroke="#000000" points="355,-561.5 355,-591.5 482,-591.5 482,-561.5 355,-561.5"/>
<text text-anchor="start" x="363" y="-579.5" font-family="Helvetica,sans-Serif" font-size="10.00" fill="#000000">TooSigning_random_data</text>
<text text-anchor="middle" x="418.5" y="-568.5" font-family="Helvetica,sans-Serif" font-size="10.00" fill="#000000">_print</text>
</a>
</g>
</g>
<!-- Node95&#45;&gt;Node97 -->
<g id="edge2" class="edge">
<title>Node95&#45;&gt;Node97</title>
<path fill="none" stroke="#191970" d="M70.3118,-256.5577C84.6478,-282.6642 117.7018,-336.2378 161,-364.5 217.2429,-401.2116 260.0802,-355.4423 307,-403.5 354.593,-452.2472 296.5594,-502.6537 343,-552.5 344.1925,-553.7799 345.4528,-554.9919 346.7713,-556.1395"/>
<polygon fill="#191970" stroke="#191970" points="344.7428,-558.9919 354.8916,-562.0337 348.8548,-553.327 344.7428,-558.9919"/>
</g>
<!-- Node98 -->
<g id="node4" class="node">
<title>Node98</title>
<g id="a_node4"><a xlink:href="TooNetworking_8cpp.html#a9f893c3218491ee86282fdcd9f376500" target="_top" xlink:title="TooNetworking_send\l_signed_">
<polygon fill="#ffffff" stroke="#000000" points="179.5,-324.5 179.5,-354.5 288.5,-354.5 288.5,-324.5 179.5,-324.5"/>
<text text-anchor="start" x="187.5" y="-342.5" font-family="Helvetica,sans-Serif" font-size="10.00" fill="#000000">TooNetworking_send</text>
<text text-anchor="middle" x="234" y="-331.5" font-family="Helvetica,sans-Serif" font-size="10.00" fill="#000000">_signed_</text>
</a>
</g>
</g>
<!-- Node95&#45;&gt;Node98 -->
<g id="edge3" class="edge">
<title>Node95&#45;&gt;Node98</title>
<path fill="none" stroke="#191970" d="M88.921,-256.5977C118.3794,-273.4311 166.1608,-300.7348 198.7789,-319.3737"/>
<polygon fill="#191970" stroke="#191970" points="197.13,-322.4625 207.5489,-324.3851 200.603,-316.3848 197.13,-322.4625"/>
</g>
<!-- Node116 -->
<g id="node22" class="node">
<title>Node116</title>
<g id="a_node22"><a xlink:href="TooSigning_8cpp.html#a53b55547df3d4276f3ca6a74d601549a" target="_top" xlink:title="TooSigning_requested\l_noncelist_add">
<polygon fill="#ffffff" stroke="#000000" points="177.5,-147.5 177.5,-177.5 290.5,-177.5 290.5,-147.5 177.5,-147.5"/>
<text text-anchor="start" x="185.5" y="-165.5" font-family="Helvetica,sans-Serif" font-size="10.00" fill="#000000">TooSigning_requested</text>
<text text-anchor="middle" x="234" y="-154.5" font-family="Helvetica,sans-Serif" font-size="10.00" fill="#000000">_noncelist_add</text>
</a>
</g>
</g>
<!-- Node95&#45;&gt;Node116 -->
<g id="edge30" class="edge">
<title>Node95&#45;&gt;Node116</title>
<path fill="none" stroke="#191970" d="M95.1615,-226.4548C122.6101,-213.8108 162.0235,-195.6554 191.8491,-181.9165"/>
<polygon fill="#191970" stroke="#191970" points="193.5501,-184.9864 201.1685,-177.6236 190.6214,-178.6285 193.5501,-184.9864"/>
</g>
<!-- Node120 -->
<g id="node26" class="node">
<title>Node120</title>
<g id="a_node26"><a xlink:href="TooNetworking_8cpp.html#aa8040740e6ffca2f68beb7f8e57d63fc" target="_top" xlink:title="TooNetworking_bufferlist_add">
<polygon fill="#ffffff" stroke="#000000" points="161,-109 161,-128 307,-128 307,-109 161,-109"/>
<text text-anchor="middle" x="234" y="-116" font-family="Helvetica,sans-Serif" font-size="10.00" fill="#000000">TooNetworking_bufferlist_add</text>
</a>
</g>
</g>
<!-- Node95&#45;&gt;Node120 -->
<g id="edge34" class="edge">
<title>Node95&#45;&gt;Node120</title>
<path fill="none" stroke="#191970" d="M72.7369,-226.4365C88.853,-203.8901 122.3198,-161.5584 161,-138.5 165.402,-135.8758 170.157,-133.587 175.0553,-131.5923"/>
<polygon fill="#191970" stroke="#191970" points="176.4038,-134.826 184.5965,-128.108 174.0026,-128.2507 176.4038,-134.826"/>
</g>
<!-- Node122 -->
<g id="node28" class="node">
<title>Node122</title>
<g id="a_node28"><a xlink:href="TooNetworking_8cpp.html#a86fb32acfc42a498be62a3236c778454" target="_top" xlink:title="TooNetworking_send\l_encrypted">
<polygon fill="#ffffff" stroke="#000000" points="179.5,-59.5 179.5,-89.5 288.5,-89.5 288.5,-59.5 179.5,-59.5"/>
<text text-anchor="start" x="187.5" y="-77.5" font-family="Helvetica,sans-Serif" font-size="10.00" fill="#000000">TooNetworking_send</text>
<text text-anchor="middle" x="234" y="-66.5" font-family="Helvetica,sans-Serif" font-size="10.00" fill="#000000">_encrypted</text>
</a>
</g>
</g>
<!-- Node95&#45;&gt;Node122 -->
<g id="edge36" class="edge">
<title>Node95&#45;&gt;Node122</title>
<path fill="none" stroke="#191970" d="M69.0665,-226.2763C82.2769,-197.3925 114.8018,-134.4122 161,-99.5 163.9525,-97.2688 167.1178,-95.228 170.4156,-93.3626"/>
<polygon fill="#191970" stroke="#191970" points="172.0524,-96.4571 179.3996,-88.8237 168.8957,-90.2092 172.0524,-96.4571"/>
</g>
<!-- Node98&#45;&gt;Node97 -->
<g id="edge7" class="edge">
<title>Node98&#45;&gt;Node97</title>
<path fill="none" stroke="#191970" d="M288.405,-354.5562C295.4509,-358.4598 301.9563,-363.3584 307,-369.5 359.6078,-433.5588 287.8065,-490.6551 343,-552.5 344.1648,-553.8052 345.4002,-555.0399 346.6963,-556.2079"/>
<polygon fill="#191970" stroke="#191970" points="344.608,-559.0166 354.7149,-562.1949 348.796,-553.4076 344.608,-559.0166"/>
</g>
<!-- Node99 -->
<g id="node5" class="node">
<title>Node99</title>
<g id="a_node5"><a xlink:href="TooNetworking_8cpp.html#a48504aef69d9ac92e34269a64f7b518b" target="_top" xlink:title="TooNetworking_connection\l_check">
<polygon fill="#ffffff" stroke="#000000" points="530,-270.5 530,-300.5 665,-300.5 665,-270.5 530,-270.5"/>
<text text-anchor="start" x="538" y="-288.5" font-family="Helvetica,sans-Serif" font-size="10.00" fill="#000000">TooNetworking_connection</text>
<text text-anchor="middle" x="597.5" y="-277.5" font-family="Helvetica,sans-Serif" font-size="10.00" fill="#000000">_check</text>
</a>
</g>
</g>
<!-- Node98&#45;&gt;Node99 -->
<g id="edge4" class="edge">
<title>Node98&#45;&gt;Node99</title>
<path fill="none" stroke="#191970" d="M269.151,-324.4982C290.1789,-316.2228 317.6584,-306.6137 343,-301.5 401.4633,-289.7026 468.8742,-285.8909 519.625,-284.9272"/>
<polygon fill="#191970" stroke="#191970" points="519.9246,-288.423 529.8686,-284.7668 519.815,-281.4239 519.9246,-288.423"/>
</g>
<!-- Node101 -->
<g id="node7" class="node">
<title>Node101</title>
<g id="a_node7"><a xlink:href="TooNetworking_8cpp.html#af4808c2c0857cde9a6721ad54f5ab42d" target="_top" xlink:title="TooNetworking_other\l_node_is_online">
<polygon fill="#ffffff" stroke="#000000" points="363.5,-512.5 363.5,-542.5 473.5,-542.5 473.5,-512.5 363.5,-512.5"/>
<text text-anchor="start" x="371.5" y="-530.5" font-family="Helvetica,sans-Serif" font-size="10.00" fill="#000000">TooNetworking_other</text>
<text text-anchor="middle" x="418.5" y="-519.5" font-family="Helvetica,sans-Serif" font-size="10.00" fill="#000000">_node_is_online</text>
</a>
</g>
</g>
<!-- Node98&#45;&gt;Node101 -->
<g id="edge6" class="edge">
<title>Node98&#45;&gt;Node101</title>
<path fill="none" stroke="#191970" d="M287.6669,-354.6725C294.9028,-358.5662 301.6592,-363.4311 307,-369.5 347.7398,-415.794 300.3938,-458.9178 343,-503.5 346.2413,-506.8916 349.9592,-509.8055 353.9691,-512.3088"/>
<polygon fill="#191970" stroke="#191970" points="352.6662,-515.5789 363.1425,-517.159 355.9381,-509.3906 352.6662,-515.5789"/>
</g>
<!-- Node102 -->
<g id="node8" class="node">
<title>Node102</title>
<g id="a_node8"><a xlink:href="TooSigning_8cpp.html#a3994a32f8b2275d51b6832644f703bc7" target="_top" xlink:title="TooSigning_read_hmac\l_from_progmem">
<polygon fill="#ffffff" stroke="#000000" points="359,-463.5 359,-493.5 478,-493.5 478,-463.5 359,-463.5"/>
<text text-anchor="start" x="367" y="-481.5" font-family="Helvetica,sans-Serif" font-size="10.00" fill="#000000">TooSigning_read_hmac</text>
<text text-anchor="middle" x="418.5" y="-470.5" font-family="Helvetica,sans-Serif" font-size="10.00" fill="#000000">_from_progmem</text>
</a>
</g>
</g>
<!-- Node98&#45;&gt;Node102 -->
<g id="edge8" class="edge">
<title>Node98&#45;&gt;Node102</title>
<path fill="none" stroke="#191970" d="M285.4272,-354.6138C293.3067,-358.5487 300.8505,-363.4419 307,-369.5 335.9351,-398.005 313.083,-426.0273 343,-453.5 345.1929,-455.5137 347.552,-457.3656 350.0338,-459.0686"/>
<polygon fill="#191970" stroke="#191970" points="348.4926,-462.2234 358.8812,-464.304 352.0575,-456.1992 348.4926,-462.2234"/>
</g>
<!-- Node103 -->
<g id="node9" class="node">
<title>Node103</title>
<g id="a_node9"><a xlink:href="classSha256Class.html#a73d3dcea6eb667fd146d12aa5d106939" target="_top" xlink:title="Sha256Class::initHmac">
<polygon fill="#ffffff" stroke="#000000" points="358.5,-349 358.5,-368 478.5,-368 478.5,-349 358.5,-349"/>
<text text-anchor="middle" x="418.5" y="-356" font-family="Helvetica,sans-Serif" font-size="10.00" fill="#000000">Sha256Class::initHmac</text>
</a>
</g>
</g>
<!-- Node98&#45;&gt;Node103 -->
<g id="edge9" class="edge">
<title>Node98&#45;&gt;Node103</title>
<path fill="none" stroke="#191970" d="M288.8566,-345.1492C307.4902,-347.0681 328.574,-349.2393 348.2416,-351.2647"/>
<polygon fill="#191970" stroke="#191970" points="348.071,-354.7656 358.377,-352.3085 348.7882,-347.8024 348.071,-354.7656"/>
</g>
<!-- Node111 -->
<g id="node17" class="node">
<title>Node111</title>
<g id="a_node17"><a xlink:href="group__TOOSIGNING__HASHING.html#gafb2935303b05255e80a7a6fa4be7cf57" target="_top" xlink:title="TooSigning_hash_data">
<polygon fill="#ffffff" stroke="#000000" points="360.5,-425 360.5,-444 476.5,-444 476.5,-425 360.5,-425"/>
<text text-anchor="middle" x="418.5" y="-432" font-family="Helvetica,sans-Serif" font-size="10.00" fill="#000000">TooSigning_hash_data</text>
</a>
</g>
</g>
<!-- Node98&#45;&gt;Node111 -->
<g id="edge18" class="edge">
<title>Node98&#45;&gt;Node111</title>
<path fill="none" stroke="#191970" d="M281.1203,-354.6535C290.1772,-358.7017 299.2455,-363.6254 307,-369.5 327.6933,-385.1768 321.2369,-401.3457 343,-415.5 346.1903,-417.5749 349.5921,-419.4232 353.1204,-421.0697"/>
<polygon fill="#191970" stroke="#191970" points="352.1153,-424.4396 362.6966,-424.9737 354.7578,-417.9575 352.1153,-424.4396"/>
</g>
<!-- Node112 -->
<g id="node18" class="node">
<title>Node112</title>
<g id="a_node18"><a xlink:href="group__TOOSIGNING__HASHING.html#gae743dd1289d92f915352e40b047b4cc8" target="_top" xlink:title="TooSigning_hash_store">
<polygon fill="#ffffff" stroke="#000000" points="359,-311 359,-330 478,-330 478,-311 359,-311"/>
<text text-anchor="middle" x="418.5" y="-318" font-family="Helvetica,sans-Serif" font-size="10.00" fill="#000000">TooSigning_hash_store</text>
</a>
</g>
</g>
<!-- Node98&#45;&gt;Node112 -->
<g id="edge20" class="edge">
<title>Node98&#45;&gt;Node112</title>
<path fill="none" stroke="#191970" d="M288.8566,-333.8508C307.5806,-331.9226 328.7787,-329.7396 348.528,-327.7058"/>
<polygon fill="#191970" stroke="#191970" points="349.1138,-331.1641 358.7027,-326.658 348.3967,-324.2009 349.1138,-331.1641"/>
</g>
<!-- Node113 -->
<g id="node19" class="node">
<title>Node113</title>
<g id="a_node19"><a xlink:href="classSha256Class.html#a7556f29cadf7eaca21a537df41318af3" target="_top" xlink:title="Sha256Class::resultHmac">
<polygon fill="#ffffff" stroke="#000000" points="353,-387 353,-406 484,-406 484,-387 353,-387"/>
<text text-anchor="middle" x="418.5" y="-394" font-family="Helvetica,sans-Serif" font-size="10.00" fill="#000000">Sha256Class::resultHmac</text>
</a>
</g>
</g>
<!-- Node98&#45;&gt;Node113 -->
<g id="edge21" class="edge">
<title>Node98&#45;&gt;Node113</title>
<path fill="none" stroke="#191970" d="M274.3533,-354.5295C294.7838,-361.8926 320.0583,-370.6291 343,-377.5 350.9165,-379.871 359.3582,-382.1932 367.6225,-384.3547"/>
<polygon fill="#191970" stroke="#191970" points="367.0122,-387.8113 377.5681,-386.904 368.7504,-381.0305 367.0122,-387.8113"/>
</g>
<!-- Node114 -->
<g id="node20" class="node">
<title>Node114</title>
<g id="a_node20"><a xlink:href="TooNetworking_8cpp.html#a46674b3fdc9ee370b0839869aa145b75" target="_top" xlink:title="TooNetworking_send">
<polygon fill="#ffffff" stroke="#000000" points="543,-194 543,-213 652,-213 652,-194 543,-194"/>
<text text-anchor="middle" x="597.5" y="-201" font-family="Helvetica,sans-Serif" font-size="10.00" fill="#000000">TooNetworking_send</text>
</a>
</g>
</g>
<!-- Node98&#45;&gt;Node114 -->
<g id="edge25" class="edge">
<title>Node98&#45;&gt;Node114</title>
<path fill="none" stroke="#191970" d="M243.1604,-324.3532C259.5544,-298.8032 296.579,-247.7537 343,-225.5 402.7358,-196.8634 479.408,-194.1549 532.9147,-196.8667"/>
<polygon fill="#191970" stroke="#191970" points="532.7737,-200.3643 542.9607,-197.453 533.1817,-193.3762 532.7737,-200.3643"/>
</g>
<!-- Node115 -->
<g id="node21" class="node">
<title>Node115</title>
<g id="a_node21"><a xlink:href="TooNetworking_8cpp.html#aefc5dad88b637efb11a3a7b2f76a19b9" target="_top" xlink:title="TooNetworking_connection_fix">
<polygon fill="#ffffff" stroke="#000000" points="343,-235 343,-254 494,-254 494,-235 343,-235"/>
<text text-anchor="middle" x="418.5" y="-242" font-family="Helvetica,sans-Serif" font-size="10.00" fill="#000000">TooNetworking_connection_fix</text>
</a>
</g>
</g>
<!-- Node98&#45;&gt;Node115 -->
<g id="edge27" class="edge">
<title>Node98&#45;&gt;Node115</title>
<path fill="none" stroke="#191970" d="M253.5331,-324.4393C274.6407,-308.7384 309.7344,-284.265 343,-268.5 352.1352,-264.1707 362.2484,-260.349 372.025,-257.1003"/>
<polygon fill="#191970" stroke="#191970" points="373.1701,-260.409 381.6407,-254.045 371.0503,-253.7376 373.1701,-260.409"/>
</g>
<!-- Node100 -->
<g id="node6" class="node">
<title>Node100</title>
<g id="a_node6"><a xlink:href="TooNetworking_8cpp.html#abdda8f09b9d475ed2c23a2376e2e0151" target="_top" xlink:title="mesh">
<polygon fill="#ffffff" stroke="#000000" points="729,-232 729,-251 770,-251 770,-232 729,-232"/>
<text text-anchor="middle" x="749.5" y="-239" font-family="Helvetica,sans-Serif" font-size="10.00" fill="#000000">mesh</text>
</a>
</g>
</g>
<!-- Node99&#45;&gt;Node100 -->
<g id="edge5" class="edge">
<title>Node99&#45;&gt;Node100</title>
<path fill="none" stroke="#191970" d="M649.3846,-270.4808C672.5274,-263.7816 698.9983,-256.1189 718.9064,-250.3561"/>
<polygon fill="#191970" stroke="#191970" points="720.034,-253.6734 728.6664,-247.5308 718.0875,-246.9495 720.034,-253.6734"/>
</g>
<!-- Node104 -->
<g id="node10" class="node">
<title>Node104</title>
<g id="a_node10"><a xlink:href="classSha256Class.html#ac1025d69c51fcd1b882ee41114e58339" target="_top" xlink:title="Sha256Class::init">
<polygon fill="#ffffff" stroke="#000000" points="550.5,-387 550.5,-406 644.5,-406 644.5,-387 550.5,-387"/>
<text text-anchor="middle" x="597.5" y="-394" font-family="Helvetica,sans-Serif" font-size="10.00" fill="#000000">Sha256Class::init</text>
</a>
</g>
</g>
<!-- Node103&#45;&gt;Node104 -->
<g id="edge10" class="edge">
<title>Node103&#45;&gt;Node104</title>
<path fill="none" stroke="#191970" d="M463.6693,-368.089C487.7159,-373.1939 517.4744,-379.5113 542.8194,-384.8918"/>
<polygon fill="#191970" stroke="#191970" points="542.1467,-388.3269 552.6556,-386.9799 543.6004,-381.4795 542.1467,-388.3269"/>
</g>
<!-- Node105 -->
<g id="node11" class="node">
<title>Node105</title>
<g id="a_node11"><a xlink:href="classSha256Class.html#a0f0fc4bd4d8c53d232df0d41d7ea25e0" target="_top" xlink:title="Sha256Class::write">
<polygon fill="#ffffff" stroke="#000000" points="546.5,-425 546.5,-444 648.5,-444 648.5,-425 546.5,-425"/>
<text text-anchor="middle" x="597.5" y="-432" font-family="Helvetica,sans-Serif" font-size="10.00" fill="#000000">Sha256Class::write</text>
</a>
</g>
</g>
<!-- Node103&#45;&gt;Node105 -->
<g id="edge11" class="edge">
<title>Node103&#45;&gt;Node105</title>
<path fill="none" stroke="#191970" d="M472.384,-368.0395C479.9193,-370.5083 487.3506,-373.6087 494,-377.5 514.0789,-389.2505 510.0867,-403.4711 530,-415.5 533.5755,-417.6598 537.4052,-419.582 541.3567,-421.2915"/>
<polygon fill="#191970" stroke="#191970" points="540.1459,-424.5757 550.7356,-424.9058 542.6631,-418.044 540.1459,-424.5757"/>
</g>
<!-- Node109 -->
<g id="node15" class="node">
<title>Node109</title>
<g id="a_node15"><a xlink:href="classSha256Class.html#a0ca245a22f8b056a3d1902da3c64b705" target="_top" xlink:title="Sha256Class::result">
<polygon fill="#ffffff" stroke="#000000" points="545,-349 545,-368 650,-368 650,-349 545,-349"/>
<text text-anchor="middle" x="597.5" y="-356" font-family="Helvetica,sans-Serif" font-size="10.00" fill="#000000">Sha256Class::result</text>
</a>
</g>
</g>
<!-- Node103&#45;&gt;Node109 -->
<g id="edge15" class="edge">
<title>Node103&#45;&gt;Node109</title>
<path fill="none" stroke="#191970" d="M478.6024,-358.5C496.6004,-358.5 516.3828,-358.5 534.5583,-358.5"/>
<polygon fill="#191970" stroke="#191970" points="534.7576,-362.0001 544.7575,-358.5 534.7575,-355.0001 534.7576,-362.0001"/>
</g>
<!-- Node106 -->
<g id="node12" class="node">
<title>Node106</title>
<g id="a_node12"><a xlink:href="classSha256Class.html#ab0b46743e3d59b1c68f52ed89dfaff50" target="_top" xlink:title="Sha256Class::addUncounted">
<polygon fill="#ffffff" stroke="#000000" points="834,-377 834,-396 978,-396 978,-377 834,-377"/>
<text text-anchor="middle" x="906" y="-384" font-family="Helvetica,sans-Serif" font-size="10.00" fill="#000000">Sha256Class::addUncounted</text>
</a>
</g>
</g>
<!-- Node105&#45;&gt;Node106 -->
<g id="edge12" class="edge">
<title>Node105&#45;&gt;Node106</title>
<path fill="none" stroke="#191970" d="M648.7888,-426.5199C699.6214,-418.6108 777.9091,-406.4299 834.7646,-397.5836"/>
<polygon fill="#191970" stroke="#191970" points="835.4203,-401.0238 844.7633,-396.0279 834.3441,-394.107 835.4203,-401.0238"/>
</g>
<!-- Node107 -->
<g id="node13" class="node">
<title>Node107</title>
<g id="a_node13"><a xlink:href="classSha256Class.html#a399d2a23951e2130f54af8ac7712068f" target="_top" xlink:title="Sha256Class::hashBlock">
<polygon fill="#ffffff" stroke="#000000" points="1014,-377 1014,-396 1141,-396 1141,-377 1014,-377"/>
<text text-anchor="middle" x="1077.5" y="-384" font-family="Helvetica,sans-Serif" font-size="10.00" fill="#000000">Sha256Class::hashBlock</text>
</a>
</g>
</g>
<!-- Node106&#45;&gt;Node107 -->
<g id="edge13" class="edge">
<title>Node106&#45;&gt;Node107</title>
<path fill="none" stroke="#191970" d="M978.2344,-386.5C986.6298,-386.5 995.2026,-386.5 1003.6198,-386.5"/>
<polygon fill="#191970" stroke="#191970" points="1003.7873,-390.0001 1013.7873,-386.5 1003.7873,-383.0001 1003.7873,-390.0001"/>
</g>
<!-- Node108 -->
<g id="node14" class="node">
<title>Node108</title>
<g id="a_node14"><a xlink:href="classSha256Class.html#ae275718ce9813bb33b2d8d8fbf018bd6" target="_top" xlink:title="Sha256Class::ror32">
<polygon fill="#ffffff" stroke="#000000" points="1177,-377 1177,-396 1280,-396 1280,-377 1177,-377"/>
<text text-anchor="middle" x="1228.5" y="-384" font-family="Helvetica,sans-Serif" font-size="10.00" fill="#000000">Sha256Class::ror32</text>
</a>
</g>
</g>
<!-- Node107&#45;&gt;Node108 -->
<g id="edge14" class="edge">
<title>Node107&#45;&gt;Node108</title>
<path fill="none" stroke="#191970" d="M1141.1,-386.5C1149.5806,-386.5 1158.2667,-386.5 1166.7157,-386.5"/>
<polygon fill="#191970" stroke="#191970" points="1166.8743,-390.0001 1176.8743,-386.5 1166.8742,-383.0001 1166.8743,-390.0001"/>
</g>
<!-- Node110 -->
<g id="node16" class="node">
<title>Node110</title>
<g id="a_node16"><a xlink:href="classSha256Class.html#a82049dae520ccf0bd8478f2aef639149" target="_top" xlink:title="Sha256Class::pad">
<polygon fill="#ffffff" stroke="#000000" points="701,-358 701,-377 798,-377 798,-358 701,-358"/>
<text text-anchor="middle" x="749.5" y="-365" font-family="Helvetica,sans-Serif" font-size="10.00" fill="#000000">Sha256Class::pad</text>
</a>
</g>
</g>
<!-- Node109&#45;&gt;Node110 -->
<g id="edge16" class="edge">
<title>Node109&#45;&gt;Node110</title>
<path fill="none" stroke="#191970" d="M650.2356,-361.6225C663.3546,-362.3993 677.497,-363.2367 690.8798,-364.0291"/>
<polygon fill="#191970" stroke="#191970" points="690.7466,-367.5272 700.936,-364.6245 691.1604,-360.5395 690.7466,-367.5272"/>
</g>
<!-- Node110&#45;&gt;Node106 -->
<g id="edge17" class="edge">
<title>Node110&#45;&gt;Node106</title>
<path fill="none" stroke="#191970" d="M798.1597,-373.4076C806.3741,-374.4048 815.0986,-375.464 823.8883,-376.5312"/>
<polygon fill="#191970" stroke="#191970" points="823.4671,-380.0056 833.8161,-377.7365 824.3108,-373.0567 823.4671,-380.0056"/>
</g>
<!-- Node111&#45;&gt;Node105 -->
<g id="edge19" class="edge">
<title>Node111&#45;&gt;Node105</title>
<path fill="none" stroke="#191970" d="M476.6162,-434.5C495.6532,-434.5 516.8592,-434.5 536.1288,-434.5"/>
<polygon fill="#191970" stroke="#191970" points="536.3069,-438.0001 546.3069,-434.5 536.3068,-431.0001 536.3069,-438.0001"/>
</g>
<!-- Node113&#45;&gt;Node104 -->
<g id="edge23" class="edge">
<title>Node113&#45;&gt;Node104</title>
<path fill="none" stroke="#191970" d="M484.1366,-396.5C502.4864,-396.5 522.2801,-396.5 540.1128,-396.5"/>
<polygon fill="#191970" stroke="#191970" points="540.3602,-400.0001 550.3601,-396.5 540.3601,-393.0001 540.3602,-400.0001"/>
</g>
<!-- Node113&#45;&gt;Node105 -->
<g id="edge24" class="edge">
<title>Node113&#45;&gt;Node105</title>
<path fill="none" stroke="#191970" d="M463.6693,-406.089C487.7159,-411.1939 517.4744,-417.5113 542.8194,-422.8918"/>
<polygon fill="#191970" stroke="#191970" points="542.1467,-426.3269 552.6556,-424.9799 543.6004,-419.4795 542.1467,-426.3269"/>
</g>
<!-- Node113&#45;&gt;Node109 -->
<g id="edge22" class="edge">
<title>Node113&#45;&gt;Node109</title>
<path fill="none" stroke="#191970" d="M463.6693,-386.911C487.7159,-381.8061 517.4744,-375.4887 542.8194,-370.1082"/>
<polygon fill="#191970" stroke="#191970" points="543.6004,-373.5205 552.6556,-368.0201 542.1467,-366.6731 543.6004,-373.5205"/>
</g>
<!-- Node114&#45;&gt;Node100 -->
<g id="edge26" class="edge">
<title>Node114&#45;&gt;Node100</title>
<path fill="none" stroke="#191970" d="M635.856,-213.089C661.5969,-219.5242 695.0457,-227.8864 718.9779,-233.8695"/>
<polygon fill="#191970" stroke="#191970" points="718.3712,-237.3255 728.9216,-236.3554 720.069,-230.5345 718.3712,-237.3255"/>
</g>
<!-- Node115&#45;&gt;Node99 -->
<g id="edge28" class="edge">
<title>Node115&#45;&gt;Node99</title>
<path fill="none" stroke="#191970" d="M460.0161,-254.0093C478.3827,-258.2161 500.5769,-263.2997 521.724,-268.1435"/>
<polygon fill="#191970" stroke="#191970" points="521.144,-271.6012 531.6731,-270.4223 522.707,-264.7779 521.144,-271.6012"/>
</g>
<!-- Node115&#45;&gt;Node100 -->
<g id="edge29" class="edge">
<title>Node115&#45;&gt;Node100</title>
<path fill="none" stroke="#191970" d="M494.0232,-243.8155C565.0982,-243.1713 667.9825,-242.2388 718.7689,-241.7785"/>
<polygon fill="#191970" stroke="#191970" points="718.8173,-245.2783 728.7852,-241.6877 718.7538,-238.2786 718.8173,-245.2783"/>
</g>
<!-- Node117 -->
<g id="node23" class="node">
<title>Node117</title>
<g id="a_node23"><a xlink:href="group__TOOSIGNING__INITIALIZE.html#gafd247c5271ff63bfcde14ef94060002d" target="_top" xlink:title="TooSigning_requested\l_noncelist_initialize">
<polygon fill="#ffffff" stroke="#000000" points="362,-147.5 362,-177.5 475,-177.5 475,-147.5 362,-147.5"/>
<text text-anchor="start" x="370" y="-165.5" font-family="Helvetica,sans-Serif" font-size="10.00" fill="#000000">TooSigning_requested</text>
<text text-anchor="middle" x="418.5" y="-154.5" font-family="Helvetica,sans-Serif" font-size="10.00" fill="#000000">_noncelist_initialize</text>
</a>
</g>
</g>
<!-- Node116&#45;&gt;Node117 -->
<g id="edge31" class="edge">
<title>Node116&#45;&gt;Node117</title>
<path fill="none" stroke="#191970" d="M290.6099,-162.5C310.002,-162.5 331.877,-162.5 351.9801,-162.5"/>
<polygon fill="#191970" stroke="#191970" points="351.9972,-166.0001 361.9971,-162.5 351.9971,-159.0001 351.9972,-166.0001"/>
</g>
<!-- Node118 -->
<g id="node24" class="node">
<title>Node118</title>
<g id="a_node24"><a xlink:href="TooSigning_8cpp.html#a74e394128707e55045381d7c9ab6f6fd" target="_top" xlink:title="TooSigning_requested\l_noncelist_find_for_nodeID">
<polygon fill="#ffffff" stroke="#000000" points="351,-98.5 351,-128.5 486,-128.5 486,-98.5 351,-98.5"/>
<text text-anchor="start" x="359" y="-116.5" font-family="Helvetica,sans-Serif" font-size="10.00" fill="#000000">TooSigning_requested</text>
<text text-anchor="middle" x="418.5" y="-105.5" font-family="Helvetica,sans-Serif" font-size="10.00" fill="#000000">_noncelist_find_for_nodeID</text>
</a>
</g>
</g>
<!-- Node116&#45;&gt;Node118 -->
<g id="edge32" class="edge">
<title>Node116&#45;&gt;Node118</title>
<path fill="none" stroke="#191970" d="M290.6099,-147.4654C310.0906,-142.2917 332.0768,-136.4525 352.2554,-131.0934"/>
<polygon fill="#191970" stroke="#191970" points="353.2306,-134.4558 361.9971,-128.5062 351.4337,-127.6904 353.2306,-134.4558"/>
</g>
<!-- Node119 -->
<g id="node25" class="node">
<title>Node119</title>
<g id="a_node25"><a xlink:href="group__TOOSIGNING__DEBUGGING.html#gabb54a5e4968d69e35d665869d5c6588f" target="_top" xlink:title="TooSigning_requested\l_noncelist_print">
<polygon fill="#ffffff" stroke="#000000" points="362,-49.5 362,-79.5 475,-79.5 475,-49.5 362,-49.5"/>
<text text-anchor="start" x="370" y="-67.5" font-family="Helvetica,sans-Serif" font-size="10.00" fill="#000000">TooSigning_requested</text>
<text text-anchor="middle" x="418.5" y="-56.5" font-family="Helvetica,sans-Serif" font-size="10.00" fill="#000000">_noncelist_print</text>
</a>
</g>
</g>
<!-- Node116&#45;&gt;Node119 -->
<g id="edge33" class="edge">
<title>Node116&#45;&gt;Node119</title>
<path fill="none" stroke="#191970" d="M289.5863,-147.4682C295.7394,-144.6581 301.6907,-141.3599 307,-137.5 328.569,-121.8192 321.3514,-105.0708 343,-89.5 346.037,-87.3156 349.2769,-85.3136 352.6426,-83.4798"/>
<polygon fill="#191970" stroke="#191970" points="354.3448,-86.5436 361.793,-79.0087 351.2717,-80.2542 354.3448,-86.5436"/>
</g>
<!-- Node121 -->
<g id="node27" class="node">
<title>Node121</title>
<g id="a_node27"><a xlink:href="TooNetworking_8cpp.html#aa8a4e879d4d71fed2a8940cf93b75ae4" target="_top" xlink:title="TooNetworking_bufferlist\l_initialize">
<polygon fill="#ffffff" stroke="#000000" points="356,-.5 356,-30.5 481,-30.5 481,-.5 356,-.5"/>
<text text-anchor="start" x="364" y="-18.5" font-family="Helvetica,sans-Serif" font-size="10.00" fill="#000000">TooNetworking_bufferlist</text>
<text text-anchor="middle" x="418.5" y="-7.5" font-family="Helvetica,sans-Serif" font-size="10.00" fill="#000000">_initialize</text>
</a>
</g>
</g>
<!-- Node120&#45;&gt;Node121 -->
<g id="edge35" class="edge">
<title>Node120&#45;&gt;Node121</title>
<path fill="none" stroke="#191970" d="M289.9235,-108.8637C296.0174,-106.4142 301.8626,-103.345 307,-99.5 331.8974,-80.8659 318.6066,-58.7892 343,-39.5 344.6183,-38.2203 346.3061,-37.0082 348.0498,-35.8602"/>
<polygon fill="#191970" stroke="#191970" points="350.2318,-38.644 357.1704,-30.6372 346.7532,-32.5695 350.2318,-38.644"/>
</g>
</g>
</svg>
        <g id="navigator" transform="translate(0 0)" fill="#404254">
                <rect fill="#f2f5e9" fill-opacity="0.5" stroke="#606060" stroke-width=".5" x="0" y="0" width="60" height="60"/>
                <use id="zoomplus" xlink:href="#zoomPlus" x="17" y="9" onmousedown="handleZoom(evt,'in')"/>
                <use id="zoomminus" xlink:href="#zoomMin" x="42" y="9" onmousedown="handleZoom(evt,'out')"/>
                <use id="reset" xlink:href="#resetDef" x="30" y="36" onmousedown="handleReset()"/>
                <g id="arrowUp" xlink:href="#dirArrow" transform="translate(30 24)" onmousedown="handlePan(0,-1)">
                  <use xlink:href="#rim" fill="#404040">
                        <set attributeName="fill" to="#808080" begin="arrowUp.mouseover" end="arrowUp.mouseout"/>
                  </use>
                  <path fill="none" stroke="white" stroke-width="1.5" d="M0,-3.0v7 M-2.5,-0.5L0,-3.0L2.5,-0.5"/>
                </g>
                <g id="arrowRight" xlink:href="#dirArrow" transform="rotate(90) translate(36 -43)" onmousedown="handlePan(1,0)">
                  <use xlink:href="#rim" fill="#404040">
                        <set attributeName="fill" to="#808080" begin="arrowRight.mouseover" end="arrowRight.mouseout"/>
                  </use>
                  <path fill="none" stroke="white" stroke-width="1.5" d="M0,-3.0v7 M-2.5,-0.5L0,-3.0L2.5,-0.5"/>
                </g>
                <g id="arrowDown" xlink:href="#dirArrow" transform="rotate(180) translate(-30 -48)" onmousedown="handlePan(0,1)">
                  <use xlink:href="#rim" fill="#404040">
                        <set attributeName="fill" to="#808080" begin="arrowDown.mouseover" end="arrowDown.mouseout"/>
                  </use>
                  <path fill="none" stroke="white" stroke-width="1.5" d="M0,-3.0v7 M-2.5,-0.5L0,-3.0L2.5,-0.5"/>
                </g>
                <g id="arrowLeft" xlink:href="#dirArrow" transform="rotate(270) translate(-36 17)" onmousedown="handlePan(-1,0)">
                  <use xlink:href="#rim" fill="#404040">
                        <set attributeName="fill" to="#808080" begin="arrowLeft.mouseover" end="arrowLeft.mouseout"/>
                  </use>
                  <path fill="none" stroke="white" stroke-width="1.5" d="M0,-3.0v7 M-2.5,-0.5L0,-3.0L2.5,-0.5"/>
                </g>
        </g>
        <svg viewBox="0 0 15 15" width="100%" height="30px" preserveAspectRatio="xMaxYMin meet">
         <g id="arrow_out" transform="scale(0.3 0.3)">
          <a xlink:href="TooNetworking_8cpp_a085ff748b00f6be4ebafcae2bb0dded1_cgraph_org.svg" target="_base">
           <rect id="button" ry="5" rx="5" y="6" x="6" height="38" width="38"
                fill="#f2f5e9" fill-opacity="0.5" stroke="#606060" stroke-width="1.0"/>
           <path id="arrow"
             d="M 11.500037,31.436501 C 11.940474,20.09759 22.043105,11.32322 32.158766,21.979434 L 37.068811,17.246167 C 37.068811,17.246167 37.088388,32 37.088388,32 L 22.160133,31.978069 C 22.160133,31.978069 26.997745,27.140456 26.997745,27.140456 C 18.528582,18.264221 13.291696,25.230495 11.500037,31.436501 z"
             style="fill:#404040;"/>
          </a>
         </g>
        </svg>
</svg>
