<?xml version="1.0" encoding="UTF-8" standalone="no"?>
<!DOCTYPE svg PUBLIC "-//W3C//DTD SVG 1.1//EN"
 "http://www.w3.org/Graphics/SVG/1.1/DTD/svg11.dtd">
<!-- Generated by graphviz version 2.40.1 (20161225.0304)
 -->
<!-- Title: TooNetworking_bufferlist_send_ Pages: 1 -->
<svg width="381pt" height="176pt"
 viewBox="0.00 0.00 381.00 176.00" xmlns="http://www.w3.org/2000/svg" xmlns:xlink="http://www.w3.org/1999/xlink">
<g id="graph0" class="graph" transform="scale(1 1) rotate(0) translate(4 172)">
<title>TooNetworking_bufferlist_send_</title>
<polygon fill="#ffffff" stroke="transparent" points="-4,4 -4,-172 377,-172 377,4 -4,4"/>
<!-- Node57 -->
<g id="node1" class="node">
<title>Node57</title>
<polygon fill="#bfbfbf" stroke="#000000" points="0,-66.5 0,-96.5 125,-96.5 125,-66.5 0,-66.5"/>
<text text-anchor="start" x="8" y="-84.5" font-family="Helvetica,sans-Serif" font-size="10.00" fill="#000000">TooNetworking_bufferlist</text>
<text text-anchor="middle" x="62.5" y="-73.5" font-family="Helvetica,sans-Serif" font-size="10.00" fill="#000000">_send_</text>
</g>
<!-- Node58 -->
<g id="node2" class="node">
<title>Node58</title>
<g id="a_node2"><a xlink:href="TooNetworking_8cpp.html#ac352268e177fa2ddf91c8afa5cd04bbf" target="_top" xlink:title="TooNetworking_connection\l_available">
<polygon fill="#ffffff" stroke="#000000" points="161,-137.5 161,-167.5 296,-167.5 296,-137.5 161,-137.5"/>
<text text-anchor="start" x="169" y="-155.5" font-family="Helvetica,sans-Serif" font-size="10.00" fill="#000000">TooNetworking_connection</text>
<text text-anchor="middle" x="228.5" y="-144.5" font-family="Helvetica,sans-Serif" font-size="10.00" fill="#000000">_available</text>
</a>
</g>
</g>
<!-- Node57&#45;&gt;Node58 -->
<g id="edge1" class="edge">
<title>Node57&#45;&gt;Node58</title>
<path fill="none" stroke="#191970" d="M91.88,-96.5023C111.2747,-106.1603 137.3747,-118.6944 161,-128.5 165.3652,-130.3118 169.9217,-132.1145 174.5166,-133.8709"/>
<polygon fill="#191970" stroke="#191970" points="173.3607,-137.1753 183.9532,-137.3992 175.8123,-130.6186 173.3607,-137.1753"/>
</g>
<!-- Node60 -->
<g id="node4" class="node">
<title>Node60</title>
<g id="a_node4"><a xlink:href="TooNetworking_8cpp.html#af4808c2c0857cde9a6721ad54f5ab42d" target="_top" xlink:title="TooNetworking_other\l_node_is_online">
<polygon fill="#ffffff" stroke="#000000" points="173.5,-88.5 173.5,-118.5 283.5,-118.5 283.5,-88.5 173.5,-88.5"/>
<text text-anchor="start" x="181.5" y="-106.5" font-family="Helvetica,sans-Serif" font-size="10.00" fill="#000000">TooNetworking_other</text>
<text text-anchor="middle" x="228.5" y="-95.5" font-family="Helvetica,sans-Serif" font-size="10.00" fill="#000000">_node_is_online</text>
</a>
</g>
</g>
<!-- Node57&#45;&gt;Node60 -->
<g id="edge3" class="edge">
<title>Node57&#45;&gt;Node60</title>
<path fill="none" stroke="#191970" d="M125.2575,-89.8173C137.5949,-91.4523 150.5677,-93.1716 162.9927,-94.8183"/>
<polygon fill="#191970" stroke="#191970" points="162.9017,-98.3368 173.2749,-96.181 163.8214,-91.3974 162.9017,-98.3368"/>
</g>
<!-- Node61 -->
<g id="node5" class="node">
<title>Node61</title>
<g id="a_node5"><a xlink:href="TooNetworking_8cpp.html#a46674b3fdc9ee370b0839869aa145b75" target="_top" xlink:title="TooNetworking_send">
<polygon fill="#ffffff" stroke="#000000" points="174,-50 174,-69 283,-69 283,-50 174,-50"/>
<text text-anchor="middle" x="228.5" y="-57" font-family="Helvetica,sans-Serif" font-size="10.00" fill="#000000">TooNetworking_send</text>
</a>
</g>
</g>
<!-- Node57&#45;&gt;Node61 -->
<g id="edge4" class="edge">
<title>Node57&#45;&gt;Node61</title>
<path fill="none" stroke="#191970" d="M125.2575,-73.1827C137.8631,-71.5121 151.1322,-69.7536 163.8024,-68.0744"/>
<polygon fill="#191970" stroke="#191970" points="164.3578,-71.5315 173.8112,-66.7479 163.438,-64.5921 164.3578,-71.5315"/>
</g>
<!-- Node62 -->
<g id="node6" class="node">
<title>Node62</title>
<g id="a_node6"><a xlink:href="TooNetworking_8cpp.html#a3c91b7ab2f6500c287ecc7ab4a018ef6" target="_top" xlink:title="TooNetworking_bufferlist\l_remove">
<polygon fill="#ffffff" stroke="#000000" points="166,-.5 166,-30.5 291,-30.5 291,-.5 166,-.5"/>
<text text-anchor="start" x="174" y="-18.5" font-family="Helvetica,sans-Serif" font-size="10.00" fill="#000000">TooNetworking_bufferlist</text>
<text text-anchor="middle" x="228.5" y="-7.5" font-family="Helvetica,sans-Serif" font-size="10.00" fill="#000000">_remove</text>
</a>
</g>
</g>
<!-- Node57&#45;&gt;Node62 -->
<g id="edge6" class="edge">
<title>Node57&#45;&gt;Node62</title>
<path fill="none" stroke="#191970" d="M97.9235,-66.3556C116.6124,-58.4671 139.9688,-48.768 161,-40.5 166.3644,-38.3911 171.9871,-36.2305 177.6007,-34.1054"/>
<polygon fill="#191970" stroke="#191970" points="178.8617,-37.3706 186.9924,-30.5778 176.4003,-30.8176 178.8617,-37.3706"/>
</g>
<!-- Node59 -->
<g id="node3" class="node">
<title>Node59</title>
<g id="a_node3"><a xlink:href="TooNetworking_8cpp.html#abdda8f09b9d475ed2c23a2376e2e0151" target="_top" xlink:title="mesh">
<polygon fill="#ffffff" stroke="#000000" points="332,-96 332,-115 373,-115 373,-96 332,-96"/>
<text text-anchor="middle" x="352.5" y="-103" font-family="Helvetica,sans-Serif" font-size="10.00" fill="#000000">mesh</text>
</a>
</g>
</g>
<!-- Node58&#45;&gt;Node59 -->
<g id="edge2" class="edge">
<title>Node58&#45;&gt;Node59</title>
<path fill="none" stroke="#191970" d="M271.8167,-137.4237C279.8788,-134.5257 288.2132,-131.4675 296,-128.5 304.7003,-125.1844 314.0882,-121.4335 322.6654,-117.9374"/>
<polygon fill="#191970" stroke="#191970" points="324.004,-121.1714 331.925,-114.1352 321.345,-114.6961 324.004,-121.1714"/>
</g>
<!-- Node61&#45;&gt;Node59 -->
<g id="edge5" class="edge">
<title>Node61&#45;&gt;Node59</title>
<path fill="none" stroke="#191970" d="M264.1988,-69.041C274.5575,-72.0875 285.8182,-75.6714 296,-79.5 305.352,-83.0166 315.325,-87.3879 324.2482,-91.5365"/>
<polygon fill="#191970" stroke="#191970" points="322.905,-94.7732 333.4397,-95.8999 325.9069,-88.4495 322.905,-94.7732"/>
</g>
</g>
</svg>
