<?xml version="1.0" encoding="UTF-8" standalone="no"?>
<!DOCTYPE svg PUBLIC "-//W3C//DTD SVG 1.1//EN"
 "http://www.w3.org/Graphics/SVG/1.1/DTD/svg11.dtd">
<!-- Generated by graphviz version 2.40.1 (20161225.0304)
 -->
<!-- Title: TooNetworking_send Pages: 1 -->
<svg width="837pt" height="154pt"
 viewBox="0.00 0.00 837.00 154.00" xmlns="http://www.w3.org/2000/svg" xmlns:xlink="http://www.w3.org/1999/xlink">
<g id="graph0" class="graph" transform="scale(1 1) rotate(0) translate(4 150)">
<title>TooNetworking_send</title>
<polygon fill="#ffffff" stroke="transparent" points="-4,4 -4,-150 833,-150 833,4 -4,4"/>
<!-- Node188 -->
<g id="node1" class="node">
<title>Node188</title>
<polygon fill="#bfbfbf" stroke="#000000" points="0,-30 0,-49 109,-49 109,-30 0,-30"/>
<text text-anchor="middle" x="54.5" y="-37" font-family="Helvetica,sans-Serif" font-size="10.00" fill="#000000">TooNetworking_send</text>
</g>
<!-- Node189 -->
<g id="node2" class="node">
<title>Node189</title>
<g id="a_node2"><a xlink:href="TooNetworking_8h.html#a0ad03a7efb42cf40ca3e20fb5df3a5db" target="_top" xlink:title="TooNetworking_bufferlist\l_send_">
<polygon fill="#ffffff" stroke="#000000" points="145,-49.5 145,-79.5 270,-79.5 270,-49.5 145,-49.5"/>
<text text-anchor="start" x="153" y="-67.5" font-family="Helvetica,sans-Serif" font-size="10.00" fill="#000000">TooNetworking_bufferlist</text>
<text text-anchor="middle" x="207.5" y="-56.5" font-family="Helvetica,sans-Serif" font-size="10.00" fill="#000000">_send_</text>
</a>
</g>
</g>
<!-- Node188&#45;&gt;Node189 -->
<g id="edge1" class="edge">
<title>Node188&#45;&gt;Node189</title>
<path fill="none" stroke="#191970" d="M119.4187,-50.1076C127.811,-51.4789 136.3936,-52.8813 144.7499,-54.2467"/>
<polygon fill="#191970" stroke="#191970" points="119.7379,-46.6135 109.3044,-48.455 118.609,-53.5218 119.7379,-46.6135"/>
</g>
<!-- Node195 -->
<g id="node8" class="node">
<title>Node195</title>
<g id="a_node8"><a xlink:href="TooNetworking_8h.html#ab5dfe46515ee5ca8f9893675df673d96" target="_top" xlink:title="TooNetworking_send\l_signed">
<polygon fill="#ffffff" stroke="#000000" points="153,-.5 153,-30.5 262,-30.5 262,-.5 153,-.5"/>
<text text-anchor="start" x="161" y="-18.5" font-family="Helvetica,sans-Serif" font-size="10.00" fill="#000000">TooNetworking_send</text>
<text text-anchor="middle" x="207.5" y="-7.5" font-family="Helvetica,sans-Serif" font-size="10.00" fill="#000000">_signed</text>
</a>
</g>
</g>
<!-- Node188&#45;&gt;Node195 -->
<g id="edge11" class="edge">
<title>Node188&#45;&gt;Node195</title>
<path fill="none" stroke="#191970" d="M119.4022,-29.3193C130.5305,-27.5736 141.9941,-25.7754 152.8213,-24.0771"/>
<polygon fill="#191970" stroke="#191970" points="118.6411,-25.8958 109.3044,-30.9032 119.726,-32.8112 118.6411,-25.8958"/>
</g>
<!-- Node190 -->
<g id="node3" class="node">
<title>Node190</title>
<g id="a_node3"><a xlink:href="TooNetworking_8h.html#a59be7e774988f57ab43c4c078c570c67" target="_top" xlink:title="TooNetworking_bufferlist_add">
<polygon fill="#ffffff" stroke="#000000" points="306,-77 306,-96 452,-96 452,-77 306,-77"/>
<text text-anchor="middle" x="379" y="-84" font-family="Helvetica,sans-Serif" font-size="10.00" fill="#000000">TooNetworking_bufferlist_add</text>
</a>
</g>
</g>
<!-- Node189&#45;&gt;Node190 -->
<g id="edge2" class="edge">
<title>Node189&#45;&gt;Node190</title>
<path fill="none" stroke="#191970" d="M280.5451,-73.8702C288.9597,-74.9496 297.5412,-76.0505 305.9558,-77.1299"/>
<polygon fill="#191970" stroke="#191970" points="280.7505,-70.368 270.3864,-72.5671 279.8598,-77.3111 280.7505,-70.368"/>
</g>
<!-- Node194 -->
<g id="node7" class="node">
<title>Node194</title>
<g id="a_node7"><a xlink:href="TooNetworking_8h.html#ab58e06e0eb6f2f8ecbebeaf3c173fb22" target="_top" xlink:title="TooNetworking_bufferlist\l_send_all">
<polygon fill="#ffffff" stroke="#000000" points="633,-49.5 633,-79.5 758,-79.5 758,-49.5 633,-49.5"/>
<text text-anchor="start" x="641" y="-67.5" font-family="Helvetica,sans-Serif" font-size="10.00" fill="#000000">TooNetworking_bufferlist</text>
<text text-anchor="middle" x="695.5" y="-56.5" font-family="Helvetica,sans-Serif" font-size="10.00" fill="#000000">_send_all</text>
</a>
</g>
</g>
<!-- Node189&#45;&gt;Node194 -->
<g id="edge10" class="edge">
<title>Node189&#45;&gt;Node194</title>
<path fill="none" stroke="#191970" d="M280.4768,-62.9402C358.7429,-61.5006 486.6689,-59.8202 597,-61.5 608.6325,-61.6771 621.0351,-61.9718 632.9779,-62.3091"/>
<polygon fill="#191970" stroke="#191970" points="280.1738,-59.4451 270.2412,-63.1323 280.3052,-66.4439 280.1738,-59.4451"/>
</g>
<!-- Node191 -->
<g id="node4" class="node">
<title>Node191</title>
<g id="a_node4"><a xlink:href="TooNetworking_8h.html#a9209f3e1a2fdf0b3b88d49105b8fc359" target="_top" xlink:title="TooNetworking_send\l_signed">
<polygon fill="#ffffff" stroke="#000000" points="488,-71.5 488,-101.5 597,-101.5 597,-71.5 488,-71.5"/>
<text text-anchor="start" x="496" y="-89.5" font-family="Helvetica,sans-Serif" font-size="10.00" fill="#000000">TooNetworking_send</text>
<text text-anchor="middle" x="542.5" y="-78.5" font-family="Helvetica,sans-Serif" font-size="10.00" fill="#000000">_signed</text>
</a>
</g>
</g>
<!-- Node190&#45;&gt;Node191 -->
<g id="edge3" class="edge">
<title>Node190&#45;&gt;Node191</title>
<path fill="none" stroke="#191970" d="M462.2213,-79.751C470.8182,-79.7623 479.3934,-79.8732 487.5665,-80.0837"/>
<polygon fill="#191970" stroke="#191970" points="462.1308,-76.2511 452.1421,-79.7834 462.1534,-83.2511 462.1308,-76.2511"/>
</g>
<!-- Node192 -->
<g id="node5" class="node">
<title>Node192</title>
<g id="a_node5"><a xlink:href="TooNetworking_8h.html#a085ff748b00f6be4ebafcae2bb0dded1" target="_top" xlink:title="TooNetworking_bufferlist\l_send_signed">
<polygon fill="#ffffff" stroke="#000000" points="633,-115.5 633,-145.5 758,-145.5 758,-115.5 633,-115.5"/>
<text text-anchor="start" x="641" y="-133.5" font-family="Helvetica,sans-Serif" font-size="10.00" fill="#000000">TooNetworking_bufferlist</text>
<text text-anchor="middle" x="695.5" y="-122.5" font-family="Helvetica,sans-Serif" font-size="10.00" fill="#000000">_send_signed</text>
</a>
</g>
</g>
<!-- Node190&#45;&gt;Node192 -->
<g id="edge9" class="edge">
<title>Node190&#45;&gt;Node192</title>
<path fill="none" stroke="#191970" d="M406.4501,-100.6335C427.9903,-110.8991 459.0711,-123.9278 488,-129.5 535.9324,-138.7326 591.2561,-138.4717 632.7181,-136.1806"/>
<polygon fill="#191970" stroke="#191970" points="407.7882,-97.3919 397.2666,-96.148 404.716,-103.6818 407.7882,-97.3919"/>
</g>
<!-- Node191&#45;&gt;Node190 -->
<g id="edge4" class="edge">
<title>Node191&#45;&gt;Node190</title>
<path fill="none" stroke="#191970" d="M477.5351,-93.1219C469.1918,-93.2509 460.6048,-93.2825 452.1421,-93.2166"/>
<polygon fill="#191970" stroke="#191970" points="477.6403,-96.6206 487.5665,-92.9163 477.4968,-89.6221 477.6403,-96.6206"/>
</g>
<!-- Node191&#45;&gt;Node191 -->
<g id="edge5" class="edge">
<title>Node191&#45;&gt;Node191</title>
<path fill="none" stroke="#191970" d="M515.4914,-111.9579C518.8436,-116.679 527.8464,-120 542.5,-120 566.5469,-120 575.3766,-111.0566 568.9891,-101.659"/>
<polygon fill="#191970" stroke="#191970" points="519.0026,-111.8226 516.0109,-101.659 512.0115,-111.47 519.0026,-111.8226"/>
</g>
<!-- Node191&#45;&gt;Node192 -->
<g id="edge6" class="edge">
<title>Node191&#45;&gt;Node192</title>
<path fill="none" stroke="#191970" d="M604.4364,-104.3118C617.3136,-108.015 630.7624,-111.8827 643.2498,-115.4738"/>
<polygon fill="#191970" stroke="#191970" points="605.3038,-100.9194 594.726,-101.5192 603.3691,-107.6468 605.3038,-100.9194"/>
</g>
<!-- Node191&#45;&gt;Node194 -->
<g id="edge8" class="edge">
<title>Node191&#45;&gt;Node194</title>
<path fill="none" stroke="#191970" d="M607.4187,-77.1653C615.811,-75.9586 624.3936,-74.7244 632.7499,-73.5229"/>
<polygon fill="#191970" stroke="#191970" points="606.7044,-73.7319 597.3044,-78.6196 607.7007,-80.6606 606.7044,-73.7319"/>
</g>
<!-- Node193 -->
<g id="node6" class="node">
<title>Node193</title>
<g id="a_node6"><a xlink:href="NODE__SKETCH__TooAutomation__Node_8ino_8cpp.html#a0b33edabd7f1c4e4a0bf32c67269be2f" target="_top" xlink:title="loop">
<polygon fill="#ffffff" stroke="#000000" points="794,-121 794,-140 829,-140 829,-121 794,-121"/>
<text text-anchor="middle" x="811.5" y="-128" font-family="Helvetica,sans-Serif" font-size="10.00" fill="#000000">loop</text>
</a>
</g>
</g>
<!-- Node192&#45;&gt;Node193 -->
<g id="edge7" class="edge">
<title>Node192&#45;&gt;Node193</title>
<path fill="none" stroke="#191970" d="M768.5149,-130.5C777.8175,-130.5 786.5667,-130.5 793.7123,-130.5"/>
<polygon fill="#191970" stroke="#191970" points="768.2531,-127.0001 758.2531,-130.5 768.253,-134.0001 768.2531,-127.0001"/>
</g>
</g>
</svg>
