<?xml version="1.0" encoding="UTF-8" standalone="no"?>
<!DOCTYPE svg PUBLIC "-//W3C//DTD SVG 1.1//EN"
 "http://www.w3.org/Graphics/SVG/1.1/DTD/svg11.dtd">
<!-- Generated by graphviz version 2.40.1 (20161225.0304)
 -->
<!-- Title: TooNetworking_bufferlist_send_all Pages: 1 -->
<svg width="887pt" height="348pt"
 viewBox="0.00 0.00 887.00 348.00" xmlns="http://www.w3.org/2000/svg" xmlns:xlink="http://www.w3.org/1999/xlink">
<g id="graph0" class="graph" transform="scale(1 1) rotate(0) translate(4 344)">
<title>TooNetworking_bufferlist_send_all</title>
<polygon fill="#ffffff" stroke="transparent" points="-4,4 -4,-344 883,-344 883,4 -4,4"/>
<!-- Node57 -->
<g id="node1" class="node">
<title>Node57</title>
<polygon fill="#bfbfbf" stroke="#000000" points="0,-208.5 0,-238.5 125,-238.5 125,-208.5 0,-208.5"/>
<text text-anchor="start" x="8" y="-226.5" font-family="Helvetica,sans-Serif" font-size="10.00" fill="#000000">TooNetworking_bufferlist</text>
<text text-anchor="middle" x="62.5" y="-215.5" font-family="Helvetica,sans-Serif" font-size="10.00" fill="#000000">_send_all</text>
</g>
<!-- Node58 -->
<g id="node2" class="node">
<title>Node58</title>
<g id="a_node2"><a xlink:href="group__TOONETWORKING__SIMPLE__BUFFER.html#ga2b5485b317146ce7c14bbad26172d796" target="_top" xlink:title="TooNetworking_bufferlist\l_print">
<polygon fill="#ffffff" stroke="#000000" points="161,-309.5 161,-339.5 286,-339.5 286,-309.5 161,-309.5"/>
<text text-anchor="start" x="169" y="-327.5" font-family="Helvetica,sans-Serif" font-size="10.00" fill="#000000">TooNetworking_bufferlist</text>
<text text-anchor="middle" x="223.5" y="-316.5" font-family="Helvetica,sans-Serif" font-size="10.00" fill="#000000">_print</text>
</a>
</g>
</g>
<!-- Node57&#45;&gt;Node58 -->
<g id="edge1" class="edge">
<title>Node57&#45;&gt;Node58</title>
<path fill="none" stroke="#191970" d="M81.4327,-238.6975C100.7753,-253.846 132.0025,-277.2738 161,-294.5 166.9791,-298.0519 173.4431,-301.5288 179.8686,-304.7835"/>
<polygon fill="#191970" stroke="#191970" points="178.6766,-308.0978 189.1941,-309.376 181.7692,-301.818 178.6766,-308.0978"/>
</g>
<!-- Node59 -->
<g id="node3" class="node">
<title>Node59</title>
<g id="a_node3"><a xlink:href="TooNetworking_8cpp.html#a0ad03a7efb42cf40ca3e20fb5df3a5db" target="_top" xlink:title="TooNetworking_bufferlist\l_send_">
<polygon fill="#ffffff" stroke="#000000" points="505,-218.5 505,-248.5 630,-248.5 630,-218.5 505,-218.5"/>
<text text-anchor="start" x="513" y="-236.5" font-family="Helvetica,sans-Serif" font-size="10.00" fill="#000000">TooNetworking_bufferlist</text>
<text text-anchor="middle" x="567.5" y="-225.5" font-family="Helvetica,sans-Serif" font-size="10.00" fill="#000000">_send_</text>
</a>
</g>
</g>
<!-- Node57&#45;&gt;Node59 -->
<g id="edge2" class="edge">
<title>Node57&#45;&gt;Node59</title>
<path fill="none" stroke="#191970" d="M125.1833,-224.7413C218.9398,-226.5978 395.2742,-230.0896 494.6361,-232.0572"/>
<polygon fill="#191970" stroke="#191970" points="494.8215,-235.5614 504.8889,-232.2602 494.9602,-228.5628 494.8215,-235.5614"/>
</g>
<!-- Node64 -->
<g id="node8" class="node">
<title>Node64</title>
<g id="a_node8"><a xlink:href="TooNetworking_8cpp.html#a3c91b7ab2f6500c287ecc7ab4a018ef6" target="_top" xlink:title="TooNetworking_bufferlist\l_remove">
<polygon fill="#ffffff" stroke="#000000" points="672,-284.5 672,-314.5 797,-314.5 797,-284.5 672,-284.5"/>
<text text-anchor="start" x="680" y="-302.5" font-family="Helvetica,sans-Serif" font-size="10.00" fill="#000000">TooNetworking_bufferlist</text>
<text text-anchor="middle" x="734.5" y="-291.5" font-family="Helvetica,sans-Serif" font-size="10.00" fill="#000000">_remove</text>
</a>
</g>
</g>
<!-- Node57&#45;&gt;Node64 -->
<g id="edge9" class="edge">
<title>Node57&#45;&gt;Node64</title>
<path fill="none" stroke="#191970" d="M125.1924,-234.981C137.0628,-236.9672 149.3957,-238.9036 161,-240.5 340.39,-265.1785 552.6483,-284.4423 661.7285,-293.6196"/>
<polygon fill="#191970" stroke="#191970" points="661.7008,-297.1295 671.958,-294.4761 662.2849,-290.1539 661.7008,-297.1295"/>
</g>
<!-- Node65 -->
<g id="node9" class="node">
<title>Node65</title>
<g id="a_node9"><a xlink:href="TooSigning_8cpp.html#a729dc41cfb692fb0aea083c38c5f3577" target="_top" xlink:title="TooSigning_received\l_noncelist_find_from_ID">
<polygon fill="#ffffff" stroke="#000000" points="506.5,-164.5 506.5,-194.5 628.5,-194.5 628.5,-164.5 506.5,-164.5"/>
<text text-anchor="start" x="514.5" y="-182.5" font-family="Helvetica,sans-Serif" font-size="10.00" fill="#000000">TooSigning_received</text>
<text text-anchor="middle" x="567.5" y="-171.5" font-family="Helvetica,sans-Serif" font-size="10.00" fill="#000000">_noncelist_find_from_ID</text>
</a>
</g>
</g>
<!-- Node57&#45;&gt;Node65 -->
<g id="edge10" class="edge">
<title>Node57&#45;&gt;Node65</title>
<path fill="none" stroke="#191970" d="M125.1833,-218.0385C219.4501,-209.8251 397.1959,-194.3384 496.2515,-185.7078"/>
<polygon fill="#191970" stroke="#191970" points="496.8068,-189.1728 506.4652,-184.8179 496.1991,-182.1992 496.8068,-189.1728"/>
</g>
<!-- Node66 -->
<g id="node10" class="node">
<title>Node66</title>
<g id="a_node10"><a xlink:href="group__TOOSIGNING__DEBUGGING.html#ga974dd51d29b9bd928de51c481289aad7" target="_top" xlink:title="TooSigning_random_data\l_print">
<polygon fill="#ffffff" stroke="#000000" points="504,-17.5 504,-47.5 631,-47.5 631,-17.5 504,-17.5"/>
<text text-anchor="start" x="512" y="-35.5" font-family="Helvetica,sans-Serif" font-size="10.00" fill="#000000">TooSigning_random_data</text>
<text text-anchor="middle" x="567.5" y="-24.5" font-family="Helvetica,sans-Serif" font-size="10.00" fill="#000000">_print</text>
</a>
</g>
</g>
<!-- Node57&#45;&gt;Node66 -->
<g id="edge11" class="edge">
<title>Node57&#45;&gt;Node66</title>
<path fill="none" stroke="#191970" d="M71.4296,-208.1321C86.726,-183.0657 120.2658,-133.2935 161,-104.5 260.2237,-34.3624 406.3081,-25.5449 493.6681,-27.5894"/>
<polygon fill="#191970" stroke="#191970" points="493.6654,-31.0907 503.7621,-27.8802 493.8671,-24.0936 493.6654,-31.0907"/>
</g>
<!-- Node67 -->
<g id="node11" class="node">
<title>Node67</title>
<g id="a_node11"><a xlink:href="TooNetworking_8cpp.html#a9209f3e1a2fdf0b3b88d49105b8fc359" target="_top" xlink:title="TooNetworking_send\l_signed">
<polygon fill="#ffffff" stroke="#000000" points="169,-113.5 169,-143.5 278,-143.5 278,-113.5 169,-113.5"/>
<text text-anchor="start" x="177" y="-131.5" font-family="Helvetica,sans-Serif" font-size="10.00" fill="#000000">TooNetworking_send</text>
<text text-anchor="middle" x="223.5" y="-120.5" font-family="Helvetica,sans-Serif" font-size="10.00" fill="#000000">_signed</text>
</a>
</g>
</g>
<!-- Node57&#45;&gt;Node67 -->
<g id="edge12" class="edge">
<title>Node57&#45;&gt;Node67</title>
<path fill="none" stroke="#191970" d="M88.0109,-208.447C115.2512,-192.3735 158.5831,-166.805 188.8879,-148.9233"/>
<polygon fill="#191970" stroke="#191970" points="191.0086,-151.7359 197.8424,-143.6396 187.4512,-145.7072 191.0086,-151.7359"/>
</g>
<!-- Node60 -->
<g id="node4" class="node">
<title>Node60</title>
<g id="a_node4"><a xlink:href="TooNetworking_8cpp.html#ac352268e177fa2ddf91c8afa5cd04bbf" target="_top" xlink:title="TooNetworking_connection\l_available">
<polygon fill="#ffffff" stroke="#000000" points="667,-186.5 667,-216.5 802,-216.5 802,-186.5 667,-186.5"/>
<text text-anchor="start" x="675" y="-204.5" font-family="Helvetica,sans-Serif" font-size="10.00" fill="#000000">TooNetworking_connection</text>
<text text-anchor="middle" x="734.5" y="-193.5" font-family="Helvetica,sans-Serif" font-size="10.00" fill="#000000">_available</text>
</a>
</g>
</g>
<!-- Node59&#45;&gt;Node60 -->
<g id="edge3" class="edge">
<title>Node59&#45;&gt;Node60</title>
<path fill="none" stroke="#191970" d="M630.1598,-221.4933C638.8344,-219.8311 647.8296,-218.1075 656.7373,-216.4006"/>
<polygon fill="#191970" stroke="#191970" points="657.5729,-219.8043 666.7355,-214.4848 656.2555,-212.9294 657.5729,-219.8043"/>
</g>
<!-- Node62 -->
<g id="node6" class="node">
<title>Node62</title>
<g id="a_node6"><a xlink:href="TooNetworking_8cpp.html#af4808c2c0857cde9a6721ad54f5ab42d" target="_top" xlink:title="TooNetworking_other\l_node_is_online">
<polygon fill="#ffffff" stroke="#000000" points="679.5,-235.5 679.5,-265.5 789.5,-265.5 789.5,-235.5 679.5,-235.5"/>
<text text-anchor="start" x="687.5" y="-253.5" font-family="Helvetica,sans-Serif" font-size="10.00" fill="#000000">TooNetworking_other</text>
<text text-anchor="middle" x="734.5" y="-242.5" font-family="Helvetica,sans-Serif" font-size="10.00" fill="#000000">_node_is_online</text>
</a>
</g>
</g>
<!-- Node59&#45;&gt;Node62 -->
<g id="edge5" class="edge">
<title>Node59&#45;&gt;Node62</title>
<path fill="none" stroke="#191970" d="M630.1598,-239.8785C642.94,-241.1795 656.416,-242.5513 669.283,-243.8611"/>
<polygon fill="#191970" stroke="#191970" points="669.1434,-247.3649 679.4465,-244.8958 669.8524,-240.4009 669.1434,-247.3649"/>
</g>
<!-- Node63 -->
<g id="node7" class="node">
<title>Node63</title>
<g id="a_node7"><a xlink:href="TooNetworking_8cpp.html#a46674b3fdc9ee370b0839869aa145b75" target="_top" xlink:title="TooNetworking_send">
<polygon fill="#ffffff" stroke="#000000" points="680,-148 680,-167 789,-167 789,-148 680,-148"/>
<text text-anchor="middle" x="734.5" y="-155" font-family="Helvetica,sans-Serif" font-size="10.00" fill="#000000">TooNetworking_send</text>
</a>
</g>
</g>
<!-- Node59&#45;&gt;Node63 -->
<g id="edge6" class="edge">
<title>Node59&#45;&gt;Node63</title>
<path fill="none" stroke="#191970" d="M604.1189,-218.4004C613.1033,-214.2571 622.5597,-209.5131 631,-204.5 648.1956,-194.2868 649.1306,-186.4824 667,-177.5 672.3168,-174.8274 678.0528,-172.448 683.8562,-170.3469"/>
<polygon fill="#191970" stroke="#191970" points="685.2562,-173.569 693.6244,-167.071 683.0304,-166.9323 685.2562,-173.569"/>
</g>
<!-- Node59&#45;&gt;Node64 -->
<g id="edge8" class="edge">
<title>Node59&#45;&gt;Node64</title>
<path fill="none" stroke="#191970" d="M601.8362,-248.5712C620.918,-256.8007 645.1527,-267.0132 667,-275.5 671.5432,-277.2648 676.2771,-279.0517 681.037,-280.8126"/>
<polygon fill="#191970" stroke="#191970" points="680.197,-284.2319 690.7908,-284.375 682.5985,-277.6567 680.197,-284.2319"/>
</g>
<!-- Node61 -->
<g id="node5" class="node">
<title>Node61</title>
<g id="a_node5"><a xlink:href="TooNetworking_8cpp.html#abdda8f09b9d475ed2c23a2376e2e0151" target="_top" xlink:title="mesh">
<polygon fill="#ffffff" stroke="#000000" points="838,-170 838,-189 879,-189 879,-170 838,-170"/>
<text text-anchor="middle" x="858.5" y="-177" font-family="Helvetica,sans-Serif" font-size="10.00" fill="#000000">mesh</text>
</a>
</g>
</g>
<!-- Node60&#45;&gt;Node61 -->
<g id="edge4" class="edge">
<title>Node60&#45;&gt;Node61</title>
<path fill="none" stroke="#191970" d="M802.3049,-189.4701C811.2455,-187.8839 820.0236,-186.3265 827.8869,-184.9314"/>
<polygon fill="#191970" stroke="#191970" points="828.737,-188.3353 837.9718,-183.1421 827.5141,-181.4429 828.737,-188.3353"/>
</g>
<!-- Node63&#45;&gt;Node61 -->
<g id="edge7" class="edge">
<title>Node63&#45;&gt;Node61</title>
<path fill="none" stroke="#191970" d="M788.167,-167.0216C801.7344,-169.4287 815.844,-171.932 827.8331,-174.0591"/>
<polygon fill="#191970" stroke="#191970" points="827.2984,-177.5188 837.7561,-175.8196 828.5213,-170.6265 827.2984,-177.5188"/>
</g>
<!-- Node67&#45;&gt;Node65 -->
<g id="edge13" class="edge">
<title>Node67&#45;&gt;Node65</title>
<path fill="none" stroke="#191970" d="M278.1007,-139.6465C292.3586,-142.3885 307.7296,-145.1958 322,-147.5 380.4317,-156.9347 447.0362,-165.4785 496.114,-171.3599"/>
<polygon fill="#191970" stroke="#191970" points="495.9677,-174.8671 506.3114,-172.5739 496.7953,-167.9162 495.9677,-174.8671"/>
</g>
<!-- Node67&#45;&gt;Node66 -->
<g id="edge14" class="edge">
<title>Node67&#45;&gt;Node66</title>
<path fill="none" stroke="#191970" d="M254.8682,-113.3464C273.942,-104.5831 298.9829,-93.8675 322,-86.5 378.6738,-68.3594 444.6239,-54.2236 493.8897,-44.9728"/>
<polygon fill="#191970" stroke="#191970" points="494.6315,-48.395 503.8259,-43.1307 493.3554,-41.5123 494.6315,-48.395"/>
</g>
<!-- Node67&#45;&gt;Node67 -->
<g id="edge15" class="edge">
<title>Node67&#45;&gt;Node67</title>
<path fill="none" stroke="#191970" d="M195.6167,-143.659C188.8931,-153.0566 198.1875,-162 223.5,-162 238.9248,-162 248.4015,-158.679 251.9301,-153.9579"/>
<polygon fill="#191970" stroke="#191970" points="255.4086,-153.4594 251.3833,-143.659 248.4185,-153.8305 255.4086,-153.4594"/>
</g>
<!-- Node68 -->
<g id="node12" class="node">
<title>Node68</title>
<g id="a_node12"><a xlink:href="TooSigning_8cpp.html#a53b55547df3d4276f3ca6a74d601549a" target="_top" xlink:title="TooSigning_requested\l_noncelist_add">
<polygon fill="#ffffff" stroke="#000000" points="511,-66.5 511,-96.5 624,-96.5 624,-66.5 511,-66.5"/>
<text text-anchor="start" x="519" y="-84.5" font-family="Helvetica,sans-Serif" font-size="10.00" fill="#000000">TooSigning_requested</text>
<text text-anchor="middle" x="567.5" y="-73.5" font-family="Helvetica,sans-Serif" font-size="10.00" fill="#000000">_noncelist_add</text>
</a>
</g>
</g>
<!-- Node67&#45;&gt;Node68 -->
<g id="edge16" class="edge">
<title>Node67&#45;&gt;Node68</title>
<path fill="none" stroke="#191970" d="M278.0759,-117.1964C292.3342,-114.4566 307.7116,-111.6896 322,-109.5 382.1723,-100.2792 451.0703,-92.6773 500.5311,-87.7329"/>
<polygon fill="#191970" stroke="#191970" points="501.1737,-91.1865 510.7803,-86.7185 500.4842,-84.2205 501.1737,-91.1865"/>
</g>
<!-- Node72 -->
<g id="node16" class="node">
<title>Node72</title>
<g id="a_node16"><a xlink:href="TooNetworking_8cpp.html#aa8040740e6ffca2f68beb7f8e57d63fc" target="_top" xlink:title="TooNetworking_bufferlist_add">
<polygon fill="#ffffff" stroke="#000000" points="322,-119 322,-138 468,-138 468,-119 322,-119"/>
<text text-anchor="middle" x="395" y="-126" font-family="Helvetica,sans-Serif" font-size="10.00" fill="#000000">TooNetworking_bufferlist_add</text>
</a>
</g>
</g>
<!-- Node67&#45;&gt;Node72 -->
<g id="edge20" class="edge">
<title>Node67&#45;&gt;Node72</title>
<path fill="none" stroke="#191970" d="M278.2352,-122.1588C288.8177,-121.8678 300.1285,-121.7322 311.3901,-121.7519"/>
<polygon fill="#191970" stroke="#191970" points="311.6754,-125.2535 321.6963,-121.8136 311.7174,-118.2537 311.6754,-125.2535"/>
</g>
<!-- Node69 -->
<g id="node13" class="node">
<title>Node69</title>
<g id="a_node13"><a xlink:href="group__TOOSIGNING__INITIALIZE.html#gafd247c5271ff63bfcde14ef94060002d" target="_top" xlink:title="TooSigning_requested\l_noncelist_initialize">
<polygon fill="#ffffff" stroke="#000000" points="678,-98.5 678,-128.5 791,-128.5 791,-98.5 678,-98.5"/>
<text text-anchor="start" x="686" y="-116.5" font-family="Helvetica,sans-Serif" font-size="10.00" fill="#000000">TooSigning_requested</text>
<text text-anchor="middle" x="734.5" y="-105.5" font-family="Helvetica,sans-Serif" font-size="10.00" fill="#000000">_noncelist_initialize</text>
</a>
</g>
</g>
<!-- Node68&#45;&gt;Node69 -->
<g id="edge17" class="edge">
<title>Node68&#45;&gt;Node69</title>
<path fill="none" stroke="#191970" d="M624.0386,-92.3337C638.1081,-95.0297 653.3217,-97.9449 667.8283,-100.7246"/>
<polygon fill="#191970" stroke="#191970" points="667.2557,-104.1785 677.7357,-102.623 668.5731,-97.3035 667.2557,-104.1785"/>
</g>
<!-- Node70 -->
<g id="node14" class="node">
<title>Node70</title>
<g id="a_node14"><a xlink:href="TooSigning_8cpp.html#a74e394128707e55045381d7c9ab6f6fd" target="_top" xlink:title="TooSigning_requested\l_noncelist_find_for_nodeID">
<polygon fill="#ffffff" stroke="#000000" points="667,-49.5 667,-79.5 802,-79.5 802,-49.5 667,-49.5"/>
<text text-anchor="start" x="675" y="-67.5" font-family="Helvetica,sans-Serif" font-size="10.00" fill="#000000">TooSigning_requested</text>
<text text-anchor="middle" x="734.5" y="-56.5" font-family="Helvetica,sans-Serif" font-size="10.00" fill="#000000">_noncelist_find_for_nodeID</text>
</a>
</g>
</g>
<!-- Node68&#45;&gt;Node70 -->
<g id="edge18" class="edge">
<title>Node68&#45;&gt;Node70</title>
<path fill="none" stroke="#191970" d="M624.0386,-75.7446C634.5434,-74.6752 645.6861,-73.5409 656.696,-72.4202"/>
<polygon fill="#191970" stroke="#191970" points="657.1537,-75.8918 666.7478,-71.3969 656.4447,-68.9277 657.1537,-75.8918"/>
</g>
<!-- Node71 -->
<g id="node15" class="node">
<title>Node71</title>
<g id="a_node15"><a xlink:href="group__TOOSIGNING__DEBUGGING.html#gabb54a5e4968d69e35d665869d5c6588f" target="_top" xlink:title="TooSigning_requested\l_noncelist_print">
<polygon fill="#ffffff" stroke="#000000" points="678,-.5 678,-30.5 791,-30.5 791,-.5 678,-.5"/>
<text text-anchor="start" x="686" y="-18.5" font-family="Helvetica,sans-Serif" font-size="10.00" fill="#000000">TooSigning_requested</text>
<text text-anchor="middle" x="734.5" y="-7.5" font-family="Helvetica,sans-Serif" font-size="10.00" fill="#000000">_noncelist_print</text>
</a>
</g>
</g>
<!-- Node68&#45;&gt;Node71 -->
<g id="edge19" class="edge">
<title>Node68&#45;&gt;Node71</title>
<path fill="none" stroke="#191970" d="M608.6813,-66.4837C616.1504,-63.6049 623.8395,-60.5381 631,-57.5 647.2887,-50.5889 650.6884,-47.3569 667,-40.5 672.0401,-38.3813 677.3289,-36.2566 682.6343,-34.1898"/>
<polygon fill="#191970" stroke="#191970" points="684.064,-37.3903 692.1515,-30.5461 681.5612,-30.853 684.064,-37.3903"/>
</g>
<!-- Node72&#45;&gt;Node59 -->
<g id="edge22" class="edge">
<title>Node72&#45;&gt;Node59</title>
<path fill="none" stroke="#191970" d="M407.2679,-138.1604C426.9536,-153.4025 467.1345,-183.4587 504,-204.5 509.799,-207.8099 516.0431,-211.0382 522.272,-214.0669"/>
<polygon fill="#191970" stroke="#191970" points="520.7968,-217.2408 531.3337,-218.3476 523.7868,-210.9115 520.7968,-217.2408"/>
</g>
<!-- Node72&#45;&gt;Node65 -->
<g id="edge23" class="edge">
<title>Node72&#45;&gt;Node65</title>
<path fill="none" stroke="#191970" d="M427.4459,-138.0927C449.7847,-144.6972 480.1409,-153.6721 506.8815,-161.578"/>
<polygon fill="#191970" stroke="#191970" points="505.9662,-164.9571 516.5482,-164.436 507.9509,-158.2443 505.9662,-164.9571"/>
</g>
<!-- Node72&#45;&gt;Node66 -->
<g id="edge24" class="edge">
<title>Node72&#45;&gt;Node66</title>
<path fill="none" stroke="#191970" d="M407.9007,-118.8552C427.789,-104.2787 467.4699,-76.342 504,-57.5 507.9569,-55.4591 512.1204,-53.4786 516.3445,-51.5849"/>
<polygon fill="#191970" stroke="#191970" points="517.8303,-54.7559 525.6322,-47.5879 515.0631,-48.326 517.8303,-54.7559"/>
</g>
<!-- Node72&#45;&gt;Node67 -->
<g id="edge25" class="edge">
<title>Node72&#45;&gt;Node67</title>
<path fill="none" stroke="#191970" d="M321.6963,-135.1864C310.6515,-135.3 299.3254,-135.2614 288.4718,-135.0707"/>
<polygon fill="#191970" stroke="#191970" points="288.3112,-131.5663 278.2352,-134.8412 288.1542,-138.5646 288.3112,-131.5663"/>
</g>
<!-- Node72&#45;&gt;Node68 -->
<g id="edge26" class="edge">
<title>Node72&#45;&gt;Node68</title>
<path fill="none" stroke="#191970" d="M429.9079,-118.9888C450.7665,-113.3057 477.9237,-105.9063 502.5948,-99.1843"/>
<polygon fill="#191970" stroke="#191970" points="503.5394,-102.5546 512.2675,-96.5488 501.6991,-95.8008 503.5394,-102.5546"/>
</g>
<!-- Node73 -->
<g id="node17" class="node">
<title>Node73</title>
<g id="a_node17"><a xlink:href="TooNetworking_8cpp.html#aa8a4e879d4d71fed2a8940cf93b75ae4" target="_top" xlink:title="TooNetworking_bufferlist\l_initialize">
<polygon fill="#ffffff" stroke="#000000" points="505,-115.5 505,-145.5 630,-145.5 630,-115.5 505,-115.5"/>
<text text-anchor="start" x="513" y="-133.5" font-family="Helvetica,sans-Serif" font-size="10.00" fill="#000000">TooNetworking_bufferlist</text>
<text text-anchor="middle" x="567.5" y="-122.5" font-family="Helvetica,sans-Serif" font-size="10.00" fill="#000000">_initialize</text>
</a>
</g>
</g>
<!-- Node72&#45;&gt;Node73 -->
<g id="edge21" class="edge">
<title>Node72&#45;&gt;Node73</title>
<path fill="none" stroke="#191970" d="M468.1555,-129.3482C476.9335,-129.45 485.8968,-129.5539 494.6701,-129.6556"/>
<polygon fill="#191970" stroke="#191970" points="494.8196,-133.1575 504.8595,-129.7737 494.9008,-126.1579 494.8196,-133.1575"/>
</g>
</g>
</svg>
