<?xml version="1.0" encoding="UTF-8" standalone="no"?>
<!DOCTYPE svg PUBLIC "-//W3C//DTD SVG 1.1//EN"
 "http://www.w3.org/Graphics/SVG/1.1/DTD/svg11.dtd">
<!-- Generated by graphviz version 2.40.1 (20161225.0304)
 -->
<!-- Title: TooNetworking_bufferlist_add Pages: 1 -->
<svg width="1429pt" height="641pt"
 viewBox="0.00 0.00 1429.00 641.00" xmlns="http://www.w3.org/2000/svg" xmlns:xlink="http://www.w3.org/1999/xlink">
<g id="graph0" class="graph" transform="scale(1 1) rotate(0) translate(4 637)">
<title>TooNetworking_bufferlist_add</title>
<polygon fill="#ffffff" stroke="transparent" points="-4,4 -4,-637 1425,-637 1425,4 -4,4"/>
<!-- Node39 -->
<g id="node1" class="node">
<title>Node39</title>
<polygon fill="#bfbfbf" stroke="#000000" points="0,-449 0,-468 146,-468 146,-449 0,-449"/>
<text text-anchor="middle" x="73" y="-456" font-family="Helvetica,sans-Serif" font-size="10.00" fill="#000000">TooNetworking_bufferlist_add</text>
</g>
<!-- Node40 -->
<g id="node2" class="node">
<title>Node40</title>
<g id="a_node2"><a xlink:href="TooNetworking_8cpp.html#aa8a4e879d4d71fed2a8940cf93b75ae4" target="_top" xlink:title="TooNetworking_bufferlist\l_initialize">
<polygon fill="#ffffff" stroke="#000000" points="182,-563.5 182,-593.5 307,-593.5 307,-563.5 182,-563.5"/>
<text text-anchor="start" x="190" y="-581.5" font-family="Helvetica,sans-Serif" font-size="10.00" fill="#000000">TooNetworking_bufferlist</text>
<text text-anchor="middle" x="244.5" y="-570.5" font-family="Helvetica,sans-Serif" font-size="10.00" fill="#000000">_initialize</text>
</a>
</g>
</g>
<!-- Node39&#45;&gt;Node40 -->
<g id="edge1" class="edge">
<title>Node39&#45;&gt;Node40</title>
<path fill="none" stroke="#191970" d="M81.7193,-468.2072C99.1326,-487.0979 140.1505,-529.1659 182,-554.5 184.6489,-556.1036 187.4234,-557.6333 190.2686,-559.0872"/>
<polygon fill="#191970" stroke="#191970" points="188.9929,-562.3556 199.529,-563.47 191.9875,-556.0285 188.9929,-562.3556"/>
</g>
<!-- Node41 -->
<g id="node3" class="node">
<title>Node41</title>
<g id="a_node3"><a xlink:href="TooNetworking_8cpp.html#a0ad03a7efb42cf40ca3e20fb5df3a5db" target="_top" xlink:title="TooNetworking_bufferlist\l_send_">
<polygon fill="#ffffff" stroke="#000000" points="182,-514.5 182,-544.5 307,-544.5 307,-514.5 182,-514.5"/>
<text text-anchor="start" x="190" y="-532.5" font-family="Helvetica,sans-Serif" font-size="10.00" fill="#000000">TooNetworking_bufferlist</text>
<text text-anchor="middle" x="244.5" y="-521.5" font-family="Helvetica,sans-Serif" font-size="10.00" fill="#000000">_send_</text>
</a>
</g>
</g>
<!-- Node39&#45;&gt;Node41 -->
<g id="edge2" class="edge">
<title>Node39&#45;&gt;Node41</title>
<path fill="none" stroke="#191970" d="M94.606,-468.1228C116.5201,-477.8104 151.4643,-493.0597 182,-505.5 186.1694,-507.1986 190.508,-508.9327 194.869,-510.6526"/>
<polygon fill="#191970" stroke="#191970" points="193.8072,-513.9953 204.3952,-514.3757 196.3554,-507.4756 193.8072,-513.9953"/>
</g>
<!-- Node47 -->
<g id="node9" class="node">
<title>Node47</title>
<g id="a_node9"><a xlink:href="TooSigning_8cpp.html#a729dc41cfb692fb0aea083c38c5f3577" target="_top" xlink:title="TooSigning_received\l_noncelist_find_from_ID">
<polygon fill="#ffffff" stroke="#000000" points="183.5,-465.5 183.5,-495.5 305.5,-495.5 305.5,-465.5 183.5,-465.5"/>
<text text-anchor="start" x="191.5" y="-483.5" font-family="Helvetica,sans-Serif" font-size="10.00" fill="#000000">TooSigning_received</text>
<text text-anchor="middle" x="244.5" y="-472.5" font-family="Helvetica,sans-Serif" font-size="10.00" fill="#000000">_noncelist_find_from_ID</text>
</a>
</g>
</g>
<!-- Node39&#45;&gt;Node47 -->
<g id="edge9" class="edge">
<title>Node39&#45;&gt;Node47</title>
<path fill="none" stroke="#191970" d="M146.2289,-467.8938C155.2249,-469.0478 164.4088,-470.2259 173.3731,-471.3758"/>
<polygon fill="#191970" stroke="#191970" points="173.0148,-474.8585 183.3789,-472.6594 173.9055,-467.9154 173.0148,-474.8585"/>
</g>
<!-- Node48 -->
<g id="node10" class="node">
<title>Node48</title>
<g id="a_node10"><a xlink:href="group__TOOSIGNING__DEBUGGING.html#ga974dd51d29b9bd928de51c481289aad7" target="_top" xlink:title="TooSigning_random_data\l_print">
<polygon fill="#ffffff" stroke="#000000" points="355,-426.5 355,-456.5 482,-456.5 482,-426.5 355,-426.5"/>
<text text-anchor="start" x="363" y="-444.5" font-family="Helvetica,sans-Serif" font-size="10.00" fill="#000000">TooSigning_random_data</text>
<text text-anchor="middle" x="418.5" y="-433.5" font-family="Helvetica,sans-Serif" font-size="10.00" fill="#000000">_print</text>
</a>
</g>
</g>
<!-- Node39&#45;&gt;Node48 -->
<g id="edge10" class="edge">
<title>Node39&#45;&gt;Node48</title>
<path fill="none" stroke="#191970" d="M146.2717,-454.8947C204.6664,-452.0215 286.0661,-448.0163 344.6199,-445.1352"/>
<polygon fill="#191970" stroke="#191970" points="345.094,-448.6162 354.9099,-444.6289 344.7499,-441.6247 345.094,-448.6162"/>
</g>
<!-- Node49 -->
<g id="node11" class="node">
<title>Node49</title>
<g id="a_node11"><a xlink:href="TooNetworking_8cpp.html#a9f893c3218491ee86282fdcd9f376500" target="_top" xlink:title="TooNetworking_send\l_signed_">
<polygon fill="#ffffff" stroke="#000000" points="190,-344.5 190,-374.5 299,-374.5 299,-344.5 190,-344.5"/>
<text text-anchor="start" x="198" y="-362.5" font-family="Helvetica,sans-Serif" font-size="10.00" fill="#000000">TooNetworking_send</text>
<text text-anchor="middle" x="244.5" y="-351.5" font-family="Helvetica,sans-Serif" font-size="10.00" fill="#000000">_signed_</text>
</a>
</g>
</g>
<!-- Node39&#45;&gt;Node49 -->
<g id="edge11" class="edge">
<title>Node39&#45;&gt;Node49</title>
<path fill="none" stroke="#191970" d="M89.7564,-448.8272C117.4176,-432.8595 173.1971,-400.6603 209.6826,-379.5987"/>
<polygon fill="#191970" stroke="#191970" points="211.6032,-382.5313 218.514,-374.5007 208.1036,-376.4689 211.6032,-382.5313"/>
</g>
<!-- Node65 -->
<g id="node27" class="node">
<title>Node65</title>
<g id="a_node27"><a xlink:href="TooSigning_8cpp.html#a53b55547df3d4276f3ca6a74d601549a" target="_top" xlink:title="TooSigning_requested\l_noncelist_add">
<polygon fill="#ffffff" stroke="#000000" points="188,-74.5 188,-104.5 301,-104.5 301,-74.5 188,-74.5"/>
<text text-anchor="start" x="196" y="-92.5" font-family="Helvetica,sans-Serif" font-size="10.00" fill="#000000">TooSigning_requested</text>
<text text-anchor="middle" x="244.5" y="-81.5" font-family="Helvetica,sans-Serif" font-size="10.00" fill="#000000">_noncelist_add</text>
</a>
</g>
</g>
<!-- Node39&#45;&gt;Node65 -->
<g id="edge38" class="edge">
<title>Node39&#45;&gt;Node65</title>
<path fill="none" stroke="#191970" d="M77.5872,-448.6301C100.125,-400.1378 199.3955,-186.547 233.1894,-113.8359"/>
<polygon fill="#191970" stroke="#191970" points="236.4677,-115.0865 237.5085,-104.5429 230.1198,-112.1362 236.4677,-115.0865"/>
</g>
<!-- Node42 -->
<g id="node4" class="node">
<title>Node42</title>
<g id="a_node4"><a xlink:href="TooNetworking_8cpp.html#ac352268e177fa2ddf91c8afa5cd04bbf" target="_top" xlink:title="TooNetworking_connection\l_available">
<polygon fill="#ffffff" stroke="#000000" points="530,-350.5 530,-380.5 665,-380.5 665,-350.5 530,-350.5"/>
<text text-anchor="start" x="538" y="-368.5" font-family="Helvetica,sans-Serif" font-size="10.00" fill="#000000">TooNetworking_connection</text>
<text text-anchor="middle" x="597.5" y="-357.5" font-family="Helvetica,sans-Serif" font-size="10.00" fill="#000000">_available</text>
</a>
</g>
</g>
<!-- Node41&#45;&gt;Node42 -->
<g id="edge3" class="edge">
<title>Node41&#45;&gt;Node42</title>
<path fill="none" stroke="#191970" d="M293.6449,-544.5255C309.2674,-548.6106 326.7187,-552.4661 343,-554.5 409.5935,-562.8191 436.2627,-588.7097 494,-554.5 554.6763,-518.5489 582.1157,-433.0506 592.3651,-390.477"/>
<polygon fill="#191970" stroke="#191970" points="595.7987,-391.1623 594.6103,-380.6343 588.974,-389.6055 595.7987,-391.1623"/>
</g>
<!-- Node44 -->
<g id="node6" class="node">
<title>Node44</title>
<g id="a_node6"><a xlink:href="TooNetworking_8cpp.html#af4808c2c0857cde9a6721ad54f5ab42d" target="_top" xlink:title="TooNetworking_other\l_node_is_online">
<polygon fill="#ffffff" stroke="#000000" points="363.5,-514.5 363.5,-544.5 473.5,-544.5 473.5,-514.5 363.5,-514.5"/>
<text text-anchor="start" x="371.5" y="-532.5" font-family="Helvetica,sans-Serif" font-size="10.00" fill="#000000">TooNetworking_other</text>
<text text-anchor="middle" x="418.5" y="-521.5" font-family="Helvetica,sans-Serif" font-size="10.00" fill="#000000">_node_is_online</text>
</a>
</g>
</g>
<!-- Node41&#45;&gt;Node44 -->
<g id="edge5" class="edge">
<title>Node41&#45;&gt;Node44</title>
<path fill="none" stroke="#191970" d="M307.318,-529.5C322.1873,-529.5 338.0804,-529.5 353.0628,-529.5"/>
<polygon fill="#191970" stroke="#191970" points="353.2661,-533.0001 363.266,-529.5 353.266,-526.0001 353.2661,-533.0001"/>
</g>
<!-- Node45 -->
<g id="node7" class="node">
<title>Node45</title>
<g id="a_node7"><a xlink:href="TooNetworking_8cpp.html#a46674b3fdc9ee370b0839869aa145b75" target="_top" xlink:title="TooNetworking_send">
<polygon fill="#ffffff" stroke="#000000" points="364,-476 364,-495 473,-495 473,-476 364,-476"/>
<text text-anchor="middle" x="418.5" y="-483" font-family="Helvetica,sans-Serif" font-size="10.00" fill="#000000">TooNetworking_send</text>
</a>
</g>
</g>
<!-- Node41&#45;&gt;Node45 -->
<g id="edge6" class="edge">
<title>Node41&#45;&gt;Node45</title>
<path fill="none" stroke="#191970" d="M303.8943,-514.4808C325.8071,-508.9396 350.3266,-502.7393 371.0452,-497.5001"/>
<polygon fill="#191970" stroke="#191970" points="372.0459,-500.8573 380.8827,-495.0124 370.3298,-494.0709 372.0459,-500.8573"/>
</g>
<!-- Node46 -->
<g id="node8" class="node">
<title>Node46</title>
<g id="a_node8"><a xlink:href="TooNetworking_8cpp.html#a3c91b7ab2f6500c287ecc7ab4a018ef6" target="_top" xlink:title="TooNetworking_bufferlist\l_remove">
<polygon fill="#ffffff" stroke="#000000" points="356,-602.5 356,-632.5 481,-632.5 481,-602.5 356,-602.5"/>
<text text-anchor="start" x="364" y="-620.5" font-family="Helvetica,sans-Serif" font-size="10.00" fill="#000000">TooNetworking_bufferlist</text>
<text text-anchor="middle" x="418.5" y="-609.5" font-family="Helvetica,sans-Serif" font-size="10.00" fill="#000000">_remove</text>
</a>
</g>
</g>
<!-- Node41&#45;&gt;Node46 -->
<g id="edge8" class="edge">
<title>Node41&#45;&gt;Node46</title>
<path fill="none" stroke="#191970" d="M288.2007,-544.609C294.6962,-547.5242 301.1626,-550.8303 307,-554.5 325.3756,-566.052 324.6112,-575.969 343,-587.5 349.3258,-591.4667 356.2638,-595.0757 363.2904,-598.3053"/>
<polygon fill="#191970" stroke="#191970" points="362.3114,-601.696 372.8778,-602.4721 365.1016,-595.2761 362.3114,-601.696"/>
</g>
<!-- Node43 -->
<g id="node5" class="node">
<title>Node43</title>
<g id="a_node5"><a xlink:href="TooNetworking_8cpp.html#abdda8f09b9d475ed2c23a2376e2e0151" target="_top" xlink:title="mesh">
<polygon fill="#ffffff" stroke="#000000" points="733,-356 733,-375 774,-375 774,-356 733,-356"/>
<text text-anchor="middle" x="753.5" y="-363" font-family="Helvetica,sans-Serif" font-size="10.00" fill="#000000">mesh</text>
</a>
</g>
</g>
<!-- Node42&#45;&gt;Node43 -->
<g id="edge4" class="edge">
<title>Node42&#45;&gt;Node43</title>
<path fill="none" stroke="#191970" d="M665.0166,-365.5C685.1461,-365.5 706.2244,-365.5 722.7568,-365.5"/>
<polygon fill="#191970" stroke="#191970" points="722.9089,-369.0001 732.9089,-365.5 722.9089,-362.0001 722.9089,-369.0001"/>
</g>
<!-- Node45&#45;&gt;Node43 -->
<g id="edge7" class="edge">
<title>Node45&#45;&gt;Node43</title>
<path fill="none" stroke="#191970" d="M460.3,-475.9682C471.3366,-473.1831 483.1835,-469.9511 494,-466.5 578.7064,-439.4733 675.6403,-399.1499 723.512,-378.5849"/>
<polygon fill="#191970" stroke="#191970" points="725.1652,-381.6835 732.9605,-374.5083 722.3921,-375.2562 725.1652,-381.6835"/>
</g>
<!-- Node49&#45;&gt;Node42 -->
<g id="edge12" class="edge">
<title>Node49&#45;&gt;Node42</title>
<path fill="none" stroke="#191970" d="M299.2689,-360.4309C358.3967,-361.4359 453.0614,-363.045 519.8517,-364.1802"/>
<polygon fill="#191970" stroke="#191970" points="519.8506,-367.6806 529.9087,-364.3511 519.9696,-360.6816 519.8506,-367.6806"/>
</g>
<!-- Node49&#45;&gt;Node44 -->
<g id="edge13" class="edge">
<title>Node49&#45;&gt;Node44</title>
<path fill="none" stroke="#191970" d="M253.997,-374.6348C276.2297,-409.8914 330.7065,-495.2139 343,-504.5 346.4086,-507.0747 350.0959,-509.3922 353.9449,-511.4771"/>
<polygon fill="#191970" stroke="#191970" points="352.6373,-514.7324 363.1642,-515.9313 355.6826,-508.4295 352.6373,-514.7324"/>
</g>
<!-- Node49&#45;&gt;Node45 -->
<g id="edge34" class="edge">
<title>Node49&#45;&gt;Node45</title>
<path fill="none" stroke="#191970" d="M254.2733,-374.8772C270.0188,-398.3505 303.2892,-442.8774 343,-466.5 346.6592,-468.6767 350.5609,-470.6054 354.5902,-472.3142"/>
<polygon fill="#191970" stroke="#191970" points="353.5771,-475.6724 364.1691,-475.9154 356.0404,-469.1202 353.5771,-475.6724"/>
</g>
<!-- Node49&#45;&gt;Node48 -->
<g id="edge14" class="edge">
<title>Node49&#45;&gt;Node48</title>
<path fill="none" stroke="#191970" d="M267.6646,-374.7274C287.1838,-387.1072 316.146,-404.4375 343,-416.5 347.9594,-418.7277 353.1793,-420.8615 358.4622,-422.8777"/>
<polygon fill="#191970" stroke="#191970" points="357.4033,-426.2172 367.997,-426.3745 359.8136,-419.6453 357.4033,-426.2172"/>
</g>
<!-- Node50 -->
<g id="node12" class="node">
<title>Node50</title>
<g id="a_node12"><a xlink:href="TooSigning_8cpp.html#a3994a32f8b2275d51b6832644f703bc7" target="_top" xlink:title="TooSigning_read_hmac\l_from_progmem">
<polygon fill="#ffffff" stroke="#000000" points="359,-224.5 359,-254.5 478,-254.5 478,-224.5 359,-224.5"/>
<text text-anchor="start" x="367" y="-242.5" font-family="Helvetica,sans-Serif" font-size="10.00" fill="#000000">TooSigning_read_hmac</text>
<text text-anchor="middle" x="418.5" y="-231.5" font-family="Helvetica,sans-Serif" font-size="10.00" fill="#000000">_from_progmem</text>
</a>
</g>
</g>
<!-- Node49&#45;&gt;Node50 -->
<g id="edge15" class="edge">
<title>Node49&#45;&gt;Node50</title>
<path fill="none" stroke="#191970" d="M257.8283,-344.2958C275.6088,-324.7776 308.8355,-290.8851 343,-269.5 349.329,-265.5384 356.2689,-261.9324 363.2964,-258.7044"/>
<polygon fill="#191970" stroke="#191970" points="365.1075,-261.7337 372.8846,-254.5388 362.3181,-255.3134 365.1075,-261.7337"/>
</g>
<!-- Node51 -->
<g id="node13" class="node">
<title>Node51</title>
<g id="a_node13"><a xlink:href="TooSigning_8cpp.html#a1e2cd2b37702263e1fe166395350bf08" target="_top" xlink:title="TooSigning_init_hmac">
<polygon fill="#ffffff" stroke="#000000" points="362,-148 362,-167 475,-167 475,-148 362,-148"/>
<text text-anchor="middle" x="418.5" y="-155" font-family="Helvetica,sans-Serif" font-size="10.00" fill="#000000">TooSigning_init_hmac</text>
</a>
</g>
</g>
<!-- Node49&#45;&gt;Node51 -->
<g id="edge16" class="edge">
<title>Node49&#45;&gt;Node51</title>
<path fill="none" stroke="#191970" d="M248.1242,-344.4861C257.4152,-309.3344 285.5024,-221.2881 343,-176.5 345.9457,-174.2055 349.1348,-172.1849 352.4805,-170.4058"/>
<polygon fill="#191970" stroke="#191970" points="353.9892,-173.5647 361.6428,-166.2386 351.091,-167.1928 353.9892,-173.5647"/>
</g>
<!-- Node60 -->
<g id="node22" class="node">
<title>Node60</title>
<g id="a_node22"><a xlink:href="group__TOOSIGNING__HASHING.html#gafb2935303b05255e80a7a6fa4be7cf57" target="_top" xlink:title="TooSigning_hash_data">
<polygon fill="#ffffff" stroke="#000000" points="539.5,-249 539.5,-268 655.5,-268 655.5,-249 539.5,-249"/>
<text text-anchor="middle" x="597.5" y="-256" font-family="Helvetica,sans-Serif" font-size="10.00" fill="#000000">TooSigning_hash_data</text>
</a>
</g>
</g>
<!-- Node49&#45;&gt;Node60 -->
<g id="edge26" class="edge">
<title>Node49&#45;&gt;Node60</title>
<path fill="none" stroke="#191970" d="M265.7037,-344.2483C284.9488,-331.1529 314.5819,-312.8057 343,-302.5 403.8588,-280.4298 477.0185,-269.2588 529.248,-263.713"/>
<polygon fill="#191970" stroke="#191970" points="529.8117,-267.1737 539.405,-262.6772 529.1015,-260.2098 529.8117,-267.1737"/>
</g>
<!-- Node61 -->
<g id="node23" class="node">
<title>Node61</title>
<g id="a_node23"><a xlink:href="group__TOOSIGNING__HASHING.html#gae743dd1289d92f915352e40b047b4cc8" target="_top" xlink:title="TooSigning_hash_store">
<polygon fill="#ffffff" stroke="#000000" points="359,-388 359,-407 478,-407 478,-388 359,-388"/>
<text text-anchor="middle" x="418.5" y="-395" font-family="Helvetica,sans-Serif" font-size="10.00" fill="#000000">TooSigning_hash_store</text>
</a>
</g>
</g>
<!-- Node49&#45;&gt;Node61 -->
<g id="edge28" class="edge">
<title>Node49&#45;&gt;Node61</title>
<path fill="none" stroke="#191970" d="M299.0773,-371.4192C320.0614,-376.0019 343.9822,-381.226 364.8759,-385.789"/>
<polygon fill="#191970" stroke="#191970" points="364.347,-389.2559 374.8635,-387.9702 365.8406,-382.4171 364.347,-389.2559"/>
</g>
<!-- Node62 -->
<g id="node24" class="node">
<title>Node62</title>
<g id="a_node24"><a xlink:href="TooSigning_8cpp.html#ab8a2415b95a77c91ffbc6ebbde622f64" target="_top" xlink:title="TooSigning_get_hmac">
<polygon fill="#ffffff" stroke="#000000" points="362,-186 362,-205 475,-205 475,-186 362,-186"/>
<text text-anchor="middle" x="418.5" y="-193" font-family="Helvetica,sans-Serif" font-size="10.00" fill="#000000">TooSigning_get_hmac</text>
</a>
</g>
</g>
<!-- Node49&#45;&gt;Node62 -->
<g id="edge29" class="edge">
<title>Node49&#45;&gt;Node62</title>
<path fill="none" stroke="#191970" d="M250.5207,-344.0588C262.999,-314.1603 294.6192,-248.3369 343,-214.5 345.9127,-212.4629 349.0237,-210.6438 352.2614,-209.0195"/>
<polygon fill="#191970" stroke="#191970" points="353.8835,-212.1309 361.6625,-204.938 351.0958,-205.71 353.8835,-212.1309"/>
</g>
<!-- Node64 -->
<g id="node26" class="node">
<title>Node64</title>
<g id="a_node26"><a xlink:href="TooNetworking_8cpp.html#aefc5dad88b637efb11a3a7b2f76a19b9" target="_top" xlink:title="TooNetworking_connection_fix">
<polygon fill="#ffffff" stroke="#000000" points="343,-312 343,-331 494,-331 494,-312 343,-312"/>
<text text-anchor="middle" x="418.5" y="-319" font-family="Helvetica,sans-Serif" font-size="10.00" fill="#000000">TooNetworking_connection_fix</text>
</a>
</g>
</g>
<!-- Node49&#45;&gt;Node64 -->
<g id="edge35" class="edge">
<title>Node49&#45;&gt;Node64</title>
<path fill="none" stroke="#191970" d="M299.0773,-347.5808C320.0614,-342.9981 343.9822,-337.774 364.8759,-333.211"/>
<polygon fill="#191970" stroke="#191970" points="365.8406,-336.5829 374.8635,-331.0298 364.347,-329.7441 365.8406,-336.5829"/>
</g>
<!-- Node52 -->
<g id="node14" class="node">
<title>Node52</title>
<g id="a_node14"><a xlink:href="classSha256Class.html#a73d3dcea6eb667fd146d12aa5d106939" target="_top" xlink:title="Sha256Class::initHmac">
<polygon fill="#ffffff" stroke="#000000" points="537.5,-148 537.5,-167 657.5,-167 657.5,-148 537.5,-148"/>
<text text-anchor="middle" x="597.5" y="-155" font-family="Helvetica,sans-Serif" font-size="10.00" fill="#000000">Sha256Class::initHmac</text>
</a>
</g>
</g>
<!-- Node51&#45;&gt;Node52 -->
<g id="edge17" class="edge">
<title>Node51&#45;&gt;Node52</title>
<path fill="none" stroke="#191970" d="M475.1367,-157.5C491.6615,-157.5 509.922,-157.5 527.1835,-157.5"/>
<polygon fill="#191970" stroke="#191970" points="527.2107,-161.0001 537.2107,-157.5 527.2106,-154.0001 527.2107,-161.0001"/>
</g>
<!-- Node53 -->
<g id="node15" class="node">
<title>Node53</title>
<g id="a_node15"><a xlink:href="classSha256Class.html#ac1025d69c51fcd1b882ee41114e58339" target="_top" xlink:title="Sha256Class::init">
<polygon fill="#ffffff" stroke="#000000" points="706.5,-148 706.5,-167 800.5,-167 800.5,-148 706.5,-148"/>
<text text-anchor="middle" x="753.5" y="-155" font-family="Helvetica,sans-Serif" font-size="10.00" fill="#000000">Sha256Class::init</text>
</a>
</g>
</g>
<!-- Node52&#45;&gt;Node53 -->
<g id="edge18" class="edge">
<title>Node52&#45;&gt;Node53</title>
<path fill="none" stroke="#191970" d="M657.8137,-157.5C670.4066,-157.5 683.6488,-157.5 696.1314,-157.5"/>
<polygon fill="#191970" stroke="#191970" points="696.4073,-161.0001 706.4072,-157.5 696.4072,-154.0001 696.4073,-161.0001"/>
</g>
<!-- Node54 -->
<g id="node16" class="node">
<title>Node54</title>
<g id="a_node16"><a xlink:href="classSha256Class.html#a0f0fc4bd4d8c53d232df0d41d7ea25e0" target="_top" xlink:title="Sha256Class::write">
<polygon fill="#ffffff" stroke="#000000" points="702.5,-224 702.5,-243 804.5,-243 804.5,-224 702.5,-224"/>
<text text-anchor="middle" x="753.5" y="-231" font-family="Helvetica,sans-Serif" font-size="10.00" fill="#000000">Sha256Class::write</text>
</a>
</g>
</g>
<!-- Node52&#45;&gt;Node54 -->
<g id="edge19" class="edge">
<title>Node52&#45;&gt;Node54</title>
<path fill="none" stroke="#191970" d="M644.2644,-167.0942C651.4837,-169.5716 658.6435,-172.6603 665,-176.5 684.9133,-188.5289 681.538,-201.7538 701,-214.5 703.9686,-216.4442 707.1618,-218.2209 710.4546,-219.8383"/>
<polygon fill="#191970" stroke="#191970" points="709.3312,-223.1674 719.8947,-223.9811 712.1443,-216.7575 709.3312,-223.1674"/>
</g>
<!-- Node58 -->
<g id="node20" class="node">
<title>Node58</title>
<g id="a_node20"><a xlink:href="classSha256Class.html#a0ca245a22f8b056a3d1902da3c64b705" target="_top" xlink:title="Sha256Class::result">
<polygon fill="#ffffff" stroke="#000000" points="701,-186 701,-205 806,-205 806,-186 701,-186"/>
<text text-anchor="middle" x="753.5" y="-193" font-family="Helvetica,sans-Serif" font-size="10.00" fill="#000000">Sha256Class::result</text>
</a>
</g>
</g>
<!-- Node52&#45;&gt;Node58 -->
<g id="edge23" class="edge">
<title>Node52&#45;&gt;Node58</title>
<path fill="none" stroke="#191970" d="M636.8654,-167.089C657.4513,-172.1035 682.8405,-178.2881 704.669,-183.6053"/>
<polygon fill="#191970" stroke="#191970" points="703.8734,-187.0137 714.4177,-185.9799 705.5302,-180.2126 703.8734,-187.0137"/>
</g>
<!-- Node55 -->
<g id="node17" class="node">
<title>Node55</title>
<g id="a_node17"><a xlink:href="classSha256Class.html#ab0b46743e3d59b1c68f52ed89dfaff50" target="_top" xlink:title="Sha256Class::addUncounted">
<polygon fill="#ffffff" stroke="#000000" points="975,-205 975,-224 1119,-224 1119,-205 975,-205"/>
<text text-anchor="middle" x="1047" y="-212" font-family="Helvetica,sans-Serif" font-size="10.00" fill="#000000">Sha256Class::addUncounted</text>
</a>
</g>
</g>
<!-- Node54&#45;&gt;Node55 -->
<g id="edge20" class="edge">
<title>Node54&#45;&gt;Node55</title>
<path fill="none" stroke="#191970" d="M804.6238,-230.1905C848.737,-227.3347 913.2694,-223.1572 964.6571,-219.8305"/>
<polygon fill="#191970" stroke="#191970" points="964.9965,-223.316 974.7495,-219.1772 964.5442,-216.3306 964.9965,-223.316"/>
</g>
<!-- Node56 -->
<g id="node18" class="node">
<title>Node56</title>
<g id="a_node18"><a xlink:href="classSha256Class.html#a399d2a23951e2130f54af8ac7712068f" target="_top" xlink:title="Sha256Class::hashBlock">
<polygon fill="#ffffff" stroke="#000000" points="1155,-205 1155,-224 1282,-224 1282,-205 1155,-205"/>
<text text-anchor="middle" x="1218.5" y="-212" font-family="Helvetica,sans-Serif" font-size="10.00" fill="#000000">Sha256Class::hashBlock</text>
</a>
</g>
</g>
<!-- Node55&#45;&gt;Node56 -->
<g id="edge21" class="edge">
<title>Node55&#45;&gt;Node56</title>
<path fill="none" stroke="#191970" d="M1119.2344,-214.5C1127.6298,-214.5 1136.2026,-214.5 1144.6198,-214.5"/>
<polygon fill="#191970" stroke="#191970" points="1144.7873,-218.0001 1154.7873,-214.5 1144.7873,-211.0001 1144.7873,-218.0001"/>
</g>
<!-- Node57 -->
<g id="node19" class="node">
<title>Node57</title>
<g id="a_node19"><a xlink:href="classSha256Class.html#ae275718ce9813bb33b2d8d8fbf018bd6" target="_top" xlink:title="Sha256Class::ror32">
<polygon fill="#ffffff" stroke="#000000" points="1318,-205 1318,-224 1421,-224 1421,-205 1318,-205"/>
<text text-anchor="middle" x="1369.5" y="-212" font-family="Helvetica,sans-Serif" font-size="10.00" fill="#000000">Sha256Class::ror32</text>
</a>
</g>
</g>
<!-- Node56&#45;&gt;Node57 -->
<g id="edge22" class="edge">
<title>Node56&#45;&gt;Node57</title>
<path fill="none" stroke="#191970" d="M1282.1,-214.5C1290.5806,-214.5 1299.2667,-214.5 1307.7157,-214.5"/>
<polygon fill="#191970" stroke="#191970" points="1307.8743,-218.0001 1317.8743,-214.5 1307.8742,-211.0001 1307.8743,-218.0001"/>
</g>
<!-- Node59 -->
<g id="node21" class="node">
<title>Node59</title>
<g id="a_node21"><a xlink:href="classSha256Class.html#a82049dae520ccf0bd8478f2aef639149" target="_top" xlink:title="Sha256Class::pad">
<polygon fill="#ffffff" stroke="#000000" points="842,-186 842,-205 939,-205 939,-186 842,-186"/>
<text text-anchor="middle" x="890.5" y="-193" font-family="Helvetica,sans-Serif" font-size="10.00" fill="#000000">Sha256Class::pad</text>
</a>
</g>
</g>
<!-- Node58&#45;&gt;Node59 -->
<g id="edge24" class="edge">
<title>Node58&#45;&gt;Node59</title>
<path fill="none" stroke="#191970" d="M806.076,-195.5C814.4448,-195.5 823.1493,-195.5 831.6514,-195.5"/>
<polygon fill="#191970" stroke="#191970" points="831.8856,-199.0001 841.8856,-195.5 831.8855,-192.0001 831.8856,-199.0001"/>
</g>
<!-- Node59&#45;&gt;Node55 -->
<g id="edge25" class="edge">
<title>Node59&#45;&gt;Node55</title>
<path fill="none" stroke="#191970" d="M939.1597,-201.4076C947.3741,-202.4048 956.0986,-203.464 964.8883,-204.5312"/>
<polygon fill="#191970" stroke="#191970" points="964.4671,-208.0056 974.8161,-205.7365 965.3108,-201.0567 964.4671,-208.0056"/>
</g>
<!-- Node60&#45;&gt;Node54 -->
<g id="edge27" class="edge">
<title>Node60&#45;&gt;Node54</title>
<path fill="none" stroke="#191970" d="M655.5886,-249.1909C667.5675,-247.2712 680.2179,-245.2439 692.3032,-243.3072"/>
<polygon fill="#191970" stroke="#191970" points="692.9747,-246.7443 702.2949,-241.7059 691.867,-239.8325 692.9747,-246.7443"/>
</g>
<!-- Node63 -->
<g id="node25" class="node">
<title>Node63</title>
<g id="a_node25"><a xlink:href="classSha256Class.html#a7556f29cadf7eaca21a537df41318af3" target="_top" xlink:title="Sha256Class::resultHmac">
<polygon fill="#ffffff" stroke="#000000" points="532,-186 532,-205 663,-205 663,-186 532,-186"/>
<text text-anchor="middle" x="597.5" y="-193" font-family="Helvetica,sans-Serif" font-size="10.00" fill="#000000">Sha256Class::resultHmac</text>
</a>
</g>
</g>
<!-- Node62&#45;&gt;Node63 -->
<g id="edge30" class="edge">
<title>Node62&#45;&gt;Node63</title>
<path fill="none" stroke="#191970" d="M475.1367,-195.5C489.9243,-195.5 506.1018,-195.5 521.7095,-195.5"/>
<polygon fill="#191970" stroke="#191970" points="521.8635,-199.0001 531.8634,-195.5 521.8634,-192.0001 521.8635,-199.0001"/>
</g>
<!-- Node63&#45;&gt;Node53 -->
<g id="edge32" class="edge">
<title>Node63&#45;&gt;Node53</title>
<path fill="none" stroke="#191970" d="M636.8654,-185.911C657.4513,-180.8965 682.8405,-174.7119 704.669,-169.3947"/>
<polygon fill="#191970" stroke="#191970" points="705.5302,-172.7874 714.4177,-167.0201 703.8734,-165.9863 705.5302,-172.7874"/>
</g>
<!-- Node63&#45;&gt;Node54 -->
<g id="edge33" class="edge">
<title>Node63&#45;&gt;Node54</title>
<path fill="none" stroke="#191970" d="M636.8654,-205.089C657.4513,-210.1035 682.8405,-216.2881 704.669,-221.6053"/>
<polygon fill="#191970" stroke="#191970" points="703.8734,-225.0137 714.4177,-223.9799 705.5302,-218.2126 703.8734,-225.0137"/>
</g>
<!-- Node63&#45;&gt;Node58 -->
<g id="edge31" class="edge">
<title>Node63&#45;&gt;Node58</title>
<path fill="none" stroke="#191970" d="M663.2059,-195.5C672.2809,-195.5 681.5837,-195.5 690.6061,-195.5"/>
<polygon fill="#191970" stroke="#191970" points="690.6465,-199.0001 700.6464,-195.5 690.6464,-192.0001 690.6465,-199.0001"/>
</g>
<!-- Node64&#45;&gt;Node42 -->
<g id="edge36" class="edge">
<title>Node64&#45;&gt;Node42</title>
<path fill="none" stroke="#191970" d="M457.3403,-331.0473C477.4936,-336.0012 502.7568,-342.2112 526.2643,-347.9895"/>
<polygon fill="#191970" stroke="#191970" points="525.6649,-351.4463 536.2114,-350.4346 527.3359,-344.6487 525.6649,-351.4463"/>
</g>
<!-- Node64&#45;&gt;Node43 -->
<g id="edge37" class="edge">
<title>Node64&#45;&gt;Node43</title>
<path fill="none" stroke="#191970" d="M494.2009,-324.0398C543.2006,-326.5681 608.218,-331.5841 665,-341.5 684.6101,-344.9245 706.1784,-350.7299 723.113,-355.7731"/>
<polygon fill="#191970" stroke="#191970" points="722.4134,-359.2188 732.9994,-358.7866 724.4544,-352.5229 722.4134,-359.2188"/>
</g>
<!-- Node66 -->
<g id="node28" class="node">
<title>Node66</title>
<g id="a_node28"><a xlink:href="group__TOOSIGNING__INITIALIZE.html#gafd247c5271ff63bfcde14ef94060002d" target="_top" xlink:title="TooSigning_requested\l_noncelist_initialize">
<polygon fill="#ffffff" stroke="#000000" points="362,-98.5 362,-128.5 475,-128.5 475,-98.5 362,-98.5"/>
<text text-anchor="start" x="370" y="-116.5" font-family="Helvetica,sans-Serif" font-size="10.00" fill="#000000">TooSigning_requested</text>
<text text-anchor="middle" x="418.5" y="-105.5" font-family="Helvetica,sans-Serif" font-size="10.00" fill="#000000">_noncelist_initialize</text>
</a>
</g>
</g>
<!-- Node65&#45;&gt;Node66 -->
<g id="edge39" class="edge">
<title>Node65&#45;&gt;Node66</title>
<path fill="none" stroke="#191970" d="M301.4741,-97.3585C317.5614,-99.5774 335.2098,-102.0117 351.8128,-104.3018"/>
<polygon fill="#191970" stroke="#191970" points="351.6077,-107.8065 361.9922,-105.7058 352.5642,-100.8722 351.6077,-107.8065"/>
</g>
<!-- Node67 -->
<g id="node29" class="node">
<title>Node67</title>
<g id="a_node29"><a xlink:href="TooSigning_8cpp.html#a74e394128707e55045381d7c9ab6f6fd" target="_top" xlink:title="TooSigning_requested\l_noncelist_find_for_nodeID">
<polygon fill="#ffffff" stroke="#000000" points="351,-49.5 351,-79.5 486,-79.5 486,-49.5 351,-49.5"/>
<text text-anchor="start" x="359" y="-67.5" font-family="Helvetica,sans-Serif" font-size="10.00" fill="#000000">TooSigning_requested</text>
<text text-anchor="middle" x="418.5" y="-56.5" font-family="Helvetica,sans-Serif" font-size="10.00" fill="#000000">_noncelist_find_for_nodeID</text>
</a>
</g>
</g>
<!-- Node65&#45;&gt;Node67 -->
<g id="edge40" class="edge">
<title>Node65&#45;&gt;Node67</title>
<path fill="none" stroke="#191970" d="M301.4741,-81.3141C314.032,-79.5098 327.5412,-77.5688 340.7619,-75.6693"/>
<polygon fill="#191970" stroke="#191970" points="341.3945,-79.1144 350.795,-74.2277 340.3989,-72.1856 341.3945,-79.1144"/>
</g>
<!-- Node68 -->
<g id="node30" class="node">
<title>Node68</title>
<g id="a_node30"><a xlink:href="group__TOOSIGNING__DEBUGGING.html#gabb54a5e4968d69e35d665869d5c6588f" target="_top" xlink:title="TooSigning_requested\l_noncelist_print">
<polygon fill="#ffffff" stroke="#000000" points="362,-.5 362,-30.5 475,-30.5 475,-.5 362,-.5"/>
<text text-anchor="start" x="370" y="-18.5" font-family="Helvetica,sans-Serif" font-size="10.00" fill="#000000">TooSigning_requested</text>
<text text-anchor="middle" x="418.5" y="-7.5" font-family="Helvetica,sans-Serif" font-size="10.00" fill="#000000">_noncelist_print</text>
</a>
</g>
</g>
<!-- Node65&#45;&gt;Node68 -->
<g id="edge41" class="edge">
<title>Node65&#45;&gt;Node68</title>
<path fill="none" stroke="#191970" d="M271.5405,-74.2738C291.0252,-63.6761 318.1545,-49.6766 343,-39.5 347.7311,-37.5622 352.6801,-35.6811 357.684,-33.8811"/>
<polygon fill="#191970" stroke="#191970" points="359.036,-37.1166 367.3315,-30.5261 356.7367,-30.505 359.036,-37.1166"/>
</g>
</g>
</svg>
