<?xml version="1.0" encoding="UTF-8" standalone="no"?>
<!DOCTYPE svg PUBLIC "-//W3C//DTD SVG 1.1//EN"
 "http://www.w3.org/Graphics/SVG/1.1/DTD/svg11.dtd">
<!-- Generated by graphviz version 2.40.1 (20161225.0304)
 -->
<!-- Title: TooNetworking_send Pages: 1 -->
<!--zoomable 110 -->
<svg id="main" version="1.1" xmlns="http://www.w3.org/2000/svg" xmlns:xlink="http://www.w3.org/1999/xlink" xml:space="preserve" onload="init(evt)">
<style type="text/css"><![CDATA[
.edge:hover path { stroke: red; }
.edge:hover polygon { stroke: red; fill: red; }
]]></style>
<script type="text/javascript"><![CDATA[
var edges = document.getElementsByTagName('g');
if (edges && edges.length) {
  for (var i=0;i<edges.length;i++) {
    if (edges[i].id.substr(0,4)=='edge') {
      edges[i].setAttribute('class','edge');
    }
  }
}
]]></script>
        <defs>
                <circle id="rim" cx="0" cy="0" r="7"/>
                <circle id="rim2" cx="0" cy="0" r="3.5"/>
                <g id="zoomPlus">
                        <use xlink:href="#rim" fill="#404040">
                                <set attributeName="fill" to="#808080" begin="zoomplus.mouseover" end="zoomplus.mouseout"/>
                        </use>
                        <path d="M-4,0h8M0,-4v8" fill="none" stroke="white" stroke-width="1.5" pointer-events="none"/>
                </g>
                <g id="zoomMin">
                        <use xlink:href="#rim" fill="#404040">
                                <set attributeName="fill" to="#808080" begin="zoomminus.mouseover" end="zoomminus.mouseout"/>
                        </use>
                        <path d="M-4,0h8" fill="none" stroke="white" stroke-width="1.5" pointer-events="none"/>
                </g>
                <g id="dirArrow">
                        <path fill="none" stroke="white" stroke-width="1.5" d="M0,-3.0v7 M-2.5,-0.5L0,-3.0L2.5,-0.5"/>
                </g>
               <g id="resetDef">
                       <use xlink:href="#rim2" fill="#404040">
                               <set attributeName="fill" to="#808080" begin="reset.mouseover" end="reset.mouseout"/>
                       </use>
               </g>
        </defs>

<script type="text/javascript">
var viewWidth = 681;
var viewHeight = 110;
var sectionId = 'dynsection-27';
</script>
<script xlink:href="svgpan.js"/>
<svg id="graph" class="graph">
<g id="viewport">
<title>TooNetworking_send</title>
<polygon fill="#ffffff" stroke="transparent" points="-4,4 -4,-106 677,-106 677,4 -4,4"/>
<!-- Node230 -->
<g id="node1" class="node">
<title>Node230</title>
<polygon fill="#bfbfbf" stroke="#000000" points="0,-52 0,-71 109,-71 109,-52 0,-52"/>
<text text-anchor="middle" x="54.5" y="-59" font-family="Helvetica,sans-Serif" font-size="10.00" fill="#000000">TooNetworking_send</text>
</g>
<!-- Node231 -->
<g id="node2" class="node">
<title>Node231</title>
<g id="a_node2"><a xlink:href="TooNetworking_8h.html#a0ad03a7efb42cf40ca3e20fb5df3a5db" target="_top" xlink:title="TooNetworking_bufferlist\l_send_">
<polygon fill="#ffffff" stroke="#000000" points="145,-71.5 145,-101.5 270,-101.5 270,-71.5 145,-71.5"/>
<text text-anchor="start" x="153" y="-89.5" font-family="Helvetica,sans-Serif" font-size="10.00" fill="#000000">TooNetworking_bufferlist</text>
<text text-anchor="middle" x="207.5" y="-78.5" font-family="Helvetica,sans-Serif" font-size="10.00" fill="#000000">_send_</text>
</a>
</g>
</g>
<!-- Node230&#45;&gt;Node231 -->
<g id="edge1" class="edge">
<title>Node230&#45;&gt;Node231</title>
<path fill="none" stroke="#191970" d="M119.4187,-72.1076C127.811,-73.4789 136.3936,-74.8813 144.7499,-76.2467"/>
<polygon fill="#191970" stroke="#191970" points="119.7379,-68.6135 109.3044,-70.455 118.609,-75.5218 119.7379,-68.6135"/>
</g>
<!-- Node235 -->
<g id="node6" class="node">
<title>Node235</title>
<g id="a_node6"><a xlink:href="TooNetworking_8h.html#a9f893c3218491ee86282fdcd9f376500" target="_top" xlink:title="TooNetworking_send\l_signed_">
<polygon fill="#ffffff" stroke="#000000" points="153,-22.5 153,-52.5 262,-52.5 262,-22.5 153,-22.5"/>
<text text-anchor="start" x="161" y="-40.5" font-family="Helvetica,sans-Serif" font-size="10.00" fill="#000000">TooNetworking_send</text>
<text text-anchor="middle" x="207.5" y="-29.5" font-family="Helvetica,sans-Serif" font-size="10.00" fill="#000000">_signed_</text>
</a>
</g>
</g>
<!-- Node230&#45;&gt;Node235 -->
<g id="edge5" class="edge">
<title>Node230&#45;&gt;Node235</title>
<path fill="none" stroke="#191970" d="M119.4022,-51.3193C130.5305,-49.5736 141.9941,-47.7754 152.8213,-46.0771"/>
<polygon fill="#191970" stroke="#191970" points="118.6411,-47.8958 109.3044,-52.9032 119.726,-54.8112 118.6411,-47.8958"/>
</g>
<!-- Node232 -->
<g id="node3" class="node">
<title>Node232</title>
<g id="a_node3"><a xlink:href="TooNetworking_8h.html#ab58e06e0eb6f2f8ecbebeaf3c173fb22" target="_top" xlink:title="TooNetworking_bufferlist\l_send_all">
<polygon fill="#ffffff" stroke="#000000" points="306,-71.5 306,-101.5 431,-101.5 431,-71.5 306,-71.5"/>
<text text-anchor="start" x="314" y="-89.5" font-family="Helvetica,sans-Serif" font-size="10.00" fill="#000000">TooNetworking_bufferlist</text>
<text text-anchor="middle" x="368.5" y="-78.5" font-family="Helvetica,sans-Serif" font-size="10.00" fill="#000000">_send_all</text>
</a>
</g>
</g>
<!-- Node231&#45;&gt;Node232 -->
<g id="edge2" class="edge">
<title>Node231&#45;&gt;Node232</title>
<path fill="none" stroke="#191970" d="M280.2184,-86.5C288.8129,-86.5 297.5268,-86.5 305.9633,-86.5"/>
<polygon fill="#191970" stroke="#191970" points="280.2078,-83.0001 270.2078,-86.5 280.2078,-90.0001 280.2078,-83.0001"/>
</g>
<!-- Node233 -->
<g id="node4" class="node">
<title>Node233</title>
<g id="a_node4"><a xlink:href="TooNetworking_8h.html#a7382ba1aed5405c3adc02011ea6c45dd" target="_top" xlink:title="TooNetworking_connection\l_maintenance">
<polygon fill="#ffffff" stroke="#000000" points="467,-60.5 467,-90.5 602,-90.5 602,-60.5 467,-60.5"/>
<text text-anchor="start" x="475" y="-78.5" font-family="Helvetica,sans-Serif" font-size="10.00" fill="#000000">TooNetworking_connection</text>
<text text-anchor="middle" x="534.5" y="-67.5" font-family="Helvetica,sans-Serif" font-size="10.00" fill="#000000">_maintenance</text>
</a>
</g>
</g>
<!-- Node232&#45;&gt;Node233 -->
<g id="edge3" class="edge">
<title>Node232&#45;&gt;Node233</title>
<path fill="none" stroke="#191970" d="M441.4873,-81.6635C449.951,-81.1026 458.5556,-80.5325 466.9422,-79.9767"/>
<polygon fill="#191970" stroke="#191970" points="441.0041,-78.1877 431.2575,-82.3414 441.4671,-85.1724 441.0041,-78.1877"/>
</g>
<!-- Node234 -->
<g id="node5" class="node">
<title>Node234</title>
<g id="a_node5"><a xlink:href="NODE__SKETCH__TooAutomation__Node_8ino_8cpp.html#a0b33edabd7f1c4e4a0bf32c67269be2f" target="_top" xlink:title="loop">
<polygon fill="#ffffff" stroke="#000000" points="638,-30 638,-49 673,-49 673,-30 638,-30"/>
<text text-anchor="middle" x="655.5" y="-37" font-family="Helvetica,sans-Serif" font-size="10.00" fill="#000000">loop</text>
</a>
</g>
</g>
<!-- Node233&#45;&gt;Node234 -->
<g id="edge4" class="edge">
<title>Node233&#45;&gt;Node234</title>
<path fill="none" stroke="#191970" d="M594.8751,-57.5372C610.6159,-52.8539 626.368,-48.1674 637.8692,-44.7455"/>
<polygon fill="#191970" stroke="#191970" points="593.7005,-54.2349 585.1138,-60.4413 595.6967,-60.9443 593.7005,-54.2349"/>
</g>
<!-- Node235&#45;&gt;Node232 -->
<g id="edge9" class="edge">
<title>Node235&#45;&gt;Node232</title>
<path fill="none" stroke="#191970" d="M267.0139,-55.6129C284.1301,-60.8222 302.6072,-66.4457 319.0448,-71.4484"/>
<polygon fill="#191970" stroke="#191970" points="267.7049,-52.1648 257.119,-52.6014 265.6667,-58.8615 267.7049,-52.1648"/>
</g>
<!-- Node236 -->
<g id="node7" class="node">
<title>Node236</title>
<g id="a_node7"><a xlink:href="TooNetworking_8h.html#a9209f3e1a2fdf0b3b88d49105b8fc359" target="_top" xlink:title="TooNetworking_send\l_signed">
<polygon fill="#ffffff" stroke="#000000" points="314,-22.5 314,-52.5 423,-52.5 423,-22.5 314,-22.5"/>
<text text-anchor="start" x="322" y="-40.5" font-family="Helvetica,sans-Serif" font-size="10.00" fill="#000000">TooNetworking_send</text>
<text text-anchor="middle" x="368.5" y="-29.5" font-family="Helvetica,sans-Serif" font-size="10.00" fill="#000000">_signed</text>
</a>
</g>
</g>
<!-- Node235&#45;&gt;Node236 -->
<g id="edge6" class="edge">
<title>Node235&#45;&gt;Node236</title>
<path fill="none" stroke="#191970" d="M272.3592,-37.5C286.0939,-37.5 300.4604,-37.5 313.7751,-37.5"/>
<polygon fill="#191970" stroke="#191970" points="272.0073,-34.0001 262.0073,-37.5 272.0072,-41.0001 272.0073,-34.0001"/>
</g>
<!-- Node237 -->
<g id="node8" class="node">
<title>Node237</title>
<g id="a_node8"><a xlink:href="TooNetworking_8h.html#a085ff748b00f6be4ebafcae2bb0dded1" target="_top" xlink:title="TooNetworking_bufferlist\l_send_signed">
<polygon fill="#ffffff" stroke="#000000" points="472,-.5 472,-30.5 597,-30.5 597,-.5 472,-.5"/>
<text text-anchor="start" x="480" y="-18.5" font-family="Helvetica,sans-Serif" font-size="10.00" fill="#000000">TooNetworking_bufferlist</text>
<text text-anchor="middle" x="534.5" y="-7.5" font-family="Helvetica,sans-Serif" font-size="10.00" fill="#000000">_send_signed</text>
</a>
</g>
</g>
<!-- Node235&#45;&gt;Node237 -->
<g id="edge7" class="edge">
<title>Node235&#45;&gt;Node237</title>
<path fill="none" stroke="#191970" d="M266.3661,-20.0269C279.3087,-16.8983 293.0258,-14.1208 306,-12.5 361.7051,-5.5411 425.6402,-7.1916 471.6885,-10.0601"/>
<polygon fill="#191970" stroke="#191970" points="265.4876,-16.6388 256.6449,-22.4745 267.1968,-23.4269 265.4876,-16.6388"/>
</g>
<!-- Node237&#45;&gt;Node234 -->
<g id="edge8" class="edge">
<title>Node237&#45;&gt;Node234</title>
<path fill="none" stroke="#191970" d="M607.2474,-29.9292C618.636,-32.1881 629.4203,-34.3272 637.8934,-36.0078"/>
<polygon fill="#191970" stroke="#191970" points="607.6165,-26.4343 597.1266,-27.9218 606.2545,-33.3006 607.6165,-26.4343"/>
</g>
</g>
</svg>
        <g id="navigator" transform="translate(0 0)" fill="#404254">
                <rect fill="#f2f5e9" fill-opacity="0.5" stroke="#606060" stroke-width=".5" x="0" y="0" width="60" height="60"/>
                <use id="zoomplus" xlink:href="#zoomPlus" x="17" y="9" onmousedown="handleZoom(evt,'in')"/>
                <use id="zoomminus" xlink:href="#zoomMin" x="42" y="9" onmousedown="handleZoom(evt,'out')"/>
                <use id="reset" xlink:href="#resetDef" x="30" y="36" onmousedown="handleReset()"/>
                <g id="arrowUp" xlink:href="#dirArrow" transform="translate(30 24)" onmousedown="handlePan(0,-1)">
                  <use xlink:href="#rim" fill="#404040">
                        <set attributeName="fill" to="#808080" begin="arrowUp.mouseover" end="arrowUp.mouseout"/>
                  </use>
                  <path fill="none" stroke="white" stroke-width="1.5" d="M0,-3.0v7 M-2.5,-0.5L0,-3.0L2.5,-0.5"/>
                </g>
                <g id="arrowRight" xlink:href="#dirArrow" transform="rotate(90) translate(36 -43)" onmousedown="handlePan(1,0)">
                  <use xlink:href="#rim" fill="#404040">
                        <set attributeName="fill" to="#808080" begin="arrowRight.mouseover" end="arrowRight.mouseout"/>
                  </use>
                  <path fill="none" stroke="white" stroke-width="1.5" d="M0,-3.0v7 M-2.5,-0.5L0,-3.0L2.5,-0.5"/>
                </g>
                <g id="arrowDown" xlink:href="#dirArrow" transform="rotate(180) translate(-30 -48)" onmousedown="handlePan(0,1)">
                  <use xlink:href="#rim" fill="#404040">
                        <set attributeName="fill" to="#808080" begin="arrowDown.mouseover" end="arrowDown.mouseout"/>
                  </use>
                  <path fill="none" stroke="white" stroke-width="1.5" d="M0,-3.0v7 M-2.5,-0.5L0,-3.0L2.5,-0.5"/>
                </g>
                <g id="arrowLeft" xlink:href="#dirArrow" transform="rotate(270) translate(-36 17)" onmousedown="handlePan(-1,0)">
                  <use xlink:href="#rim" fill="#404040">
                        <set attributeName="fill" to="#808080" begin="arrowLeft.mouseover" end="arrowLeft.mouseout"/>
                  </use>
                  <path fill="none" stroke="white" stroke-width="1.5" d="M0,-3.0v7 M-2.5,-0.5L0,-3.0L2.5,-0.5"/>
                </g>
        </g>
        <svg viewBox="0 0 15 15" width="100%" height="30px" preserveAspectRatio="xMaxYMin meet">
         <g id="arrow_out" transform="scale(0.3 0.3)">
          <a xlink:href="TooNetworking_8cpp_a46674b3fdc9ee370b0839869aa145b75_icgraph_org.svg" target="_base">
           <rect id="button" ry="5" rx="5" y="6" x="6" height="38" width="38"
                fill="#f2f5e9" fill-opacity="0.5" stroke="#606060" stroke-width="1.0"/>
           <path id="arrow"
             d="M 11.500037,31.436501 C 11.940474,20.09759 22.043105,11.32322 32.158766,21.979434 L 37.068811,17.246167 C 37.068811,17.246167 37.088388,32 37.088388,32 L 22.160133,31.978069 C 22.160133,31.978069 26.997745,27.140456 26.997745,27.140456 C 18.528582,18.264221 13.291696,25.230495 11.500037,31.436501 z"
             style="fill:#404040;"/>
          </a>
         </g>
        </svg>
</svg>
