<?xml version="1.0" encoding="UTF-8" standalone="no"?>
<!DOCTYPE svg PUBLIC "-//W3C//DTD SVG 1.1//EN"
 "http://www.w3.org/Graphics/SVG/1.1/DTD/svg11.dtd">
<!-- Generated by graphviz version 2.40.1 (20161225.0304)
 -->
<!-- Title: TooNetworking_bufferlist_add Pages: 1 -->
<svg width="531pt" height="94pt"
 viewBox="0.00 0.00 531.00 94.00" xmlns="http://www.w3.org/2000/svg" xmlns:xlink="http://www.w3.org/1999/xlink">
<g id="graph0" class="graph" transform="scale(1 1) rotate(0) translate(4 90)">
<title>TooNetworking_bufferlist_add</title>
<polygon fill="#ffffff" stroke="transparent" points="-4,4 -4,-90 527,-90 527,4 -4,4"/>
<!-- Node25 -->
<g id="node1" class="node">
<title>Node25</title>
<polygon fill="#bfbfbf" stroke="#000000" points="0,-6 0,-25 146,-25 146,-6 0,-6"/>
<text text-anchor="middle" x="73" y="-13" font-family="Helvetica,sans-Serif" font-size="10.00" fill="#000000">TooNetworking_bufferlist_add</text>
</g>
<!-- Node26 -->
<g id="node2" class="node">
<title>Node26</title>
<g id="a_node2"><a xlink:href="TooNetworking_8h.html#a9209f3e1a2fdf0b3b88d49105b8fc359" target="_top" xlink:title="TooNetworking_send\l_signed">
<polygon fill="#ffffff" stroke="#000000" points="182,-.5 182,-30.5 291,-30.5 291,-.5 182,-.5"/>
<text text-anchor="start" x="190" y="-18.5" font-family="Helvetica,sans-Serif" font-size="10.00" fill="#000000">TooNetworking_send</text>
<text text-anchor="middle" x="236.5" y="-7.5" font-family="Helvetica,sans-Serif" font-size="10.00" fill="#000000">_signed</text>
</a>
</g>
</g>
<!-- Node25&#45;&gt;Node26 -->
<g id="edge1" class="edge">
<title>Node25&#45;&gt;Node26</title>
<path fill="none" stroke="#191970" d="M156.2213,-8.751C164.8182,-8.7623 173.3934,-8.8732 181.5665,-9.0837"/>
<polygon fill="#191970" stroke="#191970" points="156.1308,-5.2511 146.1421,-8.7834 156.1534,-12.2511 156.1308,-5.2511"/>
</g>
<!-- Node27 -->
<g id="node3" class="node">
<title>Node27</title>
<g id="a_node3"><a xlink:href="TooNetworking_8h.html#a085ff748b00f6be4ebafcae2bb0dded1" target="_top" xlink:title="TooNetworking_bufferlist\l_send_signed">
<polygon fill="#ffffff" stroke="#000000" points="327,-55.5 327,-85.5 452,-85.5 452,-55.5 327,-55.5"/>
<text text-anchor="start" x="335" y="-73.5" font-family="Helvetica,sans-Serif" font-size="10.00" fill="#000000">TooNetworking_bufferlist</text>
<text text-anchor="middle" x="389.5" y="-62.5" font-family="Helvetica,sans-Serif" font-size="10.00" fill="#000000">_send_signed</text>
</a>
</g>
</g>
<!-- Node25&#45;&gt;Node27 -->
<g id="edge7" class="edge">
<title>Node25&#45;&gt;Node27</title>
<path fill="none" stroke="#191970" d="M101.758,-29.3656C123.3131,-39.0634 153.8234,-51.3417 182,-57.5 229.7807,-67.9431 285.1133,-70.9732 326.6173,-71.512"/>
<polygon fill="#191970" stroke="#191970" points="103.073,-26.1181 92.525,-25.1227 100.15,-32.4787 103.073,-26.1181"/>
</g>
<!-- Node26&#45;&gt;Node25 -->
<g id="edge2" class="edge">
<title>Node26&#45;&gt;Node25</title>
<path fill="none" stroke="#191970" d="M171.5351,-22.1219C163.1918,-22.2509 154.6048,-22.2825 146.1421,-22.2166"/>
<polygon fill="#191970" stroke="#191970" points="171.6403,-25.6206 181.5665,-21.9163 171.4968,-18.6221 171.6403,-25.6206"/>
</g>
<!-- Node26&#45;&gt;Node26 -->
<g id="edge3" class="edge">
<title>Node26&#45;&gt;Node26</title>
<path fill="none" stroke="#191970" d="M209.4914,-40.9579C212.8436,-45.679 221.8464,-49 236.5,-49 260.5469,-49 269.3766,-40.0566 262.9891,-30.659"/>
<polygon fill="#191970" stroke="#191970" points="213.0026,-40.8226 210.0109,-30.659 206.0115,-40.47 213.0026,-40.8226"/>
</g>
<!-- Node26&#45;&gt;Node27 -->
<g id="edge4" class="edge">
<title>Node26&#45;&gt;Node27</title>
<path fill="none" stroke="#191970" d="M287.9334,-33.9891C307.3908,-40.9836 329.2806,-48.8525 347.7426,-55.4892"/>
<polygon fill="#191970" stroke="#191970" points="288.9024,-30.6182 278.3079,-30.529 286.5344,-37.2056 288.9024,-30.6182"/>
</g>
<!-- Node29 -->
<g id="node5" class="node">
<title>Node29</title>
<g id="a_node5"><a xlink:href="TooNetworking_8h.html#ab58e06e0eb6f2f8ecbebeaf3c173fb22" target="_top" xlink:title="TooNetworking_bufferlist\l_send_all">
<polygon fill="#ffffff" stroke="#000000" points="327,-.5 327,-30.5 452,-30.5 452,-.5 327,-.5"/>
<text text-anchor="start" x="335" y="-18.5" font-family="Helvetica,sans-Serif" font-size="10.00" fill="#000000">TooNetworking_bufferlist</text>
<text text-anchor="middle" x="389.5" y="-7.5" font-family="Helvetica,sans-Serif" font-size="10.00" fill="#000000">_send_all</text>
</a>
</g>
</g>
<!-- Node26&#45;&gt;Node29 -->
<g id="edge6" class="edge">
<title>Node26&#45;&gt;Node29</title>
<path fill="none" stroke="#191970" d="M301.4187,-15.5C309.811,-15.5 318.3936,-15.5 326.7499,-15.5"/>
<polygon fill="#191970" stroke="#191970" points="301.3044,-12.0001 291.3044,-15.5 301.3043,-19.0001 301.3044,-12.0001"/>
</g>
<!-- Node28 -->
<g id="node4" class="node">
<title>Node28</title>
<g id="a_node4"><a xlink:href="NODE__SKETCH__TooAutomation__Node_8ino_8cpp.html#a0b33edabd7f1c4e4a0bf32c67269be2f" target="_top" xlink:title="loop">
<polygon fill="#ffffff" stroke="#000000" points="488,-61 488,-80 523,-80 523,-61 488,-61"/>
<text text-anchor="middle" x="505.5" y="-68" font-family="Helvetica,sans-Serif" font-size="10.00" fill="#000000">loop</text>
</a>
</g>
</g>
<!-- Node27&#45;&gt;Node28 -->
<g id="edge5" class="edge">
<title>Node27&#45;&gt;Node28</title>
<path fill="none" stroke="#191970" d="M462.5149,-70.5C471.8175,-70.5 480.5667,-70.5 487.7123,-70.5"/>
<polygon fill="#191970" stroke="#191970" points="462.2531,-67.0001 452.2531,-70.5 462.253,-74.0001 462.2531,-67.0001"/>
</g>
</g>
</svg>
