<?xml version="1.0" encoding="UTF-8" standalone="no"?>
<!DOCTYPE svg PUBLIC "-//W3C//DTD SVG 1.1//EN"
 "http://www.w3.org/Graphics/SVG/1.1/DTD/svg11.dtd">
<!-- Generated by graphviz version 2.40.1 (20161225.0304)
 -->
<!-- Title: TooNetworking_connection_available Pages: 1 -->
<!--zoomable 200 -->
<svg id="main" version="1.1" xmlns="http://www.w3.org/2000/svg" xmlns:xlink="http://www.w3.org/1999/xlink" xml:space="preserve" onload="init(evt)">
<style type="text/css"><![CDATA[
.edge:hover path { stroke: red; }
.edge:hover polygon { stroke: red; fill: red; }
]]></style>
<script type="text/javascript"><![CDATA[
var edges = document.getElementsByTagName('g');
if (edges && edges.length) {
  for (var i=0;i<edges.length;i++) {
    if (edges[i].id.substr(0,4)=='edge') {
      edges[i].setAttribute('class','edge');
    }
  }
}
]]></script>
        <defs>
                <circle id="rim" cx="0" cy="0" r="7"/>
                <circle id="rim2" cx="0" cy="0" r="3.5"/>
                <g id="zoomPlus">
                        <use xlink:href="#rim" fill="#404040">
                                <set attributeName="fill" to="#808080" begin="zoomplus.mouseover" end="zoomplus.mouseout"/>
                        </use>
                        <path d="M-4,0h8M0,-4v8" fill="none" stroke="white" stroke-width="1.5" pointer-events="none"/>
                </g>
                <g id="zoomMin">
                        <use xlink:href="#rim" fill="#404040">
                                <set attributeName="fill" to="#808080" begin="zoomminus.mouseover" end="zoomminus.mouseout"/>
                        </use>
                        <path d="M-4,0h8" fill="none" stroke="white" stroke-width="1.5" pointer-events="none"/>
                </g>
                <g id="dirArrow">
                        <path fill="none" stroke="white" stroke-width="1.5" d="M0,-3.0v7 M-2.5,-0.5L0,-3.0L2.5,-0.5"/>
                </g>
               <g id="resetDef">
                       <use xlink:href="#rim2" fill="#404040">
                               <set attributeName="fill" to="#808080" begin="reset.mouseover" end="reset.mouseout"/>
                       </use>
               </g>
        </defs>

<script type="text/javascript">
var viewWidth = 1238;
var viewHeight = 200;
var sectionId = 'dynsection-11';
</script>
<script xlink:href="svgpan.js"/>
<svg id="graph" class="graph">
<g id="viewport">
<title>TooNetworking_connection_available</title>
<polygon fill="#ffffff" stroke="transparent" points="-4,4 -4,-195.9266 1234,-195.9266 1234,4 -4,4"/>
<!-- Node96 -->
<g id="node1" class="node">
<title>Node96</title>
<polygon fill="#bfbfbf" stroke="#000000" points="0,-39 0,-69 135,-69 135,-39 0,-39"/>
<text text-anchor="start" x="8" y="-57" font-family="Helvetica,sans-Serif" font-size="10.00" fill="#000000">TooNetworking_connection</text>
<text text-anchor="middle" x="67.5" y="-46" font-family="Helvetica,sans-Serif" font-size="10.00" fill="#000000">_available</text>
</g>
<!-- Node97 -->
<g id="node2" class="node">
<title>Node97</title>
<g id="a_node2"><a xlink:href="TooNetworking_8h.html#a0ad03a7efb42cf40ca3e20fb5df3a5db" target="_top" xlink:title="TooNetworking_bufferlist\l_send_">
<polygon fill="#ffffff" stroke="#000000" points="184,-83 184,-113 309,-113 309,-83 184,-83"/>
<text text-anchor="start" x="192" y="-101" font-family="Helvetica,sans-Serif" font-size="10.00" fill="#000000">TooNetworking_bufferlist</text>
<text text-anchor="middle" x="246.5" y="-90" font-family="Helvetica,sans-Serif" font-size="10.00" fill="#000000">_send_</text>
</a>
</g>
</g>
<!-- Node96&#45;&gt;Node97 -->
<g id="edge1" class="edge">
<title>Node96&#45;&gt;Node97</title>
<path fill="none" stroke="#191970" d="M138.634,-71.4855C154.1005,-75.2873 170.3316,-79.277 185.3707,-82.9738"/>
<polygon fill="#191970" stroke="#191970" points="139.1474,-68.0075 128.601,-69.0192 137.4764,-74.8052 139.1474,-68.0075"/>
</g>
<!-- Node103 -->
<g id="node8" class="node">
<title>Node103</title>
<g id="a_node8"><a xlink:href="TooNetworking_8h.html#a99dc4950018bfd3e63ecb05f58082439" target="_top" xlink:title="TooNetworking_connection_fix">
<polygon fill="#ffffff" stroke="#000000" points="171,-6.5 171,-25.5 322,-25.5 322,-6.5 171,-6.5"/>
<text text-anchor="middle" x="246.5" y="-13.5" font-family="Helvetica,sans-Serif" font-size="10.00" fill="#000000">TooNetworking_connection_fix</text>
</a>
</g>
</g>
<!-- Node96&#45;&gt;Node103 -->
<g id="edge11" class="edge">
<title>Node96&#45;&gt;Node103</title>
<path fill="none" stroke="#191970" d="M145.1543,-37.5147C164.4097,-33.427 184.4096,-29.1812 201.5041,-25.5522"/>
<polygon fill="#191970" stroke="#191970" points="144.2274,-34.1334 135.1722,-39.6338 145.6811,-40.9808 144.2274,-34.1334"/>
</g>
<!-- Node104 -->
<g id="node9" class="node">
<title>Node104</title>
<g id="a_node9"><a xlink:href="TooNetworking_8h.html#ab5dfe46515ee5ca8f9893675df673d96" target="_top" xlink:title="TooNetworking_send\l_signed">
<polygon fill="#ffffff" stroke="#000000" points="376.5,-39 376.5,-69 485.5,-69 485.5,-39 376.5,-39"/>
<text text-anchor="start" x="384.5" y="-57" font-family="Helvetica,sans-Serif" font-size="10.00" fill="#000000">TooNetworking_send</text>
<text text-anchor="middle" x="431" y="-46" font-family="Helvetica,sans-Serif" font-size="10.00" fill="#000000">_signed</text>
</a>
</g>
</g>
<!-- Node96&#45;&gt;Node104 -->
<g id="edge19" class="edge">
<title>Node96&#45;&gt;Node104</title>
<path fill="none" stroke="#191970" d="M145.0469,-54C214.5767,-54 314.8327,-54 376.2991,-54"/>
<polygon fill="#191970" stroke="#191970" points="145.0197,-50.5001 135.0197,-54 145.0196,-57.5001 145.0197,-50.5001"/>
</g>
<!-- Node98 -->
<g id="node3" class="node">
<title>Node98</title>
<g id="a_node3"><a xlink:href="TooNetworking_8h.html#a59be7e774988f57ab43c4c078c570c67" target="_top" xlink:title="TooNetworking_bufferlist_add">
<polygon fill="#ffffff" stroke="#000000" points="358,-132.5 358,-151.5 504,-151.5 504,-132.5 358,-132.5"/>
<text text-anchor="middle" x="431" y="-139.5" font-family="Helvetica,sans-Serif" font-size="10.00" fill="#000000">TooNetworking_bufferlist_add</text>
</a>
</g>
</g>
<!-- Node97&#45;&gt;Node98 -->
<g id="edge2" class="edge">
<title>Node97&#45;&gt;Node98</title>
<path fill="none" stroke="#191970" d="M319.1975,-115.3371C343.6458,-121.1676 370.0144,-127.456 391.0004,-132.4608"/>
<polygon fill="#191970" stroke="#191970" points="319.7599,-111.8731 309.2207,-112.9578 318.136,-118.6822 319.7599,-111.8731"/>
</g>
<!-- Node102 -->
<g id="node7" class="node">
<title>Node102</title>
<g id="a_node7"><a xlink:href="TooNetworking_8h.html#ab58e06e0eb6f2f8ecbebeaf3c173fb22" target="_top" xlink:title="TooNetworking_bufferlist\l_send_all">
<polygon fill="#ffffff" stroke="#000000" points="688,-83 688,-113 813,-113 813,-83 688,-83"/>
<text text-anchor="start" x="696" y="-101" font-family="Helvetica,sans-Serif" font-size="10.00" fill="#000000">TooNetworking_bufferlist</text>
<text text-anchor="middle" x="750.5" y="-90" font-family="Helvetica,sans-Serif" font-size="10.00" fill="#000000">_send_all</text>
</a>
</g>
</g>
<!-- Node97&#45;&gt;Node102 -->
<g id="edge10" class="edge">
<title>Node97&#45;&gt;Node102</title>
<path fill="none" stroke="#191970" d="M319.2816,-98C418.3439,-98 593.9841,-98 687.6171,-98"/>
<polygon fill="#191970" stroke="#191970" points="319.0592,-94.5001 309.0591,-98 319.0591,-101.5001 319.0592,-94.5001"/>
</g>
<!-- Node99 -->
<g id="node4" class="node">
<title>Node99</title>
<g id="a_node4"><a xlink:href="TooNetworking_8h.html#a9209f3e1a2fdf0b3b88d49105b8fc359" target="_top" xlink:title="TooNetworking_send\l_signed">
<polygon fill="#ffffff" stroke="#000000" points="541.5,-127 541.5,-157 650.5,-157 650.5,-127 541.5,-127"/>
<text text-anchor="start" x="549.5" y="-145" font-family="Helvetica,sans-Serif" font-size="10.00" fill="#000000">TooNetworking_send</text>
<text text-anchor="middle" x="596" y="-134" font-family="Helvetica,sans-Serif" font-size="10.00" fill="#000000">_signed</text>
</a>
</g>
</g>
<!-- Node98&#45;&gt;Node99 -->
<g id="edge3" class="edge">
<title>Node98&#45;&gt;Node99</title>
<path fill="none" stroke="#191970" d="M514.5386,-135.2505C523.5929,-135.2588 532.6304,-135.3755 541.215,-135.6006"/>
<polygon fill="#191970" stroke="#191970" points="514.3196,-131.7511 504.3323,-135.2872 514.3449,-138.7511 514.3196,-131.7511"/>
</g>
<!-- Node100 -->
<g id="node5" class="node">
<title>Node100</title>
<g id="a_node5"><a xlink:href="TooNetworking_8h.html#a085ff748b00f6be4ebafcae2bb0dded1" target="_top" xlink:title="TooNetworking_bufferlist\l_send_signed">
<polygon fill="#ffffff" stroke="#000000" points="688,-132 688,-162 813,-162 813,-132 688,-132"/>
<text text-anchor="start" x="696" y="-150" font-family="Helvetica,sans-Serif" font-size="10.00" fill="#000000">TooNetworking_bufferlist</text>
<text text-anchor="middle" x="750.5" y="-139" font-family="Helvetica,sans-Serif" font-size="10.00" fill="#000000">_send_signed</text>
</a>
</g>
</g>
<!-- Node98&#45;&gt;Node100 -->
<g id="edge9" class="edge">
<title>Node98&#45;&gt;Node100</title>
<path fill="none" stroke="#191970" d="M458.4426,-156.173C479.9787,-166.4597 511.0578,-179.4976 540,-185 588.9018,-194.2971 603.0634,-194.1123 652,-185 675.6054,-180.6045 700.845,-170.757 719.865,-162.1883"/>
<polygon fill="#191970" stroke="#191970" points="459.7814,-152.9315 449.261,-151.6772 456.703,-159.2183 459.7814,-152.9315"/>
</g>
<!-- Node99&#45;&gt;Node98 -->
<g id="edge4" class="edge">
<title>Node99&#45;&gt;Node98</title>
<path fill="none" stroke="#191970" d="M531.0675,-148.6121C522.293,-148.7518 513.2405,-148.7853 504.3323,-148.7128"/>
<polygon fill="#191970" stroke="#191970" points="531.2906,-152.1083 541.215,-148.3994 531.1438,-145.1098 531.2906,-152.1083"/>
</g>
<!-- Node99&#45;&gt;Node99 -->
<g id="edge5" class="edge">
<title>Node99&#45;&gt;Node99</title>
<path fill="none" stroke="#191970" d="M568.6361,-167.4579C572.0323,-172.179 581.1536,-175.5 596,-175.5 620.3633,-175.5 629.3092,-166.5566 622.8377,-157.159"/>
<polygon fill="#191970" stroke="#191970" points="572.1473,-167.3246 569.1623,-157.159 565.1565,-166.9673 572.1473,-167.3246"/>
</g>
<!-- Node99&#45;&gt;Node100 -->
<g id="edge6" class="edge">
<title>Node99&#45;&gt;Node100</title>
<path fill="none" stroke="#191970" d="M661.1621,-144.1088C670.0082,-144.3951 679.0711,-144.6884 687.8712,-144.9732"/>
<polygon fill="#191970" stroke="#191970" points="661.014,-140.6023 650.9059,-143.7769 660.7875,-147.5986 661.014,-140.6023"/>
</g>
<!-- Node99&#45;&gt;Node102 -->
<g id="edge8" class="edge">
<title>Node99&#45;&gt;Node102</title>
<path fill="none" stroke="#191970" d="M658.5436,-124.1882C671.5471,-120.485 685.1278,-116.6173 697.7375,-113.0262"/>
<polygon fill="#191970" stroke="#191970" points="657.3969,-120.8755 648.738,-126.9808 659.3143,-127.6079 657.3969,-120.8755"/>
</g>
<!-- Node101 -->
<g id="node6" class="node">
<title>Node101</title>
<g id="a_node6"><a xlink:href="NODE__SKETCH__TooAutomation__Node_8ino_8cpp.html#a0b33edabd7f1c4e4a0bf32c67269be2f" target="_top" xlink:title="loop">
<polygon fill="#ffffff" stroke="#000000" points="1195,-91.5 1195,-110.5 1230,-110.5 1230,-91.5 1195,-91.5"/>
<text text-anchor="middle" x="1212.5" y="-98.5" font-family="Helvetica,sans-Serif" font-size="10.00" fill="#000000">loop</text>
</a>
</g>
</g>
<!-- Node100&#45;&gt;Node101 -->
<g id="edge7" class="edge">
<title>Node100&#45;&gt;Node101</title>
<path fill="none" stroke="#191970" d="M823.2953,-139.752C933.0856,-128.8205 1134.6387,-108.7524 1194.9827,-102.7441"/>
<polygon fill="#191970" stroke="#191970" points="822.8922,-136.2747 813.2882,-140.7484 823.5858,-143.2403 822.8922,-136.2747"/>
</g>
<!-- Node103&#45;&gt;Node104 -->
<g id="edge12" class="edge">
<title>Node103&#45;&gt;Node104</title>
<path fill="none" stroke="#191970" d="M303.1232,-27.6622C326.3788,-32.452 353.2036,-37.9769 376.2604,-42.7257"/>
<polygon fill="#191970" stroke="#191970" points="303.5576,-24.1783 293.0571,-25.589 302.1455,-31.0344 303.5576,-24.1783"/>
</g>
<!-- Node105 -->
<g id="node10" class="node">
<title>Node105</title>
<g id="a_node10"><a xlink:href="TooSigning_8h.html#abf99e5d9b5ec252bfff3bf26c0ba9e37" target="_top" xlink:title="TooSigning_connection_fix">
<polygon fill="#ffffff" stroke="#000000" points="364,-.5 364,-19.5 498,-19.5 498,-.5 364,-.5"/>
<text text-anchor="middle" x="431" y="-7.5" font-family="Helvetica,sans-Serif" font-size="10.00" fill="#000000">TooSigning_connection_fix</text>
</a>
</g>
</g>
<!-- Node103&#45;&gt;Node105 -->
<g id="edge13" class="edge">
<title>Node103&#45;&gt;Node105</title>
<path fill="none" stroke="#191970" d="M332.1985,-13.2131C342.8132,-12.8679 353.5442,-12.5189 363.8255,-12.1845"/>
<polygon fill="#191970" stroke="#191970" points="331.9565,-9.719 322.0756,-13.5423 332.1841,-16.7153 331.9565,-9.719"/>
</g>
<!-- Node106 -->
<g id="node11" class="node">
<title>Node106</title>
<g id="a_node11"><a xlink:href="TooSigning_8h.html#a58143364a83636a3d2df075a95cb2bfc" target="_top" xlink:title="TooSigning_request\l_nonce_from_node_id">
<polygon fill="#ffffff" stroke="#000000" points="540,-5 540,-35 652,-35 652,-5 540,-5"/>
<text text-anchor="start" x="548" y="-23" font-family="Helvetica,sans-Serif" font-size="10.00" fill="#000000">TooSigning_request</text>
<text text-anchor="middle" x="596" y="-12" font-family="Helvetica,sans-Serif" font-size="10.00" fill="#000000">_nonce_from_node_id</text>
</a>
</g>
</g>
<!-- Node105&#45;&gt;Node106 -->
<g id="edge14" class="edge">
<title>Node105&#45;&gt;Node106</title>
<path fill="none" stroke="#191970" d="M508.2417,-14.6813C518.8688,-15.3254 529.6127,-15.9765 539.7643,-16.5918"/>
<polygon fill="#191970" stroke="#191970" points="508.3053,-11.1788 498.1118,-14.0674 507.8817,-18.166 508.3053,-11.1788"/>
</g>
<!-- Node107 -->
<g id="node12" class="node">
<title>Node107</title>
<g id="a_node12"><a xlink:href="TooSigning_8h.html#af7ec4002cf8cf81195f3745703e04b22" target="_top" xlink:title="TooSigning_requested\l_noncelist_retry_all">
<polygon fill="#ffffff" stroke="#000000" points="694,-24 694,-54 807,-54 807,-24 694,-24"/>
<text text-anchor="start" x="702" y="-42" font-family="Helvetica,sans-Serif" font-size="10.00" fill="#000000">TooSigning_requested</text>
<text text-anchor="middle" x="750.5" y="-31" font-family="Helvetica,sans-Serif" font-size="10.00" fill="#000000">_noncelist_retry_all</text>
</a>
</g>
</g>
<!-- Node106&#45;&gt;Node107 -->
<g id="edge15" class="edge">
<title>Node106&#45;&gt;Node107</title>
<path fill="none" stroke="#191970" d="M662.1952,-28.1405C672.7213,-29.435 683.527,-30.7638 693.8087,-32.0283"/>
<polygon fill="#191970" stroke="#191970" points="662.5676,-24.66 652.2151,-26.9132 661.7131,-31.6077 662.5676,-24.66"/>
</g>
<!-- Node108 -->
<g id="node13" class="node">
<title>Node108</title>
<g id="a_node13"><a xlink:href="TooSigning_8h.html#af68b8dda897cf488129c205ad532ca9e" target="_top" xlink:title="TooSigning_signed_network\l_update">
<polygon fill="#ffffff" stroke="#000000" points="849,-51 849,-81 988,-81 988,-51 849,-51"/>
<text text-anchor="start" x="857" y="-69" font-family="Helvetica,sans-Serif" font-size="10.00" fill="#000000">TooSigning_signed_network</text>
<text text-anchor="middle" x="918.5" y="-58" font-family="Helvetica,sans-Serif" font-size="10.00" fill="#000000">_update</text>
</a>
</g>
</g>
<!-- Node107&#45;&gt;Node108 -->
<g id="edge16" class="edge">
<title>Node107&#45;&gt;Node108</title>
<path fill="none" stroke="#191970" d="M817.5393,-49.7742C827.8442,-51.4303 838.5044,-53.1436 848.8642,-54.8085"/>
<polygon fill="#191970" stroke="#191970" points="817.8058,-46.2722 807.3771,-48.141 816.695,-53.1835 817.8058,-46.2722"/>
</g>
<!-- Node109 -->
<g id="node14" class="node">
<title>Node109</title>
<g id="a_node14"><a xlink:href="TooNetworking_8h.html#a7382ba1aed5405c3adc02011ea6c45dd" target="_top" xlink:title="TooNetworking_connection\l_maintenance">
<polygon fill="#ffffff" stroke="#000000" points="1024,-64 1024,-94 1159,-94 1159,-64 1024,-64"/>
<text text-anchor="start" x="1032" y="-82" font-family="Helvetica,sans-Serif" font-size="10.00" fill="#000000">TooNetworking_connection</text>
<text text-anchor="middle" x="1091.5" y="-71" font-family="Helvetica,sans-Serif" font-size="10.00" fill="#000000">_maintenance</text>
</a>
</g>
</g>
<!-- Node108&#45;&gt;Node109 -->
<g id="edge17" class="edge">
<title>Node108&#45;&gt;Node109</title>
<path fill="none" stroke="#191970" d="M998.6166,-72.0203C1007.0706,-72.6556 1015.6064,-73.297 1023.8985,-73.9201"/>
<polygon fill="#191970" stroke="#191970" points="998.6012,-68.5094 988.3671,-71.2501 998.0766,-75.4897 998.6012,-68.5094"/>
</g>
<!-- Node109&#45;&gt;Node101 -->
<g id="edge18" class="edge">
<title>Node109&#45;&gt;Node101</title>
<path fill="none" stroke="#191970" d="M1169.1566,-93.1194C1178.6588,-94.847 1187.5454,-96.4628 1194.7679,-97.776"/>
<polygon fill="#191970" stroke="#191970" points="1169.5402,-89.6318 1159.0754,-91.2864 1168.288,-96.5189 1169.5402,-89.6318"/>
</g>
</g>
</svg>
        <g id="navigator" transform="translate(0 0)" fill="#404254">
                <rect fill="#f2f5e9" fill-opacity="0.5" stroke="#606060" stroke-width=".5" x="0" y="0" width="60" height="60"/>
                <use id="zoomplus" xlink:href="#zoomPlus" x="17" y="9" onmousedown="handleZoom(evt,'in')"/>
                <use id="zoomminus" xlink:href="#zoomMin" x="42" y="9" onmousedown="handleZoom(evt,'out')"/>
                <use id="reset" xlink:href="#resetDef" x="30" y="36" onmousedown="handleReset()"/>
                <g id="arrowUp" xlink:href="#dirArrow" transform="translate(30 24)" onmousedown="handlePan(0,-1)">
                  <use xlink:href="#rim" fill="#404040">
                        <set attributeName="fill" to="#808080" begin="arrowUp.mouseover" end="arrowUp.mouseout"/>
                  </use>
                  <path fill="none" stroke="white" stroke-width="1.5" d="M0,-3.0v7 M-2.5,-0.5L0,-3.0L2.5,-0.5"/>
                </g>
                <g id="arrowRight" xlink:href="#dirArrow" transform="rotate(90) translate(36 -43)" onmousedown="handlePan(1,0)">
                  <use xlink:href="#rim" fill="#404040">
                        <set attributeName="fill" to="#808080" begin="arrowRight.mouseover" end="arrowRight.mouseout"/>
                  </use>
                  <path fill="none" stroke="white" stroke-width="1.5" d="M0,-3.0v7 M-2.5,-0.5L0,-3.0L2.5,-0.5"/>
                </g>
                <g id="arrowDown" xlink:href="#dirArrow" transform="rotate(180) translate(-30 -48)" onmousedown="handlePan(0,1)">
                  <use xlink:href="#rim" fill="#404040">
                        <set attributeName="fill" to="#808080" begin="arrowDown.mouseover" end="arrowDown.mouseout"/>
                  </use>
                  <path fill="none" stroke="white" stroke-width="1.5" d="M0,-3.0v7 M-2.5,-0.5L0,-3.0L2.5,-0.5"/>
                </g>
                <g id="arrowLeft" xlink:href="#dirArrow" transform="rotate(270) translate(-36 17)" onmousedown="handlePan(-1,0)">
                  <use xlink:href="#rim" fill="#404040">
                        <set attributeName="fill" to="#808080" begin="arrowLeft.mouseover" end="arrowLeft.mouseout"/>
                  </use>
                  <path fill="none" stroke="white" stroke-width="1.5" d="M0,-3.0v7 M-2.5,-0.5L0,-3.0L2.5,-0.5"/>
                </g>
        </g>
        <svg viewBox="0 0 15 15" width="100%" height="30px" preserveAspectRatio="xMaxYMin meet">
         <g id="arrow_out" transform="scale(0.3 0.3)">
          <a xlink:href="TooNetworking_8h_ac352268e177fa2ddf91c8afa5cd04bbf_icgraph_org.svg" target="_base">
           <rect id="button" ry="5" rx="5" y="6" x="6" height="38" width="38"
                fill="#f2f5e9" fill-opacity="0.5" stroke="#606060" stroke-width="1.0"/>
           <path id="arrow"
             d="M 11.500037,31.436501 C 11.940474,20.09759 22.043105,11.32322 32.158766,21.979434 L 37.068811,17.246167 C 37.068811,17.246167 37.088388,32 37.088388,32 L 22.160133,31.978069 C 22.160133,31.978069 26.997745,27.140456 26.997745,27.140456 C 18.528582,18.264221 13.291696,25.230495 11.500037,31.436501 z"
             style="fill:#404040;"/>
          </a>
         </g>
        </svg>
</svg>
