<?xml version="1.0" encoding="UTF-8" standalone="no"?>
<!DOCTYPE svg PUBLIC "-//W3C//DTD SVG 1.1//EN"
 "http://www.w3.org/Graphics/SVG/1.1/DTD/svg11.dtd">
<!-- Generated by graphviz version 2.40.1 (20161225.0304)
 -->
<!-- Title: TooNetworking_send Pages: 1 -->
<!--zoomable 144 -->
<svg id="main" version="1.1" xmlns="http://www.w3.org/2000/svg" xmlns:xlink="http://www.w3.org/1999/xlink" xml:space="preserve" onload="init(evt)">
<style type="text/css"><![CDATA[
.edge:hover path { stroke: red; }
.edge:hover polygon { stroke: red; fill: red; }
]]></style>
<script type="text/javascript"><![CDATA[
var edges = document.getElementsByTagName('g');
if (edges && edges.length) {
  for (var i=0;i<edges.length;i++) {
    if (edges[i].id.substr(0,4)=='edge') {
      edges[i].setAttribute('class','edge');
    }
  }
}
]]></script>
        <defs>
                <circle id="rim" cx="0" cy="0" r="7"/>
                <circle id="rim2" cx="0" cy="0" r="3.5"/>
                <g id="zoomPlus">
                        <use xlink:href="#rim" fill="#404040">
                                <set attributeName="fill" to="#808080" begin="zoomplus.mouseover" end="zoomplus.mouseout"/>
                        </use>
                        <path d="M-4,0h8M0,-4v8" fill="none" stroke="white" stroke-width="1.5" pointer-events="none"/>
                </g>
                <g id="zoomMin">
                        <use xlink:href="#rim" fill="#404040">
                                <set attributeName="fill" to="#808080" begin="zoomminus.mouseover" end="zoomminus.mouseout"/>
                        </use>
                        <path d="M-4,0h8" fill="none" stroke="white" stroke-width="1.5" pointer-events="none"/>
                </g>
                <g id="dirArrow">
                        <path fill="none" stroke="white" stroke-width="1.5" d="M0,-3.0v7 M-2.5,-0.5L0,-3.0L2.5,-0.5"/>
                </g>
               <g id="resetDef">
                       <use xlink:href="#rim2" fill="#404040">
                               <set attributeName="fill" to="#808080" begin="reset.mouseover" end="reset.mouseout"/>
                       </use>
               </g>
        </defs>

<script type="text/javascript">
var viewWidth = 766;
var viewHeight = 144;
var sectionId = 'dynsection-20';
</script>
<script xlink:href="svgpan.js"/>
<svg id="graph" class="graph">
<g id="viewport">
<title>TooNetworking_send</title>
<polygon fill="#ffffff" stroke="transparent" points="-4,4 -4,-140 762,-140 762,4 -4,4"/>
<!-- Node150 -->
<g id="node1" class="node">
<title>Node150</title>
<polygon fill="#bfbfbf" stroke="#000000" points="0,-30 0,-49 109,-49 109,-30 0,-30"/>
<text text-anchor="middle" x="54.5" y="-37" font-family="Helvetica,sans-Serif" font-size="10.00" fill="#000000">TooNetworking_send</text>
</g>
<!-- Node151 -->
<g id="node2" class="node">
<title>Node151</title>
<g id="a_node2"><a xlink:href="TooNetworking_8h.html#a0ad03a7efb42cf40ca3e20fb5df3a5db" target="_top" xlink:title="TooNetworking_bufferlist\l_send_">
<polygon fill="#ffffff" stroke="#000000" points="145,-49.5 145,-79.5 270,-79.5 270,-49.5 145,-49.5"/>
<text text-anchor="start" x="153" y="-67.5" font-family="Helvetica,sans-Serif" font-size="10.00" fill="#000000">TooNetworking_bufferlist</text>
<text text-anchor="middle" x="207.5" y="-56.5" font-family="Helvetica,sans-Serif" font-size="10.00" fill="#000000">_send_</text>
</a>
</g>
</g>
<!-- Node150&#45;&gt;Node151 -->
<g id="edge1" class="edge">
<title>Node150&#45;&gt;Node151</title>
<path fill="none" stroke="#191970" d="M119.4187,-50.1076C127.811,-51.4789 136.3936,-52.8813 144.7499,-54.2467"/>
<polygon fill="#191970" stroke="#191970" points="119.7379,-46.6135 109.3044,-48.455 118.609,-53.5218 119.7379,-46.6135"/>
</g>
<!-- Node156 -->
<g id="node7" class="node">
<title>Node156</title>
<g id="a_node7"><a xlink:href="TooNetworking_8h.html#ab5dfe46515ee5ca8f9893675df673d96" target="_top" xlink:title="TooNetworking_send\l_signed">
<polygon fill="#ffffff" stroke="#000000" points="153,-.5 153,-30.5 262,-30.5 262,-.5 153,-.5"/>
<text text-anchor="start" x="161" y="-18.5" font-family="Helvetica,sans-Serif" font-size="10.00" fill="#000000">TooNetworking_send</text>
<text text-anchor="middle" x="207.5" y="-7.5" font-family="Helvetica,sans-Serif" font-size="10.00" fill="#000000">_signed</text>
</a>
</g>
</g>
<!-- Node150&#45;&gt;Node156 -->
<g id="edge8" class="edge">
<title>Node150&#45;&gt;Node156</title>
<path fill="none" stroke="#191970" d="M119.4022,-29.3193C130.5305,-27.5736 141.9941,-25.7754 152.8213,-24.0771"/>
<polygon fill="#191970" stroke="#191970" points="118.6411,-25.8958 109.3044,-30.9032 119.726,-32.8112 118.6411,-25.8958"/>
</g>
<!-- Node152 -->
<g id="node3" class="node">
<title>Node152</title>
<g id="a_node3"><a xlink:href="TooNetworking_8h.html#a59be7e774988f57ab43c4c078c570c67" target="_top" xlink:title="TooNetworking_bufferlist_add">
<polygon fill="#ffffff" stroke="#000000" points="306,-77 306,-96 452,-96 452,-77 306,-77"/>
<text text-anchor="middle" x="379" y="-84" font-family="Helvetica,sans-Serif" font-size="10.00" fill="#000000">TooNetworking_bufferlist_add</text>
</a>
</g>
</g>
<!-- Node151&#45;&gt;Node152 -->
<g id="edge2" class="edge">
<title>Node151&#45;&gt;Node152</title>
<path fill="none" stroke="#191970" d="M280.5451,-73.8702C288.9597,-74.9496 297.5412,-76.0505 305.9558,-77.1299"/>
<polygon fill="#191970" stroke="#191970" points="280.7505,-70.368 270.3864,-72.5671 279.8598,-77.3111 280.7505,-70.368"/>
</g>
<!-- Node155 -->
<g id="node6" class="node">
<title>Node155</title>
<g id="a_node6"><a xlink:href="TooNetworking_8h.html#ab58e06e0eb6f2f8ecbebeaf3c173fb22" target="_top" xlink:title="TooNetworking_bufferlist\l_send_all">
<polygon fill="#ffffff" stroke="#000000" points="633,-46.5 633,-76.5 758,-76.5 758,-46.5 633,-46.5"/>
<text text-anchor="start" x="641" y="-64.5" font-family="Helvetica,sans-Serif" font-size="10.00" fill="#000000">TooNetworking_bufferlist</text>
<text text-anchor="middle" x="695.5" y="-53.5" font-family="Helvetica,sans-Serif" font-size="10.00" fill="#000000">_send_all</text>
</a>
</g>
</g>
<!-- Node151&#45;&gt;Node155 -->
<g id="edge7" class="edge">
<title>Node151&#45;&gt;Node155</title>
<path fill="none" stroke="#191970" d="M280.4497,-63.5062C337.0624,-62.7867 417.511,-61.8769 488,-61.5 536.6321,-61.2399 591.6765,-61.2542 632.8461,-61.3257"/>
<polygon fill="#191970" stroke="#191970" points="280.1182,-60.0101 270.164,-63.6382 280.2081,-67.0095 280.1182,-60.0101"/>
</g>
<!-- Node153 -->
<g id="node4" class="node">
<title>Node153</title>
<g id="a_node4"><a xlink:href="TooNetworking_8h.html#a9209f3e1a2fdf0b3b88d49105b8fc359" target="_top" xlink:title="TooNetworking_send\l_signed">
<polygon fill="#ffffff" stroke="#000000" points="488,-71.5 488,-101.5 597,-101.5 597,-71.5 488,-71.5"/>
<text text-anchor="start" x="496" y="-89.5" font-family="Helvetica,sans-Serif" font-size="10.00" fill="#000000">TooNetworking_send</text>
<text text-anchor="middle" x="542.5" y="-78.5" font-family="Helvetica,sans-Serif" font-size="10.00" fill="#000000">_signed</text>
</a>
</g>
</g>
<!-- Node152&#45;&gt;Node153 -->
<g id="edge3" class="edge">
<title>Node152&#45;&gt;Node153</title>
<path fill="none" stroke="#191970" d="M462.2213,-86.5C470.8182,-86.5 479.3934,-86.5 487.5665,-86.5"/>
<polygon fill="#191970" stroke="#191970" points="462.1422,-83.0001 452.1421,-86.5 462.1421,-90.0001 462.1422,-83.0001"/>
</g>
<!-- Node154 -->
<g id="node5" class="node">
<title>Node154</title>
<g id="a_node5"><a xlink:href="TooNetworking_8h.html#a085ff748b00f6be4ebafcae2bb0dded1" target="_top" xlink:title="TooNetworking_bufferlist\l_send_signed">
<polygon fill="#ffffff" stroke="#000000" points="633,-105.5 633,-135.5 758,-135.5 758,-105.5 633,-105.5"/>
<text text-anchor="start" x="641" y="-123.5" font-family="Helvetica,sans-Serif" font-size="10.00" fill="#000000">TooNetworking_bufferlist</text>
<text text-anchor="middle" x="695.5" y="-112.5" font-family="Helvetica,sans-Serif" font-size="10.00" fill="#000000">_send_signed</text>
</a>
</g>
</g>
<!-- Node152&#45;&gt;Node154 -->
<g id="edge6" class="edge">
<title>Node152&#45;&gt;Node154</title>
<path fill="none" stroke="#191970" d="M423.4461,-98.6239C443.0818,-103.4778 466.537,-108.5978 488,-111.5 536.2395,-118.0228 591.3054,-120.1689 632.583,-120.7405"/>
<polygon fill="#191970" stroke="#191970" points="424.1098,-95.1816 413.5569,-96.123 422.3935,-101.968 424.1098,-95.1816"/>
</g>
<!-- Node153&#45;&gt;Node154 -->
<g id="edge4" class="edge">
<title>Node153&#45;&gt;Node154</title>
<path fill="none" stroke="#191970" d="M607.1421,-100.8649C615.6223,-102.7494 624.3018,-104.6782 632.7499,-106.5555"/>
<polygon fill="#191970" stroke="#191970" points="607.8255,-97.4315 597.3044,-98.6787 606.3069,-104.2648 607.8255,-97.4315"/>
</g>
<!-- Node153&#45;&gt;Node155 -->
<g id="edge5" class="edge">
<title>Node153&#45;&gt;Node155</title>
<path fill="none" stroke="#191970" d="M607.4187,-75.8924C615.811,-74.5211 624.3936,-73.1187 632.7499,-71.7533"/>
<polygon fill="#191970" stroke="#191970" points="606.609,-72.4782 597.3044,-77.545 607.7379,-79.3865 606.609,-72.4782"/>
</g>
</g>
</svg>
        <g id="navigator" transform="translate(0 0)" fill="#404254">
                <rect fill="#f2f5e9" fill-opacity="0.5" stroke="#606060" stroke-width=".5" x="0" y="0" width="60" height="60"/>
                <use id="zoomplus" xlink:href="#zoomPlus" x="17" y="9" onmousedown="handleZoom(evt,'in')"/>
                <use id="zoomminus" xlink:href="#zoomMin" x="42" y="9" onmousedown="handleZoom(evt,'out')"/>
                <use id="reset" xlink:href="#resetDef" x="30" y="36" onmousedown="handleReset()"/>
                <g id="arrowUp" xlink:href="#dirArrow" transform="translate(30 24)" onmousedown="handlePan(0,-1)">
                  <use xlink:href="#rim" fill="#404040">
                        <set attributeName="fill" to="#808080" begin="arrowUp.mouseover" end="arrowUp.mouseout"/>
                  </use>
                  <path fill="none" stroke="white" stroke-width="1.5" d="M0,-3.0v7 M-2.5,-0.5L0,-3.0L2.5,-0.5"/>
                </g>
                <g id="arrowRight" xlink:href="#dirArrow" transform="rotate(90) translate(36 -43)" onmousedown="handlePan(1,0)">
                  <use xlink:href="#rim" fill="#404040">
                        <set attributeName="fill" to="#808080" begin="arrowRight.mouseover" end="arrowRight.mouseout"/>
                  </use>
                  <path fill="none" stroke="white" stroke-width="1.5" d="M0,-3.0v7 M-2.5,-0.5L0,-3.0L2.5,-0.5"/>
                </g>
                <g id="arrowDown" xlink:href="#dirArrow" transform="rotate(180) translate(-30 -48)" onmousedown="handlePan(0,1)">
                  <use xlink:href="#rim" fill="#404040">
                        <set attributeName="fill" to="#808080" begin="arrowDown.mouseover" end="arrowDown.mouseout"/>
                  </use>
                  <path fill="none" stroke="white" stroke-width="1.5" d="M0,-3.0v7 M-2.5,-0.5L0,-3.0L2.5,-0.5"/>
                </g>
                <g id="arrowLeft" xlink:href="#dirArrow" transform="rotate(270) translate(-36 17)" onmousedown="handlePan(-1,0)">
                  <use xlink:href="#rim" fill="#404040">
                        <set attributeName="fill" to="#808080" begin="arrowLeft.mouseover" end="arrowLeft.mouseout"/>
                  </use>
                  <path fill="none" stroke="white" stroke-width="1.5" d="M0,-3.0v7 M-2.5,-0.5L0,-3.0L2.5,-0.5"/>
                </g>
        </g>
        <svg viewBox="0 0 15 15" width="100%" height="30px" preserveAspectRatio="xMaxYMin meet">
         <g id="arrow_out" transform="scale(0.3 0.3)">
          <a xlink:href="TooNetworking_8h_a46674b3fdc9ee370b0839869aa145b75_icgraph_org.svg" target="_base">
           <rect id="button" ry="5" rx="5" y="6" x="6" height="38" width="38"
                fill="#f2f5e9" fill-opacity="0.5" stroke="#606060" stroke-width="1.0"/>
           <path id="arrow"
             d="M 11.500037,31.436501 C 11.940474,20.09759 22.043105,11.32322 32.158766,21.979434 L 37.068811,17.246167 C 37.068811,17.246167 37.088388,32 37.088388,32 L 22.160133,31.978069 C 22.160133,31.978069 26.997745,27.140456 26.997745,27.140456 C 18.528582,18.264221 13.291696,25.230495 11.500037,31.436501 z"
             style="fill:#404040;"/>
          </a>
         </g>
        </svg>
</svg>
