<?xml version="1.0" encoding="UTF-8" standalone="no"?>
<!DOCTYPE svg PUBLIC "-//W3C//DTD SVG 1.1//EN"
 "http://www.w3.org/Graphics/SVG/1.1/DTD/svg11.dtd">
<!-- Generated by graphviz version 2.40.1 (20161225.0304)
 -->
<!-- Title: TooNetworking_connection_fix Pages: 1 -->
<!--zoomable 83 -->
<svg id="main" version="1.1" xmlns="http://www.w3.org/2000/svg" xmlns:xlink="http://www.w3.org/1999/xlink" xml:space="preserve" onload="init(evt)">
<style type="text/css"><![CDATA[
.edge:hover path { stroke: red; }
.edge:hover polygon { stroke: red; fill: red; }
]]></style>
<script type="text/javascript"><![CDATA[
var edges = document.getElementsByTagName('g');
if (edges && edges.length) {
  for (var i=0;i<edges.length;i++) {
    if (edges[i].id.substr(0,4)=='edge') {
      edges[i].setAttribute('class','edge');
    }
  }
}
]]></script>
        <defs>
                <circle id="rim" cx="0" cy="0" r="7"/>
                <circle id="rim2" cx="0" cy="0" r="3.5"/>
                <g id="zoomPlus">
                        <use xlink:href="#rim" fill="#404040">
                                <set attributeName="fill" to="#808080" begin="zoomplus.mouseover" end="zoomplus.mouseout"/>
                        </use>
                        <path d="M-4,0h8M0,-4v8" fill="none" stroke="white" stroke-width="1.5" pointer-events="none"/>
                </g>
                <g id="zoomMin">
                        <use xlink:href="#rim" fill="#404040">
                                <set attributeName="fill" to="#808080" begin="zoomminus.mouseover" end="zoomminus.mouseout"/>
                        </use>
                        <path d="M-4,0h8" fill="none" stroke="white" stroke-width="1.5" pointer-events="none"/>
                </g>
                <g id="dirArrow">
                        <path fill="none" stroke="white" stroke-width="1.5" d="M0,-3.0v7 M-2.5,-0.5L0,-3.0L2.5,-0.5"/>
                </g>
               <g id="resetDef">
                       <use xlink:href="#rim2" fill="#404040">
                               <set attributeName="fill" to="#808080" begin="reset.mouseover" end="reset.mouseout"/>
                       </use>
               </g>
        </defs>

<script type="text/javascript">
var viewWidth = 1043;
var viewHeight = 83;
var sectionId = 'dynsection-19';
</script>
<script xlink:href="svgpan.js"/>
<svg id="graph" class="graph">
<g id="viewport">
<title>TooNetworking_connection_fix</title>
<polygon fill="#ffffff" stroke="transparent" points="-4,4 -4,-79 1039,-79 1039,4 -4,4"/>
<!-- Node156 -->
<g id="node1" class="node">
<title>Node156</title>
<polygon fill="#bfbfbf" stroke="#000000" points="0,-28 0,-47 151,-47 151,-28 0,-28"/>
<text text-anchor="middle" x="75.5" y="-35" font-family="Helvetica,sans-Serif" font-size="10.00" fill="#000000">TooNetworking_connection_fix</text>
</g>
<!-- Node157 -->
<g id="node2" class="node">
<title>Node157</title>
<g id="a_node2"><a xlink:href="TooNetworking_8h.html#ab5dfe46515ee5ca8f9893675df673d96" target="_top" xlink:title="TooNetworking_send\l_signed">
<polygon fill="#ffffff" stroke="#000000" points="199.5,-44.5 199.5,-74.5 308.5,-74.5 308.5,-44.5 199.5,-44.5"/>
<text text-anchor="start" x="207.5" y="-62.5" font-family="Helvetica,sans-Serif" font-size="10.00" fill="#000000">TooNetworking_send</text>
<text text-anchor="middle" x="254" y="-51.5" font-family="Helvetica,sans-Serif" font-size="10.00" fill="#000000">_signed</text>
</a>
</g>
</g>
<!-- Node156&#45;&gt;Node157 -->
<g id="edge1" class="edge">
<title>Node156&#45;&gt;Node157</title>
<path fill="none" stroke="#191970" d="M161.4826,-48.0973C174.3538,-49.6837 187.3157,-51.2812 199.2957,-52.7577"/>
<polygon fill="#191970" stroke="#191970" points="161.5531,-44.5796 151.2001,-46.83 160.6968,-51.527 161.5531,-44.5796"/>
</g>
<!-- Node158 -->
<g id="node3" class="node">
<title>Node158</title>
<g id="a_node3"><a xlink:href="TooSigning_8h.html#abf99e5d9b5ec252bfff3bf26c0ba9e37" target="_top" xlink:title="TooSigning_connection_fix">
<polygon fill="#ffffff" stroke="#000000" points="187,-6 187,-25 321,-25 321,-6 187,-6"/>
<text text-anchor="middle" x="254" y="-13" font-family="Helvetica,sans-Serif" font-size="10.00" fill="#000000">TooSigning_connection_fix</text>
</a>
</g>
</g>
<!-- Node156&#45;&gt;Node158 -->
<g id="edge2" class="edge">
<title>Node156&#45;&gt;Node158</title>
<path fill="none" stroke="#191970" d="M161.2802,-26.9277C169.9003,-25.8652 178.5636,-24.7975 186.9479,-23.7641"/>
<polygon fill="#191970" stroke="#191970" points="160.6968,-23.473 151.2001,-28.17 161.5531,-30.4204 160.6968,-23.473"/>
</g>
<!-- Node159 -->
<g id="node4" class="node">
<title>Node159</title>
<g id="a_node4"><a xlink:href="TooSigning_8h.html#a58143364a83636a3d2df075a95cb2bfc" target="_top" xlink:title="TooSigning_request\l_nonce_from_node_id">
<polygon fill="#ffffff" stroke="#000000" points="357,-.5 357,-30.5 469,-30.5 469,-.5 357,-.5"/>
<text text-anchor="start" x="365" y="-18.5" font-family="Helvetica,sans-Serif" font-size="10.00" fill="#000000">TooSigning_request</text>
<text text-anchor="middle" x="413" y="-7.5" font-family="Helvetica,sans-Serif" font-size="10.00" fill="#000000">_nonce_from_node_id</text>
</a>
</g>
</g>
<!-- Node158&#45;&gt;Node159 -->
<g id="edge3" class="edge">
<title>Node158&#45;&gt;Node159</title>
<path fill="none" stroke="#191970" d="M331.4911,-15.5C340.0943,-15.5 348.7289,-15.5 356.9915,-15.5"/>
<polygon fill="#191970" stroke="#191970" points="331.4303,-12.0001 321.4303,-15.5 331.4303,-19.0001 331.4303,-12.0001"/>
</g>
<!-- Node160 -->
<g id="node5" class="node">
<title>Node160</title>
<g id="a_node5"><a xlink:href="TooSigning_8h.html#af7ec4002cf8cf81195f3745703e04b22" target="_top" xlink:title="TooSigning_requested\l_noncelist_retry_all">
<polygon fill="#ffffff" stroke="#000000" points="505,-.5 505,-30.5 618,-30.5 618,-.5 505,-.5"/>
<text text-anchor="start" x="513" y="-18.5" font-family="Helvetica,sans-Serif" font-size="10.00" fill="#000000">TooSigning_requested</text>
<text text-anchor="middle" x="561.5" y="-7.5" font-family="Helvetica,sans-Serif" font-size="10.00" fill="#000000">_noncelist_retry_all</text>
</a>
</g>
</g>
<!-- Node159&#45;&gt;Node160 -->
<g id="edge4" class="edge">
<title>Node159&#45;&gt;Node160</title>
<path fill="none" stroke="#191970" d="M479.3845,-15.5C487.8629,-15.5 496.4796,-15.5 504.7858,-15.5"/>
<polygon fill="#191970" stroke="#191970" points="479.1415,-12.0001 469.1415,-15.5 479.1414,-19.0001 479.1415,-12.0001"/>
</g>
<!-- Node161 -->
<g id="node6" class="node">
<title>Node161</title>
<g id="a_node6"><a xlink:href="TooSigning_8h.html#af68b8dda897cf488129c205ad532ca9e" target="_top" xlink:title="TooSigning_signed_network\l_update">
<polygon fill="#ffffff" stroke="#000000" points="654,-.5 654,-30.5 793,-30.5 793,-.5 654,-.5"/>
<text text-anchor="start" x="662" y="-18.5" font-family="Helvetica,sans-Serif" font-size="10.00" fill="#000000">TooSigning_signed_network</text>
<text text-anchor="middle" x="723.5" y="-7.5" font-family="Helvetica,sans-Serif" font-size="10.00" fill="#000000">_update</text>
</a>
</g>
</g>
<!-- Node160&#45;&gt;Node161 -->
<g id="edge5" class="edge">
<title>Node160&#45;&gt;Node161</title>
<path fill="none" stroke="#191970" d="M628.2848,-15.5C636.6921,-15.5 645.3103,-15.5 653.7617,-15.5"/>
<polygon fill="#191970" stroke="#191970" points="628.1598,-12.0001 618.1597,-15.5 628.1597,-19.0001 628.1598,-12.0001"/>
</g>
<!-- Node162 -->
<g id="node7" class="node">
<title>Node162</title>
<g id="a_node7"><a xlink:href="TooNetworking_8h.html#a7382ba1aed5405c3adc02011ea6c45dd" target="_top" xlink:title="TooNetworking_connection\l_maintenance">
<polygon fill="#ffffff" stroke="#000000" points="829,-.5 829,-30.5 964,-30.5 964,-.5 829,-.5"/>
<text text-anchor="start" x="837" y="-18.5" font-family="Helvetica,sans-Serif" font-size="10.00" fill="#000000">TooNetworking_connection</text>
<text text-anchor="middle" x="896.5" y="-7.5" font-family="Helvetica,sans-Serif" font-size="10.00" fill="#000000">_maintenance</text>
</a>
</g>
</g>
<!-- Node161&#45;&gt;Node162 -->
<g id="edge6" class="edge">
<title>Node161&#45;&gt;Node162</title>
<path fill="none" stroke="#191970" d="M803.6166,-15.5C812.0706,-15.5 820.6064,-15.5 828.8985,-15.5"/>
<polygon fill="#191970" stroke="#191970" points="803.3671,-12.0001 793.3671,-15.5 803.367,-19.0001 803.3671,-12.0001"/>
</g>
<!-- Node163 -->
<g id="node8" class="node">
<title>Node163</title>
<g id="a_node8"><a xlink:href="NODE__SKETCH__TooAutomation__Node_8ino_8cpp.html#a0b33edabd7f1c4e4a0bf32c67269be2f" target="_top" xlink:title="loop">
<polygon fill="#ffffff" stroke="#000000" points="1000,-6 1000,-25 1035,-25 1035,-6 1000,-6"/>
<text text-anchor="middle" x="1017.5" y="-13" font-family="Helvetica,sans-Serif" font-size="10.00" fill="#000000">loop</text>
</a>
</g>
</g>
<!-- Node162&#45;&gt;Node163 -->
<g id="edge7" class="edge">
<title>Node162&#45;&gt;Node163</title>
<path fill="none" stroke="#191970" d="M974.1566,-15.5C983.6588,-15.5 992.5454,-15.5 999.7679,-15.5"/>
<polygon fill="#191970" stroke="#191970" points="974.0755,-12.0001 964.0754,-15.5 974.0754,-19.0001 974.0755,-12.0001"/>
</g>
</g>
</svg>
        <g id="navigator" transform="translate(0 0)" fill="#404254">
                <rect fill="#f2f5e9" fill-opacity="0.5" stroke="#606060" stroke-width=".5" x="0" y="0" width="60" height="60"/>
                <use id="zoomplus" xlink:href="#zoomPlus" x="17" y="9" onmousedown="handleZoom(evt,'in')"/>
                <use id="zoomminus" xlink:href="#zoomMin" x="42" y="9" onmousedown="handleZoom(evt,'out')"/>
                <use id="reset" xlink:href="#resetDef" x="30" y="36" onmousedown="handleReset()"/>
                <g id="arrowUp" xlink:href="#dirArrow" transform="translate(30 24)" onmousedown="handlePan(0,-1)">
                  <use xlink:href="#rim" fill="#404040">
                        <set attributeName="fill" to="#808080" begin="arrowUp.mouseover" end="arrowUp.mouseout"/>
                  </use>
                  <path fill="none" stroke="white" stroke-width="1.5" d="M0,-3.0v7 M-2.5,-0.5L0,-3.0L2.5,-0.5"/>
                </g>
                <g id="arrowRight" xlink:href="#dirArrow" transform="rotate(90) translate(36 -43)" onmousedown="handlePan(1,0)">
                  <use xlink:href="#rim" fill="#404040">
                        <set attributeName="fill" to="#808080" begin="arrowRight.mouseover" end="arrowRight.mouseout"/>
                  </use>
                  <path fill="none" stroke="white" stroke-width="1.5" d="M0,-3.0v7 M-2.5,-0.5L0,-3.0L2.5,-0.5"/>
                </g>
                <g id="arrowDown" xlink:href="#dirArrow" transform="rotate(180) translate(-30 -48)" onmousedown="handlePan(0,1)">
                  <use xlink:href="#rim" fill="#404040">
                        <set attributeName="fill" to="#808080" begin="arrowDown.mouseover" end="arrowDown.mouseout"/>
                  </use>
                  <path fill="none" stroke="white" stroke-width="1.5" d="M0,-3.0v7 M-2.5,-0.5L0,-3.0L2.5,-0.5"/>
                </g>
                <g id="arrowLeft" xlink:href="#dirArrow" transform="rotate(270) translate(-36 17)" onmousedown="handlePan(-1,0)">
                  <use xlink:href="#rim" fill="#404040">
                        <set attributeName="fill" to="#808080" begin="arrowLeft.mouseover" end="arrowLeft.mouseout"/>
                  </use>
                  <path fill="none" stroke="white" stroke-width="1.5" d="M0,-3.0v7 M-2.5,-0.5L0,-3.0L2.5,-0.5"/>
                </g>
        </g>
        <svg viewBox="0 0 15 15" width="100%" height="30px" preserveAspectRatio="xMaxYMin meet">
         <g id="arrow_out" transform="scale(0.3 0.3)">
          <a xlink:href="TooNetworking_8cpp_aefc5dad88b637efb11a3a7b2f76a19b9_icgraph_org.svg" target="_base">
           <rect id="button" ry="5" rx="5" y="6" x="6" height="38" width="38"
                fill="#f2f5e9" fill-opacity="0.5" stroke="#606060" stroke-width="1.0"/>
           <path id="arrow"
             d="M 11.500037,31.436501 C 11.940474,20.09759 22.043105,11.32322 32.158766,21.979434 L 37.068811,17.246167 C 37.068811,17.246167 37.088388,32 37.088388,32 L 22.160133,31.978069 C 22.160133,31.978069 26.997745,27.140456 26.997745,27.140456 C 18.528582,18.264221 13.291696,25.230495 11.500037,31.436501 z"
             style="fill:#404040;"/>
          </a>
         </g>
        </svg>
</svg>
