<?xml version="1.0" encoding="UTF-8" standalone="no"?>
<!DOCTYPE svg PUBLIC "-//W3C//DTD SVG 1.1//EN"
 "http://www.w3.org/Graphics/SVG/1.1/DTD/svg11.dtd">
<!-- Generated by graphviz version 2.40.1 (20161225.0304)
 -->
<!-- Title: TooNetworking_send Pages: 1 -->
<!--zoomable 125 -->
<svg id="main" version="1.1" xmlns="http://www.w3.org/2000/svg" xmlns:xlink="http://www.w3.org/1999/xlink" xml:space="preserve" onload="init(evt)">
<style type="text/css"><![CDATA[
.edge:hover path { stroke: red; }
.edge:hover polygon { stroke: red; fill: red; }
]]></style>
<script type="text/javascript"><![CDATA[
var edges = document.getElementsByTagName('g');
if (edges && edges.length) {
  for (var i=0;i<edges.length;i++) {
    if (edges[i].id.substr(0,4)=='edge') {
      edges[i].setAttribute('class','edge');
    }
  }
}
]]></script>
        <defs>
                <circle id="rim" cx="0" cy="0" r="7"/>
                <circle id="rim2" cx="0" cy="0" r="3.5"/>
                <g id="zoomPlus">
                        <use xlink:href="#rim" fill="#404040">
                                <set attributeName="fill" to="#808080" begin="zoomplus.mouseover" end="zoomplus.mouseout"/>
                        </use>
                        <path d="M-4,0h8M0,-4v8" fill="none" stroke="white" stroke-width="1.5" pointer-events="none"/>
                </g>
                <g id="zoomMin">
                        <use xlink:href="#rim" fill="#404040">
                                <set attributeName="fill" to="#808080" begin="zoomminus.mouseover" end="zoomminus.mouseout"/>
                        </use>
                        <path d="M-4,0h8" fill="none" stroke="white" stroke-width="1.5" pointer-events="none"/>
                </g>
                <g id="dirArrow">
                        <path fill="none" stroke="white" stroke-width="1.5" d="M0,-3.0v7 M-2.5,-0.5L0,-3.0L2.5,-0.5"/>
                </g>
               <g id="resetDef">
                       <use xlink:href="#rim2" fill="#404040">
                               <set attributeName="fill" to="#808080" begin="reset.mouseover" end="reset.mouseout"/>
                       </use>
               </g>
        </defs>

<script type="text/javascript">
var viewWidth = 692;
var viewHeight = 125;
var sectionId = 'dynsection-23';
</script>
<script xlink:href="svgpan.js"/>
<svg id="graph" class="graph">
<g id="viewport">
<title>TooNetworking_send</title>
<polygon fill="#ffffff" stroke="transparent" points="-4,4 -4,-121.4731 688,-121.4731 688,4 -4,4"/>
<!-- Node228 -->
<g id="node1" class="node">
<title>Node228</title>
<polygon fill="#bfbfbf" stroke="#000000" points="0,-52.9731 0,-71.9731 109,-71.9731 109,-52.9731 0,-52.9731"/>
<text text-anchor="middle" x="54.5" y="-59.9731" font-family="Helvetica,sans-Serif" font-size="10.00" fill="#000000">TooNetworking_send</text>
</g>
<!-- Node229 -->
<g id="node2" class="node">
<title>Node229</title>
<g id="a_node2"><a xlink:href="TooNetworking_8h.html#a0ad03a7efb42cf40ca3e20fb5df3a5db" target="_top" xlink:title="TooNetworking_bufferlist\l_send_">
<polygon fill="#ffffff" stroke="#000000" points="145,-72.4731 145,-102.4731 270,-102.4731 270,-72.4731 145,-72.4731"/>
<text text-anchor="start" x="153" y="-90.4731" font-family="Helvetica,sans-Serif" font-size="10.00" fill="#000000">TooNetworking_bufferlist</text>
<text text-anchor="middle" x="207.5" y="-79.4731" font-family="Helvetica,sans-Serif" font-size="10.00" fill="#000000">_send_</text>
</a>
</g>
</g>
<!-- Node228&#45;&gt;Node229 -->
<g id="edge1" class="edge">
<title>Node228&#45;&gt;Node229</title>
<path fill="none" stroke="#191970" d="M119.4187,-73.0807C127.811,-74.452 136.3936,-75.8544 144.7499,-77.2198"/>
<polygon fill="#191970" stroke="#191970" points="119.7379,-69.5865 109.3044,-71.428 118.609,-76.4949 119.7379,-69.5865"/>
</g>
<!-- Node235 -->
<g id="node8" class="node">
<title>Node235</title>
<g id="a_node8"><a xlink:href="TooNetworking_8h.html#a9f893c3218491ee86282fdcd9f376500" target="_top" xlink:title="TooNetworking_send\l_signed_">
<polygon fill="#ffffff" stroke="#000000" points="153,-23.4731 153,-53.4731 262,-53.4731 262,-23.4731 153,-23.4731"/>
<text text-anchor="start" x="161" y="-41.4731" font-family="Helvetica,sans-Serif" font-size="10.00" fill="#000000">TooNetworking_send</text>
<text text-anchor="middle" x="207.5" y="-30.4731" font-family="Helvetica,sans-Serif" font-size="10.00" fill="#000000">_signed_</text>
</a>
</g>
</g>
<!-- Node228&#45;&gt;Node235 -->
<g id="edge7" class="edge">
<title>Node228&#45;&gt;Node235</title>
<path fill="none" stroke="#191970" d="M119.4022,-52.2923C130.5305,-50.5467 141.9941,-48.7485 152.8213,-47.0501"/>
<polygon fill="#191970" stroke="#191970" points="118.6411,-48.8688 109.3044,-53.8763 119.726,-55.7843 118.6411,-48.8688"/>
</g>
<!-- Node230 -->
<g id="node3" class="node">
<title>Node230</title>
<g id="a_node3"><a xlink:href="TooNetworking_8h.html#a59be7e774988f57ab43c4c078c570c67" target="_top" xlink:title="TooNetworking_bufferlist_add">
<polygon fill="#ffffff" stroke="#000000" points="306,-97.9731 306,-116.9731 452,-116.9731 452,-97.9731 306,-97.9731"/>
<text text-anchor="middle" x="379" y="-104.9731" font-family="Helvetica,sans-Serif" font-size="10.00" fill="#000000">TooNetworking_bufferlist_add</text>
</a>
</g>
</g>
<!-- Node229&#45;&gt;Node230 -->
<g id="edge2" class="edge">
<title>Node229&#45;&gt;Node230</title>
<path fill="none" stroke="#191970" d="M280.5451,-95.9914C288.9597,-96.9727 297.5412,-97.9735 305.9558,-98.9548"/>
<polygon fill="#191970" stroke="#191970" points="280.7246,-92.4887 270.3864,-94.8068 279.9137,-99.4416 280.7246,-92.4887"/>
</g>
<!-- Node234 -->
<g id="node7" class="node">
<title>Node234</title>
<g id="a_node7"><a xlink:href="TooNetworking_8h.html#ab58e06e0eb6f2f8ecbebeaf3c173fb22" target="_top" xlink:title="TooNetworking_bufferlist\l_send_all">
<polygon fill="#ffffff" stroke="#000000" points="316.5,-48.4731 316.5,-78.4731 441.5,-78.4731 441.5,-48.4731 316.5,-48.4731"/>
<text text-anchor="start" x="324.5" y="-66.4731" font-family="Helvetica,sans-Serif" font-size="10.00" fill="#000000">TooNetworking_bufferlist</text>
<text text-anchor="middle" x="379" y="-55.4731" font-family="Helvetica,sans-Serif" font-size="10.00" fill="#000000">_send_all</text>
</a>
</g>
</g>
<!-- Node229&#45;&gt;Node234 -->
<g id="edge6" class="edge">
<title>Node229&#45;&gt;Node234</title>
<path fill="none" stroke="#191970" d="M280.3595,-77.277C292.3538,-75.5985 304.6925,-73.8718 316.4078,-72.2323"/>
<polygon fill="#191970" stroke="#191970" points="279.8048,-73.8204 270.3864,-78.6726 280.775,-80.7529 279.8048,-73.8204"/>
</g>
<!-- Node231 -->
<g id="node4" class="node">
<title>Node231</title>
<g id="a_node4"><a xlink:href="TooNetworking_8h.html#a9209f3e1a2fdf0b3b88d49105b8fc359" target="_top" xlink:title="TooNetworking_send\l_signed">
<polygon fill="#ffffff" stroke="#000000" points="496,-72.4731 496,-102.4731 605,-102.4731 605,-72.4731 496,-72.4731"/>
<text text-anchor="start" x="504" y="-90.4731" font-family="Helvetica,sans-Serif" font-size="10.00" fill="#000000">TooNetworking_send</text>
<text text-anchor="middle" x="550.5" y="-79.4731" font-family="Helvetica,sans-Serif" font-size="10.00" fill="#000000">_signed</text>
</a>
</g>
</g>
<!-- Node230&#45;&gt;Node231 -->
<g id="edge3" class="edge">
<title>Node230&#45;&gt;Node231</title>
<path fill="none" stroke="#191970" d="M462.2478,-97.7649C473.6894,-96.4306 485.1905,-95.0893 495.9353,-93.8363"/>
<polygon fill="#191970" stroke="#191970" points="461.7561,-94.2984 452.2289,-98.9332 462.567,-101.2513 461.7561,-94.2984"/>
</g>
<!-- Node232 -->
<g id="node5" class="node">
<title>Node232</title>
<g id="a_node5"><a xlink:href="TooNetworking_8h.html#a085ff748b00f6be4ebafcae2bb0dded1" target="_top" xlink:title="TooNetworking_bufferlist\l_send_signed">
<polygon fill="#ffffff" stroke="#000000" points="488,-4.4731 488,-34.4731 613,-34.4731 613,-4.4731 488,-4.4731"/>
<text text-anchor="start" x="496" y="-22.4731" font-family="Helvetica,sans-Serif" font-size="10.00" fill="#000000">TooNetworking_bufferlist</text>
<text text-anchor="middle" x="550.5" y="-11.4731" font-family="Helvetica,sans-Serif" font-size="10.00" fill="#000000">_send_signed</text>
</a>
</g>
</g>
<!-- Node230&#45;&gt;Node232 -->
<g id="edge4" class="edge">
<title>Node230&#45;&gt;Node232</title>
<path fill="none" stroke="#191970" d="M435.4317,-94.9629C441.1284,-93.0573 446.7451,-90.9012 452,-88.4731 453.0543,-87.9859 500.2632,-54.8175 528.9333,-34.6507"/>
<polygon fill="#191970" stroke="#191970" points="434.3371,-91.6377 425.8184,-97.9371 436.4062,-98.325 434.3371,-91.6377"/>
</g>
<!-- Node233 -->
<g id="node6" class="node">
<title>Node233</title>
<g id="a_node6"><a xlink:href="NODE__SKETCH__TooAutomation__Node_8ino_8cpp.html#a0b33edabd7f1c4e4a0bf32c67269be2f" target="_top" xlink:title="loop">
<polygon fill="#ffffff" stroke="#000000" points="649,-9.9731 649,-28.9731 684,-28.9731 684,-9.9731 649,-9.9731"/>
<text text-anchor="middle" x="666.5" y="-16.9731" font-family="Helvetica,sans-Serif" font-size="10.00" fill="#000000">loop</text>
</a>
</g>
</g>
<!-- Node232&#45;&gt;Node233 -->
<g id="edge5" class="edge">
<title>Node232&#45;&gt;Node233</title>
<path fill="none" stroke="#191970" d="M623.5149,-19.4731C632.8175,-19.4731 641.5667,-19.4731 648.7123,-19.4731"/>
<polygon fill="#191970" stroke="#191970" points="623.2531,-15.9732 613.2531,-19.4731 623.253,-22.9732 623.2531,-15.9732"/>
</g>
<!-- Node235&#45;&gt;Node230 -->
<g id="edge8" class="edge">
<title>Node235&#45;&gt;Node230</title>
<path fill="none" stroke="#191970" d="M258.4317,-57.7113C262.3966,-59.5517 266.2953,-61.4792 270,-63.4731 287.1531,-72.705 288.3002,-80.3383 306,-88.4731 314.2105,-92.2466 323.2983,-95.3662 332.1939,-97.9104"/>
<polygon fill="#191970" stroke="#191970" points="259.6809,-54.4367 249.1204,-53.5851 256.8449,-60.8365 259.6809,-54.4367"/>
</g>
<!-- Node235&#45;&gt;Node231 -->
<g id="edge9" class="edge">
<title>Node235&#45;&gt;Node231</title>
<path fill="none" stroke="#191970" d="M272.2178,-30.4912C322.0461,-26.2512 392.272,-24.4372 452,-38.4731 479.704,-44.9834 508.5267,-60.5145 527.7809,-72.3603"/>
<polygon fill="#191970" stroke="#191970" points="271.8628,-27.009 262.2198,-31.3978 272.495,-33.9804 271.8628,-27.009"/>
</g>
<!-- Node235&#45;&gt;Node232 -->
<g id="edge10" class="edge">
<title>Node235&#45;&gt;Node232</title>
<path fill="none" stroke="#191970" d="M252.669,-19.9334C269.1583,-14.0812 288.1446,-8.3845 306,-5.4731 367.2663,4.517 438.1759,-1.4415 487.8022,-8.4065"/>
<polygon fill="#191970" stroke="#191970" points="251.4603,-16.6486 243.2763,-23.3771 253.87,-23.2208 251.4603,-16.6486"/>
</g>
<!-- Node235&#45;&gt;Node234 -->
<g id="edge11" class="edge">
<title>Node235&#45;&gt;Node234</title>
<path fill="none" stroke="#191970" d="M272.5408,-47.9542C286.9292,-50.0517 302.145,-52.2697 316.4325,-54.3524"/>
<polygon fill="#191970" stroke="#191970" points="272.6355,-44.4311 262.2352,-46.452 271.6257,-51.3579 272.6355,-44.4311"/>
</g>
</g>
</svg>
        <g id="navigator" transform="translate(0 0)" fill="#404254">
                <rect fill="#f2f5e9" fill-opacity="0.5" stroke="#606060" stroke-width=".5" x="0" y="0" width="60" height="60"/>
                <use id="zoomplus" xlink:href="#zoomPlus" x="17" y="9" onmousedown="handleZoom(evt,'in')"/>
                <use id="zoomminus" xlink:href="#zoomMin" x="42" y="9" onmousedown="handleZoom(evt,'out')"/>
                <use id="reset" xlink:href="#resetDef" x="30" y="36" onmousedown="handleReset()"/>
                <g id="arrowUp" xlink:href="#dirArrow" transform="translate(30 24)" onmousedown="handlePan(0,-1)">
                  <use xlink:href="#rim" fill="#404040">
                        <set attributeName="fill" to="#808080" begin="arrowUp.mouseover" end="arrowUp.mouseout"/>
                  </use>
                  <path fill="none" stroke="white" stroke-width="1.5" d="M0,-3.0v7 M-2.5,-0.5L0,-3.0L2.5,-0.5"/>
                </g>
                <g id="arrowRight" xlink:href="#dirArrow" transform="rotate(90) translate(36 -43)" onmousedown="handlePan(1,0)">
                  <use xlink:href="#rim" fill="#404040">
                        <set attributeName="fill" to="#808080" begin="arrowRight.mouseover" end="arrowRight.mouseout"/>
                  </use>
                  <path fill="none" stroke="white" stroke-width="1.5" d="M0,-3.0v7 M-2.5,-0.5L0,-3.0L2.5,-0.5"/>
                </g>
                <g id="arrowDown" xlink:href="#dirArrow" transform="rotate(180) translate(-30 -48)" onmousedown="handlePan(0,1)">
                  <use xlink:href="#rim" fill="#404040">
                        <set attributeName="fill" to="#808080" begin="arrowDown.mouseover" end="arrowDown.mouseout"/>
                  </use>
                  <path fill="none" stroke="white" stroke-width="1.5" d="M0,-3.0v7 M-2.5,-0.5L0,-3.0L2.5,-0.5"/>
                </g>
                <g id="arrowLeft" xlink:href="#dirArrow" transform="rotate(270) translate(-36 17)" onmousedown="handlePan(-1,0)">
                  <use xlink:href="#rim" fill="#404040">
                        <set attributeName="fill" to="#808080" begin="arrowLeft.mouseover" end="arrowLeft.mouseout"/>
                  </use>
                  <path fill="none" stroke="white" stroke-width="1.5" d="M0,-3.0v7 M-2.5,-0.5L0,-3.0L2.5,-0.5"/>
                </g>
        </g>
        <svg viewBox="0 0 15 15" width="100%" height="30px" preserveAspectRatio="xMaxYMin meet">
         <g id="arrow_out" transform="scale(0.3 0.3)">
          <a xlink:href="TooNetworking_8h_a46674b3fdc9ee370b0839869aa145b75_icgraph_org.svg" target="_base">
           <rect id="button" ry="5" rx="5" y="6" x="6" height="38" width="38"
                fill="#f2f5e9" fill-opacity="0.5" stroke="#606060" stroke-width="1.0"/>
           <path id="arrow"
             d="M 11.500037,31.436501 C 11.940474,20.09759 22.043105,11.32322 32.158766,21.979434 L 37.068811,17.246167 C 37.068811,17.246167 37.088388,32 37.088388,32 L 22.160133,31.978069 C 22.160133,31.978069 26.997745,27.140456 26.997745,27.140456 C 18.528582,18.264221 13.291696,25.230495 11.500037,31.436501 z"
             style="fill:#404040;"/>
          </a>
         </g>
        </svg>
</svg>
