<?xml version="1.0" encoding="UTF-8" standalone="no"?>
<!DOCTYPE svg PUBLIC "-//W3C//DTD SVG 1.1//EN"
 "http://www.w3.org/Graphics/SVG/1.1/DTD/svg11.dtd">
<!-- Generated by graphviz version 2.40.1 (20161225.0304)
 -->
<!-- Title: TooNetworking_send_signed_ Pages: 1 -->
<svg width="531pt" height="152pt"
 viewBox="0.00 0.00 531.00 152.00" xmlns="http://www.w3.org/2000/svg" xmlns:xlink="http://www.w3.org/1999/xlink">
<g id="graph0" class="graph" transform="scale(1 1) rotate(0) translate(4 148)">
<title>TooNetworking_send_signed_</title>
<polygon fill="#ffffff" stroke="transparent" points="-4,4 -4,-148 527,-148 527,4 -4,4"/>
<!-- Node323 -->
<g id="node1" class="node">
<title>Node323</title>
<polygon fill="#bfbfbf" stroke="#000000" points="0,-63.5 0,-93.5 109,-93.5 109,-63.5 0,-63.5"/>
<text text-anchor="start" x="8" y="-81.5" font-family="Helvetica,sans-Serif" font-size="10.00" fill="#000000">TooNetworking_send</text>
<text text-anchor="middle" x="54.5" y="-70.5" font-family="Helvetica,sans-Serif" font-size="10.00" fill="#000000">_signed_</text>
</g>
<!-- Node324 -->
<g id="node2" class="node">
<title>Node324</title>
<g id="a_node2"><a xlink:href="TooNetworking_8h.html#a59be7e774988f57ab43c4c078c570c67" target="_top" xlink:title="TooNetworking_bufferlist_add">
<polygon fill="#ffffff" stroke="#000000" points="145,-88 145,-107 291,-107 291,-88 145,-88"/>
<text text-anchor="middle" x="218" y="-95" font-family="Helvetica,sans-Serif" font-size="10.00" fill="#000000">TooNetworking_bufferlist_add</text>
</a>
</g>
</g>
<!-- Node323&#45;&gt;Node324 -->
<g id="edge1" class="edge">
<title>Node323&#45;&gt;Node324</title>
<path fill="none" stroke="#191970" d="M119.465,-86.0495C127.8386,-87.0225 136.4576,-88.0241 144.95,-89.011"/>
<polygon fill="#191970" stroke="#191970" points="119.7352,-82.5574 109.398,-84.8796 118.9271,-89.5106 119.7352,-82.5574"/>
</g>
<!-- Node325 -->
<g id="node3" class="node">
<title>Node325</title>
<g id="a_node3"><a xlink:href="TooNetworking_8h.html#a9209f3e1a2fdf0b3b88d49105b8fc359" target="_top" xlink:title="TooNetworking_send\l_signed">
<polygon fill="#ffffff" stroke="#000000" points="335,-113.5 335,-143.5 444,-143.5 444,-113.5 335,-113.5"/>
<text text-anchor="start" x="343" y="-131.5" font-family="Helvetica,sans-Serif" font-size="10.00" fill="#000000">TooNetworking_send</text>
<text text-anchor="middle" x="389.5" y="-120.5" font-family="Helvetica,sans-Serif" font-size="10.00" fill="#000000">_signed</text>
</a>
</g>
</g>
<!-- Node323&#45;&gt;Node325 -->
<g id="edge5" class="edge">
<title>Node323&#45;&gt;Node325</title>
<path fill="none" stroke="#191970" d="M92.7915,-98.0649C108.552,-105.185 127.2477,-112.4689 145,-116.5 209.0309,-131.0397 284.829,-132.4003 334.8689,-131.1936"/>
<polygon fill="#191970" stroke="#191970" points="93.9348,-94.7363 83.3924,-93.6834 90.9772,-101.0808 93.9348,-94.7363"/>
</g>
<!-- Node326 -->
<g id="node4" class="node">
<title>Node326</title>
<g id="a_node4"><a xlink:href="TooNetworking_8h.html#a085ff748b00f6be4ebafcae2bb0dded1" target="_top" xlink:title="TooNetworking_bufferlist\l_send_signed">
<polygon fill="#ffffff" stroke="#000000" points="327,-57.5 327,-87.5 452,-87.5 452,-57.5 327,-57.5"/>
<text text-anchor="start" x="335" y="-75.5" font-family="Helvetica,sans-Serif" font-size="10.00" fill="#000000">TooNetworking_bufferlist</text>
<text text-anchor="middle" x="389.5" y="-64.5" font-family="Helvetica,sans-Serif" font-size="10.00" fill="#000000">_send_signed</text>
</a>
</g>
</g>
<!-- Node323&#45;&gt;Node326 -->
<g id="edge6" class="edge">
<title>Node323&#45;&gt;Node326</title>
<path fill="none" stroke="#191970" d="M119.1738,-77.3417C179.1187,-76.268 267.722,-74.6811 326.971,-73.6199"/>
<polygon fill="#191970" stroke="#191970" points="119.0048,-73.844 109.0691,-77.5226 119.1302,-80.8429 119.0048,-73.844"/>
</g>
<!-- Node328 -->
<g id="node6" class="node">
<title>Node328</title>
<g id="a_node6"><a xlink:href="TooNetworking_8h.html#ab58e06e0eb6f2f8ecbebeaf3c173fb22" target="_top" xlink:title="TooNetworking_bufferlist\l_send_all">
<polygon fill="#ffffff" stroke="#000000" points="155.5,-.5 155.5,-30.5 280.5,-30.5 280.5,-.5 155.5,-.5"/>
<text text-anchor="start" x="163.5" y="-18.5" font-family="Helvetica,sans-Serif" font-size="10.00" fill="#000000">TooNetworking_bufferlist</text>
<text text-anchor="middle" x="218" y="-7.5" font-family="Helvetica,sans-Serif" font-size="10.00" fill="#000000">_send_all</text>
</a>
</g>
</g>
<!-- Node323&#45;&gt;Node328 -->
<g id="edge7" class="edge">
<title>Node323&#45;&gt;Node328</title>
<path fill="none" stroke="#191970" d="M103.0275,-59.8013C127.2292,-50.4759 156.1121,-39.3467 178.8742,-30.576"/>
<polygon fill="#191970" stroke="#191970" points="101.7351,-56.5484 93.6623,-63.4099 104.252,-63.0803 101.7351,-56.5484"/>
</g>
<!-- Node324&#45;&gt;Node325 -->
<g id="edge2" class="edge">
<title>Node324&#45;&gt;Node325</title>
<path fill="none" stroke="#191970" d="M281.0426,-108.8955C298.6577,-112.0795 317.6505,-115.5126 334.7445,-118.6025"/>
<polygon fill="#191970" stroke="#191970" points="281.3182,-105.3886 270.855,-107.054 280.073,-112.277 281.3182,-105.3886"/>
</g>
<!-- Node324&#45;&gt;Node326 -->
<g id="edge3" class="edge">
<title>Node324&#45;&gt;Node326</title>
<path fill="none" stroke="#191970" d="M293.4866,-86.4961C304.6464,-84.8693 316.0416,-83.2082 326.9012,-81.6252"/>
<polygon fill="#191970" stroke="#191970" points="292.7166,-83.0713 283.326,-87.9773 293.7263,-89.9981 292.7166,-83.0713"/>
</g>
<!-- Node327 -->
<g id="node5" class="node">
<title>Node327</title>
<g id="a_node5"><a xlink:href="NODE__SKETCH__TooAutomation__Node_8ino_8cpp.html#a0b33edabd7f1c4e4a0bf32c67269be2f" target="_top" xlink:title="loop">
<polygon fill="#ffffff" stroke="#000000" points="488,-63 488,-82 523,-82 523,-63 488,-63"/>
<text text-anchor="middle" x="505.5" y="-70" font-family="Helvetica,sans-Serif" font-size="10.00" fill="#000000">loop</text>
</a>
</g>
</g>
<!-- Node326&#45;&gt;Node327 -->
<g id="edge4" class="edge">
<title>Node326&#45;&gt;Node327</title>
<path fill="none" stroke="#191970" d="M462.5149,-72.5C471.8175,-72.5 480.5667,-72.5 487.7123,-72.5"/>
<polygon fill="#191970" stroke="#191970" points="462.2531,-69.0001 452.2531,-72.5 462.253,-76.0001 462.2531,-69.0001"/>
</g>
</g>
</svg>
