<?xml version="1.0" encoding="UTF-8" standalone="no"?>
<!DOCTYPE svg PUBLIC "-//W3C//DTD SVG 1.1//EN"
 "http://www.w3.org/Graphics/SVG/1.1/DTD/svg11.dtd">
<!-- Generated by graphviz version 2.40.1 (20161225.0304)
 -->
<!-- Title: TooNetworking_connection_check Pages: 1 -->
<!--zoomable 168 -->
<svg id="main" version="1.1" xmlns="http://www.w3.org/2000/svg" xmlns:xlink="http://www.w3.org/1999/xlink" xml:space="preserve" onload="init(evt)">
<style type="text/css"><![CDATA[
.edge:hover path { stroke: red; }
.edge:hover polygon { stroke: red; fill: red; }
]]></style>
<script type="text/javascript"><![CDATA[
var edges = document.getElementsByTagName('g');
if (edges && edges.length) {
  for (var i=0;i<edges.length;i++) {
    if (edges[i].id.substr(0,4)=='edge') {
      edges[i].setAttribute('class','edge');
    }
  }
}
]]></script>
        <defs>
                <circle id="rim" cx="0" cy="0" r="7"/>
                <circle id="rim2" cx="0" cy="0" r="3.5"/>
                <g id="zoomPlus">
                        <use xlink:href="#rim" fill="#404040">
                                <set attributeName="fill" to="#808080" begin="zoomplus.mouseover" end="zoomplus.mouseout"/>
                        </use>
                        <path d="M-4,0h8M0,-4v8" fill="none" stroke="white" stroke-width="1.5" pointer-events="none"/>
                </g>
                <g id="zoomMin">
                        <use xlink:href="#rim" fill="#404040">
                                <set attributeName="fill" to="#808080" begin="zoomminus.mouseover" end="zoomminus.mouseout"/>
                        </use>
                        <path d="M-4,0h8" fill="none" stroke="white" stroke-width="1.5" pointer-events="none"/>
                </g>
                <g id="dirArrow">
                        <path fill="none" stroke="white" stroke-width="1.5" d="M0,-3.0v7 M-2.5,-0.5L0,-3.0L2.5,-0.5"/>
                </g>
               <g id="resetDef">
                       <use xlink:href="#rim2" fill="#404040">
                               <set attributeName="fill" to="#808080" begin="reset.mouseover" end="reset.mouseout"/>
                       </use>
               </g>
        </defs>

<script type="text/javascript">
var viewWidth = 1239;
var viewHeight = 168;
var sectionId = 'dynsection-18';
</script>
<script xlink:href="svgpan.js"/>
<svg id="graph" class="graph">
<g id="viewport">
<title>TooNetworking_connection_check</title>
<polygon fill="#ffffff" stroke="transparent" points="-4,4 -4,-164 1235,-164 1235,4 -4,4"/>
<!-- Node137 -->
<g id="node1" class="node">
<title>Node137</title>
<polygon fill="#bfbfbf" stroke="#000000" points="0,-49.5 0,-79.5 135,-79.5 135,-49.5 0,-49.5"/>
<text text-anchor="start" x="8" y="-67.5" font-family="Helvetica,sans-Serif" font-size="10.00" fill="#000000">TooNetworking_connection</text>
<text text-anchor="middle" x="67.5" y="-56.5" font-family="Helvetica,sans-Serif" font-size="10.00" fill="#000000">_check</text>
</g>
<!-- Node138 -->
<g id="node2" class="node">
<title>Node138</title>
<g id="a_node2"><a xlink:href="TooNetworking_8h.html#a0ad03a7efb42cf40ca3e20fb5df3a5db" target="_top" xlink:title="TooNetworking_bufferlist\l_send_">
<polygon fill="#ffffff" stroke="#000000" points="184,-49.5 184,-79.5 309,-79.5 309,-49.5 184,-49.5"/>
<text text-anchor="start" x="192" y="-67.5" font-family="Helvetica,sans-Serif" font-size="10.00" fill="#000000">TooNetworking_bufferlist</text>
<text text-anchor="middle" x="246.5" y="-56.5" font-family="Helvetica,sans-Serif" font-size="10.00" fill="#000000">_send_</text>
</a>
</g>
</g>
<!-- Node137&#45;&gt;Node138 -->
<g id="edge1" class="edge">
<title>Node137&#45;&gt;Node138</title>
<path fill="none" stroke="#191970" d="M145.3697,-64.5C158.1974,-64.5 171.3493,-64.5 183.7472,-64.5"/>
<polygon fill="#191970" stroke="#191970" points="145.1723,-61.0001 135.1722,-64.5 145.1722,-68.0001 145.1723,-61.0001"/>
</g>
<!-- Node142 -->
<g id="node6" class="node">
<title>Node142</title>
<g id="a_node6"><a xlink:href="TooNetworking_8h.html#a99dc4950018bfd3e63ecb05f58082439" target="_top" xlink:title="TooNetworking_connection_fix">
<polygon fill="#ffffff" stroke="#000000" points="171,-11 171,-30 322,-30 322,-11 171,-11"/>
<text text-anchor="middle" x="246.5" y="-18" font-family="Helvetica,sans-Serif" font-size="10.00" fill="#000000">TooNetworking_connection_fix</text>
</a>
</g>
</g>
<!-- Node137&#45;&gt;Node142 -->
<g id="edge5" class="edge">
<title>Node137&#45;&gt;Node142</title>
<path fill="none" stroke="#191970" d="M138.5877,-47.0259C162.1923,-41.2237 187.5829,-34.9824 207.8018,-30.0124"/>
<polygon fill="#191970" stroke="#191970" points="137.4764,-43.6948 128.601,-49.4808 139.1474,-50.4925 137.4764,-43.6948"/>
</g>
<!-- Node143 -->
<g id="node7" class="node">
<title>Node143</title>
<g id="a_node7"><a xlink:href="TooNetworking_8h.html#a9f893c3218491ee86282fdcd9f376500" target="_top" xlink:title="TooNetworking_send\l_signed_">
<polygon fill="#ffffff" stroke="#000000" points="370.5,-93.5 370.5,-123.5 479.5,-123.5 479.5,-93.5 370.5,-93.5"/>
<text text-anchor="start" x="378.5" y="-111.5" font-family="Helvetica,sans-Serif" font-size="10.00" fill="#000000">TooNetworking_send</text>
<text text-anchor="middle" x="425" y="-100.5" font-family="Helvetica,sans-Serif" font-size="10.00" fill="#000000">_signed_</text>
</a>
</g>
</g>
<!-- Node137&#45;&gt;Node143 -->
<g id="edge16" class="edge">
<title>Node137&#45;&gt;Node143</title>
<path fill="none" stroke="#191970" d="M135.3233,-81.7494C147.1571,-84.3221 159.393,-86.7076 171,-88.5 239.1962,-99.0314 318.5981,-104.1544 370.2249,-106.5498"/>
<polygon fill="#191970" stroke="#191970" points="136.0227,-78.3195 125.5,-79.5533 134.4954,-85.1509 136.0227,-78.3195"/>
</g>
<!-- Node139 -->
<g id="node3" class="node">
<title>Node139</title>
<g id="a_node3"><a xlink:href="TooNetworking_8h.html#ab58e06e0eb6f2f8ecbebeaf3c173fb22" target="_top" xlink:title="TooNetworking_bufferlist\l_send_all">
<polygon fill="#ffffff" stroke="#000000" points="528,-49.5 528,-79.5 653,-79.5 653,-49.5 528,-49.5"/>
<text text-anchor="start" x="536" y="-67.5" font-family="Helvetica,sans-Serif" font-size="10.00" fill="#000000">TooNetworking_bufferlist</text>
<text text-anchor="middle" x="590.5" y="-56.5" font-family="Helvetica,sans-Serif" font-size="10.00" fill="#000000">_send_all</text>
</a>
</g>
</g>
<!-- Node138&#45;&gt;Node139 -->
<g id="edge2" class="edge">
<title>Node138&#45;&gt;Node139</title>
<path fill="none" stroke="#191970" d="M319.2823,-64.5C381.1899,-64.5 469.1575,-64.5 527.9459,-64.5"/>
<polygon fill="#191970" stroke="#191970" points="319.1949,-61.0001 309.1949,-64.5 319.1949,-68.0001 319.1949,-61.0001"/>
</g>
<!-- Node140 -->
<g id="node4" class="node">
<title>Node140</title>
<g id="a_node4"><a xlink:href="TooNetworking_8h.html#a7382ba1aed5405c3adc02011ea6c45dd" target="_top" xlink:title="TooNetworking_connection\l_maintenance">
<polygon fill="#ffffff" stroke="#000000" points="1025,-49.5 1025,-79.5 1160,-79.5 1160,-49.5 1025,-49.5"/>
<text text-anchor="start" x="1033" y="-67.5" font-family="Helvetica,sans-Serif" font-size="10.00" fill="#000000">TooNetworking_connection</text>
<text text-anchor="middle" x="1092.5" y="-56.5" font-family="Helvetica,sans-Serif" font-size="10.00" fill="#000000">_maintenance</text>
</a>
</g>
</g>
<!-- Node139&#45;&gt;Node140 -->
<g id="edge3" class="edge">
<title>Node139&#45;&gt;Node140</title>
<path fill="none" stroke="#191970" d="M663.0686,-64.5C759.9678,-64.5 930.3322,-64.5 1024.7318,-64.5"/>
<polygon fill="#191970" stroke="#191970" points="663.0637,-61.0001 653.0636,-64.5 663.0636,-68.0001 663.0637,-61.0001"/>
</g>
<!-- Node141 -->
<g id="node5" class="node">
<title>Node141</title>
<g id="a_node5"><a xlink:href="NODE__SKETCH__TooAutomation__Node_8ino_8cpp.html#a0b33edabd7f1c4e4a0bf32c67269be2f" target="_top" xlink:title="loop">
<polygon fill="#ffffff" stroke="#000000" points="1196,-77 1196,-96 1231,-96 1231,-77 1196,-77"/>
<text text-anchor="middle" x="1213.5" y="-84" font-family="Helvetica,sans-Serif" font-size="10.00" fill="#000000">loop</text>
</a>
</g>
</g>
<!-- Node140&#45;&gt;Node141 -->
<g id="edge4" class="edge">
<title>Node140&#45;&gt;Node141</title>
<path fill="none" stroke="#191970" d="M1170.1566,-78.6194C1179.6588,-80.347 1188.5454,-81.9628 1195.7679,-83.276"/>
<polygon fill="#191970" stroke="#191970" points="1170.5402,-75.1318 1160.0754,-76.7864 1169.288,-82.0189 1170.5402,-75.1318"/>
</g>
<!-- Node142&#45;&gt;Node143 -->
<g id="edge6" class="edge">
<title>Node142&#45;&gt;Node143</title>
<path fill="none" stroke="#191970" d="M304.8141,-33.0117C310.7157,-34.917 316.5407,-37.0726 322,-39.5 354.0573,-53.754 387.0489,-77.8297 406.7887,-93.4412"/>
<polygon fill="#191970" stroke="#191970" points="305.4442,-29.5471 294.8608,-30.0377 303.4402,-36.2541 305.4442,-29.5471"/>
</g>
<!-- Node146 -->
<g id="node10" class="node">
<title>Node146</title>
<g id="a_node10"><a xlink:href="TooSigning_8h.html#abf99e5d9b5ec252bfff3bf26c0ba9e37" target="_top" xlink:title="TooSigning_connection_fix">
<polygon fill="#ffffff" stroke="#000000" points="358,-9 358,-28 492,-28 492,-9 358,-9"/>
<text text-anchor="middle" x="425" y="-16" font-family="Helvetica,sans-Serif" font-size="10.00" fill="#000000">TooSigning_connection_fix</text>
</a>
</g>
</g>
<!-- Node142&#45;&gt;Node146 -->
<g id="edge11" class="edge">
<title>Node142&#45;&gt;Node146</title>
<path fill="none" stroke="#191970" d="M332.2802,-19.5389C340.9003,-19.4423 349.5636,-19.3452 357.9479,-19.2513"/>
<polygon fill="#191970" stroke="#191970" points="332.1602,-16.0399 322.2001,-19.6518 332.2387,-23.0395 332.1602,-16.0399"/>
</g>
<!-- Node143&#45;&gt;Node139 -->
<g id="edge10" class="edge">
<title>Node143&#45;&gt;Node139</title>
<path fill="none" stroke="#191970" d="M489.6222,-91.3195C504.2451,-87.4318 519.6622,-83.333 533.9232,-79.5416"/>
<polygon fill="#191970" stroke="#191970" points="488.4145,-88.0189 479.6496,-93.9708 490.2131,-94.7839 488.4145,-88.0189"/>
</g>
<!-- Node144 -->
<g id="node8" class="node">
<title>Node144</title>
<g id="a_node8"><a xlink:href="TooNetworking_8h.html#a9209f3e1a2fdf0b3b88d49105b8fc359" target="_top" xlink:title="TooNetworking_send\l_signed">
<polygon fill="#ffffff" stroke="#000000" points="536,-98.5 536,-128.5 645,-128.5 645,-98.5 536,-98.5"/>
<text text-anchor="start" x="544" y="-116.5" font-family="Helvetica,sans-Serif" font-size="10.00" fill="#000000">TooNetworking_send</text>
<text text-anchor="middle" x="590.5" y="-105.5" font-family="Helvetica,sans-Serif" font-size="10.00" fill="#000000">_signed</text>
</a>
</g>
</g>
<!-- Node143&#45;&gt;Node144 -->
<g id="edge7" class="edge">
<title>Node143&#45;&gt;Node144</title>
<path fill="none" stroke="#191970" d="M490.0055,-110.4639C505.1959,-110.9228 521.2234,-111.4071 535.9078,-111.8507"/>
<polygon fill="#191970" stroke="#191970" points="489.7507,-106.9547 479.6496,-110.151 489.5393,-113.9515 489.7507,-106.9547"/>
</g>
<!-- Node145 -->
<g id="node9" class="node">
<title>Node145</title>
<g id="a_node9"><a xlink:href="TooNetworking_8h.html#a085ff748b00f6be4ebafcae2bb0dded1" target="_top" xlink:title="TooNetworking_bufferlist\l_send_signed">
<polygon fill="#ffffff" stroke="#000000" points="689,-129.5 689,-159.5 814,-159.5 814,-129.5 689,-129.5"/>
<text text-anchor="start" x="697" y="-147.5" font-family="Helvetica,sans-Serif" font-size="10.00" fill="#000000">TooNetworking_bufferlist</text>
<text text-anchor="middle" x="751.5" y="-136.5" font-family="Helvetica,sans-Serif" font-size="10.00" fill="#000000">_send_signed</text>
</a>
</g>
</g>
<!-- Node143&#45;&gt;Node145 -->
<g id="edge8" class="edge">
<title>Node143&#45;&gt;Node145</title>
<path fill="none" stroke="#191970" d="M477.2896,-126.5444C493.3627,-131.3242 511.2375,-135.8786 528,-138.5 581.8817,-146.9264 643.9407,-147.9108 688.9714,-147.0838"/>
<polygon fill="#191970" stroke="#191970" points="478.1274,-123.1405 467.5407,-123.5544 476.0748,-129.8328 478.1274,-123.1405"/>
</g>
<!-- Node145&#45;&gt;Node141 -->
<g id="edge9" class="edge">
<title>Node145&#45;&gt;Node141</title>
<path fill="none" stroke="#191970" d="M824.2953,-135.3612C934.0856,-121.578 1135.6387,-96.2748 1195.9827,-88.6991"/>
<polygon fill="#191970" stroke="#191970" points="823.7743,-131.899 814.2882,-136.6175 824.6463,-138.8445 823.7743,-131.899"/>
</g>
<!-- Node147 -->
<g id="node11" class="node">
<title>Node147</title>
<g id="a_node11"><a xlink:href="TooSigning_8h.html#a58143364a83636a3d2df075a95cb2bfc" target="_top" xlink:title="TooSigning_request\l_nonce_from_node_id">
<polygon fill="#ffffff" stroke="#000000" points="534.5,-.5 534.5,-30.5 646.5,-30.5 646.5,-.5 534.5,-.5"/>
<text text-anchor="start" x="542.5" y="-18.5" font-family="Helvetica,sans-Serif" font-size="10.00" fill="#000000">TooSigning_request</text>
<text text-anchor="middle" x="590.5" y="-7.5" font-family="Helvetica,sans-Serif" font-size="10.00" fill="#000000">_nonce_from_node_id</text>
</a>
</g>
</g>
<!-- Node146&#45;&gt;Node147 -->
<g id="edge12" class="edge">
<title>Node146&#45;&gt;Node147</title>
<path fill="none" stroke="#191970" d="M502.5417,-17.0944C513.2703,-16.8999 524.116,-16.7033 534.3538,-16.5178"/>
<polygon fill="#191970" stroke="#191970" points="502.2501,-13.599 492.3152,-17.2798 502.377,-20.5979 502.2501,-13.599"/>
</g>
<!-- Node148 -->
<g id="node12" class="node">
<title>Node148</title>
<g id="a_node12"><a xlink:href="TooSigning_8h.html#af7ec4002cf8cf81195f3745703e04b22" target="_top" xlink:title="TooSigning_requested\l_noncelist_retry_all">
<polygon fill="#ffffff" stroke="#000000" points="695,-3.5 695,-33.5 808,-33.5 808,-3.5 695,-3.5"/>
<text text-anchor="start" x="703" y="-21.5" font-family="Helvetica,sans-Serif" font-size="10.00" fill="#000000">TooSigning_requested</text>
<text text-anchor="middle" x="751.5" y="-10.5" font-family="Helvetica,sans-Serif" font-size="10.00" fill="#000000">_noncelist_retry_all</text>
</a>
</g>
</g>
<!-- Node147&#45;&gt;Node148 -->
<g id="edge13" class="edge">
<title>Node147&#45;&gt;Node148</title>
<path fill="none" stroke="#191970" d="M656.8332,-16.736C669.4913,-16.9719 682.632,-17.2167 694.9497,-17.4463"/>
<polygon fill="#191970" stroke="#191970" points="656.8735,-13.2363 646.81,-16.5493 656.743,-20.235 656.8735,-13.2363"/>
</g>
<!-- Node149 -->
<g id="node13" class="node">
<title>Node149</title>
<g id="a_node13"><a xlink:href="TooSigning_8h.html#af68b8dda897cf488129c205ad532ca9e" target="_top" xlink:title="TooSigning_signed_network\l_update">
<polygon fill="#ffffff" stroke="#000000" points="850,-4.5 850,-34.5 989,-34.5 989,-4.5 850,-4.5"/>
<text text-anchor="start" x="858" y="-22.5" font-family="Helvetica,sans-Serif" font-size="10.00" fill="#000000">TooSigning_signed_network</text>
<text text-anchor="middle" x="919.5" y="-11.5" font-family="Helvetica,sans-Serif" font-size="10.00" fill="#000000">_update</text>
</a>
</g>
</g>
<!-- Node148&#45;&gt;Node149 -->
<g id="edge14" class="edge">
<title>Node148&#45;&gt;Node149</title>
<path fill="none" stroke="#191970" d="M818.5393,-18.899C828.8442,-18.9604 839.5044,-19.0238 849.8642,-19.0855"/>
<polygon fill="#191970" stroke="#191970" points="818.3978,-15.3982 808.3771,-18.8386 818.3561,-22.3981 818.3978,-15.3982"/>
</g>
<!-- Node149&#45;&gt;Node140 -->
<g id="edge15" class="edge">
<title>Node149&#45;&gt;Node140</title>
<path fill="none" stroke="#191970" d="M987.6465,-37.226C1003.1683,-41.2634 1019.5166,-45.5159 1034.5656,-49.4303"/>
<polygon fill="#191970" stroke="#191970" points="988.1468,-33.7397 977.5878,-34.6095 986.3846,-40.5143 988.1468,-33.7397"/>
</g>
</g>
</svg>
        <g id="navigator" transform="translate(0 0)" fill="#404254">
                <rect fill="#f2f5e9" fill-opacity="0.5" stroke="#606060" stroke-width=".5" x="0" y="0" width="60" height="60"/>
                <use id="zoomplus" xlink:href="#zoomPlus" x="17" y="9" onmousedown="handleZoom(evt,'in')"/>
                <use id="zoomminus" xlink:href="#zoomMin" x="42" y="9" onmousedown="handleZoom(evt,'out')"/>
                <use id="reset" xlink:href="#resetDef" x="30" y="36" onmousedown="handleReset()"/>
                <g id="arrowUp" xlink:href="#dirArrow" transform="translate(30 24)" onmousedown="handlePan(0,-1)">
                  <use xlink:href="#rim" fill="#404040">
                        <set attributeName="fill" to="#808080" begin="arrowUp.mouseover" end="arrowUp.mouseout"/>
                  </use>
                  <path fill="none" stroke="white" stroke-width="1.5" d="M0,-3.0v7 M-2.5,-0.5L0,-3.0L2.5,-0.5"/>
                </g>
                <g id="arrowRight" xlink:href="#dirArrow" transform="rotate(90) translate(36 -43)" onmousedown="handlePan(1,0)">
                  <use xlink:href="#rim" fill="#404040">
                        <set attributeName="fill" to="#808080" begin="arrowRight.mouseover" end="arrowRight.mouseout"/>
                  </use>
                  <path fill="none" stroke="white" stroke-width="1.5" d="M0,-3.0v7 M-2.5,-0.5L0,-3.0L2.5,-0.5"/>
                </g>
                <g id="arrowDown" xlink:href="#dirArrow" transform="rotate(180) translate(-30 -48)" onmousedown="handlePan(0,1)">
                  <use xlink:href="#rim" fill="#404040">
                        <set attributeName="fill" to="#808080" begin="arrowDown.mouseover" end="arrowDown.mouseout"/>
                  </use>
                  <path fill="none" stroke="white" stroke-width="1.5" d="M0,-3.0v7 M-2.5,-0.5L0,-3.0L2.5,-0.5"/>
                </g>
                <g id="arrowLeft" xlink:href="#dirArrow" transform="rotate(270) translate(-36 17)" onmousedown="handlePan(-1,0)">
                  <use xlink:href="#rim" fill="#404040">
                        <set attributeName="fill" to="#808080" begin="arrowLeft.mouseover" end="arrowLeft.mouseout"/>
                  </use>
                  <path fill="none" stroke="white" stroke-width="1.5" d="M0,-3.0v7 M-2.5,-0.5L0,-3.0L2.5,-0.5"/>
                </g>
        </g>
        <svg viewBox="0 0 15 15" width="100%" height="30px" preserveAspectRatio="xMaxYMin meet">
         <g id="arrow_out" transform="scale(0.3 0.3)">
          <a xlink:href="TooNetworking_8cpp_a48504aef69d9ac92e34269a64f7b518b_icgraph_org.svg" target="_base">
           <rect id="button" ry="5" rx="5" y="6" x="6" height="38" width="38"
                fill="#f2f5e9" fill-opacity="0.5" stroke="#606060" stroke-width="1.0"/>
           <path id="arrow"
             d="M 11.500037,31.436501 C 11.940474,20.09759 22.043105,11.32322 32.158766,21.979434 L 37.068811,17.246167 C 37.068811,17.246167 37.088388,32 37.088388,32 L 22.160133,31.978069 C 22.160133,31.978069 26.997745,27.140456 26.997745,27.140456 C 18.528582,18.264221 13.291696,25.230495 11.500037,31.436501 z"
             style="fill:#404040;"/>
          </a>
         </g>
        </svg>
</svg>
