<?xml version="1.0" encoding="UTF-8" standalone="no"?>
<!DOCTYPE svg PUBLIC "-//W3C//DTD SVG 1.1//EN"
 "http://www.w3.org/Graphics/SVG/1.1/DTD/svg11.dtd">
<!-- Generated by graphviz version 2.40.1 (20161225.0304)
 -->
<!-- Title: TooNetworking_bufferlist_add Pages: 1 -->
<!--zoomable 372 -->
<svg id="main" version="1.1" xmlns="http://www.w3.org/2000/svg" xmlns:xlink="http://www.w3.org/1999/xlink" xml:space="preserve" onload="init(evt)">
<style type="text/css"><![CDATA[
.edge:hover path { stroke: red; }
.edge:hover polygon { stroke: red; fill: red; }
]]></style>
<script type="text/javascript"><![CDATA[
var edges = document.getElementsByTagName('g');
if (edges && edges.length) {
  for (var i=0;i<edges.length;i++) {
    if (edges[i].id.substr(0,4)=='edge') {
      edges[i].setAttribute('class','edge');
    }
  }
}
]]></script>
        <defs>
                <circle id="rim" cx="0" cy="0" r="7"/>
                <circle id="rim2" cx="0" cy="0" r="3.5"/>
                <g id="zoomPlus">
                        <use xlink:href="#rim" fill="#404040">
                                <set attributeName="fill" to="#808080" begin="zoomplus.mouseover" end="zoomplus.mouseout"/>
                        </use>
                        <path d="M-4,0h8M0,-4v8" fill="none" stroke="white" stroke-width="1.5" pointer-events="none"/>
                </g>
                <g id="zoomMin">
                        <use xlink:href="#rim" fill="#404040">
                                <set attributeName="fill" to="#808080" begin="zoomminus.mouseover" end="zoomminus.mouseout"/>
                        </use>
                        <path d="M-4,0h8" fill="none" stroke="white" stroke-width="1.5" pointer-events="none"/>
                </g>
                <g id="dirArrow">
                        <path fill="none" stroke="white" stroke-width="1.5" d="M0,-3.0v7 M-2.5,-0.5L0,-3.0L2.5,-0.5"/>
                </g>
               <g id="resetDef">
                       <use xlink:href="#rim2" fill="#404040">
                               <set attributeName="fill" to="#808080" begin="reset.mouseover" end="reset.mouseout"/>
                       </use>
               </g>
        </defs>

<script type="text/javascript">
var viewWidth = 657;
var viewHeight = 372;
var sectionId = 'dynsection-4';
</script>
<script xlink:href="svgpan.js"/>
<svg id="graph" class="graph">
<g id="viewport">
<title>TooNetworking_bufferlist_add</title>
<polygon fill="#ffffff" stroke="transparent" points="-4,4 -4,-368 653,-368 653,4 -4,4"/>
<!-- Node39 -->
<g id="node1" class="node">
<title>Node39</title>
<polygon fill="#bfbfbf" stroke="#000000" points="0,-143 0,-162 146,-162 146,-143 0,-143"/>
<text text-anchor="middle" x="73" y="-150" font-family="Helvetica,sans-Serif" font-size="10.00" fill="#000000">TooNetworking_bufferlist_add</text>
</g>
<!-- Node40 -->
<g id="node2" class="node">
<title>Node40</title>
<g id="a_node2"><a xlink:href="TooNetworking_8cpp.html#aa8a4e879d4d71fed2a8940cf93b75ae4" target="_top" xlink:title="TooNetworking_bufferlist\l_initialize">
<polygon fill="#ffffff" stroke="#000000" points="182,-293.5 182,-323.5 307,-323.5 307,-293.5 182,-293.5"/>
<text text-anchor="start" x="190" y="-311.5" font-family="Helvetica,sans-Serif" font-size="10.00" fill="#000000">TooNetworking_bufferlist</text>
<text text-anchor="middle" x="244.5" y="-300.5" font-family="Helvetica,sans-Serif" font-size="10.00" fill="#000000">_initialize</text>
</a>
</g>
</g>
<!-- Node39&#45;&gt;Node40 -->
<g id="edge1" class="edge">
<title>Node39&#45;&gt;Node40</title>
<path fill="none" stroke="#191970" d="M78.5728,-162.244C92.7893,-186.2957 132.7824,-249.0956 182,-284.5 184.064,-285.9847 186.2317,-287.391 188.4701,-288.7213"/>
<polygon fill="#191970" stroke="#191970" points="186.9159,-291.8591 197.3858,-293.4815 190.2128,-285.6841 186.9159,-291.8591"/>
</g>
<!-- Node41 -->
<g id="node3" class="node">
<title>Node41</title>
<g id="a_node3"><a xlink:href="TooNetworking_8cpp.html#a0ad03a7efb42cf40ca3e20fb5df3a5db" target="_top" xlink:title="TooNetworking_bufferlist\l_send_">
<polygon fill="#ffffff" stroke="#000000" points="182,-244.5 182,-274.5 307,-274.5 307,-244.5 182,-244.5"/>
<text text-anchor="start" x="190" y="-262.5" font-family="Helvetica,sans-Serif" font-size="10.00" fill="#000000">TooNetworking_bufferlist</text>
<text text-anchor="middle" x="244.5" y="-251.5" font-family="Helvetica,sans-Serif" font-size="10.00" fill="#000000">_send_</text>
</a>
</g>
</g>
<!-- Node39&#45;&gt;Node41 -->
<g id="edge2" class="edge">
<title>Node39&#45;&gt;Node41</title>
<path fill="none" stroke="#191970" d="M85.349,-162.0209C105.1458,-177.0719 145.4762,-206.8709 182,-228.5 188.5201,-232.3612 195.5861,-236.1866 202.5418,-239.763"/>
<polygon fill="#191970" stroke="#191970" points="201.3903,-243.1015 211.8969,-244.4658 204.5343,-236.8472 201.3903,-243.1015"/>
</g>
<!-- Node47 -->
<g id="node9" class="node">
<title>Node47</title>
<g id="a_node9"><a xlink:href="TooSigning_8cpp.html#a729dc41cfb692fb0aea083c38c5f3577" target="_top" xlink:title="TooSigning_received\l_noncelist_find_from_ID">
<polygon fill="#ffffff" stroke="#000000" points="349.5,-147.5 349.5,-177.5 471.5,-177.5 471.5,-147.5 349.5,-147.5"/>
<text text-anchor="start" x="357.5" y="-165.5" font-family="Helvetica,sans-Serif" font-size="10.00" fill="#000000">TooSigning_received</text>
<text text-anchor="middle" x="410.5" y="-154.5" font-family="Helvetica,sans-Serif" font-size="10.00" fill="#000000">_noncelist_find_from_ID</text>
</a>
</g>
</g>
<!-- Node39&#45;&gt;Node47 -->
<g id="edge9" class="edge">
<title>Node39&#45;&gt;Node47</title>
<path fill="none" stroke="#191970" d="M91.261,-162.1772C112.4089,-172.7894 148.6252,-189.1548 182,-195.5 236.578,-205.8763 252.1047,-204.0396 307,-195.5 325.6941,-192.5919 345.6295,-186.8959 362.963,-181.0434"/>
<polygon fill="#191970" stroke="#191970" points="364.5492,-184.1971 372.8391,-177.5994 362.2442,-177.5875 364.5492,-184.1971"/>
</g>
<!-- Node48 -->
<g id="node10" class="node">
<title>Node48</title>
<g id="a_node10"><a xlink:href="group__TOOSIGNING__DEBUGGING.html#ga974dd51d29b9bd928de51c481289aad7" target="_top" xlink:title="TooSigning_random_data\l_print">
<polygon fill="#ffffff" stroke="#000000" points="347,-98.5 347,-128.5 474,-128.5 474,-98.5 347,-98.5"/>
<text text-anchor="start" x="355" y="-116.5" font-family="Helvetica,sans-Serif" font-size="10.00" fill="#000000">TooSigning_random_data</text>
<text text-anchor="middle" x="410.5" y="-105.5" font-family="Helvetica,sans-Serif" font-size="10.00" fill="#000000">_print</text>
</a>
</g>
</g>
<!-- Node39&#45;&gt;Node48 -->
<g id="edge10" class="edge">
<title>Node39&#45;&gt;Node48</title>
<path fill="none" stroke="#191970" d="M109.5791,-142.9964C130.6198,-137.8954 157.636,-131.9617 182,-128.5 233.3047,-121.2105 291.6029,-117.4553 336.4721,-115.5252"/>
<polygon fill="#191970" stroke="#191970" points="336.8547,-119.0126 346.7033,-115.1066 336.5685,-112.0185 336.8547,-119.0126"/>
</g>
<!-- Node49 -->
<g id="node11" class="node">
<title>Node49</title>
<g id="a_node11"><a xlink:href="TooNetworking_8cpp.html#a9209f3e1a2fdf0b3b88d49105b8fc359" target="_top" xlink:title="TooNetworking_send\l_signed">
<polygon fill="#ffffff" stroke="#000000" points="190,-137.5 190,-167.5 299,-167.5 299,-137.5 190,-137.5"/>
<text text-anchor="start" x="198" y="-155.5" font-family="Helvetica,sans-Serif" font-size="10.00" fill="#000000">TooNetworking_send</text>
<text text-anchor="middle" x="244.5" y="-144.5" font-family="Helvetica,sans-Serif" font-size="10.00" fill="#000000">_signed</text>
</a>
</g>
</g>
<!-- Node39&#45;&gt;Node49 -->
<g id="edge11" class="edge">
<title>Node39&#45;&gt;Node49</title>
<path fill="none" stroke="#191970" d="M146.2289,-145.8144C157.3367,-145.6994 168.7309,-145.7384 179.6443,-145.9314"/>
<polygon fill="#191970" stroke="#191970" points="179.8589,-149.437 189.9353,-146.1635 180.0168,-142.4388 179.8589,-149.437"/>
</g>
<!-- Node50 -->
<g id="node12" class="node">
<title>Node50</title>
<g id="a_node12"><a xlink:href="TooSigning_8cpp.html#a53b55547df3d4276f3ca6a74d601549a" target="_top" xlink:title="TooSigning_requested\l_noncelist_add">
<polygon fill="#ffffff" stroke="#000000" points="354,-49.5 354,-79.5 467,-79.5 467,-49.5 354,-49.5"/>
<text text-anchor="start" x="362" y="-67.5" font-family="Helvetica,sans-Serif" font-size="10.00" fill="#000000">TooSigning_requested</text>
<text text-anchor="middle" x="410.5" y="-56.5" font-family="Helvetica,sans-Serif" font-size="10.00" fill="#000000">_noncelist_add</text>
</a>
</g>
</g>
<!-- Node39&#45;&gt;Node50 -->
<g id="edge20" class="edge">
<title>Node39&#45;&gt;Node50</title>
<path fill="none" stroke="#191970" d="M96.0658,-142.9274C117.9097,-134.1282 151.7735,-121.1716 182,-112.5 235.6123,-97.1193 297.6031,-84.4058 343.4784,-75.9357"/>
<polygon fill="#191970" stroke="#191970" points="344.3913,-79.3269 353.5999,-74.0874 343.1338,-72.4408 344.3913,-79.3269"/>
</g>
<!-- Node42 -->
<g id="node4" class="node">
<title>Node42</title>
<g id="a_node4"><a xlink:href="TooNetworking_8cpp.html#ac352268e177fa2ddf91c8afa5cd04bbf" target="_top" xlink:title="TooNetworking_connection\l_available">
<polygon fill="#ffffff" stroke="#000000" points="343,-245.5 343,-275.5 478,-275.5 478,-245.5 343,-245.5"/>
<text text-anchor="start" x="351" y="-263.5" font-family="Helvetica,sans-Serif" font-size="10.00" fill="#000000">TooNetworking_connection</text>
<text text-anchor="middle" x="410.5" y="-252.5" font-family="Helvetica,sans-Serif" font-size="10.00" fill="#000000">_available</text>
</a>
</g>
</g>
<!-- Node41&#45;&gt;Node42 -->
<g id="edge3" class="edge">
<title>Node41&#45;&gt;Node42</title>
<path fill="none" stroke="#191970" d="M307.2575,-259.8781C315.6383,-259.9285 324.3124,-259.9808 332.9087,-260.0326"/>
<polygon fill="#191970" stroke="#191970" points="332.9212,-263.5326 342.9422,-260.093 332.9635,-256.5327 332.9212,-263.5326"/>
</g>
<!-- Node44 -->
<g id="node6" class="node">
<title>Node44</title>
<g id="a_node6"><a xlink:href="TooNetworking_8cpp.html#af4808c2c0857cde9a6721ad54f5ab42d" target="_top" xlink:title="TooNetworking_other\l_node_is_online">
<polygon fill="#ffffff" stroke="#000000" points="355.5,-196.5 355.5,-226.5 465.5,-226.5 465.5,-196.5 355.5,-196.5"/>
<text text-anchor="start" x="363.5" y="-214.5" font-family="Helvetica,sans-Serif" font-size="10.00" fill="#000000">TooNetworking_other</text>
<text text-anchor="middle" x="410.5" y="-203.5" font-family="Helvetica,sans-Serif" font-size="10.00" fill="#000000">_node_is_online</text>
</a>
</g>
</g>
<!-- Node41&#45;&gt;Node44 -->
<g id="edge5" class="edge">
<title>Node41&#45;&gt;Node44</title>
<path fill="none" stroke="#191970" d="M296.568,-244.4442C313.1005,-239.6637 331.5437,-234.3307 348.6931,-229.3719"/>
<polygon fill="#191970" stroke="#191970" points="349.9826,-232.6425 358.6168,-226.5024 348.0381,-225.918 349.9826,-232.6425"/>
</g>
<!-- Node45 -->
<g id="node7" class="node">
<title>Node45</title>
<g id="a_node7"><a xlink:href="TooNetworking_8cpp.html#a46674b3fdc9ee370b0839869aa145b75" target="_top" xlink:title="TooNetworking_send">
<polygon fill="#ffffff" stroke="#000000" points="356,-295 356,-314 465,-314 465,-295 356,-295"/>
<text text-anchor="middle" x="410.5" y="-302" font-family="Helvetica,sans-Serif" font-size="10.00" fill="#000000">TooNetworking_send</text>
</a>
</g>
</g>
<!-- Node41&#45;&gt;Node45 -->
<g id="edge6" class="edge">
<title>Node41&#45;&gt;Node45</title>
<path fill="none" stroke="#191970" d="M300.2374,-274.6095C321.5094,-280.376 345.469,-286.8711 365.6063,-292.33"/>
<polygon fill="#191970" stroke="#191970" points="364.8867,-295.7612 375.4542,-294.9996 366.7183,-289.0051 364.8867,-295.7612"/>
</g>
<!-- Node46 -->
<g id="node8" class="node">
<title>Node46</title>
<g id="a_node8"><a xlink:href="TooNetworking_8cpp.html#a3c91b7ab2f6500c287ecc7ab4a018ef6" target="_top" xlink:title="TooNetworking_bufferlist\l_remove">
<polygon fill="#ffffff" stroke="#000000" points="348,-333.5 348,-363.5 473,-363.5 473,-333.5 348,-333.5"/>
<text text-anchor="start" x="356" y="-351.5" font-family="Helvetica,sans-Serif" font-size="10.00" fill="#000000">TooNetworking_bufferlist</text>
<text text-anchor="middle" x="410.5" y="-340.5" font-family="Helvetica,sans-Serif" font-size="10.00" fill="#000000">_remove</text>
</a>
</g>
</g>
<!-- Node41&#45;&gt;Node46 -->
<g id="edge8" class="edge">
<title>Node41&#45;&gt;Node46</title>
<path fill="none" stroke="#191970" d="M289.466,-274.6392C295.5866,-277.505 301.6095,-280.7888 307,-284.5 326.4296,-297.8766 323.3994,-310.3751 343,-323.5 345.8912,-325.436 348.952,-327.2466 352.1113,-328.9362"/>
<polygon fill="#191970" stroke="#191970" points="350.6947,-332.1394 361.2166,-333.381 353.7655,-325.8489 350.6947,-332.1394"/>
</g>
<!-- Node43 -->
<g id="node5" class="node">
<title>Node43</title>
<g id="a_node5"><a xlink:href="TooNetworking_8cpp.html#abdda8f09b9d475ed2c23a2376e2e0151" target="_top" xlink:title="mesh">
<polygon fill="#ffffff" stroke="#000000" points="561,-273 561,-292 602,-292 602,-273 561,-273"/>
<text text-anchor="middle" x="581.5" y="-280" font-family="Helvetica,sans-Serif" font-size="10.00" fill="#000000">mesh</text>
</a>
</g>
</g>
<!-- Node42&#45;&gt;Node43 -->
<g id="edge4" class="edge">
<title>Node42&#45;&gt;Node43</title>
<path fill="none" stroke="#191970" d="M478.0837,-269.195C503.2478,-272.4325 530.5798,-275.9489 550.8222,-278.5531"/>
<polygon fill="#191970" stroke="#191970" points="550.6306,-282.0573 560.9955,-279.862 551.5239,-275.1145 550.6306,-282.0573"/>
</g>
<!-- Node45&#45;&gt;Node43 -->
<g id="edge7" class="edge">
<title>Node45&#45;&gt;Node43</title>
<path fill="none" stroke="#191970" d="M465.0756,-297.4786C493.3859,-293.8363 526.924,-289.5215 550.7152,-286.4606"/>
<polygon fill="#191970" stroke="#191970" points="551.435,-289.8969 560.9066,-285.1494 550.5417,-282.9542 551.435,-289.8969"/>
</g>
<!-- Node49&#45;&gt;Node39 -->
<g id="edge19" class="edge">
<title>Node49&#45;&gt;Node39</title>
<path fill="none" stroke="#191970" d="M189.9353,-158.8365C179.1905,-159.1338 167.6894,-159.2708 156.2478,-159.2474"/>
<polygon fill="#191970" stroke="#191970" points="156.2503,-155.7475 146.2289,-159.1856 156.2071,-162.7474 156.2503,-155.7475"/>
</g>
<!-- Node49&#45;&gt;Node47 -->
<g id="edge12" class="edge">
<title>Node49&#45;&gt;Node47</title>
<path fill="none" stroke="#191970" d="M299.3147,-155.8021C312.108,-156.5728 325.9152,-157.4045 339.304,-158.2111"/>
<polygon fill="#191970" stroke="#191970" points="339.2448,-161.7138 349.4372,-158.8215 339.6658,-154.7264 339.2448,-161.7138"/>
</g>
<!-- Node49&#45;&gt;Node48 -->
<g id="edge13" class="edge">
<title>Node49&#45;&gt;Node48</title>
<path fill="none" stroke="#191970" d="M299.3147,-139.6219C311.3119,-136.8032 324.2008,-133.7751 336.8001,-130.815"/>
<polygon fill="#191970" stroke="#191970" points="337.8854,-134.1554 346.8198,-128.461 336.2844,-127.341 337.8854,-134.1554"/>
</g>
<!-- Node49&#45;&gt;Node49 -->
<g id="edge14" class="edge">
<title>Node49&#45;&gt;Node49</title>
<path fill="none" stroke="#191970" d="M215.5711,-167.659C208.5953,-177.0566 218.2383,-186 244.5,-186 260.5032,-186 270.3353,-182.679 273.9962,-177.9579"/>
<polygon fill="#191970" stroke="#191970" points="277.4737,-177.4513 273.4289,-167.659 270.4843,-177.8364 277.4737,-177.4513"/>
</g>
<!-- Node49&#45;&gt;Node50 -->
<g id="edge15" class="edge">
<title>Node49&#45;&gt;Node50</title>
<path fill="none" stroke="#191970" d="M265.245,-137.3663C284.6649,-123.6587 314.8327,-103.5209 343,-89.5 347.2512,-87.3839 351.7276,-85.3451 356.2686,-83.4074"/>
<polygon fill="#191970" stroke="#191970" points="357.698,-86.6043 365.6292,-79.5795 355.0484,-80.1251 357.698,-86.6043"/>
</g>
<!-- Node51 -->
<g id="node13" class="node">
<title>Node51</title>
<g id="a_node13"><a xlink:href="group__TOOSIGNING__INITIALIZE.html#gafd247c5271ff63bfcde14ef94060002d" target="_top" xlink:title="TooSigning_requested\l_noncelist_initialize">
<polygon fill="#ffffff" stroke="#000000" points="525,-98.5 525,-128.5 638,-128.5 638,-98.5 525,-98.5"/>
<text text-anchor="start" x="533" y="-116.5" font-family="Helvetica,sans-Serif" font-size="10.00" fill="#000000">TooSigning_requested</text>
<text text-anchor="middle" x="581.5" y="-105.5" font-family="Helvetica,sans-Serif" font-size="10.00" fill="#000000">_noncelist_initialize</text>
</a>
</g>
</g>
<!-- Node50&#45;&gt;Node51 -->
<g id="edge16" class="edge">
<title>Node50&#45;&gt;Node51</title>
<path fill="none" stroke="#191970" d="M463.2009,-79.6014C480.9189,-84.6785 500.8517,-90.3902 519.234,-95.6577"/>
<polygon fill="#191970" stroke="#191970" points="518.3958,-99.0583 528.9731,-98.4484 520.3241,-92.3291 518.3958,-99.0583"/>
</g>
<!-- Node52 -->
<g id="node14" class="node">
<title>Node52</title>
<g id="a_node14"><a xlink:href="TooSigning_8cpp.html#a74e394128707e55045381d7c9ab6f6fd" target="_top" xlink:title="TooSigning_requested\l_noncelist_find_for_nodeID">
<polygon fill="#ffffff" stroke="#000000" points="514,-49.5 514,-79.5 649,-79.5 649,-49.5 514,-49.5"/>
<text text-anchor="start" x="522" y="-67.5" font-family="Helvetica,sans-Serif" font-size="10.00" fill="#000000">TooSigning_requested</text>
<text text-anchor="middle" x="581.5" y="-56.5" font-family="Helvetica,sans-Serif" font-size="10.00" fill="#000000">_noncelist_find_for_nodeID</text>
</a>
</g>
</g>
<!-- Node50&#45;&gt;Node52 -->
<g id="edge17" class="edge">
<title>Node50&#45;&gt;Node52</title>
<path fill="none" stroke="#191970" d="M467.4405,-64.5C479.0537,-64.5 491.4611,-64.5 503.6589,-64.5"/>
<polygon fill="#191970" stroke="#191970" points="503.8338,-68.0001 513.8338,-64.5 503.8337,-61.0001 503.8338,-68.0001"/>
</g>
<!-- Node53 -->
<g id="node15" class="node">
<title>Node53</title>
<g id="a_node15"><a xlink:href="group__TOOSIGNING__DEBUGGING.html#gabb54a5e4968d69e35d665869d5c6588f" target="_top" xlink:title="TooSigning_requested\l_noncelist_print">
<polygon fill="#ffffff" stroke="#000000" points="525,-.5 525,-30.5 638,-30.5 638,-.5 525,-.5"/>
<text text-anchor="start" x="533" y="-18.5" font-family="Helvetica,sans-Serif" font-size="10.00" fill="#000000">TooSigning_requested</text>
<text text-anchor="middle" x="581.5" y="-7.5" font-family="Helvetica,sans-Serif" font-size="10.00" fill="#000000">_noncelist_print</text>
</a>
</g>
</g>
<!-- Node50&#45;&gt;Node53 -->
<g id="edge18" class="edge">
<title>Node50&#45;&gt;Node53</title>
<path fill="none" stroke="#191970" d="M463.2009,-49.3986C480.9189,-44.3215 500.8517,-38.6098 519.234,-33.3423"/>
<polygon fill="#191970" stroke="#191970" points="520.3241,-36.6709 528.9731,-30.5516 518.3958,-29.9417 520.3241,-36.6709"/>
</g>
</g>
</svg>
        <g id="navigator" transform="translate(0 0)" fill="#404254">
                <rect fill="#f2f5e9" fill-opacity="0.5" stroke="#606060" stroke-width=".5" x="0" y="0" width="60" height="60"/>
                <use id="zoomplus" xlink:href="#zoomPlus" x="17" y="9" onmousedown="handleZoom(evt,'in')"/>
                <use id="zoomminus" xlink:href="#zoomMin" x="42" y="9" onmousedown="handleZoom(evt,'out')"/>
                <use id="reset" xlink:href="#resetDef" x="30" y="36" onmousedown="handleReset()"/>
                <g id="arrowUp" xlink:href="#dirArrow" transform="translate(30 24)" onmousedown="handlePan(0,-1)">
                  <use xlink:href="#rim" fill="#404040">
                        <set attributeName="fill" to="#808080" begin="arrowUp.mouseover" end="arrowUp.mouseout"/>
                  </use>
                  <path fill="none" stroke="white" stroke-width="1.5" d="M0,-3.0v7 M-2.5,-0.5L0,-3.0L2.5,-0.5"/>
                </g>
                <g id="arrowRight" xlink:href="#dirArrow" transform="rotate(90) translate(36 -43)" onmousedown="handlePan(1,0)">
                  <use xlink:href="#rim" fill="#404040">
                        <set attributeName="fill" to="#808080" begin="arrowRight.mouseover" end="arrowRight.mouseout"/>
                  </use>
                  <path fill="none" stroke="white" stroke-width="1.5" d="M0,-3.0v7 M-2.5,-0.5L0,-3.0L2.5,-0.5"/>
                </g>
                <g id="arrowDown" xlink:href="#dirArrow" transform="rotate(180) translate(-30 -48)" onmousedown="handlePan(0,1)">
                  <use xlink:href="#rim" fill="#404040">
                        <set attributeName="fill" to="#808080" begin="arrowDown.mouseover" end="arrowDown.mouseout"/>
                  </use>
                  <path fill="none" stroke="white" stroke-width="1.5" d="M0,-3.0v7 M-2.5,-0.5L0,-3.0L2.5,-0.5"/>
                </g>
                <g id="arrowLeft" xlink:href="#dirArrow" transform="rotate(270) translate(-36 17)" onmousedown="handlePan(-1,0)">
                  <use xlink:href="#rim" fill="#404040">
                        <set attributeName="fill" to="#808080" begin="arrowLeft.mouseover" end="arrowLeft.mouseout"/>
                  </use>
                  <path fill="none" stroke="white" stroke-width="1.5" d="M0,-3.0v7 M-2.5,-0.5L0,-3.0L2.5,-0.5"/>
                </g>
        </g>
        <svg viewBox="0 0 15 15" width="100%" height="30px" preserveAspectRatio="xMaxYMin meet">
         <g id="arrow_out" transform="scale(0.3 0.3)">
          <a xlink:href="TooNetworking_8cpp_aa8040740e6ffca2f68beb7f8e57d63fc_cgraph_org.svg" target="_base">
           <rect id="button" ry="5" rx="5" y="6" x="6" height="38" width="38"
                fill="#f2f5e9" fill-opacity="0.5" stroke="#606060" stroke-width="1.0"/>
           <path id="arrow"
             d="M 11.500037,31.436501 C 11.940474,20.09759 22.043105,11.32322 32.158766,21.979434 L 37.068811,17.246167 C 37.068811,17.246167 37.088388,32 37.088388,32 L 22.160133,31.978069 C 22.160133,31.978069 26.997745,27.140456 26.997745,27.140456 C 18.528582,18.264221 13.291696,25.230495 11.500037,31.436501 z"
             style="fill:#404040;"/>
          </a>
         </g>
        </svg>
</svg>
