<?xml version="1.0" encoding="UTF-8" standalone="no"?>
<!DOCTYPE svg PUBLIC "-//W3C//DTD SVG 1.1//EN"
 "http://www.w3.org/Graphics/SVG/1.1/DTD/svg11.dtd">
<!-- Generated by graphviz version 2.40.1 (20161225.0304)
 -->
<!-- Title: TooNetworking_bufferlist_remove Pages: 1 -->
<svg width="782pt" height="123pt"
 viewBox="0.00 0.00 782.00 123.00" xmlns="http://www.w3.org/2000/svg" xmlns:xlink="http://www.w3.org/1999/xlink">
<g id="graph0" class="graph" transform="scale(1 1) rotate(0) translate(4 119)">
<title>TooNetworking_bufferlist_remove</title>
<polygon fill="#ffffff" stroke="transparent" points="-4,4 -4,-119 778,-119 778,4 -4,4"/>
<!-- Node35 -->
<g id="node1" class="node">
<title>Node35</title>
<polygon fill="#bfbfbf" stroke="#000000" points="0,-.5 0,-30.5 125,-30.5 125,-.5 0,-.5"/>
<text text-anchor="start" x="8" y="-18.5" font-family="Helvetica,sans-Serif" font-size="10.00" fill="#000000">TooNetworking_bufferlist</text>
<text text-anchor="middle" x="62.5" y="-7.5" font-family="Helvetica,sans-Serif" font-size="10.00" fill="#000000">_remove</text>
</g>
<!-- Node36 -->
<g id="node2" class="node">
<title>Node36</title>
<g id="a_node2"><a xlink:href="TooNetworking_8h.html#a0ad03a7efb42cf40ca3e20fb5df3a5db" target="_top" xlink:title="TooNetworking_bufferlist\l_send_">
<polygon fill="#ffffff" stroke="#000000" points="161,-22.5 161,-52.5 286,-52.5 286,-22.5 161,-22.5"/>
<text text-anchor="start" x="169" y="-40.5" font-family="Helvetica,sans-Serif" font-size="10.00" fill="#000000">TooNetworking_bufferlist</text>
<text text-anchor="middle" x="223.5" y="-29.5" font-family="Helvetica,sans-Serif" font-size="10.00" fill="#000000">_send_</text>
</a>
</g>
</g>
<!-- Node35&#45;&gt;Node36 -->
<g id="edge1" class="edge">
<title>Node35&#45;&gt;Node36</title>
<path fill="none" stroke="#191970" d="M135.2184,-25.4367C143.8129,-26.6111 152.5268,-27.8018 160.9633,-28.9546"/>
<polygon fill="#191970" stroke="#191970" points="135.5896,-21.955 125.2078,-24.0688 134.6419,-28.8905 135.5896,-21.955"/>
</g>
<!-- Node40 -->
<g id="node6" class="node">
<title>Node40</title>
<g id="a_node6"><a xlink:href="TooNetworking_8h.html#ab58e06e0eb6f2f8ecbebeaf3c173fb22" target="_top" xlink:title="TooNetworking_bufferlist\l_send_all">
<polygon fill="#ffffff" stroke="#000000" points="649,-16.5 649,-46.5 774,-46.5 774,-16.5 649,-16.5"/>
<text text-anchor="start" x="657" y="-34.5" font-family="Helvetica,sans-Serif" font-size="10.00" fill="#000000">TooNetworking_bufferlist</text>
<text text-anchor="middle" x="711.5" y="-23.5" font-family="Helvetica,sans-Serif" font-size="10.00" fill="#000000">_send_all</text>
</a>
</g>
</g>
<!-- Node35&#45;&gt;Node40 -->
<g id="edge8" class="edge">
<title>Node35&#45;&gt;Node40</title>
<path fill="none" stroke="#191970" d="M135.1838,-13.8575C143.8831,-13.7102 152.6407,-13.5849 161,-13.5 216.5527,-12.9361 230.4569,-12.3257 286,-13.5 414.9923,-16.2272 565.8335,-23.5999 648.8033,-28.0178"/>
<polygon fill="#191970" stroke="#191970" points="134.9615,-10.3608 125.0258,-14.0394 135.0869,-17.3597 134.9615,-10.3608"/>
</g>
<!-- Node37 -->
<g id="node3" class="node">
<title>Node37</title>
<g id="a_node3"><a xlink:href="TooNetworking_8h.html#a59be7e774988f57ab43c4c078c570c67" target="_top" xlink:title="TooNetworking_bufferlist_add">
<polygon fill="#ffffff" stroke="#000000" points="322,-66 322,-85 468,-85 468,-66 322,-66"/>
<text text-anchor="middle" x="395" y="-73" font-family="Helvetica,sans-Serif" font-size="10.00" fill="#000000">TooNetworking_bufferlist_add</text>
</a>
</g>
</g>
<!-- Node36&#45;&gt;Node37 -->
<g id="edge2" class="edge">
<title>Node36&#45;&gt;Node37</title>
<path fill="none" stroke="#191970" d="M296.2128,-53.6113C315.1946,-57.8172 335.049,-62.2164 351.9378,-65.9585"/>
<polygon fill="#191970" stroke="#191970" points="296.9068,-50.1803 286.3864,-51.434 295.3925,-57.0145 296.9068,-50.1803"/>
</g>
<!-- Node36&#45;&gt;Node40 -->
<g id="edge7" class="edge">
<title>Node36&#45;&gt;Node40</title>
<path fill="none" stroke="#191970" d="M296.4768,-36.6027C392.231,-35.4254 558.6699,-33.3791 648.9426,-32.2691"/>
<polygon fill="#191970" stroke="#191970" points="296.2546,-33.1051 286.2984,-36.7279 296.3407,-40.1046 296.2546,-33.1051"/>
</g>
<!-- Node38 -->
<g id="node4" class="node">
<title>Node38</title>
<g id="a_node4"><a xlink:href="TooNetworking_8h.html#a9209f3e1a2fdf0b3b88d49105b8fc359" target="_top" xlink:title="TooNetworking_send\l_signed">
<polygon fill="#ffffff" stroke="#000000" points="504,-60.5 504,-90.5 613,-90.5 613,-60.5 504,-60.5"/>
<text text-anchor="start" x="512" y="-78.5" font-family="Helvetica,sans-Serif" font-size="10.00" fill="#000000">TooNetworking_send</text>
<text text-anchor="middle" x="558.5" y="-67.5" font-family="Helvetica,sans-Serif" font-size="10.00" fill="#000000">_signed</text>
</a>
</g>
</g>
<!-- Node37&#45;&gt;Node38 -->
<g id="edge3" class="edge">
<title>Node37&#45;&gt;Node38</title>
<path fill="none" stroke="#191970" d="M478.2213,-75.5C486.8182,-75.5 495.3934,-75.5 503.5665,-75.5"/>
<polygon fill="#191970" stroke="#191970" points="478.1422,-72.0001 468.1421,-75.5 478.1421,-79.0001 478.1422,-72.0001"/>
</g>
<!-- Node39 -->
<g id="node5" class="node">
<title>Node39</title>
<g id="a_node5"><a xlink:href="TooNetworking_8h.html#a085ff748b00f6be4ebafcae2bb0dded1" target="_top" xlink:title="TooNetworking_bufferlist\l_send_signed">
<polygon fill="#ffffff" stroke="#000000" points="649,-84.5 649,-114.5 774,-114.5 774,-84.5 649,-84.5"/>
<text text-anchor="start" x="657" y="-102.5" font-family="Helvetica,sans-Serif" font-size="10.00" fill="#000000">TooNetworking_bufferlist</text>
<text text-anchor="middle" x="711.5" y="-91.5" font-family="Helvetica,sans-Serif" font-size="10.00" fill="#000000">_send_signed</text>
</a>
</g>
</g>
<!-- Node37&#45;&gt;Node39 -->
<g id="edge6" class="edge">
<title>Node37&#45;&gt;Node39</title>
<path fill="none" stroke="#191970" d="M437.7751,-87.6606C457.7202,-92.7222 481.8853,-97.9964 504,-100.5 552.137,-105.9495 564.5562,-100.7459 613,-100.5 624.6289,-100.441 637.0298,-100.3427 648.9721,-100.2303"/>
<polygon fill="#191970" stroke="#191970" points="438.6171,-84.2632 428.0576,-85.1278 436.8515,-91.0369 438.6171,-84.2632"/>
</g>
<!-- Node38&#45;&gt;Node39 -->
<g id="edge4" class="edge">
<title>Node38&#45;&gt;Node39</title>
<path fill="none" stroke="#191970" d="M623.4187,-85.6833C631.811,-86.9998 640.3936,-88.3461 648.7499,-89.6569"/>
<polygon fill="#191970" stroke="#191970" points="623.726,-82.1888 613.3044,-84.0968 622.6411,-89.1042 623.726,-82.1888"/>
</g>
<!-- Node38&#45;&gt;Node40 -->
<g id="edge5" class="edge">
<title>Node38&#45;&gt;Node40</title>
<path fill="none" stroke="#191970" d="M620.4364,-57.6882C633.3136,-53.985 646.7624,-50.1173 659.2498,-46.5262"/>
<polygon fill="#191970" stroke="#191970" points="619.3691,-54.3532 610.726,-60.4808 621.3038,-61.0806 619.3691,-54.3532"/>
</g>
</g>
</svg>
