<?xml version="1.0" encoding="UTF-8" standalone="no"?>
<!DOCTYPE svg PUBLIC "-//W3C//DTD SVG 1.1//EN"
 "http://www.w3.org/Graphics/SVG/1.1/DTD/svg11.dtd">
<!-- Generated by graphviz version 2.40.1 (20161225.0304)
 -->
<!-- Title: TooNetworking_send_signed Pages: 1 -->
<svg width="531pt" height="120pt"
 viewBox="0.00 0.00 531.00 120.00" xmlns="http://www.w3.org/2000/svg" xmlns:xlink="http://www.w3.org/1999/xlink">
<g id="graph0" class="graph" transform="scale(1 1) rotate(0) translate(4 116)">
<title>TooNetworking_send_signed</title>
<polygon fill="#ffffff" stroke="transparent" points="-4,4 -4,-116 527,-116 527,4 -4,4"/>
<!-- Node216 -->
<g id="node1" class="node">
<title>Node216</title>
<polygon fill="#bfbfbf" stroke="#000000" points="0,-63.5 0,-93.5 109,-93.5 109,-63.5 0,-63.5"/>
<text text-anchor="start" x="8" y="-81.5" font-family="Helvetica,sans-Serif" font-size="10.00" fill="#000000">TooNetworking_send</text>
<text text-anchor="middle" x="54.5" y="-70.5" font-family="Helvetica,sans-Serif" font-size="10.00" fill="#000000">_signed</text>
</g>
<!-- Node216&#45;&gt;Node216 -->
<g id="edge5" class="edge">
<title>Node216&#45;&gt;Node216</title>
<path fill="none" stroke="#191970" d="M25.7146,-103.9579C29.2872,-108.679 38.8824,-112 54.5,-112 80.1289,-112 89.5395,-103.0566 82.7318,-93.659"/>
<polygon fill="#191970" stroke="#191970" points="29.2263,-103.8325 26.2682,-93.659 22.2364,-103.4567 29.2263,-103.8325"/>
</g>
<!-- Node217 -->
<g id="node2" class="node">
<title>Node217</title>
<g id="a_node2"><a xlink:href="TooNetworking_8h.html#a59be7e774988f57ab43c4c078c570c67" target="_top" xlink:title="TooNetworking_bufferlist_add">
<polygon fill="#ffffff" stroke="#000000" points="145,-88 145,-107 291,-107 291,-88 145,-88"/>
<text text-anchor="middle" x="218" y="-95" font-family="Helvetica,sans-Serif" font-size="10.00" fill="#000000">TooNetworking_bufferlist_add</text>
</a>
</g>
</g>
<!-- Node216&#45;&gt;Node217 -->
<g id="edge1" class="edge">
<title>Node216&#45;&gt;Node217</title>
<path fill="none" stroke="#191970" d="M119.4,-79.421C141.4851,-81.6447 165.2855,-84.7504 183.9691,-87.9442"/>
<polygon fill="#191970" stroke="#191970" points="119.6858,-75.9324 109.398,-78.4642 119.0192,-82.9006 119.6858,-75.9324"/>
</g>
<!-- Node218 -->
<g id="node3" class="node">
<title>Node218</title>
<g id="a_node3"><a xlink:href="TooNetworking_8h.html#a085ff748b00f6be4ebafcae2bb0dded1" target="_top" xlink:title="TooNetworking_bufferlist\l_send_signed">
<polygon fill="#ffffff" stroke="#000000" points="327,-63.5 327,-93.5 452,-93.5 452,-63.5 327,-63.5"/>
<text text-anchor="start" x="335" y="-81.5" font-family="Helvetica,sans-Serif" font-size="10.00" fill="#000000">TooNetworking_bufferlist</text>
<text text-anchor="middle" x="389.5" y="-70.5" font-family="Helvetica,sans-Serif" font-size="10.00" fill="#000000">_send_signed</text>
</a>
</g>
</g>
<!-- Node216&#45;&gt;Node218 -->
<g id="edge6" class="edge">
<title>Node216&#45;&gt;Node218</title>
<path fill="none" stroke="#191970" d="M119.1738,-78.5C179.1187,-78.5 267.722,-78.5 326.971,-78.5"/>
<polygon fill="#191970" stroke="#191970" points="119.0692,-75.0001 109.0691,-78.5 119.0691,-82.0001 119.0692,-75.0001"/>
</g>
<!-- Node220 -->
<g id="node5" class="node">
<title>Node220</title>
<g id="a_node5"><a xlink:href="TooNetworking_8h.html#ab58e06e0eb6f2f8ecbebeaf3c173fb22" target="_top" xlink:title="TooNetworking_bufferlist\l_send_all">
<polygon fill="#ffffff" stroke="#000000" points="155.5,-.5 155.5,-30.5 280.5,-30.5 280.5,-.5 155.5,-.5"/>
<text text-anchor="start" x="163.5" y="-18.5" font-family="Helvetica,sans-Serif" font-size="10.00" fill="#000000">TooNetworking_bufferlist</text>
<text text-anchor="middle" x="218" y="-7.5" font-family="Helvetica,sans-Serif" font-size="10.00" fill="#000000">_send_all</text>
</a>
</g>
</g>
<!-- Node216&#45;&gt;Node220 -->
<g id="edge7" class="edge">
<title>Node216&#45;&gt;Node220</title>
<path fill="none" stroke="#191970" d="M103.0275,-59.8013C127.2292,-50.4759 156.1121,-39.3467 178.8742,-30.576"/>
<polygon fill="#191970" stroke="#191970" points="101.7351,-56.5484 93.6623,-63.4099 104.252,-63.0803 101.7351,-56.5484"/>
</g>
<!-- Node217&#45;&gt;Node216 -->
<g id="edge2" class="edge">
<title>Node217&#45;&gt;Node216</title>
<path fill="none" stroke="#191970" d="M134.8347,-94.5846C126.2066,-93.571 117.5995,-92.4595 109.398,-91.2949"/>
<polygon fill="#191970" stroke="#191970" points="134.6204,-98.0826 144.95,-95.7269 135.406,-91.1268 134.6204,-98.0826"/>
</g>
<!-- Node217&#45;&gt;Node218 -->
<g id="edge3" class="edge">
<title>Node217&#45;&gt;Node218</title>
<path fill="none" stroke="#191970" d="M301.2715,-88.2746C309.8569,-87.3234 318.4755,-86.3686 326.7826,-85.4483"/>
<polygon fill="#191970" stroke="#191970" points="300.7827,-84.8072 291.2289,-89.3872 301.5535,-91.7647 300.7827,-84.8072"/>
</g>
<!-- Node219 -->
<g id="node4" class="node">
<title>Node219</title>
<g id="a_node4"><a xlink:href="NODE__SKETCH__TooAutomation__Node_8ino_8cpp.html#a0b33edabd7f1c4e4a0bf32c67269be2f" target="_top" xlink:title="loop">
<polygon fill="#ffffff" stroke="#000000" points="488,-69 488,-88 523,-88 523,-69 488,-69"/>
<text text-anchor="middle" x="505.5" y="-76" font-family="Helvetica,sans-Serif" font-size="10.00" fill="#000000">loop</text>
</a>
</g>
</g>
<!-- Node218&#45;&gt;Node219 -->
<g id="edge4" class="edge">
<title>Node218&#45;&gt;Node219</title>
<path fill="none" stroke="#191970" d="M462.5149,-78.5C471.8175,-78.5 480.5667,-78.5 487.7123,-78.5"/>
<polygon fill="#191970" stroke="#191970" points="462.2531,-75.0001 452.2531,-78.5 462.253,-82.0001 462.2531,-75.0001"/>
</g>
</g>
</svg>
