<?xml version="1.0" encoding="UTF-8" standalone="no"?>
<!DOCTYPE svg PUBLIC "-//W3C//DTD SVG 1.1//EN"
 "http://www.w3.org/Graphics/SVG/1.1/DTD/svg11.dtd">
<!-- Generated by graphviz version 2.40.1 (20161225.0304)
 -->
<!-- Title: TooNetworking_bufferlist_remove Pages: 1 -->
<svg width="708pt" height="107pt"
 viewBox="0.00 0.00 708.00 107.00" xmlns="http://www.w3.org/2000/svg" xmlns:xlink="http://www.w3.org/1999/xlink">
<g id="graph0" class="graph" transform="scale(1 1) rotate(0) translate(4 103)">
<title>TooNetworking_bufferlist_remove</title>
<polygon fill="#ffffff" stroke="transparent" points="-4,4 -4,-103 704,-103 704,4 -4,4"/>
<!-- Node50 -->
<g id="node1" class="node">
<title>Node50</title>
<polygon fill="#bfbfbf" stroke="#000000" points="0,-22.5 0,-52.5 125,-52.5 125,-22.5 0,-22.5"/>
<text text-anchor="start" x="8" y="-40.5" font-family="Helvetica,sans-Serif" font-size="10.00" fill="#000000">TooNetworking_bufferlist</text>
<text text-anchor="middle" x="62.5" y="-29.5" font-family="Helvetica,sans-Serif" font-size="10.00" fill="#000000">_remove</text>
</g>
<!-- Node51 -->
<g id="node2" class="node">
<title>Node51</title>
<g id="a_node2"><a xlink:href="TooNetworking_8h.html#a0ad03a7efb42cf40ca3e20fb5df3a5db" target="_top" xlink:title="TooNetworking_bufferlist\l_send_">
<polygon fill="#ffffff" stroke="#000000" points="161,-44.5 161,-74.5 286,-74.5 286,-44.5 161,-44.5"/>
<text text-anchor="start" x="169" y="-62.5" font-family="Helvetica,sans-Serif" font-size="10.00" fill="#000000">TooNetworking_bufferlist</text>
<text text-anchor="middle" x="223.5" y="-51.5" font-family="Helvetica,sans-Serif" font-size="10.00" fill="#000000">_send_</text>
</a>
</g>
</g>
<!-- Node50&#45;&gt;Node51 -->
<g id="edge1" class="edge">
<title>Node50&#45;&gt;Node51</title>
<path fill="none" stroke="#191970" d="M135.2184,-47.4367C143.8129,-48.6111 152.5268,-49.8018 160.9633,-50.9546"/>
<polygon fill="#191970" stroke="#191970" points="135.5896,-43.955 125.2078,-46.0688 134.6419,-50.8905 135.5896,-43.955"/>
</g>
<!-- Node56 -->
<g id="node7" class="node">
<title>Node56</title>
<g id="a_node7"><a xlink:href="TooNetworking_8h.html#ab58e06e0eb6f2f8ecbebeaf3c173fb22" target="_top" xlink:title="TooNetworking_bufferlist\l_send_all">
<polygon fill="#ffffff" stroke="#000000" points="332.5,-.5 332.5,-30.5 457.5,-30.5 457.5,-.5 332.5,-.5"/>
<text text-anchor="start" x="340.5" y="-18.5" font-family="Helvetica,sans-Serif" font-size="10.00" fill="#000000">TooNetworking_bufferlist</text>
<text text-anchor="middle" x="395" y="-7.5" font-family="Helvetica,sans-Serif" font-size="10.00" fill="#000000">_send_all</text>
</a>
</g>
</g>
<!-- Node50&#45;&gt;Node56 -->
<g id="edge7" class="edge">
<title>Node50&#45;&gt;Node56</title>
<path fill="none" stroke="#191970" d="M135.0319,-32.7009C194.0076,-28.7987 276.3514,-23.3504 332.4578,-19.6381"/>
<polygon fill="#191970" stroke="#191970" points="134.7878,-29.2093 125.0407,-33.362 135.25,-36.194 134.7878,-29.2093"/>
</g>
<!-- Node52 -->
<g id="node3" class="node">
<title>Node52</title>
<g id="a_node3"><a xlink:href="TooNetworking_8h.html#a59be7e774988f57ab43c4c078c570c67" target="_top" xlink:title="TooNetworking_bufferlist_add">
<polygon fill="#ffffff" stroke="#000000" points="322,-50 322,-69 468,-69 468,-50 322,-50"/>
<text text-anchor="middle" x="395" y="-57" font-family="Helvetica,sans-Serif" font-size="10.00" fill="#000000">TooNetworking_bufferlist_add</text>
</a>
</g>
</g>
<!-- Node51&#45;&gt;Node52 -->
<g id="edge2" class="edge">
<title>Node51&#45;&gt;Node52</title>
<path fill="none" stroke="#191970" d="M296.5451,-59.5C304.9597,-59.5 313.5412,-59.5 321.9558,-59.5"/>
<polygon fill="#191970" stroke="#191970" points="296.3865,-56.0001 286.3864,-59.5 296.3864,-63.0001 296.3865,-56.0001"/>
</g>
<!-- Node51&#45;&gt;Node56 -->
<g id="edge6" class="edge">
<title>Node51&#45;&gt;Node56</title>
<path fill="none" stroke="#191970" d="M292.0771,-41.9059C306.7681,-38.1368 322.1602,-34.1878 336.432,-30.5262"/>
<polygon fill="#191970" stroke="#191970" points="290.8574,-38.6054 282.0409,-44.4808 292.597,-45.3858 290.8574,-38.6054"/>
</g>
<!-- Node53 -->
<g id="node4" class="node">
<title>Node53</title>
<g id="a_node4"><a xlink:href="TooNetworking_8h.html#a9209f3e1a2fdf0b3b88d49105b8fc359" target="_top" xlink:title="TooNetworking_send\l_signed">
<polygon fill="#ffffff" stroke="#000000" points="512,-68.5 512,-98.5 621,-98.5 621,-68.5 512,-68.5"/>
<text text-anchor="start" x="520" y="-86.5" font-family="Helvetica,sans-Serif" font-size="10.00" fill="#000000">TooNetworking_send</text>
<text text-anchor="middle" x="566.5" y="-75.5" font-family="Helvetica,sans-Serif" font-size="10.00" fill="#000000">_signed</text>
</a>
</g>
</g>
<!-- Node52&#45;&gt;Node53 -->
<g id="edge3" class="edge">
<title>Node52&#45;&gt;Node53</title>
<path fill="none" stroke="#191970" d="M473.2082,-70.4446C486.2857,-72.2747 499.599,-74.1378 511.9187,-75.8618"/>
<polygon fill="#191970" stroke="#191970" points="473.6627,-66.9742 463.2741,-69.0544 472.6925,-73.9066 473.6627,-66.9742"/>
</g>
<!-- Node54 -->
<g id="node5" class="node">
<title>Node54</title>
<g id="a_node5"><a xlink:href="TooNetworking_8h.html#a085ff748b00f6be4ebafcae2bb0dded1" target="_top" xlink:title="TooNetworking_bufferlist\l_send_signed">
<polygon fill="#ffffff" stroke="#000000" points="504,-19.5 504,-49.5 629,-49.5 629,-19.5 504,-19.5"/>
<text text-anchor="start" x="512" y="-37.5" font-family="Helvetica,sans-Serif" font-size="10.00" fill="#000000">TooNetworking_bufferlist</text>
<text text-anchor="middle" x="566.5" y="-26.5" font-family="Helvetica,sans-Serif" font-size="10.00" fill="#000000">_send_signed</text>
</a>
</g>
</g>
<!-- Node52&#45;&gt;Node54 -->
<g id="edge4" class="edge">
<title>Node52&#45;&gt;Node54</title>
<path fill="none" stroke="#191970" d="M470.4866,-48.4961C481.6464,-46.8693 493.0416,-45.2082 503.9012,-43.6252"/>
<polygon fill="#191970" stroke="#191970" points="469.7166,-45.0713 460.326,-49.9773 470.7263,-51.9981 469.7166,-45.0713"/>
</g>
<!-- Node55 -->
<g id="node6" class="node">
<title>Node55</title>
<g id="a_node6"><a xlink:href="NODE__SKETCH__TooAutomation__Node_8ino_8cpp.html#a0b33edabd7f1c4e4a0bf32c67269be2f" target="_top" xlink:title="loop">
<polygon fill="#ffffff" stroke="#000000" points="665,-25 665,-44 700,-44 700,-25 665,-25"/>
<text text-anchor="middle" x="682.5" y="-32" font-family="Helvetica,sans-Serif" font-size="10.00" fill="#000000">loop</text>
</a>
</g>
</g>
<!-- Node54&#45;&gt;Node55 -->
<g id="edge5" class="edge">
<title>Node54&#45;&gt;Node55</title>
<path fill="none" stroke="#191970" d="M639.5149,-34.5C648.8175,-34.5 657.5667,-34.5 664.7123,-34.5"/>
<polygon fill="#191970" stroke="#191970" points="639.2531,-31.0001 629.2531,-34.5 639.253,-38.0001 639.2531,-31.0001"/>
</g>
</g>
</svg>
