<?xml version="1.0" encoding="UTF-8" standalone="no"?>
<!DOCTYPE svg PUBLIC "-//W3C//DTD SVG 1.1//EN"
 "http://www.w3.org/Graphics/SVG/1.1/DTD/svg11.dtd">
<!-- Generated by graphviz version 2.40.1 (20161225.0304)
 -->
<!-- Title: TooNetworking_this_node_is_online Pages: 1 -->
<svg width="745pt" height="88pt"
 viewBox="0.00 0.00 745.00 88.00" xmlns="http://www.w3.org/2000/svg" xmlns:xlink="http://www.w3.org/1999/xlink">
<g id="graph0" class="graph" transform="scale(1 1) rotate(0) translate(4 84)">
<title>TooNetworking_this_node_is_online</title>
<polygon fill="#ffffff" stroke="transparent" points="-4,4 -4,-84 741,-84 741,4 -4,4"/>
<!-- Node215 -->
<g id="node1" class="node">
<title>Node215</title>
<polygon fill="#bfbfbf" stroke="#000000" points="0,-25.5 0,-55.5 104,-55.5 104,-25.5 0,-25.5"/>
<text text-anchor="start" x="8" y="-43.5" font-family="Helvetica,sans-Serif" font-size="10.00" fill="#000000">TooNetworking_this</text>
<text text-anchor="middle" x="52" y="-32.5" font-family="Helvetica,sans-Serif" font-size="10.00" fill="#000000">_node_is_online</text>
</g>
<!-- Node216 -->
<g id="node2" class="node">
<title>Node216</title>
<g id="a_node2"><a xlink:href="TooNetworking_8h.html#a9f893c3218491ee86282fdcd9f376500" target="_top" xlink:title="TooNetworking_send\l_signed_">
<polygon fill="#ffffff" stroke="#000000" points="140,-25.5 140,-55.5 249,-55.5 249,-25.5 140,-25.5"/>
<text text-anchor="start" x="148" y="-43.5" font-family="Helvetica,sans-Serif" font-size="10.00" fill="#000000">TooNetworking_send</text>
<text text-anchor="middle" x="194.5" y="-32.5" font-family="Helvetica,sans-Serif" font-size="10.00" fill="#000000">_signed_</text>
</a>
</g>
</g>
<!-- Node215&#45;&gt;Node216 -->
<g id="edge1" class="edge">
<title>Node215&#45;&gt;Node216</title>
<path fill="none" stroke="#191970" d="M114.4583,-40.5C122.9203,-40.5 131.5503,-40.5 139.861,-40.5"/>
<polygon fill="#191970" stroke="#191970" points="114.2526,-37.0001 104.2526,-40.5 114.2525,-44.0001 114.2526,-37.0001"/>
</g>
<!-- Node217 -->
<g id="node3" class="node">
<title>Node217</title>
<g id="a_node3"><a xlink:href="TooNetworking_8h.html#a59be7e774988f57ab43c4c078c570c67" target="_top" xlink:title="TooNetworking_bufferlist_add">
<polygon fill="#ffffff" stroke="#000000" points="285,-12 285,-31 431,-31 431,-12 285,-12"/>
<text text-anchor="middle" x="358" y="-19" font-family="Helvetica,sans-Serif" font-size="10.00" fill="#000000">TooNetworking_bufferlist_add</text>
</a>
</g>
</g>
<!-- Node216&#45;&gt;Node217 -->
<g id="edge2" class="edge">
<title>Node216&#45;&gt;Node217</title>
<path fill="none" stroke="#191970" d="M259.465,-32.9505C267.8386,-31.9775 276.4576,-30.9759 284.95,-29.989"/>
<polygon fill="#191970" stroke="#191970" points="258.9271,-29.4894 249.398,-34.1204 259.7352,-36.4426 258.9271,-29.4894"/>
</g>
<!-- Node218 -->
<g id="node4" class="node">
<title>Node218</title>
<g id="a_node4"><a xlink:href="TooNetworking_8h.html#a9209f3e1a2fdf0b3b88d49105b8fc359" target="_top" xlink:title="TooNetworking_send\l_signed">
<polygon fill="#ffffff" stroke="#000000" points="467,-44.5 467,-74.5 576,-74.5 576,-44.5 467,-44.5"/>
<text text-anchor="start" x="475" y="-62.5" font-family="Helvetica,sans-Serif" font-size="10.00" fill="#000000">TooNetworking_send</text>
<text text-anchor="middle" x="521.5" y="-51.5" font-family="Helvetica,sans-Serif" font-size="10.00" fill="#000000">_signed</text>
</a>
</g>
</g>
<!-- Node216&#45;&gt;Node218 -->
<g id="edge7" class="edge">
<title>Node216&#45;&gt;Node218</title>
<path fill="none" stroke="#191970" d="M259.4644,-44.2747C320.1602,-47.8014 409.7503,-53.0069 466.8618,-56.3253"/>
<polygon fill="#191970" stroke="#191970" points="259.4187,-40.7662 249.2324,-43.6802 259.0126,-47.7544 259.4187,-40.7662"/>
</g>
<!-- Node217&#45;&gt;Node218 -->
<g id="edge3" class="edge">
<title>Node217&#45;&gt;Node218</title>
<path fill="none" stroke="#191970" d="M409.1856,-33.3963C427.5525,-37.6651 448.324,-42.4927 466.9645,-46.8251"/>
<polygon fill="#191970" stroke="#191970" points="409.7907,-29.9438 399.258,-31.089 408.206,-36.762 409.7907,-29.9438"/>
</g>
<!-- Node219 -->
<g id="node5" class="node">
<title>Node219</title>
<g id="a_node5"><a xlink:href="TooNetworking_8h.html#a085ff748b00f6be4ebafcae2bb0dded1" target="_top" xlink:title="TooNetworking_bufferlist\l_send_signed">
<polygon fill="#ffffff" stroke="#000000" points="612,-.5 612,-30.5 737,-30.5 737,-.5 612,-.5"/>
<text text-anchor="start" x="620" y="-18.5" font-family="Helvetica,sans-Serif" font-size="10.00" fill="#000000">TooNetworking_bufferlist</text>
<text text-anchor="middle" x="674.5" y="-7.5" font-family="Helvetica,sans-Serif" font-size="10.00" fill="#000000">_send_signed</text>
</a>
</g>
</g>
<!-- Node217&#45;&gt;Node219 -->
<g id="edge6" class="edge">
<title>Node217&#45;&gt;Node219</title>
<path fill="none" stroke="#191970" d="M441.144,-19.9238C494.5688,-18.911 562.8624,-17.6164 611.7419,-16.6897"/>
<polygon fill="#191970" stroke="#191970" points="440.9407,-16.4269 431.0089,-20.1159 441.0735,-23.4257 440.9407,-16.4269"/>
</g>
<!-- Node218&#45;&gt;Node219 -->
<g id="edge4" class="edge">
<title>Node218&#45;&gt;Node219</title>
<path fill="none" stroke="#191970" d="M583.4364,-41.6882C596.3136,-37.985 609.7624,-34.1173 622.2498,-30.5262"/>
<polygon fill="#191970" stroke="#191970" points="582.3691,-38.3532 573.726,-44.4808 584.3038,-45.0806 582.3691,-38.3532"/>
</g>
<!-- Node220 -->
<g id="node6" class="node">
<title>Node220</title>
<g id="a_node6"><a xlink:href="TooNetworking_8h.html#ab58e06e0eb6f2f8ecbebeaf3c173fb22" target="_top" xlink:title="TooNetworking_bufferlist\l_send_all">
<polygon fill="#ffffff" stroke="#000000" points="612,-49.5 612,-79.5 737,-79.5 737,-49.5 612,-49.5"/>
<text text-anchor="start" x="620" y="-67.5" font-family="Helvetica,sans-Serif" font-size="10.00" fill="#000000">TooNetworking_bufferlist</text>
<text text-anchor="middle" x="674.5" y="-56.5" font-family="Helvetica,sans-Serif" font-size="10.00" fill="#000000">_send_all</text>
</a>
</g>
</g>
<!-- Node218&#45;&gt;Node220 -->
<g id="edge5" class="edge">
<title>Node218&#45;&gt;Node220</title>
<path fill="none" stroke="#191970" d="M586.4187,-61.6215C594.811,-61.8958 603.3936,-62.1763 611.7499,-62.4493"/>
<polygon fill="#191970" stroke="#191970" points="586.4134,-58.1196 576.3044,-61.291 586.1847,-65.1158 586.4134,-58.1196"/>
</g>
</g>
</svg>
