<?xml version="1.0" encoding="UTF-8" standalone="no"?>
<!DOCTYPE svg PUBLIC "-//W3C//DTD SVG 1.1//EN"
 "http://www.w3.org/Graphics/SVG/1.1/DTD/svg11.dtd">
<!-- Generated by graphviz version 2.40.1 (20161225.0304)
 -->
<!-- Title: TooNetworking_send Pages: 1 -->
<svg width="692pt" height="125pt"
 viewBox="0.00 0.00 692.00 125.47" xmlns="http://www.w3.org/2000/svg" xmlns:xlink="http://www.w3.org/1999/xlink">
<g id="graph0" class="graph" transform="scale(1 1) rotate(0) translate(4 121.4731)">
<title>TooNetworking_send</title>
<polygon fill="#ffffff" stroke="transparent" points="-4,4 -4,-121.4731 688,-121.4731 688,4 -4,4"/>
<!-- Node258 -->
<g id="node1" class="node">
<title>Node258</title>
<polygon fill="#bfbfbf" stroke="#000000" points="0,-52.9731 0,-71.9731 109,-71.9731 109,-52.9731 0,-52.9731"/>
<text text-anchor="middle" x="54.5" y="-59.9731" font-family="Helvetica,sans-Serif" font-size="10.00" fill="#000000">TooNetworking_send</text>
</g>
<!-- Node259 -->
<g id="node2" class="node">
<title>Node259</title>
<g id="a_node2"><a xlink:href="TooNetworking_8h.html#a0ad03a7efb42cf40ca3e20fb5df3a5db" target="_top" xlink:title="TooNetworking_bufferlist\l_send_">
<polygon fill="#ffffff" stroke="#000000" points="145,-72.4731 145,-102.4731 270,-102.4731 270,-72.4731 145,-72.4731"/>
<text text-anchor="start" x="153" y="-90.4731" font-family="Helvetica,sans-Serif" font-size="10.00" fill="#000000">TooNetworking_bufferlist</text>
<text text-anchor="middle" x="207.5" y="-79.4731" font-family="Helvetica,sans-Serif" font-size="10.00" fill="#000000">_send_</text>
</a>
</g>
</g>
<!-- Node258&#45;&gt;Node259 -->
<g id="edge1" class="edge">
<title>Node258&#45;&gt;Node259</title>
<path fill="none" stroke="#191970" d="M119.4187,-73.0807C127.811,-74.452 136.3936,-75.8544 144.7499,-77.2198"/>
<polygon fill="#191970" stroke="#191970" points="119.7379,-69.5865 109.3044,-71.428 118.609,-76.4949 119.7379,-69.5865"/>
</g>
<!-- Node265 -->
<g id="node8" class="node">
<title>Node265</title>
<g id="a_node8"><a xlink:href="TooNetworking_8h.html#a9f893c3218491ee86282fdcd9f376500" target="_top" xlink:title="TooNetworking_send\l_signed_">
<polygon fill="#ffffff" stroke="#000000" points="153,-23.4731 153,-53.4731 262,-53.4731 262,-23.4731 153,-23.4731"/>
<text text-anchor="start" x="161" y="-41.4731" font-family="Helvetica,sans-Serif" font-size="10.00" fill="#000000">TooNetworking_send</text>
<text text-anchor="middle" x="207.5" y="-30.4731" font-family="Helvetica,sans-Serif" font-size="10.00" fill="#000000">_signed_</text>
</a>
</g>
</g>
<!-- Node258&#45;&gt;Node265 -->
<g id="edge7" class="edge">
<title>Node258&#45;&gt;Node265</title>
<path fill="none" stroke="#191970" d="M119.4022,-52.2923C130.5305,-50.5467 141.9941,-48.7485 152.8213,-47.0501"/>
<polygon fill="#191970" stroke="#191970" points="118.6411,-48.8688 109.3044,-53.8763 119.726,-55.7843 118.6411,-48.8688"/>
</g>
<!-- Node260 -->
<g id="node3" class="node">
<title>Node260</title>
<g id="a_node3"><a xlink:href="TooNetworking_8h.html#a59be7e774988f57ab43c4c078c570c67" target="_top" xlink:title="TooNetworking_bufferlist_add">
<polygon fill="#ffffff" stroke="#000000" points="306,-97.9731 306,-116.9731 452,-116.9731 452,-97.9731 306,-97.9731"/>
<text text-anchor="middle" x="379" y="-104.9731" font-family="Helvetica,sans-Serif" font-size="10.00" fill="#000000">TooNetworking_bufferlist_add</text>
</a>
</g>
</g>
<!-- Node259&#45;&gt;Node260 -->
<g id="edge2" class="edge">
<title>Node259&#45;&gt;Node260</title>
<path fill="none" stroke="#191970" d="M280.5451,-95.9914C288.9597,-96.9727 297.5412,-97.9735 305.9558,-98.9548"/>
<polygon fill="#191970" stroke="#191970" points="280.7246,-92.4887 270.3864,-94.8068 279.9137,-99.4416 280.7246,-92.4887"/>
</g>
<!-- Node264 -->
<g id="node7" class="node">
<title>Node264</title>
<g id="a_node7"><a xlink:href="TooNetworking_8h.html#ab58e06e0eb6f2f8ecbebeaf3c173fb22" target="_top" xlink:title="TooNetworking_bufferlist\l_send_all">
<polygon fill="#ffffff" stroke="#000000" points="316.5,-48.4731 316.5,-78.4731 441.5,-78.4731 441.5,-48.4731 316.5,-48.4731"/>
<text text-anchor="start" x="324.5" y="-66.4731" font-family="Helvetica,sans-Serif" font-size="10.00" fill="#000000">TooNetworking_bufferlist</text>
<text text-anchor="middle" x="379" y="-55.4731" font-family="Helvetica,sans-Serif" font-size="10.00" fill="#000000">_send_all</text>
</a>
</g>
</g>
<!-- Node259&#45;&gt;Node264 -->
<g id="edge6" class="edge">
<title>Node259&#45;&gt;Node264</title>
<path fill="none" stroke="#191970" d="M280.3595,-77.277C292.3538,-75.5985 304.6925,-73.8718 316.4078,-72.2323"/>
<polygon fill="#191970" stroke="#191970" points="279.8048,-73.8204 270.3864,-78.6726 280.775,-80.7529 279.8048,-73.8204"/>
</g>
<!-- Node261 -->
<g id="node4" class="node">
<title>Node261</title>
<g id="a_node4"><a xlink:href="TooNetworking_8h.html#a9209f3e1a2fdf0b3b88d49105b8fc359" target="_top" xlink:title="TooNetworking_send\l_signed">
<polygon fill="#ffffff" stroke="#000000" points="496,-72.4731 496,-102.4731 605,-102.4731 605,-72.4731 496,-72.4731"/>
<text text-anchor="start" x="504" y="-90.4731" font-family="Helvetica,sans-Serif" font-size="10.00" fill="#000000">TooNetworking_send</text>
<text text-anchor="middle" x="550.5" y="-79.4731" font-family="Helvetica,sans-Serif" font-size="10.00" fill="#000000">_signed</text>
</a>
</g>
</g>
<!-- Node260&#45;&gt;Node261 -->
<g id="edge3" class="edge">
<title>Node260&#45;&gt;Node261</title>
<path fill="none" stroke="#191970" d="M462.2478,-97.7649C473.6894,-96.4306 485.1905,-95.0893 495.9353,-93.8363"/>
<polygon fill="#191970" stroke="#191970" points="461.7561,-94.2984 452.2289,-98.9332 462.567,-101.2513 461.7561,-94.2984"/>
</g>
<!-- Node262 -->
<g id="node5" class="node">
<title>Node262</title>
<g id="a_node5"><a xlink:href="TooNetworking_8h.html#a085ff748b00f6be4ebafcae2bb0dded1" target="_top" xlink:title="TooNetworking_bufferlist\l_send_signed">
<polygon fill="#ffffff" stroke="#000000" points="488,-4.4731 488,-34.4731 613,-34.4731 613,-4.4731 488,-4.4731"/>
<text text-anchor="start" x="496" y="-22.4731" font-family="Helvetica,sans-Serif" font-size="10.00" fill="#000000">TooNetworking_bufferlist</text>
<text text-anchor="middle" x="550.5" y="-11.4731" font-family="Helvetica,sans-Serif" font-size="10.00" fill="#000000">_send_signed</text>
</a>
</g>
</g>
<!-- Node260&#45;&gt;Node262 -->
<g id="edge4" class="edge">
<title>Node260&#45;&gt;Node262</title>
<path fill="none" stroke="#191970" d="M435.4317,-94.9629C441.1284,-93.0573 446.7451,-90.9012 452,-88.4731 453.0543,-87.9859 500.2632,-54.8175 528.9333,-34.6507"/>
<polygon fill="#191970" stroke="#191970" points="434.3371,-91.6377 425.8184,-97.9371 436.4062,-98.325 434.3371,-91.6377"/>
</g>
<!-- Node263 -->
<g id="node6" class="node">
<title>Node263</title>
<g id="a_node6"><a xlink:href="NODE__SKETCH__TooAutomation__Node_8ino_8cpp.html#a0b33edabd7f1c4e4a0bf32c67269be2f" target="_top" xlink:title="loop">
<polygon fill="#ffffff" stroke="#000000" points="649,-9.9731 649,-28.9731 684,-28.9731 684,-9.9731 649,-9.9731"/>
<text text-anchor="middle" x="666.5" y="-16.9731" font-family="Helvetica,sans-Serif" font-size="10.00" fill="#000000">loop</text>
</a>
</g>
</g>
<!-- Node262&#45;&gt;Node263 -->
<g id="edge5" class="edge">
<title>Node262&#45;&gt;Node263</title>
<path fill="none" stroke="#191970" d="M623.5149,-19.4731C632.8175,-19.4731 641.5667,-19.4731 648.7123,-19.4731"/>
<polygon fill="#191970" stroke="#191970" points="623.2531,-15.9732 613.2531,-19.4731 623.253,-22.9732 623.2531,-15.9732"/>
</g>
<!-- Node265&#45;&gt;Node260 -->
<g id="edge8" class="edge">
<title>Node265&#45;&gt;Node260</title>
<path fill="none" stroke="#191970" d="M258.4317,-57.7113C262.3966,-59.5517 266.2953,-61.4792 270,-63.4731 287.1531,-72.705 288.3002,-80.3383 306,-88.4731 314.2105,-92.2466 323.2983,-95.3662 332.1939,-97.9104"/>
<polygon fill="#191970" stroke="#191970" points="259.6809,-54.4367 249.1204,-53.5851 256.8449,-60.8365 259.6809,-54.4367"/>
</g>
<!-- Node265&#45;&gt;Node261 -->
<g id="edge9" class="edge">
<title>Node265&#45;&gt;Node261</title>
<path fill="none" stroke="#191970" d="M272.2178,-30.4912C322.0461,-26.2512 392.272,-24.4372 452,-38.4731 479.704,-44.9834 508.5267,-60.5145 527.7809,-72.3603"/>
<polygon fill="#191970" stroke="#191970" points="271.8628,-27.009 262.2198,-31.3978 272.495,-33.9804 271.8628,-27.009"/>
</g>
<!-- Node265&#45;&gt;Node262 -->
<g id="edge10" class="edge">
<title>Node265&#45;&gt;Node262</title>
<path fill="none" stroke="#191970" d="M252.669,-19.9334C269.1583,-14.0812 288.1446,-8.3845 306,-5.4731 367.2663,4.517 438.1759,-1.4415 487.8022,-8.4065"/>
<polygon fill="#191970" stroke="#191970" points="251.4603,-16.6486 243.2763,-23.3771 253.87,-23.2208 251.4603,-16.6486"/>
</g>
<!-- Node265&#45;&gt;Node264 -->
<g id="edge11" class="edge">
<title>Node265&#45;&gt;Node264</title>
<path fill="none" stroke="#191970" d="M272.5408,-47.9542C286.9292,-50.0517 302.145,-52.2697 316.4325,-54.3524"/>
<polygon fill="#191970" stroke="#191970" points="272.6355,-44.4311 262.2352,-46.452 271.6257,-51.3579 272.6355,-44.4311"/>
</g>
</g>
</svg>
