<?xml version="1.0" encoding="UTF-8" standalone="no"?>
<!DOCTYPE svg PUBLIC "-//W3C//DTD SVG 1.1//EN"
 "http://www.w3.org/Graphics/SVG/1.1/DTD/svg11.dtd">
<!-- Generated by graphviz version 2.40.1 (20161225.0304)
 -->
<!-- Title: TooNetworking_bufferlist_send_ Pages: 1 -->
<svg width="692pt" height="105pt"
 viewBox="0.00 0.00 692.00 105.00" xmlns="http://www.w3.org/2000/svg" xmlns:xlink="http://www.w3.org/1999/xlink">
<g id="graph0" class="graph" transform="scale(1 1) rotate(0) translate(4 101)">
<title>TooNetworking_bufferlist_send_</title>
<polygon fill="#ffffff" stroke="transparent" points="-4,4 -4,-101 688,-101 688,4 -4,4"/>
<!-- Node81 -->
<g id="node1" class="node">
<title>Node81</title>
<polygon fill="#bfbfbf" stroke="#000000" points="0,-.5 0,-30.5 125,-30.5 125,-.5 0,-.5"/>
<text text-anchor="start" x="8" y="-18.5" font-family="Helvetica,sans-Serif" font-size="10.00" fill="#000000">TooNetworking_bufferlist</text>
<text text-anchor="middle" x="62.5" y="-7.5" font-family="Helvetica,sans-Serif" font-size="10.00" fill="#000000">_send_</text>
</g>
<!-- Node82 -->
<g id="node2" class="node">
<title>Node82</title>
<g id="a_node2"><a xlink:href="TooNetworking_8h.html#a59be7e774988f57ab43c4c078c570c67" target="_top" xlink:title="TooNetworking_bufferlist_add">
<polygon fill="#ffffff" stroke="#000000" points="161,-28 161,-47 307,-47 307,-28 161,-28"/>
<text text-anchor="middle" x="234" y="-35" font-family="Helvetica,sans-Serif" font-size="10.00" fill="#000000">TooNetworking_bufferlist_add</text>
</a>
</g>
</g>
<!-- Node81&#45;&gt;Node82 -->
<g id="edge1" class="edge">
<title>Node81&#45;&gt;Node82</title>
<path fill="none" stroke="#191970" d="M135.5451,-24.8702C143.9597,-25.9496 152.5412,-27.0505 160.9558,-28.1299"/>
<polygon fill="#191970" stroke="#191970" points="135.7505,-21.368 125.3864,-23.5671 134.8598,-28.3111 135.7505,-21.368"/>
</g>
<!-- Node86 -->
<g id="node6" class="node">
<title>Node86</title>
<g id="a_node6"><a xlink:href="TooNetworking_8h.html#ab58e06e0eb6f2f8ecbebeaf3c173fb22" target="_top" xlink:title="TooNetworking_bufferlist\l_send_all">
<polygon fill="#ffffff" stroke="#000000" points="488,-.5 488,-30.5 613,-30.5 613,-.5 488,-.5"/>
<text text-anchor="start" x="496" y="-18.5" font-family="Helvetica,sans-Serif" font-size="10.00" fill="#000000">TooNetworking_bufferlist</text>
<text text-anchor="middle" x="550.5" y="-7.5" font-family="Helvetica,sans-Serif" font-size="10.00" fill="#000000">_send_all</text>
</a>
</g>
</g>
<!-- Node81&#45;&gt;Node86 -->
<g id="edge9" class="edge">
<title>Node81&#45;&gt;Node86</title>
<path fill="none" stroke="#191970" d="M135.4768,-13.9402C213.7429,-12.5006 341.6689,-10.8202 452,-12.5 463.6325,-12.6771 476.0351,-12.9718 487.9779,-13.3091"/>
<polygon fill="#191970" stroke="#191970" points="135.1738,-10.4451 125.2412,-14.1323 135.3052,-17.4439 135.1738,-10.4451"/>
</g>
<!-- Node83 -->
<g id="node3" class="node">
<title>Node83</title>
<g id="a_node3"><a xlink:href="TooNetworking_8h.html#a9209f3e1a2fdf0b3b88d49105b8fc359" target="_top" xlink:title="TooNetworking_send\l_signed">
<polygon fill="#ffffff" stroke="#000000" points="343,-22.5 343,-52.5 452,-52.5 452,-22.5 343,-22.5"/>
<text text-anchor="start" x="351" y="-40.5" font-family="Helvetica,sans-Serif" font-size="10.00" fill="#000000">TooNetworking_send</text>
<text text-anchor="middle" x="397.5" y="-29.5" font-family="Helvetica,sans-Serif" font-size="10.00" fill="#000000">_signed</text>
</a>
</g>
</g>
<!-- Node82&#45;&gt;Node83 -->
<g id="edge2" class="edge">
<title>Node82&#45;&gt;Node83</title>
<path fill="none" stroke="#191970" d="M317.2213,-30.751C325.8182,-30.7623 334.3934,-30.8732 342.5665,-31.0837"/>
<polygon fill="#191970" stroke="#191970" points="317.1308,-27.2511 307.1421,-30.7834 317.1534,-34.2511 317.1308,-27.2511"/>
</g>
<!-- Node84 -->
<g id="node4" class="node">
<title>Node84</title>
<g id="a_node4"><a xlink:href="TooNetworking_8h.html#a085ff748b00f6be4ebafcae2bb0dded1" target="_top" xlink:title="TooNetworking_bufferlist\l_send_signed">
<polygon fill="#ffffff" stroke="#000000" points="488,-66.5 488,-96.5 613,-96.5 613,-66.5 488,-66.5"/>
<text text-anchor="start" x="496" y="-84.5" font-family="Helvetica,sans-Serif" font-size="10.00" fill="#000000">TooNetworking_bufferlist</text>
<text text-anchor="middle" x="550.5" y="-73.5" font-family="Helvetica,sans-Serif" font-size="10.00" fill="#000000">_send_signed</text>
</a>
</g>
</g>
<!-- Node82&#45;&gt;Node84 -->
<g id="edge8" class="edge">
<title>Node82&#45;&gt;Node84</title>
<path fill="none" stroke="#191970" d="M261.4501,-51.6335C282.9903,-61.8991 314.0711,-74.9278 343,-80.5 390.9324,-89.7326 446.2561,-89.4717 487.7181,-87.1806"/>
<polygon fill="#191970" stroke="#191970" points="262.7882,-48.3919 252.2666,-47.148 259.716,-54.6818 262.7882,-48.3919"/>
</g>
<!-- Node83&#45;&gt;Node82 -->
<g id="edge3" class="edge">
<title>Node83&#45;&gt;Node82</title>
<path fill="none" stroke="#191970" d="M332.5351,-44.1219C324.1918,-44.2509 315.6048,-44.2825 307.1421,-44.2166"/>
<polygon fill="#191970" stroke="#191970" points="332.6403,-47.6206 342.5665,-43.9163 332.4968,-40.6221 332.6403,-47.6206"/>
</g>
<!-- Node83&#45;&gt;Node83 -->
<g id="edge4" class="edge">
<title>Node83&#45;&gt;Node83</title>
<path fill="none" stroke="#191970" d="M370.4914,-62.9579C373.8436,-67.679 382.8464,-71 397.5,-71 421.5469,-71 430.3766,-62.0566 423.9891,-52.659"/>
<polygon fill="#191970" stroke="#191970" points="374.0026,-62.8226 371.0109,-52.659 367.0115,-62.47 374.0026,-62.8226"/>
</g>
<!-- Node83&#45;&gt;Node84 -->
<g id="edge5" class="edge">
<title>Node83&#45;&gt;Node84</title>
<path fill="none" stroke="#191970" d="M459.4364,-55.3118C472.3136,-59.015 485.7624,-62.8827 498.2498,-66.4738"/>
<polygon fill="#191970" stroke="#191970" points="460.3038,-51.9194 449.726,-52.5192 458.3691,-58.6468 460.3038,-51.9194"/>
</g>
<!-- Node83&#45;&gt;Node86 -->
<g id="edge7" class="edge">
<title>Node83&#45;&gt;Node86</title>
<path fill="none" stroke="#191970" d="M462.4187,-28.1653C470.811,-26.9586 479.3936,-25.7244 487.7499,-24.5229"/>
<polygon fill="#191970" stroke="#191970" points="461.7044,-24.7319 452.3044,-29.6196 462.7007,-31.6606 461.7044,-24.7319"/>
</g>
<!-- Node85 -->
<g id="node5" class="node">
<title>Node85</title>
<g id="a_node5"><a xlink:href="NODE__SKETCH__TooAutomation__Node_8ino_8cpp.html#a0b33edabd7f1c4e4a0bf32c67269be2f" target="_top" xlink:title="loop">
<polygon fill="#ffffff" stroke="#000000" points="649,-72 649,-91 684,-91 684,-72 649,-72"/>
<text text-anchor="middle" x="666.5" y="-79" font-family="Helvetica,sans-Serif" font-size="10.00" fill="#000000">loop</text>
</a>
</g>
</g>
<!-- Node84&#45;&gt;Node85 -->
<g id="edge6" class="edge">
<title>Node84&#45;&gt;Node85</title>
<path fill="none" stroke="#191970" d="M623.5149,-81.5C632.8175,-81.5 641.5667,-81.5 648.7123,-81.5"/>
<polygon fill="#191970" stroke="#191970" points="623.2531,-78.0001 613.2531,-81.5 623.253,-85.0001 623.2531,-78.0001"/>
</g>
</g>
</svg>
