<?xml version="1.0" encoding="UTF-8" standalone="no"?>
<!DOCTYPE svg PUBLIC "-//W3C//DTD SVG 1.1//EN"
 "http://www.w3.org/Graphics/SVG/1.1/DTD/svg11.dtd">
<!-- Generated by graphviz version 2.40.1 (20161225.0304)
 -->
<!-- Title: TooNetworking_send_signed_ Pages: 1 -->
<!--zoomable 414 -->
<svg id="main" version="1.1" xmlns="http://www.w3.org/2000/svg" xmlns:xlink="http://www.w3.org/1999/xlink" xml:space="preserve" onload="init(evt)">
<style type="text/css"><![CDATA[
.edge:hover path { stroke: red; }
.edge:hover polygon { stroke: red; fill: red; }
]]></style>
<script type="text/javascript"><![CDATA[
var edges = document.getElementsByTagName('g');
if (edges && edges.length) {
  for (var i=0;i<edges.length;i++) {
    if (edges[i].id.substr(0,4)=='edge') {
      edges[i].setAttribute('class','edge');
    }
  }
}
]]></script>
        <defs>
                <circle id="rim" cx="0" cy="0" r="7"/>
                <circle id="rim2" cx="0" cy="0" r="3.5"/>
                <g id="zoomPlus">
                        <use xlink:href="#rim" fill="#404040">
                                <set attributeName="fill" to="#808080" begin="zoomplus.mouseover" end="zoomplus.mouseout"/>
                        </use>
                        <path d="M-4,0h8M0,-4v8" fill="none" stroke="white" stroke-width="1.5" pointer-events="none"/>
                </g>
                <g id="zoomMin">
                        <use xlink:href="#rim" fill="#404040">
                                <set attributeName="fill" to="#808080" begin="zoomminus.mouseover" end="zoomminus.mouseout"/>
                        </use>
                        <path d="M-4,0h8" fill="none" stroke="white" stroke-width="1.5" pointer-events="none"/>
                </g>
                <g id="dirArrow">
                        <path fill="none" stroke="white" stroke-width="1.5" d="M0,-3.0v7 M-2.5,-0.5L0,-3.0L2.5,-0.5"/>
                </g>
               <g id="resetDef">
                       <use xlink:href="#rim2" fill="#404040">
                               <set attributeName="fill" to="#808080" begin="reset.mouseover" end="reset.mouseout"/>
                       </use>
               </g>
        </defs>

<script type="text/javascript">
var viewWidth = 1090;
var viewHeight = 414;
var sectionId = 'dynsection-26';
</script>
<script xlink:href="svgpan.js"/>
<svg id="graph" class="graph">
<g id="viewport">
<title>TooNetworking_send_signed_</title>
<polygon fill="#ffffff" stroke="transparent" points="-4,4 -4,-409.5 1086,-409.5 1086,4 -4,4"/>
<!-- Node239 -->
<g id="node1" class="node">
<title>Node239</title>
<polygon fill="#bfbfbf" stroke="#000000" points="0,-177 0,-207 109,-207 109,-177 0,-177"/>
<text text-anchor="start" x="8" y="-195" font-family="Helvetica,sans-Serif" font-size="10.00" fill="#000000">TooNetworking_send</text>
<text text-anchor="middle" x="54.5" y="-184" font-family="Helvetica,sans-Serif" font-size="10.00" fill="#000000">_signed_</text>
</g>
<!-- Node240 -->
<g id="node2" class="node">
<title>Node240</title>
<g id="a_node2"><a xlink:href="TooNetworking_8cpp.html#a48504aef69d9ac92e34269a64f7b518b" target="_top" xlink:title="TooNetworking_connection\l_check">
<polygon fill="#ffffff" stroke="#000000" points="332,-375 332,-405 467,-405 467,-375 332,-375"/>
<text text-anchor="start" x="340" y="-393" font-family="Helvetica,sans-Serif" font-size="10.00" fill="#000000">TooNetworking_connection</text>
<text text-anchor="middle" x="399.5" y="-382" font-family="Helvetica,sans-Serif" font-size="10.00" fill="#000000">_check</text>
</a>
</g>
</g>
<!-- Node239&#45;&gt;Node240 -->
<g id="edge1" class="edge">
<title>Node239&#45;&gt;Node240</title>
<path fill="none" stroke="#191970" d="M57.2814,-207.1893C64.5771,-242.2091 87.8007,-328.5502 145,-367 196.4518,-401.5863 267.5667,-405.2666 321.546,-401.4765"/>
<polygon fill="#191970" stroke="#191970" points="322.0714,-404.9457 331.7594,-400.6569 321.5114,-397.9681 322.0714,-404.9457"/>
</g>
<!-- Node242 -->
<g id="node4" class="node">
<title>Node242</title>
<g id="a_node4"><a xlink:href="TooNetworking_8cpp.html#af4808c2c0857cde9a6721ad54f5ab42d" target="_top" xlink:title="TooNetworking_other\l_node_is_online">
<polygon fill="#ffffff" stroke="#000000" points="165.5,-251 165.5,-281 275.5,-281 275.5,-251 165.5,-251"/>
<text text-anchor="start" x="173.5" y="-269" font-family="Helvetica,sans-Serif" font-size="10.00" fill="#000000">TooNetworking_other</text>
<text text-anchor="middle" x="220.5" y="-258" font-family="Helvetica,sans-Serif" font-size="10.00" fill="#000000">_node_is_online</text>
</a>
</g>
</g>
<!-- Node239&#45;&gt;Node242 -->
<g id="edge3" class="edge">
<title>Node239&#45;&gt;Node242</title>
<path fill="none" stroke="#191970" d="M78.8049,-207.1494C96.6575,-217.8458 121.7502,-231.998 145,-242 149.426,-243.9041 154.0545,-245.7364 158.7471,-247.481"/>
<polygon fill="#191970" stroke="#191970" points="157.8305,-250.8701 168.4251,-250.9338 160.1826,-244.2771 157.8305,-250.8701"/>
</g>
<!-- Node243 -->
<g id="node5" class="node">
<title>Node243</title>
<g id="a_node5"><a xlink:href="group__TOOSIGNING__DEBUGGING.html#ga974dd51d29b9bd928de51c481289aad7" target="_top" xlink:title="TooSigning_random_data\l_print">
<polygon fill="#ffffff" stroke="#000000" points="157,-202 157,-232 284,-232 284,-202 157,-202"/>
<text text-anchor="start" x="165" y="-220" font-family="Helvetica,sans-Serif" font-size="10.00" fill="#000000">TooSigning_random_data</text>
<text text-anchor="middle" x="220.5" y="-209" font-family="Helvetica,sans-Serif" font-size="10.00" fill="#000000">_print</text>
</a>
</g>
</g>
<!-- Node239&#45;&gt;Node243 -->
<g id="edge4" class="edge">
<title>Node239&#45;&gt;Node243</title>
<path fill="none" stroke="#191970" d="M109.3147,-200.2552C121.3119,-202.062 134.2008,-204.0031 146.8001,-205.9006"/>
<polygon fill="#191970" stroke="#191970" points="146.4101,-209.3813 156.8198,-207.4096 147.4526,-202.4593 146.4101,-209.3813"/>
</g>
<!-- Node244 -->
<g id="node6" class="node">
<title>Node244</title>
<g id="a_node6"><a xlink:href="TooSigning_8cpp.html#a3994a32f8b2275d51b6832644f703bc7" target="_top" xlink:title="TooSigning_read_hmac\l_from_progmem">
<polygon fill="#ffffff" stroke="#000000" points="161,-153 161,-183 280,-183 280,-153 161,-153"/>
<text text-anchor="start" x="169" y="-171" font-family="Helvetica,sans-Serif" font-size="10.00" fill="#000000">TooSigning_read_hmac</text>
<text text-anchor="middle" x="220.5" y="-160" font-family="Helvetica,sans-Serif" font-size="10.00" fill="#000000">_from_progmem</text>
</a>
</g>
</g>
<!-- Node239&#45;&gt;Node244 -->
<g id="edge5" class="edge">
<title>Node239&#45;&gt;Node244</title>
<path fill="none" stroke="#191970" d="M109.3147,-184.075C122.6134,-182.1523 137.0076,-180.0712 150.8887,-178.0643"/>
<polygon fill="#191970" stroke="#191970" points="151.4863,-181.5144 160.8825,-176.6194 150.4846,-174.5864 151.4863,-181.5144"/>
</g>
<!-- Node245 -->
<g id="node7" class="node">
<title>Node245</title>
<g id="a_node7"><a xlink:href="classSha256Class.html#a73d3dcea6eb667fd146d12aa5d106939" target="_top" xlink:title="Sha256Class::initHmac">
<polygon fill="#ffffff" stroke="#000000" points="160.5,-38.5 160.5,-57.5 280.5,-57.5 280.5,-38.5 160.5,-38.5"/>
<text text-anchor="middle" x="220.5" y="-45.5" font-family="Helvetica,sans-Serif" font-size="10.00" fill="#000000">Sha256Class::initHmac</text>
</a>
</g>
</g>
<!-- Node239&#45;&gt;Node245 -->
<g id="edge6" class="edge">
<title>Node239&#45;&gt;Node245</title>
<path fill="none" stroke="#191970" d="M61.2369,-176.6307C73.7269,-149.9963 103.0748,-95.3967 145,-67 147.9429,-65.0067 151.0778,-63.2225 154.3343,-61.6254"/>
<polygon fill="#191970" stroke="#191970" points="155.9481,-64.7423 163.775,-57.6016 153.2034,-58.3028 155.9481,-64.7423"/>
</g>
<!-- Node253 -->
<g id="node15" class="node">
<title>Node253</title>
<g id="a_node15"><a xlink:href="group__TOOSIGNING__HASHING.html#gafb2935303b05255e80a7a6fa4be7cf57" target="_top" xlink:title="TooSigning_hash_data">
<polygon fill="#ffffff" stroke="#000000" points="162.5,-114.5 162.5,-133.5 278.5,-133.5 278.5,-114.5 162.5,-114.5"/>
<text text-anchor="middle" x="220.5" y="-121.5" font-family="Helvetica,sans-Serif" font-size="10.00" fill="#000000">TooSigning_hash_data</text>
</a>
</g>
</g>
<!-- Node239&#45;&gt;Node253 -->
<g id="edge15" class="edge">
<title>Node239&#45;&gt;Node253</title>
<path fill="none" stroke="#191970" d="M79.1247,-176.9584C96.9234,-166.5847 121.8159,-153.0806 145,-144 152.2796,-141.1488 160.1098,-138.5674 167.8734,-136.2789"/>
<polygon fill="#191970" stroke="#191970" points="168.945,-139.6134 177.6252,-133.5386 167.0512,-132.8745 168.945,-139.6134"/>
</g>
<!-- Node254 -->
<g id="node16" class="node">
<title>Node254</title>
<g id="a_node16"><a xlink:href="group__TOOSIGNING__HASHING.html#gae743dd1289d92f915352e40b047b4cc8" target="_top" xlink:title="TooSigning_hash_store">
<polygon fill="#ffffff" stroke="#000000" points="161,-.5 161,-19.5 280,-19.5 280,-.5 161,-.5"/>
<text text-anchor="middle" x="220.5" y="-7.5" font-family="Helvetica,sans-Serif" font-size="10.00" fill="#000000">TooSigning_hash_store</text>
</a>
</g>
</g>
<!-- Node239&#45;&gt;Node254 -->
<g id="edge17" class="edge">
<title>Node239&#45;&gt;Node254</title>
<path fill="none" stroke="#191970" d="M58.5062,-176.7044C67.8367,-144.2032 94.1847,-68.0525 145,-29 147.3611,-27.1855 149.875,-25.5425 152.4979,-24.0551"/>
<polygon fill="#191970" stroke="#191970" points="154.2909,-27.0759 161.7719,-19.5735 151.2452,-20.7732 154.2909,-27.0759"/>
</g>
<!-- Node255 -->
<g id="node17" class="node">
<title>Node255</title>
<g id="a_node17"><a xlink:href="classSha256Class.html#a7556f29cadf7eaca21a537df41318af3" target="_top" xlink:title="Sha256Class::resultHmac">
<polygon fill="#ffffff" stroke="#000000" points="155,-76.5 155,-95.5 286,-95.5 286,-76.5 155,-76.5"/>
<text text-anchor="middle" x="220.5" y="-83.5" font-family="Helvetica,sans-Serif" font-size="10.00" fill="#000000">Sha256Class::resultHmac</text>
</a>
</g>
</g>
<!-- Node239&#45;&gt;Node255 -->
<g id="edge18" class="edge">
<title>Node239&#45;&gt;Node255</title>
<path fill="none" stroke="#191970" d="M65.9283,-176.9353C81.5994,-157.3556 111.6411,-123.4895 145,-105 149.1414,-102.7046 153.5631,-100.6816 158.1108,-98.8995"/>
<polygon fill="#191970" stroke="#191970" points="159.3023,-102.1907 167.5734,-95.5696 156.9786,-95.5876 159.3023,-102.1907"/>
</g>
<!-- Node256 -->
<g id="node18" class="node">
<title>Node256</title>
<g id="a_node18"><a xlink:href="TooNetworking_8cpp.html#a46674b3fdc9ee370b0839869aa145b75" target="_top" xlink:title="TooNetworking_send">
<polygon fill="#ffffff" stroke="#000000" points="345,-298.5 345,-317.5 454,-317.5 454,-298.5 345,-298.5"/>
<text text-anchor="middle" x="399.5" y="-305.5" font-family="Helvetica,sans-Serif" font-size="10.00" fill="#000000">TooNetworking_send</text>
</a>
</g>
</g>
<!-- Node239&#45;&gt;Node256 -->
<g id="edge22" class="edge">
<title>Node239&#45;&gt;Node256</title>
<path fill="none" stroke="#191970" d="M63.0123,-207.0519C76.8539,-229.8733 106.5992,-272.5232 145,-291 204.6053,-319.6796 281.2993,-320.6785 334.8468,-316.5353"/>
<polygon fill="#191970" stroke="#191970" points="335.2352,-320.015 344.9009,-315.6762 334.6392,-313.0404 335.2352,-320.015"/>
</g>
<!-- Node257 -->
<g id="node19" class="node">
<title>Node257</title>
<g id="a_node19"><a xlink:href="TooNetworking_8cpp.html#aefc5dad88b637efb11a3a7b2f76a19b9" target="_top" xlink:title="TooNetworking_connection_fix">
<polygon fill="#ffffff" stroke="#000000" points="145,-338.5 145,-357.5 296,-357.5 296,-338.5 145,-338.5"/>
<text text-anchor="middle" x="220.5" y="-345.5" font-family="Helvetica,sans-Serif" font-size="10.00" fill="#000000">TooNetworking_connection_fix</text>
</a>
</g>
</g>
<!-- Node239&#45;&gt;Node257 -->
<g id="edge24" class="edge">
<title>Node239&#45;&gt;Node257</title>
<path fill="none" stroke="#191970" d="M60.8002,-207.0884C72.9869,-234.4534 102.3941,-292.3583 145,-324 150.8453,-328.3411 157.5016,-331.9131 164.3835,-334.8484"/>
<polygon fill="#191970" stroke="#191970" points="163.2623,-338.1668 173.8529,-338.469 165.7623,-331.6284 163.2623,-338.1668"/>
</g>
<!-- Node241 -->
<g id="node3" class="node">
<title>Node241</title>
<g id="a_node3"><a xlink:href="TooNetworking_8cpp.html#abdda8f09b9d475ed2c23a2376e2e0151" target="_top" xlink:title="mesh">
<polygon fill="#ffffff" stroke="#000000" points="531,-336.5 531,-355.5 572,-355.5 572,-336.5 531,-336.5"/>
<text text-anchor="middle" x="551.5" y="-343.5" font-family="Helvetica,sans-Serif" font-size="10.00" fill="#000000">mesh</text>
</a>
</g>
</g>
<!-- Node240&#45;&gt;Node241 -->
<g id="edge2" class="edge">
<title>Node240&#45;&gt;Node241</title>
<path fill="none" stroke="#191970" d="M451.3846,-374.9808C474.5274,-368.2816 500.9983,-360.6189 520.9064,-354.8561"/>
<polygon fill="#191970" stroke="#191970" points="522.034,-358.1734 530.6664,-352.0308 520.0875,-351.4495 522.034,-358.1734"/>
</g>
<!-- Node246 -->
<g id="node8" class="node">
<title>Node246</title>
<g id="a_node8"><a xlink:href="classSha256Class.html#ac1025d69c51fcd1b882ee41114e58339" target="_top" xlink:title="Sha256Class::init">
<polygon fill="#ffffff" stroke="#000000" points="352.5,-76.5 352.5,-95.5 446.5,-95.5 446.5,-76.5 352.5,-76.5"/>
<text text-anchor="middle" x="399.5" y="-83.5" font-family="Helvetica,sans-Serif" font-size="10.00" fill="#000000">Sha256Class::init</text>
</a>
</g>
</g>
<!-- Node245&#45;&gt;Node246 -->
<g id="edge7" class="edge">
<title>Node245&#45;&gt;Node246</title>
<path fill="none" stroke="#191970" d="M265.6693,-57.589C289.7159,-62.6939 319.4744,-69.0113 344.8194,-74.3918"/>
<polygon fill="#191970" stroke="#191970" points="344.1467,-77.8269 354.6556,-76.4799 345.6004,-70.9795 344.1467,-77.8269"/>
</g>
<!-- Node247 -->
<g id="node9" class="node">
<title>Node247</title>
<g id="a_node9"><a xlink:href="classSha256Class.html#a0f0fc4bd4d8c53d232df0d41d7ea25e0" target="_top" xlink:title="Sha256Class::write">
<polygon fill="#ffffff" stroke="#000000" points="348.5,-114.5 348.5,-133.5 450.5,-133.5 450.5,-114.5 348.5,-114.5"/>
<text text-anchor="middle" x="399.5" y="-121.5" font-family="Helvetica,sans-Serif" font-size="10.00" fill="#000000">Sha256Class::write</text>
</a>
</g>
</g>
<!-- Node245&#45;&gt;Node247 -->
<g id="edge8" class="edge">
<title>Node245&#45;&gt;Node247</title>
<path fill="none" stroke="#191970" d="M274.384,-57.5395C281.9193,-60.0083 289.3506,-63.1087 296,-67 316.0789,-78.7505 312.0867,-92.9711 332,-105 335.5755,-107.1598 339.4052,-109.082 343.3567,-110.7915"/>
<polygon fill="#191970" stroke="#191970" points="342.1459,-114.0757 352.7356,-114.4058 344.6631,-107.544 342.1459,-114.0757"/>
</g>
<!-- Node251 -->
<g id="node13" class="node">
<title>Node251</title>
<g id="a_node13"><a xlink:href="classSha256Class.html#a0ca245a22f8b056a3d1902da3c64b705" target="_top" xlink:title="Sha256Class::result">
<polygon fill="#ffffff" stroke="#000000" points="347,-38.5 347,-57.5 452,-57.5 452,-38.5 347,-38.5"/>
<text text-anchor="middle" x="399.5" y="-45.5" font-family="Helvetica,sans-Serif" font-size="10.00" fill="#000000">Sha256Class::result</text>
</a>
</g>
</g>
<!-- Node245&#45;&gt;Node251 -->
<g id="edge12" class="edge">
<title>Node245&#45;&gt;Node251</title>
<path fill="none" stroke="#191970" d="M280.6024,-48C298.6004,-48 318.3828,-48 336.5583,-48"/>
<polygon fill="#191970" stroke="#191970" points="336.7576,-51.5001 346.7575,-48 336.7575,-44.5001 336.7576,-51.5001"/>
</g>
<!-- Node248 -->
<g id="node10" class="node">
<title>Node248</title>
<g id="a_node10"><a xlink:href="classSha256Class.html#ab0b46743e3d59b1c68f52ed89dfaff50" target="_top" xlink:title="Sha256Class::addUncounted">
<polygon fill="#ffffff" stroke="#000000" points="636,-67.5 636,-86.5 780,-86.5 780,-67.5 636,-67.5"/>
<text text-anchor="middle" x="708" y="-74.5" font-family="Helvetica,sans-Serif" font-size="10.00" fill="#000000">Sha256Class::addUncounted</text>
</a>
</g>
</g>
<!-- Node247&#45;&gt;Node248 -->
<g id="edge9" class="edge">
<title>Node247&#45;&gt;Node248</title>
<path fill="none" stroke="#191970" d="M450.7888,-116.1861C501.2174,-108.5034 578.6662,-96.704 635.4047,-88.0599"/>
<polygon fill="#191970" stroke="#191970" points="636.0316,-91.5049 645.3904,-86.5386 634.9773,-84.5847 636.0316,-91.5049"/>
</g>
<!-- Node249 -->
<g id="node11" class="node">
<title>Node249</title>
<g id="a_node11"><a xlink:href="classSha256Class.html#a399d2a23951e2130f54af8ac7712068f" target="_top" xlink:title="Sha256Class::hashBlock">
<polygon fill="#ffffff" stroke="#000000" points="816,-67.5 816,-86.5 943,-86.5 943,-67.5 816,-67.5"/>
<text text-anchor="middle" x="879.5" y="-74.5" font-family="Helvetica,sans-Serif" font-size="10.00" fill="#000000">Sha256Class::hashBlock</text>
</a>
</g>
</g>
<!-- Node248&#45;&gt;Node249 -->
<g id="edge10" class="edge">
<title>Node248&#45;&gt;Node249</title>
<path fill="none" stroke="#191970" d="M780.2344,-77C788.6298,-77 797.2026,-77 805.6198,-77"/>
<polygon fill="#191970" stroke="#191970" points="805.7873,-80.5001 815.7873,-77 805.7873,-73.5001 805.7873,-80.5001"/>
</g>
<!-- Node250 -->
<g id="node12" class="node">
<title>Node250</title>
<g id="a_node12"><a xlink:href="classSha256Class.html#ae275718ce9813bb33b2d8d8fbf018bd6" target="_top" xlink:title="Sha256Class::ror32">
<polygon fill="#ffffff" stroke="#000000" points="979,-67.5 979,-86.5 1082,-86.5 1082,-67.5 979,-67.5"/>
<text text-anchor="middle" x="1030.5" y="-74.5" font-family="Helvetica,sans-Serif" font-size="10.00" fill="#000000">Sha256Class::ror32</text>
</a>
</g>
</g>
<!-- Node249&#45;&gt;Node250 -->
<g id="edge11" class="edge">
<title>Node249&#45;&gt;Node250</title>
<path fill="none" stroke="#191970" d="M943.1,-77C951.5806,-77 960.2667,-77 968.7157,-77"/>
<polygon fill="#191970" stroke="#191970" points="968.8743,-80.5001 978.8743,-77 968.8742,-73.5001 968.8743,-80.5001"/>
</g>
<!-- Node252 -->
<g id="node14" class="node">
<title>Node252</title>
<g id="a_node14"><a xlink:href="classSha256Class.html#a82049dae520ccf0bd8478f2aef639149" target="_top" xlink:title="Sha256Class::pad">
<polygon fill="#ffffff" stroke="#000000" points="503,-48.5 503,-67.5 600,-67.5 600,-48.5 503,-48.5"/>
<text text-anchor="middle" x="551.5" y="-55.5" font-family="Helvetica,sans-Serif" font-size="10.00" fill="#000000">Sha256Class::pad</text>
</a>
</g>
</g>
<!-- Node251&#45;&gt;Node252 -->
<g id="edge13" class="edge">
<title>Node251&#45;&gt;Node252</title>
<path fill="none" stroke="#191970" d="M452.2356,-51.4695C465.3546,-52.3325 479.497,-53.263 492.8798,-54.1434"/>
<polygon fill="#191970" stroke="#191970" points="492.7278,-57.6409 502.936,-54.805 493.1874,-50.656 492.7278,-57.6409"/>
</g>
<!-- Node252&#45;&gt;Node248 -->
<g id="edge14" class="edge">
<title>Node252&#45;&gt;Node248</title>
<path fill="none" stroke="#191970" d="M600.1597,-63.9076C608.3741,-64.9048 617.0986,-65.964 625.8883,-67.0312"/>
<polygon fill="#191970" stroke="#191970" points="625.4671,-70.5056 635.8161,-68.2365 626.3108,-63.5567 625.4671,-70.5056"/>
</g>
<!-- Node253&#45;&gt;Node247 -->
<g id="edge16" class="edge">
<title>Node253&#45;&gt;Node247</title>
<path fill="none" stroke="#191970" d="M278.6162,-124C297.6532,-124 318.8592,-124 338.1288,-124"/>
<polygon fill="#191970" stroke="#191970" points="338.3069,-127.5001 348.3069,-124 338.3068,-120.5001 338.3069,-127.5001"/>
</g>
<!-- Node255&#45;&gt;Node246 -->
<g id="edge20" class="edge">
<title>Node255&#45;&gt;Node246</title>
<path fill="none" stroke="#191970" d="M286.1366,-86C304.4864,-86 324.2801,-86 342.1128,-86"/>
<polygon fill="#191970" stroke="#191970" points="342.3602,-89.5001 352.3601,-86 342.3601,-82.5001 342.3602,-89.5001"/>
</g>
<!-- Node255&#45;&gt;Node247 -->
<g id="edge21" class="edge">
<title>Node255&#45;&gt;Node247</title>
<path fill="none" stroke="#191970" d="M265.6693,-95.589C289.7159,-100.6939 319.4744,-107.0113 344.8194,-112.3918"/>
<polygon fill="#191970" stroke="#191970" points="344.1467,-115.8269 354.6556,-114.4799 345.6004,-108.9795 344.1467,-115.8269"/>
</g>
<!-- Node255&#45;&gt;Node251 -->
<g id="edge19" class="edge">
<title>Node255&#45;&gt;Node251</title>
<path fill="none" stroke="#191970" d="M265.6693,-76.411C289.7159,-71.3061 319.4744,-64.9887 344.8194,-59.6082"/>
<polygon fill="#191970" stroke="#191970" points="345.6004,-63.0205 354.6556,-57.5201 344.1467,-56.1731 345.6004,-63.0205"/>
</g>
<!-- Node256&#45;&gt;Node241 -->
<g id="edge23" class="edge">
<title>Node256&#45;&gt;Node241</title>
<path fill="none" stroke="#191970" d="M437.856,-317.589C463.5969,-324.0242 497.0457,-332.3864 520.9779,-338.3695"/>
<polygon fill="#191970" stroke="#191970" points="520.3712,-341.8255 530.9216,-340.8554 522.069,-335.0345 520.3712,-341.8255"/>
</g>
<!-- Node257&#45;&gt;Node240 -->
<g id="edge25" class="edge">
<title>Node257&#45;&gt;Node240</title>
<path fill="none" stroke="#191970" d="M261.1179,-357.5305C280.1707,-362.0009 303.4869,-367.4718 325.5105,-372.6393"/>
<polygon fill="#191970" stroke="#191970" points="324.9835,-376.1107 335.5186,-374.9876 326.5826,-369.2957 324.9835,-376.1107"/>
</g>
<!-- Node257&#45;&gt;Node241 -->
<g id="edge26" class="edge">
<title>Node257&#45;&gt;Node241</title>
<path fill="none" stroke="#191970" d="M296.0232,-347.5437C367.0982,-347.1142 469.9825,-346.4926 520.7689,-346.1857"/>
<polygon fill="#191970" stroke="#191970" points="520.8065,-349.6856 530.7852,-346.1252 520.7642,-342.6858 520.8065,-349.6856"/>
</g>
</g>
</svg>
        <g id="navigator" transform="translate(0 0)" fill="#404254">
                <rect fill="#f2f5e9" fill-opacity="0.5" stroke="#606060" stroke-width=".5" x="0" y="0" width="60" height="60"/>
                <use id="zoomplus" xlink:href="#zoomPlus" x="17" y="9" onmousedown="handleZoom(evt,'in')"/>
                <use id="zoomminus" xlink:href="#zoomMin" x="42" y="9" onmousedown="handleZoom(evt,'out')"/>
                <use id="reset" xlink:href="#resetDef" x="30" y="36" onmousedown="handleReset()"/>
                <g id="arrowUp" xlink:href="#dirArrow" transform="translate(30 24)" onmousedown="handlePan(0,-1)">
                  <use xlink:href="#rim" fill="#404040">
                        <set attributeName="fill" to="#808080" begin="arrowUp.mouseover" end="arrowUp.mouseout"/>
                  </use>
                  <path fill="none" stroke="white" stroke-width="1.5" d="M0,-3.0v7 M-2.5,-0.5L0,-3.0L2.5,-0.5"/>
                </g>
                <g id="arrowRight" xlink:href="#dirArrow" transform="rotate(90) translate(36 -43)" onmousedown="handlePan(1,0)">
                  <use xlink:href="#rim" fill="#404040">
                        <set attributeName="fill" to="#808080" begin="arrowRight.mouseover" end="arrowRight.mouseout"/>
                  </use>
                  <path fill="none" stroke="white" stroke-width="1.5" d="M0,-3.0v7 M-2.5,-0.5L0,-3.0L2.5,-0.5"/>
                </g>
                <g id="arrowDown" xlink:href="#dirArrow" transform="rotate(180) translate(-30 -48)" onmousedown="handlePan(0,1)">
                  <use xlink:href="#rim" fill="#404040">
                        <set attributeName="fill" to="#808080" begin="arrowDown.mouseover" end="arrowDown.mouseout"/>
                  </use>
                  <path fill="none" stroke="white" stroke-width="1.5" d="M0,-3.0v7 M-2.5,-0.5L0,-3.0L2.5,-0.5"/>
                </g>
                <g id="arrowLeft" xlink:href="#dirArrow" transform="rotate(270) translate(-36 17)" onmousedown="handlePan(-1,0)">
                  <use xlink:href="#rim" fill="#404040">
                        <set attributeName="fill" to="#808080" begin="arrowLeft.mouseover" end="arrowLeft.mouseout"/>
                  </use>
                  <path fill="none" stroke="white" stroke-width="1.5" d="M0,-3.0v7 M-2.5,-0.5L0,-3.0L2.5,-0.5"/>
                </g>
        </g>
        <svg viewBox="0 0 15 15" width="100%" height="30px" preserveAspectRatio="xMaxYMin meet">
         <g id="arrow_out" transform="scale(0.3 0.3)">
          <a xlink:href="TooNetworking_8h_a9f893c3218491ee86282fdcd9f376500_cgraph_org.svg" target="_base">
           <rect id="button" ry="5" rx="5" y="6" x="6" height="38" width="38"
                fill="#f2f5e9" fill-opacity="0.5" stroke="#606060" stroke-width="1.0"/>
           <path id="arrow"
             d="M 11.500037,31.436501 C 11.940474,20.09759 22.043105,11.32322 32.158766,21.979434 L 37.068811,17.246167 C 37.068811,17.246167 37.088388,32 37.088388,32 L 22.160133,31.978069 C 22.160133,31.978069 26.997745,27.140456 26.997745,27.140456 C 18.528582,18.264221 13.291696,25.230495 11.500037,31.436501 z"
             style="fill:#404040;"/>
          </a>
         </g>
        </svg>
</svg>
