<?xml version="1.0" encoding="UTF-8" standalone="no"?>
<!DOCTYPE svg PUBLIC "-//W3C//DTD SVG 1.1//EN"
 "http://www.w3.org/Graphics/SVG/1.1/DTD/svg11.dtd">
<!-- Generated by graphviz version 2.40.1 (20161225.0304)
 -->
<!-- Title: TooNetworking_send_signed Pages: 1 -->
<!--zoomable 323 -->
<svg id="main" version="1.1" xmlns="http://www.w3.org/2000/svg" xmlns:xlink="http://www.w3.org/1999/xlink" xml:space="preserve" onload="init(evt)">
<style type="text/css"><![CDATA[
.edge:hover path { stroke: red; }
.edge:hover polygon { stroke: red; fill: red; }
]]></style>
<script type="text/javascript"><![CDATA[
var edges = document.getElementsByTagName('g');
if (edges && edges.length) {
  for (var i=0;i<edges.length;i++) {
    if (edges[i].id.substr(0,4)=='edge') {
      edges[i].setAttribute('class','edge');
    }
  }
}
]]></script>
        <defs>
                <circle id="rim" cx="0" cy="0" r="7"/>
                <circle id="rim2" cx="0" cy="0" r="3.5"/>
                <g id="zoomPlus">
                        <use xlink:href="#rim" fill="#404040">
                                <set attributeName="fill" to="#808080" begin="zoomplus.mouseover" end="zoomplus.mouseout"/>
                        </use>
                        <path d="M-4,0h8M0,-4v8" fill="none" stroke="white" stroke-width="1.5" pointer-events="none"/>
                </g>
                <g id="zoomMin">
                        <use xlink:href="#rim" fill="#404040">
                                <set attributeName="fill" to="#808080" begin="zoomminus.mouseover" end="zoomminus.mouseout"/>
                        </use>
                        <path d="M-4,0h8" fill="none" stroke="white" stroke-width="1.5" pointer-events="none"/>
                </g>
                <g id="dirArrow">
                        <path fill="none" stroke="white" stroke-width="1.5" d="M0,-3.0v7 M-2.5,-0.5L0,-3.0L2.5,-0.5"/>
                </g>
               <g id="resetDef">
                       <use xlink:href="#rim2" fill="#404040">
                               <set attributeName="fill" to="#808080" begin="reset.mouseover" end="reset.mouseout"/>
                       </use>
               </g>
        </defs>

<script type="text/javascript">
var viewWidth = 855;
var viewHeight = 323;
var sectionId = 'dynsection-25';
</script>
<script xlink:href="svgpan.js"/>
<svg id="graph" class="graph">
<g id="viewport">
<title>TooNetworking_send_signed</title>
<polygon fill="#ffffff" stroke="transparent" points="-4,4 -4,-319 851,-319 851,4 -4,4"/>
<!-- Node200 -->
<g id="node1" class="node">
<title>Node200</title>
<polygon fill="#bfbfbf" stroke="#000000" points="0,-202.5 0,-232.5 109,-232.5 109,-202.5 0,-202.5"/>
<text text-anchor="start" x="8" y="-220.5" font-family="Helvetica,sans-Serif" font-size="10.00" fill="#000000">TooNetworking_send</text>
<text text-anchor="middle" x="54.5" y="-209.5" font-family="Helvetica,sans-Serif" font-size="10.00" fill="#000000">_signed</text>
</g>
<!-- Node201 -->
<g id="node2" class="node">
<title>Node201</title>
<g id="a_node2"><a xlink:href="TooSigning_8cpp.html#a729dc41cfb692fb0aea083c38c5f3577" target="_top" xlink:title="TooSigning_received\l_noncelist_find_from_ID">
<polygon fill="#ffffff" stroke="#000000" points="474.5,-284.5 474.5,-314.5 596.5,-314.5 596.5,-284.5 474.5,-284.5"/>
<text text-anchor="start" x="482.5" y="-302.5" font-family="Helvetica,sans-Serif" font-size="10.00" fill="#000000">TooSigning_received</text>
<text text-anchor="middle" x="535.5" y="-291.5" font-family="Helvetica,sans-Serif" font-size="10.00" fill="#000000">_noncelist_find_from_ID</text>
</a>
</g>
</g>
<!-- Node200&#45;&gt;Node201 -->
<g id="edge1" class="edge">
<title>Node200&#45;&gt;Node201</title>
<path fill="none" stroke="#191970" d="M70.2708,-232.6989C87.2008,-247.9265 115.6439,-270.4982 145,-280.5 251.7454,-316.8688 384.4143,-314.0337 464.3967,-307.5628"/>
<polygon fill="#191970" stroke="#191970" points="464.6964,-311.05 474.3639,-306.7154 464.1033,-304.0752 464.6964,-311.05"/>
</g>
<!-- Node202 -->
<g id="node3" class="node">
<title>Node202</title>
<g id="a_node3"><a xlink:href="group__TOOSIGNING__DEBUGGING.html#ga974dd51d29b9bd928de51c481289aad7" target="_top" xlink:title="TooSigning_random_data\l_print">
<polygon fill="#ffffff" stroke="#000000" points="472,-235.5 472,-265.5 599,-265.5 599,-235.5 472,-235.5"/>
<text text-anchor="start" x="480" y="-253.5" font-family="Helvetica,sans-Serif" font-size="10.00" fill="#000000">TooSigning_random_data</text>
<text text-anchor="middle" x="535.5" y="-242.5" font-family="Helvetica,sans-Serif" font-size="10.00" fill="#000000">_print</text>
</a>
</g>
</g>
<!-- Node200&#45;&gt;Node202 -->
<g id="edge2" class="edge">
<title>Node200&#45;&gt;Node202</title>
<path fill="none" stroke="#191970" d="M79.1988,-232.5476C96.829,-242.3741 121.4893,-254.3103 145,-259.5 253.0522,-283.3512 382.0107,-273.1405 461.3252,-262.5997"/>
<polygon fill="#191970" stroke="#191970" points="462.2681,-266.0034 471.7018,-261.181 461.3198,-259.068 462.2681,-266.0034"/>
</g>
<!-- Node203 -->
<g id="node4" class="node">
<title>Node203</title>
<g id="a_node4"><a xlink:href="TooNetworking_8cpp.html#a9209f3e1a2fdf0b3b88d49105b8fc359" target="_top" xlink:title="TooNetworking_send\l_signed">
<polygon fill="#ffffff" stroke="#000000" points="145,-202.5 145,-232.5 254,-232.5 254,-202.5 145,-202.5"/>
<text text-anchor="start" x="153" y="-220.5" font-family="Helvetica,sans-Serif" font-size="10.00" fill="#000000">TooNetworking_send</text>
<text text-anchor="middle" x="199.5" y="-209.5" font-family="Helvetica,sans-Serif" font-size="10.00" fill="#000000">_signed</text>
</a>
</g>
</g>
<!-- Node200&#45;&gt;Node203 -->
<g id="edge3" class="edge">
<title>Node200&#45;&gt;Node203</title>
<path fill="none" stroke="#191970" d="M109.3183,-217.5C117.5286,-217.5 126.0611,-217.5 134.4586,-217.5"/>
<polygon fill="#191970" stroke="#191970" points="134.6042,-221.0001 144.6042,-217.5 134.6042,-214.0001 134.6042,-221.0001"/>
</g>
<!-- Node204 -->
<g id="node5" class="node">
<title>Node204</title>
<g id="a_node5"><a xlink:href="TooSigning_8cpp.html#a53b55547df3d4276f3ca6a74d601549a" target="_top" xlink:title="TooSigning_requested\l_noncelist_add">
<polygon fill="#ffffff" stroke="#000000" points="479,-88.5 479,-118.5 592,-118.5 592,-88.5 479,-88.5"/>
<text text-anchor="start" x="487" y="-106.5" font-family="Helvetica,sans-Serif" font-size="10.00" fill="#000000">TooSigning_requested</text>
<text text-anchor="middle" x="535.5" y="-95.5" font-family="Helvetica,sans-Serif" font-size="10.00" fill="#000000">_noncelist_add</text>
</a>
</g>
</g>
<!-- Node200&#45;&gt;Node204 -->
<g id="edge24" class="edge">
<title>Node200&#45;&gt;Node204</title>
<path fill="none" stroke="#191970" d="M89.2798,-202.4284C106.0969,-195.1622 126.583,-186.3421 145,-178.5 209.3262,-151.1096 221.8879,-133.2749 290,-117.5 349.3367,-103.7575 418.7862,-100.9843 468.647,-101.2222"/>
<polygon fill="#191970" stroke="#191970" points="468.6328,-104.7221 478.6637,-101.3116 468.6954,-97.7224 468.6328,-104.7221"/>
</g>
<!-- Node208 -->
<g id="node9" class="node">
<title>Node208</title>
<g id="a_node9"><a xlink:href="TooNetworking_8cpp.html#aa8040740e6ffca2f68beb7f8e57d63fc" target="_top" xlink:title="TooNetworking_bufferlist_add">
<polygon fill="#ffffff" stroke="#000000" points="290,-170 290,-189 436,-189 436,-170 290,-170"/>
<text text-anchor="middle" x="363" y="-177" font-family="Helvetica,sans-Serif" font-size="10.00" fill="#000000">TooNetworking_bufferlist_add</text>
</a>
</g>
</g>
<!-- Node200&#45;&gt;Node208 -->
<g id="edge25" class="edge">
<title>Node200&#45;&gt;Node208</title>
<path fill="none" stroke="#191970" d="M101.5201,-202.4976C115.39,-198.6219 130.6887,-194.8763 145,-192.5 189.1348,-185.1717 238.8998,-181.8372 279.7277,-180.3716"/>
<polygon fill="#191970" stroke="#191970" points="280.0263,-183.8638 289.9063,-180.038 279.7969,-176.8676 280.0263,-183.8638"/>
</g>
<!-- Node203&#45;&gt;Node201 -->
<g id="edge4" class="edge">
<title>Node203&#45;&gt;Node201</title>
<path fill="none" stroke="#191970" d="M254.4753,-232.3353C266.1854,-235.4235 278.49,-238.6148 290,-241.5 348.6202,-256.1945 415.376,-271.8998 464.464,-283.2564"/>
<polygon fill="#191970" stroke="#191970" points="463.8183,-286.6994 474.3495,-285.54 465.3939,-279.879 463.8183,-286.6994"/>
</g>
<!-- Node203&#45;&gt;Node202 -->
<g id="edge5" class="edge">
<title>Node203&#45;&gt;Node202</title>
<path fill="none" stroke="#191970" d="M254.232,-222.8755C310.6881,-228.4203 399.0874,-237.1023 461.6969,-243.2515"/>
<polygon fill="#191970" stroke="#191970" points="461.6094,-246.7596 471.9036,-244.2539 462.2937,-239.7932 461.6094,-246.7596"/>
</g>
<!-- Node203&#45;&gt;Node203 -->
<g id="edge6" class="edge">
<title>Node203&#45;&gt;Node203</title>
<path fill="none" stroke="#191970" d="M174.405,-232.659C168.3538,-242.0566 176.7188,-251 199.5,-251 213.3823,-251 221.9113,-247.679 225.0871,-242.9579"/>
<polygon fill="#191970" stroke="#191970" points="228.5683,-242.4805 224.595,-232.659 221.5763,-242.8147 228.5683,-242.4805"/>
</g>
<!-- Node203&#45;&gt;Node204 -->
<g id="edge7" class="edge">
<title>Node203&#45;&gt;Node204</title>
<path fill="none" stroke="#191970" d="M219.275,-202.3004C236.9299,-189.4213 263.9504,-171.3635 290,-160.5 347.9943,-136.3145 418.1771,-121.3266 468.6241,-112.828"/>
<polygon fill="#191970" stroke="#191970" points="469.4588,-116.2379 478.7591,-111.163 468.324,-109.3304 469.4588,-116.2379"/>
</g>
<!-- Node203&#45;&gt;Node208 -->
<g id="edge11" class="edge">
<title>Node203&#45;&gt;Node208</title>
<path fill="none" stroke="#191970" d="M239.0788,-202.423C252.4133,-198.7181 267.8093,-194.8497 283.1178,-191.3175"/>
<polygon fill="#191970" stroke="#191970" points="284.1612,-194.67 293.1425,-189.0499 282.6167,-187.8424 284.1612,-194.67"/>
</g>
<!-- Node205 -->
<g id="node6" class="node">
<title>Node205</title>
<g id="a_node6"><a xlink:href="group__TOOSIGNING__INITIALIZE.html#gafd247c5271ff63bfcde14ef94060002d" target="_top" xlink:title="TooSigning_requested\l_noncelist_initialize">
<polygon fill="#ffffff" stroke="#000000" points="646,-98.5 646,-128.5 759,-128.5 759,-98.5 646,-98.5"/>
<text text-anchor="start" x="654" y="-116.5" font-family="Helvetica,sans-Serif" font-size="10.00" fill="#000000">TooSigning_requested</text>
<text text-anchor="middle" x="702.5" y="-105.5" font-family="Helvetica,sans-Serif" font-size="10.00" fill="#000000">_noncelist_initialize</text>
</a>
</g>
</g>
<!-- Node204&#45;&gt;Node205 -->
<g id="edge8" class="edge">
<title>Node204&#45;&gt;Node205</title>
<path fill="none" stroke="#191970" d="M592.0386,-106.8855C605.9728,-107.7199 621.0293,-108.6215 635.4097,-109.4826"/>
<polygon fill="#191970" stroke="#191970" points="635.5443,-112.9969 645.7357,-110.1009 635.9628,-106.0094 635.5443,-112.9969"/>
</g>
<!-- Node206 -->
<g id="node7" class="node">
<title>Node206</title>
<g id="a_node7"><a xlink:href="TooSigning_8cpp.html#a74e394128707e55045381d7c9ab6f6fd" target="_top" xlink:title="TooSigning_requested\l_noncelist_find_for_nodeID">
<polygon fill="#ffffff" stroke="#000000" points="635,-49.5 635,-79.5 770,-79.5 770,-49.5 635,-49.5"/>
<text text-anchor="start" x="643" y="-67.5" font-family="Helvetica,sans-Serif" font-size="10.00" fill="#000000">TooSigning_requested</text>
<text text-anchor="middle" x="702.5" y="-56.5" font-family="Helvetica,sans-Serif" font-size="10.00" fill="#000000">_noncelist_find_for_nodeID</text>
</a>
</g>
</g>
<!-- Node204&#45;&gt;Node206 -->
<g id="edge9" class="edge">
<title>Node204&#45;&gt;Node206</title>
<path fill="none" stroke="#191970" d="M592.0386,-90.2964C603.6449,-87.5859 616.0298,-84.6936 628.1541,-81.8622"/>
<polygon fill="#191970" stroke="#191970" points="629.3124,-85.186 638.2544,-79.5035 627.7204,-78.3694 629.3124,-85.186"/>
</g>
<!-- Node207 -->
<g id="node8" class="node">
<title>Node207</title>
<g id="a_node8"><a xlink:href="group__TOOSIGNING__DEBUGGING.html#gabb54a5e4968d69e35d665869d5c6588f" target="_top" xlink:title="TooSigning_requested\l_noncelist_print">
<polygon fill="#ffffff" stroke="#000000" points="646,-.5 646,-30.5 759,-30.5 759,-.5 646,-.5"/>
<text text-anchor="start" x="654" y="-18.5" font-family="Helvetica,sans-Serif" font-size="10.00" fill="#000000">TooSigning_requested</text>
<text text-anchor="middle" x="702.5" y="-7.5" font-family="Helvetica,sans-Serif" font-size="10.00" fill="#000000">_noncelist_print</text>
</a>
</g>
</g>
<!-- Node204&#45;&gt;Node207 -->
<g id="edge10" class="edge">
<title>Node204&#45;&gt;Node207</title>
<path fill="none" stroke="#191970" d="M556.0215,-88.2993C575.5842,-74.3023 606.2413,-53.627 635,-39.5 638.7048,-37.6801 642.5835,-35.9287 646.5286,-34.2586"/>
<polygon fill="#191970" stroke="#191970" points="647.8407,-37.5035 655.8042,-30.5155 645.221,-31.0121 647.8407,-37.5035"/>
</g>
<!-- Node208&#45;&gt;Node201 -->
<g id="edge20" class="edge">
<title>Node208&#45;&gt;Node201</title>
<path fill="none" stroke="#191970" d="M374.4945,-189.0331C388.9738,-201.0939 414.5557,-222.5769 436,-241.5 452.2747,-255.8613 453.593,-262.998 472,-274.5 475.1493,-276.4679 478.4793,-278.3287 481.8986,-280.0791"/>
<polygon fill="#191970" stroke="#191970" points="480.5613,-283.3187 491.0953,-284.4524 483.5675,-276.997 480.5613,-283.3187"/>
</g>
<!-- Node208&#45;&gt;Node202 -->
<g id="edge21" class="edge">
<title>Node208&#45;&gt;Node202</title>
<path fill="none" stroke="#191970" d="M397.4269,-189.0214C409.827,-192.9165 423.7697,-197.8451 436,-203.5 453.0199,-211.3695 455.2131,-217.1451 472,-225.5 476.0472,-227.5143 480.2986,-229.4835 484.6034,-231.3763"/>
<polygon fill="#191970" stroke="#191970" points="483.4815,-234.7023 494.0543,-235.3859 486.2155,-228.2582 483.4815,-234.7023"/>
</g>
<!-- Node208&#45;&gt;Node203 -->
<g id="edge22" class="edge">
<title>Node208&#45;&gt;Node203</title>
<path fill="none" stroke="#191970" d="M341.9834,-189.0849C322.3701,-195.3521 292.0612,-203.0367 264.4314,-209.0303"/>
<polygon fill="#191970" stroke="#191970" points="263.4553,-205.6593 254.398,-211.1562 264.9063,-212.5073 263.4553,-205.6593"/>
</g>
<!-- Node208&#45;&gt;Node204 -->
<g id="edge23" class="edge">
<title>Node208&#45;&gt;Node204</title>
<path fill="none" stroke="#191970" d="M400.4034,-169.9127C412.1487,-166.1962 424.9312,-161.3946 436,-155.5 453.891,-145.9723 454.3215,-137.4165 472,-127.5 475.021,-125.8054 478.1853,-124.1836 481.4202,-122.6402"/>
<polygon fill="#191970" stroke="#191970" points="482.9659,-125.783 490.6633,-118.5027 480.106,-119.3939 482.9659,-125.783"/>
</g>
<!-- Node209 -->
<g id="node10" class="node">
<title>Node209</title>
<g id="a_node10"><a xlink:href="TooNetworking_8cpp.html#aa8a4e879d4d71fed2a8940cf93b75ae4" target="_top" xlink:title="TooNetworking_bufferlist\l_initialize">
<polygon fill="#ffffff" stroke="#000000" points="473,-137.5 473,-167.5 598,-167.5 598,-137.5 473,-137.5"/>
<text text-anchor="start" x="481" y="-155.5" font-family="Helvetica,sans-Serif" font-size="10.00" fill="#000000">TooNetworking_bufferlist</text>
<text text-anchor="middle" x="535.5" y="-144.5" font-family="Helvetica,sans-Serif" font-size="10.00" fill="#000000">_initialize</text>
</a>
</g>
</g>
<!-- Node208&#45;&gt;Node209 -->
<g id="edge12" class="edge">
<title>Node208&#45;&gt;Node209</title>
<path fill="none" stroke="#191970" d="M423.817,-169.9808C436.3694,-168.0161 449.711,-165.9278 462.6411,-163.904"/>
<polygon fill="#191970" stroke="#191970" points="463.5611,-167.3027 472.8996,-162.2983 462.4786,-160.3869 463.5611,-167.3027"/>
</g>
<!-- Node210 -->
<g id="node11" class="node">
<title>Node210</title>
<g id="a_node11"><a xlink:href="TooNetworking_8cpp.html#a0ad03a7efb42cf40ca3e20fb5df3a5db" target="_top" xlink:title="TooNetworking_bufferlist\l_send_">
<polygon fill="#ffffff" stroke="#000000" points="473,-186.5 473,-216.5 598,-216.5 598,-186.5 473,-186.5"/>
<text text-anchor="start" x="481" y="-204.5" font-family="Helvetica,sans-Serif" font-size="10.00" fill="#000000">TooNetworking_bufferlist</text>
<text text-anchor="middle" x="535.5" y="-193.5" font-family="Helvetica,sans-Serif" font-size="10.00" fill="#000000">_send_</text>
</a>
</g>
</g>
<!-- Node208&#45;&gt;Node210 -->
<g id="edge13" class="edge">
<title>Node208&#45;&gt;Node210</title>
<path fill="none" stroke="#191970" d="M436.1555,-188.83C444.9335,-189.9495 453.8968,-191.0926 462.6701,-192.2116"/>
<polygon fill="#191970" stroke="#191970" points="462.4971,-195.7177 472.8595,-193.5111 463.3827,-188.774 462.4971,-195.7177"/>
</g>
<!-- Node211 -->
<g id="node12" class="node">
<title>Node211</title>
<g id="a_node12"><a xlink:href="TooNetworking_8cpp.html#ac352268e177fa2ddf91c8afa5cd04bbf" target="_top" xlink:title="TooNetworking_connection\l_available">
<polygon fill="#ffffff" stroke="#000000" points="635,-284.5 635,-314.5 770,-314.5 770,-284.5 635,-284.5"/>
<text text-anchor="start" x="643" y="-302.5" font-family="Helvetica,sans-Serif" font-size="10.00" fill="#000000">TooNetworking_connection</text>
<text text-anchor="middle" x="702.5" y="-291.5" font-family="Helvetica,sans-Serif" font-size="10.00" fill="#000000">_available</text>
</a>
</g>
</g>
<!-- Node210&#45;&gt;Node211 -->
<g id="edge14" class="edge">
<title>Node210&#45;&gt;Node211</title>
<path fill="none" stroke="#191970" d="M584.2159,-216.5115C589.4454,-219.0984 594.494,-222.0798 599,-225.5 620.5251,-241.8384 613.4207,-258.2333 635,-274.5 637.4651,-276.3582 640.0831,-278.0907 642.8013,-279.7042"/>
<polygon fill="#191970" stroke="#191970" points="641.2865,-282.8627 651.7601,-284.4615 644.5696,-276.6803 641.2865,-282.8627"/>
</g>
<!-- Node213 -->
<g id="node14" class="node">
<title>Node213</title>
<g id="a_node14"><a xlink:href="TooNetworking_8cpp.html#af4808c2c0857cde9a6721ad54f5ab42d" target="_top" xlink:title="TooNetworking_other\l_node_is_online">
<polygon fill="#ffffff" stroke="#000000" points="647.5,-235.5 647.5,-265.5 757.5,-265.5 757.5,-235.5 647.5,-235.5"/>
<text text-anchor="start" x="655.5" y="-253.5" font-family="Helvetica,sans-Serif" font-size="10.00" fill="#000000">TooNetworking_other</text>
<text text-anchor="middle" x="702.5" y="-242.5" font-family="Helvetica,sans-Serif" font-size="10.00" fill="#000000">_node_is_online</text>
</a>
</g>
</g>
<!-- Node210&#45;&gt;Node213 -->
<g id="edge16" class="edge">
<title>Node210&#45;&gt;Node213</title>
<path fill="none" stroke="#191970" d="M586.9682,-216.6014C604.1919,-221.6551 623.5588,-227.3376 641.4422,-232.5848"/>
<polygon fill="#191970" stroke="#191970" points="640.6209,-235.9913 651.2018,-235.4484 642.5917,-229.2745 640.6209,-235.9913"/>
</g>
<!-- Node214 -->
<g id="node15" class="node">
<title>Node214</title>
<g id="a_node15"><a xlink:href="TooNetworking_8cpp.html#a46674b3fdc9ee370b0839869aa145b75" target="_top" xlink:title="TooNetworking_send">
<polygon fill="#ffffff" stroke="#000000" points="648,-148 648,-167 757,-167 757,-148 648,-148"/>
<text text-anchor="middle" x="702.5" y="-155" font-family="Helvetica,sans-Serif" font-size="10.00" fill="#000000">TooNetworking_send</text>
</a>
</g>
</g>
<!-- Node210&#45;&gt;Node214 -->
<g id="edge17" class="edge">
<title>Node210&#45;&gt;Node214</title>
<path fill="none" stroke="#191970" d="M592.5048,-186.4808C613.3597,-180.9861 636.6745,-174.8432 656.4531,-169.6321"/>
<polygon fill="#191970" stroke="#191970" points="657.3678,-173.0106 666.1461,-167.0783 655.5843,-166.2416 657.3678,-173.0106"/>
</g>
<!-- Node215 -->
<g id="node16" class="node">
<title>Node215</title>
<g id="a_node16"><a xlink:href="TooNetworking_8cpp.html#a3c91b7ab2f6500c287ecc7ab4a018ef6" target="_top" xlink:title="TooNetworking_bufferlist\l_remove">
<polygon fill="#ffffff" stroke="#000000" points="640,-186.5 640,-216.5 765,-216.5 765,-186.5 640,-186.5"/>
<text text-anchor="start" x="648" y="-204.5" font-family="Helvetica,sans-Serif" font-size="10.00" fill="#000000">TooNetworking_bufferlist</text>
<text text-anchor="middle" x="702.5" y="-193.5" font-family="Helvetica,sans-Serif" font-size="10.00" fill="#000000">_remove</text>
</a>
</g>
</g>
<!-- Node210&#45;&gt;Node215 -->
<g id="edge19" class="edge">
<title>Node210&#45;&gt;Node215</title>
<path fill="none" stroke="#191970" d="M598.1598,-201.5C608.47,-201.5 619.2331,-201.5 629.7639,-201.5"/>
<polygon fill="#191970" stroke="#191970" points="629.7669,-205.0001 639.7669,-201.5 629.7668,-198.0001 629.7669,-205.0001"/>
</g>
<!-- Node212 -->
<g id="node13" class="node">
<title>Node212</title>
<g id="a_node13"><a xlink:href="TooNetworking_8cpp.html#abdda8f09b9d475ed2c23a2376e2e0151" target="_top" xlink:title="mesh">
<polygon fill="#ffffff" stroke="#000000" points="806,-219 806,-238 847,-238 847,-219 806,-219"/>
<text text-anchor="middle" x="826.5" y="-226" font-family="Helvetica,sans-Serif" font-size="10.00" fill="#000000">mesh</text>
</a>
</g>
</g>
<!-- Node211&#45;&gt;Node212 -->
<g id="edge15" class="edge">
<title>Node211&#45;&gt;Node212</title>
<path fill="none" stroke="#191970" d="M749.5231,-284.3687C756.5615,-281.4565 763.5979,-278.1572 770,-274.5 784.3536,-266.3005 798.7766,-254.4847 809.4575,-244.8816"/>
<polygon fill="#191970" stroke="#191970" points="811.8639,-247.4235 816.8327,-238.066 807.113,-242.2826 811.8639,-247.4235"/>
</g>
<!-- Node214&#45;&gt;Node212 -->
<g id="edge18" class="edge">
<title>Node214&#45;&gt;Node212</title>
<path fill="none" stroke="#191970" d="M747.6164,-167.0058C755.3382,-169.5193 763.0906,-172.6427 770,-176.5 786.1106,-185.4939 801.3159,-199.9624 811.8856,-211.3569"/>
<polygon fill="#191970" stroke="#191970" points="809.4347,-213.8668 818.7094,-218.9883 814.6528,-209.2008 809.4347,-213.8668"/>
</g>
</g>
</svg>
        <g id="navigator" transform="translate(0 0)" fill="#404254">
                <rect fill="#f2f5e9" fill-opacity="0.5" stroke="#606060" stroke-width=".5" x="0" y="0" width="60" height="60"/>
                <use id="zoomplus" xlink:href="#zoomPlus" x="17" y="9" onmousedown="handleZoom(evt,'in')"/>
                <use id="zoomminus" xlink:href="#zoomMin" x="42" y="9" onmousedown="handleZoom(evt,'out')"/>
                <use id="reset" xlink:href="#resetDef" x="30" y="36" onmousedown="handleReset()"/>
                <g id="arrowUp" xlink:href="#dirArrow" transform="translate(30 24)" onmousedown="handlePan(0,-1)">
                  <use xlink:href="#rim" fill="#404040">
                        <set attributeName="fill" to="#808080" begin="arrowUp.mouseover" end="arrowUp.mouseout"/>
                  </use>
                  <path fill="none" stroke="white" stroke-width="1.5" d="M0,-3.0v7 M-2.5,-0.5L0,-3.0L2.5,-0.5"/>
                </g>
                <g id="arrowRight" xlink:href="#dirArrow" transform="rotate(90) translate(36 -43)" onmousedown="handlePan(1,0)">
                  <use xlink:href="#rim" fill="#404040">
                        <set attributeName="fill" to="#808080" begin="arrowRight.mouseover" end="arrowRight.mouseout"/>
                  </use>
                  <path fill="none" stroke="white" stroke-width="1.5" d="M0,-3.0v7 M-2.5,-0.5L0,-3.0L2.5,-0.5"/>
                </g>
                <g id="arrowDown" xlink:href="#dirArrow" transform="rotate(180) translate(-30 -48)" onmousedown="handlePan(0,1)">
                  <use xlink:href="#rim" fill="#404040">
                        <set attributeName="fill" to="#808080" begin="arrowDown.mouseover" end="arrowDown.mouseout"/>
                  </use>
                  <path fill="none" stroke="white" stroke-width="1.5" d="M0,-3.0v7 M-2.5,-0.5L0,-3.0L2.5,-0.5"/>
                </g>
                <g id="arrowLeft" xlink:href="#dirArrow" transform="rotate(270) translate(-36 17)" onmousedown="handlePan(-1,0)">
                  <use xlink:href="#rim" fill="#404040">
                        <set attributeName="fill" to="#808080" begin="arrowLeft.mouseover" end="arrowLeft.mouseout"/>
                  </use>
                  <path fill="none" stroke="white" stroke-width="1.5" d="M0,-3.0v7 M-2.5,-0.5L0,-3.0L2.5,-0.5"/>
                </g>
        </g>
        <svg viewBox="0 0 15 15" width="100%" height="30px" preserveAspectRatio="xMaxYMin meet">
         <g id="arrow_out" transform="scale(0.3 0.3)">
          <a xlink:href="TooNetworking_8h_a9209f3e1a2fdf0b3b88d49105b8fc359_cgraph_org.svg" target="_base">
           <rect id="button" ry="5" rx="5" y="6" x="6" height="38" width="38"
                fill="#f2f5e9" fill-opacity="0.5" stroke="#606060" stroke-width="1.0"/>
           <path id="arrow"
             d="M 11.500037,31.436501 C 11.940474,20.09759 22.043105,11.32322 32.158766,21.979434 L 37.068811,17.246167 C 37.068811,17.246167 37.088388,32 37.088388,32 L 22.160133,31.978069 C 22.160133,31.978069 26.997745,27.140456 26.997745,27.140456 C 18.528582,18.264221 13.291696,25.230495 11.500037,31.436501 z"
             style="fill:#404040;"/>
          </a>
         </g>
        </svg>
</svg>
