<?xml version="1.0" encoding="UTF-8" standalone="no"?>
<!DOCTYPE svg PUBLIC "-//W3C//DTD SVG 1.1//EN"
 "http://www.w3.org/Graphics/SVG/1.1/DTD/svg11.dtd">
<!-- Generated by graphviz version 2.40.1 (20161225.0304)
 -->
<!-- Title: TooNetworking_send_signed Pages: 1 -->
<svg width="1272pt" height="600pt"
 viewBox="0.00 0.00 1272.00 600.00" xmlns="http://www.w3.org/2000/svg" xmlns:xlink="http://www.w3.org/1999/xlink">
<g id="graph0" class="graph" transform="scale(1 1) rotate(0) translate(4 596)">
<title>TooNetworking_send_signed</title>
<polygon fill="#ffffff" stroke="transparent" points="-4,4 -4,-596 1268,-596 1268,4 -4,4"/>
<!-- Node211 -->
<g id="node1" class="node">
<title>Node211</title>
<polygon fill="#bfbfbf" stroke="#000000" points="0,-343.5 0,-373.5 109,-373.5 109,-343.5 0,-343.5"/>
<text text-anchor="start" x="8" y="-361.5" font-family="Helvetica,sans-Serif" font-size="10.00" fill="#000000">TooNetworking_send</text>
<text text-anchor="middle" x="54.5" y="-350.5" font-family="Helvetica,sans-Serif" font-size="10.00" fill="#000000">_signed</text>
</g>
<!-- Node212 -->
<g id="node2" class="node">
<title>Node212</title>
<g id="a_node2"><a xlink:href="TooSigning_8cpp.html#a729dc41cfb692fb0aea083c38c5f3577" target="_top" xlink:title="TooSigning_received\l_noncelist_find_from_ID">
<polygon fill="#ffffff" stroke="#000000" points="157,-431.5 157,-461.5 279,-461.5 279,-431.5 157,-431.5"/>
<text text-anchor="start" x="165" y="-449.5" font-family="Helvetica,sans-Serif" font-size="10.00" fill="#000000">TooSigning_received</text>
<text text-anchor="middle" x="218" y="-438.5" font-family="Helvetica,sans-Serif" font-size="10.00" fill="#000000">_noncelist_find_from_ID</text>
</a>
</g>
</g>
<!-- Node211&#45;&gt;Node212 -->
<g id="edge1" class="edge">
<title>Node211&#45;&gt;Node212</title>
<path fill="none" stroke="#191970" d="M75.7877,-373.6988C93.7242,-386.1198 120.3355,-403.6616 145,-416.5 152.4254,-420.3651 160.4643,-424.094 168.4008,-427.5315"/>
<polygon fill="#191970" stroke="#191970" points="167.0537,-430.7619 177.6279,-431.4238 169.7744,-424.3122 167.0537,-430.7619"/>
</g>
<!-- Node213 -->
<g id="node3" class="node">
<title>Node213</title>
<g id="a_node3"><a xlink:href="group__TOOSIGNING__DEBUGGING.html#ga974dd51d29b9bd928de51c481289aad7" target="_top" xlink:title="TooSigning_random_data\l_print">
<polygon fill="#ffffff" stroke="#000000" points="339,-561.5 339,-591.5 466,-591.5 466,-561.5 339,-561.5"/>
<text text-anchor="start" x="347" y="-579.5" font-family="Helvetica,sans-Serif" font-size="10.00" fill="#000000">TooSigning_random_data</text>
<text text-anchor="middle" x="402.5" y="-568.5" font-family="Helvetica,sans-Serif" font-size="10.00" fill="#000000">_print</text>
</a>
</g>
</g>
<!-- Node211&#45;&gt;Node213 -->
<g id="edge2" class="edge">
<title>Node211&#45;&gt;Node213</title>
<path fill="none" stroke="#191970" d="M108.5558,-373.5133C120.5498,-376.822 133.2024,-380.2949 145,-383.5 209.8147,-401.1087 243.2917,-375.225 291,-422.5 333.5856,-464.6988 285.4124,-509.3174 327,-552.5 328.0733,-553.6145 329.1982,-554.6774 330.3678,-555.6911"/>
<polygon fill="#191970" stroke="#191970" points="328.5144,-558.67 338.6691,-561.692 332.6153,-552.997 328.5144,-558.67"/>
</g>
<!-- Node214 -->
<g id="node4" class="node">
<title>Node214</title>
<g id="a_node4"><a xlink:href="TooNetworking_8cpp.html#a9f893c3218491ee86282fdcd9f376500" target="_top" xlink:title="TooNetworking_send\l_signed_">
<polygon fill="#ffffff" stroke="#000000" points="163.5,-343.5 163.5,-373.5 272.5,-373.5 272.5,-343.5 163.5,-343.5"/>
<text text-anchor="start" x="171.5" y="-361.5" font-family="Helvetica,sans-Serif" font-size="10.00" fill="#000000">TooNetworking_send</text>
<text text-anchor="middle" x="218" y="-350.5" font-family="Helvetica,sans-Serif" font-size="10.00" fill="#000000">_signed_</text>
</a>
</g>
</g>
<!-- Node211&#45;&gt;Node214 -->
<g id="edge3" class="edge">
<title>Node211&#45;&gt;Node214</title>
<path fill="none" stroke="#191970" d="M109.398,-358.5C123.3577,-358.5 138.4927,-358.5 152.9062,-358.5"/>
<polygon fill="#191970" stroke="#191970" points="153.247,-362.0001 163.2469,-358.5 153.2469,-355.0001 153.247,-362.0001"/>
</g>
<!-- Node232 -->
<g id="node22" class="node">
<title>Node232</title>
<g id="a_node22"><a xlink:href="TooSigning_8cpp.html#a53b55547df3d4276f3ca6a74d601549a" target="_top" xlink:title="TooSigning_requested\l_noncelist_add">
<polygon fill="#ffffff" stroke="#000000" points="161.5,-123.5 161.5,-153.5 274.5,-153.5 274.5,-123.5 161.5,-123.5"/>
<text text-anchor="start" x="169.5" y="-141.5" font-family="Helvetica,sans-Serif" font-size="10.00" fill="#000000">TooSigning_requested</text>
<text text-anchor="middle" x="218" y="-130.5" font-family="Helvetica,sans-Serif" font-size="10.00" fill="#000000">_noncelist_add</text>
</a>
</g>
</g>
<!-- Node211&#45;&gt;Node232 -->
<g id="edge30" class="edge">
<title>Node211&#45;&gt;Node232</title>
<path fill="none" stroke="#191970" d="M65.738,-343.3785C93.7984,-305.6214 167.0897,-207.0031 200.7017,-161.776"/>
<polygon fill="#191970" stroke="#191970" points="203.5276,-163.8413 206.6833,-153.7273 197.9092,-159.6658 203.5276,-163.8413"/>
</g>
<!-- Node236 -->
<g id="node26" class="node">
<title>Node236</title>
<g id="a_node26"><a xlink:href="TooNetworking_8cpp.html#aa8040740e6ffca2f68beb7f8e57d63fc" target="_top" xlink:title="TooNetworking_bufferlist_add">
<polygon fill="#ffffff" stroke="#000000" points="145,-34 145,-53 291,-53 291,-34 145,-34"/>
<text text-anchor="middle" x="218" y="-41" font-family="Helvetica,sans-Serif" font-size="10.00" fill="#000000">TooNetworking_bufferlist_add</text>
</a>
</g>
</g>
<!-- Node211&#45;&gt;Node236 -->
<g id="edge34" class="edge">
<title>Node211&#45;&gt;Node236</title>
<path fill="none" stroke="#191970" d="M57.6317,-343.4292C66.4252,-303.4978 94.0864,-192.6823 145,-114.5 159.1309,-92.8008 180.9884,-72.69 197.1053,-59.4532"/>
<polygon fill="#191970" stroke="#191970" points="199.317,-62.1661 204.9389,-53.1858 194.9439,-56.7002 199.317,-62.1661"/>
</g>
<!-- Node214&#45;&gt;Node213 -->
<g id="edge7" class="edge">
<title>Node214&#45;&gt;Node213</title>
<path fill="none" stroke="#191970" d="M272.2851,-373.6558C279.3476,-377.5456 285.8895,-382.4139 291,-388.5 338.9876,-445.6488 276.7065,-497.3697 327,-552.5 328.179,-553.7924 329.4272,-555.0155 330.7348,-556.1732"/>
<polygon fill="#191970" stroke="#191970" points="328.677,-559.0044 338.8055,-562.1132 332.8263,-553.3668 328.677,-559.0044"/>
</g>
<!-- Node215 -->
<g id="node5" class="node">
<title>Node215</title>
<g id="a_node5"><a xlink:href="TooNetworking_8cpp.html#a48504aef69d9ac92e34269a64f7b518b" target="_top" xlink:title="TooNetworking_connection\l_check">
<polygon fill="#ffffff" stroke="#000000" points="514,-270.5 514,-300.5 649,-300.5 649,-270.5 514,-270.5"/>
<text text-anchor="start" x="522" y="-288.5" font-family="Helvetica,sans-Serif" font-size="10.00" fill="#000000">TooNetworking_connection</text>
<text text-anchor="middle" x="581.5" y="-277.5" font-family="Helvetica,sans-Serif" font-size="10.00" fill="#000000">_check</text>
</a>
</g>
</g>
<!-- Node214&#45;&gt;Node215 -->
<g id="edge4" class="edge">
<title>Node214&#45;&gt;Node215</title>
<path fill="none" stroke="#191970" d="M240.2146,-343.3039C261.4569,-329.6661 294.9139,-310.4598 327,-301.5 384.6435,-285.4034 452.3771,-281.8454 503.4697,-282.0721"/>
<polygon fill="#191970" stroke="#191970" points="503.7511,-285.5748 513.7839,-282.17 503.8176,-278.5752 503.7511,-285.5748"/>
</g>
<!-- Node217 -->
<g id="node7" class="node">
<title>Node217</title>
<g id="a_node7"><a xlink:href="TooNetworking_8cpp.html#af4808c2c0857cde9a6721ad54f5ab42d" target="_top" xlink:title="TooNetworking_other\l_node_is_online">
<polygon fill="#ffffff" stroke="#000000" points="347.5,-512.5 347.5,-542.5 457.5,-542.5 457.5,-512.5 347.5,-512.5"/>
<text text-anchor="start" x="355.5" y="-530.5" font-family="Helvetica,sans-Serif" font-size="10.00" fill="#000000">TooNetworking_other</text>
<text text-anchor="middle" x="402.5" y="-519.5" font-family="Helvetica,sans-Serif" font-size="10.00" fill="#000000">_node_is_online</text>
</a>
</g>
</g>
<!-- Node214&#45;&gt;Node217 -->
<g id="edge6" class="edge">
<title>Node214&#45;&gt;Node217</title>
<path fill="none" stroke="#191970" d="M271.0785,-373.673C278.4817,-377.5737 285.4436,-382.4407 291,-388.5 327.1969,-427.9731 289.2129,-465.5463 327,-503.5 330.3995,-506.9145 334.2823,-509.8438 338.4526,-512.357"/>
<polygon fill="#191970" stroke="#191970" points="336.8624,-515.4749 347.3537,-516.953 340.074,-509.2551 336.8624,-515.4749"/>
</g>
<!-- Node218 -->
<g id="node8" class="node">
<title>Node218</title>
<g id="a_node8"><a xlink:href="TooSigning_8cpp.html#a3994a32f8b2275d51b6832644f703bc7" target="_top" xlink:title="TooSigning_read_hmac\l_from_progmem">
<polygon fill="#ffffff" stroke="#000000" points="343,-463.5 343,-493.5 462,-493.5 462,-463.5 343,-463.5"/>
<text text-anchor="start" x="351" y="-481.5" font-family="Helvetica,sans-Serif" font-size="10.00" fill="#000000">TooSigning_read_hmac</text>
<text text-anchor="middle" x="402.5" y="-470.5" font-family="Helvetica,sans-Serif" font-size="10.00" fill="#000000">_from_progmem</text>
</a>
</g>
</g>
<!-- Node214&#45;&gt;Node218 -->
<g id="edge8" class="edge">
<title>Node214&#45;&gt;Node218</title>
<path fill="none" stroke="#191970" d="M267.7841,-373.6084C276.1222,-377.5795 284.2458,-382.4864 291,-388.5 315.6643,-410.46 301.5807,-432.4185 327,-453.5 329.2419,-455.3593 331.6269,-457.0819 334.1162,-458.6777"/>
<polygon fill="#191970" stroke="#191970" points="332.4932,-461.7805 342.9255,-463.6296 335.9233,-455.6784 332.4932,-461.7805"/>
</g>
<!-- Node219 -->
<g id="node9" class="node">
<title>Node219</title>
<g id="a_node9"><a xlink:href="classSha256Class.html#a73d3dcea6eb667fd146d12aa5d106939" target="_top" xlink:title="Sha256Class::initHmac">
<polygon fill="#ffffff" stroke="#000000" points="342.5,-349 342.5,-368 462.5,-368 462.5,-349 342.5,-349"/>
<text text-anchor="middle" x="402.5" y="-356" font-family="Helvetica,sans-Serif" font-size="10.00" fill="#000000">Sha256Class::initHmac</text>
</a>
</g>
</g>
<!-- Node214&#45;&gt;Node219 -->
<g id="edge9" class="edge">
<title>Node214&#45;&gt;Node219</title>
<path fill="none" stroke="#191970" d="M272.8566,-358.5C291.4902,-358.5 312.574,-358.5 332.2416,-358.5"/>
<polygon fill="#191970" stroke="#191970" points="332.377,-362.0001 342.377,-358.5 332.3769,-355.0001 332.377,-362.0001"/>
</g>
<!-- Node227 -->
<g id="node17" class="node">
<title>Node227</title>
<g id="a_node17"><a xlink:href="group__TOOSIGNING__HASHING.html#gafb2935303b05255e80a7a6fa4be7cf57" target="_top" xlink:title="TooSigning_hash_data">
<polygon fill="#ffffff" stroke="#000000" points="344.5,-425 344.5,-444 460.5,-444 460.5,-425 344.5,-425"/>
<text text-anchor="middle" x="402.5" y="-432" font-family="Helvetica,sans-Serif" font-size="10.00" fill="#000000">TooSigning_hash_data</text>
</a>
</g>
</g>
<!-- Node214&#45;&gt;Node227 -->
<g id="edge18" class="edge">
<title>Node214&#45;&gt;Node227</title>
<path fill="none" stroke="#191970" d="M259.7898,-373.545C270.2306,-377.8765 281.2311,-382.9493 291,-388.5 308.389,-398.3804 308.9479,-406.8905 327,-415.5 332.0324,-417.9001 337.4034,-420.0201 342.873,-421.8878"/>
<polygon fill="#191970" stroke="#191970" points="342.1844,-425.3395 352.7733,-424.9834 344.2735,-418.6585 342.1844,-425.3395"/>
</g>
<!-- Node228 -->
<g id="node18" class="node">
<title>Node228</title>
<g id="a_node18"><a xlink:href="group__TOOSIGNING__HASHING.html#gae743dd1289d92f915352e40b047b4cc8" target="_top" xlink:title="TooSigning_hash_store">
<polygon fill="#ffffff" stroke="#000000" points="343,-311 343,-330 462,-330 462,-311 343,-311"/>
<text text-anchor="middle" x="402.5" y="-318" font-family="Helvetica,sans-Serif" font-size="10.00" fill="#000000">TooSigning_hash_store</text>
</a>
</g>
</g>
<!-- Node214&#45;&gt;Node228 -->
<g id="edge20" class="edge">
<title>Node214&#45;&gt;Node228</title>
<path fill="none" stroke="#191970" d="M272.8566,-347.2016C295.9888,-342.4373 322.8972,-336.8952 346.1845,-332.0989"/>
<polygon fill="#191970" stroke="#191970" points="347.1726,-335.4689 356.2609,-330.0235 345.7604,-328.6128 347.1726,-335.4689"/>
</g>
<!-- Node229 -->
<g id="node19" class="node">
<title>Node229</title>
<g id="a_node19"><a xlink:href="classSha256Class.html#a7556f29cadf7eaca21a537df41318af3" target="_top" xlink:title="Sha256Class::resultHmac">
<polygon fill="#ffffff" stroke="#000000" points="337,-387 337,-406 468,-406 468,-387 337,-387"/>
<text text-anchor="middle" x="402.5" y="-394" font-family="Helvetica,sans-Serif" font-size="10.00" fill="#000000">Sha256Class::resultHmac</text>
</a>
</g>
</g>
<!-- Node214&#45;&gt;Node229 -->
<g id="edge21" class="edge">
<title>Node214&#45;&gt;Node229</title>
<path fill="none" stroke="#191970" d="M272.8566,-369.7984C295.9888,-374.5627 322.8972,-380.1048 346.1845,-384.9011"/>
<polygon fill="#191970" stroke="#191970" points="345.7604,-388.3872 356.2609,-386.9765 347.1726,-381.5311 345.7604,-388.3872"/>
</g>
<!-- Node230 -->
<g id="node20" class="node">
<title>Node230</title>
<g id="a_node20"><a xlink:href="TooNetworking_8cpp.html#a46674b3fdc9ee370b0839869aa145b75" target="_top" xlink:title="TooNetworking_send">
<polygon fill="#ffffff" stroke="#000000" points="527,-194 527,-213 636,-213 636,-194 527,-194"/>
<text text-anchor="middle" x="581.5" y="-201" font-family="Helvetica,sans-Serif" font-size="10.00" fill="#000000">TooNetworking_send</text>
</a>
</g>
</g>
<!-- Node214&#45;&gt;Node230 -->
<g id="edge25" class="edge">
<title>Node214&#45;&gt;Node230</title>
<path fill="none" stroke="#191970" d="M225.2947,-343.1829C239.9618,-314.321 276.033,-252.3743 327,-225.5 385.7823,-194.5048 462.9439,-192.2567 516.8301,-195.7221"/>
<polygon fill="#191970" stroke="#191970" points="516.7203,-199.2233 526.9476,-196.4572 517.2275,-192.2417 516.7203,-199.2233"/>
</g>
<!-- Node231 -->
<g id="node21" class="node">
<title>Node231</title>
<g id="a_node21"><a xlink:href="TooNetworking_8cpp.html#aefc5dad88b637efb11a3a7b2f76a19b9" target="_top" xlink:title="TooNetworking_connection_fix">
<polygon fill="#ffffff" stroke="#000000" points="327,-235 327,-254 478,-254 478,-235 327,-235"/>
<text text-anchor="middle" x="402.5" y="-242" font-family="Helvetica,sans-Serif" font-size="10.00" fill="#000000">TooNetworking_connection_fix</text>
</a>
</g>
</g>
<!-- Node214&#45;&gt;Node231 -->
<g id="edge27" class="edge">
<title>Node214&#45;&gt;Node231</title>
<path fill="none" stroke="#191970" d="M232.5059,-343.3437C252.2012,-323.5623 289.2905,-289.0516 327,-268.5 335.0707,-264.1015 344.0728,-260.3639 352.9699,-257.2419"/>
<polygon fill="#191970" stroke="#191970" points="354.1298,-260.545 362.5341,-254.0937 351.9411,-253.8959 354.1298,-260.545"/>
</g>
<!-- Node216 -->
<g id="node6" class="node">
<title>Node216</title>
<g id="a_node6"><a xlink:href="TooNetworking_8cpp.html#abdda8f09b9d475ed2c23a2376e2e0151" target="_top" xlink:title="mesh">
<polygon fill="#ffffff" stroke="#000000" points="713,-232 713,-251 754,-251 754,-232 713,-232"/>
<text text-anchor="middle" x="733.5" y="-239" font-family="Helvetica,sans-Serif" font-size="10.00" fill="#000000">mesh</text>
</a>
</g>
</g>
<!-- Node215&#45;&gt;Node216 -->
<g id="edge5" class="edge">
<title>Node215&#45;&gt;Node216</title>
<path fill="none" stroke="#191970" d="M633.3846,-270.4808C656.5274,-263.7816 682.9983,-256.1189 702.9064,-250.3561"/>
<polygon fill="#191970" stroke="#191970" points="704.034,-253.6734 712.6664,-247.5308 702.0875,-246.9495 704.034,-253.6734"/>
</g>
<!-- Node220 -->
<g id="node10" class="node">
<title>Node220</title>
<g id="a_node10"><a xlink:href="classSha256Class.html#ac1025d69c51fcd1b882ee41114e58339" target="_top" xlink:title="Sha256Class::init">
<polygon fill="#ffffff" stroke="#000000" points="534.5,-387 534.5,-406 628.5,-406 628.5,-387 534.5,-387"/>
<text text-anchor="middle" x="581.5" y="-394" font-family="Helvetica,sans-Serif" font-size="10.00" fill="#000000">Sha256Class::init</text>
</a>
</g>
</g>
<!-- Node219&#45;&gt;Node220 -->
<g id="edge10" class="edge">
<title>Node219&#45;&gt;Node220</title>
<path fill="none" stroke="#191970" d="M447.6693,-368.089C471.7159,-373.1939 501.4744,-379.5113 526.8194,-384.8918"/>
<polygon fill="#191970" stroke="#191970" points="526.1467,-388.3269 536.6556,-386.9799 527.6004,-381.4795 526.1467,-388.3269"/>
</g>
<!-- Node221 -->
<g id="node11" class="node">
<title>Node221</title>
<g id="a_node11"><a xlink:href="classSha256Class.html#a0f0fc4bd4d8c53d232df0d41d7ea25e0" target="_top" xlink:title="Sha256Class::write">
<polygon fill="#ffffff" stroke="#000000" points="530.5,-425 530.5,-444 632.5,-444 632.5,-425 530.5,-425"/>
<text text-anchor="middle" x="581.5" y="-432" font-family="Helvetica,sans-Serif" font-size="10.00" fill="#000000">Sha256Class::write</text>
</a>
</g>
</g>
<!-- Node219&#45;&gt;Node221 -->
<g id="edge11" class="edge">
<title>Node219&#45;&gt;Node221</title>
<path fill="none" stroke="#191970" d="M456.384,-368.0395C463.9193,-370.5083 471.3506,-373.6087 478,-377.5 498.0789,-389.2505 494.0867,-403.4711 514,-415.5 517.5755,-417.6598 521.4052,-419.582 525.3567,-421.2915"/>
<polygon fill="#191970" stroke="#191970" points="524.1459,-424.5757 534.7356,-424.9058 526.6631,-418.044 524.1459,-424.5757"/>
</g>
<!-- Node225 -->
<g id="node15" class="node">
<title>Node225</title>
<g id="a_node15"><a xlink:href="classSha256Class.html#a0ca245a22f8b056a3d1902da3c64b705" target="_top" xlink:title="Sha256Class::result">
<polygon fill="#ffffff" stroke="#000000" points="529,-349 529,-368 634,-368 634,-349 529,-349"/>
<text text-anchor="middle" x="581.5" y="-356" font-family="Helvetica,sans-Serif" font-size="10.00" fill="#000000">Sha256Class::result</text>
</a>
</g>
</g>
<!-- Node219&#45;&gt;Node225 -->
<g id="edge15" class="edge">
<title>Node219&#45;&gt;Node225</title>
<path fill="none" stroke="#191970" d="M462.6024,-358.5C480.6004,-358.5 500.3828,-358.5 518.5583,-358.5"/>
<polygon fill="#191970" stroke="#191970" points="518.7576,-362.0001 528.7575,-358.5 518.7575,-355.0001 518.7576,-362.0001"/>
</g>
<!-- Node222 -->
<g id="node12" class="node">
<title>Node222</title>
<g id="a_node12"><a xlink:href="classSha256Class.html#ab0b46743e3d59b1c68f52ed89dfaff50" target="_top" xlink:title="Sha256Class::addUncounted">
<polygon fill="#ffffff" stroke="#000000" points="818,-377 818,-396 962,-396 962,-377 818,-377"/>
<text text-anchor="middle" x="890" y="-384" font-family="Helvetica,sans-Serif" font-size="10.00" fill="#000000">Sha256Class::addUncounted</text>
</a>
</g>
</g>
<!-- Node221&#45;&gt;Node222 -->
<g id="edge12" class="edge">
<title>Node221&#45;&gt;Node222</title>
<path fill="none" stroke="#191970" d="M632.7888,-426.5199C683.6214,-418.6108 761.9091,-406.4299 818.7646,-397.5836"/>
<polygon fill="#191970" stroke="#191970" points="819.4203,-401.0238 828.7633,-396.0279 818.3441,-394.107 819.4203,-401.0238"/>
</g>
<!-- Node223 -->
<g id="node13" class="node">
<title>Node223</title>
<g id="a_node13"><a xlink:href="classSha256Class.html#a399d2a23951e2130f54af8ac7712068f" target="_top" xlink:title="Sha256Class::hashBlock">
<polygon fill="#ffffff" stroke="#000000" points="998,-377 998,-396 1125,-396 1125,-377 998,-377"/>
<text text-anchor="middle" x="1061.5" y="-384" font-family="Helvetica,sans-Serif" font-size="10.00" fill="#000000">Sha256Class::hashBlock</text>
</a>
</g>
</g>
<!-- Node222&#45;&gt;Node223 -->
<g id="edge13" class="edge">
<title>Node222&#45;&gt;Node223</title>
<path fill="none" stroke="#191970" d="M962.2344,-386.5C970.6298,-386.5 979.2026,-386.5 987.6198,-386.5"/>
<polygon fill="#191970" stroke="#191970" points="987.7873,-390.0001 997.7873,-386.5 987.7873,-383.0001 987.7873,-390.0001"/>
</g>
<!-- Node224 -->
<g id="node14" class="node">
<title>Node224</title>
<g id="a_node14"><a xlink:href="classSha256Class.html#ae275718ce9813bb33b2d8d8fbf018bd6" target="_top" xlink:title="Sha256Class::ror32">
<polygon fill="#ffffff" stroke="#000000" points="1161,-377 1161,-396 1264,-396 1264,-377 1161,-377"/>
<text text-anchor="middle" x="1212.5" y="-384" font-family="Helvetica,sans-Serif" font-size="10.00" fill="#000000">Sha256Class::ror32</text>
</a>
</g>
</g>
<!-- Node223&#45;&gt;Node224 -->
<g id="edge14" class="edge">
<title>Node223&#45;&gt;Node224</title>
<path fill="none" stroke="#191970" d="M1125.1,-386.5C1133.5806,-386.5 1142.2667,-386.5 1150.7157,-386.5"/>
<polygon fill="#191970" stroke="#191970" points="1150.8743,-390.0001 1160.8743,-386.5 1150.8742,-383.0001 1150.8743,-390.0001"/>
</g>
<!-- Node226 -->
<g id="node16" class="node">
<title>Node226</title>
<g id="a_node16"><a xlink:href="classSha256Class.html#a82049dae520ccf0bd8478f2aef639149" target="_top" xlink:title="Sha256Class::pad">
<polygon fill="#ffffff" stroke="#000000" points="685,-358 685,-377 782,-377 782,-358 685,-358"/>
<text text-anchor="middle" x="733.5" y="-365" font-family="Helvetica,sans-Serif" font-size="10.00" fill="#000000">Sha256Class::pad</text>
</a>
</g>
</g>
<!-- Node225&#45;&gt;Node226 -->
<g id="edge16" class="edge">
<title>Node225&#45;&gt;Node226</title>
<path fill="none" stroke="#191970" d="M634.2356,-361.6225C647.3546,-362.3993 661.497,-363.2367 674.8798,-364.0291"/>
<polygon fill="#191970" stroke="#191970" points="674.7466,-367.5272 684.936,-364.6245 675.1604,-360.5395 674.7466,-367.5272"/>
</g>
<!-- Node226&#45;&gt;Node222 -->
<g id="edge17" class="edge">
<title>Node226&#45;&gt;Node222</title>
<path fill="none" stroke="#191970" d="M782.1597,-373.4076C790.3741,-374.4048 799.0986,-375.464 807.8883,-376.5312"/>
<polygon fill="#191970" stroke="#191970" points="807.4671,-380.0056 817.8161,-377.7365 808.3108,-373.0567 807.4671,-380.0056"/>
</g>
<!-- Node227&#45;&gt;Node221 -->
<g id="edge19" class="edge">
<title>Node227&#45;&gt;Node221</title>
<path fill="none" stroke="#191970" d="M460.6162,-434.5C479.6532,-434.5 500.8592,-434.5 520.1288,-434.5"/>
<polygon fill="#191970" stroke="#191970" points="520.3069,-438.0001 530.3069,-434.5 520.3068,-431.0001 520.3069,-438.0001"/>
</g>
<!-- Node229&#45;&gt;Node220 -->
<g id="edge23" class="edge">
<title>Node229&#45;&gt;Node220</title>
<path fill="none" stroke="#191970" d="M468.1366,-396.5C486.4864,-396.5 506.2801,-396.5 524.1128,-396.5"/>
<polygon fill="#191970" stroke="#191970" points="524.3602,-400.0001 534.3601,-396.5 524.3601,-393.0001 524.3602,-400.0001"/>
</g>
<!-- Node229&#45;&gt;Node221 -->
<g id="edge24" class="edge">
<title>Node229&#45;&gt;Node221</title>
<path fill="none" stroke="#191970" d="M447.6693,-406.089C471.7159,-411.1939 501.4744,-417.5113 526.8194,-422.8918"/>
<polygon fill="#191970" stroke="#191970" points="526.1467,-426.3269 536.6556,-424.9799 527.6004,-419.4795 526.1467,-426.3269"/>
</g>
<!-- Node229&#45;&gt;Node225 -->
<g id="edge22" class="edge">
<title>Node229&#45;&gt;Node225</title>
<path fill="none" stroke="#191970" d="M447.6693,-386.911C471.7159,-381.8061 501.4744,-375.4887 526.8194,-370.1082"/>
<polygon fill="#191970" stroke="#191970" points="527.6004,-373.5205 536.6556,-368.0201 526.1467,-366.6731 527.6004,-373.5205"/>
</g>
<!-- Node230&#45;&gt;Node216 -->
<g id="edge26" class="edge">
<title>Node230&#45;&gt;Node216</title>
<path fill="none" stroke="#191970" d="M619.856,-213.089C645.5969,-219.5242 679.0457,-227.8864 702.9779,-233.8695"/>
<polygon fill="#191970" stroke="#191970" points="702.3712,-237.3255 712.9216,-236.3554 704.069,-230.5345 702.3712,-237.3255"/>
</g>
<!-- Node231&#45;&gt;Node215 -->
<g id="edge28" class="edge">
<title>Node231&#45;&gt;Node215</title>
<path fill="none" stroke="#191970" d="M444.0161,-254.0093C462.3827,-258.2161 484.5769,-263.2997 505.724,-268.1435"/>
<polygon fill="#191970" stroke="#191970" points="505.144,-271.6012 515.6731,-270.4223 506.707,-264.7779 505.144,-271.6012"/>
</g>
<!-- Node231&#45;&gt;Node216 -->
<g id="edge29" class="edge">
<title>Node231&#45;&gt;Node216</title>
<path fill="none" stroke="#191970" d="M478.0232,-243.8155C549.0982,-243.1713 651.9825,-242.2388 702.7689,-241.7785"/>
<polygon fill="#191970" stroke="#191970" points="702.8173,-245.2783 712.7852,-241.6877 702.7538,-238.2786 702.8173,-245.2783"/>
</g>
<!-- Node233 -->
<g id="node23" class="node">
<title>Node233</title>
<g id="a_node23"><a xlink:href="group__TOOSIGNING__INITIALIZE.html#gafd247c5271ff63bfcde14ef94060002d" target="_top" xlink:title="TooSigning_requested\l_noncelist_initialize">
<polygon fill="#ffffff" stroke="#000000" points="346,-147.5 346,-177.5 459,-177.5 459,-147.5 346,-147.5"/>
<text text-anchor="start" x="354" y="-165.5" font-family="Helvetica,sans-Serif" font-size="10.00" fill="#000000">TooSigning_requested</text>
<text text-anchor="middle" x="402.5" y="-154.5" font-family="Helvetica,sans-Serif" font-size="10.00" fill="#000000">_noncelist_initialize</text>
</a>
</g>
</g>
<!-- Node232&#45;&gt;Node233 -->
<g id="edge31" class="edge">
<title>Node232&#45;&gt;Node233</title>
<path fill="none" stroke="#191970" d="M274.6099,-145.8639C294.002,-148.3864 315.877,-151.232 335.9801,-153.847"/>
<polygon fill="#191970" stroke="#191970" points="335.6292,-157.3308 345.9971,-155.15 336.5322,-150.3892 335.6292,-157.3308"/>
</g>
<!-- Node234 -->
<g id="node24" class="node">
<title>Node234</title>
<g id="a_node24"><a xlink:href="TooSigning_8cpp.html#a74e394128707e55045381d7c9ab6f6fd" target="_top" xlink:title="TooSigning_requested\l_noncelist_find_for_nodeID">
<polygon fill="#ffffff" stroke="#000000" points="335,-98.5 335,-128.5 470,-128.5 470,-98.5 335,-98.5"/>
<text text-anchor="start" x="343" y="-116.5" font-family="Helvetica,sans-Serif" font-size="10.00" fill="#000000">TooSigning_requested</text>
<text text-anchor="middle" x="402.5" y="-105.5" font-family="Helvetica,sans-Serif" font-size="10.00" fill="#000000">_noncelist_find_for_nodeID</text>
</a>
</g>
</g>
<!-- Node232&#45;&gt;Node234 -->
<g id="edge32" class="edge">
<title>Node232&#45;&gt;Node234</title>
<path fill="none" stroke="#191970" d="M274.6099,-130.8293C290.3997,-128.6897 307.8355,-126.3272 324.6207,-124.0528"/>
<polygon fill="#191970" stroke="#191970" points="325.5277,-127.4619 334.9672,-122.6508 324.5878,-120.5253 325.5277,-127.4619"/>
</g>
<!-- Node235 -->
<g id="node25" class="node">
<title>Node235</title>
<g id="a_node25"><a xlink:href="group__TOOSIGNING__DEBUGGING.html#gabb54a5e4968d69e35d665869d5c6588f" target="_top" xlink:title="TooSigning_requested\l_noncelist_print">
<polygon fill="#ffffff" stroke="#000000" points="346,-49.5 346,-79.5 459,-79.5 459,-49.5 346,-49.5"/>
<text text-anchor="start" x="354" y="-67.5" font-family="Helvetica,sans-Serif" font-size="10.00" fill="#000000">TooSigning_requested</text>
<text text-anchor="middle" x="402.5" y="-56.5" font-family="Helvetica,sans-Serif" font-size="10.00" fill="#000000">_noncelist_print</text>
</a>
</g>
</g>
<!-- Node232&#45;&gt;Node235 -->
<g id="edge33" class="edge">
<title>Node232&#45;&gt;Node235</title>
<path fill="none" stroke="#191970" d="M249.1189,-123.4836C270.7277,-113.3112 300.3172,-99.8836 327,-89.5 332.7421,-87.2654 338.7766,-85.0503 344.8268,-82.9156"/>
<polygon fill="#191970" stroke="#191970" points="346.0013,-86.2129 354.3078,-79.6363 343.713,-79.5975 346.0013,-86.2129"/>
</g>
<!-- Node237 -->
<g id="node27" class="node">
<title>Node237</title>
<g id="a_node27"><a xlink:href="TooNetworking_8cpp.html#aa8a4e879d4d71fed2a8940cf93b75ae4" target="_top" xlink:title="TooNetworking_bufferlist\l_initialize">
<polygon fill="#ffffff" stroke="#000000" points="340,-.5 340,-30.5 465,-30.5 465,-.5 340,-.5"/>
<text text-anchor="start" x="348" y="-18.5" font-family="Helvetica,sans-Serif" font-size="10.00" fill="#000000">TooNetworking_bufferlist</text>
<text text-anchor="middle" x="402.5" y="-7.5" font-family="Helvetica,sans-Serif" font-size="10.00" fill="#000000">_initialize</text>
</a>
</g>
</g>
<!-- Node236&#45;&gt;Node237 -->
<g id="edge35" class="edge">
<title>Node236&#45;&gt;Node237</title>
<path fill="none" stroke="#191970" d="M280.7207,-33.9814C296.5523,-31.5788 313.681,-28.9793 329.9519,-26.51"/>
<polygon fill="#191970" stroke="#191970" points="330.5912,-29.9532 339.9528,-24.9923 329.5408,-23.0324 330.5912,-29.9532"/>
</g>
</g>
</svg>
