<?xml version="1.0" encoding="UTF-8" standalone="no"?>
<!DOCTYPE svg PUBLIC "-//W3C//DTD SVG 1.1//EN"
 "http://www.w3.org/Graphics/SVG/1.1/DTD/svg11.dtd">
<!-- Generated by graphviz version 2.40.1 (20161225.0304)
 -->
<!-- Title: TooSigning_connection_fix Pages: 1 -->
<svg width="856pt" height="39pt"
 viewBox="0.00 0.00 856.00 39.00" xmlns="http://www.w3.org/2000/svg" xmlns:xlink="http://www.w3.org/1999/xlink">
<g id="graph0" class="graph" transform="scale(1 1) rotate(0) translate(4 35)">
<title>TooSigning_connection_fix</title>
<polygon fill="#ffffff" stroke="transparent" points="-4,4 -4,-35 852,-35 852,4 -4,4"/>
<!-- Node4 -->
<g id="node1" class="node">
<title>Node4</title>
<polygon fill="#bfbfbf" stroke="#000000" points="0,-6 0,-25 134,-25 134,-6 0,-6"/>
<text text-anchor="middle" x="67" y="-13" font-family="Helvetica,sans-Serif" font-size="10.00" fill="#000000">TooSigning_connection_fix</text>
</g>
<!-- Node5 -->
<g id="node2" class="node">
<title>Node5</title>
<g id="a_node2"><a xlink:href="TooSigning_8h.html#a58143364a83636a3d2df075a95cb2bfc" target="_top" xlink:title="TooSigning_request\l_nonce_from_node_id">
<polygon fill="#ffffff" stroke="#000000" points="170,-.5 170,-30.5 282,-30.5 282,-.5 170,-.5"/>
<text text-anchor="start" x="178" y="-18.5" font-family="Helvetica,sans-Serif" font-size="10.00" fill="#000000">TooSigning_request</text>
<text text-anchor="middle" x="226" y="-7.5" font-family="Helvetica,sans-Serif" font-size="10.00" fill="#000000">_nonce_from_node_id</text>
</a>
</g>
</g>
<!-- Node4&#45;&gt;Node5 -->
<g id="edge1" class="edge">
<title>Node4&#45;&gt;Node5</title>
<path fill="none" stroke="#191970" d="M144.4911,-15.5C153.0943,-15.5 161.7289,-15.5 169.9915,-15.5"/>
<polygon fill="#191970" stroke="#191970" points="144.4303,-12.0001 134.4303,-15.5 144.4303,-19.0001 144.4303,-12.0001"/>
</g>
<!-- Node6 -->
<g id="node3" class="node">
<title>Node6</title>
<g id="a_node3"><a xlink:href="TooSigning_8h.html#af7ec4002cf8cf81195f3745703e04b22" target="_top" xlink:title="TooSigning_requested\l_noncelist_retry_all">
<polygon fill="#ffffff" stroke="#000000" points="318,-.5 318,-30.5 431,-30.5 431,-.5 318,-.5"/>
<text text-anchor="start" x="326" y="-18.5" font-family="Helvetica,sans-Serif" font-size="10.00" fill="#000000">TooSigning_requested</text>
<text text-anchor="middle" x="374.5" y="-7.5" font-family="Helvetica,sans-Serif" font-size="10.00" fill="#000000">_noncelist_retry_all</text>
</a>
</g>
</g>
<!-- Node5&#45;&gt;Node6 -->
<g id="edge2" class="edge">
<title>Node5&#45;&gt;Node6</title>
<path fill="none" stroke="#191970" d="M292.3845,-15.5C300.8629,-15.5 309.4796,-15.5 317.7858,-15.5"/>
<polygon fill="#191970" stroke="#191970" points="292.1415,-12.0001 282.1415,-15.5 292.1414,-19.0001 292.1415,-12.0001"/>
</g>
<!-- Node7 -->
<g id="node4" class="node">
<title>Node7</title>
<g id="a_node4"><a xlink:href="TooSigning_8h.html#af68b8dda897cf488129c205ad532ca9e" target="_top" xlink:title="TooSigning_signed_network\l_update">
<polygon fill="#ffffff" stroke="#000000" points="467,-.5 467,-30.5 606,-30.5 606,-.5 467,-.5"/>
<text text-anchor="start" x="475" y="-18.5" font-family="Helvetica,sans-Serif" font-size="10.00" fill="#000000">TooSigning_signed_network</text>
<text text-anchor="middle" x="536.5" y="-7.5" font-family="Helvetica,sans-Serif" font-size="10.00" fill="#000000">_update</text>
</a>
</g>
</g>
<!-- Node6&#45;&gt;Node7 -->
<g id="edge3" class="edge">
<title>Node6&#45;&gt;Node7</title>
<path fill="none" stroke="#191970" d="M441.2848,-15.5C449.6921,-15.5 458.3103,-15.5 466.7617,-15.5"/>
<polygon fill="#191970" stroke="#191970" points="441.1598,-12.0001 431.1597,-15.5 441.1597,-19.0001 441.1598,-12.0001"/>
</g>
<!-- Node8 -->
<g id="node5" class="node">
<title>Node8</title>
<g id="a_node5"><a xlink:href="TooNetworking_8h.html#a7382ba1aed5405c3adc02011ea6c45dd" target="_top" xlink:title="TooNetworking_connection\l_maintenance">
<polygon fill="#ffffff" stroke="#000000" points="642,-.5 642,-30.5 777,-30.5 777,-.5 642,-.5"/>
<text text-anchor="start" x="650" y="-18.5" font-family="Helvetica,sans-Serif" font-size="10.00" fill="#000000">TooNetworking_connection</text>
<text text-anchor="middle" x="709.5" y="-7.5" font-family="Helvetica,sans-Serif" font-size="10.00" fill="#000000">_maintenance</text>
</a>
</g>
</g>
<!-- Node7&#45;&gt;Node8 -->
<g id="edge4" class="edge">
<title>Node7&#45;&gt;Node8</title>
<path fill="none" stroke="#191970" d="M616.6166,-15.5C625.0706,-15.5 633.6064,-15.5 641.8985,-15.5"/>
<polygon fill="#191970" stroke="#191970" points="616.3671,-12.0001 606.3671,-15.5 616.367,-19.0001 616.3671,-12.0001"/>
</g>
<!-- Node9 -->
<g id="node6" class="node">
<title>Node9</title>
<g id="a_node6"><a xlink:href="NODE__SKETCH__TooAutomation__Node_8ino_8cpp.html#a0b33edabd7f1c4e4a0bf32c67269be2f" target="_top" xlink:title="loop">
<polygon fill="#ffffff" stroke="#000000" points="813,-6 813,-25 848,-25 848,-6 813,-6"/>
<text text-anchor="middle" x="830.5" y="-13" font-family="Helvetica,sans-Serif" font-size="10.00" fill="#000000">loop</text>
</a>
</g>
</g>
<!-- Node8&#45;&gt;Node9 -->
<g id="edge5" class="edge">
<title>Node8&#45;&gt;Node9</title>
<path fill="none" stroke="#191970" d="M787.1566,-15.5C796.6588,-15.5 805.5454,-15.5 812.7679,-15.5"/>
<polygon fill="#191970" stroke="#191970" points="787.0755,-12.0001 777.0754,-15.5 787.0754,-19.0001 787.0755,-12.0001"/>
</g>
</g>
</svg>
