<?xml version="1.0" encoding="UTF-8" standalone="no"?>
<!DOCTYPE svg PUBLIC "-//W3C//DTD SVG 1.1//EN"
 "http://www.w3.org/Graphics/SVG/1.1/DTD/svg11.dtd">
<!-- Generated by graphviz version 2.40.1 (20161225.0304)
 -->
<!-- Title: TooSigning_sent_noncelist_find_from_ID Pages: 1 -->
<svg width="721pt" height="53pt"
 viewBox="0.00 0.00 721.00 52.50" xmlns="http://www.w3.org/2000/svg" xmlns:xlink="http://www.w3.org/1999/xlink">
<g id="graph0" class="graph" transform="scale(1 1) rotate(0) translate(4 48.5)">
<title>TooSigning_sent_noncelist_find_from_ID</title>
<polygon fill="#ffffff" stroke="transparent" points="-4,4 -4,-48.5 717,-48.5 717,4 -4,4"/>
<!-- Node133 -->
<g id="node1" class="node">
<title>Node133</title>
<polygon fill="#bfbfbf" stroke="#000000" points="0,-.5 0,-30.5 134,-30.5 134,-.5 0,-.5"/>
<text text-anchor="start" x="8" y="-18.5" font-family="Helvetica,sans-Serif" font-size="10.00" fill="#000000">TooSigning_sent_noncelist</text>
<text text-anchor="middle" x="67" y="-7.5" font-family="Helvetica,sans-Serif" font-size="10.00" fill="#000000">_find_from_ID</text>
</g>
<!-- Node134 -->
<g id="node2" class="node">
<title>Node134</title>
<g id="a_node2"><a xlink:href="TooSigning_8h.html#a15dc10b22577187e282a5b1da9ffec08" target="_top" xlink:title="TooSigning_sent_noncelist_add">
<polygon fill="#ffffff" stroke="#000000" points="170,-25 170,-44 325,-44 325,-25 170,-25"/>
<text text-anchor="middle" x="247.5" y="-32" font-family="Helvetica,sans-Serif" font-size="10.00" fill="#000000">TooSigning_sent_noncelist_add</text>
</a>
</g>
</g>
<!-- Node133&#45;&gt;Node134 -->
<g id="edge1" class="edge">
<title>Node133&#45;&gt;Node134</title>
<path fill="none" stroke="#191970" d="M144.4109,-23.6485C152.8514,-24.537 161.4449,-25.4416 169.8878,-26.3303"/>
<polygon fill="#191970" stroke="#191970" points="144.523,-20.1411 134.2115,-22.5749 143.7902,-27.1026 144.523,-20.1411"/>
</g>
<!-- Node135 -->
<g id="node3" class="node">
<title>Node135</title>
<g id="a_node3"><a xlink:href="TooSigning_8cpp.html#a03df9fd005c518d1114f912ae7da9f06" target="_top" xlink:title="TooSigning_unsigned\l_network_available">
<polygon fill="#ffffff" stroke="#000000" points="361,-.5 361,-30.5 471,-30.5 471,-.5 361,-.5"/>
<text text-anchor="start" x="369" y="-18.5" font-family="Helvetica,sans-Serif" font-size="10.00" fill="#000000">TooSigning_unsigned</text>
<text text-anchor="middle" x="416" y="-7.5" font-family="Helvetica,sans-Serif" font-size="10.00" fill="#000000">_network_available</text>
</a>
</g>
</g>
<!-- Node133&#45;&gt;Node135 -->
<g id="edge5" class="edge">
<title>Node133&#45;&gt;Node135</title>
<path fill="none" stroke="#191970" d="M144.588,-15.5C210.2403,-15.5 302.6935,-15.5 360.9646,-15.5"/>
<polygon fill="#191970" stroke="#191970" points="144.2907,-12.0001 134.2907,-15.5 144.2907,-19.0001 144.2907,-12.0001"/>
</g>
<!-- Node134&#45;&gt;Node135 -->
<g id="edge2" class="edge">
<title>Node134&#45;&gt;Node135</title>
<path fill="none" stroke="#191970" d="M335.3979,-24.5887C343.9659,-23.6225 352.4834,-22.6621 360.5952,-21.7474"/>
<polygon fill="#191970" stroke="#191970" points="334.8829,-21.1245 325.338,-25.723 335.6673,-28.0804 334.8829,-21.1245"/>
</g>
<!-- Node136 -->
<g id="node4" class="node">
<title>Node136</title>
<g id="a_node4"><a xlink:href="TooNetworking_8h.html#a7382ba1aed5405c3adc02011ea6c45dd" target="_top" xlink:title="TooNetworking_connection\l_maintenance">
<polygon fill="#ffffff" stroke="#000000" points="507,-.5 507,-30.5 642,-30.5 642,-.5 507,-.5"/>
<text text-anchor="start" x="515" y="-18.5" font-family="Helvetica,sans-Serif" font-size="10.00" fill="#000000">TooNetworking_connection</text>
<text text-anchor="middle" x="574.5" y="-7.5" font-family="Helvetica,sans-Serif" font-size="10.00" fill="#000000">_maintenance</text>
</a>
</g>
</g>
<!-- Node135&#45;&gt;Node136 -->
<g id="edge3" class="edge">
<title>Node135&#45;&gt;Node136</title>
<path fill="none" stroke="#191970" d="M481.5012,-15.5C489.8601,-15.5 498.4295,-15.5 506.822,-15.5"/>
<polygon fill="#191970" stroke="#191970" points="481.4356,-12.0001 471.4356,-15.5 481.4356,-19.0001 481.4356,-12.0001"/>
</g>
<!-- Node137 -->
<g id="node5" class="node">
<title>Node137</title>
<g id="a_node5"><a xlink:href="NODE__SKETCH__TooAutomation__Node_8ino_8cpp.html#a0b33edabd7f1c4e4a0bf32c67269be2f" target="_top" xlink:title="loop">
<polygon fill="#ffffff" stroke="#000000" points="678,-6 678,-25 713,-25 713,-6 678,-6"/>
<text text-anchor="middle" x="695.5" y="-13" font-family="Helvetica,sans-Serif" font-size="10.00" fill="#000000">loop</text>
</a>
</g>
</g>
<!-- Node136&#45;&gt;Node137 -->
<g id="edge4" class="edge">
<title>Node136&#45;&gt;Node137</title>
<path fill="none" stroke="#191970" d="M652.1566,-15.5C661.6588,-15.5 670.5454,-15.5 677.7679,-15.5"/>
<polygon fill="#191970" stroke="#191970" points="652.0755,-12.0001 642.0754,-15.5 652.0754,-19.0001 652.0755,-12.0001"/>
</g>
</g>
</svg>
