<?xml version="1.0" encoding="UTF-8" standalone="no"?>
<!DOCTYPE svg PUBLIC "-//W3C//DTD SVG 1.1//EN"
 "http://www.w3.org/Graphics/SVG/1.1/DTD/svg11.dtd">
<!-- Generated by graphviz version 2.40.1 (20161225.0304)
 -->
<!-- Title: TooSigning_requested_noncelist_add Pages: 1 -->
<svg width="535pt" height="95pt"
 viewBox="0.00 0.00 535.00 95.00" xmlns="http://www.w3.org/2000/svg" xmlns:xlink="http://www.w3.org/1999/xlink">
<g id="graph0" class="graph" transform="scale(1 1) rotate(0) translate(4 91)">
<title>TooSigning_requested_noncelist_add</title>
<polygon fill="#ffffff" stroke="transparent" points="-4,4 -4,-91 531,-91 531,4 -4,4"/>
<!-- Node73 -->
<g id="node1" class="node">
<title>Node73</title>
<polygon fill="#bfbfbf" stroke="#000000" points="0,-25.5 0,-55.5 113,-55.5 113,-25.5 0,-25.5"/>
<text text-anchor="start" x="8" y="-43.5" font-family="Helvetica,sans-Serif" font-size="10.00" fill="#000000">TooSigning_requested</text>
<text text-anchor="middle" x="56.5" y="-32.5" font-family="Helvetica,sans-Serif" font-size="10.00" fill="#000000">_noncelist_add</text>
</g>
<!-- Node74 -->
<g id="node2" class="node">
<title>Node74</title>
<g id="a_node2"><a xlink:href="TooNetworking_8h.html#a59be7e774988f57ab43c4c078c570c67" target="_top" xlink:title="TooNetworking_bufferlist_add">
<polygon fill="#ffffff" stroke="#000000" points="149,-31 149,-50 295,-50 295,-31 149,-31"/>
<text text-anchor="middle" x="222" y="-38" font-family="Helvetica,sans-Serif" font-size="10.00" fill="#000000">TooNetworking_bufferlist_add</text>
</a>
</g>
</g>
<!-- Node73&#45;&gt;Node74 -->
<g id="edge1" class="edge">
<title>Node73&#45;&gt;Node74</title>
<path fill="none" stroke="#191970" d="M123.5061,-40.5C131.8556,-40.5 140.4271,-40.5 148.8635,-40.5"/>
<polygon fill="#191970" stroke="#191970" points="123.4557,-37.0001 113.4557,-40.5 123.4557,-44.0001 123.4557,-37.0001"/>
</g>
<!-- Node75 -->
<g id="node3" class="node">
<title>Node75</title>
<g id="a_node3"><a xlink:href="TooNetworking_8h.html#a9209f3e1a2fdf0b3b88d49105b8fc359" target="_top" xlink:title="TooNetworking_send\l_signed">
<polygon fill="#ffffff" stroke="#000000" points="339,-56.5 339,-86.5 448,-86.5 448,-56.5 339,-56.5"/>
<text text-anchor="start" x="347" y="-74.5" font-family="Helvetica,sans-Serif" font-size="10.00" fill="#000000">TooNetworking_send</text>
<text text-anchor="middle" x="393.5" y="-63.5" font-family="Helvetica,sans-Serif" font-size="10.00" fill="#000000">_signed</text>
</a>
</g>
</g>
<!-- Node73&#45;&gt;Node75 -->
<g id="edge5" class="edge">
<title>Node73&#45;&gt;Node75</title>
<path fill="none" stroke="#191970" d="M123.1145,-55.4516C131.7891,-57.0248 140.583,-58.4354 149,-59.5 213.9312,-67.7126 289.2211,-70.387 338.9097,-71.2143"/>
<polygon fill="#191970" stroke="#191970" points="123.4923,-51.961 113.0159,-53.5411 122.191,-58.839 123.4923,-51.961"/>
</g>
<!-- Node76 -->
<g id="node4" class="node">
<title>Node76</title>
<g id="a_node4"><a xlink:href="TooNetworking_8h.html#a085ff748b00f6be4ebafcae2bb0dded1" target="_top" xlink:title="TooNetworking_bufferlist\l_send_signed">
<polygon fill="#ffffff" stroke="#000000" points="331,-.5 331,-30.5 456,-30.5 456,-.5 331,-.5"/>
<text text-anchor="start" x="339" y="-18.5" font-family="Helvetica,sans-Serif" font-size="10.00" fill="#000000">TooNetworking_bufferlist</text>
<text text-anchor="middle" x="393.5" y="-7.5" font-family="Helvetica,sans-Serif" font-size="10.00" fill="#000000">_send_signed</text>
</a>
</g>
</g>
<!-- Node73&#45;&gt;Node76 -->
<g id="edge6" class="edge">
<title>Node73&#45;&gt;Node76</title>
<path fill="none" stroke="#191970" d="M123.4525,-25.2872C132.0137,-23.7731 140.6877,-22.448 149,-21.5 210.5933,-14.4752 281.4569,-13.5115 330.9833,-13.9803"/>
<polygon fill="#191970" stroke="#191970" points="122.6747,-21.8718 113.4826,-27.1402 123.9539,-28.7539 122.6747,-21.8718"/>
</g>
<!-- Node74&#45;&gt;Node75 -->
<g id="edge2" class="edge">
<title>Node74&#45;&gt;Node75</title>
<path fill="none" stroke="#191970" d="M285.0426,-51.8955C302.6577,-55.0795 321.6505,-58.5126 338.7445,-61.6025"/>
<polygon fill="#191970" stroke="#191970" points="285.3182,-48.3886 274.855,-50.054 284.073,-55.277 285.3182,-48.3886"/>
</g>
<!-- Node74&#45;&gt;Node76 -->
<g id="edge3" class="edge">
<title>Node74&#45;&gt;Node76</title>
<path fill="none" stroke="#191970" d="M297.4866,-29.4961C308.6464,-27.8693 320.0416,-26.2082 330.9012,-24.6252"/>
<polygon fill="#191970" stroke="#191970" points="296.7166,-26.0713 287.326,-30.9773 297.7263,-32.9981 296.7166,-26.0713"/>
</g>
<!-- Node77 -->
<g id="node5" class="node">
<title>Node77</title>
<g id="a_node5"><a xlink:href="NODE__SKETCH__TooAutomation__Node_8ino_8cpp.html#a0b33edabd7f1c4e4a0bf32c67269be2f" target="_top" xlink:title="loop">
<polygon fill="#ffffff" stroke="#000000" points="492,-6 492,-25 527,-25 527,-6 492,-6"/>
<text text-anchor="middle" x="509.5" y="-13" font-family="Helvetica,sans-Serif" font-size="10.00" fill="#000000">loop</text>
</a>
</g>
</g>
<!-- Node76&#45;&gt;Node77 -->
<g id="edge4" class="edge">
<title>Node76&#45;&gt;Node77</title>
<path fill="none" stroke="#191970" d="M466.5149,-15.5C475.8175,-15.5 484.5667,-15.5 491.7123,-15.5"/>
<polygon fill="#191970" stroke="#191970" points="466.2531,-12.0001 456.2531,-15.5 466.253,-19.0001 466.2531,-12.0001"/>
</g>
</g>
</svg>
