<?xml version="1.0" encoding="UTF-8" standalone="no"?>
<!DOCTYPE svg PUBLIC "-//W3C//DTD SVG 1.1//EN"
 "http://www.w3.org/Graphics/SVG/1.1/DTD/svg11.dtd">
<!-- Generated by graphviz version 2.40.1 (20161225.0304)
 -->
<!-- Title: TooSigning_init_hmac Pages: 1 -->
<svg width="680pt" height="152pt"
 viewBox="0.00 0.00 680.00 152.00" xmlns="http://www.w3.org/2000/svg" xmlns:xlink="http://www.w3.org/1999/xlink">
<g id="graph0" class="graph" transform="scale(1 1) rotate(0) translate(4 148)">
<title>TooSigning_init_hmac</title>
<polygon fill="#ffffff" stroke="transparent" points="-4,4 -4,-148 676,-148 676,4 -4,4"/>
<!-- Node35 -->
<g id="node1" class="node">
<title>Node35</title>
<polygon fill="#bfbfbf" stroke="#000000" points="0,-69 0,-88 113,-88 113,-69 0,-69"/>
<text text-anchor="middle" x="56.5" y="-76" font-family="Helvetica,sans-Serif" font-size="10.00" fill="#000000">TooSigning_init_hmac</text>
</g>
<!-- Node36 -->
<g id="node2" class="node">
<title>Node36</title>
<g id="a_node2"><a xlink:href="TooNetworking_8h.html#a9f893c3218491ee86282fdcd9f376500" target="_top" xlink:title="TooNetworking_send\l_signed_">
<polygon fill="#ffffff" stroke="#000000" points="149,-63.5 149,-93.5 258,-93.5 258,-63.5 149,-63.5"/>
<text text-anchor="start" x="157" y="-81.5" font-family="Helvetica,sans-Serif" font-size="10.00" fill="#000000">TooNetworking_send</text>
<text text-anchor="middle" x="203.5" y="-70.5" font-family="Helvetica,sans-Serif" font-size="10.00" fill="#000000">_signed_</text>
</a>
</g>
</g>
<!-- Node35&#45;&gt;Node36 -->
<g id="edge1" class="edge">
<title>Node35&#45;&gt;Node36</title>
<path fill="none" stroke="#191970" d="M123.5402,-78.5C131.9787,-78.5 140.5317,-78.5 148.7496,-78.5"/>
<polygon fill="#191970" stroke="#191970" points="123.3341,-75.0001 113.334,-78.5 123.334,-82.0001 123.3341,-75.0001"/>
</g>
<!-- Node37 -->
<g id="node3" class="node">
<title>Node37</title>
<g id="a_node3"><a xlink:href="TooNetworking_8h.html#a59be7e774988f57ab43c4c078c570c67" target="_top" xlink:title="TooNetworking_bufferlist_add">
<polygon fill="#ffffff" stroke="#000000" points="294,-88 294,-107 440,-107 440,-88 294,-88"/>
<text text-anchor="middle" x="367" y="-95" font-family="Helvetica,sans-Serif" font-size="10.00" fill="#000000">TooNetworking_bufferlist_add</text>
</a>
</g>
</g>
<!-- Node36&#45;&gt;Node37 -->
<g id="edge2" class="edge">
<title>Node36&#45;&gt;Node37</title>
<path fill="none" stroke="#191970" d="M268.465,-86.0495C276.8386,-87.0225 285.4576,-88.0241 293.95,-89.011"/>
<polygon fill="#191970" stroke="#191970" points="268.7352,-82.5574 258.398,-84.8796 267.9271,-89.5106 268.7352,-82.5574"/>
</g>
<!-- Node38 -->
<g id="node4" class="node">
<title>Node38</title>
<g id="a_node4"><a xlink:href="TooNetworking_8h.html#a9209f3e1a2fdf0b3b88d49105b8fc359" target="_top" xlink:title="TooNetworking_send\l_signed">
<polygon fill="#ffffff" stroke="#000000" points="484,-113.5 484,-143.5 593,-143.5 593,-113.5 484,-113.5"/>
<text text-anchor="start" x="492" y="-131.5" font-family="Helvetica,sans-Serif" font-size="10.00" fill="#000000">TooNetworking_send</text>
<text text-anchor="middle" x="538.5" y="-120.5" font-family="Helvetica,sans-Serif" font-size="10.00" fill="#000000">_signed</text>
</a>
</g>
</g>
<!-- Node36&#45;&gt;Node38 -->
<g id="edge6" class="edge">
<title>Node36&#45;&gt;Node38</title>
<path fill="none" stroke="#191970" d="M241.7915,-98.0649C257.552,-105.185 276.2477,-112.4689 294,-116.5 358.0309,-131.0397 433.829,-132.4003 483.8689,-131.1936"/>
<polygon fill="#191970" stroke="#191970" points="242.9348,-94.7363 232.3924,-93.6834 239.9772,-101.0808 242.9348,-94.7363"/>
</g>
<!-- Node39 -->
<g id="node5" class="node">
<title>Node39</title>
<g id="a_node5"><a xlink:href="TooNetworking_8h.html#a085ff748b00f6be4ebafcae2bb0dded1" target="_top" xlink:title="TooNetworking_bufferlist\l_send_signed">
<polygon fill="#ffffff" stroke="#000000" points="476,-57.5 476,-87.5 601,-87.5 601,-57.5 476,-57.5"/>
<text text-anchor="start" x="484" y="-75.5" font-family="Helvetica,sans-Serif" font-size="10.00" fill="#000000">TooNetworking_bufferlist</text>
<text text-anchor="middle" x="538.5" y="-64.5" font-family="Helvetica,sans-Serif" font-size="10.00" fill="#000000">_send_signed</text>
</a>
</g>
</g>
<!-- Node36&#45;&gt;Node39 -->
<g id="edge7" class="edge">
<title>Node36&#45;&gt;Node39</title>
<path fill="none" stroke="#191970" d="M268.1738,-77.3417C328.1187,-76.268 416.722,-74.6811 475.971,-73.6199"/>
<polygon fill="#191970" stroke="#191970" points="268.0048,-73.844 258.0691,-77.5226 268.1302,-80.8429 268.0048,-73.844"/>
</g>
<!-- Node41 -->
<g id="node7" class="node">
<title>Node41</title>
<g id="a_node7"><a xlink:href="TooNetworking_8h.html#ab58e06e0eb6f2f8ecbebeaf3c173fb22" target="_top" xlink:title="TooNetworking_bufferlist\l_send_all">
<polygon fill="#ffffff" stroke="#000000" points="304.5,-.5 304.5,-30.5 429.5,-30.5 429.5,-.5 304.5,-.5"/>
<text text-anchor="start" x="312.5" y="-18.5" font-family="Helvetica,sans-Serif" font-size="10.00" fill="#000000">TooNetworking_bufferlist</text>
<text text-anchor="middle" x="367" y="-7.5" font-family="Helvetica,sans-Serif" font-size="10.00" fill="#000000">_send_all</text>
</a>
</g>
</g>
<!-- Node36&#45;&gt;Node41 -->
<g id="edge8" class="edge">
<title>Node36&#45;&gt;Node41</title>
<path fill="none" stroke="#191970" d="M252.0275,-59.8013C276.2292,-50.4759 305.1121,-39.3467 327.8742,-30.576"/>
<polygon fill="#191970" stroke="#191970" points="250.7351,-56.5484 242.6623,-63.4099 253.252,-63.0803 250.7351,-56.5484"/>
</g>
<!-- Node37&#45;&gt;Node38 -->
<g id="edge3" class="edge">
<title>Node37&#45;&gt;Node38</title>
<path fill="none" stroke="#191970" d="M430.0426,-108.8955C447.6577,-112.0795 466.6505,-115.5126 483.7445,-118.6025"/>
<polygon fill="#191970" stroke="#191970" points="430.3182,-105.3886 419.855,-107.054 429.073,-112.277 430.3182,-105.3886"/>
</g>
<!-- Node37&#45;&gt;Node39 -->
<g id="edge4" class="edge">
<title>Node37&#45;&gt;Node39</title>
<path fill="none" stroke="#191970" d="M442.4866,-86.4961C453.6464,-84.8693 465.0416,-83.2082 475.9012,-81.6252"/>
<polygon fill="#191970" stroke="#191970" points="441.7166,-83.0713 432.326,-87.9773 442.7263,-89.9981 441.7166,-83.0713"/>
</g>
<!-- Node40 -->
<g id="node6" class="node">
<title>Node40</title>
<g id="a_node6"><a xlink:href="NODE__SKETCH__TooAutomation__Node_8ino_8cpp.html#a0b33edabd7f1c4e4a0bf32c67269be2f" target="_top" xlink:title="loop">
<polygon fill="#ffffff" stroke="#000000" points="637,-63 637,-82 672,-82 672,-63 637,-63"/>
<text text-anchor="middle" x="654.5" y="-70" font-family="Helvetica,sans-Serif" font-size="10.00" fill="#000000">loop</text>
</a>
</g>
</g>
<!-- Node39&#45;&gt;Node40 -->
<g id="edge5" class="edge">
<title>Node39&#45;&gt;Node40</title>
<path fill="none" stroke="#191970" d="M611.5149,-72.5C620.8175,-72.5 629.5667,-72.5 636.7123,-72.5"/>
<polygon fill="#191970" stroke="#191970" points="611.2531,-69.0001 601.2531,-72.5 611.253,-76.0001 611.2531,-69.0001"/>
</g>
</g>
</svg>
