<?xml version="1.0" encoding="UTF-8" standalone="no"?>
<!DOCTYPE svg PUBLIC "-//W3C//DTD SVG 1.1//EN"
 "http://www.w3.org/Graphics/SVG/1.1/DTD/svg11.dtd">
<!-- Generated by graphviz version 2.40.1 (20161225.0304)
 -->
<!-- Title: TooSigning_request_nonce_from_node_id Pages: 1 -->
<svg width="725pt" height="61pt"
 viewBox="0.00 0.00 725.00 61.00" xmlns="http://www.w3.org/2000/svg" xmlns:xlink="http://www.w3.org/1999/xlink">
<g id="graph0" class="graph" transform="scale(1 1) rotate(0) translate(4 57)">
<title>TooSigning_request_nonce_from_node_id</title>
<polygon fill="#ffffff" stroke="transparent" points="-4,4 -4,-57 721,-57 721,4 -4,4"/>
<!-- Node53 -->
<g id="node1" class="node">
<title>Node53</title>
<polygon fill="#bfbfbf" stroke="#000000" points="0,-.5 0,-30.5 112,-30.5 112,-.5 0,-.5"/>
<text text-anchor="start" x="8" y="-18.5" font-family="Helvetica,sans-Serif" font-size="10.00" fill="#000000">TooSigning_request</text>
<text text-anchor="middle" x="56" y="-7.5" font-family="Helvetica,sans-Serif" font-size="10.00" fill="#000000">_nonce_from_node_id</text>
</g>
<!-- Node54 -->
<g id="node2" class="node">
<title>Node54</title>
<g id="a_node2"><a xlink:href="TooSigning_8cpp.html#a7c4b40a9376e0044a89b8abe3a83c970" target="_top" xlink:title="TooSigning_connection_fix">
<polygon fill="#ffffff" stroke="#000000" points="148,-6 148,-25 282,-25 282,-6 148,-6"/>
<text text-anchor="middle" x="215" y="-13" font-family="Helvetica,sans-Serif" font-size="10.00" fill="#000000">TooSigning_connection_fix</text>
</a>
</g>
</g>
<!-- Node53&#45;&gt;Node54 -->
<g id="edge1" class="edge">
<title>Node53&#45;&gt;Node54</title>
<path fill="none" stroke="#191970" d="M112.0575,-15.5C120.3473,-15.5 129.0106,-15.5 137.6402,-15.5"/>
<polygon fill="#191970" stroke="#191970" points="137.7309,-19.0001 147.7308,-15.5 137.7308,-12.0001 137.7309,-19.0001"/>
</g>
<!-- Node55 -->
<g id="node3" class="node">
<title>Node55</title>
<g id="a_node3"><a xlink:href="TooNetworking_8cpp.html#aefc5dad88b637efb11a3a7b2f76a19b9" target="_top" xlink:title="TooNetworking_connection_fix">
<polygon fill="#ffffff" stroke="#000000" points="318,-6 318,-25 469,-25 469,-6 318,-6"/>
<text text-anchor="middle" x="393.5" y="-13" font-family="Helvetica,sans-Serif" font-size="10.00" fill="#000000">TooNetworking_connection_fix</text>
</a>
</g>
</g>
<!-- Node54&#45;&gt;Node55 -->
<g id="edge2" class="edge">
<title>Node54&#45;&gt;Node55</title>
<path fill="none" stroke="#191970" d="M282.2288,-15.5C290.6106,-15.5 299.2687,-15.5 307.8817,-15.5"/>
<polygon fill="#191970" stroke="#191970" points="307.9526,-19.0001 317.9526,-15.5 307.9525,-12.0001 307.9526,-19.0001"/>
</g>
<!-- Node56 -->
<g id="node4" class="node">
<title>Node56</title>
<g id="a_node4"><a xlink:href="TooNetworking_8cpp.html#a48504aef69d9ac92e34269a64f7b518b" target="_top" xlink:title="TooNetworking_connection\l_check">
<polygon fill="#ffffff" stroke="#000000" points="505,-22.5 505,-52.5 640,-52.5 640,-22.5 505,-22.5"/>
<text text-anchor="start" x="513" y="-40.5" font-family="Helvetica,sans-Serif" font-size="10.00" fill="#000000">TooNetworking_connection</text>
<text text-anchor="middle" x="572.5" y="-29.5" font-family="Helvetica,sans-Serif" font-size="10.00" fill="#000000">_check</text>
</a>
</g>
</g>
<!-- Node55&#45;&gt;Node56 -->
<g id="edge3" class="edge">
<title>Node55&#45;&gt;Node56</title>
<path fill="none" stroke="#191970" d="M469.1527,-24.7981C477.6566,-25.8433 486.3316,-26.9095 494.8602,-27.9577"/>
<polygon fill="#191970" stroke="#191970" points="494.4336,-31.4315 504.7859,-29.1776 495.2876,-24.4838 494.4336,-31.4315"/>
</g>
<!-- Node57 -->
<g id="node5" class="node">
<title>Node57</title>
<g id="a_node5"><a xlink:href="TooNetworking_8cpp.html#abdda8f09b9d475ed2c23a2376e2e0151" target="_top" xlink:title="mesh">
<polygon fill="#ffffff" stroke="#000000" points="676,-6 676,-25 717,-25 717,-6 676,-6"/>
<text text-anchor="middle" x="696.5" y="-13" font-family="Helvetica,sans-Serif" font-size="10.00" fill="#000000">mesh</text>
</a>
</g>
</g>
<!-- Node55&#45;&gt;Node57 -->
<g id="edge5" class="edge">
<title>Node55&#45;&gt;Node57</title>
<path fill="none" stroke="#191970" d="M469.0236,-13.879C517.8116,-13.081 582.6616,-12.4855 640,-13.5 648.3493,-13.6477 657.3893,-13.9182 665.7388,-14.2134"/>
<polygon fill="#191970" stroke="#191970" points="665.717,-17.715 675.8415,-14.5933 665.9801,-10.7199 665.717,-17.715"/>
</g>
<!-- Node56&#45;&gt;Node57 -->
<g id="edge4" class="edge">
<title>Node56&#45;&gt;Node57</title>
<path fill="none" stroke="#191970" d="M640.3049,-25.4701C649.2455,-23.8839 658.0236,-22.3265 665.8869,-20.9314"/>
<polygon fill="#191970" stroke="#191970" points="666.737,-24.3353 675.9718,-19.1421 665.5141,-17.4429 666.737,-24.3353"/>
</g>
</g>
</svg>
