<?xml version="1.0" encoding="UTF-8" standalone="no"?>
<!DOCTYPE svg PUBLIC "-//W3C//DTD SVG 1.1//EN"
 "http://www.w3.org/Graphics/SVG/1.1/DTD/svg11.dtd">
<!-- Generated by graphviz version 2.40.1 (20161225.0304)
 -->
<!-- Title: TooSigning_signed_network_begin Pages: 1 -->
<svg width="465pt" height="39pt"
 viewBox="0.00 0.00 465.00 39.00" xmlns="http://www.w3.org/2000/svg" xmlns:xlink="http://www.w3.org/1999/xlink">
<g id="graph0" class="graph" transform="scale(1 1) rotate(0) translate(4 35)">
<title>TooSigning_signed_network_begin</title>
<polygon fill="#ffffff" stroke="transparent" points="-4,4 -4,-35 461,-35 461,4 -4,4"/>
<!-- Node119 -->
<g id="node1" class="node">
<title>Node119</title>
<polygon fill="#bfbfbf" stroke="#000000" points="0,-.5 0,-30.5 139,-30.5 139,-.5 0,-.5"/>
<text text-anchor="start" x="8" y="-18.5" font-family="Helvetica,sans-Serif" font-size="10.00" fill="#000000">TooSigning_signed_network</text>
<text text-anchor="middle" x="69.5" y="-7.5" font-family="Helvetica,sans-Serif" font-size="10.00" fill="#000000">_begin</text>
</g>
<!-- Node120 -->
<g id="node2" class="node">
<title>Node120</title>
<g id="a_node2"><a xlink:href="TooNetworking_8h.html#aec97902cf0d3ec10fd86927f3d1df0c6" target="_top" xlink:title="TooNetworking_connection\l_begin">
<polygon fill="#ffffff" stroke="#000000" points="175,-.5 175,-30.5 310,-30.5 310,-.5 175,-.5"/>
<text text-anchor="start" x="183" y="-18.5" font-family="Helvetica,sans-Serif" font-size="10.00" fill="#000000">TooNetworking_connection</text>
<text text-anchor="middle" x="242.5" y="-7.5" font-family="Helvetica,sans-Serif" font-size="10.00" fill="#000000">_begin</text>
</a>
</g>
</g>
<!-- Node119&#45;&gt;Node120 -->
<g id="edge1" class="edge">
<title>Node119&#45;&gt;Node120</title>
<path fill="none" stroke="#191970" d="M149.6166,-15.5C158.0706,-15.5 166.6064,-15.5 174.8985,-15.5"/>
<polygon fill="#191970" stroke="#191970" points="149.3671,-12.0001 139.3671,-15.5 149.367,-19.0001 149.3671,-12.0001"/>
</g>
<!-- Node121 -->
<g id="node3" class="node">
<title>Node121</title>
<g id="a_node3"><a xlink:href="TooNetworking_8h.html#a2676204dee95da1ef337de95eb0e9bcb" target="_top" xlink:title="TooNetworking_begin">
<polygon fill="#ffffff" stroke="#000000" points="346,-6 346,-25 457,-25 457,-6 346,-6"/>
<text text-anchor="middle" x="401.5" y="-13" font-family="Helvetica,sans-Serif" font-size="10.00" fill="#000000">TooNetworking_begin</text>
</a>
</g>
</g>
<!-- Node120&#45;&gt;Node121 -->
<g id="edge2" class="edge">
<title>Node120&#45;&gt;Node121</title>
<path fill="none" stroke="#191970" d="M320.421,-15.5C328.9946,-15.5 337.5927,-15.5 345.8162,-15.5"/>
<polygon fill="#191970" stroke="#191970" points="320.3915,-12.0001 310.3915,-15.5 320.3915,-19.0001 320.3915,-12.0001"/>
</g>
</g>
</svg>
