<?xml version="1.0" encoding="UTF-8" standalone="no"?>
<!DOCTYPE svg PUBLIC "-//W3C//DTD SVG 1.1//EN"
 "http://www.w3.org/Graphics/SVG/1.1/DTD/svg11.dtd">
<!-- Generated by graphviz version 2.40.1 (20161225.0304)
 -->
<!-- Title: TooSigning_received_noncelist_find_from_ID Pages: 1 -->
<svg width="618pt" height="116pt"
 viewBox="0.00 0.00 618.00 116.38" xmlns="http://www.w3.org/2000/svg" xmlns:xlink="http://www.w3.org/1999/xlink">
<g id="graph0" class="graph" transform="scale(1 1) rotate(0) translate(4 112.3792)">
<title>TooSigning_received_noncelist_find_from_ID</title>
<polygon fill="#ffffff" stroke="transparent" points="-4,4 -4,-112.3792 614,-112.3792 614,4 -4,4"/>
<!-- Node35 -->
<g id="node1" class="node">
<title>Node35</title>
<polygon fill="#bfbfbf" stroke="#000000" points="0,-43.5 0,-73.5 122,-73.5 122,-43.5 0,-43.5"/>
<text text-anchor="start" x="8" y="-61.5" font-family="Helvetica,sans-Serif" font-size="10.00" fill="#000000">TooSigning_received</text>
<text text-anchor="middle" x="61" y="-50.5" font-family="Helvetica,sans-Serif" font-size="10.00" fill="#000000">_noncelist_find_from_ID</text>
</g>
<!-- Node36 -->
<g id="node2" class="node">
<title>Node36</title>
<g id="a_node2"><a xlink:href="TooNetworking_8h.html#a59be7e774988f57ab43c4c078c570c67" target="_top" xlink:title="TooNetworking_bufferlist_add">
<polygon fill="#ffffff" stroke="#000000" points="158,-68 158,-87 304,-87 304,-68 158,-68"/>
<text text-anchor="middle" x="231" y="-75" font-family="Helvetica,sans-Serif" font-size="10.00" fill="#000000">TooNetworking_bufferlist_add</text>
</a>
</g>
</g>
<!-- Node35&#45;&gt;Node36 -->
<g id="edge1" class="edge">
<title>Node35&#45;&gt;Node36</title>
<path fill="none" stroke="#191970" d="M132.488,-66.4898C140.8715,-67.4268 149.435,-68.3839 157.841,-69.3234"/>
<polygon fill="#191970" stroke="#191970" points="132.7008,-62.9919 122.3739,-65.3594 131.9232,-69.9486 132.7008,-62.9919"/>
</g>
<!-- Node37 -->
<g id="node3" class="node">
<title>Node37</title>
<g id="a_node3"><a xlink:href="TooNetworking_8h.html#a9209f3e1a2fdf0b3b88d49105b8fc359" target="_top" xlink:title="TooNetworking_send\l_signed">
<polygon fill="#ffffff" stroke="#000000" points="340,-24.5 340,-54.5 449,-54.5 449,-24.5 340,-24.5"/>
<text text-anchor="start" x="348" y="-42.5" font-family="Helvetica,sans-Serif" font-size="10.00" fill="#000000">TooNetworking_send</text>
<text text-anchor="middle" x="394.5" y="-31.5" font-family="Helvetica,sans-Serif" font-size="10.00" fill="#000000">_signed</text>
</a>
</g>
</g>
<!-- Node35&#45;&gt;Node37 -->
<g id="edge6" class="edge">
<title>Node35&#45;&gt;Node37</title>
<path fill="none" stroke="#191970" d="M132.284,-54.4388C194.3932,-50.9004 283.1487,-45.8439 339.7969,-42.6165"/>
<polygon fill="#191970" stroke="#191970" points="131.9537,-50.9519 122.169,-55.0151 132.352,-57.9406 131.9537,-50.9519"/>
</g>
<!-- Node38 -->
<g id="node4" class="node">
<title>Node38</title>
<g id="a_node4"><a xlink:href="TooNetworking_8h.html#a085ff748b00f6be4ebafcae2bb0dded1" target="_top" xlink:title="TooNetworking_bufferlist\l_send_signed">
<polygon fill="#ffffff" stroke="#000000" points="485,-68.5 485,-98.5 610,-98.5 610,-68.5 485,-68.5"/>
<text text-anchor="start" x="493" y="-86.5" font-family="Helvetica,sans-Serif" font-size="10.00" fill="#000000">TooNetworking_bufferlist</text>
<text text-anchor="middle" x="547.5" y="-75.5" font-family="Helvetica,sans-Serif" font-size="10.00" fill="#000000">_send_signed</text>
</a>
</g>
</g>
<!-- Node35&#45;&gt;Node38 -->
<g id="edge7" class="edge">
<title>Node35&#45;&gt;Node38</title>
<path fill="none" stroke="#191970" d="M100.3383,-77.7711C117.5927,-85.1992 138.3562,-92.7895 158,-96.5 271.6869,-117.9741 407.2832,-104.9597 484.7942,-93.95"/>
<polygon fill="#191970" stroke="#191970" points="101.7028,-74.5475 91.143,-73.6868 98.8612,-80.9448 101.7028,-74.5475"/>
</g>
<!-- Node39 -->
<g id="node5" class="node">
<title>Node39</title>
<g id="a_node5"><a xlink:href="TooNetworking_8h.html#ab58e06e0eb6f2f8ecbebeaf3c173fb22" target="_top" xlink:title="TooNetworking_bufferlist\l_send_all">
<polygon fill="#ffffff" stroke="#000000" points="485,-.5 485,-30.5 610,-30.5 610,-.5 485,-.5"/>
<text text-anchor="start" x="493" y="-18.5" font-family="Helvetica,sans-Serif" font-size="10.00" fill="#000000">TooNetworking_bufferlist</text>
<text text-anchor="middle" x="547.5" y="-7.5" font-family="Helvetica,sans-Serif" font-size="10.00" fill="#000000">_send_all</text>
</a>
</g>
</g>
<!-- Node35&#45;&gt;Node39 -->
<g id="edge8" class="edge">
<title>Node35&#45;&gt;Node39</title>
<path fill="none" stroke="#191970" d="M132.3242,-44.8704C140.9643,-43.3359 149.6749,-41.8434 158,-40.5 238.6057,-27.4924 258.5417,-21.0685 340,-15.5 388.5196,-12.1832 443.5701,-12.3646 484.7706,-13.277"/>
<polygon fill="#191970" stroke="#191970" points="131.4634,-41.469 122.2413,-46.6847 132.7031,-48.3584 131.4634,-41.469"/>
</g>
<!-- Node36&#45;&gt;Node37 -->
<g id="edge2" class="edge">
<title>Node36&#45;&gt;Node37</title>
<path fill="none" stroke="#191970" d="M282.1856,-65.6037C300.5525,-61.3349 321.324,-56.5073 339.9645,-52.1749"/>
<polygon fill="#191970" stroke="#191970" points="281.206,-62.238 272.258,-67.911 282.7907,-69.0562 281.206,-62.238"/>
</g>
<!-- Node36&#45;&gt;Node38 -->
<g id="edge5" class="edge">
<title>Node36&#45;&gt;Node38</title>
<path fill="none" stroke="#191970" d="M314.144,-79.0762C367.5688,-80.089 435.8624,-81.3836 484.7419,-82.3103"/>
<polygon fill="#191970" stroke="#191970" points="314.0735,-75.5743 304.0089,-78.8841 313.9407,-82.5731 314.0735,-75.5743"/>
</g>
<!-- Node37&#45;&gt;Node38 -->
<g id="edge3" class="edge">
<title>Node37&#45;&gt;Node38</title>
<path fill="none" stroke="#191970" d="M456.4364,-57.3118C469.3136,-61.015 482.7624,-64.8827 495.2498,-68.4738"/>
<polygon fill="#191970" stroke="#191970" points="457.3038,-53.9194 446.726,-54.5192 455.3691,-60.6468 457.3038,-53.9194"/>
</g>
<!-- Node37&#45;&gt;Node39 -->
<g id="edge4" class="edge">
<title>Node37&#45;&gt;Node39</title>
<path fill="none" stroke="#191970" d="M459.4187,-29.3167C467.811,-28.0002 476.3936,-26.6539 484.7499,-25.3431"/>
<polygon fill="#191970" stroke="#191970" points="458.6411,-25.8958 449.3044,-30.9032 459.726,-32.8112 458.6411,-25.8958"/>
</g>
</g>
</svg>
