<?xml version="1.0" encoding="UTF-8" standalone="no"?>
<!DOCTYPE svg PUBLIC "-//W3C//DTD SVG 1.1//EN"
 "http://www.w3.org/Graphics/SVG/1.1/DTD/svg11.dtd">
<!-- Generated by graphviz version 2.40.1 (20161225.0304)
 -->
<!-- Title: TooSigning_read_hmac_from_progmem Pages: 1 -->
<!--zoomable 169 -->
<svg id="main" version="1.1" xmlns="http://www.w3.org/2000/svg" xmlns:xlink="http://www.w3.org/1999/xlink" xml:space="preserve" onload="init(evt)">
<style type="text/css"><![CDATA[
.edge:hover path { stroke: red; }
.edge:hover polygon { stroke: red; fill: red; }
]]></style>
<script type="text/javascript"><![CDATA[
var edges = document.getElementsByTagName('g');
if (edges && edges.length) {
  for (var i=0;i<edges.length;i++) {
    if (edges[i].id.substr(0,4)=='edge') {
      edges[i].setAttribute('class','edge');
    }
  }
}
]]></script>
        <defs>
                <circle id="rim" cx="0" cy="0" r="7"/>
                <circle id="rim2" cx="0" cy="0" r="3.5"/>
                <g id="zoomPlus">
                        <use xlink:href="#rim" fill="#404040">
                                <set attributeName="fill" to="#808080" begin="zoomplus.mouseover" end="zoomplus.mouseout"/>
                        </use>
                        <path d="M-4,0h8M0,-4v8" fill="none" stroke="white" stroke-width="1.5" pointer-events="none"/>
                </g>
                <g id="zoomMin">
                        <use xlink:href="#rim" fill="#404040">
                                <set attributeName="fill" to="#808080" begin="zoomminus.mouseover" end="zoomminus.mouseout"/>
                        </use>
                        <path d="M-4,0h8" fill="none" stroke="white" stroke-width="1.5" pointer-events="none"/>
                </g>
                <g id="dirArrow">
                        <path fill="none" stroke="white" stroke-width="1.5" d="M0,-3.0v7 M-2.5,-0.5L0,-3.0L2.5,-0.5"/>
                </g>
               <g id="resetDef">
                       <use xlink:href="#rim2" fill="#404040">
                               <set attributeName="fill" to="#808080" begin="reset.mouseover" end="reset.mouseout"/>
                       </use>
               </g>
        </defs>

<script type="text/javascript">
var viewWidth = 697;
var viewHeight = 169;
var sectionId = 'dynsection-6';
</script>
<script xlink:href="svgpan.js"/>
<svg id="graph" class="graph">
<g id="viewport">
<title>TooSigning_read_hmac_from_progmem</title>
<polygon fill="#ffffff" stroke="transparent" points="-4,4 -4,-165 693,-165 693,4 -4,4"/>
<!-- Node43 -->
<g id="node1" class="node">
<title>Node43</title>
<polygon fill="#bfbfbf" stroke="#000000" points="0,-24.5 0,-54.5 119,-54.5 119,-24.5 0,-24.5"/>
<text text-anchor="start" x="8" y="-42.5" font-family="Helvetica,sans-Serif" font-size="10.00" fill="#000000">TooSigning_read_hmac</text>
<text text-anchor="middle" x="59.5" y="-31.5" font-family="Helvetica,sans-Serif" font-size="10.00" fill="#000000">_from_progmem</text>
</g>
<!-- Node44 -->
<g id="node2" class="node">
<title>Node44</title>
<g id="a_node2"><a xlink:href="TooNetworking_8h.html#a9f893c3218491ee86282fdcd9f376500" target="_top" xlink:title="TooNetworking_send\l_signed_">
<polygon fill="#ffffff" stroke="#000000" points="155.5,-68.5 155.5,-98.5 264.5,-98.5 264.5,-68.5 155.5,-68.5"/>
<text text-anchor="start" x="163.5" y="-86.5" font-family="Helvetica,sans-Serif" font-size="10.00" fill="#000000">TooNetworking_send</text>
<text text-anchor="middle" x="210" y="-75.5" font-family="Helvetica,sans-Serif" font-size="10.00" fill="#000000">_signed_</text>
</a>
</g>
</g>
<!-- Node43&#45;&gt;Node44 -->
<g id="edge1" class="edge">
<title>Node43&#45;&gt;Node44</title>
<path fill="none" stroke="#191970" d="M120.7971,-57.4207C133.3504,-61.0908 146.4407,-64.9179 158.6035,-68.4738"/>
<polygon fill="#191970" stroke="#191970" points="121.453,-53.9661 110.8726,-54.5192 119.4887,-60.6848 121.453,-53.9661"/>
</g>
<!-- Node50 -->
<g id="node8" class="node">
<title>Node50</title>
<g id="a_node8"><a xlink:href="TooSigning_8cpp.html#a03df9fd005c518d1114f912ae7da9f06" target="_top" xlink:title="TooSigning_unsigned\l_network_available">
<polygon fill="#ffffff" stroke="#000000" points="155,-.5 155,-30.5 265,-30.5 265,-.5 155,-.5"/>
<text text-anchor="start" x="163" y="-18.5" font-family="Helvetica,sans-Serif" font-size="10.00" fill="#000000">TooSigning_unsigned</text>
<text text-anchor="middle" x="210" y="-7.5" font-family="Helvetica,sans-Serif" font-size="10.00" fill="#000000">_network_available</text>
</a>
</g>
</g>
<!-- Node43&#45;&gt;Node50 -->
<g id="edge9" class="edge">
<title>Node43&#45;&gt;Node50</title>
<path fill="none" stroke="#191970" d="M129.3304,-28.3643C137.8363,-27.0078 146.4351,-25.6366 154.6889,-24.3204"/>
<polygon fill="#191970" stroke="#191970" points="128.738,-24.9144 119.414,-29.9456 129.8405,-31.8271 128.738,-24.9144"/>
</g>
<!-- Node45 -->
<g id="node3" class="node">
<title>Node45</title>
<g id="a_node3"><a xlink:href="TooNetworking_8h.html#a59be7e774988f57ab43c4c078c570c67" target="_top" xlink:title="TooNetworking_bufferlist_add">
<polygon fill="#ffffff" stroke="#000000" points="301,-112 301,-131 447,-131 447,-112 301,-112"/>
<text text-anchor="middle" x="374" y="-119" font-family="Helvetica,sans-Serif" font-size="10.00" fill="#000000">TooNetworking_bufferlist_add</text>
</a>
</g>
</g>
<!-- Node44&#45;&gt;Node45 -->
<g id="edge2" class="edge">
<title>Node44&#45;&gt;Node45</title>
<path fill="none" stroke="#191970" d="M274.4333,-98.4297C294.0999,-102.9866 315.181,-107.8712 332.859,-111.9673"/>
<polygon fill="#191970" stroke="#191970" points="275.1416,-95.0011 264.6096,-96.1534 273.5615,-101.8205 275.1416,-95.0011"/>
</g>
<!-- Node46 -->
<g id="node4" class="node">
<title>Node46</title>
<g id="a_node4"><a xlink:href="TooNetworking_8h.html#a9209f3e1a2fdf0b3b88d49105b8fc359" target="_top" xlink:title="TooNetworking_send\l_signed">
<polygon fill="#ffffff" stroke="#000000" points="496,-130.5 496,-160.5 605,-160.5 605,-130.5 496,-130.5"/>
<text text-anchor="start" x="504" y="-148.5" font-family="Helvetica,sans-Serif" font-size="10.00" fill="#000000">TooNetworking_send</text>
<text text-anchor="middle" x="550.5" y="-137.5" font-family="Helvetica,sans-Serif" font-size="10.00" fill="#000000">_signed</text>
</a>
</g>
</g>
<!-- Node44&#45;&gt;Node46 -->
<g id="edge6" class="edge">
<title>Node44&#45;&gt;Node46</title>
<path fill="none" stroke="#191970" d="M235.6377,-104.8669C252.9232,-117.8681 276.8968,-133.3122 301,-140.5 365.768,-159.8143 444.2488,-157.446 495.6791,-152.6486"/>
<polygon fill="#191970" stroke="#191970" points="237.7659,-102.0882 227.7181,-98.7277 233.4772,-107.6206 237.7659,-102.0882"/>
</g>
<!-- Node47 -->
<g id="node5" class="node">
<title>Node47</title>
<g id="a_node5"><a xlink:href="TooNetworking_8h.html#a085ff748b00f6be4ebafcae2bb0dded1" target="_top" xlink:title="TooNetworking_bufferlist\l_send_signed">
<polygon fill="#ffffff" stroke="#000000" points="488,-68.5 488,-98.5 613,-98.5 613,-68.5 488,-68.5"/>
<text text-anchor="start" x="496" y="-86.5" font-family="Helvetica,sans-Serif" font-size="10.00" fill="#000000">TooNetworking_bufferlist</text>
<text text-anchor="middle" x="550.5" y="-75.5" font-family="Helvetica,sans-Serif" font-size="10.00" fill="#000000">_send_signed</text>
</a>
</g>
</g>
<!-- Node44&#45;&gt;Node47 -->
<g id="edge7" class="edge">
<title>Node44&#45;&gt;Node47</title>
<path fill="none" stroke="#191970" d="M275.0236,-83.5C336.2617,-83.5 427.381,-83.5 487.8364,-83.5"/>
<polygon fill="#191970" stroke="#191970" points="274.7072,-80.0001 264.7072,-83.5 274.7072,-87.0001 274.7072,-80.0001"/>
</g>
<!-- Node49 -->
<g id="node7" class="node">
<title>Node49</title>
<g id="a_node7"><a xlink:href="TooNetworking_8h.html#ab58e06e0eb6f2f8ecbebeaf3c173fb22" target="_top" xlink:title="TooNetworking_bufferlist\l_send_all">
<polygon fill="#ffffff" stroke="#000000" points="311.5,-24.5 311.5,-54.5 436.5,-54.5 436.5,-24.5 311.5,-24.5"/>
<text text-anchor="start" x="319.5" y="-42.5" font-family="Helvetica,sans-Serif" font-size="10.00" fill="#000000">TooNetworking_bufferlist</text>
<text text-anchor="middle" x="374" y="-31.5" font-family="Helvetica,sans-Serif" font-size="10.00" fill="#000000">_send_all</text>
</a>
</g>
</g>
<!-- Node44&#45;&gt;Node49 -->
<g id="edge8" class="edge">
<title>Node44&#45;&gt;Node49</title>
<path fill="none" stroke="#191970" d="M274.4209,-66.2164C288.8008,-62.3583 303.9375,-58.2973 317.9476,-54.5385"/>
<polygon fill="#191970" stroke="#191970" points="273.3611,-62.8768 264.6096,-68.8486 275.175,-69.6377 273.3611,-62.8768"/>
</g>
<!-- Node45&#45;&gt;Node46 -->
<g id="edge3" class="edge">
<title>Node45&#45;&gt;Node46</title>
<path fill="none" stroke="#191970" d="M454.1957,-132.4048C468.2782,-134.3197 482.6365,-136.2721 495.8202,-138.0648"/>
<polygon fill="#191970" stroke="#191970" points="454.3914,-128.8993 444.011,-131.0199 453.4482,-135.8354 454.3914,-128.8993"/>
</g>
<!-- Node45&#45;&gt;Node47 -->
<g id="edge4" class="edge">
<title>Node45&#45;&gt;Node47</title>
<path fill="none" stroke="#191970" d="M428.4371,-109.7798C447.2773,-105.7236 468.5399,-101.1458 487.9777,-96.9609"/>
<polygon fill="#191970" stroke="#191970" points="427.5777,-106.3846 418.5384,-111.911 429.0511,-113.2278 427.5777,-106.3846"/>
</g>
<!-- Node48 -->
<g id="node6" class="node">
<title>Node48</title>
<g id="a_node6"><a xlink:href="NODE__SKETCH__TooAutomation__Node_8ino_8cpp.html#a0b33edabd7f1c4e4a0bf32c67269be2f" target="_top" xlink:title="loop">
<polygon fill="#ffffff" stroke="#000000" points="654,-30 654,-49 689,-49 689,-30 654,-30"/>
<text text-anchor="middle" x="671.5" y="-37" font-family="Helvetica,sans-Serif" font-size="10.00" fill="#000000">loop</text>
</a>
</g>
</g>
<!-- Node47&#45;&gt;Node48 -->
<g id="edge5" class="edge">
<title>Node47&#45;&gt;Node48</title>
<path fill="none" stroke="#191970" d="M601.447,-64.9738C620.183,-58.1607 640.1731,-50.8916 653.9833,-45.8697"/>
<polygon fill="#191970" stroke="#191970" points="600.0047,-61.774 591.8029,-68.4808 602.397,-68.3525 600.0047,-61.774"/>
</g>
<!-- Node51 -->
<g id="node9" class="node">
<title>Node51</title>
<g id="a_node9"><a xlink:href="TooNetworking_8h.html#a7382ba1aed5405c3adc02011ea6c45dd" target="_top" xlink:title="TooNetworking_connection\l_maintenance">
<polygon fill="#ffffff" stroke="#000000" points="483,-.5 483,-30.5 618,-30.5 618,-.5 483,-.5"/>
<text text-anchor="start" x="491" y="-18.5" font-family="Helvetica,sans-Serif" font-size="10.00" fill="#000000">TooNetworking_connection</text>
<text text-anchor="middle" x="550.5" y="-7.5" font-family="Helvetica,sans-Serif" font-size="10.00" fill="#000000">_maintenance</text>
</a>
</g>
</g>
<!-- Node50&#45;&gt;Node51 -->
<g id="edge10" class="edge">
<title>Node50&#45;&gt;Node51</title>
<path fill="none" stroke="#191970" d="M275.3794,-14.6952C283.996,-14.6144 292.7103,-14.5455 301,-14.5 365.8879,-14.1435 382.1119,-14.1865 447,-14.5 458.5902,-14.556 470.9103,-14.6472 482.8567,-14.7524"/>
<polygon fill="#191970" stroke="#191970" points="275.3052,-11.1956 265.3404,-14.7947 275.3747,-18.1953 275.3052,-11.1956"/>
</g>
<!-- Node51&#45;&gt;Node48 -->
<g id="edge11" class="edge">
<title>Node51&#45;&gt;Node48</title>
<path fill="none" stroke="#191970" d="M628.1566,-30.903C637.6588,-32.7877 646.5454,-34.5503 653.7679,-35.9829"/>
<polygon fill="#191970" stroke="#191970" points="628.5653,-27.4159 618.0754,-28.9034 627.2034,-34.2822 628.5653,-27.4159"/>
</g>
</g>
</svg>
        <g id="navigator" transform="translate(0 0)" fill="#404254">
                <rect fill="#f2f5e9" fill-opacity="0.5" stroke="#606060" stroke-width=".5" x="0" y="0" width="60" height="60"/>
                <use id="zoomplus" xlink:href="#zoomPlus" x="17" y="9" onmousedown="handleZoom(evt,'in')"/>
                <use id="zoomminus" xlink:href="#zoomMin" x="42" y="9" onmousedown="handleZoom(evt,'out')"/>
                <use id="reset" xlink:href="#resetDef" x="30" y="36" onmousedown="handleReset()"/>
                <g id="arrowUp" xlink:href="#dirArrow" transform="translate(30 24)" onmousedown="handlePan(0,-1)">
                  <use xlink:href="#rim" fill="#404040">
                        <set attributeName="fill" to="#808080" begin="arrowUp.mouseover" end="arrowUp.mouseout"/>
                  </use>
                  <path fill="none" stroke="white" stroke-width="1.5" d="M0,-3.0v7 M-2.5,-0.5L0,-3.0L2.5,-0.5"/>
                </g>
                <g id="arrowRight" xlink:href="#dirArrow" transform="rotate(90) translate(36 -43)" onmousedown="handlePan(1,0)">
                  <use xlink:href="#rim" fill="#404040">
                        <set attributeName="fill" to="#808080" begin="arrowRight.mouseover" end="arrowRight.mouseout"/>
                  </use>
                  <path fill="none" stroke="white" stroke-width="1.5" d="M0,-3.0v7 M-2.5,-0.5L0,-3.0L2.5,-0.5"/>
                </g>
                <g id="arrowDown" xlink:href="#dirArrow" transform="rotate(180) translate(-30 -48)" onmousedown="handlePan(0,1)">
                  <use xlink:href="#rim" fill="#404040">
                        <set attributeName="fill" to="#808080" begin="arrowDown.mouseover" end="arrowDown.mouseout"/>
                  </use>
                  <path fill="none" stroke="white" stroke-width="1.5" d="M0,-3.0v7 M-2.5,-0.5L0,-3.0L2.5,-0.5"/>
                </g>
                <g id="arrowLeft" xlink:href="#dirArrow" transform="rotate(270) translate(-36 17)" onmousedown="handlePan(-1,0)">
                  <use xlink:href="#rim" fill="#404040">
                        <set attributeName="fill" to="#808080" begin="arrowLeft.mouseover" end="arrowLeft.mouseout"/>
                  </use>
                  <path fill="none" stroke="white" stroke-width="1.5" d="M0,-3.0v7 M-2.5,-0.5L0,-3.0L2.5,-0.5"/>
                </g>
        </g>
        <svg viewBox="0 0 15 15" width="100%" height="30px" preserveAspectRatio="xMaxYMin meet">
         <g id="arrow_out" transform="scale(0.3 0.3)">
          <a xlink:href="TooSigning_8h_a3994a32f8b2275d51b6832644f703bc7_icgraph_org.svg" target="_base">
           <rect id="button" ry="5" rx="5" y="6" x="6" height="38" width="38"
                fill="#f2f5e9" fill-opacity="0.5" stroke="#606060" stroke-width="1.0"/>
           <path id="arrow"
             d="M 11.500037,31.436501 C 11.940474,20.09759 22.043105,11.32322 32.158766,21.979434 L 37.068811,17.246167 C 37.068811,17.246167 37.088388,32 37.088388,32 L 22.160133,31.978069 C 22.160133,31.978069 26.997745,27.140456 26.997745,27.140456 C 18.528582,18.264221 13.291696,25.230495 11.500037,31.436501 z"
             style="fill:#404040;"/>
          </a>
         </g>
        </svg>
</svg>
