<?xml version="1.0" encoding="UTF-8" standalone="no"?>
<!DOCTYPE svg PUBLIC "-//W3C//DTD SVG 1.1//EN"
 "http://www.w3.org/Graphics/SVG/1.1/DTD/svg11.dtd">
<!-- Generated by graphviz version 2.40.1 (20161225.0304)
 -->
<!-- Title: TooSigning_requested_noncelist_delete Pages: 1 -->
<svg width="859pt" height="88pt"
 viewBox="0.00 0.00 859.00 88.00" xmlns="http://www.w3.org/2000/svg" xmlns:xlink="http://www.w3.org/1999/xlink">
<g id="graph0" class="graph" transform="scale(1 1) rotate(0) translate(4 84)">
<title>TooSigning_requested_noncelist_delete</title>
<polygon fill="#ffffff" stroke="transparent" points="-4,4 -4,-84 855,-84 855,4 -4,4"/>
<!-- Node72 -->
<g id="node1" class="node">
<title>Node72</title>
<polygon fill="#bfbfbf" stroke="#000000" points="0,-24.5 0,-54.5 113,-54.5 113,-24.5 0,-24.5"/>
<text text-anchor="start" x="8" y="-42.5" font-family="Helvetica,sans-Serif" font-size="10.00" fill="#000000">TooSigning_requested</text>
<text text-anchor="middle" x="56.5" y="-31.5" font-family="Helvetica,sans-Serif" font-size="10.00" fill="#000000">_noncelist_delete</text>
</g>
<!-- Node73 -->
<g id="node2" class="node">
<title>Node73</title>
<g id="a_node2"><a xlink:href="TooSigning_8h.html#a451535471c647e6bb93141cc8e321432" target="_top" xlink:title="TooSigning_requested\l_noncelist_received">
<polygon fill="#ffffff" stroke="#000000" points="149,-47.5 149,-77.5 262,-77.5 262,-47.5 149,-47.5"/>
<text text-anchor="start" x="157" y="-65.5" font-family="Helvetica,sans-Serif" font-size="10.00" fill="#000000">TooSigning_requested</text>
<text text-anchor="middle" x="205.5" y="-54.5" font-family="Helvetica,sans-Serif" font-size="10.00" fill="#000000">_noncelist_received</text>
</a>
</g>
</g>
<!-- Node72&#45;&gt;Node73 -->
<g id="edge1" class="edge">
<title>Node72&#45;&gt;Node73</title>
<path fill="none" stroke="#191970" d="M123.228,-49.8003C131.8009,-51.1236 140.5125,-52.4684 148.9022,-53.7634"/>
<polygon fill="#191970" stroke="#191970" points="123.6725,-46.3275 113.2556,-48.2609 122.6045,-53.2456 123.6725,-46.3275"/>
</g>
<!-- Node78 -->
<g id="node7" class="node">
<title>Node78</title>
<g id="a_node7"><a xlink:href="TooSigning_8h.html#a7ab732da67ef652d584d420c34d3d5b5" target="_top" xlink:title="TooSigning_requested\l_noncelist_remove_timeout">
<polygon fill="#ffffff" stroke="#000000" points="298,-.5 298,-30.5 434,-30.5 434,-.5 298,-.5"/>
<text text-anchor="start" x="306" y="-18.5" font-family="Helvetica,sans-Serif" font-size="10.00" fill="#000000">TooSigning_requested</text>
<text text-anchor="middle" x="366" y="-7.5" font-family="Helvetica,sans-Serif" font-size="10.00" fill="#000000">_noncelist_remove_timeout</text>
</a>
</g>
</g>
<!-- Node72&#45;&gt;Node78 -->
<g id="edge6" class="edge">
<title>Node72&#45;&gt;Node78</title>
<path fill="none" stroke="#191970" d="M123.3177,-34.3187C174.9303,-30.3164 246.075,-24.7995 297.9862,-20.7741"/>
<polygon fill="#191970" stroke="#191970" points="122.9665,-30.8353 113.2671,-35.098 123.5078,-37.8143 122.9665,-30.8353"/>
</g>
<!-- Node74 -->
<g id="node3" class="node">
<title>Node74</title>
<g id="a_node3"><a xlink:href="TooSigning_8h.html#a03dcb29c3bb1c45c6583cd6a5d731523" target="_top" xlink:title="TooSigning_received\l_noncelist_add">
<polygon fill="#ffffff" stroke="#000000" points="312.5,-49.5 312.5,-79.5 419.5,-79.5 419.5,-49.5 312.5,-49.5"/>
<text text-anchor="start" x="320.5" y="-67.5" font-family="Helvetica,sans-Serif" font-size="10.00" fill="#000000">TooSigning_received</text>
<text text-anchor="middle" x="366" y="-56.5" font-family="Helvetica,sans-Serif" font-size="10.00" fill="#000000">_noncelist_add</text>
</a>
</g>
</g>
<!-- Node73&#45;&gt;Node74 -->
<g id="edge2" class="edge">
<title>Node73&#45;&gt;Node74</title>
<path fill="none" stroke="#191970" d="M272.193,-63.3311C285.575,-63.4978 299.4749,-63.671 312.3458,-63.8314"/>
<polygon fill="#191970" stroke="#191970" points="272.1292,-59.8301 262.0863,-63.2051 272.0419,-66.8296 272.1292,-59.8301"/>
</g>
<!-- Node75 -->
<g id="node4" class="node">
<title>Node75</title>
<g id="a_node4"><a xlink:href="TooSigning_8cpp.html#a03df9fd005c518d1114f912ae7da9f06" target="_top" xlink:title="TooSigning_unsigned\l_network_available">
<polygon fill="#ffffff" stroke="#000000" points="484.5,-49.5 484.5,-79.5 594.5,-79.5 594.5,-49.5 484.5,-49.5"/>
<text text-anchor="start" x="492.5" y="-67.5" font-family="Helvetica,sans-Serif" font-size="10.00" fill="#000000">TooSigning_unsigned</text>
<text text-anchor="middle" x="539.5" y="-56.5" font-family="Helvetica,sans-Serif" font-size="10.00" fill="#000000">_network_available</text>
</a>
</g>
</g>
<!-- Node74&#45;&gt;Node75 -->
<g id="edge3" class="edge">
<title>Node74&#45;&gt;Node75</title>
<path fill="none" stroke="#191970" d="M430.2377,-64.5C448.0267,-64.5 467.1726,-64.5 484.3912,-64.5"/>
<polygon fill="#191970" stroke="#191970" points="429.9455,-61.0001 419.9454,-64.5 429.9454,-68.0001 429.9455,-61.0001"/>
</g>
<!-- Node76 -->
<g id="node5" class="node">
<title>Node76</title>
<g id="a_node5"><a xlink:href="TooNetworking_8h.html#a7382ba1aed5405c3adc02011ea6c45dd" target="_top" xlink:title="TooNetworking_connection\l_maintenance">
<polygon fill="#ffffff" stroke="#000000" points="645,-24.5 645,-54.5 780,-54.5 780,-24.5 645,-24.5"/>
<text text-anchor="start" x="653" y="-42.5" font-family="Helvetica,sans-Serif" font-size="10.00" fill="#000000">TooNetworking_connection</text>
<text text-anchor="middle" x="712.5" y="-31.5" font-family="Helvetica,sans-Serif" font-size="10.00" fill="#000000">_maintenance</text>
</a>
</g>
</g>
<!-- Node75&#45;&gt;Node76 -->
<g id="edge4" class="edge">
<title>Node75&#45;&gt;Node76</title>
<path fill="none" stroke="#191970" d="M604.9824,-55.0372C617.9975,-53.1564 631.6882,-51.178 644.7764,-49.2866"/>
<polygon fill="#191970" stroke="#191970" points="604.1105,-51.6268 594.7139,-56.5211 605.1117,-58.5548 604.1105,-51.6268"/>
</g>
<!-- Node77 -->
<g id="node6" class="node">
<title>Node77</title>
<g id="a_node6"><a xlink:href="NODE__SKETCH__TooAutomation__Node_8ino_8cpp.html#a0b33edabd7f1c4e4a0bf32c67269be2f" target="_top" xlink:title="loop">
<polygon fill="#ffffff" stroke="#000000" points="816,-30 816,-49 851,-49 851,-30 816,-30"/>
<text text-anchor="middle" x="833.5" y="-37" font-family="Helvetica,sans-Serif" font-size="10.00" fill="#000000">loop</text>
</a>
</g>
</g>
<!-- Node76&#45;&gt;Node77 -->
<g id="edge5" class="edge">
<title>Node76&#45;&gt;Node77</title>
<path fill="none" stroke="#191970" d="M790.1566,-39.5C799.6588,-39.5 808.5454,-39.5 815.7679,-39.5"/>
<polygon fill="#191970" stroke="#191970" points="790.0755,-36.0001 780.0754,-39.5 790.0754,-43.0001 790.0755,-36.0001"/>
</g>
<!-- Node79 -->
<g id="node8" class="node">
<title>Node79</title>
<g id="a_node8"><a xlink:href="TooSigning_8h.html#af68b8dda897cf488129c205ad532ca9e" target="_top" xlink:title="TooSigning_signed_network\l_update">
<polygon fill="#ffffff" stroke="#000000" points="470,-.5 470,-30.5 609,-30.5 609,-.5 470,-.5"/>
<text text-anchor="start" x="478" y="-18.5" font-family="Helvetica,sans-Serif" font-size="10.00" fill="#000000">TooSigning_signed_network</text>
<text text-anchor="middle" x="539.5" y="-7.5" font-family="Helvetica,sans-Serif" font-size="10.00" fill="#000000">_update</text>
</a>
</g>
</g>
<!-- Node78&#45;&gt;Node79 -->
<g id="edge7" class="edge">
<title>Node78&#45;&gt;Node79</title>
<path fill="none" stroke="#191970" d="M444.1002,-15.5C452.7036,-15.5 461.4215,-15.5 469.9111,-15.5"/>
<polygon fill="#191970" stroke="#191970" points="444.0739,-12.0001 434.0738,-15.5 444.0738,-19.0001 444.0739,-12.0001"/>
</g>
<!-- Node79&#45;&gt;Node76 -->
<g id="edge8" class="edge">
<title>Node79&#45;&gt;Node76</title>
<path fill="none" stroke="#191970" d="M619.338,-26.5758C627.883,-27.7612 636.5152,-28.9588 644.8985,-30.1218"/>
<polygon fill="#191970" stroke="#191970" points="619.7532,-23.0999 609.3671,-25.1925 618.7912,-30.0335 619.7532,-23.0999"/>
</g>
</g>
</svg>
