<?xml version="1.0" encoding="UTF-8" standalone="no"?>
<!DOCTYPE svg PUBLIC "-//W3C//DTD SVG 1.1//EN"
 "http://www.w3.org/Graphics/SVG/1.1/DTD/svg11.dtd">
<!-- Generated by graphviz version 2.40.1 (20161225.0304)
 -->
<!-- Title: TooSigning_request_nonce_from_node_id Pages: 1 -->
<svg width="783pt" height="167pt"
 viewBox="0.00 0.00 783.00 167.00" xmlns="http://www.w3.org/2000/svg" xmlns:xlink="http://www.w3.org/1999/xlink">
<g id="graph0" class="graph" transform="scale(1 1) rotate(0) translate(4 163)">
<title>TooSigning_request_nonce_from_node_id</title>
<polygon fill="#ffffff" stroke="transparent" points="-4,4 -4,-163 779,-163 779,4 -4,4"/>
<!-- Node53 -->
<g id="node1" class="node">
<title>Node53</title>
<polygon fill="#bfbfbf" stroke="#000000" points="0,-40.5 0,-70.5 112,-70.5 112,-40.5 0,-40.5"/>
<text text-anchor="start" x="8" y="-58.5" font-family="Helvetica,sans-Serif" font-size="10.00" fill="#000000">TooSigning_request</text>
<text text-anchor="middle" x="56" y="-47.5" font-family="Helvetica,sans-Serif" font-size="10.00" fill="#000000">_nonce_from_node_id</text>
</g>
<!-- Node54 -->
<g id="node2" class="node">
<title>Node54</title>
<g id="a_node2"><a xlink:href="TooSigning_8h.html#a53b55547df3d4276f3ca6a74d601549a" target="_top" xlink:title="TooSigning_requested\l_noncelist_add">
<polygon fill="#ffffff" stroke="#000000" points="148,-73.5 148,-103.5 261,-103.5 261,-73.5 148,-73.5"/>
<text text-anchor="start" x="156" y="-91.5" font-family="Helvetica,sans-Serif" font-size="10.00" fill="#000000">TooSigning_requested</text>
<text text-anchor="middle" x="204.5" y="-80.5" font-family="Helvetica,sans-Serif" font-size="10.00" fill="#000000">_noncelist_add</text>
</a>
</g>
</g>
<!-- Node53&#45;&gt;Node54 -->
<g id="edge1" class="edge">
<title>Node53&#45;&gt;Node54</title>
<path fill="none" stroke="#191970" d="M122.105,-70.19C130.6735,-72.0941 139.3883,-74.0307 147.7858,-75.8969"/>
<polygon fill="#191970" stroke="#191970" points="122.6626,-66.7286 112.1415,-67.9759 121.1441,-73.5619 122.6626,-66.7286"/>
</g>
<!-- Node59 -->
<g id="node7" class="node">
<title>Node59</title>
<g id="a_node7"><a xlink:href="TooSigning_8h.html#af7ec4002cf8cf81195f3745703e04b22" target="_top" xlink:title="TooSigning_requested\l_noncelist_retry_all">
<polygon fill="#ffffff" stroke="#000000" points="148,-16.5 148,-46.5 261,-46.5 261,-16.5 148,-16.5"/>
<text text-anchor="start" x="156" y="-34.5" font-family="Helvetica,sans-Serif" font-size="10.00" fill="#000000">TooSigning_requested</text>
<text text-anchor="middle" x="204.5" y="-23.5" font-family="Helvetica,sans-Serif" font-size="10.00" fill="#000000">_noncelist_retry_all</text>
</a>
</g>
</g>
<!-- Node53&#45;&gt;Node59 -->
<g id="edge9" class="edge">
<title>Node53&#45;&gt;Node59</title>
<path fill="none" stroke="#191970" d="M122.105,-44.8164C130.6735,-43.4316 139.3883,-42.0231 147.7858,-40.6659"/>
<polygon fill="#191970" stroke="#191970" points="121.4549,-41.3759 112.1415,-46.4266 122.5718,-48.2863 121.4549,-41.3759"/>
</g>
<!-- Node55 -->
<g id="node3" class="node">
<title>Node55</title>
<g id="a_node3"><a xlink:href="TooNetworking_8h.html#a59be7e774988f57ab43c4c078c570c67" target="_top" xlink:title="TooNetworking_bufferlist_add">
<polygon fill="#ffffff" stroke="#000000" points="297,-88 297,-107 443,-107 443,-88 297,-88"/>
<text text-anchor="middle" x="370" y="-95" font-family="Helvetica,sans-Serif" font-size="10.00" fill="#000000">TooNetworking_bufferlist_add</text>
</a>
</g>
</g>
<!-- Node54&#45;&gt;Node55 -->
<g id="edge2" class="edge">
<title>Node54&#45;&gt;Node55</title>
<path fill="none" stroke="#191970" d="M271.5061,-92.1438C279.8556,-92.5979 288.4271,-93.064 296.8635,-93.5228"/>
<polygon fill="#191970" stroke="#191970" points="271.631,-88.6456 261.4557,-91.5973 271.2509,-95.6352 271.631,-88.6456"/>
</g>
<!-- Node56 -->
<g id="node4" class="node">
<title>Node56</title>
<g id="a_node4"><a xlink:href="TooNetworking_8h.html#a9209f3e1a2fdf0b3b88d49105b8fc359" target="_top" xlink:title="TooNetworking_send\l_signed">
<polygon fill="#ffffff" stroke="#000000" points="492,-126.5 492,-156.5 601,-156.5 601,-126.5 492,-126.5"/>
<text text-anchor="start" x="500" y="-144.5" font-family="Helvetica,sans-Serif" font-size="10.00" fill="#000000">TooNetworking_send</text>
<text text-anchor="middle" x="546.5" y="-133.5" font-family="Helvetica,sans-Serif" font-size="10.00" fill="#000000">_signed</text>
</a>
</g>
</g>
<!-- Node54&#45;&gt;Node56 -->
<g id="edge7" class="edge">
<title>Node54&#45;&gt;Node56</title>
<path fill="none" stroke="#191970" d="M257.4215,-106.4434C270.2542,-110.2579 284.019,-113.9105 297,-116.5 363.1722,-129.7004 440.6788,-136.0807 491.5363,-139.0605"/>
<polygon fill="#191970" stroke="#191970" points="258.4046,-103.0841 247.8183,-103.5097 256.3594,-109.7787 258.4046,-103.0841"/>
</g>
<!-- Node57 -->
<g id="node5" class="node">
<title>Node57</title>
<g id="a_node5"><a xlink:href="TooNetworking_8h.html#a085ff748b00f6be4ebafcae2bb0dded1" target="_top" xlink:title="TooNetworking_bufferlist\l_send_signed">
<polygon fill="#ffffff" stroke="#000000" points="650,-79.5 650,-109.5 775,-109.5 775,-79.5 650,-79.5"/>
<text text-anchor="start" x="658" y="-97.5" font-family="Helvetica,sans-Serif" font-size="10.00" fill="#000000">TooNetworking_bufferlist</text>
<text text-anchor="middle" x="712.5" y="-86.5" font-family="Helvetica,sans-Serif" font-size="10.00" fill="#000000">_send_signed</text>
</a>
</g>
</g>
<!-- Node54&#45;&gt;Node57 -->
<g id="edge8" class="edge">
<title>Node54&#45;&gt;Node57</title>
<path fill="none" stroke="#191970" d="M271.2485,-80.4198C279.901,-79.6265 288.6531,-78.9499 297,-78.5 422.0662,-71.7593 568.4581,-81.5046 649.8236,-88.4858"/>
<polygon fill="#191970" stroke="#191970" points="270.7823,-76.9485 261.1672,-81.3981 271.4585,-83.9158 270.7823,-76.9485"/>
</g>
<!-- Node55&#45;&gt;Node56 -->
<g id="edge3" class="edge">
<title>Node55&#45;&gt;Node56</title>
<path fill="none" stroke="#191970" d="M418.0998,-109.4909C440.913,-115.178 468.2754,-121.9993 491.8687,-127.8809"/>
<polygon fill="#191970" stroke="#191970" points="418.8476,-106.0702 408.2979,-107.0473 417.1543,-112.8624 418.8476,-106.0702"/>
</g>
<!-- Node55&#45;&gt;Node57 -->
<g id="edge6" class="edge">
<title>Node55&#45;&gt;Node57</title>
<path fill="none" stroke="#191970" d="M453.3634,-96.7698C513.9779,-96.2389 594.7439,-95.5314 649.8973,-95.0483"/>
<polygon fill="#191970" stroke="#191970" points="453.0237,-93.2726 443.0547,-96.8601 453.0851,-100.2723 453.0237,-93.2726"/>
</g>
<!-- Node56&#45;&gt;Node57 -->
<g id="edge4" class="edge">
<title>Node56&#45;&gt;Node57</title>
<path fill="none" stroke="#191970" d="M609.5564,-123.6467C626.0109,-118.9879 643.577,-114.0144 659.4541,-109.519"/>
<polygon fill="#191970" stroke="#191970" points="608.1481,-120.4078 599.4798,-126.4997 610.0551,-127.143 608.1481,-120.4078"/>
</g>
<!-- Node58 -->
<g id="node6" class="node">
<title>Node58</title>
<g id="a_node6"><a xlink:href="TooNetworking_8h.html#ab58e06e0eb6f2f8ecbebeaf3c173fb22" target="_top" xlink:title="TooNetworking_bufferlist\l_send_all">
<polygon fill="#ffffff" stroke="#000000" points="650,-128.5 650,-158.5 775,-158.5 775,-128.5 650,-128.5"/>
<text text-anchor="start" x="658" y="-146.5" font-family="Helvetica,sans-Serif" font-size="10.00" fill="#000000">TooNetworking_bufferlist</text>
<text text-anchor="middle" x="712.5" y="-135.5" font-family="Helvetica,sans-Serif" font-size="10.00" fill="#000000">_send_all</text>
</a>
</g>
</g>
<!-- Node56&#45;&gt;Node58 -->
<g id="edge5" class="edge">
<title>Node56&#45;&gt;Node58</title>
<path fill="none" stroke="#191970" d="M611.3518,-142.2813C624.0569,-142.4344 637.3586,-142.5947 649.9855,-142.7468"/>
<polygon fill="#191970" stroke="#191970" points="611.3561,-138.7812 601.3147,-142.1604 611.2717,-145.7807 611.3561,-138.7812"/>
</g>
<!-- Node60 -->
<g id="node8" class="node">
<title>Node60</title>
<g id="a_node8"><a xlink:href="TooSigning_8h.html#af68b8dda897cf488129c205ad532ca9e" target="_top" xlink:title="TooSigning_signed_network\l_update">
<polygon fill="#ffffff" stroke="#000000" points="300.5,-.5 300.5,-30.5 439.5,-30.5 439.5,-.5 300.5,-.5"/>
<text text-anchor="start" x="308.5" y="-18.5" font-family="Helvetica,sans-Serif" font-size="10.00" fill="#000000">TooSigning_signed_network</text>
<text text-anchor="middle" x="370" y="-7.5" font-family="Helvetica,sans-Serif" font-size="10.00" fill="#000000">_update</text>
</a>
</g>
</g>
<!-- Node59&#45;&gt;Node60 -->
<g id="edge10" class="edge">
<title>Node59&#45;&gt;Node60</title>
<path fill="none" stroke="#191970" d="M271.6009,-25.0129C281.0759,-24.0969 290.8349,-23.1534 300.3564,-22.2329"/>
<polygon fill="#191970" stroke="#191970" points="271.0725,-21.5476 261.4557,-25.9937 271.7461,-28.5151 271.0725,-21.5476"/>
</g>
<!-- Node61 -->
<g id="node9" class="node">
<title>Node61</title>
<g id="a_node9"><a xlink:href="TooNetworking_8h.html#a7382ba1aed5405c3adc02011ea6c45dd" target="_top" xlink:title="TooNetworking_connection\l_maintenance">
<polygon fill="#ffffff" stroke="#000000" points="479,-.5 479,-30.5 614,-30.5 614,-.5 479,-.5"/>
<text text-anchor="start" x="487" y="-18.5" font-family="Helvetica,sans-Serif" font-size="10.00" fill="#000000">TooNetworking_connection</text>
<text text-anchor="middle" x="546.5" y="-7.5" font-family="Helvetica,sans-Serif" font-size="10.00" fill="#000000">_maintenance</text>
</a>
</g>
</g>
<!-- Node60&#45;&gt;Node61 -->
<g id="edge11" class="edge">
<title>Node60&#45;&gt;Node61</title>
<path fill="none" stroke="#191970" d="M449.594,-15.5C459.3451,-15.5 469.2385,-15.5 478.7919,-15.5"/>
<polygon fill="#191970" stroke="#191970" points="449.5041,-12.0001 439.5041,-15.5 449.5041,-19.0001 449.5041,-12.0001"/>
</g>
</g>
</svg>
