<?xml version="1.0" encoding="UTF-8" standalone="no"?>
<!DOCTYPE svg PUBLIC "-//W3C//DTD SVG 1.1//EN"
 "http://www.w3.org/Graphics/SVG/1.1/DTD/svg11.dtd">
<!-- Generated by graphviz version 2.40.1 (20161225.0304)
 -->
<!-- Title: TooSigning_requested_noncelist_find_for_nodeID Pages: 1 -->
<svg width="706pt" height="95pt"
 viewBox="0.00 0.00 706.00 95.00" xmlns="http://www.w3.org/2000/svg" xmlns:xlink="http://www.w3.org/1999/xlink">
<g id="graph0" class="graph" transform="scale(1 1) rotate(0) translate(4 91)">
<title>TooSigning_requested_noncelist_find_for_nodeID</title>
<polygon fill="#ffffff" stroke="transparent" points="-4,4 -4,-91 702,-91 702,4 -4,4"/>
<!-- Node109 -->
<g id="node1" class="node">
<title>Node109</title>
<polygon fill="#bfbfbf" stroke="#000000" points="0,-25.5 0,-55.5 135,-55.5 135,-25.5 0,-25.5"/>
<text text-anchor="start" x="8" y="-43.5" font-family="Helvetica,sans-Serif" font-size="10.00" fill="#000000">TooSigning_requested</text>
<text text-anchor="middle" x="67.5" y="-32.5" font-family="Helvetica,sans-Serif" font-size="10.00" fill="#000000">_noncelist_find_for_nodeID</text>
</g>
<!-- Node110 -->
<g id="node2" class="node">
<title>Node110</title>
<g id="a_node2"><a xlink:href="TooSigning_8h.html#a53b55547df3d4276f3ca6a74d601549a" target="_top" xlink:title="TooSigning_requested\l_noncelist_add">
<polygon fill="#ffffff" stroke="#000000" points="171,-25.5 171,-55.5 284,-55.5 284,-25.5 171,-25.5"/>
<text text-anchor="start" x="179" y="-43.5" font-family="Helvetica,sans-Serif" font-size="10.00" fill="#000000">TooSigning_requested</text>
<text text-anchor="middle" x="227.5" y="-32.5" font-family="Helvetica,sans-Serif" font-size="10.00" fill="#000000">_noncelist_add</text>
</a>
</g>
</g>
<!-- Node109&#45;&gt;Node110 -->
<g id="edge1" class="edge">
<title>Node109&#45;&gt;Node110</title>
<path fill="none" stroke="#191970" d="M145.6116,-40.5C154.0527,-40.5 162.5219,-40.5 170.643,-40.5"/>
<polygon fill="#191970" stroke="#191970" points="145.3544,-37.0001 135.3544,-40.5 145.3544,-44.0001 145.3544,-37.0001"/>
</g>
<!-- Node111 -->
<g id="node3" class="node">
<title>Node111</title>
<g id="a_node3"><a xlink:href="TooNetworking_8h.html#a59be7e774988f57ab43c4c078c570c67" target="_top" xlink:title="TooNetworking_bufferlist_add">
<polygon fill="#ffffff" stroke="#000000" points="320,-31 320,-50 466,-50 466,-31 320,-31"/>
<text text-anchor="middle" x="393" y="-38" font-family="Helvetica,sans-Serif" font-size="10.00" fill="#000000">TooNetworking_bufferlist_add</text>
</a>
</g>
</g>
<!-- Node110&#45;&gt;Node111 -->
<g id="edge2" class="edge">
<title>Node110&#45;&gt;Node111</title>
<path fill="none" stroke="#191970" d="M294.5061,-40.5C302.8556,-40.5 311.4271,-40.5 319.8635,-40.5"/>
<polygon fill="#191970" stroke="#191970" points="294.4557,-37.0001 284.4557,-40.5 294.4557,-44.0001 294.4557,-37.0001"/>
</g>
<!-- Node112 -->
<g id="node4" class="node">
<title>Node112</title>
<g id="a_node4"><a xlink:href="TooNetworking_8h.html#a9209f3e1a2fdf0b3b88d49105b8fc359" target="_top" xlink:title="TooNetworking_send\l_signed">
<polygon fill="#ffffff" stroke="#000000" points="510,-56.5 510,-86.5 619,-86.5 619,-56.5 510,-56.5"/>
<text text-anchor="start" x="518" y="-74.5" font-family="Helvetica,sans-Serif" font-size="10.00" fill="#000000">TooNetworking_send</text>
<text text-anchor="middle" x="564.5" y="-63.5" font-family="Helvetica,sans-Serif" font-size="10.00" fill="#000000">_signed</text>
</a>
</g>
</g>
<!-- Node110&#45;&gt;Node112 -->
<g id="edge6" class="edge">
<title>Node110&#45;&gt;Node112</title>
<path fill="none" stroke="#191970" d="M294.1145,-55.4516C302.7891,-57.0248 311.583,-58.4354 320,-59.5 384.9312,-67.7126 460.2211,-70.387 509.9097,-71.2143"/>
<polygon fill="#191970" stroke="#191970" points="294.4923,-51.961 284.0159,-53.5411 293.191,-58.839 294.4923,-51.961"/>
</g>
<!-- Node113 -->
<g id="node5" class="node">
<title>Node113</title>
<g id="a_node5"><a xlink:href="TooNetworking_8h.html#a085ff748b00f6be4ebafcae2bb0dded1" target="_top" xlink:title="TooNetworking_bufferlist\l_send_signed">
<polygon fill="#ffffff" stroke="#000000" points="502,-.5 502,-30.5 627,-30.5 627,-.5 502,-.5"/>
<text text-anchor="start" x="510" y="-18.5" font-family="Helvetica,sans-Serif" font-size="10.00" fill="#000000">TooNetworking_bufferlist</text>
<text text-anchor="middle" x="564.5" y="-7.5" font-family="Helvetica,sans-Serif" font-size="10.00" fill="#000000">_send_signed</text>
</a>
</g>
</g>
<!-- Node110&#45;&gt;Node113 -->
<g id="edge7" class="edge">
<title>Node110&#45;&gt;Node113</title>
<path fill="none" stroke="#191970" d="M294.4525,-25.2872C303.0137,-23.7731 311.6877,-22.448 320,-21.5 381.5933,-14.4752 452.4569,-13.5115 501.9833,-13.9803"/>
<polygon fill="#191970" stroke="#191970" points="293.6747,-21.8718 284.4826,-27.1402 294.9539,-28.7539 293.6747,-21.8718"/>
</g>
<!-- Node111&#45;&gt;Node112 -->
<g id="edge3" class="edge">
<title>Node111&#45;&gt;Node112</title>
<path fill="none" stroke="#191970" d="M456.0426,-51.8955C473.6577,-55.0795 492.6505,-58.5126 509.7445,-61.6025"/>
<polygon fill="#191970" stroke="#191970" points="456.3182,-48.3886 445.855,-50.054 455.073,-55.277 456.3182,-48.3886"/>
</g>
<!-- Node111&#45;&gt;Node113 -->
<g id="edge4" class="edge">
<title>Node111&#45;&gt;Node113</title>
<path fill="none" stroke="#191970" d="M468.4866,-29.4961C479.6464,-27.8693 491.0416,-26.2082 501.9012,-24.6252"/>
<polygon fill="#191970" stroke="#191970" points="467.7166,-26.0713 458.326,-30.9773 468.7263,-32.9981 467.7166,-26.0713"/>
</g>
<!-- Node114 -->
<g id="node6" class="node">
<title>Node114</title>
<g id="a_node6"><a xlink:href="NODE__SKETCH__TooAutomation__Node_8ino_8cpp.html#a0b33edabd7f1c4e4a0bf32c67269be2f" target="_top" xlink:title="loop">
<polygon fill="#ffffff" stroke="#000000" points="663,-6 663,-25 698,-25 698,-6 663,-6"/>
<text text-anchor="middle" x="680.5" y="-13" font-family="Helvetica,sans-Serif" font-size="10.00" fill="#000000">loop</text>
</a>
</g>
</g>
<!-- Node113&#45;&gt;Node114 -->
<g id="edge5" class="edge">
<title>Node113&#45;&gt;Node114</title>
<path fill="none" stroke="#191970" d="M637.5149,-15.5C646.8175,-15.5 655.5667,-15.5 662.7123,-15.5"/>
<polygon fill="#191970" stroke="#191970" points="637.2531,-12.0001 627.2531,-15.5 637.253,-19.0001 637.2531,-12.0001"/>
</g>
</g>
</svg>
