<?xml version="1.0" encoding="UTF-8" standalone="no"?>
<!DOCTYPE svg PUBLIC "-//W3C//DTD SVG 1.1//EN"
 "http://www.w3.org/Graphics/SVG/1.1/DTD/svg11.dtd">
<!-- Generated by graphviz version 2.40.1 (20161225.0304)
 -->
<!-- Title: TooSigning_signed_network_update Pages: 1 -->
<svg width="632pt" height="257pt"
 viewBox="0.00 0.00 632.00 257.00" xmlns="http://www.w3.org/2000/svg" xmlns:xlink="http://www.w3.org/1999/xlink">
<g id="graph0" class="graph" transform="scale(1 1) rotate(0) translate(4 253)">
<title>TooSigning_signed_network_update</title>
<polygon fill="#ffffff" stroke="transparent" points="-4,4 -4,-253 628,-253 628,4 -4,4"/>
<!-- Node122 -->
<g id="node1" class="node">
<title>Node122</title>
<polygon fill="#bfbfbf" stroke="#000000" points="0,-122.5 0,-152.5 139,-152.5 139,-122.5 0,-122.5"/>
<text text-anchor="start" x="8" y="-140.5" font-family="Helvetica,sans-Serif" font-size="10.00" fill="#000000">TooSigning_signed_network</text>
<text text-anchor="middle" x="69.5" y="-129.5" font-family="Helvetica,sans-Serif" font-size="10.00" fill="#000000">_update</text>
</g>
<!-- Node123 -->
<g id="node2" class="node">
<title>Node123</title>
<g id="a_node2"><a xlink:href="TooSigning_8cpp.html#a0b3ecca47a6a96a8ac839d0611e2cd2f" target="_top" xlink:title="TooSigning_received\l_noncelist_remove_timeout">
<polygon fill="#ffffff" stroke="#000000" points="175,-196.5 175,-226.5 311,-226.5 311,-196.5 175,-196.5"/>
<text text-anchor="start" x="183" y="-214.5" font-family="Helvetica,sans-Serif" font-size="10.00" fill="#000000">TooSigning_received</text>
<text text-anchor="middle" x="243" y="-203.5" font-family="Helvetica,sans-Serif" font-size="10.00" fill="#000000">_noncelist_remove_timeout</text>
</a>
</g>
</g>
<!-- Node122&#45;&gt;Node123 -->
<g id="edge1" class="edge">
<title>Node122&#45;&gt;Node123</title>
<path fill="none" stroke="#191970" d="M99.1443,-152.5579C120.0874,-162.9462 148.9519,-176.7643 175,-187.5 179.3984,-189.3128 183.9893,-191.1162 188.6187,-192.8731"/>
<polygon fill="#191970" stroke="#191970" points="187.5327,-196.2033 198.1257,-196.4022 189.9688,-189.6409 187.5327,-196.2033"/>
</g>
<!-- Node126 -->
<g id="node5" class="node">
<title>Node126</title>
<g id="a_node5"><a xlink:href="TooSigning_8cpp.html#af35f5bd9d983d7d0479bab96fdf0d9d5" target="_top" xlink:title="TooSigning_sent_noncelist\l_remove_timeout">
<polygon fill="#ffffff" stroke="#000000" points="176,-147.5 176,-177.5 310,-177.5 310,-147.5 176,-147.5"/>
<text text-anchor="start" x="184" y="-165.5" font-family="Helvetica,sans-Serif" font-size="10.00" fill="#000000">TooSigning_sent_noncelist</text>
<text text-anchor="middle" x="243" y="-154.5" font-family="Helvetica,sans-Serif" font-size="10.00" fill="#000000">_remove_timeout</text>
</a>
</g>
</g>
<!-- Node122&#45;&gt;Node126 -->
<g id="edge5" class="edge">
<title>Node122&#45;&gt;Node126</title>
<path fill="none" stroke="#191970" d="M139.0694,-147.5244C147.9055,-148.7976 156.9893,-150.1065 165.9341,-151.3954"/>
<polygon fill="#191970" stroke="#191970" points="165.5564,-154.877 175.9533,-152.8391 166.5548,-147.9486 165.5564,-154.877"/>
</g>
<!-- Node128 -->
<g id="node7" class="node">
<title>Node128</title>
<g id="a_node7"><a xlink:href="TooSigning_8cpp.html#a9c84911150e861c8b51d6d301b75cd8f" target="_top" xlink:title="TooSigning_requested\l_noncelist_remove_timeout">
<polygon fill="#ffffff" stroke="#000000" points="175,-98.5 175,-128.5 311,-128.5 311,-98.5 175,-98.5"/>
<text text-anchor="start" x="183" y="-116.5" font-family="Helvetica,sans-Serif" font-size="10.00" fill="#000000">TooSigning_requested</text>
<text text-anchor="middle" x="243" y="-105.5" font-family="Helvetica,sans-Serif" font-size="10.00" fill="#000000">_noncelist_remove_timeout</text>
</a>
</g>
</g>
<!-- Node122&#45;&gt;Node128 -->
<g id="edge7" class="edge">
<title>Node122&#45;&gt;Node128</title>
<path fill="none" stroke="#191970" d="M139.0694,-127.8766C147.5394,-126.7049 156.2371,-125.5018 164.8218,-124.3143"/>
<polygon fill="#191970" stroke="#191970" points="165.4009,-127.7676 174.827,-122.9303 164.4417,-120.8336 165.4009,-127.7676"/>
</g>
<!-- Node130 -->
<g id="node9" class="node">
<title>Node130</title>
<g id="a_node9"><a xlink:href="TooSigning_8cpp.html#a8890d5d49f39fc0a0e92f1f4910e543e" target="_top" xlink:title="TooSigning_requested\l_noncelist_retry_all">
<polygon fill="#ffffff" stroke="#000000" points="186.5,-49.5 186.5,-79.5 299.5,-79.5 299.5,-49.5 186.5,-49.5"/>
<text text-anchor="start" x="194.5" y="-67.5" font-family="Helvetica,sans-Serif" font-size="10.00" fill="#000000">TooSigning_requested</text>
<text text-anchor="middle" x="243" y="-56.5" font-family="Helvetica,sans-Serif" font-size="10.00" fill="#000000">_noncelist_retry_all</text>
</a>
</g>
</g>
<!-- Node122&#45;&gt;Node130 -->
<g id="edge9" class="edge">
<title>Node122&#45;&gt;Node130</title>
<path fill="none" stroke="#191970" d="M100.0874,-122.3495C120.9664,-112.2422 149.3793,-98.9433 175,-88.5 179.4742,-86.6762 184.1449,-84.8569 188.8511,-83.0821"/>
<polygon fill="#191970" stroke="#191970" points="190.3418,-86.2627 198.5095,-79.5145 187.9162,-79.6964 190.3418,-86.2627"/>
</g>
<!-- Node124 -->
<g id="node3" class="node">
<title>Node124</title>
<g id="a_node3"><a xlink:href="group__TOOSIGNING__DEBUGGING.html#gaba98f230fad779da673a83370ad7de5d" target="_top" xlink:title="TooSigning_received\l_noncelist_print">
<polygon fill="#ffffff" stroke="#000000" points="517,-218.5 517,-248.5 624,-248.5 624,-218.5 517,-218.5"/>
<text text-anchor="start" x="525" y="-236.5" font-family="Helvetica,sans-Serif" font-size="10.00" fill="#000000">TooSigning_received</text>
<text text-anchor="middle" x="570.5" y="-225.5" font-family="Helvetica,sans-Serif" font-size="10.00" fill="#000000">_noncelist_print</text>
</a>
</g>
</g>
<!-- Node123&#45;&gt;Node124 -->
<g id="edge2" class="edge">
<title>Node123&#45;&gt;Node124</title>
<path fill="none" stroke="#191970" d="M294.9382,-226.5274C311.4353,-230.6126 329.85,-234.4676 347,-236.5 406.1417,-243.5086 421.4528,-237.4977 481,-236.5 489.2679,-236.3615 497.9635,-236.151 506.5524,-235.9045"/>
<polygon fill="#191970" stroke="#191970" points="506.6647,-239.4028 516.5538,-235.6007 506.4521,-232.406 506.6647,-239.4028"/>
</g>
<!-- Node125 -->
<g id="node4" class="node">
<title>Node125</title>
<g id="a_node4"><a xlink:href="TooSigning_8cpp.html#a17c243416f235786f027aa263693e3d5" target="_top" xlink:title="TooSigning_received\l_noncelist_remove">
<polygon fill="#ffffff" stroke="#000000" points="360.5,-196.5 360.5,-226.5 467.5,-226.5 467.5,-196.5 360.5,-196.5"/>
<text text-anchor="start" x="368.5" y="-214.5" font-family="Helvetica,sans-Serif" font-size="10.00" fill="#000000">TooSigning_received</text>
<text text-anchor="middle" x="414" y="-203.5" font-family="Helvetica,sans-Serif" font-size="10.00" fill="#000000">_noncelist_remove</text>
</a>
</g>
</g>
<!-- Node123&#45;&gt;Node125 -->
<g id="edge3" class="edge">
<title>Node123&#45;&gt;Node125</title>
<path fill="none" stroke="#191970" d="M311.0751,-211.5C324.0095,-211.5 337.4996,-211.5 350.2923,-211.5"/>
<polygon fill="#191970" stroke="#191970" points="350.3784,-215.0001 360.3784,-211.5 350.3783,-208.0001 350.3784,-215.0001"/>
</g>
<!-- Node125&#45;&gt;Node124 -->
<g id="edge4" class="edge">
<title>Node125&#45;&gt;Node124</title>
<path fill="none" stroke="#191970" d="M467.8584,-219.0712C480.3467,-220.8267 493.756,-222.7117 506.6277,-224.5212"/>
<polygon fill="#191970" stroke="#191970" points="506.4176,-228.026 516.8075,-225.9522 507.3921,-221.0941 506.4176,-228.026"/>
</g>
<!-- Node127 -->
<g id="node6" class="node">
<title>Node127</title>
<g id="a_node6"><a xlink:href="TooSigning_8cpp.html#a765df7c3e6a3b2be82c0f905f52ea535" target="_top" xlink:title="TooSigning_sent_noncelist\l_remove">
<polygon fill="#ffffff" stroke="#000000" points="347,-147.5 347,-177.5 481,-177.5 481,-147.5 347,-147.5"/>
<text text-anchor="start" x="355" y="-165.5" font-family="Helvetica,sans-Serif" font-size="10.00" fill="#000000">TooSigning_sent_noncelist</text>
<text text-anchor="middle" x="414" y="-154.5" font-family="Helvetica,sans-Serif" font-size="10.00" fill="#000000">_remove</text>
</a>
</g>
</g>
<!-- Node126&#45;&gt;Node127 -->
<g id="edge6" class="edge">
<title>Node126&#45;&gt;Node127</title>
<path fill="none" stroke="#191970" d="M310.0929,-162.5C318.7684,-162.5 327.7093,-162.5 336.535,-162.5"/>
<polygon fill="#191970" stroke="#191970" points="336.8199,-166.0001 346.8199,-162.5 336.8198,-159.0001 336.8199,-166.0001"/>
</g>
<!-- Node129 -->
<g id="node8" class="node">
<title>Node129</title>
<g id="a_node8"><a xlink:href="TooSigning_8cpp.html#a2b55d98ebd75cdee560a9587339d8f35" target="_top" xlink:title="TooSigning_requested\l_noncelist_delete">
<polygon fill="#ffffff" stroke="#000000" points="357.5,-98.5 357.5,-128.5 470.5,-128.5 470.5,-98.5 357.5,-98.5"/>
<text text-anchor="start" x="365.5" y="-116.5" font-family="Helvetica,sans-Serif" font-size="10.00" fill="#000000">TooSigning_requested</text>
<text text-anchor="middle" x="414" y="-105.5" font-family="Helvetica,sans-Serif" font-size="10.00" fill="#000000">_noncelist_delete</text>
</a>
</g>
</g>
<!-- Node128&#45;&gt;Node129 -->
<g id="edge8" class="edge">
<title>Node128&#45;&gt;Node129</title>
<path fill="none" stroke="#191970" d="M311.0751,-113.5C322.961,-113.5 335.3161,-113.5 347.1681,-113.5"/>
<polygon fill="#191970" stroke="#191970" points="347.4296,-117.0001 357.4296,-113.5 347.4295,-110.0001 347.4296,-117.0001"/>
</g>
<!-- Node131 -->
<g id="node10" class="node">
<title>Node131</title>
<g id="a_node10"><a xlink:href="group__TOOSIGNING__DEBUGGING.html#gabb54a5e4968d69e35d665869d5c6588f" target="_top" xlink:title="TooSigning_requested\l_noncelist_print">
<polygon fill="#ffffff" stroke="#000000" points="357.5,-49.5 357.5,-79.5 470.5,-79.5 470.5,-49.5 357.5,-49.5"/>
<text text-anchor="start" x="365.5" y="-67.5" font-family="Helvetica,sans-Serif" font-size="10.00" fill="#000000">TooSigning_requested</text>
<text text-anchor="middle" x="414" y="-56.5" font-family="Helvetica,sans-Serif" font-size="10.00" fill="#000000">_noncelist_print</text>
</a>
</g>
</g>
<!-- Node130&#45;&gt;Node131 -->
<g id="edge10" class="edge">
<title>Node130&#45;&gt;Node131</title>
<path fill="none" stroke="#191970" d="M299.9405,-64.5C315.0832,-64.5 331.5762,-64.5 347.1942,-64.5"/>
<polygon fill="#191970" stroke="#191970" points="347.3082,-68.0001 357.3081,-64.5 347.3081,-61.0001 347.3082,-68.0001"/>
</g>
<!-- Node132 -->
<g id="node11" class="node">
<title>Node132</title>
<g id="a_node11"><a xlink:href="TooSigning_8cpp.html#a58143364a83636a3d2df075a95cb2bfc" target="_top" xlink:title="TooSigning_request\l_nonce_from_node_id">
<polygon fill="#ffffff" stroke="#000000" points="358,-.5 358,-30.5 470,-30.5 470,-.5 358,-.5"/>
<text text-anchor="start" x="366" y="-18.5" font-family="Helvetica,sans-Serif" font-size="10.00" fill="#000000">TooSigning_request</text>
<text text-anchor="middle" x="414" y="-7.5" font-family="Helvetica,sans-Serif" font-size="10.00" fill="#000000">_nonce_from_node_id</text>
</a>
</g>
</g>
<!-- Node130&#45;&gt;Node132 -->
<g id="edge11" class="edge">
<title>Node130&#45;&gt;Node132</title>
<path fill="none" stroke="#191970" d="M295.7009,-49.3986C313.4189,-44.3215 333.3517,-38.6098 351.734,-33.3423"/>
<polygon fill="#191970" stroke="#191970" points="352.8241,-36.6709 361.4731,-30.5516 350.8958,-29.9417 352.8241,-36.6709"/>
</g>
</g>
</svg>
