<?xml version="1.0" encoding="UTF-8" standalone="no"?>
<!DOCTYPE svg PUBLIC "-//W3C//DTD SVG 1.1//EN"
 "http://www.w3.org/Graphics/SVG/1.1/DTD/svg11.dtd">
<!-- Generated by graphviz version 2.40.1 (20161225.0304)
 -->
<!-- Title: TooSigning_requested_noncelist_received Pages: 1 -->
<svg width="652pt" height="39pt"
 viewBox="0.00 0.00 652.00 39.00" xmlns="http://www.w3.org/2000/svg" xmlns:xlink="http://www.w3.org/1999/xlink">
<g id="graph0" class="graph" transform="scale(1 1) rotate(0) translate(4 35)">
<title>TooSigning_requested_noncelist_received</title>
<polygon fill="#ffffff" stroke="transparent" points="-4,4 -4,-35 648,-35 648,4 -4,4"/>
<!-- Node89 -->
<g id="node1" class="node">
<title>Node89</title>
<polygon fill="#bfbfbf" stroke="#000000" points="0,-.5 0,-30.5 113,-30.5 113,-.5 0,-.5"/>
<text text-anchor="start" x="8" y="-18.5" font-family="Helvetica,sans-Serif" font-size="10.00" fill="#000000">TooSigning_requested</text>
<text text-anchor="middle" x="56.5" y="-7.5" font-family="Helvetica,sans-Serif" font-size="10.00" fill="#000000">_noncelist_received</text>
</g>
<!-- Node90 -->
<g id="node2" class="node">
<title>Node90</title>
<g id="a_node2"><a xlink:href="TooSigning_8h.html#a03dcb29c3bb1c45c6583cd6a5d731523" target="_top" xlink:title="TooSigning_received\l_noncelist_add">
<polygon fill="#ffffff" stroke="#000000" points="149,-.5 149,-30.5 256,-30.5 256,-.5 149,-.5"/>
<text text-anchor="start" x="157" y="-18.5" font-family="Helvetica,sans-Serif" font-size="10.00" fill="#000000">TooSigning_received</text>
<text text-anchor="middle" x="202.5" y="-7.5" font-family="Helvetica,sans-Serif" font-size="10.00" fill="#000000">_noncelist_add</text>
</a>
</g>
</g>
<!-- Node89&#45;&gt;Node90 -->
<g id="edge1" class="edge">
<title>Node89&#45;&gt;Node90</title>
<path fill="none" stroke="#191970" d="M123.6174,-15.5C132.0908,-15.5 140.6706,-15.5 148.8961,-15.5"/>
<polygon fill="#191970" stroke="#191970" points="123.3655,-12.0001 113.3655,-15.5 123.3654,-19.0001 123.3655,-12.0001"/>
</g>
<!-- Node91 -->
<g id="node3" class="node">
<title>Node91</title>
<g id="a_node3"><a xlink:href="TooSigning_8cpp.html#a03df9fd005c518d1114f912ae7da9f06" target="_top" xlink:title="TooSigning_unsigned\l_network_available">
<polygon fill="#ffffff" stroke="#000000" points="292,-.5 292,-30.5 402,-30.5 402,-.5 292,-.5"/>
<text text-anchor="start" x="300" y="-18.5" font-family="Helvetica,sans-Serif" font-size="10.00" fill="#000000">TooSigning_unsigned</text>
<text text-anchor="middle" x="347" y="-7.5" font-family="Helvetica,sans-Serif" font-size="10.00" fill="#000000">_network_available</text>
</a>
</g>
</g>
<!-- Node90&#45;&gt;Node91 -->
<g id="edge2" class="edge">
<title>Node90&#45;&gt;Node91</title>
<path fill="none" stroke="#191970" d="M266.4644,-15.5C274.8795,-15.5 283.4464,-15.5 291.7006,-15.5"/>
<polygon fill="#191970" stroke="#191970" points="266.3065,-12.0001 256.3065,-15.5 266.3064,-19.0001 266.3065,-12.0001"/>
</g>
<!-- Node92 -->
<g id="node4" class="node">
<title>Node92</title>
<g id="a_node4"><a xlink:href="TooNetworking_8h.html#a7382ba1aed5405c3adc02011ea6c45dd" target="_top" xlink:title="TooNetworking_connection\l_maintenance">
<polygon fill="#ffffff" stroke="#000000" points="438,-.5 438,-30.5 573,-30.5 573,-.5 438,-.5"/>
<text text-anchor="start" x="446" y="-18.5" font-family="Helvetica,sans-Serif" font-size="10.00" fill="#000000">TooNetworking_connection</text>
<text text-anchor="middle" x="505.5" y="-7.5" font-family="Helvetica,sans-Serif" font-size="10.00" fill="#000000">_maintenance</text>
</a>
</g>
</g>
<!-- Node91&#45;&gt;Node92 -->
<g id="edge3" class="edge">
<title>Node91&#45;&gt;Node92</title>
<path fill="none" stroke="#191970" d="M412.5012,-15.5C420.8601,-15.5 429.4295,-15.5 437.822,-15.5"/>
<polygon fill="#191970" stroke="#191970" points="412.4356,-12.0001 402.4356,-15.5 412.4356,-19.0001 412.4356,-12.0001"/>
</g>
<!-- Node93 -->
<g id="node5" class="node">
<title>Node93</title>
<g id="a_node5"><a xlink:href="NODE__SKETCH__TooAutomation__Node_8ino_8cpp.html#a0b33edabd7f1c4e4a0bf32c67269be2f" target="_top" xlink:title="loop">
<polygon fill="#ffffff" stroke="#000000" points="609,-6 609,-25 644,-25 644,-6 609,-6"/>
<text text-anchor="middle" x="626.5" y="-13" font-family="Helvetica,sans-Serif" font-size="10.00" fill="#000000">loop</text>
</a>
</g>
</g>
<!-- Node92&#45;&gt;Node93 -->
<g id="edge4" class="edge">
<title>Node92&#45;&gt;Node93</title>
<path fill="none" stroke="#191970" d="M583.1566,-15.5C592.6588,-15.5 601.5454,-15.5 608.7679,-15.5"/>
<polygon fill="#191970" stroke="#191970" points="583.0755,-12.0001 573.0754,-15.5 583.0754,-19.0001 583.0755,-12.0001"/>
</g>
</g>
</svg>
