<?xml version="1.0" encoding="UTF-8" standalone="no"?>
<!DOCTYPE svg PUBLIC "-//W3C//DTD SVG 1.1//EN"
 "http://www.w3.org/Graphics/SVG/1.1/DTD/svg11.dtd">
<!-- Generated by graphviz version 2.40.1 (20161225.0304)
 -->
<!-- Title: TooSigning_sent_noncelist_find_from_ID Pages: 1 -->
<!--zoomable 53 -->
<svg id="main" version="1.1" xmlns="http://www.w3.org/2000/svg" xmlns:xlink="http://www.w3.org/1999/xlink" xml:space="preserve" onload="init(evt)">
<style type="text/css"><![CDATA[
.edge:hover path { stroke: red; }
.edge:hover polygon { stroke: red; fill: red; }
]]></style>
<script type="text/javascript"><![CDATA[
var edges = document.getElementsByTagName('g');
if (edges && edges.length) {
  for (var i=0;i<edges.length;i++) {
    if (edges[i].id.substr(0,4)=='edge') {
      edges[i].setAttribute('class','edge');
    }
  }
}
]]></script>
        <defs>
                <circle id="rim" cx="0" cy="0" r="7"/>
                <circle id="rim2" cx="0" cy="0" r="3.5"/>
                <g id="zoomPlus">
                        <use xlink:href="#rim" fill="#404040">
                                <set attributeName="fill" to="#808080" begin="zoomplus.mouseover" end="zoomplus.mouseout"/>
                        </use>
                        <path d="M-4,0h8M0,-4v8" fill="none" stroke="white" stroke-width="1.5" pointer-events="none"/>
                </g>
                <g id="zoomMin">
                        <use xlink:href="#rim" fill="#404040">
                                <set attributeName="fill" to="#808080" begin="zoomminus.mouseover" end="zoomminus.mouseout"/>
                        </use>
                        <path d="M-4,0h8" fill="none" stroke="white" stroke-width="1.5" pointer-events="none"/>
                </g>
                <g id="dirArrow">
                        <path fill="none" stroke="white" stroke-width="1.5" d="M0,-3.0v7 M-2.5,-0.5L0,-3.0L2.5,-0.5"/>
                </g>
               <g id="resetDef">
                       <use xlink:href="#rim2" fill="#404040">
                               <set attributeName="fill" to="#808080" begin="reset.mouseover" end="reset.mouseout"/>
                       </use>
               </g>
        </defs>

<script type="text/javascript">
var viewWidth = 721;
var viewHeight = 53;
var sectionId = 'dynsection-24';
</script>
<script xlink:href="svgpan.js"/>
<svg id="graph" class="graph">
<g id="viewport">
<title>TooSigning_sent_noncelist_find_from_ID</title>
<polygon fill="#ffffff" stroke="transparent" points="-4,4 -4,-48.5 717,-48.5 717,4 -4,4"/>
<!-- Node123 -->
<g id="node1" class="node">
<title>Node123</title>
<polygon fill="#bfbfbf" stroke="#000000" points="0,-.5 0,-30.5 134,-30.5 134,-.5 0,-.5"/>
<text text-anchor="start" x="8" y="-18.5" font-family="Helvetica,sans-Serif" font-size="10.00" fill="#000000">TooSigning_sent_noncelist</text>
<text text-anchor="middle" x="67" y="-7.5" font-family="Helvetica,sans-Serif" font-size="10.00" fill="#000000">_find_from_ID</text>
</g>
<!-- Node124 -->
<g id="node2" class="node">
<title>Node124</title>
<g id="a_node2"><a xlink:href="TooSigning_8h.html#a15dc10b22577187e282a5b1da9ffec08" target="_top" xlink:title="TooSigning_sent_noncelist_add">
<polygon fill="#ffffff" stroke="#000000" points="170,-25 170,-44 325,-44 325,-25 170,-25"/>
<text text-anchor="middle" x="247.5" y="-32" font-family="Helvetica,sans-Serif" font-size="10.00" fill="#000000">TooSigning_sent_noncelist_add</text>
</a>
</g>
</g>
<!-- Node123&#45;&gt;Node124 -->
<g id="edge1" class="edge">
<title>Node123&#45;&gt;Node124</title>
<path fill="none" stroke="#191970" d="M144.4109,-23.6485C152.8514,-24.537 161.4449,-25.4416 169.8878,-26.3303"/>
<polygon fill="#191970" stroke="#191970" points="144.523,-20.1411 134.2115,-22.5749 143.7902,-27.1026 144.523,-20.1411"/>
</g>
<!-- Node125 -->
<g id="node3" class="node">
<title>Node125</title>
<g id="a_node3"><a xlink:href="TooSigning_8cpp.html#a03df9fd005c518d1114f912ae7da9f06" target="_top" xlink:title="TooSigning_unsigned\l_network_available">
<polygon fill="#ffffff" stroke="#000000" points="361,-.5 361,-30.5 471,-30.5 471,-.5 361,-.5"/>
<text text-anchor="start" x="369" y="-18.5" font-family="Helvetica,sans-Serif" font-size="10.00" fill="#000000">TooSigning_unsigned</text>
<text text-anchor="middle" x="416" y="-7.5" font-family="Helvetica,sans-Serif" font-size="10.00" fill="#000000">_network_available</text>
</a>
</g>
</g>
<!-- Node123&#45;&gt;Node125 -->
<g id="edge5" class="edge">
<title>Node123&#45;&gt;Node125</title>
<path fill="none" stroke="#191970" d="M144.588,-15.5C210.2403,-15.5 302.6935,-15.5 360.9646,-15.5"/>
<polygon fill="#191970" stroke="#191970" points="144.2907,-12.0001 134.2907,-15.5 144.2907,-19.0001 144.2907,-12.0001"/>
</g>
<!-- Node124&#45;&gt;Node125 -->
<g id="edge2" class="edge">
<title>Node124&#45;&gt;Node125</title>
<path fill="none" stroke="#191970" d="M335.3979,-24.5887C343.9659,-23.6225 352.4834,-22.6621 360.5952,-21.7474"/>
<polygon fill="#191970" stroke="#191970" points="334.8829,-21.1245 325.338,-25.723 335.6673,-28.0804 334.8829,-21.1245"/>
</g>
<!-- Node126 -->
<g id="node4" class="node">
<title>Node126</title>
<g id="a_node4"><a xlink:href="TooNetworking_8h.html#a7382ba1aed5405c3adc02011ea6c45dd" target="_top" xlink:title="TooNetworking_connection\l_maintenance">
<polygon fill="#ffffff" stroke="#000000" points="507,-.5 507,-30.5 642,-30.5 642,-.5 507,-.5"/>
<text text-anchor="start" x="515" y="-18.5" font-family="Helvetica,sans-Serif" font-size="10.00" fill="#000000">TooNetworking_connection</text>
<text text-anchor="middle" x="574.5" y="-7.5" font-family="Helvetica,sans-Serif" font-size="10.00" fill="#000000">_maintenance</text>
</a>
</g>
</g>
<!-- Node125&#45;&gt;Node126 -->
<g id="edge3" class="edge">
<title>Node125&#45;&gt;Node126</title>
<path fill="none" stroke="#191970" d="M481.5012,-15.5C489.8601,-15.5 498.4295,-15.5 506.822,-15.5"/>
<polygon fill="#191970" stroke="#191970" points="481.4356,-12.0001 471.4356,-15.5 481.4356,-19.0001 481.4356,-12.0001"/>
</g>
<!-- Node127 -->
<g id="node5" class="node">
<title>Node127</title>
<g id="a_node5"><a xlink:href="NODE__SKETCH__TooAutomation__Node_8ino_8cpp.html#a0b33edabd7f1c4e4a0bf32c67269be2f" target="_top" xlink:title="loop">
<polygon fill="#ffffff" stroke="#000000" points="678,-6 678,-25 713,-25 713,-6 678,-6"/>
<text text-anchor="middle" x="695.5" y="-13" font-family="Helvetica,sans-Serif" font-size="10.00" fill="#000000">loop</text>
</a>
</g>
</g>
<!-- Node126&#45;&gt;Node127 -->
<g id="edge4" class="edge">
<title>Node126&#45;&gt;Node127</title>
<path fill="none" stroke="#191970" d="M652.1566,-15.5C661.6588,-15.5 670.5454,-15.5 677.7679,-15.5"/>
<polygon fill="#191970" stroke="#191970" points="652.0755,-12.0001 642.0754,-15.5 652.0754,-19.0001 652.0755,-12.0001"/>
</g>
</g>
</svg>
        <g id="navigator" transform="translate(0 0)" fill="#404254">
                <rect fill="#f2f5e9" fill-opacity="0.5" stroke="#606060" stroke-width=".5" x="0" y="0" width="60" height="60"/>
                <use id="zoomplus" xlink:href="#zoomPlus" x="17" y="9" onmousedown="handleZoom(evt,'in')"/>
                <use id="zoomminus" xlink:href="#zoomMin" x="42" y="9" onmousedown="handleZoom(evt,'out')"/>
                <use id="reset" xlink:href="#resetDef" x="30" y="36" onmousedown="handleReset()"/>
                <g id="arrowUp" xlink:href="#dirArrow" transform="translate(30 24)" onmousedown="handlePan(0,-1)">
                  <use xlink:href="#rim" fill="#404040">
                        <set attributeName="fill" to="#808080" begin="arrowUp.mouseover" end="arrowUp.mouseout"/>
                  </use>
                  <path fill="none" stroke="white" stroke-width="1.5" d="M0,-3.0v7 M-2.5,-0.5L0,-3.0L2.5,-0.5"/>
                </g>
                <g id="arrowRight" xlink:href="#dirArrow" transform="rotate(90) translate(36 -43)" onmousedown="handlePan(1,0)">
                  <use xlink:href="#rim" fill="#404040">
                        <set attributeName="fill" to="#808080" begin="arrowRight.mouseover" end="arrowRight.mouseout"/>
                  </use>
                  <path fill="none" stroke="white" stroke-width="1.5" d="M0,-3.0v7 M-2.5,-0.5L0,-3.0L2.5,-0.5"/>
                </g>
                <g id="arrowDown" xlink:href="#dirArrow" transform="rotate(180) translate(-30 -48)" onmousedown="handlePan(0,1)">
                  <use xlink:href="#rim" fill="#404040">
                        <set attributeName="fill" to="#808080" begin="arrowDown.mouseover" end="arrowDown.mouseout"/>
                  </use>
                  <path fill="none" stroke="white" stroke-width="1.5" d="M0,-3.0v7 M-2.5,-0.5L0,-3.0L2.5,-0.5"/>
                </g>
                <g id="arrowLeft" xlink:href="#dirArrow" transform="rotate(270) translate(-36 17)" onmousedown="handlePan(-1,0)">
                  <use xlink:href="#rim" fill="#404040">
                        <set attributeName="fill" to="#808080" begin="arrowLeft.mouseover" end="arrowLeft.mouseout"/>
                  </use>
                  <path fill="none" stroke="white" stroke-width="1.5" d="M0,-3.0v7 M-2.5,-0.5L0,-3.0L2.5,-0.5"/>
                </g>
        </g>
        <svg viewBox="0 0 15 15" width="100%" height="30px" preserveAspectRatio="xMaxYMin meet">
         <g id="arrow_out" transform="scale(0.3 0.3)">
          <a xlink:href="TooSigning_8h_a015bd663d5920097e8dc755de8471dc1_icgraph_org.svg" target="_base">
           <rect id="button" ry="5" rx="5" y="6" x="6" height="38" width="38"
                fill="#f2f5e9" fill-opacity="0.5" stroke="#606060" stroke-width="1.0"/>
           <path id="arrow"
             d="M 11.500037,31.436501 C 11.940474,20.09759 22.043105,11.32322 32.158766,21.979434 L 37.068811,17.246167 C 37.068811,17.246167 37.088388,32 37.088388,32 L 22.160133,31.978069 C 22.160133,31.978069 26.997745,27.140456 26.997745,27.140456 C 18.528582,18.264221 13.291696,25.230495 11.500037,31.436501 z"
             style="fill:#404040;"/>
          </a>
         </g>
        </svg>
</svg>
