<?xml version="1.0" encoding="UTF-8" standalone="no"?>
<!DOCTYPE svg PUBLIC "-//W3C//DTD SVG 1.1//EN"
 "http://www.w3.org/Graphics/SVG/1.1/DTD/svg11.dtd">
<!-- Generated by graphviz version 2.40.1 (20161225.0304)
 -->
<!-- Title: TooSigning_received_noncelist_remove_timeout Pages: 1 -->
<!--zoomable 39 -->
<svg id="main" version="1.1" xmlns="http://www.w3.org/2000/svg" xmlns:xlink="http://www.w3.org/1999/xlink" xml:space="preserve" onload="init(evt)">
<style type="text/css"><![CDATA[
.edge:hover path { stroke: red; }
.edge:hover polygon { stroke: red; fill: red; }
]]></style>
<script type="text/javascript"><![CDATA[
var edges = document.getElementsByTagName('g');
if (edges && edges.length) {
  for (var i=0;i<edges.length;i++) {
    if (edges[i].id.substr(0,4)=='edge') {
      edges[i].setAttribute('class','edge');
    }
  }
}
]]></script>
        <defs>
                <circle id="rim" cx="0" cy="0" r="7"/>
                <circle id="rim2" cx="0" cy="0" r="3.5"/>
                <g id="zoomPlus">
                        <use xlink:href="#rim" fill="#404040">
                                <set attributeName="fill" to="#808080" begin="zoomplus.mouseover" end="zoomplus.mouseout"/>
                        </use>
                        <path d="M-4,0h8M0,-4v8" fill="none" stroke="white" stroke-width="1.5" pointer-events="none"/>
                </g>
                <g id="zoomMin">
                        <use xlink:href="#rim" fill="#404040">
                                <set attributeName="fill" to="#808080" begin="zoomminus.mouseover" end="zoomminus.mouseout"/>
                        </use>
                        <path d="M-4,0h8" fill="none" stroke="white" stroke-width="1.5" pointer-events="none"/>
                </g>
                <g id="dirArrow">
                        <path fill="none" stroke="white" stroke-width="1.5" d="M0,-3.0v7 M-2.5,-0.5L0,-3.0L2.5,-0.5"/>
                </g>
               <g id="resetDef">
                       <use xlink:href="#rim2" fill="#404040">
                               <set attributeName="fill" to="#808080" begin="reset.mouseover" end="reset.mouseout"/>
                       </use>
               </g>
        </defs>

<script type="text/javascript">
var viewWidth = 561;
var viewHeight = 39;
var sectionId = 'dynsection-9';
</script>
<script xlink:href="svgpan.js"/>
<svg id="graph" class="graph">
<g id="viewport">
<title>TooSigning_received_noncelist_remove_timeout</title>
<polygon fill="#ffffff" stroke="transparent" points="-4,4 -4,-35 557,-35 557,4 -4,4"/>
<!-- Node49 -->
<g id="node1" class="node">
<title>Node49</title>
<polygon fill="#bfbfbf" stroke="#000000" points="0,-.5 0,-30.5 136,-30.5 136,-.5 0,-.5"/>
<text text-anchor="start" x="8" y="-18.5" font-family="Helvetica,sans-Serif" font-size="10.00" fill="#000000">TooSigning_received</text>
<text text-anchor="middle" x="68" y="-7.5" font-family="Helvetica,sans-Serif" font-size="10.00" fill="#000000">_noncelist_remove_timeout</text>
</g>
<!-- Node50 -->
<g id="node2" class="node">
<title>Node50</title>
<g id="a_node2"><a xlink:href="TooSigning_8h.html#af68b8dda897cf488129c205ad532ca9e" target="_top" xlink:title="TooSigning_signed_network\l_update">
<polygon fill="#ffffff" stroke="#000000" points="172,-.5 172,-30.5 311,-30.5 311,-.5 172,-.5"/>
<text text-anchor="start" x="180" y="-18.5" font-family="Helvetica,sans-Serif" font-size="10.00" fill="#000000">TooSigning_signed_network</text>
<text text-anchor="middle" x="241.5" y="-7.5" font-family="Helvetica,sans-Serif" font-size="10.00" fill="#000000">_update</text>
</a>
</g>
</g>
<!-- Node49&#45;&gt;Node50 -->
<g id="edge1" class="edge">
<title>Node49&#45;&gt;Node50</title>
<path fill="none" stroke="#191970" d="M146.1002,-15.5C154.7036,-15.5 163.4215,-15.5 171.9111,-15.5"/>
<polygon fill="#191970" stroke="#191970" points="146.0739,-12.0001 136.0738,-15.5 146.0738,-19.0001 146.0739,-12.0001"/>
</g>
<!-- Node51 -->
<g id="node3" class="node">
<title>Node51</title>
<g id="a_node3"><a xlink:href="TooNetworking_8h.html#a7382ba1aed5405c3adc02011ea6c45dd" target="_top" xlink:title="TooNetworking_connection\l_maintenance">
<polygon fill="#ffffff" stroke="#000000" points="347,-.5 347,-30.5 482,-30.5 482,-.5 347,-.5"/>
<text text-anchor="start" x="355" y="-18.5" font-family="Helvetica,sans-Serif" font-size="10.00" fill="#000000">TooNetworking_connection</text>
<text text-anchor="middle" x="414.5" y="-7.5" font-family="Helvetica,sans-Serif" font-size="10.00" fill="#000000">_maintenance</text>
</a>
</g>
</g>
<!-- Node50&#45;&gt;Node51 -->
<g id="edge2" class="edge">
<title>Node50&#45;&gt;Node51</title>
<path fill="none" stroke="#191970" d="M321.6166,-15.5C330.0706,-15.5 338.6064,-15.5 346.8985,-15.5"/>
<polygon fill="#191970" stroke="#191970" points="321.3671,-12.0001 311.3671,-15.5 321.367,-19.0001 321.3671,-12.0001"/>
</g>
<!-- Node52 -->
<g id="node4" class="node">
<title>Node52</title>
<g id="a_node4"><a xlink:href="NODE__SKETCH__TooAutomation__Node_8ino_8cpp.html#a0b33edabd7f1c4e4a0bf32c67269be2f" target="_top" xlink:title="loop">
<polygon fill="#ffffff" stroke="#000000" points="518,-6 518,-25 553,-25 553,-6 518,-6"/>
<text text-anchor="middle" x="535.5" y="-13" font-family="Helvetica,sans-Serif" font-size="10.00" fill="#000000">loop</text>
</a>
</g>
</g>
<!-- Node51&#45;&gt;Node52 -->
<g id="edge3" class="edge">
<title>Node51&#45;&gt;Node52</title>
<path fill="none" stroke="#191970" d="M492.1566,-15.5C501.6588,-15.5 510.5454,-15.5 517.7679,-15.5"/>
<polygon fill="#191970" stroke="#191970" points="492.0755,-12.0001 482.0754,-15.5 492.0754,-19.0001 492.0755,-12.0001"/>
</g>
</g>
</svg>
        <g id="navigator" transform="translate(0 0)" fill="#404254">
                <rect fill="#f2f5e9" fill-opacity="0.5" stroke="#606060" stroke-width=".5" x="0" y="0" width="60" height="60"/>
                <use id="zoomplus" xlink:href="#zoomPlus" x="17" y="9" onmousedown="handleZoom(evt,'in')"/>
                <use id="zoomminus" xlink:href="#zoomMin" x="42" y="9" onmousedown="handleZoom(evt,'out')"/>
                <use id="reset" xlink:href="#resetDef" x="30" y="36" onmousedown="handleReset()"/>
                <g id="arrowUp" xlink:href="#dirArrow" transform="translate(30 24)" onmousedown="handlePan(0,-1)">
                  <use xlink:href="#rim" fill="#404040">
                        <set attributeName="fill" to="#808080" begin="arrowUp.mouseover" end="arrowUp.mouseout"/>
                  </use>
                  <path fill="none" stroke="white" stroke-width="1.5" d="M0,-3.0v7 M-2.5,-0.5L0,-3.0L2.5,-0.5"/>
                </g>
                <g id="arrowRight" xlink:href="#dirArrow" transform="rotate(90) translate(36 -43)" onmousedown="handlePan(1,0)">
                  <use xlink:href="#rim" fill="#404040">
                        <set attributeName="fill" to="#808080" begin="arrowRight.mouseover" end="arrowRight.mouseout"/>
                  </use>
                  <path fill="none" stroke="white" stroke-width="1.5" d="M0,-3.0v7 M-2.5,-0.5L0,-3.0L2.5,-0.5"/>
                </g>
                <g id="arrowDown" xlink:href="#dirArrow" transform="rotate(180) translate(-30 -48)" onmousedown="handlePan(0,1)">
                  <use xlink:href="#rim" fill="#404040">
                        <set attributeName="fill" to="#808080" begin="arrowDown.mouseover" end="arrowDown.mouseout"/>
                  </use>
                  <path fill="none" stroke="white" stroke-width="1.5" d="M0,-3.0v7 M-2.5,-0.5L0,-3.0L2.5,-0.5"/>
                </g>
                <g id="arrowLeft" xlink:href="#dirArrow" transform="rotate(270) translate(-36 17)" onmousedown="handlePan(-1,0)">
                  <use xlink:href="#rim" fill="#404040">
                        <set attributeName="fill" to="#808080" begin="arrowLeft.mouseover" end="arrowLeft.mouseout"/>
                  </use>
                  <path fill="none" stroke="white" stroke-width="1.5" d="M0,-3.0v7 M-2.5,-0.5L0,-3.0L2.5,-0.5"/>
                </g>
        </g>
        <svg viewBox="0 0 15 15" width="100%" height="30px" preserveAspectRatio="xMaxYMin meet">
         <g id="arrow_out" transform="scale(0.3 0.3)">
          <a xlink:href="TooSigning_8cpp_a0b3ecca47a6a96a8ac839d0611e2cd2f_icgraph_org.svg" target="_base">
           <rect id="button" ry="5" rx="5" y="6" x="6" height="38" width="38"
                fill="#f2f5e9" fill-opacity="0.5" stroke="#606060" stroke-width="1.0"/>
           <path id="arrow"
             d="M 11.500037,31.436501 C 11.940474,20.09759 22.043105,11.32322 32.158766,21.979434 L 37.068811,17.246167 C 37.068811,17.246167 37.088388,32 37.088388,32 L 22.160133,31.978069 C 22.160133,31.978069 26.997745,27.140456 26.997745,27.140456 C 18.528582,18.264221 13.291696,25.230495 11.500037,31.436501 z"
             style="fill:#404040;"/>
          </a>
         </g>
        </svg>
</svg>
