<?xml version="1.0" encoding="UTF-8" standalone="no"?>
<!DOCTYPE svg PUBLIC "-//W3C//DTD SVG 1.1//EN"
 "http://www.w3.org/Graphics/SVG/1.1/DTD/svg11.dtd">
<!-- Generated by graphviz version 2.40.1 (20161225.0304)
 -->
<!-- Title: TooSigning_received_noncelist_remove_timeout Pages: 1 -->
<svg width="430pt" height="61pt"
 viewBox="0.00 0.00 430.00 61.00" xmlns="http://www.w3.org/2000/svg" xmlns:xlink="http://www.w3.org/1999/xlink">
<g id="graph0" class="graph" transform="scale(1 1) rotate(0) translate(4 57)">
<title>TooSigning_received_noncelist_remove_timeout</title>
<polygon fill="#ffffff" stroke="transparent" points="-4,4 -4,-57 426,-57 426,4 -4,4"/>
<!-- Node50 -->
<g id="node1" class="node">
<title>Node50</title>
<polygon fill="#bfbfbf" stroke="#000000" points="0,-22.5 0,-52.5 136,-52.5 136,-22.5 0,-22.5"/>
<text text-anchor="start" x="8" y="-40.5" font-family="Helvetica,sans-Serif" font-size="10.00" fill="#000000">TooSigning_received</text>
<text text-anchor="middle" x="68" y="-29.5" font-family="Helvetica,sans-Serif" font-size="10.00" fill="#000000">_noncelist_remove_timeout</text>
</g>
<!-- Node51 -->
<g id="node2" class="node">
<title>Node51</title>
<g id="a_node2"><a xlink:href="group__TOOSIGNING__DEBUGGING.html#gaba98f230fad779da673a83370ad7de5d" target="_top" xlink:title="TooSigning_received\l_noncelist_print">
<polygon fill="#ffffff" stroke="#000000" points="315,-22.5 315,-52.5 422,-52.5 422,-22.5 315,-22.5"/>
<text text-anchor="start" x="323" y="-40.5" font-family="Helvetica,sans-Serif" font-size="10.00" fill="#000000">TooSigning_received</text>
<text text-anchor="middle" x="368.5" y="-29.5" font-family="Helvetica,sans-Serif" font-size="10.00" fill="#000000">_noncelist_print</text>
</a>
</g>
</g>
<!-- Node50&#45;&gt;Node51 -->
<g id="edge1" class="edge">
<title>Node50&#45;&gt;Node51</title>
<path fill="none" stroke="#191970" d="M136.2439,-39.75C148.1613,-40.0625 160.4408,-40.3333 172,-40.5 219.5506,-41.1857 231.4511,-41.2967 279,-40.5 287.2679,-40.3615 295.9635,-40.151 304.5524,-39.9045"/>
<polygon fill="#191970" stroke="#191970" points="304.6647,-43.4028 314.5538,-39.6007 304.4521,-36.406 304.6647,-43.4028"/>
</g>
<!-- Node52 -->
<g id="node3" class="node">
<title>Node52</title>
<g id="a_node3"><a xlink:href="TooSigning_8cpp.html#a17c243416f235786f027aa263693e3d5" target="_top" xlink:title="TooSigning_received\l_noncelist_remove">
<polygon fill="#ffffff" stroke="#000000" points="172,-.5 172,-30.5 279,-30.5 279,-.5 172,-.5"/>
<text text-anchor="start" x="180" y="-18.5" font-family="Helvetica,sans-Serif" font-size="10.00" fill="#000000">TooSigning_received</text>
<text text-anchor="middle" x="225.5" y="-7.5" font-family="Helvetica,sans-Serif" font-size="10.00" fill="#000000">_noncelist_remove</text>
</a>
</g>
</g>
<!-- Node50&#45;&gt;Node52 -->
<g id="edge2" class="edge">
<title>Node50&#45;&gt;Node52</title>
<path fill="none" stroke="#191970" d="M136.1658,-27.9784C144.6769,-26.7896 153.3561,-25.5772 161.7958,-24.3984"/>
<polygon fill="#191970" stroke="#191970" points="162.5245,-27.8306 171.9442,-22.9808 161.5561,-20.8979 162.5245,-27.8306"/>
</g>
<!-- Node52&#45;&gt;Node51 -->
<g id="edge3" class="edge">
<title>Node52&#45;&gt;Node51</title>
<path fill="none" stroke="#191970" d="M279.1548,-23.7546C287.4712,-25.034 296.1318,-26.3664 304.6461,-27.6763"/>
<polygon fill="#191970" stroke="#191970" points="304.1286,-31.1378 314.5445,-29.1992 305.193,-24.2192 304.1286,-31.1378"/>
</g>
</g>
</svg>
