<?xml version="1.0" encoding="UTF-8" standalone="no"?>
<!DOCTYPE svg PUBLIC "-//W3C//DTD SVG 1.1//EN"
 "http://www.w3.org/Graphics/SVG/1.1/DTD/svg11.dtd">
<!-- Generated by graphviz version 2.40.1 (20161225.0304)
 -->
<!-- Title: TooSigning_requested_noncelist_retry_all Pages: 1 -->
<svg width="875pt" height="88pt"
 viewBox="0.00 0.00 875.00 88.00" xmlns="http://www.w3.org/2000/svg" xmlns:xlink="http://www.w3.org/1999/xlink">
<g id="graph0" class="graph" transform="scale(1 1) rotate(0) translate(4 84)">
<title>TooSigning_requested_noncelist_retry_all</title>
<polygon fill="#ffffff" stroke="transparent" points="-4,4 -4,-84 871,-84 871,4 -4,4"/>
<!-- Node126 -->
<g id="node1" class="node">
<title>Node126</title>
<polygon fill="#bfbfbf" stroke="#000000" points="0,-24.5 0,-54.5 113,-54.5 113,-24.5 0,-24.5"/>
<text text-anchor="start" x="8" y="-42.5" font-family="Helvetica,sans-Serif" font-size="10.00" fill="#000000">TooSigning_requested</text>
<text text-anchor="middle" x="56.5" y="-31.5" font-family="Helvetica,sans-Serif" font-size="10.00" fill="#000000">_noncelist_retry_all</text>
</g>
<!-- Node127 -->
<g id="node2" class="node">
<title>Node127</title>
<g id="a_node2"><a xlink:href="group__TOOSIGNING__DEBUGGING.html#gabb54a5e4968d69e35d665869d5c6588f" target="_top" xlink:title="TooSigning_requested\l_noncelist_print">
<polygon fill="#ffffff" stroke="#000000" points="149,-49.5 149,-79.5 262,-79.5 262,-49.5 149,-49.5"/>
<text text-anchor="start" x="157" y="-67.5" font-family="Helvetica,sans-Serif" font-size="10.00" fill="#000000">TooSigning_requested</text>
<text text-anchor="middle" x="205.5" y="-56.5" font-family="Helvetica,sans-Serif" font-size="10.00" fill="#000000">_noncelist_print</text>
</a>
</g>
</g>
<!-- Node126&#45;&gt;Node127 -->
<g id="edge1" class="edge">
<title>Node126&#45;&gt;Node127</title>
<path fill="none" stroke="#191970" d="M113.2556,-49.0227C121.6493,-50.4311 130.3621,-51.893 138.9332,-53.3311"/>
<polygon fill="#191970" stroke="#191970" points="138.4609,-56.8007 148.9022,-55.0037 139.6193,-49.8972 138.4609,-56.8007"/>
</g>
<!-- Node128 -->
<g id="node3" class="node">
<title>Node128</title>
<g id="a_node3"><a xlink:href="TooSigning_8cpp.html#a58143364a83636a3d2df075a95cb2bfc" target="_top" xlink:title="TooSigning_request\l_nonce_from_node_id">
<polygon fill="#ffffff" stroke="#000000" points="149.5,-.5 149.5,-30.5 261.5,-30.5 261.5,-.5 149.5,-.5"/>
<text text-anchor="start" x="157.5" y="-18.5" font-family="Helvetica,sans-Serif" font-size="10.00" fill="#000000">TooSigning_request</text>
<text text-anchor="middle" x="205.5" y="-7.5" font-family="Helvetica,sans-Serif" font-size="10.00" fill="#000000">_nonce_from_node_id</text>
</a>
</g>
</g>
<!-- Node126&#45;&gt;Node128 -->
<g id="edge2" class="edge">
<title>Node126&#45;&gt;Node128</title>
<path fill="none" stroke="#191970" d="M113.2556,-30.3582C121.7675,-28.9871 130.6076,-27.5632 139.2953,-26.1639"/>
<polygon fill="#191970" stroke="#191970" points="140.0789,-29.5828 149.3951,-24.537 138.9657,-22.6719 140.0789,-29.5828"/>
</g>
<!-- Node129 -->
<g id="node4" class="node">
<title>Node129</title>
<g id="a_node4"><a xlink:href="TooSigning_8cpp.html#a7c4b40a9376e0044a89b8abe3a83c970" target="_top" xlink:title="TooSigning_connection_fix">
<polygon fill="#ffffff" stroke="#000000" points="298,-6 298,-25 432,-25 432,-6 298,-6"/>
<text text-anchor="middle" x="365" y="-13" font-family="Helvetica,sans-Serif" font-size="10.00" fill="#000000">TooSigning_connection_fix</text>
</a>
</g>
</g>
<!-- Node128&#45;&gt;Node129 -->
<g id="edge3" class="edge">
<title>Node128&#45;&gt;Node129</title>
<path fill="none" stroke="#191970" d="M261.7337,-15.5C270.1141,-15.5 278.8749,-15.5 287.5983,-15.5"/>
<polygon fill="#191970" stroke="#191970" points="287.7965,-19.0001 297.7965,-15.5 287.7964,-12.0001 287.7965,-19.0001"/>
</g>
<!-- Node130 -->
<g id="node5" class="node">
<title>Node130</title>
<g id="a_node5"><a xlink:href="TooNetworking_8cpp.html#aefc5dad88b637efb11a3a7b2f76a19b9" target="_top" xlink:title="TooNetworking_connection_fix">
<polygon fill="#ffffff" stroke="#000000" points="468,-6 468,-25 619,-25 619,-6 468,-6"/>
<text text-anchor="middle" x="543.5" y="-13" font-family="Helvetica,sans-Serif" font-size="10.00" fill="#000000">TooNetworking_connection_fix</text>
</a>
</g>
</g>
<!-- Node129&#45;&gt;Node130 -->
<g id="edge4" class="edge">
<title>Node129&#45;&gt;Node130</title>
<path fill="none" stroke="#191970" d="M432.2288,-15.5C440.6106,-15.5 449.2687,-15.5 457.8817,-15.5"/>
<polygon fill="#191970" stroke="#191970" points="457.9526,-19.0001 467.9526,-15.5 457.9525,-12.0001 457.9526,-19.0001"/>
</g>
<!-- Node131 -->
<g id="node6" class="node">
<title>Node131</title>
<g id="a_node6"><a xlink:href="TooNetworking_8cpp.html#ac352268e177fa2ddf91c8afa5cd04bbf" target="_top" xlink:title="TooNetworking_connection\l_available">
<polygon fill="#ffffff" stroke="#000000" points="655,-22.5 655,-52.5 790,-52.5 790,-22.5 655,-22.5"/>
<text text-anchor="start" x="663" y="-40.5" font-family="Helvetica,sans-Serif" font-size="10.00" fill="#000000">TooNetworking_connection</text>
<text text-anchor="middle" x="722.5" y="-29.5" font-family="Helvetica,sans-Serif" font-size="10.00" fill="#000000">_available</text>
</a>
</g>
</g>
<!-- Node130&#45;&gt;Node131 -->
<g id="edge5" class="edge">
<title>Node130&#45;&gt;Node131</title>
<path fill="none" stroke="#191970" d="M619.1527,-24.7981C627.6566,-25.8433 636.3316,-26.9095 644.8602,-27.9577"/>
<polygon fill="#191970" stroke="#191970" points="644.4336,-31.4315 654.7859,-29.1776 645.2876,-24.4838 644.4336,-31.4315"/>
</g>
<!-- Node132 -->
<g id="node7" class="node">
<title>Node132</title>
<g id="a_node7"><a xlink:href="TooNetworking_8cpp.html#abdda8f09b9d475ed2c23a2376e2e0151" target="_top" xlink:title="mesh">
<polygon fill="#ffffff" stroke="#000000" points="826,-6 826,-25 867,-25 867,-6 826,-6"/>
<text text-anchor="middle" x="846.5" y="-13" font-family="Helvetica,sans-Serif" font-size="10.00" fill="#000000">mesh</text>
</a>
</g>
</g>
<!-- Node130&#45;&gt;Node132 -->
<g id="edge7" class="edge">
<title>Node130&#45;&gt;Node132</title>
<path fill="none" stroke="#191970" d="M619.0236,-13.879C667.8116,-13.081 732.6616,-12.4855 790,-13.5 798.3493,-13.6477 807.3893,-13.9182 815.7388,-14.2134"/>
<polygon fill="#191970" stroke="#191970" points="815.717,-17.715 825.8415,-14.5933 815.9801,-10.7199 815.717,-17.715"/>
</g>
<!-- Node131&#45;&gt;Node132 -->
<g id="edge6" class="edge">
<title>Node131&#45;&gt;Node132</title>
<path fill="none" stroke="#191970" d="M790.3049,-25.4701C799.2455,-23.8839 808.0236,-22.3265 815.8869,-20.9314"/>
<polygon fill="#191970" stroke="#191970" points="816.737,-24.3353 825.9718,-19.1421 815.5141,-17.4429 816.737,-24.3353"/>
</g>
</g>
</svg>
