<?xml version="1.0" encoding="UTF-8" standalone="no"?>
<!DOCTYPE svg PUBLIC "-//W3C//DTD SVG 1.1//EN"
 "http://www.w3.org/Graphics/SVG/1.1/DTD/svg11.dtd">
<!-- Generated by graphviz version 2.40.1 (20161225.0304)
 -->
<!-- Title: TooSigning_requested_noncelist_find_for_nodeID Pages: 1 -->
<!--zoomable 105 -->
<svg id="main" version="1.1" xmlns="http://www.w3.org/2000/svg" xmlns:xlink="http://www.w3.org/1999/xlink" xml:space="preserve" onload="init(evt)">
<style type="text/css"><![CDATA[
.edge:hover path { stroke: red; }
.edge:hover polygon { stroke: red; fill: red; }
]]></style>
<script type="text/javascript"><![CDATA[
var edges = document.getElementsByTagName('g');
if (edges && edges.length) {
  for (var i=0;i<edges.length;i++) {
    if (edges[i].id.substr(0,4)=='edge') {
      edges[i].setAttribute('class','edge');
    }
  }
}
]]></script>
        <defs>
                <circle id="rim" cx="0" cy="0" r="7"/>
                <circle id="rim2" cx="0" cy="0" r="3.5"/>
                <g id="zoomPlus">
                        <use xlink:href="#rim" fill="#404040">
                                <set attributeName="fill" to="#808080" begin="zoomplus.mouseover" end="zoomplus.mouseout"/>
                        </use>
                        <path d="M-4,0h8M0,-4v8" fill="none" stroke="white" stroke-width="1.5" pointer-events="none"/>
                </g>
                <g id="zoomMin">
                        <use xlink:href="#rim" fill="#404040">
                                <set attributeName="fill" to="#808080" begin="zoomminus.mouseover" end="zoomminus.mouseout"/>
                        </use>
                        <path d="M-4,0h8" fill="none" stroke="white" stroke-width="1.5" pointer-events="none"/>
                </g>
                <g id="dirArrow">
                        <path fill="none" stroke="white" stroke-width="1.5" d="M0,-3.0v7 M-2.5,-0.5L0,-3.0L2.5,-0.5"/>
                </g>
               <g id="resetDef">
                       <use xlink:href="#rim2" fill="#404040">
                               <set attributeName="fill" to="#808080" begin="reset.mouseover" end="reset.mouseout"/>
                       </use>
               </g>
        </defs>

<script type="text/javascript">
var viewWidth = 851;
var viewHeight = 105;
var sectionId = 'dynsection-18';
</script>
<script xlink:href="svgpan.js"/>
<svg id="graph" class="graph">
<g id="viewport">
<title>TooSigning_requested_noncelist_find_for_nodeID</title>
<polygon fill="#ffffff" stroke="transparent" points="-4,4 -4,-100.5931 847,-100.5931 847,4 -4,4"/>
<!-- Node96 -->
<g id="node1" class="node">
<title>Node96</title>
<polygon fill="#bfbfbf" stroke="#000000" points="0,-10.0931 0,-40.0931 135,-40.0931 135,-10.0931 0,-10.0931"/>
<text text-anchor="start" x="8" y="-28.0931" font-family="Helvetica,sans-Serif" font-size="10.00" fill="#000000">TooSigning_requested</text>
<text text-anchor="middle" x="67.5" y="-17.0931" font-family="Helvetica,sans-Serif" font-size="10.00" fill="#000000">_noncelist_find_for_nodeID</text>
</g>
<!-- Node97 -->
<g id="node2" class="node">
<title>Node97</title>
<g id="a_node2"><a xlink:href="TooSigning_8h.html#a53b55547df3d4276f3ca6a74d601549a" target="_top" xlink:title="TooSigning_requested\l_noncelist_add">
<polygon fill="#ffffff" stroke="#000000" points="171,-10.0931 171,-40.0931 284,-40.0931 284,-10.0931 171,-10.0931"/>
<text text-anchor="start" x="179" y="-28.0931" font-family="Helvetica,sans-Serif" font-size="10.00" fill="#000000">TooSigning_requested</text>
<text text-anchor="middle" x="227.5" y="-17.0931" font-family="Helvetica,sans-Serif" font-size="10.00" fill="#000000">_noncelist_add</text>
</a>
</g>
</g>
<!-- Node96&#45;&gt;Node97 -->
<g id="edge1" class="edge">
<title>Node96&#45;&gt;Node97</title>
<path fill="none" stroke="#191970" d="M145.6116,-25.0931C154.0527,-25.0931 162.5219,-25.0931 170.643,-25.0931"/>
<polygon fill="#191970" stroke="#191970" points="145.3544,-21.5932 135.3544,-25.0931 145.3544,-28.5932 145.3544,-21.5932"/>
</g>
<!-- Node98 -->
<g id="node3" class="node">
<title>Node98</title>
<g id="a_node3"><a xlink:href="TooNetworking_8h.html#a59be7e774988f57ab43c4c078c570c67" target="_top" xlink:title="TooNetworking_bufferlist_add">
<polygon fill="#ffffff" stroke="#000000" points="320,-15.5931 320,-34.5931 466,-34.5931 466,-15.5931 320,-15.5931"/>
<text text-anchor="middle" x="393" y="-22.5931" font-family="Helvetica,sans-Serif" font-size="10.00" fill="#000000">TooNetworking_bufferlist_add</text>
</a>
</g>
</g>
<!-- Node97&#45;&gt;Node98 -->
<g id="edge2" class="edge">
<title>Node97&#45;&gt;Node98</title>
<path fill="none" stroke="#191970" d="M294.5061,-25.0931C302.8556,-25.0931 311.4271,-25.0931 319.8635,-25.0931"/>
<polygon fill="#191970" stroke="#191970" points="294.4557,-21.5932 284.4557,-25.0931 294.4557,-28.5932 294.4557,-21.5932"/>
</g>
<!-- Node99 -->
<g id="node4" class="node">
<title>Node99</title>
<g id="a_node4"><a xlink:href="TooNetworking_8h.html#a9209f3e1a2fdf0b3b88d49105b8fc359" target="_top" xlink:title="TooNetworking_send\l_signed">
<polygon fill="#ffffff" stroke="#000000" points="502,-48.0931 502,-78.0931 611,-78.0931 611,-48.0931 502,-48.0931"/>
<text text-anchor="start" x="510" y="-66.0931" font-family="Helvetica,sans-Serif" font-size="10.00" fill="#000000">TooNetworking_send</text>
<text text-anchor="middle" x="556.5" y="-55.0931" font-family="Helvetica,sans-Serif" font-size="10.00" fill="#000000">_signed</text>
</a>
</g>
</g>
<!-- Node97&#45;&gt;Node99 -->
<g id="edge10" class="edge">
<title>Node97&#45;&gt;Node99</title>
<path fill="none" stroke="#191970" d="M294.1481,-39.7948C302.8171,-41.4091 311.6006,-42.8976 320,-44.0931 381.9861,-52.9153 453.7392,-57.9594 501.8085,-60.6017"/>
<polygon fill="#191970" stroke="#191970" points="294.5351,-36.3051 284.0538,-37.852 293.2121,-43.1789 294.5351,-36.3051"/>
</g>
<!-- Node100 -->
<g id="node5" class="node">
<title>Node100</title>
<g id="a_node5"><a xlink:href="TooNetworking_8h.html#a085ff748b00f6be4ebafcae2bb0dded1" target="_top" xlink:title="TooNetworking_bufferlist\l_send_signed">
<polygon fill="#ffffff" stroke="#000000" points="647,-1.0931 647,-31.0931 772,-31.0931 772,-1.0931 647,-1.0931"/>
<text text-anchor="start" x="655" y="-19.0931" font-family="Helvetica,sans-Serif" font-size="10.00" fill="#000000">TooNetworking_bufferlist</text>
<text text-anchor="middle" x="709.5" y="-8.0931" font-family="Helvetica,sans-Serif" font-size="10.00" fill="#000000">_send_signed</text>
</a>
</g>
</g>
<!-- Node97&#45;&gt;Node100 -->
<g id="edge11" class="edge">
<title>Node97&#45;&gt;Node100</title>
<path fill="none" stroke="#191970" d="M294.4313,-9.6841C302.996,-8.2028 311.6767,-6.9391 320,-6.0931 434.9098,5.5865 569.8119,-2.763 646.916,-9.6192"/>
<polygon fill="#191970" stroke="#191970" points="293.6643,-6.2662 284.4587,-11.5109 294.9257,-13.1517 293.6643,-6.2662"/>
</g>
<!-- Node98&#45;&gt;Node99 -->
<g id="edge3" class="edge">
<title>Node98&#45;&gt;Node99</title>
<path fill="none" stroke="#191970" d="M472.884,-36.911C488.2637,-40.4597 503.7314,-44.3475 517.1085,-48.0682"/>
<polygon fill="#191970" stroke="#191970" points="473.3388,-33.4255 462.813,-34.6331 471.7945,-40.253 473.3388,-33.4255"/>
</g>
<!-- Node98&#45;&gt;Node100 -->
<g id="edge9" class="edge">
<title>Node98&#45;&gt;Node100</title>
<path fill="none" stroke="#191970" d="M476.144,-22.7288C529.5688,-21.2096 597.8624,-19.2676 646.7419,-17.8777"/>
<polygon fill="#191970" stroke="#191970" points="475.9053,-19.2341 466.0089,-23.017 476.1044,-26.2312 475.9053,-19.2341"/>
</g>
<!-- Node99&#45;&gt;Node98 -->
<g id="edge4" class="edge">
<title>Node99&#45;&gt;Node98</title>
<path fill="none" stroke="#191970" d="M491.7814,-54.6695C464.1056,-48.6717 433.7045,-40.9674 414.04,-34.6854"/>
<polygon fill="#191970" stroke="#191970" points="491.3215,-58.1496 501.8296,-56.7963 492.771,-51.3014 491.3215,-58.1496"/>
</g>
<!-- Node99&#45;&gt;Node99 -->
<g id="edge5" class="edge">
<title>Node99&#45;&gt;Node99</title>
<path fill="none" stroke="#191970" d="M529.4914,-88.551C532.8436,-93.272 541.8464,-96.5931 556.5,-96.5931 580.5469,-96.5931 589.3766,-87.6497 582.9891,-78.2521"/>
<polygon fill="#191970" stroke="#191970" points="533.0026,-88.4157 530.0109,-78.2521 526.0115,-88.063 533.0026,-88.4157"/>
</g>
<!-- Node99&#45;&gt;Node100 -->
<g id="edge6" class="edge">
<title>Node99&#45;&gt;Node100</title>
<path fill="none" stroke="#191970" d="M615.0478,-45.1078C630.0895,-40.4872 646.1126,-35.565 660.6083,-31.1121"/>
<polygon fill="#191970" stroke="#191970" points="613.8622,-41.8105 605.3308,-48.0928 615.9178,-48.5019 613.8622,-41.8105"/>
</g>
<!-- Node102 -->
<g id="node7" class="node">
<title>Node102</title>
<g id="a_node7"><a xlink:href="TooNetworking_8h.html#ab58e06e0eb6f2f8ecbebeaf3c173fb22" target="_top" xlink:title="TooNetworking_bufferlist\l_send_all">
<polygon fill="#ffffff" stroke="#000000" points="647,-50.0931 647,-80.0931 772,-80.0931 772,-50.0931 647,-50.0931"/>
<text text-anchor="start" x="655" y="-68.0931" font-family="Helvetica,sans-Serif" font-size="10.00" fill="#000000">TooNetworking_bufferlist</text>
<text text-anchor="middle" x="709.5" y="-57.0931" font-family="Helvetica,sans-Serif" font-size="10.00" fill="#000000">_send_all</text>
</a>
</g>
</g>
<!-- Node99&#45;&gt;Node102 -->
<g id="edge8" class="edge">
<title>Node99&#45;&gt;Node102</title>
<path fill="none" stroke="#191970" d="M621.4187,-63.9417C629.811,-64.0514 638.3936,-64.1636 646.7499,-64.2728"/>
<polygon fill="#191970" stroke="#191970" points="621.3493,-60.4406 611.3044,-63.8095 621.2577,-67.44 621.3493,-60.4406"/>
</g>
<!-- Node101 -->
<g id="node6" class="node">
<title>Node101</title>
<g id="a_node6"><a xlink:href="NODE__SKETCH__TooAutomation__Node_8ino_8cpp.html#a0b33edabd7f1c4e4a0bf32c67269be2f" target="_top" xlink:title="loop">
<polygon fill="#ffffff" stroke="#000000" points="808,-6.5931 808,-25.5931 843,-25.5931 843,-6.5931 808,-6.5931"/>
<text text-anchor="middle" x="825.5" y="-13.5931" font-family="Helvetica,sans-Serif" font-size="10.00" fill="#000000">loop</text>
</a>
</g>
</g>
<!-- Node100&#45;&gt;Node101 -->
<g id="edge7" class="edge">
<title>Node100&#45;&gt;Node101</title>
<path fill="none" stroke="#191970" d="M782.5149,-16.0931C791.8175,-16.0931 800.5667,-16.0931 807.7123,-16.0931"/>
<polygon fill="#191970" stroke="#191970" points="782.2531,-12.5932 772.2531,-16.0931 782.253,-19.5932 782.2531,-12.5932"/>
</g>
</g>
</svg>
        <g id="navigator" transform="translate(0 0)" fill="#404254">
                <rect fill="#f2f5e9" fill-opacity="0.5" stroke="#606060" stroke-width=".5" x="0" y="0" width="60" height="60"/>
                <use id="zoomplus" xlink:href="#zoomPlus" x="17" y="9" onmousedown="handleZoom(evt,'in')"/>
                <use id="zoomminus" xlink:href="#zoomMin" x="42" y="9" onmousedown="handleZoom(evt,'out')"/>
                <use id="reset" xlink:href="#resetDef" x="30" y="36" onmousedown="handleReset()"/>
                <g id="arrowUp" xlink:href="#dirArrow" transform="translate(30 24)" onmousedown="handlePan(0,-1)">
                  <use xlink:href="#rim" fill="#404040">
                        <set attributeName="fill" to="#808080" begin="arrowUp.mouseover" end="arrowUp.mouseout"/>
                  </use>
                  <path fill="none" stroke="white" stroke-width="1.5" d="M0,-3.0v7 M-2.5,-0.5L0,-3.0L2.5,-0.5"/>
                </g>
                <g id="arrowRight" xlink:href="#dirArrow" transform="rotate(90) translate(36 -43)" onmousedown="handlePan(1,0)">
                  <use xlink:href="#rim" fill="#404040">
                        <set attributeName="fill" to="#808080" begin="arrowRight.mouseover" end="arrowRight.mouseout"/>
                  </use>
                  <path fill="none" stroke="white" stroke-width="1.5" d="M0,-3.0v7 M-2.5,-0.5L0,-3.0L2.5,-0.5"/>
                </g>
                <g id="arrowDown" xlink:href="#dirArrow" transform="rotate(180) translate(-30 -48)" onmousedown="handlePan(0,1)">
                  <use xlink:href="#rim" fill="#404040">
                        <set attributeName="fill" to="#808080" begin="arrowDown.mouseover" end="arrowDown.mouseout"/>
                  </use>
                  <path fill="none" stroke="white" stroke-width="1.5" d="M0,-3.0v7 M-2.5,-0.5L0,-3.0L2.5,-0.5"/>
                </g>
                <g id="arrowLeft" xlink:href="#dirArrow" transform="rotate(270) translate(-36 17)" onmousedown="handlePan(-1,0)">
                  <use xlink:href="#rim" fill="#404040">
                        <set attributeName="fill" to="#808080" begin="arrowLeft.mouseover" end="arrowLeft.mouseout"/>
                  </use>
                  <path fill="none" stroke="white" stroke-width="1.5" d="M0,-3.0v7 M-2.5,-0.5L0,-3.0L2.5,-0.5"/>
                </g>
        </g>
        <svg viewBox="0 0 15 15" width="100%" height="30px" preserveAspectRatio="xMaxYMin meet">
         <g id="arrow_out" transform="scale(0.3 0.3)">
          <a xlink:href="TooSigning_8cpp_a74e394128707e55045381d7c9ab6f6fd_icgraph_org.svg" target="_base">
           <rect id="button" ry="5" rx="5" y="6" x="6" height="38" width="38"
                fill="#f2f5e9" fill-opacity="0.5" stroke="#606060" stroke-width="1.0"/>
           <path id="arrow"
             d="M 11.500037,31.436501 C 11.940474,20.09759 22.043105,11.32322 32.158766,21.979434 L 37.068811,17.246167 C 37.068811,17.246167 37.088388,32 37.088388,32 L 22.160133,31.978069 C 22.160133,31.978069 26.997745,27.140456 26.997745,27.140456 C 18.528582,18.264221 13.291696,25.230495 11.500037,31.436501 z"
             style="fill:#404040;"/>
          </a>
         </g>
        </svg>
</svg>
