<?xml version="1.0" encoding="UTF-8" standalone="no"?>
<!DOCTYPE svg PUBLIC "-//W3C//DTD SVG 1.1//EN"
 "http://www.w3.org/Graphics/SVG/1.1/DTD/svg11.dtd">
<!-- Generated by graphviz version 2.40.1 (20161225.0304)
 -->
<!-- Title: TooSigning_init_hmac Pages: 1 -->
<svg width="1038pt" height="104pt"
 viewBox="0.00 0.00 1038.00 104.00" xmlns="http://www.w3.org/2000/svg" xmlns:xlink="http://www.w3.org/1999/xlink">
<g id="graph0" class="graph" transform="scale(1 1) rotate(0) translate(4 100)">
<title>TooSigning_init_hmac</title>
<polygon fill="#ffffff" stroke="transparent" points="-4,4 -4,-100 1034,-100 1034,4 -4,4"/>
<!-- Node21 -->
<g id="node1" class="node">
<title>Node21</title>
<polygon fill="#bfbfbf" stroke="#000000" points="0,-38.5 0,-57.5 113,-57.5 113,-38.5 0,-38.5"/>
<text text-anchor="middle" x="56.5" y="-45.5" font-family="Helvetica,sans-Serif" font-size="10.00" fill="#000000">TooSigning_init_hmac</text>
</g>
<!-- Node22 -->
<g id="node2" class="node">
<title>Node22</title>
<g id="a_node2"><a xlink:href="classSha256Class.html#a73d3dcea6eb667fd146d12aa5d106939" target="_top" xlink:title="Sha256Class::initHmac">
<polygon fill="#ffffff" stroke="#000000" points="149,-38.5 149,-57.5 269,-57.5 269,-38.5 149,-38.5"/>
<text text-anchor="middle" x="209" y="-45.5" font-family="Helvetica,sans-Serif" font-size="10.00" fill="#000000">Sha256Class::initHmac</text>
</a>
</g>
</g>
<!-- Node21&#45;&gt;Node22 -->
<g id="edge1" class="edge">
<title>Node21&#45;&gt;Node22</title>
<path fill="none" stroke="#191970" d="M113.2854,-48C121.5334,-48 130.1071,-48 138.584,-48"/>
<polygon fill="#191970" stroke="#191970" points="138.8477,-51.5001 148.8477,-48 138.8477,-44.5001 138.8477,-51.5001"/>
</g>
<!-- Node23 -->
<g id="node3" class="node">
<title>Node23</title>
<g id="a_node3"><a xlink:href="classSha256Class.html#ac1025d69c51fcd1b882ee41114e58339" target="_top" xlink:title="Sha256Class::init">
<polygon fill="#ffffff" stroke="#000000" points="310.5,-76.5 310.5,-95.5 404.5,-95.5 404.5,-76.5 310.5,-76.5"/>
<text text-anchor="middle" x="357.5" y="-83.5" font-family="Helvetica,sans-Serif" font-size="10.00" fill="#000000">Sha256Class::init</text>
</a>
</g>
</g>
<!-- Node22&#45;&gt;Node23 -->
<g id="edge2" class="edge">
<title>Node22&#45;&gt;Node23</title>
<path fill="none" stroke="#191970" d="M246.4728,-57.589C265.8925,-62.5583 289.8025,-68.6767 310.4542,-73.9613"/>
<polygon fill="#191970" stroke="#191970" points="309.7411,-77.3916 320.2966,-76.4799 311.4765,-70.6101 309.7411,-77.3916"/>
</g>
<!-- Node24 -->
<g id="node4" class="node">
<title>Node24</title>
<g id="a_node4"><a xlink:href="classSha256Class.html#a0f0fc4bd4d8c53d232df0d41d7ea25e0" target="_top" xlink:title="Sha256Class::write">
<polygon fill="#ffffff" stroke="#000000" points="446,-38.5 446,-57.5 548,-57.5 548,-38.5 446,-38.5"/>
<text text-anchor="middle" x="497" y="-45.5" font-family="Helvetica,sans-Serif" font-size="10.00" fill="#000000">Sha256Class::write</text>
</a>
</g>
</g>
<!-- Node22&#45;&gt;Node24 -->
<g id="edge3" class="edge">
<title>Node22&#45;&gt;Node24</title>
<path fill="none" stroke="#191970" d="M269.0237,-48C317.8117,-48 386.3683,-48 435.5392,-48"/>
<polygon fill="#191970" stroke="#191970" points="435.7234,-51.5001 445.7234,-48 435.7234,-44.5001 435.7234,-51.5001"/>
</g>
<!-- Node28 -->
<g id="node8" class="node">
<title>Node28</title>
<g id="a_node8"><a xlink:href="classSha256Class.html#a0ca245a22f8b056a3d1902da3c64b705" target="_top" xlink:title="Sha256Class::result">
<polygon fill="#ffffff" stroke="#000000" points="305,-.5 305,-19.5 410,-19.5 410,-.5 305,-.5"/>
<text text-anchor="middle" x="357.5" y="-7.5" font-family="Helvetica,sans-Serif" font-size="10.00" fill="#000000">Sha256Class::result</text>
</a>
</g>
</g>
<!-- Node22&#45;&gt;Node28 -->
<g id="edge7" class="edge">
<title>Node22&#45;&gt;Node28</title>
<path fill="none" stroke="#191970" d="M246.4728,-38.411C265.8925,-33.4417 289.8025,-27.3233 310.4542,-22.0387"/>
<polygon fill="#191970" stroke="#191970" points="311.4765,-25.3899 320.2966,-19.5201 309.7411,-18.6084 311.4765,-25.3899"/>
</g>
<!-- Node25 -->
<g id="node5" class="node">
<title>Node25</title>
<g id="a_node5"><a xlink:href="classSha256Class.html#ab0b46743e3d59b1c68f52ed89dfaff50" target="_top" xlink:title="Sha256Class::addUncounted">
<polygon fill="#ffffff" stroke="#000000" points="584,-19.5 584,-38.5 728,-38.5 728,-19.5 584,-19.5"/>
<text text-anchor="middle" x="656" y="-26.5" font-family="Helvetica,sans-Serif" font-size="10.00" fill="#000000">Sha256Class::addUncounted</text>
</a>
</g>
</g>
<!-- Node24&#45;&gt;Node25 -->
<g id="edge4" class="edge">
<title>Node24&#45;&gt;Node25</title>
<path fill="none" stroke="#191970" d="M548.1838,-41.8837C556.3401,-40.909 564.9537,-39.8797 573.6131,-38.845"/>
<polygon fill="#191970" stroke="#191970" points="574.2608,-42.2926 583.7748,-37.6307 573.4302,-35.342 574.2608,-42.2926"/>
</g>
<!-- Node26 -->
<g id="node6" class="node">
<title>Node26</title>
<g id="a_node6"><a xlink:href="classSha256Class.html#a399d2a23951e2130f54af8ac7712068f" target="_top" xlink:title="Sha256Class::hashBlock">
<polygon fill="#ffffff" stroke="#000000" points="764,-19.5 764,-38.5 891,-38.5 891,-19.5 764,-19.5"/>
<text text-anchor="middle" x="827.5" y="-26.5" font-family="Helvetica,sans-Serif" font-size="10.00" fill="#000000">Sha256Class::hashBlock</text>
</a>
</g>
</g>
<!-- Node25&#45;&gt;Node26 -->
<g id="edge5" class="edge">
<title>Node25&#45;&gt;Node26</title>
<path fill="none" stroke="#191970" d="M728.2344,-29C736.6298,-29 745.2026,-29 753.6198,-29"/>
<polygon fill="#191970" stroke="#191970" points="753.7873,-32.5001 763.7873,-29 753.7873,-25.5001 753.7873,-32.5001"/>
</g>
<!-- Node27 -->
<g id="node7" class="node">
<title>Node27</title>
<g id="a_node7"><a xlink:href="classSha256Class.html#ae275718ce9813bb33b2d8d8fbf018bd6" target="_top" xlink:title="Sha256Class::ror32">
<polygon fill="#ffffff" stroke="#000000" points="927,-19.5 927,-38.5 1030,-38.5 1030,-19.5 927,-19.5"/>
<text text-anchor="middle" x="978.5" y="-26.5" font-family="Helvetica,sans-Serif" font-size="10.00" fill="#000000">Sha256Class::ror32</text>
</a>
</g>
</g>
<!-- Node26&#45;&gt;Node27 -->
<g id="edge6" class="edge">
<title>Node26&#45;&gt;Node27</title>
<path fill="none" stroke="#191970" d="M891.1,-29C899.5806,-29 908.2667,-29 916.7157,-29"/>
<polygon fill="#191970" stroke="#191970" points="916.8743,-32.5001 926.8743,-29 916.8742,-25.5001 916.8743,-32.5001"/>
</g>
<!-- Node29 -->
<g id="node9" class="node">
<title>Node29</title>
<g id="a_node9"><a xlink:href="classSha256Class.html#a82049dae520ccf0bd8478f2aef639149" target="_top" xlink:title="Sha256Class::pad">
<polygon fill="#ffffff" stroke="#000000" points="448.5,-.5 448.5,-19.5 545.5,-19.5 545.5,-.5 448.5,-.5"/>
<text text-anchor="middle" x="497" y="-7.5" font-family="Helvetica,sans-Serif" font-size="10.00" fill="#000000">Sha256Class::pad</text>
</a>
</g>
</g>
<!-- Node28&#45;&gt;Node29 -->
<g id="edge8" class="edge">
<title>Node28&#45;&gt;Node29</title>
<path fill="none" stroke="#191970" d="M410.239,-10C419.3205,-10 428.8118,-10 438.0444,-10"/>
<polygon fill="#191970" stroke="#191970" points="438.3229,-13.5001 448.3229,-10 438.3229,-6.5001 438.3229,-13.5001"/>
</g>
<!-- Node29&#45;&gt;Node25 -->
<g id="edge9" class="edge">
<title>Node29&#45;&gt;Node25</title>
<path fill="none" stroke="#191970" d="M545.5692,-15.8039C554.5163,-16.873 564.0826,-18.0162 573.7037,-19.1658"/>
<polygon fill="#191970" stroke="#191970" points="573.3812,-22.6521 583.7259,-20.3635 574.2119,-15.7016 573.3812,-22.6521"/>
</g>
</g>
</svg>
