<?xml version="1.0" encoding="UTF-8" standalone="no"?>
<!DOCTYPE svg PUBLIC "-//W3C//DTD SVG 1.1//EN"
 "http://www.w3.org/Graphics/SVG/1.1/DTD/svg11.dtd">
<!-- Generated by graphviz version 2.40.1 (20161225.0304)
 -->
<!-- Title: TooSigning_received_noncelist_find_from_ID Pages: 1 -->
<svg width="678pt" height="170pt"
 viewBox="0.00 0.00 678.00 170.00" xmlns="http://www.w3.org/2000/svg" xmlns:xlink="http://www.w3.org/1999/xlink">
<g id="graph0" class="graph" transform="scale(1 1) rotate(0) translate(4 166)">
<title>TooSigning_received_noncelist_find_from_ID</title>
<polygon fill="#ffffff" stroke="transparent" points="-4,4 -4,-166 674,-166 674,4 -4,4"/>
<!-- Node35 -->
<g id="node1" class="node">
<title>Node35</title>
<polygon fill="#bfbfbf" stroke="#000000" points="0,-68.5 0,-98.5 122,-98.5 122,-68.5 0,-68.5"/>
<text text-anchor="start" x="8" y="-86.5" font-family="Helvetica,sans-Serif" font-size="10.00" fill="#000000">TooSigning_received</text>
<text text-anchor="middle" x="61" y="-75.5" font-family="Helvetica,sans-Serif" font-size="10.00" fill="#000000">_noncelist_find_from_ID</text>
</g>
<!-- Node36 -->
<g id="node2" class="node">
<title>Node36</title>
<g id="a_node2"><a xlink:href="TooNetworking_8h.html#a9209f3e1a2fdf0b3b88d49105b8fc359" target="_top" xlink:title="TooNetworking_send\l_signed">
<polygon fill="#ffffff" stroke="#000000" points="158,-131.5 158,-161.5 267,-161.5 267,-131.5 158,-131.5"/>
<text text-anchor="start" x="166" y="-149.5" font-family="Helvetica,sans-Serif" font-size="10.00" fill="#000000">TooNetworking_send</text>
<text text-anchor="middle" x="212.5" y="-138.5" font-family="Helvetica,sans-Serif" font-size="10.00" fill="#000000">_signed</text>
</a>
</g>
</g>
<!-- Node35&#45;&gt;Node36 -->
<g id="edge1" class="edge">
<title>Node35&#45;&gt;Node36</title>
<path fill="none" stroke="#191970" d="M106.5622,-102.4467C128.8646,-111.7209 155.341,-122.7309 176.2458,-131.424"/>
<polygon fill="#191970" stroke="#191970" points="107.8654,-99.1981 97.288,-98.5901 105.1776,-105.6615 107.8654,-99.1981"/>
</g>
<!-- Node37 -->
<g id="node3" class="node">
<title>Node37</title>
<g id="a_node3"><a xlink:href="TooNetworking_8h.html#a085ff748b00f6be4ebafcae2bb0dded1" target="_top" xlink:title="TooNetworking_bufferlist\l_send_signed">
<polygon fill="#ffffff" stroke="#000000" points="303,-98.5 303,-128.5 428,-128.5 428,-98.5 303,-98.5"/>
<text text-anchor="start" x="311" y="-116.5" font-family="Helvetica,sans-Serif" font-size="10.00" fill="#000000">TooNetworking_bufferlist</text>
<text text-anchor="middle" x="365.5" y="-105.5" font-family="Helvetica,sans-Serif" font-size="10.00" fill="#000000">_send_signed</text>
</a>
</g>
</g>
<!-- Node35&#45;&gt;Node37 -->
<g id="edge2" class="edge">
<title>Node35&#45;&gt;Node37</title>
<path fill="none" stroke="#191970" d="M132.3436,-90.5289C184.0155,-95.6198 253.2112,-102.4371 302.7752,-107.3202"/>
<polygon fill="#191970" stroke="#191970" points="132.5488,-87.0323 122.2538,-89.5349 131.8624,-93.9986 132.5488,-87.0323"/>
</g>
<!-- Node39 -->
<g id="node5" class="node">
<title>Node39</title>
<g id="a_node5"><a xlink:href="TooNetworking_8h.html#ab58e06e0eb6f2f8ecbebeaf3c173fb22" target="_top" xlink:title="TooNetworking_bufferlist\l_send_all">
<polygon fill="#ffffff" stroke="#000000" points="303,-49.5 303,-79.5 428,-79.5 428,-49.5 303,-49.5"/>
<text text-anchor="start" x="311" y="-67.5" font-family="Helvetica,sans-Serif" font-size="10.00" fill="#000000">TooNetworking_bufferlist</text>
<text text-anchor="middle" x="365.5" y="-56.5" font-family="Helvetica,sans-Serif" font-size="10.00" fill="#000000">_send_all</text>
</a>
</g>
</g>
<!-- Node35&#45;&gt;Node39 -->
<g id="edge4" class="edge">
<title>Node35&#45;&gt;Node39</title>
<path fill="none" stroke="#191970" d="M132.3436,-79.0483C184.0155,-75.8242 253.2112,-71.5065 302.7752,-68.4139"/>
<polygon fill="#191970" stroke="#191970" points="132.0164,-75.5619 122.2538,-79.6779 132.4524,-82.5483 132.0164,-75.5619"/>
</g>
<!-- Node41 -->
<g id="node7" class="node">
<title>Node41</title>
<g id="a_node7"><a xlink:href="TooSigning_8h.html#a03dcb29c3bb1c45c6583cd6a5d731523" target="_top" xlink:title="TooSigning_received\l_noncelist_add">
<polygon fill="#ffffff" stroke="#000000" points="159,-3.5 159,-33.5 266,-33.5 266,-3.5 159,-3.5"/>
<text text-anchor="start" x="167" y="-21.5" font-family="Helvetica,sans-Serif" font-size="10.00" fill="#000000">TooSigning_received</text>
<text text-anchor="middle" x="212.5" y="-10.5" font-family="Helvetica,sans-Serif" font-size="10.00" fill="#000000">_noncelist_add</text>
</a>
</g>
</g>
<!-- Node35&#45;&gt;Node41 -->
<g id="edge7" class="edge">
<title>Node35&#45;&gt;Node41</title>
<path fill="none" stroke="#191970" d="M105.626,-64.3535C128.4917,-54.5431 155.9376,-42.7677 177.2905,-33.6064"/>
<polygon fill="#191970" stroke="#191970" points="103.9478,-61.2649 96.1379,-68.4243 106.7078,-67.6979 103.9478,-61.2649"/>
</g>
<!-- Node38 -->
<g id="node4" class="node">
<title>Node38</title>
<g id="a_node4"><a xlink:href="NODE__SKETCH__TooAutomation__Node_8ino_8cpp.html#a0b33edabd7f1c4e4a0bf32c67269be2f" target="_top" xlink:title="loop">
<polygon fill="#ffffff" stroke="#000000" points="635,-77 635,-96 670,-96 670,-77 635,-77"/>
<text text-anchor="middle" x="652.5" y="-84" font-family="Helvetica,sans-Serif" font-size="10.00" fill="#000000">loop</text>
</a>
</g>
</g>
<!-- Node37&#45;&gt;Node38 -->
<g id="edge3" class="edge">
<title>Node37&#45;&gt;Node38</title>
<path fill="none" stroke="#191970" d="M438.4555,-106.6366C504.2868,-100.4434 596.4848,-91.7697 634.7613,-88.1688"/>
<polygon fill="#191970" stroke="#191970" points="437.7569,-103.1868 428.1287,-107.6081 438.4126,-110.156 437.7569,-103.1868"/>
</g>
<!-- Node40 -->
<g id="node6" class="node">
<title>Node40</title>
<g id="a_node6"><a xlink:href="TooNetworking_8h.html#a7382ba1aed5405c3adc02011ea6c45dd" target="_top" xlink:title="TooNetworking_connection\l_maintenance">
<polygon fill="#ffffff" stroke="#000000" points="464,-49.5 464,-79.5 599,-79.5 599,-49.5 464,-49.5"/>
<text text-anchor="start" x="472" y="-67.5" font-family="Helvetica,sans-Serif" font-size="10.00" fill="#000000">TooNetworking_connection</text>
<text text-anchor="middle" x="531.5" y="-56.5" font-family="Helvetica,sans-Serif" font-size="10.00" fill="#000000">_maintenance</text>
</a>
</g>
</g>
<!-- Node39&#45;&gt;Node40 -->
<g id="edge5" class="edge">
<title>Node39&#45;&gt;Node40</title>
<path fill="none" stroke="#191970" d="M438.4873,-64.5C446.951,-64.5 455.5556,-64.5 463.9422,-64.5"/>
<polygon fill="#191970" stroke="#191970" points="438.2575,-61.0001 428.2575,-64.5 438.2574,-68.0001 438.2575,-61.0001"/>
</g>
<!-- Node40&#45;&gt;Node38 -->
<g id="edge6" class="edge">
<title>Node40&#45;&gt;Node38</title>
<path fill="none" stroke="#191970" d="M609.1566,-78.6194C618.6588,-80.347 627.5454,-81.9628 634.7679,-83.276"/>
<polygon fill="#191970" stroke="#191970" points="609.5402,-75.1318 599.0754,-76.7864 608.288,-82.0189 609.5402,-75.1318"/>
</g>
<!-- Node42 -->
<g id="node8" class="node">
<title>Node42</title>
<g id="a_node8"><a xlink:href="TooSigning_8cpp.html#a03df9fd005c518d1114f912ae7da9f06" target="_top" xlink:title="TooSigning_unsigned\l_network_available">
<polygon fill="#ffffff" stroke="#000000" points="310.5,-.5 310.5,-30.5 420.5,-30.5 420.5,-.5 310.5,-.5"/>
<text text-anchor="start" x="318.5" y="-18.5" font-family="Helvetica,sans-Serif" font-size="10.00" fill="#000000">TooSigning_unsigned</text>
<text text-anchor="middle" x="365.5" y="-7.5" font-family="Helvetica,sans-Serif" font-size="10.00" fill="#000000">_network_available</text>
</a>
</g>
</g>
<!-- Node41&#45;&gt;Node42 -->
<g id="edge8" class="edge">
<title>Node41&#45;&gt;Node42</title>
<path fill="none" stroke="#191970" d="M276.298,-17.2491C287.6483,-17.0265 299.3823,-16.7964 310.4628,-16.5792"/>
<polygon fill="#191970" stroke="#191970" points="275.9414,-13.7553 266.012,-17.4507 276.0787,-20.7539 275.9414,-13.7553"/>
</g>
<!-- Node42&#45;&gt;Node40 -->
<g id="edge9" class="edge">
<title>Node42&#45;&gt;Node40</title>
<path fill="none" stroke="#191970" d="M426.3677,-33.467C444.1537,-38.717 463.4024,-44.3989 480.5089,-49.4484"/>
<polygon fill="#191970" stroke="#191970" points="427.2418,-30.0757 416.66,-30.6014 425.26,-36.7894 427.2418,-30.0757"/>
</g>
</g>
</svg>
