<?xml version="1.0" encoding="UTF-8" standalone="no"?>
<!DOCTYPE svg PUBLIC "-//W3C//DTD SVG 1.1//EN"
 "http://www.w3.org/Graphics/SVG/1.1/DTD/svg11.dtd">
<!-- Generated by graphviz version 2.40.1 (20161225.0304)
 -->
<!-- Title: TooSigning_get_hmac Pages: 1 -->
<svg width="1049pt" height="85pt"
 viewBox="0.00 0.00 1049.00 85.00" xmlns="http://www.w3.org/2000/svg" xmlns:xlink="http://www.w3.org/1999/xlink">
<g id="graph0" class="graph" transform="scale(1 1) rotate(0) translate(4 81)">
<title>TooSigning_get_hmac</title>
<polygon fill="#ffffff" stroke="transparent" points="-4,4 -4,-81 1045,-81 1045,4 -4,4"/>
<!-- Node0 -->
<g id="node1" class="node">
<title>Node0</title>
<polygon fill="#bfbfbf" stroke="#000000" points="0,-19.5 0,-38.5 113,-38.5 113,-19.5 0,-19.5"/>
<text text-anchor="middle" x="56.5" y="-26.5" font-family="Helvetica,sans-Serif" font-size="10.00" fill="#000000">TooSigning_get_hmac</text>
</g>
<!-- Node1 -->
<g id="node2" class="node">
<title>Node1</title>
<g id="a_node2"><a xlink:href="classSha256Class.html#a7556f29cadf7eaca21a537df41318af3" target="_top" xlink:title="Sha256Class::resultHmac">
<polygon fill="#ffffff" stroke="#000000" points="149,-19.5 149,-38.5 280,-38.5 280,-19.5 149,-19.5"/>
<text text-anchor="middle" x="214.5" y="-26.5" font-family="Helvetica,sans-Serif" font-size="10.00" fill="#000000">Sha256Class::resultHmac</text>
</a>
</g>
</g>
<!-- Node0&#45;&gt;Node1 -->
<g id="edge1" class="edge">
<title>Node0&#45;&gt;Node1</title>
<path fill="none" stroke="#191970" d="M113.0954,-29C121.4327,-29 130.1329,-29 138.7807,-29"/>
<polygon fill="#191970" stroke="#191970" points="138.8834,-32.5001 148.8834,-29 138.8833,-25.5001 138.8834,-32.5001"/>
</g>
<!-- Node2 -->
<g id="node3" class="node">
<title>Node2</title>
<g id="a_node3"><a xlink:href="classSha256Class.html#a0ca245a22f8b056a3d1902da3c64b705" target="_top" xlink:title="Sha256Class::result">
<polygon fill="#ffffff" stroke="#000000" points="316,-57.5 316,-76.5 421,-76.5 421,-57.5 316,-57.5"/>
<text text-anchor="middle" x="368.5" y="-64.5" font-family="Helvetica,sans-Serif" font-size="10.00" fill="#000000">Sha256Class::result</text>
</a>
</g>
</g>
<!-- Node1&#45;&gt;Node2 -->
<g id="edge2" class="edge">
<title>Node1&#45;&gt;Node2</title>
<path fill="none" stroke="#191970" d="M253.3607,-38.589C273.5911,-43.5809 298.5207,-49.7324 320.0036,-55.0334"/>
<polygon fill="#191970" stroke="#191970" points="319.3714,-58.4823 329.9187,-57.4799 321.0485,-51.6861 319.3714,-58.4823"/>
</g>
<!-- Node7 -->
<g id="node8" class="node">
<title>Node7</title>
<g id="a_node8"><a xlink:href="classSha256Class.html#ac1025d69c51fcd1b882ee41114e58339" target="_top" xlink:title="Sha256Class::init">
<polygon fill="#ffffff" stroke="#000000" points="321.5,-19.5 321.5,-38.5 415.5,-38.5 415.5,-19.5 321.5,-19.5"/>
<text text-anchor="middle" x="368.5" y="-26.5" font-family="Helvetica,sans-Serif" font-size="10.00" fill="#000000">Sha256Class::init</text>
</a>
</g>
</g>
<!-- Node1&#45;&gt;Node7 -->
<g id="edge7" class="edge">
<title>Node1&#45;&gt;Node7</title>
<path fill="none" stroke="#191970" d="M280.2566,-29C290.4499,-29 300.912,-29 310.9073,-29"/>
<polygon fill="#191970" stroke="#191970" points="311.1237,-32.5001 321.1237,-29 311.1236,-25.5001 311.1237,-32.5001"/>
</g>
<!-- Node8 -->
<g id="node9" class="node">
<title>Node8</title>
<g id="a_node9"><a xlink:href="classSha256Class.html#a0f0fc4bd4d8c53d232df0d41d7ea25e0" target="_top" xlink:title="Sha256Class::write">
<polygon fill="#ffffff" stroke="#000000" points="457,-.5 457,-19.5 559,-19.5 559,-.5 457,-.5"/>
<text text-anchor="middle" x="508" y="-7.5" font-family="Helvetica,sans-Serif" font-size="10.00" fill="#000000">Sha256Class::write</text>
</a>
</g>
</g>
<!-- Node1&#45;&gt;Node8 -->
<g id="edge8" class="edge">
<title>Node1&#45;&gt;Node8</title>
<path fill="none" stroke="#191970" d="M255.7383,-19.489C274.0801,-15.7238 296.007,-11.8552 316,-10 359.5356,-5.9603 408.8635,-6.0603 446.6187,-7.1184"/>
<polygon fill="#191970" stroke="#191970" points="446.8423,-10.6269 456.9463,-7.4395 447.06,-3.6303 446.8423,-10.6269"/>
</g>
<!-- Node3 -->
<g id="node4" class="node">
<title>Node3</title>
<g id="a_node4"><a xlink:href="classSha256Class.html#a82049dae520ccf0bd8478f2aef639149" target="_top" xlink:title="Sha256Class::pad">
<polygon fill="#ffffff" stroke="#000000" points="459.5,-47.5 459.5,-66.5 556.5,-66.5 556.5,-47.5 459.5,-47.5"/>
<text text-anchor="middle" x="508" y="-54.5" font-family="Helvetica,sans-Serif" font-size="10.00" fill="#000000">Sha256Class::pad</text>
</a>
</g>
</g>
<!-- Node2&#45;&gt;Node3 -->
<g id="edge3" class="edge">
<title>Node2&#45;&gt;Node3</title>
<path fill="none" stroke="#191970" d="M421.239,-63.2194C430.4181,-62.5614 440.0159,-61.8734 449.3422,-61.2049"/>
<polygon fill="#191970" stroke="#191970" points="449.5988,-64.6955 459.3229,-60.4894 449.0982,-57.7135 449.5988,-64.6955"/>
</g>
<!-- Node4 -->
<g id="node5" class="node">
<title>Node4</title>
<g id="a_node5"><a xlink:href="classSha256Class.html#ab0b46743e3d59b1c68f52ed89dfaff50" target="_top" xlink:title="Sha256Class::addUncounted">
<polygon fill="#ffffff" stroke="#000000" points="595,-19.5 595,-38.5 739,-38.5 739,-19.5 595,-19.5"/>
<text text-anchor="middle" x="667" y="-26.5" font-family="Helvetica,sans-Serif" font-size="10.00" fill="#000000">Sha256Class::addUncounted</text>
</a>
</g>
</g>
<!-- Node3&#45;&gt;Node4 -->
<g id="edge4" class="edge">
<title>Node3&#45;&gt;Node4</title>
<path fill="none" stroke="#191970" d="M556.5692,-48.4469C571.1778,-45.8743 587.4373,-43.011 602.8901,-40.2898"/>
<polygon fill="#191970" stroke="#191970" points="603.6615,-43.7079 612.9029,-38.5265 602.4474,-36.814 603.6615,-43.7079"/>
</g>
<!-- Node5 -->
<g id="node6" class="node">
<title>Node5</title>
<g id="a_node6"><a xlink:href="classSha256Class.html#a399d2a23951e2130f54af8ac7712068f" target="_top" xlink:title="Sha256Class::hashBlock">
<polygon fill="#ffffff" stroke="#000000" points="775,-19.5 775,-38.5 902,-38.5 902,-19.5 775,-19.5"/>
<text text-anchor="middle" x="838.5" y="-26.5" font-family="Helvetica,sans-Serif" font-size="10.00" fill="#000000">Sha256Class::hashBlock</text>
</a>
</g>
</g>
<!-- Node4&#45;&gt;Node5 -->
<g id="edge5" class="edge">
<title>Node4&#45;&gt;Node5</title>
<path fill="none" stroke="#191970" d="M739.2344,-29C747.6298,-29 756.2026,-29 764.6198,-29"/>
<polygon fill="#191970" stroke="#191970" points="764.7873,-32.5001 774.7873,-29 764.7873,-25.5001 764.7873,-32.5001"/>
</g>
<!-- Node6 -->
<g id="node7" class="node">
<title>Node6</title>
<g id="a_node7"><a xlink:href="classSha256Class.html#ae275718ce9813bb33b2d8d8fbf018bd6" target="_top" xlink:title="Sha256Class::ror32">
<polygon fill="#ffffff" stroke="#000000" points="938,-19.5 938,-38.5 1041,-38.5 1041,-19.5 938,-19.5"/>
<text text-anchor="middle" x="989.5" y="-26.5" font-family="Helvetica,sans-Serif" font-size="10.00" fill="#000000">Sha256Class::ror32</text>
</a>
</g>
</g>
<!-- Node5&#45;&gt;Node6 -->
<g id="edge6" class="edge">
<title>Node5&#45;&gt;Node6</title>
<path fill="none" stroke="#191970" d="M902.1,-29C910.5806,-29 919.2667,-29 927.7157,-29"/>
<polygon fill="#191970" stroke="#191970" points="927.8743,-32.5001 937.8743,-29 927.8742,-25.5001 927.8743,-32.5001"/>
</g>
<!-- Node8&#45;&gt;Node4 -->
<g id="edge9" class="edge">
<title>Node8&#45;&gt;Node4</title>
<path fill="none" stroke="#191970" d="M559.1838,-16.1163C567.3401,-17.091 575.9537,-18.1203 584.6131,-19.155"/>
<polygon fill="#191970" stroke="#191970" points="584.4302,-22.658 594.7748,-20.3693 585.2608,-15.7074 584.4302,-22.658"/>
</g>
</g>
</svg>
