<?xml version="1.0" encoding="UTF-8" standalone="no"?>
<!DOCTYPE svg PUBLIC "-//W3C//DTD SVG 1.1//EN"
 "http://www.w3.org/Graphics/SVG/1.1/DTD/svg11.dtd">
<!-- Generated by graphviz version 2.40.1 (20161225.0304)
 -->
<!-- Title: TooSigning_sent_noncelist_remove Pages: 1 -->
<svg width="729pt" height="39pt"
 viewBox="0.00 0.00 729.00 39.00" xmlns="http://www.w3.org/2000/svg" xmlns:xlink="http://www.w3.org/1999/xlink">
<g id="graph0" class="graph" transform="scale(1 1) rotate(0) translate(4 35)">
<title>TooSigning_sent_noncelist_remove</title>
<polygon fill="#ffffff" stroke="transparent" points="-4,4 -4,-35 725,-35 725,4 -4,4"/>
<!-- Node129 -->
<g id="node1" class="node">
<title>Node129</title>
<polygon fill="#bfbfbf" stroke="#000000" points="0,-.5 0,-30.5 134,-30.5 134,-.5 0,-.5"/>
<text text-anchor="start" x="8" y="-18.5" font-family="Helvetica,sans-Serif" font-size="10.00" fill="#000000">TooSigning_sent_noncelist</text>
<text text-anchor="middle" x="67" y="-7.5" font-family="Helvetica,sans-Serif" font-size="10.00" fill="#000000">_remove</text>
</g>
<!-- Node130 -->
<g id="node2" class="node">
<title>Node130</title>
<g id="a_node2"><a xlink:href="TooSigning_8h.html#a04ec8338f416b5752386e0b98fbeba89" target="_top" xlink:title="TooSigning_sent_noncelist\l_remove_timeout">
<polygon fill="#ffffff" stroke="#000000" points="170,-.5 170,-30.5 304,-30.5 304,-.5 170,-.5"/>
<text text-anchor="start" x="178" y="-18.5" font-family="Helvetica,sans-Serif" font-size="10.00" fill="#000000">TooSigning_sent_noncelist</text>
<text text-anchor="middle" x="237" y="-7.5" font-family="Helvetica,sans-Serif" font-size="10.00" fill="#000000">_remove_timeout</text>
</a>
</g>
</g>
<!-- Node129&#45;&gt;Node130 -->
<g id="edge1" class="edge">
<title>Node129&#45;&gt;Node130</title>
<path fill="none" stroke="#191970" d="M144.4246,-15.5C152.8759,-15.5 161.4279,-15.5 169.7428,-15.5"/>
<polygon fill="#191970" stroke="#191970" points="144.1885,-12.0001 134.1885,-15.5 144.1885,-19.0001 144.1885,-12.0001"/>
</g>
<!-- Node131 -->
<g id="node3" class="node">
<title>Node131</title>
<g id="a_node3"><a xlink:href="TooSigning_8h.html#af68b8dda897cf488129c205ad532ca9e" target="_top" xlink:title="TooSigning_signed_network\l_update">
<polygon fill="#ffffff" stroke="#000000" points="340,-.5 340,-30.5 479,-30.5 479,-.5 340,-.5"/>
<text text-anchor="start" x="348" y="-18.5" font-family="Helvetica,sans-Serif" font-size="10.00" fill="#000000">TooSigning_signed_network</text>
<text text-anchor="middle" x="409.5" y="-7.5" font-family="Helvetica,sans-Serif" font-size="10.00" fill="#000000">_update</text>
</a>
</g>
</g>
<!-- Node130&#45;&gt;Node131 -->
<g id="edge2" class="edge">
<title>Node130&#45;&gt;Node131</title>
<path fill="none" stroke="#191970" d="M314.4611,-15.5C322.9491,-15.5 331.5518,-15.5 339.9358,-15.5"/>
<polygon fill="#191970" stroke="#191970" points="314.187,-12.0001 304.1869,-15.5 314.1869,-19.0001 314.187,-12.0001"/>
</g>
<!-- Node132 -->
<g id="node4" class="node">
<title>Node132</title>
<g id="a_node4"><a xlink:href="TooNetworking_8h.html#a7382ba1aed5405c3adc02011ea6c45dd" target="_top" xlink:title="TooNetworking_connection\l_maintenance">
<polygon fill="#ffffff" stroke="#000000" points="515,-.5 515,-30.5 650,-30.5 650,-.5 515,-.5"/>
<text text-anchor="start" x="523" y="-18.5" font-family="Helvetica,sans-Serif" font-size="10.00" fill="#000000">TooNetworking_connection</text>
<text text-anchor="middle" x="582.5" y="-7.5" font-family="Helvetica,sans-Serif" font-size="10.00" fill="#000000">_maintenance</text>
</a>
</g>
</g>
<!-- Node131&#45;&gt;Node132 -->
<g id="edge3" class="edge">
<title>Node131&#45;&gt;Node132</title>
<path fill="none" stroke="#191970" d="M489.6166,-15.5C498.0706,-15.5 506.6064,-15.5 514.8985,-15.5"/>
<polygon fill="#191970" stroke="#191970" points="489.3671,-12.0001 479.3671,-15.5 489.367,-19.0001 489.3671,-12.0001"/>
</g>
<!-- Node133 -->
<g id="node5" class="node">
<title>Node133</title>
<g id="a_node5"><a xlink:href="NODE__SKETCH__TooAutomation__Node_8ino_8cpp.html#a0b33edabd7f1c4e4a0bf32c67269be2f" target="_top" xlink:title="loop">
<polygon fill="#ffffff" stroke="#000000" points="686,-6 686,-25 721,-25 721,-6 686,-6"/>
<text text-anchor="middle" x="703.5" y="-13" font-family="Helvetica,sans-Serif" font-size="10.00" fill="#000000">loop</text>
</a>
</g>
</g>
<!-- Node132&#45;&gt;Node133 -->
<g id="edge4" class="edge">
<title>Node132&#45;&gt;Node133</title>
<path fill="none" stroke="#191970" d="M660.1566,-15.5C669.6588,-15.5 678.5454,-15.5 685.7679,-15.5"/>
<polygon fill="#191970" stroke="#191970" points="660.0755,-12.0001 650.0754,-15.5 660.0754,-19.0001 660.0755,-12.0001"/>
</g>
</g>
</svg>
