<?xml version="1.0" encoding="UTF-8" standalone="no"?>
<!DOCTYPE svg PUBLIC "-//W3C//DTD SVG 1.1//EN"
 "http://www.w3.org/Graphics/SVG/1.1/DTD/svg11.dtd">
<!-- Generated by graphviz version 2.40.1 (20161225.0304)
 -->
<!-- Title: TooSigning_received_noncelist_remove Pages: 1 -->
<svg width="258pt" height="39pt"
 viewBox="0.00 0.00 258.00 39.00" xmlns="http://www.w3.org/2000/svg" xmlns:xlink="http://www.w3.org/1999/xlink">
<g id="graph0" class="graph" transform="scale(1 1) rotate(0) translate(4 35)">
<title>TooSigning_received_noncelist_remove</title>
<polygon fill="#ffffff" stroke="transparent" points="-4,4 -4,-35 254,-35 254,4 -4,4"/>
<!-- Node43 -->
<g id="node1" class="node">
<title>Node43</title>
<polygon fill="#bfbfbf" stroke="#000000" points="0,-.5 0,-30.5 107,-30.5 107,-.5 0,-.5"/>
<text text-anchor="start" x="8" y="-18.5" font-family="Helvetica,sans-Serif" font-size="10.00" fill="#000000">TooSigning_received</text>
<text text-anchor="middle" x="53.5" y="-7.5" font-family="Helvetica,sans-Serif" font-size="10.00" fill="#000000">_noncelist_remove</text>
</g>
<!-- Node44 -->
<g id="node2" class="node">
<title>Node44</title>
<g id="a_node2"><a xlink:href="group__TOOSIGNING__DEBUGGING.html#gaba98f230fad779da673a83370ad7de5d" target="_top" xlink:title="TooSigning_received\l_noncelist_print">
<polygon fill="#ffffff" stroke="#000000" points="143,-.5 143,-30.5 250,-30.5 250,-.5 143,-.5"/>
<text text-anchor="start" x="151" y="-18.5" font-family="Helvetica,sans-Serif" font-size="10.00" fill="#000000">TooSigning_received</text>
<text text-anchor="middle" x="196.5" y="-7.5" font-family="Helvetica,sans-Serif" font-size="10.00" fill="#000000">_noncelist_print</text>
</a>
</g>
</g>
<!-- Node43&#45;&gt;Node44 -->
<g id="edge1" class="edge">
<title>Node43&#45;&gt;Node44</title>
<path fill="none" stroke="#191970" d="M107.1548,-15.5C115.3808,-15.5 123.9436,-15.5 132.3684,-15.5"/>
<polygon fill="#191970" stroke="#191970" points="132.5445,-19.0001 142.5445,-15.5 132.5445,-12.0001 132.5445,-19.0001"/>
</g>
</g>
</svg>
