<?xml version="1.0" encoding="UTF-8" standalone="no"?>
<!DOCTYPE svg PUBLIC "-//W3C//DTD SVG 1.1//EN"
 "http://www.w3.org/Graphics/SVG/1.1/DTD/svg11.dtd">
<!-- Generated by graphviz version 2.40.1 (20161225.0304)
 -->
<!-- Title: TooSigning_request_nonce_from_node_id Pages: 1 -->
<!--zoomable 39 -->
<svg id="main" version="1.1" xmlns="http://www.w3.org/2000/svg" xmlns:xlink="http://www.w3.org/1999/xlink" xml:space="preserve" onload="init(evt)">
<style type="text/css"><![CDATA[
.edge:hover path { stroke: red; }
.edge:hover polygon { stroke: red; fill: red; }
]]></style>
<script type="text/javascript"><![CDATA[
var edges = document.getElementsByTagName('g');
if (edges && edges.length) {
  for (var i=0;i<edges.length;i++) {
    if (edges[i].id.substr(0,4)=='edge') {
      edges[i].setAttribute('class','edge');
    }
  }
}
]]></script>
        <defs>
                <circle id="rim" cx="0" cy="0" r="7"/>
                <circle id="rim2" cx="0" cy="0" r="3.5"/>
                <g id="zoomPlus">
                        <use xlink:href="#rim" fill="#404040">
                                <set attributeName="fill" to="#808080" begin="zoomplus.mouseover" end="zoomplus.mouseout"/>
                        </use>
                        <path d="M-4,0h8M0,-4v8" fill="none" stroke="white" stroke-width="1.5" pointer-events="none"/>
                </g>
                <g id="zoomMin">
                        <use xlink:href="#rim" fill="#404040">
                                <set attributeName="fill" to="#808080" begin="zoomminus.mouseover" end="zoomminus.mouseout"/>
                        </use>
                        <path d="M-4,0h8" fill="none" stroke="white" stroke-width="1.5" pointer-events="none"/>
                </g>
                <g id="dirArrow">
                        <path fill="none" stroke="white" stroke-width="1.5" d="M0,-3.0v7 M-2.5,-0.5L0,-3.0L2.5,-0.5"/>
                </g>
               <g id="resetDef">
                       <use xlink:href="#rim2" fill="#404040">
                               <set attributeName="fill" to="#808080" begin="reset.mouseover" end="reset.mouseout"/>
                       </use>
               </g>
        </defs>

<script type="text/javascript">
var viewWidth = 686;
var viewHeight = 39;
var sectionId = 'dynsection-11';
</script>
<script xlink:href="svgpan.js"/>
<svg id="graph" class="graph">
<g id="viewport">
<title>TooSigning_request_nonce_from_node_id</title>
<polygon fill="#ffffff" stroke="transparent" points="-4,4 -4,-35 682,-35 682,4 -4,4"/>
<!-- Node58 -->
<g id="node1" class="node">
<title>Node58</title>
<polygon fill="#bfbfbf" stroke="#000000" points="0,-.5 0,-30.5 112,-30.5 112,-.5 0,-.5"/>
<text text-anchor="start" x="8" y="-18.5" font-family="Helvetica,sans-Serif" font-size="10.00" fill="#000000">TooSigning_request</text>
<text text-anchor="middle" x="56" y="-7.5" font-family="Helvetica,sans-Serif" font-size="10.00" fill="#000000">_nonce_from_node_id</text>
</g>
<!-- Node59 -->
<g id="node2" class="node">
<title>Node59</title>
<g id="a_node2"><a xlink:href="TooSigning_8h.html#af7ec4002cf8cf81195f3745703e04b22" target="_top" xlink:title="TooSigning_requested\l_noncelist_retry_all">
<polygon fill="#ffffff" stroke="#000000" points="148,-.5 148,-30.5 261,-30.5 261,-.5 148,-.5"/>
<text text-anchor="start" x="156" y="-18.5" font-family="Helvetica,sans-Serif" font-size="10.00" fill="#000000">TooSigning_requested</text>
<text text-anchor="middle" x="204.5" y="-7.5" font-family="Helvetica,sans-Serif" font-size="10.00" fill="#000000">_noncelist_retry_all</text>
</a>
</g>
</g>
<!-- Node58&#45;&gt;Node59 -->
<g id="edge1" class="edge">
<title>Node58&#45;&gt;Node59</title>
<path fill="none" stroke="#191970" d="M122.3845,-15.5C130.8629,-15.5 139.4796,-15.5 147.7858,-15.5"/>
<polygon fill="#191970" stroke="#191970" points="122.1415,-12.0001 112.1415,-15.5 122.1414,-19.0001 122.1415,-12.0001"/>
</g>
<!-- Node60 -->
<g id="node3" class="node">
<title>Node60</title>
<g id="a_node3"><a xlink:href="TooSigning_8h.html#af68b8dda897cf488129c205ad532ca9e" target="_top" xlink:title="TooSigning_signed_network\l_update">
<polygon fill="#ffffff" stroke="#000000" points="297,-.5 297,-30.5 436,-30.5 436,-.5 297,-.5"/>
<text text-anchor="start" x="305" y="-18.5" font-family="Helvetica,sans-Serif" font-size="10.00" fill="#000000">TooSigning_signed_network</text>
<text text-anchor="middle" x="366.5" y="-7.5" font-family="Helvetica,sans-Serif" font-size="10.00" fill="#000000">_update</text>
</a>
</g>
</g>
<!-- Node59&#45;&gt;Node60 -->
<g id="edge2" class="edge">
<title>Node59&#45;&gt;Node60</title>
<path fill="none" stroke="#191970" d="M271.2848,-15.5C279.6921,-15.5 288.3103,-15.5 296.7617,-15.5"/>
<polygon fill="#191970" stroke="#191970" points="271.1598,-12.0001 261.1597,-15.5 271.1597,-19.0001 271.1598,-12.0001"/>
</g>
<!-- Node61 -->
<g id="node4" class="node">
<title>Node61</title>
<g id="a_node4"><a xlink:href="TooNetworking_8h.html#a7382ba1aed5405c3adc02011ea6c45dd" target="_top" xlink:title="TooNetworking_connection\l_maintenance">
<polygon fill="#ffffff" stroke="#000000" points="472,-.5 472,-30.5 607,-30.5 607,-.5 472,-.5"/>
<text text-anchor="start" x="480" y="-18.5" font-family="Helvetica,sans-Serif" font-size="10.00" fill="#000000">TooNetworking_connection</text>
<text text-anchor="middle" x="539.5" y="-7.5" font-family="Helvetica,sans-Serif" font-size="10.00" fill="#000000">_maintenance</text>
</a>
</g>
</g>
<!-- Node60&#45;&gt;Node61 -->
<g id="edge3" class="edge">
<title>Node60&#45;&gt;Node61</title>
<path fill="none" stroke="#191970" d="M446.6166,-15.5C455.0706,-15.5 463.6064,-15.5 471.8985,-15.5"/>
<polygon fill="#191970" stroke="#191970" points="446.3671,-12.0001 436.3671,-15.5 446.367,-19.0001 446.3671,-12.0001"/>
</g>
<!-- Node62 -->
<g id="node5" class="node">
<title>Node62</title>
<g id="a_node5"><a xlink:href="NODE__SKETCH__TooAutomation__Node_8ino_8cpp.html#a0b33edabd7f1c4e4a0bf32c67269be2f" target="_top" xlink:title="loop">
<polygon fill="#ffffff" stroke="#000000" points="643,-6 643,-25 678,-25 678,-6 643,-6"/>
<text text-anchor="middle" x="660.5" y="-13" font-family="Helvetica,sans-Serif" font-size="10.00" fill="#000000">loop</text>
</a>
</g>
</g>
<!-- Node61&#45;&gt;Node62 -->
<g id="edge4" class="edge">
<title>Node61&#45;&gt;Node62</title>
<path fill="none" stroke="#191970" d="M617.1566,-15.5C626.6588,-15.5 635.5454,-15.5 642.7679,-15.5"/>
<polygon fill="#191970" stroke="#191970" points="617.0755,-12.0001 607.0754,-15.5 617.0754,-19.0001 617.0755,-12.0001"/>
</g>
</g>
</svg>
        <g id="navigator" transform="translate(0 0)" fill="#404254">
                <rect fill="#f2f5e9" fill-opacity="0.5" stroke="#606060" stroke-width=".5" x="0" y="0" width="60" height="60"/>
                <use id="zoomplus" xlink:href="#zoomPlus" x="17" y="9" onmousedown="handleZoom(evt,'in')"/>
                <use id="zoomminus" xlink:href="#zoomMin" x="42" y="9" onmousedown="handleZoom(evt,'out')"/>
                <use id="reset" xlink:href="#resetDef" x="30" y="36" onmousedown="handleReset()"/>
                <g id="arrowUp" xlink:href="#dirArrow" transform="translate(30 24)" onmousedown="handlePan(0,-1)">
                  <use xlink:href="#rim" fill="#404040">
                        <set attributeName="fill" to="#808080" begin="arrowUp.mouseover" end="arrowUp.mouseout"/>
                  </use>
                  <path fill="none" stroke="white" stroke-width="1.5" d="M0,-3.0v7 M-2.5,-0.5L0,-3.0L2.5,-0.5"/>
                </g>
                <g id="arrowRight" xlink:href="#dirArrow" transform="rotate(90) translate(36 -43)" onmousedown="handlePan(1,0)">
                  <use xlink:href="#rim" fill="#404040">
                        <set attributeName="fill" to="#808080" begin="arrowRight.mouseover" end="arrowRight.mouseout"/>
                  </use>
                  <path fill="none" stroke="white" stroke-width="1.5" d="M0,-3.0v7 M-2.5,-0.5L0,-3.0L2.5,-0.5"/>
                </g>
                <g id="arrowDown" xlink:href="#dirArrow" transform="rotate(180) translate(-30 -48)" onmousedown="handlePan(0,1)">
                  <use xlink:href="#rim" fill="#404040">
                        <set attributeName="fill" to="#808080" begin="arrowDown.mouseover" end="arrowDown.mouseout"/>
                  </use>
                  <path fill="none" stroke="white" stroke-width="1.5" d="M0,-3.0v7 M-2.5,-0.5L0,-3.0L2.5,-0.5"/>
                </g>
                <g id="arrowLeft" xlink:href="#dirArrow" transform="rotate(270) translate(-36 17)" onmousedown="handlePan(-1,0)">
                  <use xlink:href="#rim" fill="#404040">
                        <set attributeName="fill" to="#808080" begin="arrowLeft.mouseover" end="arrowLeft.mouseout"/>
                  </use>
                  <path fill="none" stroke="white" stroke-width="1.5" d="M0,-3.0v7 M-2.5,-0.5L0,-3.0L2.5,-0.5"/>
                </g>
        </g>
        <svg viewBox="0 0 15 15" width="100%" height="30px" preserveAspectRatio="xMaxYMin meet">
         <g id="arrow_out" transform="scale(0.3 0.3)">
          <a xlink:href="TooSigning_8cpp_a58143364a83636a3d2df075a95cb2bfc_icgraph_org.svg" target="_base">
           <rect id="button" ry="5" rx="5" y="6" x="6" height="38" width="38"
                fill="#f2f5e9" fill-opacity="0.5" stroke="#606060" stroke-width="1.0"/>
           <path id="arrow"
             d="M 11.500037,31.436501 C 11.940474,20.09759 22.043105,11.32322 32.158766,21.979434 L 37.068811,17.246167 C 37.068811,17.246167 37.088388,32 37.088388,32 L 22.160133,31.978069 C 22.160133,31.978069 26.997745,27.140456 26.997745,27.140456 C 18.528582,18.264221 13.291696,25.230495 11.500037,31.436501 z"
             style="fill:#404040;"/>
          </a>
         </g>
        </svg>
</svg>
