<?xml version="1.0" encoding="UTF-8" standalone="no"?>
<!DOCTYPE svg PUBLIC "-//W3C//DTD SVG 1.1//EN"
 "http://www.w3.org/Graphics/SVG/1.1/DTD/svg11.dtd">
<!-- Generated by graphviz version 2.40.1 (20161225.0304)
 -->
<!-- Title: TooSigning_requested_noncelist_add Pages: 1 -->
<svg width="680pt" height="105pt"
 viewBox="0.00 0.00 680.00 104.59" xmlns="http://www.w3.org/2000/svg" xmlns:xlink="http://www.w3.org/1999/xlink">
<g id="graph0" class="graph" transform="scale(1 1) rotate(0) translate(4 100.5931)">
<title>TooSigning_requested_noncelist_add</title>
<polygon fill="#ffffff" stroke="transparent" points="-4,4 -4,-100.5931 676,-100.5931 676,4 -4,4"/>
<!-- Node81 -->
<g id="node1" class="node">
<title>Node81</title>
<polygon fill="#bfbfbf" stroke="#000000" points="0,-10.0931 0,-40.0931 113,-40.0931 113,-10.0931 0,-10.0931"/>
<text text-anchor="start" x="8" y="-28.0931" font-family="Helvetica,sans-Serif" font-size="10.00" fill="#000000">TooSigning_requested</text>
<text text-anchor="middle" x="56.5" y="-17.0931" font-family="Helvetica,sans-Serif" font-size="10.00" fill="#000000">_noncelist_add</text>
</g>
<!-- Node82 -->
<g id="node2" class="node">
<title>Node82</title>
<g id="a_node2"><a xlink:href="TooNetworking_8h.html#a59be7e774988f57ab43c4c078c570c67" target="_top" xlink:title="TooNetworking_bufferlist_add">
<polygon fill="#ffffff" stroke="#000000" points="149,-15.5931 149,-34.5931 295,-34.5931 295,-15.5931 149,-15.5931"/>
<text text-anchor="middle" x="222" y="-22.5931" font-family="Helvetica,sans-Serif" font-size="10.00" fill="#000000">TooNetworking_bufferlist_add</text>
</a>
</g>
</g>
<!-- Node81&#45;&gt;Node82 -->
<g id="edge1" class="edge">
<title>Node81&#45;&gt;Node82</title>
<path fill="none" stroke="#191970" d="M123.5061,-25.0931C131.8556,-25.0931 140.4271,-25.0931 148.8635,-25.0931"/>
<polygon fill="#191970" stroke="#191970" points="123.4557,-21.5932 113.4557,-25.0931 123.4557,-28.5932 123.4557,-21.5932"/>
</g>
<!-- Node83 -->
<g id="node3" class="node">
<title>Node83</title>
<g id="a_node3"><a xlink:href="TooNetworking_8h.html#a9209f3e1a2fdf0b3b88d49105b8fc359" target="_top" xlink:title="TooNetworking_send\l_signed">
<polygon fill="#ffffff" stroke="#000000" points="331,-48.0931 331,-78.0931 440,-78.0931 440,-48.0931 331,-48.0931"/>
<text text-anchor="start" x="339" y="-66.0931" font-family="Helvetica,sans-Serif" font-size="10.00" fill="#000000">TooNetworking_send</text>
<text text-anchor="middle" x="385.5" y="-55.0931" font-family="Helvetica,sans-Serif" font-size="10.00" fill="#000000">_signed</text>
</a>
</g>
</g>
<!-- Node81&#45;&gt;Node83 -->
<g id="edge9" class="edge">
<title>Node81&#45;&gt;Node83</title>
<path fill="none" stroke="#191970" d="M123.1481,-39.7948C131.8171,-41.4091 140.6006,-42.8976 149,-44.0931 210.9861,-52.9153 282.7392,-57.9594 330.8085,-60.6017"/>
<polygon fill="#191970" stroke="#191970" points="123.5351,-36.3051 113.0538,-37.852 122.2121,-43.1789 123.5351,-36.3051"/>
</g>
<!-- Node84 -->
<g id="node4" class="node">
<title>Node84</title>
<g id="a_node4"><a xlink:href="TooNetworking_8h.html#a085ff748b00f6be4ebafcae2bb0dded1" target="_top" xlink:title="TooNetworking_bufferlist\l_send_signed">
<polygon fill="#ffffff" stroke="#000000" points="476,-1.0931 476,-31.0931 601,-31.0931 601,-1.0931 476,-1.0931"/>
<text text-anchor="start" x="484" y="-19.0931" font-family="Helvetica,sans-Serif" font-size="10.00" fill="#000000">TooNetworking_bufferlist</text>
<text text-anchor="middle" x="538.5" y="-8.0931" font-family="Helvetica,sans-Serif" font-size="10.00" fill="#000000">_send_signed</text>
</a>
</g>
</g>
<!-- Node81&#45;&gt;Node84 -->
<g id="edge10" class="edge">
<title>Node81&#45;&gt;Node84</title>
<path fill="none" stroke="#191970" d="M123.4313,-9.6841C131.996,-8.2028 140.6767,-6.9391 149,-6.0931 263.9098,5.5865 398.8119,-2.763 475.916,-9.6192"/>
<polygon fill="#191970" stroke="#191970" points="122.6643,-6.2662 113.4587,-11.5109 123.9257,-13.1517 122.6643,-6.2662"/>
</g>
<!-- Node82&#45;&gt;Node83 -->
<g id="edge2" class="edge">
<title>Node82&#45;&gt;Node83</title>
<path fill="none" stroke="#191970" d="M301.884,-36.911C317.2637,-40.4597 332.7314,-44.3475 346.1085,-48.0682"/>
<polygon fill="#191970" stroke="#191970" points="302.3388,-33.4255 291.813,-34.6331 300.7945,-40.253 302.3388,-33.4255"/>
</g>
<!-- Node82&#45;&gt;Node84 -->
<g id="edge8" class="edge">
<title>Node82&#45;&gt;Node84</title>
<path fill="none" stroke="#191970" d="M305.144,-22.7288C358.5688,-21.2096 426.8624,-19.2676 475.7419,-17.8777"/>
<polygon fill="#191970" stroke="#191970" points="304.9053,-19.2341 295.0089,-23.017 305.1044,-26.2312 304.9053,-19.2341"/>
</g>
<!-- Node83&#45;&gt;Node82 -->
<g id="edge3" class="edge">
<title>Node83&#45;&gt;Node82</title>
<path fill="none" stroke="#191970" d="M320.7814,-54.6695C293.1056,-48.6717 262.7045,-40.9674 243.04,-34.6854"/>
<polygon fill="#191970" stroke="#191970" points="320.3215,-58.1496 330.8296,-56.7963 321.771,-51.3014 320.3215,-58.1496"/>
</g>
<!-- Node83&#45;&gt;Node83 -->
<g id="edge4" class="edge">
<title>Node83&#45;&gt;Node83</title>
<path fill="none" stroke="#191970" d="M358.4914,-88.551C361.8436,-93.272 370.8464,-96.5931 385.5,-96.5931 409.5469,-96.5931 418.3766,-87.6497 411.9891,-78.2521"/>
<polygon fill="#191970" stroke="#191970" points="362.0026,-88.4157 359.0109,-78.2521 355.0115,-88.063 362.0026,-88.4157"/>
</g>
<!-- Node83&#45;&gt;Node84 -->
<g id="edge5" class="edge">
<title>Node83&#45;&gt;Node84</title>
<path fill="none" stroke="#191970" d="M444.0478,-45.1078C459.0895,-40.4872 475.1126,-35.565 489.6083,-31.1121"/>
<polygon fill="#191970" stroke="#191970" points="442.8622,-41.8105 434.3308,-48.0928 444.9178,-48.5019 442.8622,-41.8105"/>
</g>
<!-- Node86 -->
<g id="node6" class="node">
<title>Node86</title>
<g id="a_node6"><a xlink:href="TooNetworking_8h.html#ab58e06e0eb6f2f8ecbebeaf3c173fb22" target="_top" xlink:title="TooNetworking_bufferlist\l_send_all">
<polygon fill="#ffffff" stroke="#000000" points="476,-50.0931 476,-80.0931 601,-80.0931 601,-50.0931 476,-50.0931"/>
<text text-anchor="start" x="484" y="-68.0931" font-family="Helvetica,sans-Serif" font-size="10.00" fill="#000000">TooNetworking_bufferlist</text>
<text text-anchor="middle" x="538.5" y="-57.0931" font-family="Helvetica,sans-Serif" font-size="10.00" fill="#000000">_send_all</text>
</a>
</g>
</g>
<!-- Node83&#45;&gt;Node86 -->
<g id="edge7" class="edge">
<title>Node83&#45;&gt;Node86</title>
<path fill="none" stroke="#191970" d="M450.4187,-63.9417C458.811,-64.0514 467.3936,-64.1636 475.7499,-64.2728"/>
<polygon fill="#191970" stroke="#191970" points="450.3493,-60.4406 440.3044,-63.8095 450.2577,-67.44 450.3493,-60.4406"/>
</g>
<!-- Node85 -->
<g id="node5" class="node">
<title>Node85</title>
<g id="a_node5"><a xlink:href="NODE__SKETCH__TooAutomation__Node_8ino_8cpp.html#a0b33edabd7f1c4e4a0bf32c67269be2f" target="_top" xlink:title="loop">
<polygon fill="#ffffff" stroke="#000000" points="637,-6.5931 637,-25.5931 672,-25.5931 672,-6.5931 637,-6.5931"/>
<text text-anchor="middle" x="654.5" y="-13.5931" font-family="Helvetica,sans-Serif" font-size="10.00" fill="#000000">loop</text>
</a>
</g>
</g>
<!-- Node84&#45;&gt;Node85 -->
<g id="edge6" class="edge">
<title>Node84&#45;&gt;Node85</title>
<path fill="none" stroke="#191970" d="M611.5149,-16.0931C620.8175,-16.0931 629.5667,-16.0931 636.7123,-16.0931"/>
<polygon fill="#191970" stroke="#191970" points="611.2531,-12.5932 601.2531,-16.0931 611.253,-19.5932 611.2531,-12.5932"/>
</g>
</g>
</svg>
