<?xml version="1.0" encoding="UTF-8" standalone="no"?>
<!DOCTYPE svg PUBLIC "-//W3C//DTD SVG 1.1//EN"
 "http://www.w3.org/Graphics/SVG/1.1/DTD/svg11.dtd">
<!-- Generated by graphviz version 2.40.1 (20161225.0304)
 -->
<!-- Title: TooSigning_requested_noncelist_add Pages: 1 -->
<svg width="609pt" height="93pt"
 viewBox="0.00 0.00 609.00 92.99" xmlns="http://www.w3.org/2000/svg" xmlns:xlink="http://www.w3.org/1999/xlink">
<g id="graph0" class="graph" transform="scale(1 1) rotate(0) translate(4 88.9937)">
<title>TooSigning_requested_noncelist_add</title>
<polygon fill="#ffffff" stroke="transparent" points="-4,4 -4,-88.9937 605,-88.9937 605,4 -4,4"/>
<!-- Node66 -->
<g id="node1" class="node">
<title>Node66</title>
<polygon fill="#bfbfbf" stroke="#000000" points="0,-9.4937 0,-39.4937 113,-39.4937 113,-9.4937 0,-9.4937"/>
<text text-anchor="start" x="8" y="-27.4937" font-family="Helvetica,sans-Serif" font-size="10.00" fill="#000000">TooSigning_requested</text>
<text text-anchor="middle" x="56.5" y="-16.4937" font-family="Helvetica,sans-Serif" font-size="10.00" fill="#000000">_noncelist_add</text>
</g>
<!-- Node67 -->
<g id="node2" class="node">
<title>Node67</title>
<g id="a_node2"><a xlink:href="TooNetworking_8h.html#a59be7e774988f57ab43c4c078c570c67" target="_top" xlink:title="TooNetworking_bufferlist_add">
<polygon fill="#ffffff" stroke="#000000" points="149,-14.9937 149,-33.9937 295,-33.9937 295,-14.9937 149,-14.9937"/>
<text text-anchor="middle" x="222" y="-21.9937" font-family="Helvetica,sans-Serif" font-size="10.00" fill="#000000">TooNetworking_bufferlist_add</text>
</a>
</g>
</g>
<!-- Node66&#45;&gt;Node67 -->
<g id="edge1" class="edge">
<title>Node66&#45;&gt;Node67</title>
<path fill="none" stroke="#191970" d="M123.5061,-24.4937C131.8556,-24.4937 140.4271,-24.4937 148.8635,-24.4937"/>
<polygon fill="#191970" stroke="#191970" points="123.4557,-20.9938 113.4557,-24.4937 123.4557,-27.9938 123.4557,-20.9938"/>
</g>
<!-- Node68 -->
<g id="node3" class="node">
<title>Node68</title>
<g id="a_node3"><a xlink:href="TooNetworking_8h.html#a9209f3e1a2fdf0b3b88d49105b8fc359" target="_top" xlink:title="TooNetworking_send\l_signed">
<polygon fill="#ffffff" stroke="#000000" points="331,-52.4937 331,-82.4937 440,-82.4937 440,-52.4937 331,-52.4937"/>
<text text-anchor="start" x="339" y="-70.4937" font-family="Helvetica,sans-Serif" font-size="10.00" fill="#000000">TooNetworking_send</text>
<text text-anchor="middle" x="385.5" y="-59.4937" font-family="Helvetica,sans-Serif" font-size="10.00" fill="#000000">_signed</text>
</a>
</g>
</g>
<!-- Node66&#45;&gt;Node68 -->
<g id="edge6" class="edge">
<title>Node66&#45;&gt;Node68</title>
<path fill="none" stroke="#191970" d="M123.1729,-39.0273C131.8379,-40.6693 140.6136,-42.2102 149,-43.4937 211.0083,-52.9834 282.7572,-59.665 330.8195,-63.5276"/>
<polygon fill="#191970" stroke="#191970" points="123.5664,-35.5383 113.0819,-37.0629 122.2288,-42.4093 123.5664,-35.5383"/>
</g>
<!-- Node69 -->
<g id="node4" class="node">
<title>Node69</title>
<g id="a_node4"><a xlink:href="TooNetworking_8h.html#a085ff748b00f6be4ebafcae2bb0dded1" target="_top" xlink:title="TooNetworking_bufferlist\l_send_signed">
<polygon fill="#ffffff" stroke="#000000" points="476,-5.4937 476,-35.4937 601,-35.4937 601,-5.4937 476,-5.4937"/>
<text text-anchor="start" x="484" y="-23.4937" font-family="Helvetica,sans-Serif" font-size="10.00" fill="#000000">TooNetworking_bufferlist</text>
<text text-anchor="middle" x="538.5" y="-12.4937" font-family="Helvetica,sans-Serif" font-size="10.00" fill="#000000">_send_signed</text>
</a>
</g>
</g>
<!-- Node66&#45;&gt;Node69 -->
<g id="edge7" class="edge">
<title>Node66&#45;&gt;Node69</title>
<path fill="none" stroke="#191970" d="M123.4313,-9.0847C131.996,-7.6034 140.6767,-6.3397 149,-5.4937 263.9571,6.1907 398.8434,-4.3848 475.9317,-12.7241"/>
<polygon fill="#191970" stroke="#191970" points="122.6643,-5.6668 113.4587,-10.9115 123.9257,-12.5523 122.6643,-5.6668"/>
</g>
<!-- Node67&#45;&gt;Node68 -->
<g id="edge2" class="edge">
<title>Node67&#45;&gt;Node68</title>
<path fill="none" stroke="#191970" d="M268.1659,-36.6352C287.7064,-41.7743 310.6171,-47.7997 330.9823,-53.1557"/>
<polygon fill="#191970" stroke="#191970" points="268.8473,-33.1954 258.2859,-34.0368 267.0668,-39.9652 268.8473,-33.1954"/>
</g>
<!-- Node67&#45;&gt;Node69 -->
<g id="edge5" class="edge">
<title>Node67&#45;&gt;Node69</title>
<path fill="none" stroke="#191970" d="M305.144,-23.4429C358.5688,-22.7677 426.8624,-21.9046 475.7419,-21.2868"/>
<polygon fill="#191970" stroke="#191970" points="304.9638,-19.9448 295.0089,-23.571 305.0524,-26.9442 304.9638,-19.9448"/>
</g>
<!-- Node68&#45;&gt;Node69 -->
<g id="edge3" class="edge">
<title>Node68&#45;&gt;Node69</title>
<path fill="none" stroke="#191970" d="M444.0478,-49.5084C459.0895,-44.8878 475.1126,-39.9656 489.6083,-35.5127"/>
<polygon fill="#191970" stroke="#191970" points="442.8622,-46.2111 434.3308,-52.4934 444.9178,-52.9025 442.8622,-46.2111"/>
</g>
<!-- Node70 -->
<g id="node5" class="node">
<title>Node70</title>
<g id="a_node5"><a xlink:href="TooNetworking_8h.html#ab58e06e0eb6f2f8ecbebeaf3c173fb22" target="_top" xlink:title="TooNetworking_bufferlist\l_send_all">
<polygon fill="#ffffff" stroke="#000000" points="476,-54.4937 476,-84.4937 601,-84.4937 601,-54.4937 476,-54.4937"/>
<text text-anchor="start" x="484" y="-72.4937" font-family="Helvetica,sans-Serif" font-size="10.00" fill="#000000">TooNetworking_bufferlist</text>
<text text-anchor="middle" x="538.5" y="-61.4937" font-family="Helvetica,sans-Serif" font-size="10.00" fill="#000000">_send_all</text>
</a>
</g>
</g>
<!-- Node68&#45;&gt;Node70 -->
<g id="edge4" class="edge">
<title>Node68&#45;&gt;Node70</title>
<path fill="none" stroke="#191970" d="M450.4187,-68.3423C458.811,-68.452 467.3936,-68.5642 475.7499,-68.6734"/>
<polygon fill="#191970" stroke="#191970" points="450.3493,-64.8412 440.3044,-68.2101 450.2577,-71.8406 450.3493,-64.8412"/>
</g>
</g>
</svg>
