<?xml version="1.0" encoding="UTF-8" standalone="no"?>
<!DOCTYPE svg PUBLIC "-//W3C//DTD SVG 1.1//EN"
 "http://www.w3.org/Graphics/SVG/1.1/DTD/svg11.dtd">
<!-- Generated by graphviz version 2.40.1 (20161225.0304)
 -->
<!-- Title: TooSigning_received_noncelist_find_from_ID Pages: 1 -->
<!--zoomable 181 -->
<svg id="main" version="1.1" xmlns="http://www.w3.org/2000/svg" xmlns:xlink="http://www.w3.org/1999/xlink" xml:space="preserve" onload="init(evt)">
<style type="text/css"><![CDATA[
.edge:hover path { stroke: red; }
.edge:hover polygon { stroke: red; fill: red; }
]]></style>
<script type="text/javascript"><![CDATA[
var edges = document.getElementsByTagName('g');
if (edges && edges.length) {
  for (var i=0;i<edges.length;i++) {
    if (edges[i].id.substr(0,4)=='edge') {
      edges[i].setAttribute('class','edge');
    }
  }
}
]]></script>
        <defs>
                <circle id="rim" cx="0" cy="0" r="7"/>
                <circle id="rim2" cx="0" cy="0" r="3.5"/>
                <g id="zoomPlus">
                        <use xlink:href="#rim" fill="#404040">
                                <set attributeName="fill" to="#808080" begin="zoomplus.mouseover" end="zoomplus.mouseout"/>
                        </use>
                        <path d="M-4,0h8M0,-4v8" fill="none" stroke="white" stroke-width="1.5" pointer-events="none"/>
                </g>
                <g id="zoomMin">
                        <use xlink:href="#rim" fill="#404040">
                                <set attributeName="fill" to="#808080" begin="zoomminus.mouseover" end="zoomminus.mouseout"/>
                        </use>
                        <path d="M-4,0h8" fill="none" stroke="white" stroke-width="1.5" pointer-events="none"/>
                </g>
                <g id="dirArrow">
                        <path fill="none" stroke="white" stroke-width="1.5" d="M0,-3.0v7 M-2.5,-0.5L0,-3.0L2.5,-0.5"/>
                </g>
               <g id="resetDef">
                       <use xlink:href="#rim2" fill="#404040">
                               <set attributeName="fill" to="#808080" begin="reset.mouseover" end="reset.mouseout"/>
                       </use>
               </g>
        </defs>

<script type="text/javascript">
var viewWidth = 700;
var viewHeight = 181;
var sectionId = 'dynsection-9';
</script>
<script xlink:href="svgpan.js"/>
<svg id="graph" class="graph">
<g id="viewport">
<title>TooSigning_received_noncelist_find_from_ID</title>
<polygon fill="#ffffff" stroke="transparent" points="-4,4 -4,-176.9925 696,-176.9925 696,4 -4,4"/>
<!-- Node50 -->
<g id="node1" class="node">
<title>Node50</title>
<polygon fill="#bfbfbf" stroke="#000000" points="0,-60.4925 0,-90.4925 122,-90.4925 122,-60.4925 0,-60.4925"/>
<text text-anchor="start" x="8" y="-78.4925" font-family="Helvetica,sans-Serif" font-size="10.00" fill="#000000">TooSigning_received</text>
<text text-anchor="middle" x="61" y="-67.4925" font-family="Helvetica,sans-Serif" font-size="10.00" fill="#000000">_noncelist_find_from_ID</text>
</g>
<!-- Node51 -->
<g id="node2" class="node">
<title>Node51</title>
<g id="a_node2"><a xlink:href="TooNetworking_8h.html#a59be7e774988f57ab43c4c078c570c67" target="_top" xlink:title="TooNetworking_bufferlist_add">
<polygon fill="#ffffff" stroke="#000000" points="158,-27.9925 158,-46.9925 304,-46.9925 304,-27.9925 158,-27.9925"/>
<text text-anchor="middle" x="231" y="-34.9925" font-family="Helvetica,sans-Serif" font-size="10.00" fill="#000000">TooNetworking_bufferlist_add</text>
</a>
</g>
</g>
<!-- Node50&#45;&gt;Node51 -->
<g id="edge1" class="edge">
<title>Node50&#45;&gt;Node51</title>
<path fill="none" stroke="#191970" d="M132.2437,-59.5675C151.3234,-55.3026 171.353,-50.8254 188.3487,-47.0263"/>
<polygon fill="#191970" stroke="#191970" points="131.3695,-56.1764 122.3739,-61.7736 132.8966,-63.0078 131.3695,-56.1764"/>
</g>
<!-- Node52 -->
<g id="node3" class="node">
<title>Node52</title>
<g id="a_node3"><a xlink:href="TooNetworking_8h.html#a9209f3e1a2fdf0b3b88d49105b8fc359" target="_top" xlink:title="TooNetworking_send\l_signed">
<polygon fill="#ffffff" stroke="#000000" points="340.5,-36.4925 340.5,-66.4925 449.5,-66.4925 449.5,-36.4925 340.5,-36.4925"/>
<text text-anchor="start" x="348.5" y="-54.4925" font-family="Helvetica,sans-Serif" font-size="10.00" fill="#000000">TooNetworking_send</text>
<text text-anchor="middle" x="395" y="-43.4925" font-family="Helvetica,sans-Serif" font-size="10.00" fill="#000000">_signed</text>
</a>
</g>
</g>
<!-- Node50&#45;&gt;Node52 -->
<g id="edge9" class="edge">
<title>Node50&#45;&gt;Node52</title>
<path fill="none" stroke="#191970" d="M132.4066,-70.3615C194.7074,-65.8848 283.7701,-59.4851 340.486,-55.4097"/>
<polygon fill="#191970" stroke="#191970" points="131.9841,-66.8827 122.2607,-71.0905 132.4859,-73.8647 131.9841,-66.8827"/>
</g>
<!-- Node53 -->
<g id="node4" class="node">
<title>Node53</title>
<g id="a_node4"><a xlink:href="TooNetworking_8h.html#a085ff748b00f6be4ebafcae2bb0dded1" target="_top" xlink:title="TooNetworking_bufferlist\l_send_signed">
<polygon fill="#ffffff" stroke="#000000" points="491,-14.4925 491,-44.4925 616,-44.4925 616,-14.4925 491,-14.4925"/>
<text text-anchor="start" x="499" y="-32.4925" font-family="Helvetica,sans-Serif" font-size="10.00" fill="#000000">TooNetworking_bufferlist</text>
<text text-anchor="middle" x="553.5" y="-21.4925" font-family="Helvetica,sans-Serif" font-size="10.00" fill="#000000">_send_signed</text>
</a>
</g>
</g>
<!-- Node50&#45;&gt;Node53 -->
<g id="edge10" class="edge">
<title>Node50&#45;&gt;Node53</title>
<path fill="none" stroke="#191970" d="M87.8999,-54.3733C106.4424,-41.2091 132.2923,-25.4867 158,-18.4925 272.1681,12.5688 411.7543,-3.1492 490.8661,-16.7578"/>
<polygon fill="#191970" stroke="#191970" points="85.6765,-51.6631 79.6695,-60.3905 89.8078,-57.314 85.6765,-51.6631"/>
</g>
<!-- Node55 -->
<g id="node6" class="node">
<title>Node55</title>
<g id="a_node6"><a xlink:href="TooNetworking_8h.html#ab58e06e0eb6f2f8ecbebeaf3c173fb22" target="_top" xlink:title="TooNetworking_bufferlist\l_send_all">
<polygon fill="#ffffff" stroke="#000000" points="491,-78.4925 491,-108.4925 616,-108.4925 616,-78.4925 491,-78.4925"/>
<text text-anchor="start" x="499" y="-96.4925" font-family="Helvetica,sans-Serif" font-size="10.00" fill="#000000">TooNetworking_bufferlist</text>
<text text-anchor="middle" x="553.5" y="-85.4925" font-family="Helvetica,sans-Serif" font-size="10.00" fill="#000000">_send_all</text>
</a>
</g>
</g>
<!-- Node50&#45;&gt;Node55 -->
<g id="edge11" class="edge">
<title>Node50&#45;&gt;Node55</title>
<path fill="none" stroke="#191970" d="M132.3973,-81.6971C188.7252,-86.2675 269.3124,-92.0884 340,-94.4925 388.8606,-96.1543 401.1117,-94.7287 450,-94.4925 463.2075,-94.4287 477.3627,-94.3191 490.8327,-94.1953"/>
<polygon fill="#191970" stroke="#191970" points="132.4221,-78.1875 122.1698,-80.8594 131.8506,-85.1642 132.4221,-78.1875"/>
</g>
<!-- Node56 -->
<g id="node7" class="node">
<title>Node56</title>
<g id="a_node7"><a xlink:href="TooSigning_8h.html#a03dcb29c3bb1c45c6583cd6a5d731523" target="_top" xlink:title="TooSigning_received\l_noncelist_add">
<polygon fill="#ffffff" stroke="#000000" points="177.5,-142.4925 177.5,-172.4925 284.5,-172.4925 284.5,-142.4925 177.5,-142.4925"/>
<text text-anchor="start" x="185.5" y="-160.4925" font-family="Helvetica,sans-Serif" font-size="10.00" fill="#000000">TooSigning_received</text>
<text text-anchor="middle" x="231" y="-149.4925" font-family="Helvetica,sans-Serif" font-size="10.00" fill="#000000">_noncelist_add</text>
</a>
</g>
</g>
<!-- Node50&#45;&gt;Node56 -->
<g id="edge12" class="edge">
<title>Node50&#45;&gt;Node56</title>
<path fill="none" stroke="#191970" d="M96.453,-95.6226C114.6289,-105.6537 137.2527,-117.6996 158,-127.4925 168.9042,-132.6394 180.9377,-137.7927 192.0357,-142.3399"/>
<polygon fill="#191970" stroke="#191970" points="97.828,-92.3825 87.387,-90.5832 94.427,-98.5009 97.828,-92.3825"/>
</g>
<!-- Node51&#45;&gt;Node52 -->
<g id="edge2" class="edge">
<title>Node51&#45;&gt;Node52</title>
<path fill="none" stroke="#191970" d="M314.3352,-37.8573C323.1769,-38.6226 331.9979,-39.4908 340.3868,-40.4268"/>
<polygon fill="#191970" stroke="#191970" points="314.6187,-34.3689 304.3658,-37.0388 314.0459,-41.3454 314.6187,-34.3689"/>
</g>
<!-- Node51&#45;&gt;Node53 -->
<g id="edge8" class="edge">
<title>Node51&#45;&gt;Node53</title>
<path fill="none" stroke="#191970" d="M314.3438,-28.2136C322.9987,-27.5099 331.6716,-26.9117 340,-26.4925 388.8271,-24.035 401.1162,-25.7842 450,-26.4925 463.2112,-26.6839 477.368,-27.0127 490.8383,-27.3843"/>
<polygon fill="#191970" stroke="#191970" points="313.8772,-24.7407 304.2134,-29.0837 314.4763,-31.715 313.8772,-24.7407"/>
</g>
<!-- Node52&#45;&gt;Node51 -->
<g id="edge3" class="edge">
<title>Node52&#45;&gt;Node51</title>
<path fill="none" stroke="#191970" d="M330.022,-52.5646C310.7586,-51.2205 290.1842,-49.248 272.8085,-47.0319"/>
<polygon fill="#191970" stroke="#191970" points="330.05,-56.0737 340.255,-53.2262 330.5017,-49.0883 330.05,-56.0737"/>
</g>
<!-- Node52&#45;&gt;Node52 -->
<g id="edge4" class="edge">
<title>Node52&#45;&gt;Node52</title>
<path fill="none" stroke="#191970" d="M366.9253,-76.9504C370.4098,-81.6715 379.768,-84.9925 395,-84.9925 419.9961,-84.9925 429.1743,-76.0491 422.5348,-66.6515"/>
<polygon fill="#191970" stroke="#191970" points="370.4368,-76.8211 367.4652,-66.6515 363.4464,-76.4545 370.4368,-76.8211"/>
</g>
<!-- Node52&#45;&gt;Node53 -->
<g id="edge5" class="edge">
<title>Node52&#45;&gt;Node53</title>
<path fill="none" stroke="#191970" d="M459.7212,-42.5091C470.0361,-41.0774 480.691,-39.5985 490.9544,-38.1739"/>
<polygon fill="#191970" stroke="#191970" points="458.9705,-39.0797 449.5467,-43.9214 459.933,-46.0132 458.9705,-39.0797"/>
</g>
<!-- Node52&#45;&gt;Node55 -->
<g id="edge7" class="edge">
<title>Node52&#45;&gt;Node55</title>
<path fill="none" stroke="#191970" d="M459.3363,-68.5406C471.7076,-71.8188 484.582,-75.2303 496.6941,-78.4398"/>
<polygon fill="#191970" stroke="#191970" points="460.1096,-65.1248 449.5467,-65.9465 458.3166,-71.8913 460.1096,-65.1248"/>
</g>
<!-- Node54 -->
<g id="node5" class="node">
<title>Node54</title>
<g id="a_node5"><a xlink:href="NODE__SKETCH__TooAutomation__Node_8ino_8cpp.html#a0b33edabd7f1c4e4a0bf32c67269be2f" target="_top" xlink:title="loop">
<polygon fill="#ffffff" stroke="#000000" points="657,-68.9925 657,-87.9925 692,-87.9925 692,-68.9925 657,-68.9925"/>
<text text-anchor="middle" x="674.5" y="-75.9925" font-family="Helvetica,sans-Serif" font-size="10.00" fill="#000000">loop</text>
</a>
</g>
</g>
<!-- Node53&#45;&gt;Node54 -->
<g id="edge6" class="edge">
<title>Node53&#45;&gt;Node54</title>
<path fill="none" stroke="#191970" d="M600.2935,-48.4419C620.0681,-56.4498 641.9047,-65.2928 656.7374,-71.2994"/>
<polygon fill="#191970" stroke="#191970" points="601.3739,-45.1034 590.7913,-44.594 598.7464,-51.5916 601.3739,-45.1034"/>
</g>
<!-- Node57 -->
<g id="node8" class="node">
<title>Node57</title>
<g id="a_node8"><a xlink:href="TooSigning_8cpp.html#a03df9fd005c518d1114f912ae7da9f06" target="_top" xlink:title="TooSigning_unsigned\l_network_available">
<polygon fill="#ffffff" stroke="#000000" points="340,-142.4925 340,-172.4925 450,-172.4925 450,-142.4925 340,-142.4925"/>
<text text-anchor="start" x="348" y="-160.4925" font-family="Helvetica,sans-Serif" font-size="10.00" fill="#000000">TooSigning_unsigned</text>
<text text-anchor="middle" x="395" y="-149.4925" font-family="Helvetica,sans-Serif" font-size="10.00" fill="#000000">_network_available</text>
</a>
</g>
</g>
<!-- Node56&#45;&gt;Node57 -->
<g id="edge13" class="edge">
<title>Node56&#45;&gt;Node57</title>
<path fill="none" stroke="#191970" d="M294.8159,-157.4925C309.6583,-157.4925 325.3377,-157.4925 339.7736,-157.4925"/>
<polygon fill="#191970" stroke="#191970" points="294.6998,-153.9926 284.6997,-157.4925 294.6997,-160.9926 294.6998,-153.9926"/>
</g>
<!-- Node58 -->
<g id="node9" class="node">
<title>Node58</title>
<g id="a_node9"><a xlink:href="TooNetworking_8h.html#a7382ba1aed5405c3adc02011ea6c45dd" target="_top" xlink:title="TooNetworking_connection\l_maintenance">
<polygon fill="#ffffff" stroke="#000000" points="486,-134.4925 486,-164.4925 621,-164.4925 621,-134.4925 486,-134.4925"/>
<text text-anchor="start" x="494" y="-152.4925" font-family="Helvetica,sans-Serif" font-size="10.00" fill="#000000">TooNetworking_connection</text>
<text text-anchor="middle" x="553.5" y="-141.4925" font-family="Helvetica,sans-Serif" font-size="10.00" fill="#000000">_maintenance</text>
</a>
</g>
</g>
<!-- Node57&#45;&gt;Node58 -->
<g id="edge14" class="edge">
<title>Node57&#45;&gt;Node58</title>
<path fill="none" stroke="#191970" d="M460.5012,-154.1865C468.8601,-153.7646 477.4295,-153.332 485.822,-152.9084"/>
<polygon fill="#191970" stroke="#191970" points="460.2464,-150.6948 450.4356,-154.6945 460.5994,-157.6859 460.2464,-150.6948"/>
</g>
<!-- Node58&#45;&gt;Node54 -->
<g id="edge15" class="edge">
<title>Node58&#45;&gt;Node54</title>
<path fill="none" stroke="#191970" d="M599.2442,-130.0827C606.6544,-126.4863 614.141,-122.5693 621,-118.4925 636.3526,-109.3674 652.5946,-96.7459 663.1001,-88.1367"/>
<polygon fill="#191970" stroke="#191970" points="597.5105,-127.0303 589.9519,-134.4544 600.4905,-133.3643 597.5105,-127.0303"/>
</g>
</g>
</svg>
        <g id="navigator" transform="translate(0 0)" fill="#404254">
                <rect fill="#f2f5e9" fill-opacity="0.5" stroke="#606060" stroke-width=".5" x="0" y="0" width="60" height="60"/>
                <use id="zoomplus" xlink:href="#zoomPlus" x="17" y="9" onmousedown="handleZoom(evt,'in')"/>
                <use id="zoomminus" xlink:href="#zoomMin" x="42" y="9" onmousedown="handleZoom(evt,'out')"/>
                <use id="reset" xlink:href="#resetDef" x="30" y="36" onmousedown="handleReset()"/>
                <g id="arrowUp" xlink:href="#dirArrow" transform="translate(30 24)" onmousedown="handlePan(0,-1)">
                  <use xlink:href="#rim" fill="#404040">
                        <set attributeName="fill" to="#808080" begin="arrowUp.mouseover" end="arrowUp.mouseout"/>
                  </use>
                  <path fill="none" stroke="white" stroke-width="1.5" d="M0,-3.0v7 M-2.5,-0.5L0,-3.0L2.5,-0.5"/>
                </g>
                <g id="arrowRight" xlink:href="#dirArrow" transform="rotate(90) translate(36 -43)" onmousedown="handlePan(1,0)">
                  <use xlink:href="#rim" fill="#404040">
                        <set attributeName="fill" to="#808080" begin="arrowRight.mouseover" end="arrowRight.mouseout"/>
                  </use>
                  <path fill="none" stroke="white" stroke-width="1.5" d="M0,-3.0v7 M-2.5,-0.5L0,-3.0L2.5,-0.5"/>
                </g>
                <g id="arrowDown" xlink:href="#dirArrow" transform="rotate(180) translate(-30 -48)" onmousedown="handlePan(0,1)">
                  <use xlink:href="#rim" fill="#404040">
                        <set attributeName="fill" to="#808080" begin="arrowDown.mouseover" end="arrowDown.mouseout"/>
                  </use>
                  <path fill="none" stroke="white" stroke-width="1.5" d="M0,-3.0v7 M-2.5,-0.5L0,-3.0L2.5,-0.5"/>
                </g>
                <g id="arrowLeft" xlink:href="#dirArrow" transform="rotate(270) translate(-36 17)" onmousedown="handlePan(-1,0)">
                  <use xlink:href="#rim" fill="#404040">
                        <set attributeName="fill" to="#808080" begin="arrowLeft.mouseover" end="arrowLeft.mouseout"/>
                  </use>
                  <path fill="none" stroke="white" stroke-width="1.5" d="M0,-3.0v7 M-2.5,-0.5L0,-3.0L2.5,-0.5"/>
                </g>
        </g>
        <svg viewBox="0 0 15 15" width="100%" height="30px" preserveAspectRatio="xMaxYMin meet">
         <g id="arrow_out" transform="scale(0.3 0.3)">
          <a xlink:href="TooSigning_8h_a729dc41cfb692fb0aea083c38c5f3577_icgraph_org.svg" target="_base">
           <rect id="button" ry="5" rx="5" y="6" x="6" height="38" width="38"
                fill="#f2f5e9" fill-opacity="0.5" stroke="#606060" stroke-width="1.0"/>
           <path id="arrow"
             d="M 11.500037,31.436501 C 11.940474,20.09759 22.043105,11.32322 32.158766,21.979434 L 37.068811,17.246167 C 37.068811,17.246167 37.088388,32 37.088388,32 L 22.160133,31.978069 C 22.160133,31.978069 26.997745,27.140456 26.997745,27.140456 C 18.528582,18.264221 13.291696,25.230495 11.500037,31.436501 z"
             style="fill:#404040;"/>
          </a>
         </g>
        </svg>
</svg>
