<?xml version="1.0" encoding="UTF-8" standalone="no"?>
<!DOCTYPE svg PUBLIC "-//W3C//DTD SVG 1.1//EN"
 "http://www.w3.org/Graphics/SVG/1.1/DTD/svg11.dtd">
<!-- Generated by graphviz version 2.40.1 (20161225.0304)
 -->
<!-- Title: TooSigning_received_noncelist_add Pages: 1 -->
<svg width="413pt" height="161pt"
 viewBox="0.00 0.00 413.00 161.00" xmlns="http://www.w3.org/2000/svg" xmlns:xlink="http://www.w3.org/1999/xlink">
<g id="graph0" class="graph" transform="scale(1 1) rotate(0) translate(4 157)">
<title>TooSigning_received_noncelist_add</title>
<polygon fill="#ffffff" stroke="transparent" points="-4,4 -4,-157 409,-157 409,4 -4,4"/>
<!-- Node26 -->
<g id="node1" class="node">
<title>Node26</title>
<polygon fill="#bfbfbf" stroke="#000000" points="0,-73.5 0,-103.5 107,-103.5 107,-73.5 0,-73.5"/>
<text text-anchor="start" x="8" y="-91.5" font-family="Helvetica,sans-Serif" font-size="10.00" fill="#000000">TooSigning_received</text>
<text text-anchor="middle" x="53.5" y="-80.5" font-family="Helvetica,sans-Serif" font-size="10.00" fill="#000000">_noncelist_add</text>
</g>
<!-- Node27 -->
<g id="node2" class="node">
<title>Node27</title>
<g id="a_node2"><a xlink:href="group__TOOSIGNING__DEBUGGING.html#gaba98f230fad779da673a83370ad7de5d" target="_top" xlink:title="TooSigning_received\l_noncelist_print">
<polygon fill="#ffffff" stroke="#000000" points="146,-122.5 146,-152.5 253,-152.5 253,-122.5 146,-122.5"/>
<text text-anchor="start" x="154" y="-140.5" font-family="Helvetica,sans-Serif" font-size="10.00" fill="#000000">TooSigning_received</text>
<text text-anchor="middle" x="199.5" y="-129.5" font-family="Helvetica,sans-Serif" font-size="10.00" fill="#000000">_noncelist_print</text>
</a>
</g>
</g>
<!-- Node26&#45;&gt;Node27 -->
<g id="edge1" class="edge">
<title>Node26&#45;&gt;Node27</title>
<path fill="none" stroke="#191970" d="M98.4961,-103.6014C113.1357,-108.5147 129.5463,-114.0224 144.8143,-119.1466"/>
<polygon fill="#191970" stroke="#191970" points="144.0585,-122.5847 154.6524,-122.4484 146.2858,-115.9485 144.0585,-122.5847"/>
</g>
<!-- Node28 -->
<g id="node3" class="node">
<title>Node28</title>
<g id="a_node3"><a xlink:href="group__TOOSIGNING__INITIALIZE.html#ga24011c99b90b9070adb424cee01a3fc2" target="_top" xlink:title="TooSigning_received\l_noncelist_initialize">
<polygon fill="#ffffff" stroke="#000000" points="146,-73.5 146,-103.5 253,-103.5 253,-73.5 146,-73.5"/>
<text text-anchor="start" x="154" y="-91.5" font-family="Helvetica,sans-Serif" font-size="10.00" fill="#000000">TooSigning_received</text>
<text text-anchor="middle" x="199.5" y="-80.5" font-family="Helvetica,sans-Serif" font-size="10.00" fill="#000000">_noncelist_initialize</text>
</a>
</g>
</g>
<!-- Node26&#45;&gt;Node28 -->
<g id="edge2" class="edge">
<title>Node26&#45;&gt;Node28</title>
<path fill="none" stroke="#191970" d="M107.036,-88.5C116.3595,-88.5 126.1399,-88.5 135.7061,-88.5"/>
<polygon fill="#191970" stroke="#191970" points="135.9705,-92.0001 145.9705,-88.5 135.9705,-85.0001 135.9705,-92.0001"/>
</g>
<!-- Node29 -->
<g id="node4" class="node">
<title>Node29</title>
<g id="a_node4"><a xlink:href="TooSigning_8cpp.html#a451535471c647e6bb93141cc8e321432" target="_top" xlink:title="TooSigning_requested\l_noncelist_received">
<polygon fill="#ffffff" stroke="#000000" points="143,-24.5 143,-54.5 256,-54.5 256,-24.5 143,-24.5"/>
<text text-anchor="start" x="151" y="-42.5" font-family="Helvetica,sans-Serif" font-size="10.00" fill="#000000">TooSigning_requested</text>
<text text-anchor="middle" x="199.5" y="-31.5" font-family="Helvetica,sans-Serif" font-size="10.00" fill="#000000">_noncelist_received</text>
</a>
</g>
</g>
<!-- Node26&#45;&gt;Node29 -->
<g id="edge3" class="edge">
<title>Node26&#45;&gt;Node29</title>
<path fill="none" stroke="#191970" d="M98.4961,-73.3986C113.1357,-68.4853 129.5463,-62.9776 144.8143,-57.8534"/>
<polygon fill="#191970" stroke="#191970" points="146.2858,-61.0515 154.6524,-54.5516 144.0585,-54.4153 146.2858,-61.0515"/>
</g>
<!-- Node30 -->
<g id="node5" class="node">
<title>Node30</title>
<g id="a_node5"><a xlink:href="group__TOOSIGNING__DEBUGGING.html#gabb54a5e4968d69e35d665869d5c6588f" target="_top" xlink:title="TooSigning_requested\l_noncelist_print">
<polygon fill="#ffffff" stroke="#000000" points="292,-49.5 292,-79.5 405,-79.5 405,-49.5 292,-49.5"/>
<text text-anchor="start" x="300" y="-67.5" font-family="Helvetica,sans-Serif" font-size="10.00" fill="#000000">TooSigning_requested</text>
<text text-anchor="middle" x="348.5" y="-56.5" font-family="Helvetica,sans-Serif" font-size="10.00" fill="#000000">_noncelist_print</text>
</a>
</g>
</g>
<!-- Node29&#45;&gt;Node30 -->
<g id="edge4" class="edge">
<title>Node29&#45;&gt;Node30</title>
<path fill="none" stroke="#191970" d="M256.2556,-49.0227C264.6493,-50.4311 273.3621,-51.893 281.9332,-53.3311"/>
<polygon fill="#191970" stroke="#191970" points="281.4609,-56.8007 291.9022,-55.0037 282.6193,-49.8972 281.4609,-56.8007"/>
</g>
<!-- Node31 -->
<g id="node6" class="node">
<title>Node31</title>
<g id="a_node6"><a xlink:href="TooSigning_8cpp.html#a2b55d98ebd75cdee560a9587339d8f35" target="_top" xlink:title="TooSigning_requested\l_noncelist_delete">
<polygon fill="#ffffff" stroke="#000000" points="292,-.5 292,-30.5 405,-30.5 405,-.5 292,-.5"/>
<text text-anchor="start" x="300" y="-18.5" font-family="Helvetica,sans-Serif" font-size="10.00" fill="#000000">TooSigning_requested</text>
<text text-anchor="middle" x="348.5" y="-7.5" font-family="Helvetica,sans-Serif" font-size="10.00" fill="#000000">_noncelist_delete</text>
</a>
</g>
</g>
<!-- Node29&#45;&gt;Node31 -->
<g id="edge5" class="edge">
<title>Node29&#45;&gt;Node31</title>
<path fill="none" stroke="#191970" d="M256.2556,-30.3582C264.6493,-29.0062 273.3621,-27.6028 281.9332,-26.2222"/>
<polygon fill="#191970" stroke="#191970" points="282.5861,-29.6622 291.9022,-24.6164 281.4729,-22.7513 282.5861,-29.6622"/>
</g>
</g>
</svg>
