<?xml version="1.0" encoding="UTF-8" standalone="no"?>
<!DOCTYPE svg PUBLIC "-//W3C//DTD SVG 1.1//EN"
 "http://www.w3.org/Graphics/SVG/1.1/DTD/svg11.dtd">
<!-- Generated by graphviz version 2.40.1 (20161225.0304)
 -->
<!-- Title: TooSigning_requested_noncelist_retry_all Pages: 1 -->
<svg width="467pt" height="39pt"
 viewBox="0.00 0.00 467.00 39.00" xmlns="http://www.w3.org/2000/svg" xmlns:xlink="http://www.w3.org/1999/xlink">
<g id="graph0" class="graph" transform="scale(1 1) rotate(0) translate(4 35)">
<title>TooSigning_requested_noncelist_retry_all</title>
<polygon fill="#ffffff" stroke="transparent" points="-4,4 -4,-35 463,-35 463,4 -4,4"/>
<!-- Node95 -->
<g id="node1" class="node">
<title>Node95</title>
<polygon fill="#bfbfbf" stroke="#000000" points="0,-.5 0,-30.5 113,-30.5 113,-.5 0,-.5"/>
<text text-anchor="start" x="8" y="-18.5" font-family="Helvetica,sans-Serif" font-size="10.00" fill="#000000">TooSigning_requested</text>
<text text-anchor="middle" x="56.5" y="-7.5" font-family="Helvetica,sans-Serif" font-size="10.00" fill="#000000">_noncelist_retry_all</text>
</g>
<!-- Node96 -->
<g id="node2" class="node">
<title>Node96</title>
<g id="a_node2"><a xlink:href="TooSigning_8h.html#af68b8dda897cf488129c205ad532ca9e" target="_top" xlink:title="TooSigning_signed_network\l_update">
<polygon fill="#ffffff" stroke="#000000" points="149,-.5 149,-30.5 288,-30.5 288,-.5 149,-.5"/>
<text text-anchor="start" x="157" y="-18.5" font-family="Helvetica,sans-Serif" font-size="10.00" fill="#000000">TooSigning_signed_network</text>
<text text-anchor="middle" x="218.5" y="-7.5" font-family="Helvetica,sans-Serif" font-size="10.00" fill="#000000">_update</text>
</a>
</g>
</g>
<!-- Node95&#45;&gt;Node96 -->
<g id="edge1" class="edge">
<title>Node95&#45;&gt;Node96</title>
<path fill="none" stroke="#191970" d="M123.2848,-15.5C131.6921,-15.5 140.3103,-15.5 148.7617,-15.5"/>
<polygon fill="#191970" stroke="#191970" points="123.1598,-12.0001 113.1597,-15.5 123.1597,-19.0001 123.1598,-12.0001"/>
</g>
<!-- Node97 -->
<g id="node3" class="node">
<title>Node97</title>
<g id="a_node3"><a xlink:href="TooNetworking_8h.html#a7382ba1aed5405c3adc02011ea6c45dd" target="_top" xlink:title="TooNetworking_connection\l_maintenance">
<polygon fill="#ffffff" stroke="#000000" points="324,-.5 324,-30.5 459,-30.5 459,-.5 324,-.5"/>
<text text-anchor="start" x="332" y="-18.5" font-family="Helvetica,sans-Serif" font-size="10.00" fill="#000000">TooNetworking_connection</text>
<text text-anchor="middle" x="391.5" y="-7.5" font-family="Helvetica,sans-Serif" font-size="10.00" fill="#000000">_maintenance</text>
</a>
</g>
</g>
<!-- Node96&#45;&gt;Node97 -->
<g id="edge2" class="edge">
<title>Node96&#45;&gt;Node97</title>
<path fill="none" stroke="#191970" d="M298.6166,-15.5C307.0706,-15.5 315.6064,-15.5 323.8985,-15.5"/>
<polygon fill="#191970" stroke="#191970" points="298.3671,-12.0001 288.3671,-15.5 298.367,-19.0001 298.3671,-12.0001"/>
</g>
</g>
</svg>
