<?xml version="1.0" encoding="UTF-8" standalone="no"?>
<!DOCTYPE svg PUBLIC "-//W3C//DTD SVG 1.1//EN"
 "http://www.w3.org/Graphics/SVG/1.1/DTD/svg11.dtd">
<!-- Generated by graphviz version 2.40.1 (20161225.0304)
 -->
<!-- Title: TooSigning_unsigned_network_available Pages: 1 -->
<!--zoomable 579 -->
<svg id="main" version="1.1" xmlns="http://www.w3.org/2000/svg" xmlns:xlink="http://www.w3.org/1999/xlink" xml:space="preserve" onload="init(evt)">
<style type="text/css"><![CDATA[
.edge:hover path { stroke: red; }
.edge:hover polygon { stroke: red; fill: red; }
]]></style>
<script type="text/javascript"><![CDATA[
var edges = document.getElementsByTagName('g');
if (edges && edges.length) {
  for (var i=0;i<edges.length;i++) {
    if (edges[i].id.substr(0,4)=='edge') {
      edges[i].setAttribute('class','edge');
    }
  }
}
]]></script>
        <defs>
                <circle id="rim" cx="0" cy="0" r="7"/>
                <circle id="rim2" cx="0" cy="0" r="3.5"/>
                <g id="zoomPlus">
                        <use xlink:href="#rim" fill="#404040">
                                <set attributeName="fill" to="#808080" begin="zoomplus.mouseover" end="zoomplus.mouseout"/>
                        </use>
                        <path d="M-4,0h8M0,-4v8" fill="none" stroke="white" stroke-width="1.5" pointer-events="none"/>
                </g>
                <g id="zoomMin">
                        <use xlink:href="#rim" fill="#404040">
                                <set attributeName="fill" to="#808080" begin="zoomminus.mouseover" end="zoomminus.mouseout"/>
                        </use>
                        <path d="M-4,0h8" fill="none" stroke="white" stroke-width="1.5" pointer-events="none"/>
                </g>
                <g id="dirArrow">
                        <path fill="none" stroke="white" stroke-width="1.5" d="M0,-3.0v7 M-2.5,-0.5L0,-3.0L2.5,-0.5"/>
                </g>
               <g id="resetDef">
                       <use xlink:href="#rim2" fill="#404040">
                               <set attributeName="fill" to="#808080" begin="reset.mouseover" end="reset.mouseout"/>
                       </use>
               </g>
        </defs>

<script type="text/javascript">
var viewWidth = 1110;
var viewHeight = 579;
var sectionId = 'dynsection-32';
</script>
<script xlink:href="svgpan.js"/>
<svg id="graph" class="graph">
<g id="viewport">
<title>TooSigning_unsigned_network_available</title>
<polygon fill="#ffffff" stroke="transparent" points="-4,4 -4,-575 1106,-575 1106,4 -4,4"/>
<!-- Node135 -->
<g id="node1" class="node">
<title>Node135</title>
<polygon fill="#bfbfbf" stroke="#000000" points="0,-305.5 0,-335.5 110,-335.5 110,-305.5 0,-305.5"/>
<text text-anchor="start" x="8" y="-323.5" font-family="Helvetica,sans-Serif" font-size="10.00" fill="#000000">TooSigning_unsigned</text>
<text text-anchor="middle" x="55" y="-312.5" font-family="Helvetica,sans-Serif" font-size="10.00" fill="#000000">_network_available</text>
</g>
<!-- Node136 -->
<g id="node2" class="node">
<title>Node136</title>
<g id="a_node2"><a xlink:href="TooSigning_8cpp.html#a3994a32f8b2275d51b6832644f703bc7" target="_top" xlink:title="TooSigning_read_hmac\l_from_progmem">
<polygon fill="#ffffff" stroke="#000000" points="164,-540.5 164,-570.5 283,-570.5 283,-540.5 164,-540.5"/>
<text text-anchor="start" x="172" y="-558.5" font-family="Helvetica,sans-Serif" font-size="10.00" fill="#000000">TooSigning_read_hmac</text>
<text text-anchor="middle" x="223.5" y="-547.5" font-family="Helvetica,sans-Serif" font-size="10.00" fill="#000000">_from_progmem</text>
</a>
</g>
</g>
<!-- Node135&#45;&gt;Node136 -->
<g id="edge1" class="edge">
<title>Node135&#45;&gt;Node136</title>
<path fill="none" stroke="#191970" d="M57.2141,-335.665C63.6131,-374.0263 85.6816,-475.7586 146,-530.5 148.7808,-533.0237 151.819,-535.2929 155.0311,-537.3331"/>
<polygon fill="#191970" stroke="#191970" points="153.4361,-540.4505 163.8827,-542.2167 156.8177,-534.3214 153.4361,-540.4505"/>
</g>
<!-- Node137 -->
<g id="node3" class="node">
<title>Node137</title>
<g id="a_node3"><a xlink:href="classSha256Class.html#a73d3dcea6eb667fd146d12aa5d106939" target="_top" xlink:title="Sha256Class::initHmac">
<polygon fill="#ffffff" stroke="#000000" points="163.5,-502 163.5,-521 283.5,-521 283.5,-502 163.5,-502"/>
<text text-anchor="middle" x="223.5" y="-509" font-family="Helvetica,sans-Serif" font-size="10.00" fill="#000000">Sha256Class::initHmac</text>
</a>
</g>
</g>
<!-- Node135&#45;&gt;Node137 -->
<g id="edge2" class="edge">
<title>Node135&#45;&gt;Node137</title>
<path fill="none" stroke="#191970" d="M58.5096,-335.6262C67.1474,-369.3423 92.7187,-450.9521 146,-492.5 148.487,-494.4393 151.1446,-496.184 153.9228,-497.7533"/>
<polygon fill="#191970" stroke="#191970" points="152.6158,-501.0086 163.1444,-502.192 155.6518,-494.7012 152.6158,-501.0086"/>
</g>
<!-- Node145 -->
<g id="node11" class="node">
<title>Node145</title>
<g id="a_node11"><a xlink:href="group__TOOSIGNING__DEBUGGING.html#ga73839f8ecb81bdbb2e6c36adab498dac" target="_top" xlink:title="TooSigning_random_data\l_print">
<polygon fill="#ffffff" stroke="#000000" points="160,-376.5 160,-406.5 287,-406.5 287,-376.5 160,-376.5"/>
<text text-anchor="start" x="168" y="-394.5" font-family="Helvetica,sans-Serif" font-size="10.00" fill="#000000">TooSigning_random_data</text>
<text text-anchor="middle" x="223.5" y="-383.5" font-family="Helvetica,sans-Serif" font-size="10.00" fill="#000000">_print</text>
</a>
</g>
</g>
<!-- Node135&#45;&gt;Node145 -->
<g id="edge11" class="edge">
<title>Node135&#45;&gt;Node145</title>
<path fill="none" stroke="#191970" d="M81.0946,-335.5433C98.9787,-345.46 123.4552,-358.2716 146,-367.5 150.7661,-369.4509 155.7516,-371.3341 160.7967,-373.1292"/>
<polygon fill="#191970" stroke="#191970" points="159.9355,-376.5339 170.5301,-376.4671 162.2063,-369.9124 159.9355,-376.5339"/>
</g>
<!-- Node146 -->
<g id="node12" class="node">
<title>Node146</title>
<g id="a_node12"><a xlink:href="group__TOOSIGNING__HASHING.html#gafb2935303b05255e80a7a6fa4be7cf57" target="_top" xlink:title="TooSigning_hash_data">
<polygon fill="#ffffff" stroke="#000000" points="165.5,-426 165.5,-445 281.5,-445 281.5,-426 165.5,-426"/>
<text text-anchor="middle" x="223.5" y="-433" font-family="Helvetica,sans-Serif" font-size="10.00" fill="#000000">TooSigning_hash_data</text>
</a>
</g>
</g>
<!-- Node135&#45;&gt;Node146 -->
<g id="edge12" class="edge">
<title>Node135&#45;&gt;Node146</title>
<path fill="none" stroke="#191970" d="M65.0986,-335.7264C80.1274,-357.1436 110.4557,-395.8515 146,-416.5 149.8781,-418.7529 154.0148,-420.7398 158.2827,-422.4921"/>
<polygon fill="#191970" stroke="#191970" points="157.1921,-425.8198 167.7859,-425.9652 159.595,-419.2452 157.1921,-425.8198"/>
</g>
<!-- Node147 -->
<g id="node13" class="node">
<title>Node147</title>
<g id="a_node13"><a xlink:href="TooSigning_8cpp.html#a015bd663d5920097e8dc755de8471dc1" target="_top" xlink:title="TooSigning_sent_noncelist\l_find_from_ID">
<polygon fill="#ffffff" stroke="#000000" points="156.5,-327.5 156.5,-357.5 290.5,-357.5 290.5,-327.5 156.5,-327.5"/>
<text text-anchor="start" x="164.5" y="-345.5" font-family="Helvetica,sans-Serif" font-size="10.00" fill="#000000">TooSigning_sent_noncelist</text>
<text text-anchor="middle" x="223.5" y="-334.5" font-family="Helvetica,sans-Serif" font-size="10.00" fill="#000000">_find_from_ID</text>
</a>
</g>
</g>
<!-- Node135&#45;&gt;Node147 -->
<g id="edge14" class="edge">
<title>Node135&#45;&gt;Node147</title>
<path fill="none" stroke="#191970" d="M110.1732,-327.7036C121.7208,-329.2113 134.099,-330.8275 146.2799,-332.4179"/>
<polygon fill="#191970" stroke="#191970" points="146.0739,-335.9206 156.4429,-333.7448 146.9802,-328.9795 146.0739,-335.9206"/>
</g>
<!-- Node148 -->
<g id="node14" class="node">
<title>Node148</title>
<g id="a_node14"><a xlink:href="group__TOOSIGNING__HASHING.html#gae743dd1289d92f915352e40b047b4cc8" target="_top" xlink:title="TooSigning_hash_store">
<polygon fill="#ffffff" stroke="#000000" points="164,-289 164,-308 283,-308 283,-289 164,-289"/>
<text text-anchor="middle" x="223.5" y="-296" font-family="Helvetica,sans-Serif" font-size="10.00" fill="#000000">TooSigning_hash_store</text>
</a>
</g>
</g>
<!-- Node135&#45;&gt;Node148 -->
<g id="edge15" class="edge">
<title>Node135&#45;&gt;Node148</title>
<path fill="none" stroke="#191970" d="M110.1732,-313.2964C124.1323,-311.4738 139.3052,-309.4928 153.876,-307.5904"/>
<polygon fill="#191970" stroke="#191970" points="154.3823,-311.0541 163.845,-306.2888 153.476,-304.113 154.3823,-311.0541"/>
</g>
<!-- Node149 -->
<g id="node15" class="node">
<title>Node149</title>
<g id="a_node15"><a xlink:href="classSha256Class.html#a7556f29cadf7eaca21a537df41318af3" target="_top" xlink:title="Sha256Class::resultHmac">
<polygon fill="#ffffff" stroke="#000000" points="158,-464 158,-483 289,-483 289,-464 158,-464"/>
<text text-anchor="middle" x="223.5" y="-471" font-family="Helvetica,sans-Serif" font-size="10.00" fill="#000000">Sha256Class::resultHmac</text>
</a>
</g>
</g>
<!-- Node135&#45;&gt;Node149 -->
<g id="edge16" class="edge">
<title>Node135&#45;&gt;Node149</title>
<path fill="none" stroke="#191970" d="M60.9054,-335.6602C72.6437,-363.7189 101.6624,-423.6877 146,-454.5 148.8742,-456.4974 151.936,-458.2857 155.1203,-459.8865"/>
<polygon fill="#191970" stroke="#191970" points="153.7995,-463.1288 164.3648,-463.9202 156.599,-456.713 153.7995,-463.1288"/>
</g>
<!-- Node150 -->
<g id="node16" class="node">
<title>Node150</title>
<g id="a_node16"><a xlink:href="group__TOOSIGNING__HASHING.html#ga7696a20bc1d03d129afbdc8d6e446aa2" target="_top" xlink:title="TooSigning_hash_print">
<polygon fill="#ffffff" stroke="#000000" points="165.5,-251 165.5,-270 281.5,-270 281.5,-251 165.5,-251"/>
<text text-anchor="middle" x="223.5" y="-258" font-family="Helvetica,sans-Serif" font-size="10.00" fill="#000000">TooSigning_hash_print</text>
</a>
</g>
</g>
<!-- Node135&#45;&gt;Node150 -->
<g id="edge20" class="edge">
<title>Node135&#45;&gt;Node150</title>
<path fill="none" stroke="#191970" d="M84.7727,-305.4198C102.2803,-296.9764 125.0303,-286.7264 146,-279.5 153.2752,-276.9929 161.042,-274.6792 168.7445,-272.5931"/>
<polygon fill="#191970" stroke="#191970" points="169.6281,-275.9799 178.4248,-270.075 167.8657,-269.2053 169.6281,-275.9799"/>
</g>
<!-- Node151 -->
<g id="node17" class="node">
<title>Node151</title>
<g id="a_node17"><a xlink:href="group__TOOSIGNING__HASHING.html#ga3a6687a23b6971e4053bef8328e347dd" target="_top" xlink:title="TooSigning_hash_compare">
<polygon fill="#ffffff" stroke="#000000" points="156.5,-213 156.5,-232 290.5,-232 290.5,-213 156.5,-213"/>
<text text-anchor="middle" x="223.5" y="-220" font-family="Helvetica,sans-Serif" font-size="10.00" fill="#000000">TooSigning_hash_compare</text>
</a>
</g>
</g>
<!-- Node135&#45;&gt;Node151 -->
<g id="edge21" class="edge">
<title>Node135&#45;&gt;Node151</title>
<path fill="none" stroke="#191970" d="M68.2156,-305.2793C84.6495,-287.3227 114.4147,-257.8504 146,-241.5 150.5731,-239.1327 155.4522,-237.0523 160.4519,-235.2253"/>
<polygon fill="#191970" stroke="#191970" points="161.7696,-238.4761 170.1668,-232.0157 159.5736,-231.8295 161.7696,-238.4761"/>
</g>
<!-- Node152 -->
<g id="node18" class="node">
<title>Node152</title>
<g id="a_node18"><a xlink:href="TooSigning_8cpp.html#a15dc10b22577187e282a5b1da9ffec08" target="_top" xlink:title="TooSigning_sent_noncelist_add">
<polygon fill="#ffffff" stroke="#000000" points="146,-175 146,-194 301,-194 301,-175 146,-175"/>
<text text-anchor="middle" x="223.5" y="-182" font-family="Helvetica,sans-Serif" font-size="10.00" fill="#000000">TooSigning_sent_noncelist_add</text>
</a>
</g>
</g>
<!-- Node135&#45;&gt;Node152 -->
<g id="edge22" class="edge">
<title>Node135&#45;&gt;Node152</title>
<path fill="none" stroke="#191970" d="M62.4684,-305.287C75.6762,-280.0385 105.6195,-229.6733 146,-203.5 149.3058,-201.3573 152.8336,-199.4561 156.4931,-197.7693"/>
<polygon fill="#191970" stroke="#191970" points="157.8507,-200.9957 165.8097,-194.0025 155.2268,-194.5061 157.8507,-200.9957"/>
</g>
<!-- Node154 -->
<g id="node20" class="node">
<title>Node154</title>
<g id="a_node20"><a xlink:href="group__TOOSIGNING__DEBUGGING.html#gab35891e0905f1ddec2ff8b649f63d5e5" target="_top" xlink:title="TooSigning_sent_noncelist\l_print">
<polygon fill="#ffffff" stroke="#000000" points="156.5,-125.5 156.5,-155.5 290.5,-155.5 290.5,-125.5 156.5,-125.5"/>
<text text-anchor="start" x="164.5" y="-143.5" font-family="Helvetica,sans-Serif" font-size="10.00" fill="#000000">TooSigning_sent_noncelist</text>
<text text-anchor="middle" x="223.5" y="-132.5" font-family="Helvetica,sans-Serif" font-size="10.00" fill="#000000">_print</text>
</a>
</g>
</g>
<!-- Node135&#45;&gt;Node154 -->
<g id="edge24" class="edge">
<title>Node135&#45;&gt;Node154</title>
<path fill="none" stroke="#191970" d="M59.7906,-305.254C70.2928,-274.2954 98.2886,-203.7662 146,-165.5 148.2747,-163.6756 150.6858,-161.983 153.1968,-160.4126"/>
<polygon fill="#191970" stroke="#191970" points="154.9923,-163.4196 162.0649,-155.5311 151.6166,-157.2873 154.9923,-163.4196"/>
</g>
<!-- Node155 -->
<g id="node21" class="node">
<title>Node155</title>
<g id="a_node21"><a xlink:href="TooSigning_8cpp.html#a062eebefb7be0142400108d4b75c566a" target="_top" xlink:title="TooSigning_received\l_noncelist_add">
<polygon fill="#ffffff" stroke="#000000" points="170,-75.5 170,-105.5 277,-105.5 277,-75.5 170,-75.5"/>
<text text-anchor="start" x="178" y="-93.5" font-family="Helvetica,sans-Serif" font-size="10.00" fill="#000000">TooSigning_received</text>
<text text-anchor="middle" x="223.5" y="-82.5" font-family="Helvetica,sans-Serif" font-size="10.00" fill="#000000">_noncelist_add</text>
</a>
</g>
</g>
<!-- Node135&#45;&gt;Node155 -->
<g id="edge25" class="edge">
<title>Node135&#45;&gt;Node155</title>
<path fill="none" stroke="#191970" d="M57.4903,-305.2529C64.4249,-267.6526 87.4419,-169.6952 146,-116.5 150.3742,-112.5264 155.3759,-109.1576 160.6852,-106.3019"/>
<polygon fill="#191970" stroke="#191970" points="162.3114,-109.4045 169.8543,-101.9644 159.318,-103.0768 162.3114,-109.4045"/>
</g>
<!-- Node138 -->
<g id="node4" class="node">
<title>Node138</title>
<g id="a_node4"><a xlink:href="classSha256Class.html#ac1025d69c51fcd1b882ee41114e58339" target="_top" xlink:title="Sha256Class::init">
<polygon fill="#ffffff" stroke="#000000" points="357,-464 357,-483 451,-483 451,-464 357,-464"/>
<text text-anchor="middle" x="404" y="-471" font-family="Helvetica,sans-Serif" font-size="10.00" fill="#000000">Sha256Class::init</text>
</a>
</g>
</g>
<!-- Node137&#45;&gt;Node138 -->
<g id="edge3" class="edge">
<title>Node137&#45;&gt;Node138</title>
<path fill="none" stroke="#191970" d="M269.0478,-501.911C293.2959,-496.8061 323.3037,-490.4887 348.8612,-485.1082"/>
<polygon fill="#191970" stroke="#191970" points="349.7153,-488.5052 358.7798,-483.0201 348.2732,-481.6553 349.7153,-488.5052"/>
</g>
<!-- Node139 -->
<g id="node5" class="node">
<title>Node139</title>
<g id="a_node5"><a xlink:href="classSha256Class.html#a0f0fc4bd4d8c53d232df0d41d7ea25e0" target="_top" xlink:title="Sha256Class::write">
<polygon fill="#ffffff" stroke="#000000" points="353,-426 353,-445 455,-445 455,-426 353,-426"/>
<text text-anchor="middle" x="404" y="-433" font-family="Helvetica,sans-Serif" font-size="10.00" fill="#000000">Sha256Class::write</text>
</a>
</g>
</g>
<!-- Node137&#45;&gt;Node139 -->
<g id="edge4" class="edge">
<title>Node137&#45;&gt;Node139</title>
<path fill="none" stroke="#191970" d="M279.2151,-501.967C286.811,-499.4996 294.2925,-496.3979 301,-492.5 321.1147,-480.811 317.0984,-466.5482 337,-454.5 340.6071,-452.3163 344.4748,-450.375 348.4653,-448.6505"/>
<polygon fill="#191970" stroke="#191970" points="349.8573,-451.8651 357.934,-445.0082 347.3441,-445.3318 349.8573,-451.8651"/>
</g>
<!-- Node143 -->
<g id="node9" class="node">
<title>Node143</title>
<g id="a_node9"><a xlink:href="classSha256Class.html#a0ca245a22f8b056a3d1902da3c64b705" target="_top" xlink:title="Sha256Class::result">
<polygon fill="#ffffff" stroke="#000000" points="351.5,-502 351.5,-521 456.5,-521 456.5,-502 351.5,-502"/>
<text text-anchor="middle" x="404" y="-509" font-family="Helvetica,sans-Serif" font-size="10.00" fill="#000000">Sha256Class::result</text>
</a>
</g>
</g>
<!-- Node137&#45;&gt;Node143 -->
<g id="edge8" class="edge">
<title>Node137&#45;&gt;Node143</title>
<path fill="none" stroke="#191970" d="M283.6039,-511.5C302.1213,-511.5 322.5516,-511.5 341.2426,-511.5"/>
<polygon fill="#191970" stroke="#191970" points="341.4244,-515.0001 351.4243,-511.5 341.4243,-508.0001 341.4244,-515.0001"/>
</g>
<!-- Node140 -->
<g id="node6" class="node">
<title>Node140</title>
<g id="a_node6"><a xlink:href="classSha256Class.html#ab0b46743e3d59b1c68f52ed89dfaff50" target="_top" xlink:title="Sha256Class::addUncounted">
<polygon fill="#ffffff" stroke="#000000" points="656,-463 656,-482 800,-482 800,-463 656,-463"/>
<text text-anchor="middle" x="728" y="-470" font-family="Helvetica,sans-Serif" font-size="10.00" fill="#000000">Sha256Class::addUncounted</text>
</a>
</g>
</g>
<!-- Node139&#45;&gt;Node140 -->
<g id="edge5" class="edge">
<title>Node139&#45;&gt;Node140</title>
<path fill="none" stroke="#191970" d="M455.3388,-441.3628C506.4481,-447.1993 585.7065,-456.2504 645.6234,-463.0928"/>
<polygon fill="#191970" stroke="#191970" points="645.4862,-466.5998 655.8188,-464.2571 646.2805,-459.645 645.4862,-466.5998"/>
</g>
<!-- Node141 -->
<g id="node7" class="node">
<title>Node141</title>
<g id="a_node7"><a xlink:href="classSha256Class.html#a399d2a23951e2130f54af8ac7712068f" target="_top" xlink:title="Sha256Class::hashBlock">
<polygon fill="#ffffff" stroke="#000000" points="836,-463 836,-482 963,-482 963,-463 836,-463"/>
<text text-anchor="middle" x="899.5" y="-470" font-family="Helvetica,sans-Serif" font-size="10.00" fill="#000000">Sha256Class::hashBlock</text>
</a>
</g>
</g>
<!-- Node140&#45;&gt;Node141 -->
<g id="edge6" class="edge">
<title>Node140&#45;&gt;Node141</title>
<path fill="none" stroke="#191970" d="M800.2344,-472.5C808.6298,-472.5 817.2026,-472.5 825.6198,-472.5"/>
<polygon fill="#191970" stroke="#191970" points="825.7873,-476.0001 835.7873,-472.5 825.7873,-469.0001 825.7873,-476.0001"/>
</g>
<!-- Node142 -->
<g id="node8" class="node">
<title>Node142</title>
<g id="a_node8"><a xlink:href="classSha256Class.html#ae275718ce9813bb33b2d8d8fbf018bd6" target="_top" xlink:title="Sha256Class::ror32">
<polygon fill="#ffffff" stroke="#000000" points="999,-463 999,-482 1102,-482 1102,-463 999,-463"/>
<text text-anchor="middle" x="1050.5" y="-470" font-family="Helvetica,sans-Serif" font-size="10.00" fill="#000000">Sha256Class::ror32</text>
</a>
</g>
</g>
<!-- Node141&#45;&gt;Node142 -->
<g id="edge7" class="edge">
<title>Node141&#45;&gt;Node142</title>
<path fill="none" stroke="#191970" d="M963.1,-472.5C971.5806,-472.5 980.2667,-472.5 988.7157,-472.5"/>
<polygon fill="#191970" stroke="#191970" points="988.8743,-476.0001 998.8743,-472.5 988.8742,-469.0001 988.8743,-476.0001"/>
</g>
<!-- Node144 -->
<g id="node10" class="node">
<title>Node144</title>
<g id="a_node10"><a xlink:href="classSha256Class.html#a82049dae520ccf0bd8478f2aef639149" target="_top" xlink:title="Sha256Class::pad">
<polygon fill="#ffffff" stroke="#000000" points="515,-492 515,-511 612,-511 612,-492 515,-492"/>
<text text-anchor="middle" x="563.5" y="-499" font-family="Helvetica,sans-Serif" font-size="10.00" fill="#000000">Sha256Class::pad</text>
</a>
</g>
</g>
<!-- Node143&#45;&gt;Node144 -->
<g id="edge9" class="edge">
<title>Node143&#45;&gt;Node144</title>
<path fill="none" stroke="#191970" d="M456.6683,-508.1979C472.0764,-507.2319 489.0148,-506.1699 504.7739,-505.1819"/>
<polygon fill="#191970" stroke="#191970" points="505.1702,-508.664 514.9315,-504.545 504.7321,-501.6777 505.1702,-508.664"/>
</g>
<!-- Node144&#45;&gt;Node140 -->
<g id="edge10" class="edge">
<title>Node144&#45;&gt;Node140</title>
<path fill="none" stroke="#191970" d="M612.41,-492.8776C628.6398,-490.0164 646.9542,-486.7877 664.1398,-483.758"/>
<polygon fill="#191970" stroke="#191970" points="664.8632,-487.1846 674.1036,-482.0015 663.6478,-480.2909 664.8632,-487.1846"/>
</g>
<!-- Node146&#45;&gt;Node139 -->
<g id="edge13" class="edge">
<title>Node146&#45;&gt;Node139</title>
<path fill="none" stroke="#191970" d="M281.6049,-435.5C301.0878,-435.5 322.8696,-435.5 342.5966,-435.5"/>
<polygon fill="#191970" stroke="#191970" points="342.7023,-439.0001 352.7022,-435.5 342.7022,-432.0001 342.7023,-439.0001"/>
</g>
<!-- Node149&#45;&gt;Node138 -->
<g id="edge18" class="edge">
<title>Node149&#45;&gt;Node138</title>
<path fill="none" stroke="#191970" d="M289.1752,-473.5C307.9689,-473.5 328.3015,-473.5 346.5601,-473.5"/>
<polygon fill="#191970" stroke="#191970" points="346.7545,-477.0001 356.7544,-473.5 346.7544,-470.0001 346.7545,-477.0001"/>
</g>
<!-- Node149&#45;&gt;Node139 -->
<g id="edge19" class="edge">
<title>Node149&#45;&gt;Node139</title>
<path fill="none" stroke="#191970" d="M269.0478,-463.911C293.2959,-458.8061 323.3037,-452.4887 348.8612,-447.1082"/>
<polygon fill="#191970" stroke="#191970" points="349.7153,-450.5052 358.7798,-445.0201 348.2732,-443.6553 349.7153,-450.5052"/>
</g>
<!-- Node149&#45;&gt;Node143 -->
<g id="edge17" class="edge">
<title>Node149&#45;&gt;Node143</title>
<path fill="none" stroke="#191970" d="M269.0478,-483.089C293.2959,-488.1939 323.3037,-494.5113 348.8612,-499.8918"/>
<polygon fill="#191970" stroke="#191970" points="348.2732,-503.3447 358.7798,-501.9799 349.7153,-496.4948 348.2732,-503.3447"/>
</g>
<!-- Node153 -->
<g id="node19" class="node">
<title>Node153</title>
<g id="a_node19"><a xlink:href="group__TOOSIGNING__INITIALIZE.html#ga0ad0c6af4c20b80f75ccf3d4a2804a0c" target="_top" xlink:title="TooSigning_sent_noncelist\l_initialize">
<polygon fill="#ffffff" stroke="#000000" points="337,-171.5 337,-201.5 471,-201.5 471,-171.5 337,-171.5"/>
<text text-anchor="start" x="345" y="-189.5" font-family="Helvetica,sans-Serif" font-size="10.00" fill="#000000">TooSigning_sent_noncelist</text>
<text text-anchor="middle" x="404" y="-178.5" font-family="Helvetica,sans-Serif" font-size="10.00" fill="#000000">_initialize</text>
</a>
</g>
</g>
<!-- Node152&#45;&gt;Node153 -->
<g id="edge23" class="edge">
<title>Node152&#45;&gt;Node153</title>
<path fill="none" stroke="#191970" d="M301.0958,-185.3598C309.587,-185.4539 318.2308,-185.5496 326.7183,-185.6437"/>
<polygon fill="#191970" stroke="#191970" points="326.9346,-189.1462 336.9728,-185.7573 327.0123,-182.1466 326.9346,-189.1462"/>
</g>
<!-- Node156 -->
<g id="node22" class="node">
<title>Node156</title>
<g id="a_node22"><a xlink:href="group__TOOSIGNING__DEBUGGING.html#gaba98f230fad779da673a83370ad7de5d" target="_top" xlink:title="TooSigning_received\l_noncelist_print">
<polygon fill="#ffffff" stroke="#000000" points="350.5,-122.5 350.5,-152.5 457.5,-152.5 457.5,-122.5 350.5,-122.5"/>
<text text-anchor="start" x="358.5" y="-140.5" font-family="Helvetica,sans-Serif" font-size="10.00" fill="#000000">TooSigning_received</text>
<text text-anchor="middle" x="404" y="-129.5" font-family="Helvetica,sans-Serif" font-size="10.00" fill="#000000">_noncelist_print</text>
</a>
</g>
</g>
<!-- Node155&#45;&gt;Node156 -->
<g id="edge26" class="edge">
<title>Node155&#45;&gt;Node156</title>
<path fill="none" stroke="#191970" d="M277.1672,-104.4743C296.993,-109.6367 319.654,-115.5373 340.2846,-120.9093"/>
<polygon fill="#191970" stroke="#191970" points="339.6686,-124.3655 350.2279,-123.4984 341.4325,-117.5914 339.6686,-124.3655"/>
</g>
<!-- Node157 -->
<g id="node23" class="node">
<title>Node157</title>
<g id="a_node23"><a xlink:href="group__TOOSIGNING__INITIALIZE.html#ga24011c99b90b9070adb424cee01a3fc2" target="_top" xlink:title="TooSigning_received\l_noncelist_initialize">
<polygon fill="#ffffff" stroke="#000000" points="350.5,-73.5 350.5,-103.5 457.5,-103.5 457.5,-73.5 350.5,-73.5"/>
<text text-anchor="start" x="358.5" y="-91.5" font-family="Helvetica,sans-Serif" font-size="10.00" fill="#000000">TooSigning_received</text>
<text text-anchor="middle" x="404" y="-80.5" font-family="Helvetica,sans-Serif" font-size="10.00" fill="#000000">_noncelist_initialize</text>
</a>
</g>
</g>
<!-- Node155&#45;&gt;Node157 -->
<g id="edge27" class="edge">
<title>Node155&#45;&gt;Node157</title>
<path fill="none" stroke="#191970" d="M277.1672,-89.9053C296.9029,-89.6867 319.4481,-89.4369 340.0031,-89.2091"/>
<polygon fill="#191970" stroke="#191970" points="340.2673,-92.7065 350.2279,-89.0958 340.1897,-85.7069 340.2673,-92.7065"/>
</g>
<!-- Node158 -->
<g id="node24" class="node">
<title>Node158</title>
<g id="a_node24"><a xlink:href="TooSigning_8cpp.html#a451535471c647e6bb93141cc8e321432" target="_top" xlink:title="TooSigning_requested\l_noncelist_received">
<polygon fill="#ffffff" stroke="#000000" points="347.5,-24.5 347.5,-54.5 460.5,-54.5 460.5,-24.5 347.5,-24.5"/>
<text text-anchor="start" x="355.5" y="-42.5" font-family="Helvetica,sans-Serif" font-size="10.00" fill="#000000">TooSigning_requested</text>
<text text-anchor="middle" x="404" y="-31.5" font-family="Helvetica,sans-Serif" font-size="10.00" fill="#000000">_noncelist_received</text>
</a>
</g>
</g>
<!-- Node155&#45;&gt;Node158 -->
<g id="edge28" class="edge">
<title>Node155&#45;&gt;Node158</title>
<path fill="none" stroke="#191970" d="M276.6797,-75.4742C296.8786,-69.767 320.076,-63.2126 341.0898,-57.2752"/>
<polygon fill="#191970" stroke="#191970" points="342.2172,-60.5937 350.8888,-54.5065 340.3138,-53.8575 342.2172,-60.5937"/>
</g>
<!-- Node159 -->
<g id="node25" class="node">
<title>Node159</title>
<g id="a_node25"><a xlink:href="group__TOOSIGNING__DEBUGGING.html#gabb54a5e4968d69e35d665869d5c6588f" target="_top" xlink:title="TooSigning_requested\l_noncelist_print">
<polygon fill="#ffffff" stroke="#000000" points="507,-49.5 507,-79.5 620,-79.5 620,-49.5 507,-49.5"/>
<text text-anchor="start" x="515" y="-67.5" font-family="Helvetica,sans-Serif" font-size="10.00" fill="#000000">TooSigning_requested</text>
<text text-anchor="middle" x="563.5" y="-56.5" font-family="Helvetica,sans-Serif" font-size="10.00" fill="#000000">_noncelist_print</text>
</a>
</g>
</g>
<!-- Node158&#45;&gt;Node159 -->
<g id="edge29" class="edge">
<title>Node158&#45;&gt;Node159</title>
<path fill="none" stroke="#191970" d="M460.6828,-48.3845C472.4351,-50.2265 484.9185,-52.1832 496.986,-54.0746"/>
<polygon fill="#191970" stroke="#191970" points="496.5783,-57.5534 506.9997,-55.6442 497.6623,-50.6378 496.5783,-57.5534"/>
</g>
<!-- Node160 -->
<g id="node26" class="node">
<title>Node160</title>
<g id="a_node26"><a xlink:href="TooSigning_8cpp.html#a2b55d98ebd75cdee560a9587339d8f35" target="_top" xlink:title="TooSigning_requested\l_noncelist_delete">
<polygon fill="#ffffff" stroke="#000000" points="507,-.5 507,-30.5 620,-30.5 620,-.5 507,-.5"/>
<text text-anchor="start" x="515" y="-18.5" font-family="Helvetica,sans-Serif" font-size="10.00" fill="#000000">TooSigning_requested</text>
<text text-anchor="middle" x="563.5" y="-7.5" font-family="Helvetica,sans-Serif" font-size="10.00" fill="#000000">_noncelist_delete</text>
</a>
</g>
</g>
<!-- Node158&#45;&gt;Node160 -->
<g id="edge30" class="edge">
<title>Node158&#45;&gt;Node160</title>
<path fill="none" stroke="#191970" d="M460.6828,-30.9709C472.4351,-29.2026 484.9185,-27.3242 496.986,-25.5084"/>
<polygon fill="#191970" stroke="#191970" points="497.6318,-28.9507 506.9997,-24.0016 496.5902,-22.0286 497.6318,-28.9507"/>
</g>
</g>
</svg>
        <g id="navigator" transform="translate(0 0)" fill="#404254">
                <rect fill="#f2f5e9" fill-opacity="0.5" stroke="#606060" stroke-width=".5" x="0" y="0" width="60" height="60"/>
                <use id="zoomplus" xlink:href="#zoomPlus" x="17" y="9" onmousedown="handleZoom(evt,'in')"/>
                <use id="zoomminus" xlink:href="#zoomMin" x="42" y="9" onmousedown="handleZoom(evt,'out')"/>
                <use id="reset" xlink:href="#resetDef" x="30" y="36" onmousedown="handleReset()"/>
                <g id="arrowUp" xlink:href="#dirArrow" transform="translate(30 24)" onmousedown="handlePan(0,-1)">
                  <use xlink:href="#rim" fill="#404040">
                        <set attributeName="fill" to="#808080" begin="arrowUp.mouseover" end="arrowUp.mouseout"/>
                  </use>
                  <path fill="none" stroke="white" stroke-width="1.5" d="M0,-3.0v7 M-2.5,-0.5L0,-3.0L2.5,-0.5"/>
                </g>
                <g id="arrowRight" xlink:href="#dirArrow" transform="rotate(90) translate(36 -43)" onmousedown="handlePan(1,0)">
                  <use xlink:href="#rim" fill="#404040">
                        <set attributeName="fill" to="#808080" begin="arrowRight.mouseover" end="arrowRight.mouseout"/>
                  </use>
                  <path fill="none" stroke="white" stroke-width="1.5" d="M0,-3.0v7 M-2.5,-0.5L0,-3.0L2.5,-0.5"/>
                </g>
                <g id="arrowDown" xlink:href="#dirArrow" transform="rotate(180) translate(-30 -48)" onmousedown="handlePan(0,1)">
                  <use xlink:href="#rim" fill="#404040">
                        <set attributeName="fill" to="#808080" begin="arrowDown.mouseover" end="arrowDown.mouseout"/>
                  </use>
                  <path fill="none" stroke="white" stroke-width="1.5" d="M0,-3.0v7 M-2.5,-0.5L0,-3.0L2.5,-0.5"/>
                </g>
                <g id="arrowLeft" xlink:href="#dirArrow" transform="rotate(270) translate(-36 17)" onmousedown="handlePan(-1,0)">
                  <use xlink:href="#rim" fill="#404040">
                        <set attributeName="fill" to="#808080" begin="arrowLeft.mouseover" end="arrowLeft.mouseout"/>
                  </use>
                  <path fill="none" stroke="white" stroke-width="1.5" d="M0,-3.0v7 M-2.5,-0.5L0,-3.0L2.5,-0.5"/>
                </g>
        </g>
        <svg viewBox="0 0 15 15" width="100%" height="30px" preserveAspectRatio="xMaxYMin meet">
         <g id="arrow_out" transform="scale(0.3 0.3)">
          <a xlink:href="TooSigning_8cpp_a03df9fd005c518d1114f912ae7da9f06_cgraph_org.svg" target="_base">
           <rect id="button" ry="5" rx="5" y="6" x="6" height="38" width="38"
                fill="#f2f5e9" fill-opacity="0.5" stroke="#606060" stroke-width="1.0"/>
           <path id="arrow"
             d="M 11.500037,31.436501 C 11.940474,20.09759 22.043105,11.32322 32.158766,21.979434 L 37.068811,17.246167 C 37.068811,17.246167 37.088388,32 37.088388,32 L 22.160133,31.978069 C 22.160133,31.978069 26.997745,27.140456 26.997745,27.140456 C 18.528582,18.264221 13.291696,25.230495 11.500037,31.436501 z"
             style="fill:#404040;"/>
          </a>
         </g>
        </svg>
</svg>
