<?xml version="1.0" encoding="UTF-8" standalone="no"?>
<!DOCTYPE svg PUBLIC "-//W3C//DTD SVG 1.1//EN"
 "http://www.w3.org/Graphics/SVG/1.1/DTD/svg11.dtd">
<!-- Generated by graphviz version 2.40.1 (20161225.0304)
 -->
<!-- Title: TooSigning_signed_network_update Pages: 1 -->
<svg width="1050pt" height="88pt"
 viewBox="0.00 0.00 1050.00 88.00" xmlns="http://www.w3.org/2000/svg" xmlns:xlink="http://www.w3.org/1999/xlink">
<g id="graph0" class="graph" transform="scale(1 1) rotate(0) translate(4 84)">
<title>TooSigning_signed_network_update</title>
<polygon fill="#ffffff" stroke="transparent" points="-4,4 -4,-84 1046,-84 1046,4 -4,4"/>
<!-- Node152 -->
<g id="node1" class="node">
<title>Node152</title>
<polygon fill="#bfbfbf" stroke="#000000" points="0,-24.5 0,-54.5 139,-54.5 139,-24.5 0,-24.5"/>
<text text-anchor="start" x="8" y="-42.5" font-family="Helvetica,sans-Serif" font-size="10.00" fill="#000000">TooSigning_signed_network</text>
<text text-anchor="middle" x="69.5" y="-31.5" font-family="Helvetica,sans-Serif" font-size="10.00" fill="#000000">_update</text>
</g>
<!-- Node153 -->
<g id="node2" class="node">
<title>Node153</title>
<g id="a_node2"><a xlink:href="TooSigning_8cpp.html#a8890d5d49f39fc0a0e92f1f4910e543e" target="_top" xlink:title="TooSigning_requested\l_noncelist_retry_all">
<polygon fill="#ffffff" stroke="#000000" points="175,-24.5 175,-54.5 288,-54.5 288,-24.5 175,-24.5"/>
<text text-anchor="start" x="183" y="-42.5" font-family="Helvetica,sans-Serif" font-size="10.00" fill="#000000">TooSigning_requested</text>
<text text-anchor="middle" x="231.5" y="-31.5" font-family="Helvetica,sans-Serif" font-size="10.00" fill="#000000">_noncelist_retry_all</text>
</a>
</g>
</g>
<!-- Node152&#45;&gt;Node153 -->
<g id="edge1" class="edge">
<title>Node152&#45;&gt;Node153</title>
<path fill="none" stroke="#191970" d="M139.1427,-39.5C147.5563,-39.5 156.1366,-39.5 164.5109,-39.5"/>
<polygon fill="#191970" stroke="#191970" points="164.5985,-43.0001 174.5984,-39.5 164.5984,-36.0001 164.5985,-43.0001"/>
</g>
<!-- Node154 -->
<g id="node3" class="node">
<title>Node154</title>
<g id="a_node3"><a xlink:href="group__TOOSIGNING__DEBUGGING.html#gabb54a5e4968d69e35d665869d5c6588f" target="_top" xlink:title="TooSigning_requested\l_noncelist_print">
<polygon fill="#ffffff" stroke="#000000" points="324,-49.5 324,-79.5 437,-79.5 437,-49.5 324,-49.5"/>
<text text-anchor="start" x="332" y="-67.5" font-family="Helvetica,sans-Serif" font-size="10.00" fill="#000000">TooSigning_requested</text>
<text text-anchor="middle" x="380.5" y="-56.5" font-family="Helvetica,sans-Serif" font-size="10.00" fill="#000000">_noncelist_print</text>
</a>
</g>
</g>
<!-- Node153&#45;&gt;Node154 -->
<g id="edge2" class="edge">
<title>Node153&#45;&gt;Node154</title>
<path fill="none" stroke="#191970" d="M288.2556,-49.0227C296.6493,-50.4311 305.3621,-51.893 313.9332,-53.3311"/>
<polygon fill="#191970" stroke="#191970" points="313.4609,-56.8007 323.9022,-55.0037 314.6193,-49.8972 313.4609,-56.8007"/>
</g>
<!-- Node155 -->
<g id="node4" class="node">
<title>Node155</title>
<g id="a_node4"><a xlink:href="TooSigning_8cpp.html#a58143364a83636a3d2df075a95cb2bfc" target="_top" xlink:title="TooSigning_request\l_nonce_from_node_id">
<polygon fill="#ffffff" stroke="#000000" points="324.5,-.5 324.5,-30.5 436.5,-30.5 436.5,-.5 324.5,-.5"/>
<text text-anchor="start" x="332.5" y="-18.5" font-family="Helvetica,sans-Serif" font-size="10.00" fill="#000000">TooSigning_request</text>
<text text-anchor="middle" x="380.5" y="-7.5" font-family="Helvetica,sans-Serif" font-size="10.00" fill="#000000">_nonce_from_node_id</text>
</a>
</g>
</g>
<!-- Node153&#45;&gt;Node155 -->
<g id="edge3" class="edge">
<title>Node153&#45;&gt;Node155</title>
<path fill="none" stroke="#191970" d="M288.2556,-30.3582C296.7675,-28.9871 305.6076,-27.5632 314.2953,-26.1639"/>
<polygon fill="#191970" stroke="#191970" points="315.0789,-29.5828 324.3951,-24.537 313.9657,-22.6719 315.0789,-29.5828"/>
</g>
<!-- Node156 -->
<g id="node5" class="node">
<title>Node156</title>
<g id="a_node5"><a xlink:href="TooSigning_8cpp.html#a7c4b40a9376e0044a89b8abe3a83c970" target="_top" xlink:title="TooSigning_connection_fix">
<polygon fill="#ffffff" stroke="#000000" points="473,-6 473,-25 607,-25 607,-6 473,-6"/>
<text text-anchor="middle" x="540" y="-13" font-family="Helvetica,sans-Serif" font-size="10.00" fill="#000000">TooSigning_connection_fix</text>
</a>
</g>
</g>
<!-- Node155&#45;&gt;Node156 -->
<g id="edge4" class="edge">
<title>Node155&#45;&gt;Node156</title>
<path fill="none" stroke="#191970" d="M436.7337,-15.5C445.1141,-15.5 453.8749,-15.5 462.5983,-15.5"/>
<polygon fill="#191970" stroke="#191970" points="462.7965,-19.0001 472.7965,-15.5 462.7964,-12.0001 462.7965,-19.0001"/>
</g>
<!-- Node157 -->
<g id="node6" class="node">
<title>Node157</title>
<g id="a_node6"><a xlink:href="TooNetworking_8cpp.html#aefc5dad88b637efb11a3a7b2f76a19b9" target="_top" xlink:title="TooNetworking_connection_fix">
<polygon fill="#ffffff" stroke="#000000" points="643,-6 643,-25 794,-25 794,-6 643,-6"/>
<text text-anchor="middle" x="718.5" y="-13" font-family="Helvetica,sans-Serif" font-size="10.00" fill="#000000">TooNetworking_connection_fix</text>
</a>
</g>
</g>
<!-- Node156&#45;&gt;Node157 -->
<g id="edge5" class="edge">
<title>Node156&#45;&gt;Node157</title>
<path fill="none" stroke="#191970" d="M607.2288,-15.5C615.6106,-15.5 624.2687,-15.5 632.8817,-15.5"/>
<polygon fill="#191970" stroke="#191970" points="632.9526,-19.0001 642.9526,-15.5 632.9525,-12.0001 632.9526,-19.0001"/>
</g>
<!-- Node158 -->
<g id="node7" class="node">
<title>Node158</title>
<g id="a_node7"><a xlink:href="TooNetworking_8cpp.html#ac352268e177fa2ddf91c8afa5cd04bbf" target="_top" xlink:title="TooNetworking_connection\l_available">
<polygon fill="#ffffff" stroke="#000000" points="830,-22.5 830,-52.5 965,-52.5 965,-22.5 830,-22.5"/>
<text text-anchor="start" x="838" y="-40.5" font-family="Helvetica,sans-Serif" font-size="10.00" fill="#000000">TooNetworking_connection</text>
<text text-anchor="middle" x="897.5" y="-29.5" font-family="Helvetica,sans-Serif" font-size="10.00" fill="#000000">_available</text>
</a>
</g>
</g>
<!-- Node157&#45;&gt;Node158 -->
<g id="edge6" class="edge">
<title>Node157&#45;&gt;Node158</title>
<path fill="none" stroke="#191970" d="M794.1527,-24.7981C802.6566,-25.8433 811.3316,-26.9095 819.8602,-27.9577"/>
<polygon fill="#191970" stroke="#191970" points="819.4336,-31.4315 829.7859,-29.1776 820.2876,-24.4838 819.4336,-31.4315"/>
</g>
<!-- Node159 -->
<g id="node8" class="node">
<title>Node159</title>
<g id="a_node8"><a xlink:href="TooNetworking_8cpp.html#abdda8f09b9d475ed2c23a2376e2e0151" target="_top" xlink:title="mesh">
<polygon fill="#ffffff" stroke="#000000" points="1001,-6 1001,-25 1042,-25 1042,-6 1001,-6"/>
<text text-anchor="middle" x="1021.5" y="-13" font-family="Helvetica,sans-Serif" font-size="10.00" fill="#000000">mesh</text>
</a>
</g>
</g>
<!-- Node157&#45;&gt;Node159 -->
<g id="edge8" class="edge">
<title>Node157&#45;&gt;Node159</title>
<path fill="none" stroke="#191970" d="M794.0236,-13.879C842.8116,-13.081 907.6616,-12.4855 965,-13.5 973.3493,-13.6477 982.3893,-13.9182 990.7388,-14.2134"/>
<polygon fill="#191970" stroke="#191970" points="990.717,-17.715 1000.8415,-14.5933 990.9801,-10.7199 990.717,-17.715"/>
</g>
<!-- Node158&#45;&gt;Node159 -->
<g id="edge7" class="edge">
<title>Node158&#45;&gt;Node159</title>
<path fill="none" stroke="#191970" d="M965.3049,-25.4701C974.2455,-23.8839 983.0236,-22.3265 990.8869,-20.9314"/>
<polygon fill="#191970" stroke="#191970" points="991.737,-24.3353 1000.9718,-19.1421 990.5141,-17.4429 991.737,-24.3353"/>
</g>
</g>
</svg>
