<?xml version="1.0" encoding="UTF-8" standalone="no"?>
<!DOCTYPE svg PUBLIC "-//W3C//DTD SVG 1.1//EN"
 "http://www.w3.org/Graphics/SVG/1.1/DTD/svg11.dtd">
<!-- Generated by graphviz version 2.40.1 (20161225.0304)
 -->
<!-- Title: TooSigning_signed_network_update Pages: 1 -->
<svg width="1094pt" height="257pt"
 viewBox="0.00 0.00 1094.00 257.00" xmlns="http://www.w3.org/2000/svg" xmlns:xlink="http://www.w3.org/1999/xlink">
<g id="graph0" class="graph" transform="scale(1 1) rotate(0) translate(4 253)">
<title>TooSigning_signed_network_update</title>
<polygon fill="#ffffff" stroke="transparent" points="-4,4 -4,-253 1090,-253 1090,4 -4,4"/>
<!-- Node144 -->
<g id="node1" class="node">
<title>Node144</title>
<polygon fill="#bfbfbf" stroke="#000000" points="0,-122.5 0,-152.5 139,-152.5 139,-122.5 0,-122.5"/>
<text text-anchor="start" x="8" y="-140.5" font-family="Helvetica,sans-Serif" font-size="10.00" fill="#000000">TooSigning_signed_network</text>
<text text-anchor="middle" x="69.5" y="-129.5" font-family="Helvetica,sans-Serif" font-size="10.00" fill="#000000">_update</text>
</g>
<!-- Node145 -->
<g id="node2" class="node">
<title>Node145</title>
<g id="a_node2"><a xlink:href="TooSigning_8cpp.html#a0b3ecca47a6a96a8ac839d0611e2cd2f" target="_top" xlink:title="TooSigning_received\l_noncelist_remove_timeout">
<polygon fill="#ffffff" stroke="#000000" points="175,-196.5 175,-226.5 311,-226.5 311,-196.5 175,-196.5"/>
<text text-anchor="start" x="183" y="-214.5" font-family="Helvetica,sans-Serif" font-size="10.00" fill="#000000">TooSigning_received</text>
<text text-anchor="middle" x="243" y="-203.5" font-family="Helvetica,sans-Serif" font-size="10.00" fill="#000000">_noncelist_remove_timeout</text>
</a>
</g>
</g>
<!-- Node144&#45;&gt;Node145 -->
<g id="edge1" class="edge">
<title>Node144&#45;&gt;Node145</title>
<path fill="none" stroke="#191970" d="M99.1443,-152.5579C120.0874,-162.9462 148.9519,-176.7643 175,-187.5 179.3984,-189.3128 183.9893,-191.1162 188.6187,-192.8731"/>
<polygon fill="#191970" stroke="#191970" points="187.5327,-196.2033 198.1257,-196.4022 189.9688,-189.6409 187.5327,-196.2033"/>
</g>
<!-- Node148 -->
<g id="node5" class="node">
<title>Node148</title>
<g id="a_node5"><a xlink:href="TooSigning_8cpp.html#af35f5bd9d983d7d0479bab96fdf0d9d5" target="_top" xlink:title="TooSigning_sent_noncelist\l_remove_timeout">
<polygon fill="#ffffff" stroke="#000000" points="176,-147.5 176,-177.5 310,-177.5 310,-147.5 176,-147.5"/>
<text text-anchor="start" x="184" y="-165.5" font-family="Helvetica,sans-Serif" font-size="10.00" fill="#000000">TooSigning_sent_noncelist</text>
<text text-anchor="middle" x="243" y="-154.5" font-family="Helvetica,sans-Serif" font-size="10.00" fill="#000000">_remove_timeout</text>
</a>
</g>
</g>
<!-- Node144&#45;&gt;Node148 -->
<g id="edge5" class="edge">
<title>Node144&#45;&gt;Node148</title>
<path fill="none" stroke="#191970" d="M139.0694,-147.5244C147.9055,-148.7976 156.9893,-150.1065 165.9341,-151.3954"/>
<polygon fill="#191970" stroke="#191970" points="165.5564,-154.877 175.9533,-152.8391 166.5548,-147.9486 165.5564,-154.877"/>
</g>
<!-- Node150 -->
<g id="node7" class="node">
<title>Node150</title>
<g id="a_node7"><a xlink:href="TooSigning_8cpp.html#a9c84911150e861c8b51d6d301b75cd8f" target="_top" xlink:title="TooSigning_requested\l_noncelist_remove_timeout">
<polygon fill="#ffffff" stroke="#000000" points="175,-98.5 175,-128.5 311,-128.5 311,-98.5 175,-98.5"/>
<text text-anchor="start" x="183" y="-116.5" font-family="Helvetica,sans-Serif" font-size="10.00" fill="#000000">TooSigning_requested</text>
<text text-anchor="middle" x="243" y="-105.5" font-family="Helvetica,sans-Serif" font-size="10.00" fill="#000000">_noncelist_remove_timeout</text>
</a>
</g>
</g>
<!-- Node144&#45;&gt;Node150 -->
<g id="edge7" class="edge">
<title>Node144&#45;&gt;Node150</title>
<path fill="none" stroke="#191970" d="M139.0694,-127.8766C147.5394,-126.7049 156.2371,-125.5018 164.8218,-124.3143"/>
<polygon fill="#191970" stroke="#191970" points="165.4009,-127.7676 174.827,-122.9303 164.4417,-120.8336 165.4009,-127.7676"/>
</g>
<!-- Node152 -->
<g id="node9" class="node">
<title>Node152</title>
<g id="a_node9"><a xlink:href="TooSigning_8cpp.html#a8890d5d49f39fc0a0e92f1f4910e543e" target="_top" xlink:title="TooSigning_requested\l_noncelist_retry_all">
<polygon fill="#ffffff" stroke="#000000" points="186.5,-49.5 186.5,-79.5 299.5,-79.5 299.5,-49.5 186.5,-49.5"/>
<text text-anchor="start" x="194.5" y="-67.5" font-family="Helvetica,sans-Serif" font-size="10.00" fill="#000000">TooSigning_requested</text>
<text text-anchor="middle" x="243" y="-56.5" font-family="Helvetica,sans-Serif" font-size="10.00" fill="#000000">_noncelist_retry_all</text>
</a>
</g>
</g>
<!-- Node144&#45;&gt;Node152 -->
<g id="edge9" class="edge">
<title>Node144&#45;&gt;Node152</title>
<path fill="none" stroke="#191970" d="M101.0852,-122.3828C121.9063,-112.6032 149.8707,-99.8191 175,-89.5 180.0904,-87.4096 185.427,-85.3036 190.7769,-83.2483"/>
<polygon fill="#191970" stroke="#191970" points="192.2568,-86.4306 200.3709,-79.6179 189.7794,-79.8836 192.2568,-86.4306"/>
</g>
<!-- Node146 -->
<g id="node3" class="node">
<title>Node146</title>
<g id="a_node3"><a xlink:href="group__TOOSIGNING__DEBUGGING.html#gaba98f230fad779da673a83370ad7de5d" target="_top" xlink:title="TooSigning_received\l_noncelist_print">
<polygon fill="#ffffff" stroke="#000000" points="530.5,-218.5 530.5,-248.5 637.5,-248.5 637.5,-218.5 530.5,-218.5"/>
<text text-anchor="start" x="538.5" y="-236.5" font-family="Helvetica,sans-Serif" font-size="10.00" fill="#000000">TooSigning_received</text>
<text text-anchor="middle" x="584" y="-225.5" font-family="Helvetica,sans-Serif" font-size="10.00" fill="#000000">_noncelist_print</text>
</a>
</g>
</g>
<!-- Node145&#45;&gt;Node146 -->
<g id="edge2" class="edge">
<title>Node145&#45;&gt;Node146</title>
<path fill="none" stroke="#191970" d="M294.9382,-226.5274C311.4353,-230.6126 329.85,-234.4676 347,-236.5 405.2468,-243.4025 472.1063,-241.6883 519.9293,-238.813"/>
<polygon fill="#191970" stroke="#191970" points="520.3801,-242.2915 530.138,-238.1642 519.9361,-235.3056 520.3801,-242.2915"/>
</g>
<!-- Node147 -->
<g id="node4" class="node">
<title>Node147</title>
<g id="a_node4"><a xlink:href="TooSigning_8cpp.html#a17c243416f235786f027aa263693e3d5" target="_top" xlink:title="TooSigning_received\l_noncelist_remove">
<polygon fill="#ffffff" stroke="#000000" points="360.5,-196.5 360.5,-226.5 467.5,-226.5 467.5,-196.5 360.5,-196.5"/>
<text text-anchor="start" x="368.5" y="-214.5" font-family="Helvetica,sans-Serif" font-size="10.00" fill="#000000">TooSigning_received</text>
<text text-anchor="middle" x="414" y="-203.5" font-family="Helvetica,sans-Serif" font-size="10.00" fill="#000000">_noncelist_remove</text>
</a>
</g>
</g>
<!-- Node145&#45;&gt;Node147 -->
<g id="edge3" class="edge">
<title>Node145&#45;&gt;Node147</title>
<path fill="none" stroke="#191970" d="M311.0751,-211.5C324.0095,-211.5 337.4996,-211.5 350.2923,-211.5"/>
<polygon fill="#191970" stroke="#191970" points="350.3784,-215.0001 360.3784,-211.5 350.3783,-208.0001 350.3784,-215.0001"/>
</g>
<!-- Node147&#45;&gt;Node146 -->
<g id="edge4" class="edge">
<title>Node147&#45;&gt;Node146</title>
<path fill="none" stroke="#191970" d="M467.7891,-218.4609C484.4588,-220.6182 502.9883,-223.0161 520.2652,-225.252"/>
<polygon fill="#191970" stroke="#191970" points="519.9028,-228.7342 530.2693,-226.5466 520.8012,-221.7921 519.9028,-228.7342"/>
</g>
<!-- Node149 -->
<g id="node6" class="node">
<title>Node149</title>
<g id="a_node6"><a xlink:href="TooSigning_8cpp.html#a765df7c3e6a3b2be82c0f905f52ea535" target="_top" xlink:title="TooSigning_sent_noncelist\l_remove">
<polygon fill="#ffffff" stroke="#000000" points="347,-147.5 347,-177.5 481,-177.5 481,-147.5 347,-147.5"/>
<text text-anchor="start" x="355" y="-165.5" font-family="Helvetica,sans-Serif" font-size="10.00" fill="#000000">TooSigning_sent_noncelist</text>
<text text-anchor="middle" x="414" y="-154.5" font-family="Helvetica,sans-Serif" font-size="10.00" fill="#000000">_remove</text>
</a>
</g>
</g>
<!-- Node148&#45;&gt;Node149 -->
<g id="edge6" class="edge">
<title>Node148&#45;&gt;Node149</title>
<path fill="none" stroke="#191970" d="M310.0929,-162.5C318.7684,-162.5 327.7093,-162.5 336.535,-162.5"/>
<polygon fill="#191970" stroke="#191970" points="336.8199,-166.0001 346.8199,-162.5 336.8198,-159.0001 336.8199,-166.0001"/>
</g>
<!-- Node151 -->
<g id="node8" class="node">
<title>Node151</title>
<g id="a_node8"><a xlink:href="TooSigning_8cpp.html#a2b55d98ebd75cdee560a9587339d8f35" target="_top" xlink:title="TooSigning_requested\l_noncelist_delete">
<polygon fill="#ffffff" stroke="#000000" points="357.5,-98.5 357.5,-128.5 470.5,-128.5 470.5,-98.5 357.5,-98.5"/>
<text text-anchor="start" x="365.5" y="-116.5" font-family="Helvetica,sans-Serif" font-size="10.00" fill="#000000">TooSigning_requested</text>
<text text-anchor="middle" x="414" y="-105.5" font-family="Helvetica,sans-Serif" font-size="10.00" fill="#000000">_noncelist_delete</text>
</a>
</g>
</g>
<!-- Node150&#45;&gt;Node151 -->
<g id="edge8" class="edge">
<title>Node150&#45;&gt;Node151</title>
<path fill="none" stroke="#191970" d="M311.0751,-113.5C322.961,-113.5 335.3161,-113.5 347.1681,-113.5"/>
<polygon fill="#191970" stroke="#191970" points="347.4296,-117.0001 357.4296,-113.5 347.4295,-110.0001 347.4296,-117.0001"/>
</g>
<!-- Node153 -->
<g id="node10" class="node">
<title>Node153</title>
<g id="a_node10"><a xlink:href="group__TOOSIGNING__DEBUGGING.html#gabb54a5e4968d69e35d665869d5c6588f" target="_top" xlink:title="TooSigning_requested\l_noncelist_print">
<polygon fill="#ffffff" stroke="#000000" points="357.5,-49.5 357.5,-79.5 470.5,-79.5 470.5,-49.5 357.5,-49.5"/>
<text text-anchor="start" x="365.5" y="-67.5" font-family="Helvetica,sans-Serif" font-size="10.00" fill="#000000">TooSigning_requested</text>
<text text-anchor="middle" x="414" y="-56.5" font-family="Helvetica,sans-Serif" font-size="10.00" fill="#000000">_noncelist_print</text>
</a>
</g>
</g>
<!-- Node152&#45;&gt;Node153 -->
<g id="edge10" class="edge">
<title>Node152&#45;&gt;Node153</title>
<path fill="none" stroke="#191970" d="M299.9405,-64.5C315.0832,-64.5 331.5762,-64.5 347.1942,-64.5"/>
<polygon fill="#191970" stroke="#191970" points="347.3082,-68.0001 357.3081,-64.5 347.3081,-61.0001 347.3082,-68.0001"/>
</g>
<!-- Node154 -->
<g id="node11" class="node">
<title>Node154</title>
<g id="a_node11"><a xlink:href="TooSigning_8cpp.html#a58143364a83636a3d2df075a95cb2bfc" target="_top" xlink:title="TooSigning_request\l_nonce_from_node_id">
<polygon fill="#ffffff" stroke="#000000" points="358,-.5 358,-30.5 470,-30.5 470,-.5 358,-.5"/>
<text text-anchor="start" x="366" y="-18.5" font-family="Helvetica,sans-Serif" font-size="10.00" fill="#000000">TooSigning_request</text>
<text text-anchor="middle" x="414" y="-7.5" font-family="Helvetica,sans-Serif" font-size="10.00" fill="#000000">_nonce_from_node_id</text>
</a>
</g>
</g>
<!-- Node152&#45;&gt;Node154 -->
<g id="edge11" class="edge">
<title>Node152&#45;&gt;Node154</title>
<path fill="none" stroke="#191970" d="M295.7009,-49.3986C313.4189,-44.3215 333.3517,-38.6098 351.734,-33.3423"/>
<polygon fill="#191970" stroke="#191970" points="352.8241,-36.6709 361.4731,-30.5516 350.8958,-29.9417 352.8241,-36.6709"/>
</g>
<!-- Node155 -->
<g id="node12" class="node">
<title>Node155</title>
<g id="a_node12"><a xlink:href="TooSigning_8cpp.html#a7c4b40a9376e0044a89b8abe3a83c970" target="_top" xlink:title="TooSigning_connection_fix">
<polygon fill="#ffffff" stroke="#000000" points="517,-6 517,-25 651,-25 651,-6 517,-6"/>
<text text-anchor="middle" x="584" y="-13" font-family="Helvetica,sans-Serif" font-size="10.00" fill="#000000">TooSigning_connection_fix</text>
</a>
</g>
</g>
<!-- Node154&#45;&gt;Node155 -->
<g id="edge12" class="edge">
<title>Node154&#45;&gt;Node155</title>
<path fill="none" stroke="#191970" d="M470.1355,-15.5C481.8469,-15.5 494.3878,-15.5 506.7108,-15.5"/>
<polygon fill="#191970" stroke="#191970" points="506.9879,-19.0001 516.9879,-15.5 506.9878,-12.0001 506.9879,-19.0001"/>
</g>
<!-- Node156 -->
<g id="node13" class="node">
<title>Node156</title>
<g id="a_node13"><a xlink:href="TooNetworking_8cpp.html#aefc5dad88b637efb11a3a7b2f76a19b9" target="_top" xlink:title="TooNetworking_connection_fix">
<polygon fill="#ffffff" stroke="#000000" points="687,-6 687,-25 838,-25 838,-6 687,-6"/>
<text text-anchor="middle" x="762.5" y="-13" font-family="Helvetica,sans-Serif" font-size="10.00" fill="#000000">TooNetworking_connection_fix</text>
</a>
</g>
</g>
<!-- Node155&#45;&gt;Node156 -->
<g id="edge13" class="edge">
<title>Node155&#45;&gt;Node156</title>
<path fill="none" stroke="#191970" d="M651.2288,-15.5C659.6106,-15.5 668.2687,-15.5 676.8817,-15.5"/>
<polygon fill="#191970" stroke="#191970" points="676.9526,-19.0001 686.9526,-15.5 676.9525,-12.0001 676.9526,-19.0001"/>
</g>
<!-- Node157 -->
<g id="node14" class="node">
<title>Node157</title>
<g id="a_node14"><a xlink:href="TooNetworking_8cpp.html#a48504aef69d9ac92e34269a64f7b518b" target="_top" xlink:title="TooNetworking_connection\l_check">
<polygon fill="#ffffff" stroke="#000000" points="874,-22.5 874,-52.5 1009,-52.5 1009,-22.5 874,-22.5"/>
<text text-anchor="start" x="882" y="-40.5" font-family="Helvetica,sans-Serif" font-size="10.00" fill="#000000">TooNetworking_connection</text>
<text text-anchor="middle" x="941.5" y="-29.5" font-family="Helvetica,sans-Serif" font-size="10.00" fill="#000000">_check</text>
</a>
</g>
</g>
<!-- Node156&#45;&gt;Node157 -->
<g id="edge14" class="edge">
<title>Node156&#45;&gt;Node157</title>
<path fill="none" stroke="#191970" d="M838.1527,-24.7981C846.6566,-25.8433 855.3316,-26.9095 863.8602,-27.9577"/>
<polygon fill="#191970" stroke="#191970" points="863.4336,-31.4315 873.7859,-29.1776 864.2876,-24.4838 863.4336,-31.4315"/>
</g>
<!-- Node158 -->
<g id="node15" class="node">
<title>Node158</title>
<g id="a_node15"><a xlink:href="TooNetworking_8cpp.html#abdda8f09b9d475ed2c23a2376e2e0151" target="_top" xlink:title="mesh">
<polygon fill="#ffffff" stroke="#000000" points="1045,-6 1045,-25 1086,-25 1086,-6 1045,-6"/>
<text text-anchor="middle" x="1065.5" y="-13" font-family="Helvetica,sans-Serif" font-size="10.00" fill="#000000">mesh</text>
</a>
</g>
</g>
<!-- Node156&#45;&gt;Node158 -->
<g id="edge16" class="edge">
<title>Node156&#45;&gt;Node158</title>
<path fill="none" stroke="#191970" d="M838.0297,-13.0691C886.82,-11.8723 951.6704,-10.979 1009,-12.5 1017.3542,-12.7216 1026.3958,-13.1273 1034.7453,-13.5702"/>
<polygon fill="#191970" stroke="#191970" points="1034.666,-17.0712 1044.8473,-14.1401 1035.0604,-10.0823 1034.666,-17.0712"/>
</g>
<!-- Node157&#45;&gt;Node158 -->
<g id="edge15" class="edge">
<title>Node157&#45;&gt;Node158</title>
<path fill="none" stroke="#191970" d="M1009.3049,-25.4701C1018.2455,-23.8839 1027.0236,-22.3265 1034.8869,-20.9314"/>
<polygon fill="#191970" stroke="#191970" points="1035.737,-24.3353 1044.9718,-19.1421 1034.5141,-17.4429 1035.737,-24.3353"/>
</g>
</g>
</svg>
