<?xml version="1.0" encoding="UTF-8" standalone="no"?>
<!DOCTYPE svg PUBLIC "-//W3C//DTD SVG 1.1//EN"
 "http://www.w3.org/Graphics/SVG/1.1/DTD/svg11.dtd">
<!-- Generated by graphviz version 2.40.1 (20161225.0304)
 -->
<!-- Title: TooSigning_connection_fix Pages: 1 -->
<svg width="577pt" height="56pt"
 viewBox="0.00 0.00 577.00 55.50" xmlns="http://www.w3.org/2000/svg" xmlns:xlink="http://www.w3.org/1999/xlink">
<g id="graph0" class="graph" transform="scale(1 1) rotate(0) translate(4 51.5)">
<title>TooSigning_connection_fix</title>
<polygon fill="#ffffff" stroke="transparent" points="-4,4 -4,-51.5 573,-51.5 573,4 -4,4"/>
<!-- Node0 -->
<g id="node1" class="node">
<title>Node0</title>
<polygon fill="#bfbfbf" stroke="#000000" points="0,-.5 0,-19.5 134,-19.5 134,-.5 0,-.5"/>
<text text-anchor="middle" x="67" y="-7.5" font-family="Helvetica,sans-Serif" font-size="10.00" fill="#000000">TooSigning_connection_fix</text>
</g>
<!-- Node1 -->
<g id="node2" class="node">
<title>Node1</title>
<g id="a_node2"><a xlink:href="TooNetworking_8cpp.html#aefc5dad88b637efb11a3a7b2f76a19b9" target="_top" xlink:title="TooNetworking_connection_fix">
<polygon fill="#ffffff" stroke="#000000" points="170,-.5 170,-19.5 321,-19.5 321,-.5 170,-.5"/>
<text text-anchor="middle" x="245.5" y="-7.5" font-family="Helvetica,sans-Serif" font-size="10.00" fill="#000000">TooNetworking_connection_fix</text>
</a>
</g>
</g>
<!-- Node0&#45;&gt;Node1 -->
<g id="edge1" class="edge">
<title>Node0&#45;&gt;Node1</title>
<path fill="none" stroke="#191970" d="M134.2288,-10C142.6106,-10 151.2687,-10 159.8817,-10"/>
<polygon fill="#191970" stroke="#191970" points="159.9526,-13.5001 169.9526,-10 159.9525,-6.5001 159.9526,-13.5001"/>
</g>
<!-- Node2 -->
<g id="node3" class="node">
<title>Node2</title>
<g id="a_node3"><a xlink:href="TooNetworking_8cpp.html#a48504aef69d9ac92e34269a64f7b518b" target="_top" xlink:title="TooNetworking_connection\l_check">
<polygon fill="#ffffff" stroke="#000000" points="357,-17 357,-47 492,-47 492,-17 357,-17"/>
<text text-anchor="start" x="365" y="-35" font-family="Helvetica,sans-Serif" font-size="10.00" fill="#000000">TooNetworking_connection</text>
<text text-anchor="middle" x="424.5" y="-24" font-family="Helvetica,sans-Serif" font-size="10.00" fill="#000000">_check</text>
</a>
</g>
</g>
<!-- Node1&#45;&gt;Node2 -->
<g id="edge2" class="edge">
<title>Node1&#45;&gt;Node2</title>
<path fill="none" stroke="#191970" d="M321.1527,-19.2981C329.6566,-20.3433 338.3316,-21.4095 346.8602,-22.4577"/>
<polygon fill="#191970" stroke="#191970" points="346.4336,-25.9315 356.7859,-23.6776 347.2876,-18.9838 346.4336,-25.9315"/>
</g>
<!-- Node3 -->
<g id="node4" class="node">
<title>Node3</title>
<g id="a_node4"><a xlink:href="TooNetworking_8cpp.html#abdda8f09b9d475ed2c23a2376e2e0151" target="_top" xlink:title="mesh">
<polygon fill="#ffffff" stroke="#000000" points="528,-.5 528,-19.5 569,-19.5 569,-.5 528,-.5"/>
<text text-anchor="middle" x="548.5" y="-7.5" font-family="Helvetica,sans-Serif" font-size="10.00" fill="#000000">mesh</text>
</a>
</g>
</g>
<!-- Node1&#45;&gt;Node3 -->
<g id="edge4" class="edge">
<title>Node1&#45;&gt;Node3</title>
<path fill="none" stroke="#191970" d="M321.0236,-8.379C369.8116,-7.581 434.6616,-6.9855 492,-8 500.3493,-8.1477 509.3893,-8.4182 517.7388,-8.7134"/>
<polygon fill="#191970" stroke="#191970" points="517.717,-12.215 527.8415,-9.0933 517.9801,-5.2199 517.717,-12.215"/>
</g>
<!-- Node2&#45;&gt;Node3 -->
<g id="edge3" class="edge">
<title>Node2&#45;&gt;Node3</title>
<path fill="none" stroke="#191970" d="M492.3049,-19.9701C501.2455,-18.3839 510.0236,-16.8265 517.8869,-15.4314"/>
<polygon fill="#191970" stroke="#191970" points="518.737,-18.8353 527.9718,-13.6421 517.5141,-11.9429 518.737,-18.8353"/>
</g>
</g>
</svg>
