<?xml version="1.0" encoding="UTF-8" standalone="no"?>
<!DOCTYPE svg PUBLIC "-//W3C//DTD SVG 1.1//EN"
 "http://www.w3.org/Graphics/SVG/1.1/DTD/svg11.dtd">
<!-- Generated by graphviz version 2.40.1 (20161225.0304)
 -->
<!-- Title: TooSigning_sent_noncelist_add Pages: 1 -->
<svg width="333pt" height="88pt"
 viewBox="0.00 0.00 333.00 88.00" xmlns="http://www.w3.org/2000/svg" xmlns:xlink="http://www.w3.org/1999/xlink">
<g id="graph0" class="graph" transform="scale(1 1) rotate(0) translate(4 84)">
<title>TooSigning_sent_noncelist_add</title>
<polygon fill="#ffffff" stroke="transparent" points="-4,4 -4,-84 329,-84 329,4 -4,4"/>
<!-- Node111 -->
<g id="node1" class="node">
<title>Node111</title>
<polygon fill="#bfbfbf" stroke="#000000" points="0,-30 0,-49 155,-49 155,-30 0,-30"/>
<text text-anchor="middle" x="77.5" y="-37" font-family="Helvetica,sans-Serif" font-size="10.00" fill="#000000">TooSigning_sent_noncelist_add</text>
</g>
<!-- Node112 -->
<g id="node2" class="node">
<title>Node112</title>
<g id="a_node2"><a xlink:href="group__TOOSIGNING__INITIALIZE.html#ga0ad0c6af4c20b80f75ccf3d4a2804a0c" target="_top" xlink:title="TooSigning_sent_noncelist\l_initialize">
<polygon fill="#ffffff" stroke="#000000" points="191,-49.5 191,-79.5 325,-79.5 325,-49.5 191,-49.5"/>
<text text-anchor="start" x="199" y="-67.5" font-family="Helvetica,sans-Serif" font-size="10.00" fill="#000000">TooSigning_sent_noncelist</text>
<text text-anchor="middle" x="258" y="-56.5" font-family="Helvetica,sans-Serif" font-size="10.00" fill="#000000">_initialize</text>
</a>
</g>
</g>
<!-- Node111&#45;&gt;Node112 -->
<g id="edge1" class="edge">
<title>Node111&#45;&gt;Node112</title>
<path fill="none" stroke="#191970" d="M146.2542,-49.0227C157.5814,-50.5916 169.3882,-52.2269 180.9031,-53.8218"/>
<polygon fill="#191970" stroke="#191970" points="180.5421,-57.3051 190.9278,-55.2102 181.5025,-50.3713 180.5421,-57.3051"/>
</g>
<!-- Node113 -->
<g id="node3" class="node">
<title>Node113</title>
<g id="a_node3"><a xlink:href="TooSigning_8cpp.html#a015bd663d5920097e8dc755de8471dc1" target="_top" xlink:title="TooSigning_sent_noncelist\l_find_from_ID">
<polygon fill="#ffffff" stroke="#000000" points="191,-.5 191,-30.5 325,-30.5 325,-.5 191,-.5"/>
<text text-anchor="start" x="199" y="-18.5" font-family="Helvetica,sans-Serif" font-size="10.00" fill="#000000">TooSigning_sent_noncelist</text>
<text text-anchor="middle" x="258" y="-7.5" font-family="Helvetica,sans-Serif" font-size="10.00" fill="#000000">_find_from_ID</text>
</a>
</g>
</g>
<!-- Node111&#45;&gt;Node113 -->
<g id="edge2" class="edge">
<title>Node111&#45;&gt;Node113</title>
<path fill="none" stroke="#191970" d="M149.0976,-29.9801C159.5401,-28.5916 170.3309,-27.1568 180.8774,-25.7545"/>
<polygon fill="#191970" stroke="#191970" points="181.4433,-29.2102 190.8947,-24.4226 180.5206,-22.2712 181.4433,-29.2102"/>
</g>
</g>
</svg>
