<?xml version="1.0" encoding="UTF-8" standalone="no"?>
<!DOCTYPE svg PUBLIC "-//W3C//DTD SVG 1.1//EN"
 "http://www.w3.org/Graphics/SVG/1.1/DTD/svg11.dtd">
<!-- Generated by graphviz version 2.40.1 (20161225.0304)
 -->
<!-- Title: TooSigning_unsigned_network_available Pages: 1 -->
<!--zoomable 564 -->
<svg id="main" version="1.1" xmlns="http://www.w3.org/2000/svg" xmlns:xlink="http://www.w3.org/1999/xlink" xml:space="preserve" onload="init(evt)">
<style type="text/css"><![CDATA[
.edge:hover path { stroke: red; }
.edge:hover polygon { stroke: red; fill: red; }
]]></style>
<script type="text/javascript"><![CDATA[
var edges = document.getElementsByTagName('g');
if (edges && edges.length) {
  for (var i=0;i<edges.length;i++) {
    if (edges[i].id.substr(0,4)=='edge') {
      edges[i].setAttribute('class','edge');
    }
  }
}
]]></script>
        <defs>
                <circle id="rim" cx="0" cy="0" r="7"/>
                <circle id="rim2" cx="0" cy="0" r="3.5"/>
                <g id="zoomPlus">
                        <use xlink:href="#rim" fill="#404040">
                                <set attributeName="fill" to="#808080" begin="zoomplus.mouseover" end="zoomplus.mouseout"/>
                        </use>
                        <path d="M-4,0h8M0,-4v8" fill="none" stroke="white" stroke-width="1.5" pointer-events="none"/>
                </g>
                <g id="zoomMin">
                        <use xlink:href="#rim" fill="#404040">
                                <set attributeName="fill" to="#808080" begin="zoomminus.mouseover" end="zoomminus.mouseout"/>
                        </use>
                        <path d="M-4,0h8" fill="none" stroke="white" stroke-width="1.5" pointer-events="none"/>
                </g>
                <g id="dirArrow">
                        <path fill="none" stroke="white" stroke-width="1.5" d="M0,-3.0v7 M-2.5,-0.5L0,-3.0L2.5,-0.5"/>
                </g>
               <g id="resetDef">
                       <use xlink:href="#rim2" fill="#404040">
                               <set attributeName="fill" to="#808080" begin="reset.mouseover" end="reset.mouseout"/>
                       </use>
               </g>
        </defs>

<script type="text/javascript">
var viewWidth = 1110;
var viewHeight = 564;
var sectionId = 'dynsection-33';
</script>
<script xlink:href="svgpan.js"/>
<svg id="graph" class="graph">
<g id="viewport">
<title>TooSigning_unsigned_network_available</title>
<polygon fill="#ffffff" stroke="transparent" points="-4,4 -4,-560 1106,-560 1106,4 -4,4"/>
<!-- Node175 -->
<g id="node1" class="node">
<title>Node175</title>
<polygon fill="#bfbfbf" stroke="#000000" points="0,-299.5 0,-329.5 110,-329.5 110,-299.5 0,-299.5"/>
<text text-anchor="start" x="8" y="-317.5" font-family="Helvetica,sans-Serif" font-size="10.00" fill="#000000">TooSigning_unsigned</text>
<text text-anchor="middle" x="55" y="-306.5" font-family="Helvetica,sans-Serif" font-size="10.00" fill="#000000">_network_available</text>
</g>
<!-- Node176 -->
<g id="node2" class="node">
<title>Node176</title>
<g id="a_node2"><a xlink:href="TooSigning_8cpp.html#a3994a32f8b2275d51b6832644f703bc7" target="_top" xlink:title="TooSigning_read_hmac\l_from_progmem">
<polygon fill="#ffffff" stroke="#000000" points="164,-525.5 164,-555.5 283,-555.5 283,-525.5 164,-525.5"/>
<text text-anchor="start" x="172" y="-543.5" font-family="Helvetica,sans-Serif" font-size="10.00" fill="#000000">TooSigning_read_hmac</text>
<text text-anchor="middle" x="223.5" y="-532.5" font-family="Helvetica,sans-Serif" font-size="10.00" fill="#000000">_from_progmem</text>
</a>
</g>
</g>
<!-- Node175&#45;&gt;Node176 -->
<g id="edge1" class="edge">
<title>Node175&#45;&gt;Node176</title>
<path fill="none" stroke="#191970" d="M57.4619,-329.6847C64.3315,-367.1151 87.2121,-464.5297 146,-516.5 148.8031,-518.978 151.8589,-521.2002 155.0847,-523.1929"/>
<polygon fill="#191970" stroke="#191970" points="153.4966,-526.3127 163.9642,-527.9501 156.8024,-520.1425 153.4966,-526.3127"/>
</g>
<!-- Node177 -->
<g id="node3" class="node">
<title>Node177</title>
<g id="a_node3"><a xlink:href="group__TOOSIGNING__DEBUGGING.html#ga974dd51d29b9bd928de51c481289aad7" target="_top" xlink:title="TooSigning_random_data\l_print">
<polygon fill="#ffffff" stroke="#000000" points="160,-476.5 160,-506.5 287,-506.5 287,-476.5 160,-476.5"/>
<text text-anchor="start" x="168" y="-494.5" font-family="Helvetica,sans-Serif" font-size="10.00" fill="#000000">TooSigning_random_data</text>
<text text-anchor="middle" x="223.5" y="-483.5" font-family="Helvetica,sans-Serif" font-size="10.00" fill="#000000">_print</text>
</a>
</g>
</g>
<!-- Node175&#45;&gt;Node177 -->
<g id="edge2" class="edge">
<title>Node175&#45;&gt;Node177</title>
<path fill="none" stroke="#191970" d="M60.0414,-329.9204C70.8273,-360.5203 99.0531,-429.1766 146,-466.5 148.2825,-468.3146 150.7002,-469.9991 153.2166,-471.5626"/>
<polygon fill="#191970" stroke="#191970" points="151.6469,-474.6934 162.0991,-476.426 155.0087,-468.5535 151.6469,-474.6934"/>
</g>
<!-- Node178 -->
<g id="node4" class="node">
<title>Node178</title>
<g id="a_node4"><a xlink:href="classSha256Class.html#a73d3dcea6eb667fd146d12aa5d106939" target="_top" xlink:title="Sha256Class::initHmac">
<polygon fill="#ffffff" stroke="#000000" points="163.5,-438 163.5,-457 283.5,-457 283.5,-438 163.5,-438"/>
<text text-anchor="middle" x="223.5" y="-445" font-family="Helvetica,sans-Serif" font-size="10.00" fill="#000000">Sha256Class::initHmac</text>
</a>
</g>
</g>
<!-- Node175&#45;&gt;Node178 -->
<g id="edge3" class="edge">
<title>Node175&#45;&gt;Node178</title>
<path fill="none" stroke="#191970" d="M62.7889,-329.7189C76.2579,-354.4463 106.313,-403.1306 146,-428.5 149.3193,-430.6218 152.8575,-432.5067 156.525,-434.1811"/>
<polygon fill="#191970" stroke="#191970" points="155.2724,-437.4497 165.8566,-437.9247 157.8787,-430.953 155.2724,-437.4497"/>
</g>
<!-- Node186 -->
<g id="node12" class="node">
<title>Node186</title>
<g id="a_node12"><a xlink:href="group__TOOSIGNING__HASHING.html#gafb2935303b05255e80a7a6fa4be7cf57" target="_top" xlink:title="TooSigning_hash_data">
<polygon fill="#ffffff" stroke="#000000" points="165.5,-362 165.5,-381 281.5,-381 281.5,-362 165.5,-362"/>
<text text-anchor="middle" x="223.5" y="-369" font-family="Helvetica,sans-Serif" font-size="10.00" fill="#000000">TooSigning_hash_data</text>
</a>
</g>
</g>
<!-- Node175&#45;&gt;Node186 -->
<g id="edge12" class="edge">
<title>Node175&#45;&gt;Node186</title>
<path fill="none" stroke="#191970" d="M95.173,-329.5342C110.9587,-335.3194 129.2731,-341.8807 146,-347.5 157.4629,-351.3509 169.9534,-355.3181 181.4932,-358.8905"/>
<polygon fill="#191970" stroke="#191970" points="180.7528,-362.3244 191.3398,-361.9154 182.8085,-355.633 180.7528,-362.3244"/>
</g>
<!-- Node187 -->
<g id="node13" class="node">
<title>Node187</title>
<g id="a_node13"><a xlink:href="TooSigning_8cpp.html#a015bd663d5920097e8dc755de8471dc1" target="_top" xlink:title="TooSigning_sent_noncelist\l_find_from_ID">
<polygon fill="#ffffff" stroke="#000000" points="337,-315.5 337,-345.5 471,-345.5 471,-315.5 337,-315.5"/>
<text text-anchor="start" x="345" y="-333.5" font-family="Helvetica,sans-Serif" font-size="10.00" fill="#000000">TooSigning_sent_noncelist</text>
<text text-anchor="middle" x="404" y="-322.5" font-family="Helvetica,sans-Serif" font-size="10.00" fill="#000000">_find_from_ID</text>
</a>
</g>
</g>
<!-- Node175&#45;&gt;Node187 -->
<g id="edge14" class="edge">
<title>Node175&#45;&gt;Node187</title>
<path fill="none" stroke="#191970" d="M110.3001,-317.0352C168.5909,-319.7076 260.874,-323.9384 326.4279,-326.9437"/>
<polygon fill="#191970" stroke="#191970" points="326.5603,-330.4533 336.7101,-327.4151 326.8809,-323.4607 326.5603,-330.4533"/>
</g>
<!-- Node188 -->
<g id="node14" class="node">
<title>Node188</title>
<g id="a_node14"><a xlink:href="group__TOOSIGNING__HASHING.html#gae743dd1289d92f915352e40b047b4cc8" target="_top" xlink:title="TooSigning_hash_store">
<polygon fill="#ffffff" stroke="#000000" points="164,-248 164,-267 283,-267 283,-248 164,-248"/>
<text text-anchor="middle" x="223.5" y="-255" font-family="Helvetica,sans-Serif" font-size="10.00" fill="#000000">TooSigning_hash_store</text>
</a>
</g>
</g>
<!-- Node175&#45;&gt;Node188 -->
<g id="edge15" class="edge">
<title>Node175&#45;&gt;Node188</title>
<path fill="none" stroke="#191970" d="M87.8123,-299.3467C104.9167,-291.8207 126.3225,-282.9772 146,-276.5 153.4943,-274.0331 161.4899,-271.7235 169.3927,-269.6232"/>
<polygon fill="#191970" stroke="#191970" points="170.4925,-272.9545 179.3087,-267.0788 168.7526,-266.1742 170.4925,-272.9545"/>
</g>
<!-- Node189 -->
<g id="node15" class="node">
<title>Node189</title>
<g id="a_node15"><a xlink:href="classSha256Class.html#a7556f29cadf7eaca21a537df41318af3" target="_top" xlink:title="Sha256Class::resultHmac">
<polygon fill="#ffffff" stroke="#000000" points="158,-400 158,-419 289,-419 289,-400 158,-400"/>
<text text-anchor="middle" x="223.5" y="-407" font-family="Helvetica,sans-Serif" font-size="10.00" fill="#000000">Sha256Class::resultHmac</text>
</a>
</g>
</g>
<!-- Node175&#45;&gt;Node189 -->
<g id="edge16" class="edge">
<title>Node175&#45;&gt;Node189</title>
<path fill="none" stroke="#191970" d="M68.9264,-329.7362C85.593,-347.0424 115.1396,-374.8969 146,-390.5 150.6709,-392.8616 155.6511,-394.94 160.7476,-396.7673"/>
<polygon fill="#191970" stroke="#191970" points="160.0489,-400.2203 170.641,-399.9803 162.2111,-393.5626 160.0489,-400.2203"/>
</g>
<!-- Node190 -->
<g id="node16" class="node">
<title>Node190</title>
<g id="a_node16"><a xlink:href="group__TOOSIGNING__HASHING.html#ga7696a20bc1d03d129afbdc8d6e446aa2" target="_top" xlink:title="TooSigning_hash_print">
<polygon fill="#ffffff" stroke="#000000" points="165.5,-210 165.5,-229 281.5,-229 281.5,-210 165.5,-210"/>
<text text-anchor="middle" x="223.5" y="-217" font-family="Helvetica,sans-Serif" font-size="10.00" fill="#000000">TooSigning_hash_print</text>
</a>
</g>
</g>
<!-- Node175&#45;&gt;Node190 -->
<g id="edge20" class="edge">
<title>Node175&#45;&gt;Node190</title>
<path fill="none" stroke="#191970" d="M68.9264,-299.2638C85.593,-281.9576 115.1396,-254.1031 146,-238.5 150.6709,-236.1384 155.6511,-234.06 160.7476,-232.2327"/>
<polygon fill="#191970" stroke="#191970" points="162.2111,-235.4374 170.641,-229.0197 160.0489,-228.7797 162.2111,-235.4374"/>
</g>
<!-- Node191 -->
<g id="node17" class="node">
<title>Node191</title>
<g id="a_node17"><a xlink:href="group__TOOSIGNING__HASHING.html#ga3a6687a23b6971e4053bef8328e347dd" target="_top" xlink:title="TooSigning_hash_compare">
<polygon fill="#ffffff" stroke="#000000" points="156.5,-172 156.5,-191 290.5,-191 290.5,-172 156.5,-172"/>
<text text-anchor="middle" x="223.5" y="-179" font-family="Helvetica,sans-Serif" font-size="10.00" fill="#000000">TooSigning_hash_compare</text>
</a>
</g>
</g>
<!-- Node175&#45;&gt;Node191 -->
<g id="edge21" class="edge">
<title>Node175&#45;&gt;Node191</title>
<path fill="none" stroke="#191970" d="M62.7889,-299.2811C76.2579,-274.5537 106.313,-225.8694 146,-200.5 149.3193,-198.3782 152.8575,-196.4933 156.525,-194.8189"/>
<polygon fill="#191970" stroke="#191970" points="157.8787,-198.047 165.8566,-191.0753 155.2724,-191.5503 157.8787,-198.047"/>
</g>
<!-- Node192 -->
<g id="node18" class="node">
<title>Node192</title>
<g id="a_node18"><a xlink:href="TooSigning_8cpp.html#a15dc10b22577187e282a5b1da9ffec08" target="_top" xlink:title="TooSigning_sent_noncelist_add">
<polygon fill="#ffffff" stroke="#000000" points="146,-286 146,-305 301,-305 301,-286 146,-286"/>
<text text-anchor="middle" x="223.5" y="-293" font-family="Helvetica,sans-Serif" font-size="10.00" fill="#000000">TooSigning_sent_noncelist_add</text>
</a>
</g>
</g>
<!-- Node175&#45;&gt;Node192 -->
<g id="edge22" class="edge">
<title>Node175&#45;&gt;Node192</title>
<path fill="none" stroke="#191970" d="M110.1732,-308.2787C118.3825,-307.353 127.0116,-306.38 135.6911,-305.4013"/>
<polygon fill="#191970" stroke="#191970" points="136.3364,-308.8508 145.8812,-304.2523 135.552,-301.8949 136.3364,-308.8508"/>
</g>
<!-- Node194 -->
<g id="node20" class="node">
<title>Node194</title>
<g id="a_node20"><a xlink:href="group__TOOSIGNING__DEBUGGING.html#gab35891e0905f1ddec2ff8b649f63d5e5" target="_top" xlink:title="TooSigning_sent_noncelist\l_print">
<polygon fill="#ffffff" stroke="#000000" points="156.5,-122.5 156.5,-152.5 290.5,-152.5 290.5,-122.5 156.5,-122.5"/>
<text text-anchor="start" x="164.5" y="-140.5" font-family="Helvetica,sans-Serif" font-size="10.00" fill="#000000">TooSigning_sent_noncelist</text>
<text text-anchor="middle" x="223.5" y="-129.5" font-family="Helvetica,sans-Serif" font-size="10.00" fill="#000000">_print</text>
</a>
</g>
</g>
<!-- Node175&#45;&gt;Node194 -->
<g id="edge25" class="edge">
<title>Node175&#45;&gt;Node194</title>
<path fill="none" stroke="#191970" d="M60.0414,-299.0796C70.8273,-268.4797 99.0531,-199.8234 146,-162.5 148.2825,-160.6854 150.7002,-159.0009 153.2166,-157.4374"/>
<polygon fill="#191970" stroke="#191970" points="155.0087,-160.4465 162.0991,-152.574 151.6469,-154.3066 155.0087,-160.4465"/>
</g>
<!-- Node195 -->
<g id="node21" class="node">
<title>Node195</title>
<g id="a_node21"><a xlink:href="TooSigning_8cpp.html#a062eebefb7be0142400108d4b75c566a" target="_top" xlink:title="TooSigning_received\l_noncelist_add">
<polygon fill="#ffffff" stroke="#000000" points="170,-73.5 170,-103.5 277,-103.5 277,-73.5 170,-73.5"/>
<text text-anchor="start" x="178" y="-91.5" font-family="Helvetica,sans-Serif" font-size="10.00" fill="#000000">TooSigning_received</text>
<text text-anchor="middle" x="223.5" y="-80.5" font-family="Helvetica,sans-Serif" font-size="10.00" fill="#000000">_noncelist_add</text>
</a>
</g>
</g>
<!-- Node175&#45;&gt;Node195 -->
<g id="edge26" class="edge">
<title>Node175&#45;&gt;Node195</title>
<path fill="none" stroke="#191970" d="M57.5235,-299.4315C64.5338,-262.2801 87.71,-165.5447 146,-113.5 150.3913,-109.5792 155.4045,-106.2724 160.7212,-103.4837"/>
<polygon fill="#191970" stroke="#191970" points="162.2762,-106.621 169.8989,-99.2626 159.3512,-100.2614 162.2762,-106.621"/>
</g>
<!-- Node179 -->
<g id="node5" class="node">
<title>Node179</title>
<g id="a_node5"><a xlink:href="classSha256Class.html#ac1025d69c51fcd1b882ee41114e58339" target="_top" xlink:title="Sha256Class::init">
<polygon fill="#ffffff" stroke="#000000" points="357,-403 357,-422 451,-422 451,-403 357,-403"/>
<text text-anchor="middle" x="404" y="-410" font-family="Helvetica,sans-Serif" font-size="10.00" fill="#000000">Sha256Class::init</text>
</a>
</g>
</g>
<!-- Node178&#45;&gt;Node179 -->
<g id="edge4" class="edge">
<title>Node178&#45;&gt;Node179</title>
<path fill="none" stroke="#191970" d="M272.8224,-437.9361C295.7469,-433.4909 323.1413,-428.179 346.9526,-423.5618"/>
<polygon fill="#191970" stroke="#191970" points="347.7637,-426.9698 356.9146,-421.6301 346.4311,-420.0978 347.7637,-426.9698"/>
</g>
<!-- Node180 -->
<g id="node6" class="node">
<title>Node180</title>
<g id="a_node6"><a xlink:href="classSha256Class.html#a0f0fc4bd4d8c53d232df0d41d7ea25e0" target="_top" xlink:title="Sha256Class::write">
<polygon fill="#ffffff" stroke="#000000" points="353,-365 353,-384 455,-384 455,-365 353,-365"/>
<text text-anchor="middle" x="404" y="-372" font-family="Helvetica,sans-Serif" font-size="10.00" fill="#000000">Sha256Class::write</text>
</a>
</g>
</g>
<!-- Node178&#45;&gt;Node180 -->
<g id="edge5" class="edge">
<title>Node178&#45;&gt;Node180</title>
<path fill="none" stroke="#191970" d="M278.2546,-437.9712C286.1495,-435.498 293.9714,-432.3934 301,-428.5 320.5205,-417.6867 317.6768,-404.662 337,-393.5 340.7101,-391.3569 344.6769,-389.443 348.7583,-387.736"/>
<polygon fill="#191970" stroke="#191970" points="350.2845,-390.9019 358.4224,-384.1178 347.83,-384.3463 350.2845,-390.9019"/>
</g>
<!-- Node184 -->
<g id="node10" class="node">
<title>Node184</title>
<g id="a_node10"><a xlink:href="classSha256Class.html#a0ca245a22f8b056a3d1902da3c64b705" target="_top" xlink:title="Sha256Class::result">
<polygon fill="#ffffff" stroke="#000000" points="351.5,-441 351.5,-460 456.5,-460 456.5,-441 351.5,-441"/>
<text text-anchor="middle" x="404" y="-448" font-family="Helvetica,sans-Serif" font-size="10.00" fill="#000000">Sha256Class::result</text>
</a>
</g>
</g>
<!-- Node178&#45;&gt;Node184 -->
<g id="edge9" class="edge">
<title>Node178&#45;&gt;Node184</title>
<path fill="none" stroke="#191970" d="M283.6039,-448.499C302.1213,-448.8067 322.5516,-449.1463 341.2426,-449.4569"/>
<polygon fill="#191970" stroke="#191970" points="341.3675,-452.9594 351.4243,-449.6262 341.4839,-445.9604 341.3675,-452.9594"/>
</g>
<!-- Node181 -->
<g id="node7" class="node">
<title>Node181</title>
<g id="a_node7"><a xlink:href="classSha256Class.html#ab0b46743e3d59b1c68f52ed89dfaff50" target="_top" xlink:title="Sha256Class::addUncounted">
<polygon fill="#ffffff" stroke="#000000" points="656,-402 656,-421 800,-421 800,-402 656,-402"/>
<text text-anchor="middle" x="728" y="-409" font-family="Helvetica,sans-Serif" font-size="10.00" fill="#000000">Sha256Class::addUncounted</text>
</a>
</g>
</g>
<!-- Node180&#45;&gt;Node181 -->
<g id="edge6" class="edge">
<title>Node180&#45;&gt;Node181</title>
<path fill="none" stroke="#191970" d="M455.3388,-380.3628C506.4481,-386.1993 585.7065,-395.2504 645.6234,-402.0928"/>
<polygon fill="#191970" stroke="#191970" points="645.4862,-405.5998 655.8188,-403.2571 646.2805,-398.645 645.4862,-405.5998"/>
</g>
<!-- Node182 -->
<g id="node8" class="node">
<title>Node182</title>
<g id="a_node8"><a xlink:href="classSha256Class.html#a399d2a23951e2130f54af8ac7712068f" target="_top" xlink:title="Sha256Class::hashBlock">
<polygon fill="#ffffff" stroke="#000000" points="836,-402 836,-421 963,-421 963,-402 836,-402"/>
<text text-anchor="middle" x="899.5" y="-409" font-family="Helvetica,sans-Serif" font-size="10.00" fill="#000000">Sha256Class::hashBlock</text>
</a>
</g>
</g>
<!-- Node181&#45;&gt;Node182 -->
<g id="edge7" class="edge">
<title>Node181&#45;&gt;Node182</title>
<path fill="none" stroke="#191970" d="M800.2344,-411.5C808.6298,-411.5 817.2026,-411.5 825.6198,-411.5"/>
<polygon fill="#191970" stroke="#191970" points="825.7873,-415.0001 835.7873,-411.5 825.7873,-408.0001 825.7873,-415.0001"/>
</g>
<!-- Node183 -->
<g id="node9" class="node">
<title>Node183</title>
<g id="a_node9"><a xlink:href="classSha256Class.html#ae275718ce9813bb33b2d8d8fbf018bd6" target="_top" xlink:title="Sha256Class::ror32">
<polygon fill="#ffffff" stroke="#000000" points="999,-402 999,-421 1102,-421 1102,-402 999,-402"/>
<text text-anchor="middle" x="1050.5" y="-409" font-family="Helvetica,sans-Serif" font-size="10.00" fill="#000000">Sha256Class::ror32</text>
</a>
</g>
</g>
<!-- Node182&#45;&gt;Node183 -->
<g id="edge8" class="edge">
<title>Node182&#45;&gt;Node183</title>
<path fill="none" stroke="#191970" d="M963.1,-411.5C971.5806,-411.5 980.2667,-411.5 988.7157,-411.5"/>
<polygon fill="#191970" stroke="#191970" points="988.8743,-415.0001 998.8743,-411.5 988.8742,-408.0001 988.8743,-415.0001"/>
</g>
<!-- Node185 -->
<g id="node11" class="node">
<title>Node185</title>
<g id="a_node11"><a xlink:href="classSha256Class.html#a82049dae520ccf0bd8478f2aef639149" target="_top" xlink:title="Sha256Class::pad">
<polygon fill="#ffffff" stroke="#000000" points="515,-431 515,-450 612,-450 612,-431 515,-431"/>
<text text-anchor="middle" x="563.5" y="-438" font-family="Helvetica,sans-Serif" font-size="10.00" fill="#000000">Sha256Class::pad</text>
</a>
</g>
</g>
<!-- Node184&#45;&gt;Node185 -->
<g id="edge10" class="edge">
<title>Node184&#45;&gt;Node185</title>
<path fill="none" stroke="#191970" d="M456.6683,-447.1979C472.0764,-446.2319 489.0148,-445.1699 504.7739,-444.1819"/>
<polygon fill="#191970" stroke="#191970" points="505.1702,-447.664 514.9315,-443.545 504.7321,-440.6777 505.1702,-447.664"/>
</g>
<!-- Node185&#45;&gt;Node181 -->
<g id="edge11" class="edge">
<title>Node185&#45;&gt;Node181</title>
<path fill="none" stroke="#191970" d="M612.41,-431.8776C628.6398,-429.0164 646.9542,-425.7877 664.1398,-422.758"/>
<polygon fill="#191970" stroke="#191970" points="664.8632,-426.1846 674.1036,-421.0015 663.6478,-419.2909 664.8632,-426.1846"/>
</g>
<!-- Node186&#45;&gt;Node180 -->
<g id="edge13" class="edge">
<title>Node186&#45;&gt;Node180</title>
<path fill="none" stroke="#191970" d="M281.6049,-372.4657C301.0878,-372.7895 322.8696,-373.1516 342.5966,-373.4794"/>
<polygon fill="#191970" stroke="#191970" points="342.6454,-376.9806 352.7022,-373.6474 342.7618,-369.9816 342.6454,-376.9806"/>
</g>
<!-- Node189&#45;&gt;Node179 -->
<g id="edge18" class="edge">
<title>Node189&#45;&gt;Node179</title>
<path fill="none" stroke="#191970" d="M289.1752,-410.5916C307.9689,-410.9039 328.3015,-411.2419 346.5601,-411.5453"/>
<polygon fill="#191970" stroke="#191970" points="346.6976,-415.048 356.7544,-411.7148 346.814,-408.049 346.6976,-415.048"/>
</g>
<!-- Node189&#45;&gt;Node180 -->
<g id="edge19" class="edge">
<title>Node189&#45;&gt;Node180</title>
<path fill="none" stroke="#191970" d="M272.8224,-399.9361C295.0081,-395.6342 321.3802,-390.5205 344.6395,-386.0103"/>
<polygon fill="#191970" stroke="#191970" points="345.5864,-389.392 354.7372,-384.0523 344.2538,-382.52 345.5864,-389.392"/>
</g>
<!-- Node189&#45;&gt;Node184 -->
<g id="edge17" class="edge">
<title>Node189&#45;&gt;Node184</title>
<path fill="none" stroke="#191970" d="M265.364,-419.0093C291.2421,-424.8874 324.6556,-432.4772 352.1952,-438.7327"/>
<polygon fill="#191970" stroke="#191970" points="351.5239,-442.1693 362.0508,-440.9714 353.0744,-435.3432 351.5239,-442.1693"/>
</g>
<!-- Node192&#45;&gt;Node187 -->
<g id="edge24" class="edge">
<title>Node192&#45;&gt;Node187</title>
<path fill="none" stroke="#191970" d="M272.8224,-305.0639C289.4678,-308.2915 308.4698,-311.9761 326.7456,-315.5199"/>
<polygon fill="#191970" stroke="#191970" points="326.3211,-319.0027 336.8045,-317.4704 327.6536,-312.1307 326.3211,-319.0027"/>
</g>
<!-- Node193 -->
<g id="node19" class="node">
<title>Node193</title>
<g id="a_node19"><a xlink:href="group__TOOSIGNING__INITIALIZE.html#ga0ad0c6af4c20b80f75ccf3d4a2804a0c" target="_top" xlink:title="TooSigning_sent_noncelist\l_initialize">
<polygon fill="#ffffff" stroke="#000000" points="337,-266.5 337,-296.5 471,-296.5 471,-266.5 337,-266.5"/>
<text text-anchor="start" x="345" y="-284.5" font-family="Helvetica,sans-Serif" font-size="10.00" fill="#000000">TooSigning_sent_noncelist</text>
<text text-anchor="middle" x="404" y="-273.5" font-family="Helvetica,sans-Serif" font-size="10.00" fill="#000000">_initialize</text>
</a>
</g>
</g>
<!-- Node192&#45;&gt;Node193 -->
<g id="edge23" class="edge">
<title>Node192&#45;&gt;Node193</title>
<path fill="none" stroke="#191970" d="M301.0958,-289.4815C309.6804,-288.8157 318.4208,-288.1377 326.998,-287.4725"/>
<polygon fill="#191970" stroke="#191970" points="327.2735,-290.9617 336.9728,-286.6988 326.7321,-283.9827 327.2735,-290.9617"/>
</g>
<!-- Node196 -->
<g id="node22" class="node">
<title>Node196</title>
<g id="a_node22"><a xlink:href="group__TOOSIGNING__DEBUGGING.html#gaba98f230fad779da673a83370ad7de5d" target="_top" xlink:title="TooSigning_received\l_noncelist_print">
<polygon fill="#ffffff" stroke="#000000" points="350.5,-.5 350.5,-30.5 457.5,-30.5 457.5,-.5 350.5,-.5"/>
<text text-anchor="start" x="358.5" y="-18.5" font-family="Helvetica,sans-Serif" font-size="10.00" fill="#000000">TooSigning_received</text>
<text text-anchor="middle" x="404" y="-7.5" font-family="Helvetica,sans-Serif" font-size="10.00" fill="#000000">_noncelist_print</text>
</a>
</g>
</g>
<!-- Node195&#45;&gt;Node196 -->
<g id="edge27" class="edge">
<title>Node195&#45;&gt;Node196</title>
<path fill="none" stroke="#191970" d="M258.1131,-73.4063C280.5129,-63.7516 310.3617,-51.0969 337,-40.5 342.1912,-38.4349 347.6276,-36.3233 353.0626,-34.2454"/>
<polygon fill="#191970" stroke="#191970" points="354.68,-37.3755 362.7909,-30.5589 352.1995,-30.8297 354.68,-37.3755"/>
</g>
<!-- Node197 -->
<g id="node23" class="node">
<title>Node197</title>
<g id="a_node23"><a xlink:href="group__TOOSIGNING__INITIALIZE.html#ga24011c99b90b9070adb424cee01a3fc2" target="_top" xlink:title="TooSigning_received\l_noncelist_initialize">
<polygon fill="#ffffff" stroke="#000000" points="350.5,-147.5 350.5,-177.5 457.5,-177.5 457.5,-147.5 350.5,-147.5"/>
<text text-anchor="start" x="358.5" y="-165.5" font-family="Helvetica,sans-Serif" font-size="10.00" fill="#000000">TooSigning_received</text>
<text text-anchor="middle" x="404" y="-154.5" font-family="Helvetica,sans-Serif" font-size="10.00" fill="#000000">_noncelist_initialize</text>
</a>
</g>
</g>
<!-- Node195&#45;&gt;Node197 -->
<g id="edge28" class="edge">
<title>Node195&#45;&gt;Node197</title>
<path fill="none" stroke="#191970" d="M277.2668,-103.5562C285.3776,-106.4785 293.5241,-109.8006 301,-113.5 318.459,-122.1395 319.6812,-129.5829 337,-138.5 340.3264,-140.2127 343.8034,-141.856 347.3486,-143.4224"/>
<polygon fill="#191970" stroke="#191970" points="346.2599,-146.7606 356.8364,-147.3839 348.9571,-140.3011 346.2599,-146.7606"/>
</g>
<!-- Node198 -->
<g id="node24" class="node">
<title>Node198</title>
<g id="a_node24"><a xlink:href="TooSigning_8cpp.html#a729dc41cfb692fb0aea083c38c5f3577" target="_top" xlink:title="TooSigning_received\l_noncelist_find_from_ID">
<polygon fill="#ffffff" stroke="#000000" points="343,-98.5 343,-128.5 465,-128.5 465,-98.5 343,-98.5"/>
<text text-anchor="start" x="351" y="-116.5" font-family="Helvetica,sans-Serif" font-size="10.00" fill="#000000">TooSigning_received</text>
<text text-anchor="middle" x="404" y="-105.5" font-family="Helvetica,sans-Serif" font-size="10.00" fill="#000000">_noncelist_find_from_ID</text>
</a>
</g>
</g>
<!-- Node195&#45;&gt;Node198 -->
<g id="edge29" class="edge">
<title>Node195&#45;&gt;Node198</title>
<path fill="none" stroke="#191970" d="M277.1672,-95.9331C294.6159,-98.3498 314.2606,-101.0707 332.7845,-103.6364"/>
<polygon fill="#191970" stroke="#191970" points="332.5535,-107.1377 342.9391,-105.0428 333.5139,-100.2039 332.5535,-107.1377"/>
</g>
<!-- Node199 -->
<g id="node25" class="node">
<title>Node199</title>
<g id="a_node25"><a xlink:href="TooSigning_8cpp.html#a451535471c647e6bb93141cc8e321432" target="_top" xlink:title="TooSigning_requested\l_noncelist_received">
<polygon fill="#ffffff" stroke="#000000" points="347.5,-49.5 347.5,-79.5 460.5,-79.5 460.5,-49.5 347.5,-49.5"/>
<text text-anchor="start" x="355.5" y="-67.5" font-family="Helvetica,sans-Serif" font-size="10.00" fill="#000000">TooSigning_requested</text>
<text text-anchor="middle" x="404" y="-56.5" font-family="Helvetica,sans-Serif" font-size="10.00" fill="#000000">_noncelist_received</text>
</a>
</g>
</g>
<!-- Node195&#45;&gt;Node199 -->
<g id="edge30" class="edge">
<title>Node195&#45;&gt;Node199</title>
<path fill="none" stroke="#191970" d="M277.1672,-81.3642C296.0164,-78.8579 317.4282,-76.0109 337.2214,-73.3792"/>
<polygon fill="#191970" stroke="#191970" points="337.9509,-76.8131 347.4023,-72.0255 337.0282,-69.8741 337.9509,-76.8131"/>
</g>
<!-- Node200 -->
<g id="node26" class="node">
<title>Node200</title>
<g id="a_node26"><a xlink:href="group__TOOSIGNING__DEBUGGING.html#gabb54a5e4968d69e35d665869d5c6588f" target="_top" xlink:title="TooSigning_requested\l_noncelist_print">
<polygon fill="#ffffff" stroke="#000000" points="507,-74.5 507,-104.5 620,-104.5 620,-74.5 507,-74.5"/>
<text text-anchor="start" x="515" y="-92.5" font-family="Helvetica,sans-Serif" font-size="10.00" fill="#000000">TooSigning_requested</text>
<text text-anchor="middle" x="563.5" y="-81.5" font-family="Helvetica,sans-Serif" font-size="10.00" fill="#000000">_noncelist_print</text>
</a>
</g>
</g>
<!-- Node199&#45;&gt;Node200 -->
<g id="edge31" class="edge">
<title>Node199&#45;&gt;Node200</title>
<path fill="none" stroke="#191970" d="M460.6828,-73.3845C472.4351,-75.2265 484.9185,-77.1832 496.986,-79.0746"/>
<polygon fill="#191970" stroke="#191970" points="496.5783,-82.5534 506.9997,-80.6442 497.6623,-75.6378 496.5783,-82.5534"/>
</g>
<!-- Node201 -->
<g id="node27" class="node">
<title>Node201</title>
<g id="a_node27"><a xlink:href="TooSigning_8cpp.html#a2b55d98ebd75cdee560a9587339d8f35" target="_top" xlink:title="TooSigning_requested\l_noncelist_delete">
<polygon fill="#ffffff" stroke="#000000" points="507,-25.5 507,-55.5 620,-55.5 620,-25.5 507,-25.5"/>
<text text-anchor="start" x="515" y="-43.5" font-family="Helvetica,sans-Serif" font-size="10.00" fill="#000000">TooSigning_requested</text>
<text text-anchor="middle" x="563.5" y="-32.5" font-family="Helvetica,sans-Serif" font-size="10.00" fill="#000000">_noncelist_delete</text>
</a>
</g>
</g>
<!-- Node199&#45;&gt;Node201 -->
<g id="edge32" class="edge">
<title>Node199&#45;&gt;Node201</title>
<path fill="none" stroke="#191970" d="M460.6828,-55.9709C472.4351,-54.2026 484.9185,-52.3242 496.986,-50.5084"/>
<polygon fill="#191970" stroke="#191970" points="497.6318,-53.9507 506.9997,-49.0016 496.5902,-47.0286 497.6318,-53.9507"/>
</g>
</g>
</svg>
        <g id="navigator" transform="translate(0 0)" fill="#404254">
                <rect fill="#f2f5e9" fill-opacity="0.5" stroke="#606060" stroke-width=".5" x="0" y="0" width="60" height="60"/>
                <use id="zoomplus" xlink:href="#zoomPlus" x="17" y="9" onmousedown="handleZoom(evt,'in')"/>
                <use id="zoomminus" xlink:href="#zoomMin" x="42" y="9" onmousedown="handleZoom(evt,'out')"/>
                <use id="reset" xlink:href="#resetDef" x="30" y="36" onmousedown="handleReset()"/>
                <g id="arrowUp" xlink:href="#dirArrow" transform="translate(30 24)" onmousedown="handlePan(0,-1)">
                  <use xlink:href="#rim" fill="#404040">
                        <set attributeName="fill" to="#808080" begin="arrowUp.mouseover" end="arrowUp.mouseout"/>
                  </use>
                  <path fill="none" stroke="white" stroke-width="1.5" d="M0,-3.0v7 M-2.5,-0.5L0,-3.0L2.5,-0.5"/>
                </g>
                <g id="arrowRight" xlink:href="#dirArrow" transform="rotate(90) translate(36 -43)" onmousedown="handlePan(1,0)">
                  <use xlink:href="#rim" fill="#404040">
                        <set attributeName="fill" to="#808080" begin="arrowRight.mouseover" end="arrowRight.mouseout"/>
                  </use>
                  <path fill="none" stroke="white" stroke-width="1.5" d="M0,-3.0v7 M-2.5,-0.5L0,-3.0L2.5,-0.5"/>
                </g>
                <g id="arrowDown" xlink:href="#dirArrow" transform="rotate(180) translate(-30 -48)" onmousedown="handlePan(0,1)">
                  <use xlink:href="#rim" fill="#404040">
                        <set attributeName="fill" to="#808080" begin="arrowDown.mouseover" end="arrowDown.mouseout"/>
                  </use>
                  <path fill="none" stroke="white" stroke-width="1.5" d="M0,-3.0v7 M-2.5,-0.5L0,-3.0L2.5,-0.5"/>
                </g>
                <g id="arrowLeft" xlink:href="#dirArrow" transform="rotate(270) translate(-36 17)" onmousedown="handlePan(-1,0)">
                  <use xlink:href="#rim" fill="#404040">
                        <set attributeName="fill" to="#808080" begin="arrowLeft.mouseover" end="arrowLeft.mouseout"/>
                  </use>
                  <path fill="none" stroke="white" stroke-width="1.5" d="M0,-3.0v7 M-2.5,-0.5L0,-3.0L2.5,-0.5"/>
                </g>
        </g>
        <svg viewBox="0 0 15 15" width="100%" height="30px" preserveAspectRatio="xMaxYMin meet">
         <g id="arrow_out" transform="scale(0.3 0.3)">
          <a xlink:href="TooSigning_8cpp_a03df9fd005c518d1114f912ae7da9f06_cgraph_org.svg" target="_base">
           <rect id="button" ry="5" rx="5" y="6" x="6" height="38" width="38"
                fill="#f2f5e9" fill-opacity="0.5" stroke="#606060" stroke-width="1.0"/>
           <path id="arrow"
             d="M 11.500037,31.436501 C 11.940474,20.09759 22.043105,11.32322 32.158766,21.979434 L 37.068811,17.246167 C 37.068811,17.246167 37.088388,32 37.088388,32 L 22.160133,31.978069 C 22.160133,31.978069 26.997745,27.140456 26.997745,27.140456 C 18.528582,18.264221 13.291696,25.230495 11.500037,31.436501 z"
             style="fill:#404040;"/>
          </a>
         </g>
        </svg>
</svg>
